  0
SECTION
  2
HEADER
  9
$ACADVER
  1
AC1024
  9
$ACADMAINTVER
 70
     6
  9
$DWGCODEPAGE
  3
ANSI_1252
  9
$LASTSAVEDBY
  1
bparkinson
  9
$INSBASE
 10
0.0
 20
0.0
 30
0.0
  9
$EXTMIN
 10
-121.9999999999848
 20
-79.50000000004829
 30
0.0
  9
$EXTMAX
 10
156.9579798062189
 20
130.2353130177738
 30
0.0
  9
$LIMMIN
 10
0.0
 20
0.0
  9
$LIMMAX
 10
420.0
 20
297.0
  9
$ORTHOMODE
 70
     1
  9
$REGENMODE
 70
     1
  9
$FILLMODE
 70
     1
  9
$QTEXTMODE
 70
     0
  9
$MIRRTEXT
 70
     1
  9
$LTSCALE
 40
1.0
  9
$ATTMODE
 70
     1
  9
$TEXTSIZE
 40
10.0
  9
$TRACEWID
 40
1.0
  9
$TEXTSTYLE
  7
Standard
  9
$CLAYER
  8
slots
  9
$CELTYPE
  6
ByLayer
  9
$CECOLOR
 62
   256
  9
$CELTSCALE
 40
1.0
  9
$DISPSILH
 70
     0
  9
$DIMSCALE
 40
1.0
  9
$DIMASZ
 40
3.302
  9
$DIMEXO
 40
1.0
  9
$DIMDLI
 40
3.75
  9
$DIMRND
 40
0.0
  9
$DIMDLE
 40
0.0
  9
$DIMEXE
 40
1.0
  9
$DIMTP
 40
0.0
  9
$DIMTM
 40
0.0
  9
$DIMTXT
 40
3.5
  9
$DIMCEN
 40
2.5
  9
$DIMTSZ
 40
0.0
  9
$DIMTOL
 70
     0
  9
$DIMLIM
 70
     0
  9
$DIMTIH
 70
     1
  9
$DIMTOH
 70
     1
  9
$DIMSE1
 70
     0
  9
$DIMSE2
 70
     0
  9
$DIMTAD
 70
     1
  9
$DIMZIN
 70
     0
  9
$DIMBLK
  1

  9
$DIMASO
 70
     1
  9
$DIMSHO
 70
     1
  9
$DIMPOST
  1

  9
$DIMAPOST
  1

  9
$DIMALT
 70
     0
  9
$DIMALTD
 70
     3
  9
$DIMALTF
 40
0.0393700787
  9
$DIMLFAC
 40
1.0
  9
$DIMTOFL
 70
     1
  9
$DIMTVP
 40
0.0
  9
$DIMTIX
 70
     0
  9
$DIMSOXD
 70
     0
  9
$DIMSAH
 70
     0
  9
$DIMBLK1
  1

  9
$DIMBLK2
  1

  9
$DIMSTYLE
  2
ISO-25
  9
$DIMCLRD
 70
     0
  9
$DIMCLRE
 70
     0
  9
$DIMCLRT
 70
     0
  9
$DIMTFAC
 40
1.0
  9
$DIMGAP
 40
1.524
  9
$DIMJUST
 70
     0
  9
$DIMSD1
 70
     0
  9
$DIMSD2
 70
     0
  9
$DIMTOLJ
 70
     0
  9
$DIMTZIN
 70
     0
  9
$DIMALTZ
 70
     0
  9
$DIMALTTZ
 70
     0
  9
$DIMUPT
 70
     0
  9
$DIMDEC
 70
     2
  9
$DIMTDEC
 70
     2
  9
$DIMALTU
 70
     2
  9
$DIMALTTD
 70
     3
  9
$DIMTXSTY
  7
Standard
  9
$DIMAUNIT
 70
     0
  9
$DIMADEC
 70
     2
  9
$DIMALTRND
 40
0.0
  9
$DIMAZIN
 70
     0
  9
$DIMDSEP
 70
    44
  9
$DIMATFIT
 70
     3
  9
$DIMFRAC
 70
     0
  9
$DIMLDRBLK
  1

  9
$DIMLUNIT
 70
     2
  9
$DIMLWD
 70
    -2
  9
$DIMLWE
 70
    -2
  9
$DIMTMOVE
 70
     0
  9
$DIMFXL
 40
1.0
  9
$DIMFXLON
 70
     0
  9
$DIMJOGANG
 40
0.7853981633974483
  9
$DIMTFILL
 70
     0
  9
$DIMTFILLCLR
 70
     0
  9
$DIMARCSYM
 70
     0
  9
$DIMLTYPE
  6

  9
$DIMLTEX1
  6

  9
$DIMLTEX2
  6

  9
$DIMTXTDIRECTION
 70
     0
  9
$LUNITS
 70
     2
  9
$LUPREC
 70
     2
  9
$SKETCHINC
 40
1.0
  9
$FILLETRAD
 40
2.5
  9
$AUNITS
 70
     0
  9
$AUPREC
 70
     2
  9
$MENU
  1
.
  9
$ELEVATION
 40
0.0
  9
$PELEVATION
 40
0.0
  9
$THICKNESS
 40
0.0
  9
$LIMCHECK
 70
     0
  9
$CHAMFERA
 40
0.0
  9
$CHAMFERB
 40
0.0
  9
$CHAMFERC
 40
0.0
  9
$CHAMFERD
 40
0.0
  9
$SKPOLY
 70
     0
  9
$TDCREATE
 40
2457764.509155799
  9
$TDUCREATE
 40
2457764.467489132
  9
$TDUPDATE
 40
2457884.51167897
  9
$TDUUPDATE
 40
2457884.470012303
  9
$TDINDWG
 40
0.0320590394
  9
$TDUSRTIMER
 40
2457884.469980903
  9
$USRTIMER
 70
     1
  9
$ANGBASE
 50
0.0
  9
$ANGDIR
 70
     0
  9
$PDMODE
 70
     0
  9
$PDSIZE
 40
-1.0
  9
$PLINEWID
 40
0.0
  9
$SPLFRAME
 70
     0
  9
$SPLINETYPE
 70
     6
  9
$SPLINESEGS
 70
     8
  9
$HANDSEED
  5
D39
  9
$SURFTAB1
 70
     6
  9
$SURFTAB2
 70
     6
  9
$SURFTYPE
 70
     6
  9
$SURFU
 70
     6
  9
$SURFV
 70
     6
  9
$UCSBASE
  2

  9
$UCSNAME
  2

  9
$UCSORG
 10
0.0
 20
0.0
 30
0.0
  9
$UCSXDIR
 10
1.0
 20
0.0
 30
0.0
  9
$UCSYDIR
 10
0.0
 20
1.0
 30
0.0
  9
$UCSORTHOREF
  2

  9
$UCSORTHOVIEW
 70
     0
  9
$UCSORGTOP
 10
0.0
 20
0.0
 30
0.0
  9
$UCSORGBOTTOM
 10
0.0
 20
0.0
 30
0.0
  9
$UCSORGLEFT
 10
0.0
 20
0.0
 30
0.0
  9
$UCSORGRIGHT
 10
0.0
 20
0.0
 30
0.0
  9
$UCSORGFRONT
 10
0.0
 20
0.0
 30
0.0
  9
$UCSORGBACK
 10
0.0
 20
0.0
 30
0.0
  9
$PUCSBASE
  2

  9
$PUCSNAME
  2

  9
$PUCSORG
 10
0.0
 20
0.0
 30
0.0
  9
$PUCSXDIR
 10
1.0
 20
0.0
 30
0.0
  9
$PUCSYDIR
 10
0.0
 20
1.0
 30
0.0
  9
$PUCSORTHOREF
  2

  9
$PUCSORTHOVIEW
 70
     0
  9
$PUCSORGTOP
 10
0.0
 20
0.0
 30
0.0
  9
$PUCSORGBOTTOM
 10
0.0
 20
0.0
 30
0.0
  9
$PUCSORGLEFT
 10
0.0
 20
0.0
 30
0.0
  9
$PUCSORGRIGHT
 10
0.0
 20
0.0
 30
0.0
  9
$PUCSORGFRONT
 10
0.0
 20
0.0
 30
0.0
  9
$PUCSORGBACK
 10
0.0
 20
0.0
 30
0.0
  9
$USERI1
 70
     0
  9
$USERI2
 70
     0
  9
$USERI3
 70
     0
  9
$USERI4
 70
     0
  9
$USERI5
 70
     0
  9
$USERR1
 40
0.0
  9
$USERR2
 40
0.0
  9
$USERR3
 40
0.0
  9
$USERR4
 40
0.0
  9
$USERR5
 40
0.0
  9
$WORLDVIEW
 70
     1
  9
$SHADEDGE
 70
     3
  9
$SHADEDIF
 70
    70
  9
$TILEMODE
 70
     1
  9
$MAXACTVP
 70
    64
  9
$PINSBASE
 10
0.0
 20
0.0
 30
0.0
  9
$PLIMCHECK
 70
     0
  9
$PEXTMIN
 10
1.000000000000000E+20
 20
1.000000000000000E+20
 30
1.000000000000000E+20
  9
$PEXTMAX
 10
-1.000000000000000E+20
 20
-1.000000000000000E+20
 30
-1.000000000000000E+20
  9
$PLIMMIN
 10
-557.7621668550661
 20
9.552982531271548
  9
$PLIMMAX
 10
-137.7621668550661
 20
306.5529825312715
  9
$UNITMODE
 70
     0
  9
$VISRETAIN
 70
     1
  9
$PLINEGEN
 70
     0
  9
$PSLTSCALE
 70
     1
  9
$TREEDEPTH
 70
  3020
  9
$CMLSTYLE
  2
Standard
  9
$CMLJUST
 70
     0
  9
$CMLSCALE
 40
20.0
  9
$PROXYGRAPHICS
 70
     1
  9
$MEASUREMENT
 70
     1
  9
$CELWEIGHT
370
    -1
  9
$ENDCAPS
280
     0
  9
$JOINSTYLE
280
     0
  9
$LWDISPLAY
290
     1
  9
$INSUNITS
 70
     4
  9
$HYPERLINKBASE
  1

  9
$STYLESHEET
  1

  9
$XEDIT
290
     1
  9
$CEPSNTYPE
380
     0
  9
$PSTYLEMODE
290
     1
  9
$FINGERPRINTGUID
  2
{A7165E57-DD50-4FAE-8F8C-05437C6A4A26}
  9
$VERSIONGUID
  2
{FAEB1C32-E019-11D5-929B-00C0DF256EC4}
  9
$EXTNAMES
290
     1
  9
$PSVPSCALE
 40
0.0
  9
$OLESTARTUP
290
     0
  9
$SORTENTS
280
   127
  9
$INDEXCTL
280
     0
  9
$HIDETEXT
280
     1
  9
$XCLIPFRAME
280
     2
  9
$HALOGAP
280
     0
  9
$OBSCOLOR
 70
   257
  9
$OBSLTYPE
280
     0
  9
$INTERSECTIONDISPLAY
280
     0
  9
$INTERSECTIONCOLOR
 70
   257
  9
$DIMASSOC
280
     2
  9
$PROJECTNAME
  1

  9
$CAMERADISPLAY
290
     0
  9
$LENSLENGTH
 40
50.0
  9
$CAMERAHEIGHT
 40
0.0
  9
$STEPSPERSEC
 40
2.0
  9
$STEPSIZE
 40
6.0
  9
$3DDWFPREC
 40
2.0
  9
$PSOLWIDTH
 40
0.25
  9
$PSOLHEIGHT
 40
4.0
  9
$LOFTANG1
 40
1.570796326794897
  9
$LOFTANG2
 40
1.570796326794897
  9
$LOFTMAG1
 40
0.0
  9
$LOFTMAG2
 40
0.0
  9
$LOFTPARAM
 70
     7
  9
$LOFTNORMALS
280
     1
  9
$LATITUDE
 40
37.795
  9
$LONGITUDE
 40
-122.394
  9
$NORTHDIRECTION
 40
0.0
  9
$TIMEZONE
 70
 -8000
  9
$LIGHTGLYPHDISPLAY
280
     1
  9
$TILEMODELIGHTSYNCH
280
     1
  9
$SOLIDHIST
280
     0
  9
$SHOWHIST
280
     1
  9
$DWFFRAME
280
     2
  9
$DGNFRAME
280
     2
  9
$REALWORLDSCALE
290
     1
  9
$INTERFERECOLOR
 62
   256
  9
$CSHADOW
280
     0
  9
$SHADOWPLANELOCATION
 40
0.0
  0
ENDSEC
  0
SECTION
  2
CLASSES
  0
CLASS
  1
ACDBDICTIONARYWDFLT
  2
AcDbDictionaryWithDefault
  3
ObjectDBX Classes
 90
        0
 91
        4
280
     0
281
     0
  0
CLASS
  1
VISUALSTYLE
  2
AcDbVisualStyle
  3
ObjectDBX Classes
 90
     4095
 91
        4
280
     0
281
     0
  0
CLASS
  1
MATERIAL
  2
AcDbMaterial
  3
ObjectDBX Classes
 90
     1153
 91
        4
280
     0
281
     0
  0
CLASS
  1
SCALE
  2
AcDbScale
  3
ObjectDBX Classes
 90
     1153
 91
        4
280
     0
281
     0
  0
CLASS
  1
SUN
  2
AcDbSun
  3
SCENEOE
 90
     1153
 91
        4
280
     0
281
     0
  0
CLASS
  1
ACDBPLACEHOLDER
  2
AcDbPlaceHolder
  3
ObjectDBX Classes
 90
        0
 91
        1
280
     0
281
     0
  0
CLASS
  1
LAYOUT
  2
AcDbLayout
  3
ObjectDBX Classes
 90
        0
 91
        1
280
     0
281
     0
  0
CLASS
  1
TABLESTYLE
  2
AcDbTableStyle
  3
ObjectDBX Classes
 90
     4095
 91
        4
280
     0
281
     0
  0
CLASS
  1
RASTERVARIABLES
  2
AcDbRasterVariables
  3
ISM
 90
        0
 91
        4
280
     0
281
     0
  0
CLASS
  1
MLEADERSTYLE
  2
AcDbMLeaderStyle
  3
ACDB_MLEADERSTYLE_CLASS
 90
     4095
 91
        4
280
     0
281
     0
  0
CLASS
  1
DICTIONARYVAR
  2
AcDbDictionaryVar
  3
ObjectDBX Classes
 90
        0
 91
        4
280
     0
281
     0
  0
CLASS
  1
DIMASSOC
  2
AcDbDimAssoc
  3
"AcDbDimAssoc|Product Desc:     AcDim ARX App For Dimension|Company:          Autodesk, Inc.|WEB Address:      www.autodesk.com"
 90
        0
 91
        4
280
     0
281
     0
  0
CLASS
  1
CELLSTYLEMAP
  2
AcDbCellStyleMap
  3
ObjectDBX Classes
 90
     1152
 91
        4
280
     0
281
     0
  0
ENDSEC
  0
SECTION
  2
TABLES
  0
TABLE
  2
VPORT
  5
8
330
0
100
AcDbSymbolTable
 70
     1
  0
VPORT
  5
29
330
8
100
AcDbSymbolTableRecord
100
AcDbViewportTableRecord
  2
*Active
 70
     0
 10
0.0
 20
0.0
 11
1.0
 21
1.0
 12
12.70376625851483
 22
17.80688573824263
 13
0.0
 23
0.0
 14
10.0
 24
10.0
 15
10.0
 25
10.0
 16
0.0
 26
0.0
 36
1.0
 17
0.0
 27
0.0
 37
0.0
 40
267.4125240977231
 41
2.051820728291316
 42
50.0
 43
0.0
 44
0.0
 50
0.0
 51
0.0
 71
    16
 72
   100
 73
     1
 74
     3
 75
     0
 76
     0
 77
     0
 78
     0
281
     0
 65
     1
110
0.0
120
0.0
130
0.0
111
1.0
121
0.0
131
0.0
112
0.0
122
1.0
132
0.0
 79
     0
146
0.0
348
9AF
 60
     3
 61
     5
292
     1
282
     1
141
0.0
142
0.0
 63
   256
361
9CB
  0
ENDTAB
  0
TABLE
  2
LTYPE
  5
5
330
0
100
AcDbSymbolTable
 70
     1
  0
LTYPE
  5
14
330
5
100
AcDbSymbolTableRecord
100
AcDbLinetypeTableRecord
  2
ByBlock
 70
     0
  3

 72
    65
 73
     0
 40
0.0
  0
LTYPE
  5
15
330
5
100
AcDbSymbolTableRecord
100
AcDbLinetypeTableRecord
  2
ByLayer
 70
     0
  3
Solid line
 72
    65
 73
     0
 40
0.0
  0
LTYPE
  5
16
330
5
100
AcDbSymbolTableRecord
100
AcDbLinetypeTableRecord
  2
Continuous
 70
     0
  3
Solid line
 72
    65
 73
     0
 40
0.0
  0
ENDTAB
  0
TABLE
  2
LAYER
  5
2
102
{ACAD_XDICTIONARY
360
F5
102
}
330
0
100
AcDbSymbolTable
 70
     4
  0
LAYER
  5
10
330
2
100
AcDbSymbolTableRecord
100
AcDbLayerTableRecord
  2
0
 70
     0
 62
     7
  6
Continuous
370
    -3
390
F
347
9C6
  0
LAYER
  5
3E8
330
2
100
AcDbSymbolTableRecord
100
AcDbLayerTableRecord
  2
slots
 70
     0
 62
     4
  6
Continuous
370
    -3
390
F
347
9C6
1001
AcAecLayerStandard
1000

1000

  0
LAYER
  5
952
330
2
100
AcDbSymbolTableRecord
100
AcDbLayerTableRecord
  2
Defpoints
 70
     0
 62
     6
  6
Continuous
290
     0
370
    -3
390
F
347
9C6
  0
LAYER
  5
9A3
330
2
100
AcDbSymbolTableRecord
100
AcDbLayerTableRecord
  2
1mm deep
 70
     0
 62
     6
  6
Continuous
370
    -3
390
F
347
9C6
1001
AcAecLayerStandard
1000

1000

  0
ENDTAB
  0
TABLE
  2
STYLE
  5
3
330
0
100
AcDbSymbolTable
 70
     1
  0
STYLE
  5
11
330
3
100
AcDbSymbolTableRecord
100
AcDbTextStyleTableRecord
  2
Standard
 70
     0
 40
0.0
 41
1.0
 50
0.0
 71
     0
 42
10.0
  3
txt
  4

  0
ENDTAB
  0
TABLE
  2
VIEW
  5
6
330
0
100
AcDbSymbolTable
 70
     0
  0
ENDTAB
  0
TABLE
  2
UCS
  5
7
330
0
100
AcDbSymbolTable
 70
     0
  0
ENDTAB
  0
TABLE
  2
APPID
  5
9
330
0
100
AcDbSymbolTable
 70
     3
  0
APPID
  5
12
330
9
100
AcDbSymbolTableRecord
100
AcDbRegAppTableRecord
  2
ACAD
 70
     0
  0
APPID
  5
F9
330
9
100
AcDbSymbolTableRecord
100
AcDbRegAppTableRecord
  2
AcAecLayerStandard
 70
     0
  0
APPID
  5
3D9
330
9
100
AcDbSymbolTableRecord
100
AcDbRegAppTableRecord
  2
ACAD_DSTYLE_DIMRADIAL_EXTENSION
 70
     0
  0
ENDTAB
  0
TABLE
  2
DIMSTYLE
  5
A
330
0
100
AcDbSymbolTable
 70
     1
100
AcDbDimStyleTable
  0
DIMSTYLE
105
27
330
A
100
AcDbSymbolTableRecord
100
AcDbDimStyleTableRecord
  2
ISO-25
 70
     0
 41
2.5
 42
0.625
 43
3.75
 44
1.25
 73
     0
 74
     0
 77
     1
 78
     8
140
2.5
141
2.5
143
0.0393700787
147
0.625
171
     3
172
     1
178
     0
271
     2
272
     2
274
     3
278
    44
283
     0
284
     8
340
11
  0
ENDTAB
  0
TABLE
  2
BLOCK_RECORD
  5
1
330
0
100
AcDbSymbolTable
 70
     4
  0
BLOCK_RECORD
  5
1F
330
1
100
AcDbSymbolTableRecord
100
AcDbBlockTableRecord
  2
*Model_Space
340
22
 70
     0
280
     1
281
     0
  0
BLOCK_RECORD
  5
1B
330
1
100
AcDbSymbolTableRecord
100
AcDbBlockTableRecord
  2
*Paper_Space
340
1E
 70
     0
280
     1
281
     0
  0
BLOCK_RECORD
  5
23
330
1
100
AcDbSymbolTableRecord
100
AcDbBlockTableRecord
  2
*Paper_Space0
340
26
 70
     0
280
     1
281
     0
  0
BLOCK_RECORD
  5
956
330
1
100
AcDbSymbolTableRecord
100
AcDbBlockTableRecord
  2
*D1
340
0
 70
     0
280
     1
281
     0
  0
BLOCK_RECORD
  5
966
330
1
100
AcDbSymbolTableRecord
100
AcDbBlockTableRecord
  2
*D2
340
0
 70
     0
280
     1
281
     0
  0
BLOCK_RECORD
  5
B31
330
1
100
AcDbSymbolTableRecord
100
AcDbBlockTableRecord
  2
*D3
340
0
 70
     0
280
     1
281
     0
  0
ENDTAB
  0
ENDSEC
  0
SECTION
  2
BLOCKS
  0
BLOCK
  5
20
330
1F
100
AcDbEntity
  8
0
100
AcDbBlockBegin
  2
*Model_Space
 70
     0
 10
0.0
 20
0.0
 30
0.0
  3
*Model_Space
  1
*Model_Space
  0
ENDBLK
  5
21
330
1F
100
AcDbEntity
  8
0
100
AcDbBlockEnd
  0
BLOCK
  5
1C
330
1B
100
AcDbEntity
 67
     1
  8
0
100
AcDbBlockBegin
  2
*Paper_Space
 70
     0
 10
0.0
 20
0.0
 30
0.0
  3
*Paper_Space
  1
*Paper_Space
  0
ENDBLK
  5
1D
330
1B
100
AcDbEntity
 67
     1
  8
0
100
AcDbBlockEnd
  0
BLOCK
  5
24
330
23
100
AcDbEntity
  8
0
100
AcDbBlockBegin
  2
*Paper_Space0
 70
     0
 10
0.0
 20
0.0
 30
0.0
  3
*Paper_Space0
  1
*Paper_Space0
  0
ENDBLK
  5
25
330
23
100
AcDbEntity
  8
0
100
AcDbBlockEnd
  0
BLOCK
  5
957
330
956
100
AcDbEntity
  8
0
100
AcDbBlockBegin
  2
*D1
 70
     1
 10
0.0
 20
0.0
 30
0.0
  3
*D1
  1

  0
LINE
  5
959
330
956
100
AcDbEntity
  8
0
 62
     0
370
    -2
100
AcDbLine
 10
-114.9109185131073
 20
77.50000000004827
 30
0.0
 11
-143.3704391077096
 21
77.50000000004826
 31
0.0
  0
LINE
  5
95A
330
956
100
AcDbEntity
  8
0
 62
     0
370
    -2
100
AcDbLine
 10
-114.9109185131073
 20
-75.50000000004866
 30
0.0
 11
-143.3704391077096
 21
-75.50000000004866
 31
0.0
  0
LINE
  5
95B
330
956
100
AcDbEntity
  8
0
 62
     0
370
    -2
100
AcDbLine
 10
-142.3704391077096
 20
74.19800000004825
 30
0.0
 11
-142.3704391077096
 21
4.565666666666473
 31
0.0
  0
LINE
  5
95C
330
956
100
AcDbEntity
  8
0
 62
     0
370
    -2
100
AcDbLine
 10
-142.3704391077096
 20
-72.19800000004865
 30
0.0
 11
-142.3704391077096
 21
-2.565666666666871
 31
0.0
  0
SOLID
  5
95D
330
956
100
AcDbEntity
  8
0
 62
     0
100
AcDbTrace
 10
-141.8201057743763
 20
74.19800000004825
 30
0.0
 11
-142.9207724410429
 21
74.19800000004825
 31
0.0
 12
-142.3704391077096
 22
77.50000000004826
 32
0.0
 13
-142.3704391077096
 23
77.50000000004826
 33
0.0
  0
SOLID
  5
95E
330
956
100
AcDbEntity
  8
0
 62
     0
100
AcDbTrace
 10
-142.9207724410429
 20
-72.19800000004865
 30
0.0
 11
-141.8201057743763
 21
-72.19800000004865
 31
0.0
 12
-142.3704391077096
 22
-75.50000000004866
 32
0.0
 13
-142.3704391077096
 23
-75.50000000004866
 33
0.0
  0
MTEXT
  5
95F
330
956
100
AcDbEntity
  8
0
 62
     0
100
AcDbMText
 10
-142.3704391077096
 20
0.999999999999801
 30
0.0
 40
3.5
 41
0.0
 46
0.0
 71
     5
 72
     1
  1
153,00
 73
     1
 44
1.0
  0
POINT
  5
960
330
956
100
AcDbEntity
  8
Defpoints
 62
     0
100
AcDbPoint
 10
-113.9109185131073
 20
77.50000000004827
 30
0.0
  0
POINT
  5
961
330
956
100
AcDbEntity
  8
Defpoints
 62
     0
100
AcDbPoint
 10
-113.9109185131073
 20
-75.50000000004866
 30
0.0
  0
POINT
  5
962
330
956
100
AcDbEntity
  8
Defpoints
 62
     0
100
AcDbPoint
 10
-142.3704391077096
 20
-75.50000000004866
 30
0.0
  0
ENDBLK
  5
958
330
956
100
AcDbEntity
  8
0
100
AcDbBlockEnd
  0
BLOCK
  5
967
330
966
100
AcDbEntity
  8
0
100
AcDbBlockBegin
  2
*D2
 70
     1
 10
0.0
 20
0.0
 30
0.0
  3
*D2
  1

  0
LINE
  5
969
330
966
100
AcDbEntity
  8
0
 62
     0
370
    -2
100
AcDbLine
 10
-150.8562991646809
 20
86.08119806408301
 30
0.0
 11
-135.9156324980142
 21
86.08119806408301
 31
0.0
  0
LINE
  5
96A
330
966
100
AcDbEntity
  8
0
 62
     0
370
    -2
100
AcDbLine
 10
-135.9156324980142
 20
86.08119806408301
 30
0.0
 11
-120.9756711660279
 21
76.86032956936421
 31
0.0
  0
MTEXT
  5
96B
330
966
100
AcDbEntity
  8
0
 62
     0
100
AcDbMText
 10
-144.1479658313476
 20
89.64686473074968
 30
0.0
 40
3.5
 41
0.0
 46
0.0
 71
     5
 72
     1
  1
R5,00
 73
     1
 44
1.0
  0
LINE
  5
96C
330
966
100
AcDbEntity
  8
0
 62
     0
370
    -2
100
AcDbLine
 10
-113.9109185131073
 20
72.50000000004827
 30
0.0
 11
-118.1657683402096
 21
75.12607177149849
 31
0.0
  0
SOLID
  5
96D
330
966
100
AcDbEntity
  8
0
 62
     0
100
AcDbTrace
 10
-121.2647141323389
 20
76.39201243172782
 30
0.0
 11
-120.6866281997169
 21
77.3286467070006
 31
0.0
 12
-118.1657683402096
 22
75.12607177149849
 32
0.0
 13
-118.1657683402096
 23
75.12607177149849
 33
0.0
  0
POINT
  5
96E
330
966
100
AcDbEntity
  8
Defpoints
 62
     0
100
AcDbPoint
 10
-118.1657683402096
 20
75.12607177149849
 30
0.0
  0
POINT
  5
96F
330
966
100
AcDbEntity
  8
Defpoints
 62
     0
100
AcDbPoint
 10
-113.9109185131073
 20
72.50000000004827
 30
0.0
  0
ENDBLK
  5
968
330
966
100
AcDbEntity
  8
0
100
AcDbBlockEnd
  0
BLOCK
  5
B32
330
B31
100
AcDbEntity
  8
0
100
AcDbBlockBegin
  2
*D3
 70
     1
 10
0.0
 20
0.0
 30
0.0
  3
*D3
  1

  0
LINE
  5
B34
330
B31
100
AcDbEntity
  8
slots
 62
     0
370
    -2
100
AcDbLine
 10
-105.0000000000033
 20
57.99999999999991
 30
0.0
 11
-143.1863011234047
 21
57.9999999999999
 31
0.0
  0
LINE
  5
B35
330
B31
100
AcDbEntity
  8
slots
 62
     0
370
    -2
100
AcDbLine
 10
-105.0000000000033
 20
-65.0000000000001
 30
0.0
 11
-143.1863011234047
 21
-65.0000000000001
 31
0.0
  0
LINE
  5
B36
330
B31
100
AcDbEntity
  8
slots
 62
     0
370
    -2
100
AcDbLine
 10
-142.1863011234047
 20
54.6979999999999
 30
0.0
 11
-142.1863011234047
 21
0.0656666666665799
 31
0.0
  0
LINE
  5
B37
330
B31
100
AcDbEntity
  8
slots
 62
     0
370
    -2
100
AcDbLine
 10
-142.1863011234047
 20
-61.6980000000001
 30
0.0
 11
-142.1863011234047
 21
-7.065666666666758
 31
0.0
  0
SOLID
  5
B38
330
B31
100
AcDbEntity
  8
slots
 62
     0
100
AcDbTrace
 10
-141.6359677900714
 20
54.6979999999999
 30
0.0
 11
-142.7366344567381
 21
54.6979999999999
 31
0.0
 12
-142.1863011234047
 22
57.9999999999999
 32
0.0
 13
-142.1863011234047
 23
57.9999999999999
 33
0.0
  0
SOLID
  5
B39
330
B31
100
AcDbEntity
  8
slots
 62
     0
100
AcDbTrace
 10
-142.7366344567381
 20
-61.6980000000001
 30
0.0
 11
-141.6359677900714
 21
-61.6980000000001
 31
0.0
 12
-142.1863011234047
 22
-65.0000000000001
 32
0.0
 13
-142.1863011234047
 23
-65.0000000000001
 33
0.0
  0
MTEXT
  5
B3A
330
B31
100
AcDbEntity
  8
slots
 62
     0
100
AcDbMText
 10
-142.1863011234047
 20
-3.500000000000099
 30
0.0
 40
3.5
 41
0.0
 46
0.0
 71
     5
 72
     1
  1
123,00
 73
     1
 44
1.0
  0
POINT
  5
B3B
330
B31
100
AcDbEntity
  8
Defpoints
 62
     0
100
AcDbPoint
 10
-104.0000000000033
 20
57.99999999999991
 30
0.0
  0
POINT
  5
B3C
330
B31
100
AcDbEntity
  8
Defpoints
 62
     0
100
AcDbPoint
 10
-104.0000000000033
 20
-65.0000000000001
 30
0.0
  0
POINT
  5
B3D
330
B31
100
AcDbEntity
  8
Defpoints
 62
     0
100
AcDbPoint
 10
-142.1863011234047
 20
-65.0000000000001
 30
0.0
  0
ENDBLK
  5
B33
330
B31
100
AcDbEntity
  8
0
100
AcDbBlockEnd
  0
ENDSEC
  0
SECTION
  2
ENTITIES
  0
ARC
  5
B8
330
1F
100
AcDbEntity
  8
0
  6
Continuous
 62
     7
370
    15
100
AcDbCircle
 10
-689.0312499999
 20
0.0
 30
0.0
 40
811.0312499998788
100
AcDbArc
 50
354.839448578443
 51
5.160551421557028
  0
ARC
  5
BA
330
1F
100
AcDbEntity
  8
0
  6
Continuous
 62
     7
370
    15
100
AcDbCircle
 10
689.03125
 20
0.0
 30
0.0
 40
811.0312499999848
100
AcDbArc
 50
174.8394485784436
 51
185.1605514215564
  0
LINE
  5
942
330
1F
100
AcDbEntity
  8
0
100
AcDbLine
 10
-113.7328037396594
 20
77.50000000004829
 30
0.0
 11
-12.0000000000027
 21
77.50000000004827
 31
0.0
  0
ARC
  5
947
330
1F
100
AcDbEntity
  8
0
100
AcDbCircle
 10
-0.0000000000031122
 20
77.50000000004826
 30
0.0
 40
7.999999999999602
100
AcDbArc
 50
202.6198649480411
 51
337.3801350519587
  0
LINE
  5
948
330
1F
100
AcDbEntity
  8
0
100
AcDbLine
 10
11.99999999999645
 20
77.50000000004826
 30
0.0
 11
113.7328037396532
 21
77.50000000004826
 31
0.0
  0
ARC
  5
949
330
1F
100
AcDbEntity
  8
0
100
AcDbCircle
 10
-12.0000000000027
 20
72.50000000004827
 30
0.0
 40
5.0
100
AcDbArc
 50
22.61986494804109
 51
90.0
  0
ARC
  5
94A
330
1F
100
AcDbEntity
  8
0
100
AcDbCircle
 10
11.99999999999645
 20
72.50000000004826
 30
0.0
 40
5.0
100
AcDbArc
 50
90.0
 51
157.3801350519589
  0
TEXT
  5
94C
330
1F
100
AcDbEntity
  8
0
100
AcDbText
 10
-69.7086868604478
 20
120.2353130177738
 30
0.0
 40
10.0
  1
5mm material
100
AcDbText
  0
TEXT
  5
950
330
1F
100
AcDbEntity
  8
0
100
AcDbText
 10
-69.7086868604478
 20
105.7894443091175
 30
0.0
 40
10.0
  1
1mm chamfer outside keys
100
AcDbText
  0
ARC
  5
970
330
1F
100
AcDbEntity
  8
0
100
AcDbCircle
 10
-113.7328037396594
 20
72.50000000004827
 30
0.0
 40
5.0
100
AcDbArc
 50
90.0
 51
174.8394485784436
  0
ARC
  5
971
330
1F
100
AcDbEntity
  8
0
100
AcDbCircle
 10
113.7328037396532
 20
72.50000000004827
 30
0.0
 40
5.0
100
AcDbArc
 50
5.160551421557047
 51
90.0
  0
LINE
  5
972
330
1F
100
AcDbEntity
  8
0
100
AcDbLine
 10
11.99999999999645
 20
-77.50000000004826
 30
0.0
 11
113.7328037396532
 21
-77.50000000004826
 31
0.0
  0
LINE
  5
973
330
1F
100
AcDbEntity
  8
0
100
AcDbLine
 10
-113.7328037396595
 20
-77.50000000004829
 30
0.0
 11
-12.0000000000027
 21
-77.50000000004826
 31
0.0
  0
ARC
  5
974
330
1F
100
AcDbEntity
  8
0
100
AcDbCircle
 10
-0.0000000000031122
 20
-77.50000000004826
 30
0.0
 40
7.999999999999602
100
AcDbArc
 50
22.61986494804131
 51
157.3801350519589
  0
ARC
  5
975
330
1F
100
AcDbEntity
  8
0
100
AcDbCircle
 10
-12.0000000000027
 20
-72.50000000004827
 30
0.0
 40
5.0
100
AcDbArc
 50
270.0
 51
337.380135051959
  0
ARC
  5
976
330
1F
100
AcDbEntity
  8
0
100
AcDbCircle
 10
11.99999999999645
 20
-72.50000000004826
 30
0.0
 40
5.0
100
AcDbArc
 50
202.6198649480411
 51
270.0
  0
ARC
  5
979
330
1F
100
AcDbEntity
  8
0
100
AcDbCircle
 10
-113.7328037396595
 20
-72.50000000004827
 30
0.0
 40
5.0
100
AcDbArc
 50
185.1605514215562
 51
270.0
  0
ARC
  5
97A
330
1F
100
AcDbEntity
  8
0
100
AcDbCircle
 10
113.7328037396532
 20
-72.50000000004823
 30
0.0
 40
5.0
100
AcDbArc
 50
269.9999999999995
 51
354.8394485784429
  0
LINE
  5
97B
330
1F
100
AcDbEntity
  8
0
100
AcDbLine
 10
11.99999999999645
 20
-77.50000000004826
 30
0.0
 11
113.7328037396531
 21
-77.50000000004823
 31
0.0
  0
LINE
  5
97F
330
1F
100
AcDbEntity
  8
1mm deep
100
AcDbLine
 10
-82.00000000000313
 20
74.00000000004829
 30
0.0
 11
-82.00000000000313
 21
79.50000000004829
 31
0.0
  0
LINE
  5
980
330
1F
100
AcDbEntity
  8
1mm deep
100
AcDbLine
 10
-95.00000000000313
 20
74.00000000004829
 30
0.0
 11
-95.00000000000313
 21
79.50000000004829
 31
0.0
  0
LINE
  5
983
330
1F
100
AcDbEntity
  8
1mm deep
100
AcDbLine
 10
-92.50000000000313
 20
71.50000000004829
 30
0.0
 11
-84.50000000000313
 21
71.50000000004829
 31
0.0
  0
ARC
  5
984
330
1F
100
AcDbEntity
  8
1mm deep
100
AcDbCircle
 10
-92.50000000000313
 20
74.00000000004829
 30
0.0
 40
2.499999999999999
100
AcDbArc
 50
180.0
 51
270.0
  0
ARC
  5
985
330
1F
100
AcDbEntity
  8
1mm deep
100
AcDbCircle
 10
-84.50000000000313
 20
74.00000000004829
 30
0.0
 40
2.5
100
AcDbArc
 50
269.9999999999999
 51
0.0
  0
LINE
  5
986
330
1F
100
AcDbEntity
  8
1mm deep
100
AcDbLine
 10
-92.50000000000313
 20
-67.50000000004809
 30
0.0
 11
-84.50000000000313
 21
-67.50000000004809
 31
0.0
  0
ARC
  5
987
330
1F
100
AcDbEntity
  8
1mm deep
100
AcDbCircle
 10
-92.50000000000313
 20
-70.00000000004809
 30
0.0
 40
2.499999999999999
100
AcDbArc
 50
90.0
 51
180.0
  0
ARC
  5
988
330
1F
100
AcDbEntity
  8
1mm deep
100
AcDbCircle
 10
-84.50000000000313
 20
-70.00000000004809
 30
0.0
 40
2.5
100
AcDbArc
 50
0.0
 51
90.0
  0
LINE
  5
989
330
1F
100
AcDbEntity
  8
1mm deep
100
AcDbLine
 10
-82.00000000000313
 20
-70.00000000004809
 30
0.0
 11
-82.00000000000313
 21
-79.50000000004827
 31
0.0
  0
LINE
  5
98A
330
1F
100
AcDbEntity
  8
1mm deep
100
AcDbLine
 10
-95.00000000000313
 20
-70.00000000004809
 30
0.0
 11
-95.00000000000313
 21
-79.50000000004829
 31
0.0
  0
LINE
  5
997
330
1F
100
AcDbEntity
  8
1mm deep
100
AcDbLine
 10
92.49999999999687
 20
71.50000000004829
 30
0.0
 11
84.49999999999687
 21
71.50000000004829
 31
0.0
  0
ARC
  5
998
330
1F
100
AcDbEntity
  8
1mm deep
100
AcDbCircle
 10
92.49999999999687
 20
74.00000000004829
 30
0.0
 40
2.499999999999999
100
AcDbArc
 50
270.0
 51
0.0
  0
ARC
  5
999
330
1F
100
AcDbEntity
  8
1mm deep
100
AcDbCircle
 10
84.49999999999687
 20
74.00000000004829
 30
0.0
 40
2.5
100
AcDbArc
 50
180.0
 51
270.0
  0
LINE
  5
99A
330
1F
100
AcDbEntity
  8
1mm deep
100
AcDbLine
 10
81.99999999999687
 20
74.00000000004829
 30
0.0
 11
81.99999999999687
 21
79.50000000004829
 31
0.0
  0
LINE
  5
99B
330
1F
100
AcDbEntity
  8
1mm deep
100
AcDbLine
 10
94.99999999999687
 20
74.00000000004829
 30
0.0
 11
94.99999999999687
 21
79.50000000004829
 31
0.0
  0
LINE
  5
99C
330
1F
100
AcDbEntity
  8
1mm deep
100
AcDbLine
 10
92.49999999999687
 20
-67.50000000004809
 30
0.0
 11
84.49999999999687
 21
-67.50000000004809
 31
0.0
  0
ARC
  5
99D
330
1F
100
AcDbEntity
  8
1mm deep
100
AcDbCircle
 10
92.49999999999687
 20
-70.00000000004809
 30
0.0
 40
2.499999999999999
100
AcDbArc
 50
0.0
 51
90.0
  0
ARC
  5
99E
330
1F
100
AcDbEntity
  8
1mm deep
100
AcDbCircle
 10
84.49999999999687
 20
-70.00000000004809
 30
0.0
 40
2.5
100
AcDbArc
 50
90.0
 51
180.0
  0
LINE
  5
99F
330
1F
100
AcDbEntity
  8
1mm deep
100
AcDbLine
 10
81.99999999999687
 20
-70.00000000004809
 30
0.0
 11
81.99999999999687
 21
-79.50000000004827
 31
0.0
  0
LINE
  5
9A0
330
1F
100
AcDbEntity
  8
1mm deep
100
AcDbLine
 10
94.99999999999687
 20
-70.00000000004809
 30
0.0
 11
94.99999999999687
 21
-79.50000000004829
 31
0.0
  0
LINE
  5
AD6
330
1F
100
AcDbEntity
  8
slots
100
AcDbLine
 10
-106.5000000000033
 20
45.49999999999991
 30
0.0
 11
-106.5000000000033
 21
55.49999999999991
 31
0.0
  0
ARC
  5
B1C
330
1F
100
AcDbEntity
  8
slots
100
AcDbCircle
 10
-104.0000000000033
 20
-62.50000000000009
 30
0.0
 40
2.499999999999999
100
AcDbArc
 50
180.0
 51
270.0
  0
ARC
  5
B3F
330
1F
100
AcDbEntity
  8
slots
100
AcDbCircle
 10
-104.0000000000033
 20
55.49999999999991
 30
0.0
 40
2.5
100
AcDbArc
 50
90.0
 51
180.0
  0
ARC
  5
B42
330
1F
100
AcDbEntity
  8
slots
100
AcDbCircle
 10
-104.0000000000033
 20
45.49999999999991
 30
0.0
 40
2.5
100
AcDbArc
 50
180.0
 51
270.0
  0
LINE
  5
B43
102
{ACAD_REACTORS
102
}
330
1F
100
AcDbEntity
  8
slots
100
AcDbLine
 10
-85.0000000000033
 20
39.99999999999991
 30
0.0
 11
-104.0000000000033
 21
39.99999999999991
 31
0.0
  0
LINE
  5
B44
330
1F
100
AcDbEntity
  8
slots
100
AcDbLine
 10
-106.5000000000033
 20
27.49999999999991
 30
0.0
 11
-106.5000000000033
 21
37.49999999999991
 31
0.0
  0
LINE
  5
B45
330
1F
100
AcDbEntity
  8
slots
100
AcDbLine
 10
-82.5000000000033
 20
27.49999999999991
 30
0.0
 11
-82.5000000000033
 21
37.49999999999991
 31
0.0
  0
LINE
  5
B46
330
1F
100
AcDbEntity
  8
slots
100
AcDbLine
 10
-85.0000000000033
 20
24.99999999999991
 30
0.0
 11
-104.0000000000033
 21
24.99999999999991
 31
0.0
  0
ARC
  5
B47
330
1F
100
AcDbEntity
  8
slots
100
AcDbCircle
 10
-104.0000000000033
 20
37.49999999999991
 30
0.0
 40
2.5
100
AcDbArc
 50
90.0
 51
180.0
  0
ARC
  5
B48
330
1F
100
AcDbEntity
  8
slots
100
AcDbCircle
 10
-85.0000000000033
 20
37.49999999999991
 30
0.0
 40
2.5
100
AcDbArc
 50
0.0
 51
90.0
  0
ARC
  5
B49
330
1F
100
AcDbEntity
  8
slots
100
AcDbCircle
 10
-85.0000000000033
 20
27.49999999999991
 30
0.0
 40
2.5
100
AcDbArc
 50
270.0
 51
0.0
  0
ARC
  5
B4A
330
1F
100
AcDbEntity
  8
slots
100
AcDbCircle
 10
-104.0000000000033
 20
27.49999999999991
 30
0.0
 40
2.5
100
AcDbArc
 50
180.0
 51
270.0
  0
LINE
  5
B4B
102
{ACAD_REACTORS
102
}
330
1F
100
AcDbEntity
  8
slots
100
AcDbLine
 10
-85.0000000000033
 20
21.99999999999991
 30
0.0
 11
-104.0000000000033
 21
21.99999999999991
 31
0.0
  0
LINE
  5
B4C
330
1F
100
AcDbEntity
  8
slots
100
AcDbLine
 10
-106.5000000000033
 20
9.499999999999908
 30
0.0
 11
-106.5000000000033
 21
19.49999999999991
 31
0.0
  0
LINE
  5
B4D
330
1F
100
AcDbEntity
  8
slots
100
AcDbLine
 10
-82.5000000000033
 20
9.499999999999908
 30
0.0
 11
-82.5000000000033
 21
19.49999999999991
 31
0.0
  0
LINE
  5
B4E
330
1F
100
AcDbEntity
  8
slots
100
AcDbLine
 10
-85.0000000000033
 20
6.999999999999908
 30
0.0
 11
-104.0000000000033
 21
6.999999999999908
 31
0.0
  0
ARC
  5
B4F
330
1F
100
AcDbEntity
  8
slots
100
AcDbCircle
 10
-104.0000000000033
 20
19.49999999999991
 30
0.0
 40
2.5
100
AcDbArc
 50
90.0
 51
180.0
  0
ARC
  5
B50
330
1F
100
AcDbEntity
  8
slots
100
AcDbCircle
 10
-85.0000000000033
 20
19.49999999999991
 30
0.0
 40
2.5
100
AcDbArc
 50
0.0
 51
90.0
  0
ARC
  5
B51
330
1F
100
AcDbEntity
  8
slots
100
AcDbCircle
 10
-85.0000000000033
 20
9.499999999999908
 30
0.0
 40
2.5
100
AcDbArc
 50
270.0
 51
0.0
  0
ARC
  5
B52
330
1F
100
AcDbEntity
  8
slots
100
AcDbCircle
 10
-104.0000000000033
 20
9.499999999999908
 30
0.0
 40
2.5
100
AcDbArc
 50
180.0
 51
270.0
  0
LINE
  5
B53
102
{ACAD_REACTORS
102
}
330
1F
100
AcDbEntity
  8
slots
100
AcDbLine
 10
-85.0000000000033
 20
3.999999999999908
 30
0.0
 11
-104.0000000000033
 21
3.999999999999908
 31
0.0
  0
LINE
  5
B54
330
1F
100
AcDbEntity
  8
slots
100
AcDbLine
 10
-106.5000000000033
 20
-8.500000000000092
 30
0.0
 11
-106.5000000000033
 21
1.499999999999908
 31
0.0
  0
LINE
  5
B55
330
1F
100
AcDbEntity
  8
slots
100
AcDbLine
 10
-82.5000000000033
 20
-8.500000000000092
 30
0.0
 11
-82.5000000000033
 21
1.499999999999908
 31
0.0
  0
LINE
  5
B56
330
1F
100
AcDbEntity
  8
slots
100
AcDbLine
 10
-85.0000000000033
 20
-11.00000000000009
 30
0.0
 11
-104.0000000000033
 21
-11.00000000000009
 31
0.0
  0
ARC
  5
B57
330
1F
100
AcDbEntity
  8
slots
100
AcDbCircle
 10
-104.0000000000033
 20
1.499999999999908
 30
0.0
 40
2.5
100
AcDbArc
 50
90.0
 51
180.0
  0
ARC
  5
B58
330
1F
100
AcDbEntity
  8
slots
100
AcDbCircle
 10
-85.0000000000033
 20
1.499999999999908
 30
0.0
 40
2.5
100
AcDbArc
 50
0.0
 51
90.0
  0
ARC
  5
B59
330
1F
100
AcDbEntity
  8
slots
100
AcDbCircle
 10
-85.0000000000033
 20
-8.500000000000092
 30
0.0
 40
2.5
100
AcDbArc
 50
270.0
 51
0.0
  0
ARC
  5
B5A
330
1F
100
AcDbEntity
  8
slots
100
AcDbCircle
 10
-104.0000000000033
 20
-8.500000000000092
 30
0.0
 40
2.5
100
AcDbArc
 50
180.0
 51
270.0
  0
LINE
  5
B5B
102
{ACAD_REACTORS
102
}
330
1F
100
AcDbEntity
  8
slots
100
AcDbLine
 10
-85.0000000000033
 20
-14.00000000000009
 30
0.0
 11
-104.0000000000033
 21
-14.00000000000009
 31
0.0
  0
LINE
  5
B5C
330
1F
100
AcDbEntity
  8
slots
100
AcDbLine
 10
-106.5000000000033
 20
-26.50000000000009
 30
0.0
 11
-106.5000000000033
 21
-16.50000000000009
 31
0.0
  0
LINE
  5
B5D
330
1F
100
AcDbEntity
  8
slots
100
AcDbLine
 10
-82.5000000000033
 20
-26.50000000000009
 30
0.0
 11
-82.5000000000033
 21
-16.50000000000009
 31
0.0
  0
LINE
  5
B5E
330
1F
100
AcDbEntity
  8
slots
100
AcDbLine
 10
-85.0000000000033
 20
-29.00000000000009
 30
0.0
 11
-104.0000000000033
 21
-29.00000000000009
 31
0.0
  0
ARC
  5
B5F
330
1F
100
AcDbEntity
  8
slots
100
AcDbCircle
 10
-104.0000000000033
 20
-16.50000000000009
 30
0.0
 40
2.5
100
AcDbArc
 50
90.0
 51
180.0
  0
ARC
  5
B60
330
1F
100
AcDbEntity
  8
slots
100
AcDbCircle
 10
-85.0000000000033
 20
-16.50000000000009
 30
0.0
 40
2.5
100
AcDbArc
 50
0.0
 51
90.0
  0
ARC
  5
B61
330
1F
100
AcDbEntity
  8
slots
100
AcDbCircle
 10
-85.0000000000033
 20
-26.50000000000009
 30
0.0
 40
2.5
100
AcDbArc
 50
270.0
 51
0.0
  0
ARC
  5
B62
330
1F
100
AcDbEntity
  8
slots
100
AcDbCircle
 10
-104.0000000000033
 20
-26.50000000000009
 30
0.0
 40
2.5
100
AcDbArc
 50
180.0
 51
270.0
  0
LINE
  5
B63
102
{ACAD_REACTORS
102
}
330
1F
100
AcDbEntity
  8
slots
100
AcDbLine
 10
-85.0000000000033
 20
-32.00000000000009
 30
0.0
 11
-104.0000000000033
 21
-32.00000000000009
 31
0.0
  0
LINE
  5
B64
330
1F
100
AcDbEntity
  8
slots
100
AcDbLine
 10
-106.5000000000033
 20
-44.50000000000009
 30
0.0
 11
-106.5000000000033
 21
-34.50000000000009
 31
0.0
  0
LINE
  5
B65
330
1F
100
AcDbEntity
  8
slots
100
AcDbLine
 10
-82.5000000000033
 20
-44.50000000000009
 30
0.0
 11
-82.5000000000033
 21
-34.50000000000009
 31
0.0
  0
LINE
  5
B66
330
1F
100
AcDbEntity
  8
slots
100
AcDbLine
 10
-85.0000000000033
 20
-47.00000000000009
 30
0.0
 11
-104.0000000000033
 21
-47.00000000000009
 31
0.0
  0
ARC
  5
B67
330
1F
100
AcDbEntity
  8
slots
100
AcDbCircle
 10
-104.0000000000033
 20
-34.50000000000009
 30
0.0
 40
2.5
100
AcDbArc
 50
90.0
 51
180.0
  0
ARC
  5
B68
330
1F
100
AcDbEntity
  8
slots
100
AcDbCircle
 10
-85.0000000000033
 20
-34.50000000000009
 30
0.0
 40
2.5
100
AcDbArc
 50
0.0
 51
90.0
  0
ARC
  5
B69
330
1F
100
AcDbEntity
  8
slots
100
AcDbCircle
 10
-85.0000000000033
 20
-44.50000000000009
 30
0.0
 40
2.5
100
AcDbArc
 50
270.0
 51
0.0
  0
ARC
  5
B6A
330
1F
100
AcDbEntity
  8
slots
100
AcDbCircle
 10
-104.0000000000033
 20
-44.50000000000009
 30
0.0
 40
2.5
100
AcDbArc
 50
180.0
 51
270.0
  0
LINE
  5
B6B
102
{ACAD_REACTORS
102
}
330
1F
100
AcDbEntity
  8
slots
100
AcDbLine
 10
-85.0000000000033
 20
-50.00000000000009
 30
0.0
 11
-104.0000000000033
 21
-50.00000000000009
 31
0.0
  0
LINE
  5
B6C
330
1F
100
AcDbEntity
  8
slots
100
AcDbLine
 10
-106.5000000000033
 20
-62.50000000000009
 30
0.0
 11
-106.5000000000033
 21
-52.50000000000009
 31
0.0
  0
LINE
  5
B6D
330
1F
100
AcDbEntity
  8
slots
100
AcDbLine
 10
-82.5000000000033
 20
-62.50000000000009
 30
0.0
 11
-82.5000000000033
 21
-52.50000000000009
 31
0.0
  0
LINE
  5
B6E
330
1F
100
AcDbEntity
  8
slots
100
AcDbLine
 10
-85.0000000000033
 20
-65.00000000000009
 30
0.0
 11
-104.0000000000033
 21
-65.00000000000009
 31
0.0
  0
ARC
  5
B6F
330
1F
100
AcDbEntity
  8
slots
100
AcDbCircle
 10
-104.0000000000033
 20
-52.50000000000009
 30
0.0
 40
2.5
100
AcDbArc
 50
90.0
 51
180.0
  0
ARC
  5
B70
330
1F
100
AcDbEntity
  8
slots
100
AcDbCircle
 10
-85.0000000000033
 20
-52.50000000000009
 30
0.0
 40
2.5
100
AcDbArc
 50
0.0
 51
90.0
  0
ARC
  5
B71
330
1F
100
AcDbEntity
  8
slots
100
AcDbCircle
 10
-85.0000000000033
 20
-62.50000000000009
 30
0.0
 40
2.5
100
AcDbArc
 50
270.0
 51
0.0
  0
ARC
  5
BAD
330
1F
100
AcDbEntity
  8
slots
100
AcDbCircle
 10
-77.0000000000033
 20
-62.50000000000009
 30
0.0
 40
2.499999999999999
100
AcDbArc
 50
180.0
 51
270.0
  0
LINE
  5
BB4
102
{ACAD_REACTORS
102
}
330
1F
100
AcDbEntity
  8
slots
100
AcDbLine
 10
-58.0000000000033
 20
39.99999999999991
 30
0.0
 11
-77.0000000000033
 21
39.99999999999991
 31
0.0
  0
LINE
  5
BB5
330
1F
100
AcDbEntity
  8
slots
100
AcDbLine
 10
-79.5000000000033
 20
27.49999999999991
 30
0.0
 11
-79.5000000000033
 21
37.49999999999991
 31
0.0
  0
LINE
  5
BB6
330
1F
100
AcDbEntity
  8
slots
100
AcDbLine
 10
-55.5000000000033
 20
27.49999999999991
 30
0.0
 11
-55.5000000000033
 21
37.49999999999991
 31
0.0
  0
LINE
  5
BB7
330
1F
100
AcDbEntity
  8
slots
100
AcDbLine
 10
-58.0000000000033
 20
24.99999999999991
 30
0.0
 11
-77.0000000000033
 21
24.99999999999991
 31
0.0
  0
ARC
  5
BB8
330
1F
100
AcDbEntity
  8
slots
100
AcDbCircle
 10
-77.0000000000033
 20
37.49999999999991
 30
0.0
 40
2.5
100
AcDbArc
 50
90.0
 51
180.0
  0
ARC
  5
BB9
330
1F
100
AcDbEntity
  8
slots
100
AcDbCircle
 10
-58.0000000000033
 20
37.49999999999991
 30
0.0
 40
2.5
100
AcDbArc
 50
0.0
 51
90.0
  0
ARC
  5
BBA
330
1F
100
AcDbEntity
  8
slots
100
AcDbCircle
 10
-58.0000000000033
 20
27.49999999999991
 30
0.0
 40
2.5
100
AcDbArc
 50
270.0
 51
0.0
  0
ARC
  5
BBB
330
1F
100
AcDbEntity
  8
slots
100
AcDbCircle
 10
-77.0000000000033
 20
27.49999999999991
 30
0.0
 40
2.5
100
AcDbArc
 50
180.0
 51
270.0
  0
LINE
  5
BBC
102
{ACAD_REACTORS
102
}
330
1F
100
AcDbEntity
  8
slots
100
AcDbLine
 10
-58.0000000000033
 20
21.99999999999991
 30
0.0
 11
-77.0000000000033
 21
21.99999999999991
 31
0.0
  0
LINE
  5
BBD
330
1F
100
AcDbEntity
  8
slots
100
AcDbLine
 10
-79.5000000000033
 20
9.499999999999908
 30
0.0
 11
-79.5000000000033
 21
19.49999999999991
 31
0.0
  0
LINE
  5
BBE
330
1F
100
AcDbEntity
  8
slots
100
AcDbLine
 10
-55.5000000000033
 20
9.499999999999908
 30
0.0
 11
-55.5000000000033
 21
19.49999999999991
 31
0.0
  0
LINE
  5
BBF
330
1F
100
AcDbEntity
  8
slots
100
AcDbLine
 10
-58.0000000000033
 20
6.999999999999908
 30
0.0
 11
-77.0000000000033
 21
6.999999999999908
 31
0.0
  0
ARC
  5
BC0
330
1F
100
AcDbEntity
  8
slots
100
AcDbCircle
 10
-77.0000000000033
 20
19.49999999999991
 30
0.0
 40
2.5
100
AcDbArc
 50
90.0
 51
180.0
  0
ARC
  5
BC1
330
1F
100
AcDbEntity
  8
slots
100
AcDbCircle
 10
-58.0000000000033
 20
19.49999999999991
 30
0.0
 40
2.5
100
AcDbArc
 50
0.0
 51
90.0
  0
ARC
  5
BC2
330
1F
100
AcDbEntity
  8
slots
100
AcDbCircle
 10
-58.0000000000033
 20
9.499999999999908
 30
0.0
 40
2.5
100
AcDbArc
 50
270.0
 51
0.0
  0
ARC
  5
BC3
330
1F
100
AcDbEntity
  8
slots
100
AcDbCircle
 10
-77.0000000000033
 20
9.499999999999908
 30
0.0
 40
2.5
100
AcDbArc
 50
180.0
 51
270.0
  0
LINE
  5
BC4
102
{ACAD_REACTORS
102
}
330
1F
100
AcDbEntity
  8
slots
100
AcDbLine
 10
-58.0000000000033
 20
3.999999999999908
 30
0.0
 11
-77.0000000000033
 21
3.999999999999908
 31
0.0
  0
LINE
  5
BC5
330
1F
100
AcDbEntity
  8
slots
100
AcDbLine
 10
-79.5000000000033
 20
-8.500000000000092
 30
0.0
 11
-79.5000000000033
 21
1.499999999999908
 31
0.0
  0
LINE
  5
BC6
330
1F
100
AcDbEntity
  8
slots
100
AcDbLine
 10
-55.5000000000033
 20
-8.500000000000092
 30
0.0
 11
-55.5000000000033
 21
1.499999999999908
 31
0.0
  0
LINE
  5
BC7
330
1F
100
AcDbEntity
  8
slots
100
AcDbLine
 10
-58.0000000000033
 20
-11.00000000000009
 30
0.0
 11
-77.0000000000033
 21
-11.00000000000009
 31
0.0
  0
ARC
  5
BC8
330
1F
100
AcDbEntity
  8
slots
100
AcDbCircle
 10
-77.0000000000033
 20
1.499999999999908
 30
0.0
 40
2.5
100
AcDbArc
 50
90.0
 51
180.0
  0
ARC
  5
BC9
330
1F
100
AcDbEntity
  8
slots
100
AcDbCircle
 10
-58.0000000000033
 20
1.499999999999908
 30
0.0
 40
2.5
100
AcDbArc
 50
0.0
 51
90.0
  0
ARC
  5
BCA
330
1F
100
AcDbEntity
  8
slots
100
AcDbCircle
 10
-58.0000000000033
 20
-8.500000000000092
 30
0.0
 40
2.5
100
AcDbArc
 50
270.0
 51
0.0
  0
ARC
  5
BCB
330
1F
100
AcDbEntity
  8
slots
100
AcDbCircle
 10
-77.0000000000033
 20
-8.500000000000092
 30
0.0
 40
2.5
100
AcDbArc
 50
180.0
 51
270.0
  0
LINE
  5
BCC
102
{ACAD_REACTORS
102
}
330
1F
100
AcDbEntity
  8
slots
100
AcDbLine
 10
-58.0000000000033
 20
-14.00000000000009
 30
0.0
 11
-77.0000000000033
 21
-14.00000000000009
 31
0.0
  0
LINE
  5
BCD
330
1F
100
AcDbEntity
  8
slots
100
AcDbLine
 10
-79.5000000000033
 20
-26.50000000000009
 30
0.0
 11
-79.5000000000033
 21
-16.50000000000009
 31
0.0
  0
LINE
  5
BCE
330
1F
100
AcDbEntity
  8
slots
100
AcDbLine
 10
-55.5000000000033
 20
-26.50000000000009
 30
0.0
 11
-55.5000000000033
 21
-16.50000000000009
 31
0.0
  0
LINE
  5
BCF
330
1F
100
AcDbEntity
  8
slots
100
AcDbLine
 10
-58.0000000000033
 20
-29.00000000000009
 30
0.0
 11
-77.0000000000033
 21
-29.00000000000009
 31
0.0
  0
ARC
  5
BD0
330
1F
100
AcDbEntity
  8
slots
100
AcDbCircle
 10
-77.0000000000033
 20
-16.50000000000009
 30
0.0
 40
2.5
100
AcDbArc
 50
90.0
 51
180.0
  0
ARC
  5
BD1
330
1F
100
AcDbEntity
  8
slots
100
AcDbCircle
 10
-58.0000000000033
 20
-16.50000000000009
 30
0.0
 40
2.5
100
AcDbArc
 50
0.0
 51
90.0
  0
ARC
  5
BD2
330
1F
100
AcDbEntity
  8
slots
100
AcDbCircle
 10
-58.0000000000033
 20
-26.50000000000009
 30
0.0
 40
2.5
100
AcDbArc
 50
270.0
 51
0.0
  0
ARC
  5
BD3
330
1F
100
AcDbEntity
  8
slots
100
AcDbCircle
 10
-77.0000000000033
 20
-26.50000000000009
 30
0.0
 40
2.5
100
AcDbArc
 50
180.0
 51
270.0
  0
LINE
  5
BD4
102
{ACAD_REACTORS
102
}
330
1F
100
AcDbEntity
  8
slots
100
AcDbLine
 10
-58.0000000000033
 20
-32.00000000000009
 30
0.0
 11
-77.0000000000033
 21
-32.00000000000009
 31
0.0
  0
LINE
  5
BD5
330
1F
100
AcDbEntity
  8
slots
100
AcDbLine
 10
-79.5000000000033
 20
-44.50000000000009
 30
0.0
 11
-79.5000000000033
 21
-34.50000000000009
 31
0.0
  0
LINE
  5
BD6
330
1F
100
AcDbEntity
  8
slots
100
AcDbLine
 10
-55.5000000000033
 20
-44.50000000000009
 30
0.0
 11
-55.5000000000033
 21
-34.50000000000009
 31
0.0
  0
LINE
  5
BD7
330
1F
100
AcDbEntity
  8
slots
100
AcDbLine
 10
-58.0000000000033
 20
-47.00000000000009
 30
0.0
 11
-77.0000000000033
 21
-47.00000000000009
 31
0.0
  0
ARC
  5
BD8
330
1F
100
AcDbEntity
  8
slots
100
AcDbCircle
 10
-77.0000000000033
 20
-34.50000000000009
 30
0.0
 40
2.5
100
AcDbArc
 50
90.0
 51
180.0
  0
ARC
  5
BD9
330
1F
100
AcDbEntity
  8
slots
100
AcDbCircle
 10
-58.0000000000033
 20
-34.50000000000009
 30
0.0
 40
2.5
100
AcDbArc
 50
0.0
 51
90.0
  0
ARC
  5
BDA
330
1F
100
AcDbEntity
  8
slots
100
AcDbCircle
 10
-58.0000000000033
 20
-44.50000000000009
 30
0.0
 40
2.5
100
AcDbArc
 50
270.0
 51
0.0
  0
ARC
  5
BDB
330
1F
100
AcDbEntity
  8
slots
100
AcDbCircle
 10
-77.0000000000033
 20
-44.50000000000009
 30
0.0
 40
2.5
100
AcDbArc
 50
180.0
 51
270.0
  0
LINE
  5
BDC
102
{ACAD_REACTORS
102
}
330
1F
100
AcDbEntity
  8
slots
100
AcDbLine
 10
-58.0000000000033
 20
-50.00000000000009
 30
0.0
 11
-77.0000000000033
 21
-50.00000000000009
 31
0.0
  0
LINE
  5
BDD
330
1F
100
AcDbEntity
  8
slots
100
AcDbLine
 10
-79.5000000000033
 20
-62.50000000000009
 30
0.0
 11
-79.5000000000033
 21
-52.50000000000009
 31
0.0
  0
LINE
  5
BDE
330
1F
100
AcDbEntity
  8
slots
100
AcDbLine
 10
-55.5000000000033
 20
-62.50000000000009
 30
0.0
 11
-55.5000000000033
 21
-52.50000000000009
 31
0.0
  0
LINE
  5
BDF
330
1F
100
AcDbEntity
  8
slots
100
AcDbLine
 10
-58.0000000000033
 20
-65.00000000000009
 30
0.0
 11
-77.0000000000033
 21
-65.00000000000009
 31
0.0
  0
ARC
  5
BE0
330
1F
100
AcDbEntity
  8
slots
100
AcDbCircle
 10
-77.0000000000033
 20
-52.50000000000009
 30
0.0
 40
2.5
100
AcDbArc
 50
90.0
 51
180.0
  0
ARC
  5
BE1
330
1F
100
AcDbEntity
  8
slots
100
AcDbCircle
 10
-58.0000000000033
 20
-52.50000000000009
 30
0.0
 40
2.5
100
AcDbArc
 50
0.0
 51
90.0
  0
ARC
  5
BE2
330
1F
100
AcDbEntity
  8
slots
100
AcDbCircle
 10
-58.0000000000033
 20
-62.50000000000009
 30
0.0
 40
2.5
100
AcDbArc
 50
270.0
 51
0.0
  0
ARC
  5
BE5
330
1F
100
AcDbEntity
  8
slots
100
AcDbCircle
 10
-50.0000000000033
 20
-62.50000000000009
 30
0.0
 40
2.499999999999999
100
AcDbArc
 50
180.0
 51
270.0
  0
LINE
  5
BEC
102
{ACAD_REACTORS
102
}
330
1F
100
AcDbEntity
  8
slots
100
AcDbLine
 10
-31.0000000000033
 20
39.99999999999991
 30
0.0
 11
-50.0000000000033
 21
39.99999999999991
 31
0.0
  0
LINE
  5
BED
330
1F
100
AcDbEntity
  8
slots
100
AcDbLine
 10
-52.5000000000033
 20
27.49999999999991
 30
0.0
 11
-52.5000000000033
 21
37.49999999999991
 31
0.0
  0
LINE
  5
BEE
330
1F
100
AcDbEntity
  8
slots
100
AcDbLine
 10
-28.5000000000033
 20
27.49999999999991
 30
0.0
 11
-28.5000000000033
 21
37.49999999999991
 31
0.0
  0
LINE
  5
BEF
330
1F
100
AcDbEntity
  8
slots
100
AcDbLine
 10
-31.0000000000033
 20
24.99999999999991
 30
0.0
 11
-50.0000000000033
 21
24.99999999999991
 31
0.0
  0
ARC
  5
BF0
330
1F
100
AcDbEntity
  8
slots
100
AcDbCircle
 10
-50.0000000000033
 20
37.49999999999991
 30
0.0
 40
2.5
100
AcDbArc
 50
90.0
 51
180.0
  0
ARC
  5
BF1
330
1F
100
AcDbEntity
  8
slots
100
AcDbCircle
 10
-31.0000000000033
 20
37.49999999999991
 30
0.0
 40
2.5
100
AcDbArc
 50
0.0
 51
90.0
  0
ARC
  5
BF2
330
1F
100
AcDbEntity
  8
slots
100
AcDbCircle
 10
-31.0000000000033
 20
27.49999999999991
 30
0.0
 40
2.5
100
AcDbArc
 50
270.0
 51
0.0
  0
ARC
  5
BF3
330
1F
100
AcDbEntity
  8
slots
100
AcDbCircle
 10
-50.0000000000033
 20
27.49999999999991
 30
0.0
 40
2.5
100
AcDbArc
 50
180.0
 51
270.0
  0
LINE
  5
BF4
102
{ACAD_REACTORS
102
}
330
1F
100
AcDbEntity
  8
slots
100
AcDbLine
 10
-31.0000000000033
 20
21.99999999999991
 30
0.0
 11
-50.0000000000033
 21
21.99999999999991
 31
0.0
  0
LINE
  5
BF5
330
1F
100
AcDbEntity
  8
slots
100
AcDbLine
 10
-52.5000000000033
 20
9.499999999999908
 30
0.0
 11
-52.5000000000033
 21
19.49999999999991
 31
0.0
  0
LINE
  5
BF6
330
1F
100
AcDbEntity
  8
slots
100
AcDbLine
 10
-28.5000000000033
 20
9.499999999999908
 30
0.0
 11
-28.5000000000033
 21
19.49999999999991
 31
0.0
  0
LINE
  5
BF7
330
1F
100
AcDbEntity
  8
slots
100
AcDbLine
 10
-31.0000000000033
 20
6.999999999999908
 30
0.0
 11
-50.0000000000033
 21
6.999999999999908
 31
0.0
  0
ARC
  5
BF8
330
1F
100
AcDbEntity
  8
slots
100
AcDbCircle
 10
-50.0000000000033
 20
19.49999999999991
 30
0.0
 40
2.5
100
AcDbArc
 50
90.0
 51
180.0
  0
ARC
  5
BF9
330
1F
100
AcDbEntity
  8
slots
100
AcDbCircle
 10
-31.0000000000033
 20
19.49999999999991
 30
0.0
 40
2.5
100
AcDbArc
 50
0.0
 51
90.0
  0
ARC
  5
BFA
330
1F
100
AcDbEntity
  8
slots
100
AcDbCircle
 10
-31.0000000000033
 20
9.499999999999908
 30
0.0
 40
2.5
100
AcDbArc
 50
270.0
 51
0.0
  0
ARC
  5
BFB
330
1F
100
AcDbEntity
  8
slots
100
AcDbCircle
 10
-50.0000000000033
 20
9.499999999999908
 30
0.0
 40
2.5
100
AcDbArc
 50
180.0
 51
270.0
  0
LINE
  5
BFC
102
{ACAD_REACTORS
102
}
330
1F
100
AcDbEntity
  8
slots
100
AcDbLine
 10
-31.0000000000033
 20
3.999999999999908
 30
0.0
 11
-50.0000000000033
 21
3.999999999999908
 31
0.0
  0
LINE
  5
BFD
330
1F
100
AcDbEntity
  8
slots
100
AcDbLine
 10
-52.5000000000033
 20
-8.500000000000092
 30
0.0
 11
-52.5000000000033
 21
1.499999999999908
 31
0.0
  0
LINE
  5
BFE
330
1F
100
AcDbEntity
  8
slots
100
AcDbLine
 10
-28.5000000000033
 20
-8.500000000000092
 30
0.0
 11
-28.5000000000033
 21
1.499999999999908
 31
0.0
  0
LINE
  5
BFF
330
1F
100
AcDbEntity
  8
slots
100
AcDbLine
 10
-31.0000000000033
 20
-11.00000000000009
 30
0.0
 11
-50.0000000000033
 21
-11.00000000000009
 31
0.0
  0
ARC
  5
C00
330
1F
100
AcDbEntity
  8
slots
100
AcDbCircle
 10
-50.0000000000033
 20
1.499999999999908
 30
0.0
 40
2.5
100
AcDbArc
 50
90.0
 51
180.0
  0
ARC
  5
C01
330
1F
100
AcDbEntity
  8
slots
100
AcDbCircle
 10
-31.0000000000033
 20
1.499999999999908
 30
0.0
 40
2.5
100
AcDbArc
 50
0.0
 51
90.0
  0
ARC
  5
C02
330
1F
100
AcDbEntity
  8
slots
100
AcDbCircle
 10
-31.0000000000033
 20
-8.500000000000092
 30
0.0
 40
2.5
100
AcDbArc
 50
270.0
 51
0.0
  0
ARC
  5
C03
330
1F
100
AcDbEntity
  8
slots
100
AcDbCircle
 10
-50.0000000000033
 20
-8.500000000000092
 30
0.0
 40
2.5
100
AcDbArc
 50
180.0
 51
270.0
  0
LINE
  5
C04
102
{ACAD_REACTORS
102
}
330
1F
100
AcDbEntity
  8
slots
100
AcDbLine
 10
-31.0000000000033
 20
-14.00000000000009
 30
0.0
 11
-50.0000000000033
 21
-14.00000000000009
 31
0.0
  0
LINE
  5
C05
330
1F
100
AcDbEntity
  8
slots
100
AcDbLine
 10
-52.5000000000033
 20
-26.50000000000009
 30
0.0
 11
-52.5000000000033
 21
-16.50000000000009
 31
0.0
  0
LINE
  5
C06
330
1F
100
AcDbEntity
  8
slots
100
AcDbLine
 10
-28.5000000000033
 20
-26.50000000000009
 30
0.0
 11
-28.5000000000033
 21
-16.50000000000009
 31
0.0
  0
LINE
  5
C07
330
1F
100
AcDbEntity
  8
slots
100
AcDbLine
 10
-31.0000000000033
 20
-29.00000000000009
 30
0.0
 11
-50.0000000000033
 21
-29.00000000000009
 31
0.0
  0
ARC
  5
C08
330
1F
100
AcDbEntity
  8
slots
100
AcDbCircle
 10
-50.0000000000033
 20
-16.50000000000009
 30
0.0
 40
2.5
100
AcDbArc
 50
90.0
 51
180.0
  0
ARC
  5
C09
330
1F
100
AcDbEntity
  8
slots
100
AcDbCircle
 10
-31.0000000000033
 20
-16.50000000000009
 30
0.0
 40
2.5
100
AcDbArc
 50
0.0
 51
90.0
  0
ARC
  5
C0A
330
1F
100
AcDbEntity
  8
slots
100
AcDbCircle
 10
-31.0000000000033
 20
-26.50000000000009
 30
0.0
 40
2.5
100
AcDbArc
 50
270.0
 51
0.0
  0
ARC
  5
C0B
330
1F
100
AcDbEntity
  8
slots
100
AcDbCircle
 10
-50.0000000000033
 20
-26.50000000000009
 30
0.0
 40
2.5
100
AcDbArc
 50
180.0
 51
270.0
  0
LINE
  5
C0C
102
{ACAD_REACTORS
102
}
330
1F
100
AcDbEntity
  8
slots
100
AcDbLine
 10
-31.0000000000033
 20
-32.00000000000009
 30
0.0
 11
-50.0000000000033
 21
-32.00000000000009
 31
0.0
  0
LINE
  5
C0D
330
1F
100
AcDbEntity
  8
slots
100
AcDbLine
 10
-52.5000000000033
 20
-44.50000000000009
 30
0.0
 11
-52.5000000000033
 21
-34.50000000000009
 31
0.0
  0
LINE
  5
C0E
330
1F
100
AcDbEntity
  8
slots
100
AcDbLine
 10
-28.5000000000033
 20
-44.50000000000009
 30
0.0
 11
-28.5000000000033
 21
-34.50000000000009
 31
0.0
  0
LINE
  5
C0F
330
1F
100
AcDbEntity
  8
slots
100
AcDbLine
 10
-31.0000000000033
 20
-47.00000000000009
 30
0.0
 11
-50.0000000000033
 21
-47.00000000000009
 31
0.0
  0
ARC
  5
C10
330
1F
100
AcDbEntity
  8
slots
100
AcDbCircle
 10
-50.0000000000033
 20
-34.50000000000009
 30
0.0
 40
2.5
100
AcDbArc
 50
90.0
 51
180.0
  0
ARC
  5
C11
330
1F
100
AcDbEntity
  8
slots
100
AcDbCircle
 10
-31.0000000000033
 20
-34.50000000000009
 30
0.0
 40
2.5
100
AcDbArc
 50
0.0
 51
90.0
  0
ARC
  5
C12
330
1F
100
AcDbEntity
  8
slots
100
AcDbCircle
 10
-31.0000000000033
 20
-44.50000000000009
 30
0.0
 40
2.5
100
AcDbArc
 50
270.0
 51
0.0
  0
ARC
  5
C13
330
1F
100
AcDbEntity
  8
slots
100
AcDbCircle
 10
-50.0000000000033
 20
-44.50000000000009
 30
0.0
 40
2.5
100
AcDbArc
 50
180.0
 51
270.0
  0
LINE
  5
C14
102
{ACAD_REACTORS
102
}
330
1F
100
AcDbEntity
  8
slots
100
AcDbLine
 10
-31.0000000000033
 20
-50.00000000000009
 30
0.0
 11
-50.0000000000033
 21
-50.00000000000009
 31
0.0
  0
LINE
  5
C15
330
1F
100
AcDbEntity
  8
slots
100
AcDbLine
 10
-52.5000000000033
 20
-62.50000000000009
 30
0.0
 11
-52.5000000000033
 21
-52.50000000000009
 31
0.0
  0
LINE
  5
C16
330
1F
100
AcDbEntity
  8
slots
100
AcDbLine
 10
-28.5000000000033
 20
-62.50000000000009
 30
0.0
 11
-28.5000000000033
 21
-52.50000000000009
 31
0.0
  0
LINE
  5
C17
330
1F
100
AcDbEntity
  8
slots
100
AcDbLine
 10
-31.0000000000033
 20
-65.00000000000009
 30
0.0
 11
-50.0000000000033
 21
-65.00000000000009
 31
0.0
  0
ARC
  5
C18
330
1F
100
AcDbEntity
  8
slots
100
AcDbCircle
 10
-50.0000000000033
 20
-52.50000000000009
 30
0.0
 40
2.5
100
AcDbArc
 50
90.0
 51
180.0
  0
ARC
  5
C19
330
1F
100
AcDbEntity
  8
slots
100
AcDbCircle
 10
-31.0000000000033
 20
-52.50000000000009
 30
0.0
 40
2.5
100
AcDbArc
 50
0.0
 51
90.0
  0
ARC
  5
C1A
330
1F
100
AcDbEntity
  8
slots
100
AcDbCircle
 10
-31.0000000000033
 20
-62.50000000000009
 30
0.0
 40
2.5
100
AcDbArc
 50
270.0
 51
0.0
  0
ARC
  5
C1D
330
1F
100
AcDbEntity
  8
slots
100
AcDbCircle
 10
-23.0000000000033
 20
-62.50000000000009
 30
0.0
 40
2.499999999999999
100
AcDbArc
 50
180.0
 51
270.0
  0
LINE
  5
C24
102
{ACAD_REACTORS
102
}
330
1F
100
AcDbEntity
  8
slots
100
AcDbLine
 10
-4.000000000003297
 20
39.99999999999991
 30
0.0
 11
-23.0000000000033
 21
39.99999999999991
 31
0.0
  0
LINE
  5
C25
330
1F
100
AcDbEntity
  8
slots
100
AcDbLine
 10
-25.5000000000033
 20
27.49999999999991
 30
0.0
 11
-25.5000000000033
 21
37.49999999999991
 31
0.0
  0
LINE
  5
C26
330
1F
100
AcDbEntity
  8
slots
100
AcDbLine
 10
-1.500000000003297
 20
27.49999999999991
 30
0.0
 11
-1.500000000003297
 21
37.49999999999991
 31
0.0
  0
LINE
  5
C27
330
1F
100
AcDbEntity
  8
slots
100
AcDbLine
 10
-4.000000000003297
 20
24.99999999999991
 30
0.0
 11
-23.0000000000033
 21
24.99999999999991
 31
0.0
  0
ARC
  5
C28
330
1F
100
AcDbEntity
  8
slots
100
AcDbCircle
 10
-23.0000000000033
 20
37.49999999999991
 30
0.0
 40
2.5
100
AcDbArc
 50
90.0
 51
180.0
  0
ARC
  5
C29
330
1F
100
AcDbEntity
  8
slots
100
AcDbCircle
 10
-4.000000000003297
 20
37.49999999999991
 30
0.0
 40
2.5
100
AcDbArc
 50
0.0
 51
90.0
  0
ARC
  5
C2A
330
1F
100
AcDbEntity
  8
slots
100
AcDbCircle
 10
-4.000000000003297
 20
27.49999999999991
 30
0.0
 40
2.5
100
AcDbArc
 50
270.0
 51
0.0
  0
ARC
  5
C2B
330
1F
100
AcDbEntity
  8
slots
100
AcDbCircle
 10
-23.0000000000033
 20
27.49999999999991
 30
0.0
 40
2.5
100
AcDbArc
 50
180.0
 51
270.0
  0
LINE
  5
C2C
102
{ACAD_REACTORS
102
}
330
1F
100
AcDbEntity
  8
slots
100
AcDbLine
 10
-4.000000000003297
 20
21.99999999999991
 30
0.0
 11
-23.0000000000033
 21
21.99999999999991
 31
0.0
  0
LINE
  5
C2D
330
1F
100
AcDbEntity
  8
slots
100
AcDbLine
 10
-25.5000000000033
 20
9.499999999999908
 30
0.0
 11
-25.5000000000033
 21
19.49999999999991
 31
0.0
  0
LINE
  5
C2E
330
1F
100
AcDbEntity
  8
slots
100
AcDbLine
 10
-1.500000000003297
 20
9.499999999999908
 30
0.0
 11
-1.500000000003297
 21
19.49999999999991
 31
0.0
  0
LINE
  5
C2F
330
1F
100
AcDbEntity
  8
slots
100
AcDbLine
 10
-4.000000000003297
 20
6.999999999999908
 30
0.0
 11
-23.0000000000033
 21
6.999999999999908
 31
0.0
  0
ARC
  5
C30
330
1F
100
AcDbEntity
  8
slots
100
AcDbCircle
 10
-23.0000000000033
 20
19.49999999999991
 30
0.0
 40
2.5
100
AcDbArc
 50
90.0
 51
180.0
  0
ARC
  5
C31
330
1F
100
AcDbEntity
  8
slots
100
AcDbCircle
 10
-4.000000000003297
 20
19.49999999999991
 30
0.0
 40
2.5
100
AcDbArc
 50
0.0
 51
90.0
  0
ARC
  5
C32
330
1F
100
AcDbEntity
  8
slots
100
AcDbCircle
 10
-4.000000000003297
 20
9.499999999999908
 30
0.0
 40
2.5
100
AcDbArc
 50
270.0
 51
0.0
  0
ARC
  5
C33
330
1F
100
AcDbEntity
  8
slots
100
AcDbCircle
 10
-23.0000000000033
 20
9.499999999999908
 30
0.0
 40
2.5
100
AcDbArc
 50
180.0
 51
270.0
  0
LINE
  5
C34
102
{ACAD_REACTORS
102
}
330
1F
100
AcDbEntity
  8
slots
100
AcDbLine
 10
-4.000000000003297
 20
3.999999999999908
 30
0.0
 11
-23.0000000000033
 21
3.999999999999908
 31
0.0
  0
LINE
  5
C35
330
1F
100
AcDbEntity
  8
slots
100
AcDbLine
 10
-25.5000000000033
 20
-8.500000000000092
 30
0.0
 11
-25.5000000000033
 21
1.499999999999908
 31
0.0
  0
LINE
  5
C36
330
1F
100
AcDbEntity
  8
slots
100
AcDbLine
 10
-1.500000000003297
 20
-8.500000000000092
 30
0.0
 11
-1.500000000003297
 21
1.499999999999908
 31
0.0
  0
LINE
  5
C37
330
1F
100
AcDbEntity
  8
slots
100
AcDbLine
 10
-4.000000000003297
 20
-11.00000000000009
 30
0.0
 11
-23.0000000000033
 21
-11.00000000000009
 31
0.0
  0
ARC
  5
C38
330
1F
100
AcDbEntity
  8
slots
100
AcDbCircle
 10
-23.0000000000033
 20
1.499999999999908
 30
0.0
 40
2.5
100
AcDbArc
 50
90.0
 51
180.0
  0
ARC
  5
C39
330
1F
100
AcDbEntity
  8
slots
100
AcDbCircle
 10
-4.000000000003297
 20
1.499999999999908
 30
0.0
 40
2.5
100
AcDbArc
 50
0.0
 51
90.0
  0
ARC
  5
C3A
330
1F
100
AcDbEntity
  8
slots
100
AcDbCircle
 10
-4.000000000003297
 20
-8.500000000000092
 30
0.0
 40
2.5
100
AcDbArc
 50
270.0
 51
0.0
  0
ARC
  5
C3B
330
1F
100
AcDbEntity
  8
slots
100
AcDbCircle
 10
-23.0000000000033
 20
-8.500000000000092
 30
0.0
 40
2.5
100
AcDbArc
 50
180.0
 51
270.0
  0
LINE
  5
C3C
102
{ACAD_REACTORS
102
}
330
1F
100
AcDbEntity
  8
slots
100
AcDbLine
 10
-4.000000000003297
 20
-14.00000000000009
 30
0.0
 11
-23.0000000000033
 21
-14.00000000000009
 31
0.0
  0
LINE
  5
C3D
330
1F
100
AcDbEntity
  8
slots
100
AcDbLine
 10
-25.5000000000033
 20
-26.50000000000009
 30
0.0
 11
-25.5000000000033
 21
-16.50000000000009
 31
0.0
  0
LINE
  5
C3E
330
1F
100
AcDbEntity
  8
slots
100
AcDbLine
 10
-1.500000000003297
 20
-26.50000000000009
 30
0.0
 11
-1.500000000003297
 21
-16.50000000000009
 31
0.0
  0
LINE
  5
C3F
330
1F
100
AcDbEntity
  8
slots
100
AcDbLine
 10
-4.000000000003297
 20
-29.00000000000009
 30
0.0
 11
-23.0000000000033
 21
-29.00000000000009
 31
0.0
  0
ARC
  5
C40
330
1F
100
AcDbEntity
  8
slots
100
AcDbCircle
 10
-23.0000000000033
 20
-16.50000000000009
 30
0.0
 40
2.5
100
AcDbArc
 50
90.0
 51
180.0
  0
ARC
  5
C41
330
1F
100
AcDbEntity
  8
slots
100
AcDbCircle
 10
-4.000000000003297
 20
-16.50000000000009
 30
0.0
 40
2.5
100
AcDbArc
 50
0.0
 51
90.0
  0
ARC
  5
C42
330
1F
100
AcDbEntity
  8
slots
100
AcDbCircle
 10
-4.000000000003297
 20
-26.50000000000009
 30
0.0
 40
2.5
100
AcDbArc
 50
270.0
 51
0.0
  0
ARC
  5
C43
330
1F
100
AcDbEntity
  8
slots
100
AcDbCircle
 10
-23.0000000000033
 20
-26.50000000000009
 30
0.0
 40
2.5
100
AcDbArc
 50
180.0
 51
270.0
  0
LINE
  5
C44
102
{ACAD_REACTORS
102
}
330
1F
100
AcDbEntity
  8
slots
100
AcDbLine
 10
-4.000000000003297
 20
-32.00000000000009
 30
0.0
 11
-23.0000000000033
 21
-32.00000000000009
 31
0.0
  0
LINE
  5
C45
330
1F
100
AcDbEntity
  8
slots
100
AcDbLine
 10
-25.5000000000033
 20
-44.50000000000009
 30
0.0
 11
-25.5000000000033
 21
-34.50000000000009
 31
0.0
  0
LINE
  5
C46
330
1F
100
AcDbEntity
  8
slots
100
AcDbLine
 10
-1.500000000003297
 20
-44.50000000000009
 30
0.0
 11
-1.500000000003297
 21
-34.50000000000009
 31
0.0
  0
LINE
  5
C47
330
1F
100
AcDbEntity
  8
slots
100
AcDbLine
 10
-4.000000000003297
 20
-47.00000000000009
 30
0.0
 11
-23.0000000000033
 21
-47.00000000000009
 31
0.0
  0
ARC
  5
C48
330
1F
100
AcDbEntity
  8
slots
100
AcDbCircle
 10
-23.0000000000033
 20
-34.50000000000009
 30
0.0
 40
2.5
100
AcDbArc
 50
90.0
 51
180.0
  0
ARC
  5
C49
330
1F
100
AcDbEntity
  8
slots
100
AcDbCircle
 10
-4.000000000003297
 20
-34.50000000000009
 30
0.0
 40
2.5
100
AcDbArc
 50
0.0
 51
90.0
  0
ARC
  5
C4A
330
1F
100
AcDbEntity
  8
slots
100
AcDbCircle
 10
-4.000000000003297
 20
-44.50000000000009
 30
0.0
 40
2.5
100
AcDbArc
 50
270.0
 51
0.0
  0
ARC
  5
C4B
330
1F
100
AcDbEntity
  8
slots
100
AcDbCircle
 10
-23.0000000000033
 20
-44.50000000000009
 30
0.0
 40
2.5
100
AcDbArc
 50
180.0
 51
270.0
  0
LINE
  5
C4C
102
{ACAD_REACTORS
102
}
330
1F
100
AcDbEntity
  8
slots
100
AcDbLine
 10
-4.000000000003297
 20
-50.00000000000009
 30
0.0
 11
-23.0000000000033
 21
-50.00000000000009
 31
0.0
  0
LINE
  5
C4D
330
1F
100
AcDbEntity
  8
slots
100
AcDbLine
 10
-25.5000000000033
 20
-62.50000000000009
 30
0.0
 11
-25.5000000000033
 21
-52.50000000000009
 31
0.0
  0
LINE
  5
C4E
330
1F
100
AcDbEntity
  8
slots
100
AcDbLine
 10
-1.500000000003297
 20
-62.50000000000009
 30
0.0
 11
-1.500000000003297
 21
-52.50000000000009
 31
0.0
  0
LINE
  5
C4F
330
1F
100
AcDbEntity
  8
slots
100
AcDbLine
 10
-4.000000000003297
 20
-65.00000000000009
 30
0.0
 11
-23.0000000000033
 21
-65.00000000000009
 31
0.0
  0
ARC
  5
C50
330
1F
100
AcDbEntity
  8
slots
100
AcDbCircle
 10
-23.0000000000033
 20
-52.50000000000009
 30
0.0
 40
2.5
100
AcDbArc
 50
90.0
 51
180.0
  0
ARC
  5
C51
330
1F
100
AcDbEntity
  8
slots
100
AcDbCircle
 10
-4.000000000003297
 20
-52.50000000000009
 30
0.0
 40
2.5
100
AcDbArc
 50
0.0
 51
90.0
  0
ARC
  5
C52
330
1F
100
AcDbEntity
  8
slots
100
AcDbCircle
 10
-4.000000000003297
 20
-62.50000000000009
 30
0.0
 40
2.5
100
AcDbArc
 50
270.0
 51
0.0
  0
ARC
  5
C55
330
1F
100
AcDbEntity
  8
slots
100
AcDbCircle
 10
3.999999999996703
 20
-62.50000000000009
 30
0.0
 40
2.499999999999999
100
AcDbArc
 50
180.0
 51
270.0
  0
LINE
  5
C5C
102
{ACAD_REACTORS
102
}
330
1F
100
AcDbEntity
  8
slots
100
AcDbLine
 10
22.9999999999967
 20
39.99999999999991
 30
0.0
 11
3.999999999996703
 21
39.99999999999991
 31
0.0
  0
LINE
  5
C5D
330
1F
100
AcDbEntity
  8
slots
100
AcDbLine
 10
1.499999999996703
 20
27.49999999999991
 30
0.0
 11
1.499999999996703
 21
37.49999999999991
 31
0.0
  0
LINE
  5
C5E
330
1F
100
AcDbEntity
  8
slots
100
AcDbLine
 10
25.4999999999967
 20
27.49999999999991
 30
0.0
 11
25.4999999999967
 21
37.49999999999991
 31
0.0
  0
LINE
  5
C5F
330
1F
100
AcDbEntity
  8
slots
100
AcDbLine
 10
22.9999999999967
 20
24.99999999999991
 30
0.0
 11
3.999999999996703
 21
24.99999999999991
 31
0.0
  0
ARC
  5
C60
330
1F
100
AcDbEntity
  8
slots
100
AcDbCircle
 10
3.999999999996703
 20
37.49999999999991
 30
0.0
 40
2.5
100
AcDbArc
 50
90.0
 51
180.0
  0
ARC
  5
C61
330
1F
100
AcDbEntity
  8
slots
100
AcDbCircle
 10
22.9999999999967
 20
37.49999999999991
 30
0.0
 40
2.5
100
AcDbArc
 50
0.0
 51
90.0
  0
ARC
  5
C62
330
1F
100
AcDbEntity
  8
slots
100
AcDbCircle
 10
22.9999999999967
 20
27.49999999999991
 30
0.0
 40
2.5
100
AcDbArc
 50
270.0
 51
0.0
  0
ARC
  5
C63
330
1F
100
AcDbEntity
  8
slots
100
AcDbCircle
 10
3.999999999996703
 20
27.49999999999991
 30
0.0
 40
2.5
100
AcDbArc
 50
180.0
 51
270.0
  0
LINE
  5
C64
102
{ACAD_REACTORS
102
}
330
1F
100
AcDbEntity
  8
slots
100
AcDbLine
 10
22.9999999999967
 20
21.99999999999991
 30
0.0
 11
3.999999999996703
 21
21.99999999999991
 31
0.0
  0
LINE
  5
C65
330
1F
100
AcDbEntity
  8
slots
100
AcDbLine
 10
1.499999999996703
 20
9.499999999999908
 30
0.0
 11
1.499999999996703
 21
19.49999999999991
 31
0.0
  0
LINE
  5
C66
330
1F
100
AcDbEntity
  8
slots
100
AcDbLine
 10
25.4999999999967
 20
9.499999999999908
 30
0.0
 11
25.4999999999967
 21
19.49999999999991
 31
0.0
  0
LINE
  5
C67
330
1F
100
AcDbEntity
  8
slots
100
AcDbLine
 10
22.9999999999967
 20
6.999999999999908
 30
0.0
 11
3.999999999996703
 21
6.999999999999908
 31
0.0
  0
ARC
  5
C68
330
1F
100
AcDbEntity
  8
slots
100
AcDbCircle
 10
3.999999999996703
 20
19.49999999999991
 30
0.0
 40
2.5
100
AcDbArc
 50
90.0
 51
180.0
  0
ARC
  5
C69
330
1F
100
AcDbEntity
  8
slots
100
AcDbCircle
 10
22.9999999999967
 20
19.49999999999991
 30
0.0
 40
2.5
100
AcDbArc
 50
0.0
 51
90.0
  0
ARC
  5
C6A
330
1F
100
AcDbEntity
  8
slots
100
AcDbCircle
 10
22.9999999999967
 20
9.499999999999908
 30
0.0
 40
2.5
100
AcDbArc
 50
270.0
 51
0.0
  0
ARC
  5
C6B
330
1F
100
AcDbEntity
  8
slots
100
AcDbCircle
 10
3.999999999996703
 20
9.499999999999908
 30
0.0
 40
2.5
100
AcDbArc
 50
180.0
 51
270.0
  0
LINE
  5
C6C
102
{ACAD_REACTORS
102
}
330
1F
100
AcDbEntity
  8
slots
100
AcDbLine
 10
22.9999999999967
 20
3.999999999999908
 30
0.0
 11
3.999999999996703
 21
3.999999999999908
 31
0.0
  0
LINE
  5
C6D
330
1F
100
AcDbEntity
  8
slots
100
AcDbLine
 10
1.499999999996703
 20
-8.500000000000092
 30
0.0
 11
1.499999999996703
 21
1.499999999999908
 31
0.0
  0
LINE
  5
C6E
330
1F
100
AcDbEntity
  8
slots
100
AcDbLine
 10
25.4999999999967
 20
-8.500000000000092
 30
0.0
 11
25.4999999999967
 21
1.499999999999908
 31
0.0
  0
LINE
  5
C6F
330
1F
100
AcDbEntity
  8
slots
100
AcDbLine
 10
22.9999999999967
 20
-11.00000000000009
 30
0.0
 11
3.999999999996703
 21
-11.00000000000009
 31
0.0
  0
ARC
  5
C70
330
1F
100
AcDbEntity
  8
slots
100
AcDbCircle
 10
3.999999999996703
 20
1.499999999999908
 30
0.0
 40
2.5
100
AcDbArc
 50
90.0
 51
180.0
  0
ARC
  5
C71
330
1F
100
AcDbEntity
  8
slots
100
AcDbCircle
 10
22.9999999999967
 20
1.499999999999908
 30
0.0
 40
2.5
100
AcDbArc
 50
0.0
 51
90.0
  0
ARC
  5
C72
330
1F
100
AcDbEntity
  8
slots
100
AcDbCircle
 10
22.9999999999967
 20
-8.500000000000092
 30
0.0
 40
2.5
100
AcDbArc
 50
270.0
 51
0.0
  0
ARC
  5
C73
330
1F
100
AcDbEntity
  8
slots
100
AcDbCircle
 10
3.999999999996703
 20
-8.500000000000092
 30
0.0
 40
2.5
100
AcDbArc
 50
180.0
 51
270.0
  0
LINE
  5
C74
102
{ACAD_REACTORS
102
}
330
1F
100
AcDbEntity
  8
slots
100
AcDbLine
 10
22.9999999999967
 20
-14.00000000000009
 30
0.0
 11
3.999999999996703
 21
-14.00000000000009
 31
0.0
  0
LINE
  5
C75
330
1F
100
AcDbEntity
  8
slots
100
AcDbLine
 10
1.499999999996703
 20
-26.50000000000009
 30
0.0
 11
1.499999999996703
 21
-16.50000000000009
 31
0.0
  0
LINE
  5
C76
330
1F
100
AcDbEntity
  8
slots
100
AcDbLine
 10
25.4999999999967
 20
-26.50000000000009
 30
0.0
 11
25.4999999999967
 21
-16.50000000000009
 31
0.0
  0
LINE
  5
C77
330
1F
100
AcDbEntity
  8
slots
100
AcDbLine
 10
22.9999999999967
 20
-29.00000000000009
 30
0.0
 11
3.999999999996703
 21
-29.00000000000009
 31
0.0
  0
ARC
  5
C78
330
1F
100
AcDbEntity
  8
slots
100
AcDbCircle
 10
3.999999999996703
 20
-16.50000000000009
 30
0.0
 40
2.5
100
AcDbArc
 50
90.0
 51
180.0
  0
ARC
  5
C79
330
1F
100
AcDbEntity
  8
slots
100
AcDbCircle
 10
22.9999999999967
 20
-16.50000000000009
 30
0.0
 40
2.5
100
AcDbArc
 50
0.0
 51
90.0
  0
ARC
  5
C7A
330
1F
100
AcDbEntity
  8
slots
100
AcDbCircle
 10
22.9999999999967
 20
-26.50000000000009
 30
0.0
 40
2.5
100
AcDbArc
 50
270.0
 51
0.0
  0
ARC
  5
C7B
330
1F
100
AcDbEntity
  8
slots
100
AcDbCircle
 10
3.999999999996703
 20
-26.50000000000009
 30
0.0
 40
2.5
100
AcDbArc
 50
180.0
 51
270.0
  0
LINE
  5
C7C
102
{ACAD_REACTORS
102
}
330
1F
100
AcDbEntity
  8
slots
100
AcDbLine
 10
22.9999999999967
 20
-32.00000000000009
 30
0.0
 11
3.999999999996703
 21
-32.00000000000009
 31
0.0
  0
LINE
  5
C7D
330
1F
100
AcDbEntity
  8
slots
100
AcDbLine
 10
1.499999999996703
 20
-44.50000000000009
 30
0.0
 11
1.499999999996703
 21
-34.50000000000009
 31
0.0
  0
LINE
  5
C7E
330
1F
100
AcDbEntity
  8
slots
100
AcDbLine
 10
25.4999999999967
 20
-44.50000000000009
 30
0.0
 11
25.4999999999967
 21
-34.50000000000009
 31
0.0
  0
LINE
  5
C7F
330
1F
100
AcDbEntity
  8
slots
100
AcDbLine
 10
22.9999999999967
 20
-47.00000000000009
 30
0.0
 11
3.999999999996703
 21
-47.00000000000009
 31
0.0
  0
ARC
  5
C80
330
1F
100
AcDbEntity
  8
slots
100
AcDbCircle
 10
3.999999999996703
 20
-34.50000000000009
 30
0.0
 40
2.5
100
AcDbArc
 50
90.0
 51
180.0
  0
ARC
  5
C81
330
1F
100
AcDbEntity
  8
slots
100
AcDbCircle
 10
22.9999999999967
 20
-34.50000000000009
 30
0.0
 40
2.5
100
AcDbArc
 50
0.0
 51
90.0
  0
ARC
  5
C82
330
1F
100
AcDbEntity
  8
slots
100
AcDbCircle
 10
22.9999999999967
 20
-44.50000000000009
 30
0.0
 40
2.5
100
AcDbArc
 50
270.0
 51
0.0
  0
ARC
  5
C83
330
1F
100
AcDbEntity
  8
slots
100
AcDbCircle
 10
3.999999999996703
 20
-44.50000000000009
 30
0.0
 40
2.5
100
AcDbArc
 50
180.0
 51
270.0
  0
LINE
  5
C84
102
{ACAD_REACTORS
102
}
330
1F
100
AcDbEntity
  8
slots
100
AcDbLine
 10
22.9999999999967
 20
-50.00000000000009
 30
0.0
 11
3.999999999996703
 21
-50.00000000000009
 31
0.0
  0
LINE
  5
C85
330
1F
100
AcDbEntity
  8
slots
100
AcDbLine
 10
1.499999999996703
 20
-62.50000000000009
 30
0.0
 11
1.499999999996703
 21
-52.50000000000009
 31
0.0
  0
LINE
  5
C86
330
1F
100
AcDbEntity
  8
slots
100
AcDbLine
 10
25.4999999999967
 20
-62.50000000000009
 30
0.0
 11
25.4999999999967
 21
-52.50000000000009
 31
0.0
  0
LINE
  5
C87
330
1F
100
AcDbEntity
  8
slots
100
AcDbLine
 10
22.9999999999967
 20
-65.00000000000009
 30
0.0
 11
3.999999999996703
 21
-65.00000000000009
 31
0.0
  0
ARC
  5
C88
330
1F
100
AcDbEntity
  8
slots
100
AcDbCircle
 10
3.999999999996703
 20
-52.50000000000009
 30
0.0
 40
2.5
100
AcDbArc
 50
90.0
 51
180.0
  0
ARC
  5
C89
330
1F
100
AcDbEntity
  8
slots
100
AcDbCircle
 10
22.9999999999967
 20
-52.50000000000009
 30
0.0
 40
2.5
100
AcDbArc
 50
0.0
 51
90.0
  0
ARC
  5
C8A
330
1F
100
AcDbEntity
  8
slots
100
AcDbCircle
 10
22.9999999999967
 20
-62.50000000000009
 30
0.0
 40
2.5
100
AcDbArc
 50
270.0
 51
0.0
  0
ARC
  5
C8D
330
1F
100
AcDbEntity
  8
slots
100
AcDbCircle
 10
30.9999999999967
 20
-62.50000000000009
 30
0.0
 40
2.499999999999999
100
AcDbArc
 50
180.0
 51
270.0
  0
LINE
  5
C94
102
{ACAD_REACTORS
102
}
330
1F
100
AcDbEntity
  8
slots
100
AcDbLine
 10
49.9999999999967
 20
39.99999999999991
 30
0.0
 11
30.9999999999967
 21
39.99999999999991
 31
0.0
  0
LINE
  5
C95
330
1F
100
AcDbEntity
  8
slots
100
AcDbLine
 10
28.4999999999967
 20
27.49999999999991
 30
0.0
 11
28.4999999999967
 21
37.49999999999991
 31
0.0
  0
LINE
  5
C96
330
1F
100
AcDbEntity
  8
slots
100
AcDbLine
 10
52.4999999999967
 20
27.49999999999991
 30
0.0
 11
52.4999999999967
 21
37.49999999999991
 31
0.0
  0
LINE
  5
C97
330
1F
100
AcDbEntity
  8
slots
100
AcDbLine
 10
49.9999999999967
 20
24.99999999999991
 30
0.0
 11
30.9999999999967
 21
24.99999999999991
 31
0.0
  0
ARC
  5
C98
330
1F
100
AcDbEntity
  8
slots
100
AcDbCircle
 10
30.9999999999967
 20
37.49999999999991
 30
0.0
 40
2.5
100
AcDbArc
 50
90.0
 51
180.0
  0
ARC
  5
C99
330
1F
100
AcDbEntity
  8
slots
100
AcDbCircle
 10
49.9999999999967
 20
37.49999999999991
 30
0.0
 40
2.5
100
AcDbArc
 50
0.0
 51
90.0
  0
ARC
  5
C9A
330
1F
100
AcDbEntity
  8
slots
100
AcDbCircle
 10
49.9999999999967
 20
27.49999999999991
 30
0.0
 40
2.5
100
AcDbArc
 50
270.0
 51
0.0
  0
ARC
  5
C9B
330
1F
100
AcDbEntity
  8
slots
100
AcDbCircle
 10
30.9999999999967
 20
27.49999999999991
 30
0.0
 40
2.5
100
AcDbArc
 50
180.0
 51
270.0
  0
LINE
  5
C9C
102
{ACAD_REACTORS
102
}
330
1F
100
AcDbEntity
  8
slots
100
AcDbLine
 10
49.9999999999967
 20
21.99999999999991
 30
0.0
 11
30.9999999999967
 21
21.99999999999991
 31
0.0
  0
LINE
  5
C9D
330
1F
100
AcDbEntity
  8
slots
100
AcDbLine
 10
28.4999999999967
 20
9.499999999999908
 30
0.0
 11
28.4999999999967
 21
19.49999999999991
 31
0.0
  0
LINE
  5
C9E
330
1F
100
AcDbEntity
  8
slots
100
AcDbLine
 10
52.4999999999967
 20
9.499999999999908
 30
0.0
 11
52.4999999999967
 21
19.49999999999991
 31
0.0
  0
LINE
  5
C9F
330
1F
100
AcDbEntity
  8
slots
100
AcDbLine
 10
49.9999999999967
 20
6.999999999999908
 30
0.0
 11
30.9999999999967
 21
6.999999999999908
 31
0.0
  0
ARC
  5
CA0
330
1F
100
AcDbEntity
  8
slots
100
AcDbCircle
 10
30.9999999999967
 20
19.49999999999991
 30
0.0
 40
2.5
100
AcDbArc
 50
90.0
 51
180.0
  0
ARC
  5
CA1
330
1F
100
AcDbEntity
  8
slots
100
AcDbCircle
 10
49.9999999999967
 20
19.49999999999991
 30
0.0
 40
2.5
100
AcDbArc
 50
0.0
 51
90.0
  0
ARC
  5
CA2
330
1F
100
AcDbEntity
  8
slots
100
AcDbCircle
 10
49.9999999999967
 20
9.499999999999908
 30
0.0
 40
2.5
100
AcDbArc
 50
270.0
 51
0.0
  0
ARC
  5
CA3
330
1F
100
AcDbEntity
  8
slots
100
AcDbCircle
 10
30.9999999999967
 20
9.499999999999908
 30
0.0
 40
2.5
100
AcDbArc
 50
180.0
 51
270.0
  0
LINE
  5
CA4
102
{ACAD_REACTORS
102
}
330
1F
100
AcDbEntity
  8
slots
100
AcDbLine
 10
49.9999999999967
 20
3.999999999999908
 30
0.0
 11
30.9999999999967
 21
3.999999999999908
 31
0.0
  0
LINE
  5
CA5
330
1F
100
AcDbEntity
  8
slots
100
AcDbLine
 10
28.4999999999967
 20
-8.500000000000092
 30
0.0
 11
28.4999999999967
 21
1.499999999999908
 31
0.0
  0
LINE
  5
CA6
330
1F
100
AcDbEntity
  8
slots
100
AcDbLine
 10
52.4999999999967
 20
-8.500000000000092
 30
0.0
 11
52.4999999999967
 21
1.499999999999908
 31
0.0
  0
LINE
  5
CA7
330
1F
100
AcDbEntity
  8
slots
100
AcDbLine
 10
49.9999999999967
 20
-11.00000000000009
 30
0.0
 11
30.9999999999967
 21
-11.00000000000009
 31
0.0
  0
ARC
  5
CA8
330
1F
100
AcDbEntity
  8
slots
100
AcDbCircle
 10
30.9999999999967
 20
1.499999999999908
 30
0.0
 40
2.5
100
AcDbArc
 50
90.0
 51
180.0
  0
ARC
  5
CA9
330
1F
100
AcDbEntity
  8
slots
100
AcDbCircle
 10
49.9999999999967
 20
1.499999999999908
 30
0.0
 40
2.5
100
AcDbArc
 50
0.0
 51
90.0
  0
ARC
  5
CAA
330
1F
100
AcDbEntity
  8
slots
100
AcDbCircle
 10
49.9999999999967
 20
-8.500000000000092
 30
0.0
 40
2.5
100
AcDbArc
 50
270.0
 51
0.0
  0
ARC
  5
CAB
330
1F
100
AcDbEntity
  8
slots
100
AcDbCircle
 10
30.9999999999967
 20
-8.500000000000092
 30
0.0
 40
2.5
100
AcDbArc
 50
180.0
 51
270.0
  0
LINE
  5
CAC
102
{ACAD_REACTORS
102
}
330
1F
100
AcDbEntity
  8
slots
100
AcDbLine
 10
49.9999999999967
 20
-14.00000000000009
 30
0.0
 11
30.9999999999967
 21
-14.00000000000009
 31
0.0
  0
LINE
  5
CAD
330
1F
100
AcDbEntity
  8
slots
100
AcDbLine
 10
28.4999999999967
 20
-26.50000000000009
 30
0.0
 11
28.4999999999967
 21
-16.50000000000009
 31
0.0
  0
LINE
  5
CAE
330
1F
100
AcDbEntity
  8
slots
100
AcDbLine
 10
52.4999999999967
 20
-26.50000000000009
 30
0.0
 11
52.4999999999967
 21
-16.50000000000009
 31
0.0
  0
LINE
  5
CAF
330
1F
100
AcDbEntity
  8
slots
100
AcDbLine
 10
49.9999999999967
 20
-29.00000000000009
 30
0.0
 11
30.9999999999967
 21
-29.00000000000009
 31
0.0
  0
ARC
  5
CB0
330
1F
100
AcDbEntity
  8
slots
100
AcDbCircle
 10
30.9999999999967
 20
-16.50000000000009
 30
0.0
 40
2.5
100
AcDbArc
 50
90.0
 51
180.0
  0
ARC
  5
CB1
330
1F
100
AcDbEntity
  8
slots
100
AcDbCircle
 10
49.9999999999967
 20
-16.50000000000009
 30
0.0
 40
2.5
100
AcDbArc
 50
0.0
 51
90.0
  0
ARC
  5
CB2
330
1F
100
AcDbEntity
  8
slots
100
AcDbCircle
 10
49.9999999999967
 20
-26.50000000000009
 30
0.0
 40
2.5
100
AcDbArc
 50
270.0
 51
0.0
  0
ARC
  5
CB3
330
1F
100
AcDbEntity
  8
slots
100
AcDbCircle
 10
30.9999999999967
 20
-26.50000000000009
 30
0.0
 40
2.5
100
AcDbArc
 50
180.0
 51
270.0
  0
LINE
  5
CB4
102
{ACAD_REACTORS
102
}
330
1F
100
AcDbEntity
  8
slots
100
AcDbLine
 10
49.9999999999967
 20
-32.00000000000009
 30
0.0
 11
30.9999999999967
 21
-32.00000000000009
 31
0.0
  0
LINE
  5
CB5
330
1F
100
AcDbEntity
  8
slots
100
AcDbLine
 10
28.4999999999967
 20
-44.50000000000009
 30
0.0
 11
28.4999999999967
 21
-34.50000000000009
 31
0.0
  0
LINE
  5
CB6
330
1F
100
AcDbEntity
  8
slots
100
AcDbLine
 10
52.4999999999967
 20
-44.50000000000009
 30
0.0
 11
52.4999999999967
 21
-34.50000000000009
 31
0.0
  0
LINE
  5
CB7
330
1F
100
AcDbEntity
  8
slots
100
AcDbLine
 10
49.9999999999967
 20
-47.00000000000009
 30
0.0
 11
30.9999999999967
 21
-47.00000000000009
 31
0.0
  0
ARC
  5
CB8
330
1F
100
AcDbEntity
  8
slots
100
AcDbCircle
 10
30.9999999999967
 20
-34.50000000000009
 30
0.0
 40
2.5
100
AcDbArc
 50
90.0
 51
180.0
  0
ARC
  5
CB9
330
1F
100
AcDbEntity
  8
slots
100
AcDbCircle
 10
49.9999999999967
 20
-34.50000000000009
 30
0.0
 40
2.5
100
AcDbArc
 50
0.0
 51
90.0
  0
ARC
  5
CBA
330
1F
100
AcDbEntity
  8
slots
100
AcDbCircle
 10
49.9999999999967
 20
-44.50000000000009
 30
0.0
 40
2.5
100
AcDbArc
 50
270.0
 51
0.0
  0
ARC
  5
CBB
330
1F
100
AcDbEntity
  8
slots
100
AcDbCircle
 10
30.9999999999967
 20
-44.50000000000009
 30
0.0
 40
2.5
100
AcDbArc
 50
180.0
 51
270.0
  0
LINE
  5
CBC
102
{ACAD_REACTORS
102
}
330
1F
100
AcDbEntity
  8
slots
100
AcDbLine
 10
49.9999999999967
 20
-50.00000000000009
 30
0.0
 11
30.9999999999967
 21
-50.00000000000009
 31
0.0
  0
LINE
  5
CBD
330
1F
100
AcDbEntity
  8
slots
100
AcDbLine
 10
28.4999999999967
 20
-62.50000000000009
 30
0.0
 11
28.4999999999967
 21
-52.50000000000009
 31
0.0
  0
LINE
  5
CBE
330
1F
100
AcDbEntity
  8
slots
100
AcDbLine
 10
52.4999999999967
 20
-62.50000000000009
 30
0.0
 11
52.4999999999967
 21
-52.50000000000009
 31
0.0
  0
LINE
  5
CBF
330
1F
100
AcDbEntity
  8
slots
100
AcDbLine
 10
49.9999999999967
 20
-65.00000000000009
 30
0.0
 11
30.9999999999967
 21
-65.00000000000009
 31
0.0
  0
ARC
  5
CC0
330
1F
100
AcDbEntity
  8
slots
100
AcDbCircle
 10
30.9999999999967
 20
-52.50000000000009
 30
0.0
 40
2.5
100
AcDbArc
 50
90.0
 51
180.0
  0
ARC
  5
CC1
330
1F
100
AcDbEntity
  8
slots
100
AcDbCircle
 10
49.9999999999967
 20
-52.50000000000009
 30
0.0
 40
2.5
100
AcDbArc
 50
0.0
 51
90.0
  0
ARC
  5
CC2
330
1F
100
AcDbEntity
  8
slots
100
AcDbCircle
 10
49.9999999999967
 20
-62.50000000000009
 30
0.0
 40
2.5
100
AcDbArc
 50
270.0
 51
0.0
  0
LINE
  5
CC3
102
{ACAD_REACTORS
102
}
330
1F
100
AcDbEntity
  8
slots
100
AcDbLine
 10
76.9999999999967
 20
57.99999999999991
 30
0.0
 11
-104.0000000000033
 21
57.99999999999991
 31
0.0
  0
ARC
  5
CC5
330
1F
100
AcDbEntity
  8
slots
100
AcDbCircle
 10
57.9999999999967
 20
-62.50000000000009
 30
0.0
 40
2.499999999999999
100
AcDbArc
 50
180.0
 51
270.0
  0
LINE
  5
CC6
330
1F
100
AcDbEntity
  8
slots
100
AcDbLine
 10
79.4999999999967
 20
45.49999999999991
 30
0.0
 11
79.4999999999967
 21
55.49999999999991
 31
0.0
  0
LINE
  5
CC7
330
1F
100
AcDbEntity
  8
slots
100
AcDbLine
 10
76.9999999999967
 20
42.99999999999991
 30
0.0
 11
-104.0000000000033
 21
42.99999999999991
 31
0.0
  0
ARC
  5
CC9
330
1F
100
AcDbEntity
  8
slots
100
AcDbCircle
 10
76.9999999999967
 20
55.49999999999991
 30
0.0
 40
2.5
100
AcDbArc
 50
0.0
 51
90.0
  0
ARC
  5
CCA
330
1F
100
AcDbEntity
  8
slots
100
AcDbCircle
 10
76.9999999999967
 20
45.49999999999991
 30
0.0
 40
2.5
100
AcDbArc
 50
270.0
 51
0.0
  0
LINE
  5
CCC
102
{ACAD_REACTORS
102
}
330
1F
100
AcDbEntity
  8
slots
100
AcDbLine
 10
76.9999999999967
 20
39.99999999999991
 30
0.0
 11
57.9999999999967
 21
39.99999999999991
 31
0.0
  0
LINE
  5
CCD
330
1F
100
AcDbEntity
  8
slots
100
AcDbLine
 10
55.4999999999967
 20
27.49999999999991
 30
0.0
 11
55.4999999999967
 21
37.49999999999991
 31
0.0
  0
LINE
  5
CCE
330
1F
100
AcDbEntity
  8
slots
100
AcDbLine
 10
79.4999999999967
 20
27.49999999999991
 30
0.0
 11
79.4999999999967
 21
37.49999999999991
 31
0.0
  0
LINE
  5
CCF
330
1F
100
AcDbEntity
  8
slots
100
AcDbLine
 10
76.9999999999967
 20
24.99999999999991
 30
0.0
 11
57.9999999999967
 21
24.99999999999991
 31
0.0
  0
ARC
  5
CD0
330
1F
100
AcDbEntity
  8
slots
100
AcDbCircle
 10
57.9999999999967
 20
37.49999999999991
 30
0.0
 40
2.5
100
AcDbArc
 50
90.0
 51
180.0
  0
ARC
  5
CD1
330
1F
100
AcDbEntity
  8
slots
100
AcDbCircle
 10
76.9999999999967
 20
37.49999999999991
 30
0.0
 40
2.5
100
AcDbArc
 50
0.0
 51
90.0
  0
ARC
  5
CD2
330
1F
100
AcDbEntity
  8
slots
100
AcDbCircle
 10
76.9999999999967
 20
27.49999999999991
 30
0.0
 40
2.5
100
AcDbArc
 50
270.0
 51
0.0
  0
ARC
  5
CD3
330
1F
100
AcDbEntity
  8
slots
100
AcDbCircle
 10
57.9999999999967
 20
27.49999999999991
 30
0.0
 40
2.5
100
AcDbArc
 50
180.0
 51
270.0
  0
LINE
  5
CD4
102
{ACAD_REACTORS
102
}
330
1F
100
AcDbEntity
  8
slots
100
AcDbLine
 10
76.9999999999967
 20
21.99999999999991
 30
0.0
 11
57.9999999999967
 21
21.99999999999991
 31
0.0
  0
LINE
  5
CD5
330
1F
100
AcDbEntity
  8
slots
100
AcDbLine
 10
55.4999999999967
 20
9.499999999999908
 30
0.0
 11
55.4999999999967
 21
19.49999999999991
 31
0.0
  0
LINE
  5
CD6
330
1F
100
AcDbEntity
  8
slots
100
AcDbLine
 10
79.4999999999967
 20
9.499999999999908
 30
0.0
 11
79.4999999999967
 21
19.49999999999991
 31
0.0
  0
LINE
  5
CD7
330
1F
100
AcDbEntity
  8
slots
100
AcDbLine
 10
76.9999999999967
 20
6.999999999999908
 30
0.0
 11
57.9999999999967
 21
6.999999999999908
 31
0.0
  0
ARC
  5
CD8
330
1F
100
AcDbEntity
  8
slots
100
AcDbCircle
 10
57.9999999999967
 20
19.49999999999991
 30
0.0
 40
2.5
100
AcDbArc
 50
90.0
 51
180.0
  0
ARC
  5
CD9
330
1F
100
AcDbEntity
  8
slots
100
AcDbCircle
 10
76.9999999999967
 20
19.49999999999991
 30
0.0
 40
2.5
100
AcDbArc
 50
0.0
 51
90.0
  0
ARC
  5
CDA
330
1F
100
AcDbEntity
  8
slots
100
AcDbCircle
 10
76.9999999999967
 20
9.499999999999908
 30
0.0
 40
2.5
100
AcDbArc
 50
270.0
 51
0.0
  0
ARC
  5
CDB
330
1F
100
AcDbEntity
  8
slots
100
AcDbCircle
 10
57.9999999999967
 20
9.499999999999908
 30
0.0
 40
2.5
100
AcDbArc
 50
180.0
 51
270.0
  0
LINE
  5
CDC
102
{ACAD_REACTORS
102
}
330
1F
100
AcDbEntity
  8
slots
100
AcDbLine
 10
76.9999999999967
 20
3.999999999999908
 30
0.0
 11
57.9999999999967
 21
3.999999999999908
 31
0.0
  0
LINE
  5
CDD
330
1F
100
AcDbEntity
  8
slots
100
AcDbLine
 10
55.4999999999967
 20
-8.500000000000092
 30
0.0
 11
55.4999999999967
 21
1.499999999999908
 31
0.0
  0
LINE
  5
CDE
330
1F
100
AcDbEntity
  8
slots
100
AcDbLine
 10
79.4999999999967
 20
-8.500000000000092
 30
0.0
 11
79.4999999999967
 21
1.499999999999908
 31
0.0
  0
LINE
  5
CDF
330
1F
100
AcDbEntity
  8
slots
100
AcDbLine
 10
76.9999999999967
 20
-11.00000000000009
 30
0.0
 11
57.9999999999967
 21
-11.00000000000009
 31
0.0
  0
ARC
  5
CE0
330
1F
100
AcDbEntity
  8
slots
100
AcDbCircle
 10
57.9999999999967
 20
1.499999999999908
 30
0.0
 40
2.5
100
AcDbArc
 50
90.0
 51
180.0
  0
ARC
  5
CE1
330
1F
100
AcDbEntity
  8
slots
100
AcDbCircle
 10
76.9999999999967
 20
1.499999999999908
 30
0.0
 40
2.5
100
AcDbArc
 50
0.0
 51
90.0
  0
ARC
  5
CE2
330
1F
100
AcDbEntity
  8
slots
100
AcDbCircle
 10
76.9999999999967
 20
-8.500000000000092
 30
0.0
 40
2.5
100
AcDbArc
 50
270.0
 51
0.0
  0
ARC
  5
CE3
330
1F
100
AcDbEntity
  8
slots
100
AcDbCircle
 10
57.9999999999967
 20
-8.500000000000092
 30
0.0
 40
2.5
100
AcDbArc
 50
180.0
 51
270.0
  0
LINE
  5
CE4
102
{ACAD_REACTORS
102
}
330
1F
100
AcDbEntity
  8
slots
100
AcDbLine
 10
76.9999999999967
 20
-14.00000000000009
 30
0.0
 11
57.9999999999967
 21
-14.00000000000009
 31
0.0
  0
LINE
  5
CE5
330
1F
100
AcDbEntity
  8
slots
100
AcDbLine
 10
55.4999999999967
 20
-26.50000000000009
 30
0.0
 11
55.4999999999967
 21
-16.50000000000009
 31
0.0
  0
LINE
  5
CE6
330
1F
100
AcDbEntity
  8
slots
100
AcDbLine
 10
79.4999999999967
 20
-26.50000000000009
 30
0.0
 11
79.4999999999967
 21
-16.50000000000009
 31
0.0
  0
LINE
  5
CE7
330
1F
100
AcDbEntity
  8
slots
100
AcDbLine
 10
76.9999999999967
 20
-29.00000000000009
 30
0.0
 11
57.9999999999967
 21
-29.00000000000009
 31
0.0
  0
ARC
  5
CE8
330
1F
100
AcDbEntity
  8
slots
100
AcDbCircle
 10
57.9999999999967
 20
-16.50000000000009
 30
0.0
 40
2.5
100
AcDbArc
 50
90.0
 51
180.0
  0
ARC
  5
CE9
330
1F
100
AcDbEntity
  8
slots
100
AcDbCircle
 10
76.9999999999967
 20
-16.50000000000009
 30
0.0
 40
2.5
100
AcDbArc
 50
0.0
 51
90.0
  0
ARC
  5
CEA
330
1F
100
AcDbEntity
  8
slots
100
AcDbCircle
 10
76.9999999999967
 20
-26.50000000000009
 30
0.0
 40
2.5
100
AcDbArc
 50
270.0
 51
0.0
  0
ARC
  5
CEB
330
1F
100
AcDbEntity
  8
slots
100
AcDbCircle
 10
57.9999999999967
 20
-26.50000000000009
 30
0.0
 40
2.5
100
AcDbArc
 50
180.0
 51
270.0
  0
LINE
  5
CEC
102
{ACAD_REACTORS
102
}
330
1F
100
AcDbEntity
  8
slots
100
AcDbLine
 10
76.9999999999967
 20
-32.00000000000009
 30
0.0
 11
57.9999999999967
 21
-32.00000000000009
 31
0.0
  0
LINE
  5
CED
330
1F
100
AcDbEntity
  8
slots
100
AcDbLine
 10
55.4999999999967
 20
-44.50000000000009
 30
0.0
 11
55.4999999999967
 21
-34.50000000000009
 31
0.0
  0
LINE
  5
CEE
330
1F
100
AcDbEntity
  8
slots
100
AcDbLine
 10
79.4999999999967
 20
-44.50000000000009
 30
0.0
 11
79.4999999999967
 21
-34.50000000000009
 31
0.0
  0
LINE
  5
CEF
330
1F
100
AcDbEntity
  8
slots
100
AcDbLine
 10
76.9999999999967
 20
-47.00000000000009
 30
0.0
 11
57.9999999999967
 21
-47.00000000000009
 31
0.0
  0
ARC
  5
CF0
330
1F
100
AcDbEntity
  8
slots
100
AcDbCircle
 10
57.9999999999967
 20
-34.50000000000009
 30
0.0
 40
2.5
100
AcDbArc
 50
90.0
 51
180.0
  0
ARC
  5
CF1
330
1F
100
AcDbEntity
  8
slots
100
AcDbCircle
 10
76.9999999999967
 20
-34.50000000000009
 30
0.0
 40
2.5
100
AcDbArc
 50
0.0
 51
90.0
  0
ARC
  5
CF2
330
1F
100
AcDbEntity
  8
slots
100
AcDbCircle
 10
76.9999999999967
 20
-44.50000000000009
 30
0.0
 40
2.5
100
AcDbArc
 50
270.0
 51
0.0
  0
ARC
  5
CF3
330
1F
100
AcDbEntity
  8
slots
100
AcDbCircle
 10
57.9999999999967
 20
-44.50000000000009
 30
0.0
 40
2.5
100
AcDbArc
 50
180.0
 51
270.0
  0
LINE
  5
CF4
102
{ACAD_REACTORS
102
}
330
1F
100
AcDbEntity
  8
slots
100
AcDbLine
 10
76.9999999999967
 20
-50.00000000000009
 30
0.0
 11
57.9999999999967
 21
-50.00000000000009
 31
0.0
  0
LINE
  5
CF5
330
1F
100
AcDbEntity
  8
slots
100
AcDbLine
 10
55.4999999999967
 20
-62.50000000000009
 30
0.0
 11
55.4999999999967
 21
-52.50000000000009
 31
0.0
  0
LINE
  5
CF6
330
1F
100
AcDbEntity
  8
slots
100
AcDbLine
 10
79.4999999999967
 20
-62.50000000000009
 30
0.0
 11
79.4999999999967
 21
-52.50000000000009
 31
0.0
  0
LINE
  5
CF7
330
1F
100
AcDbEntity
  8
slots
100
AcDbLine
 10
76.9999999999967
 20
-65.00000000000009
 30
0.0
 11
57.9999999999967
 21
-65.00000000000009
 31
0.0
  0
ARC
  5
CF8
330
1F
100
AcDbEntity
  8
slots
100
AcDbCircle
 10
57.9999999999967
 20
-52.50000000000009
 30
0.0
 40
2.5
100
AcDbArc
 50
90.0
 51
180.0
  0
ARC
  5
CF9
330
1F
100
AcDbEntity
  8
slots
100
AcDbCircle
 10
76.9999999999967
 20
-52.50000000000009
 30
0.0
 40
2.5
100
AcDbArc
 50
0.0
 51
90.0
  0
ARC
  5
CFA
330
1F
100
AcDbEntity
  8
slots
100
AcDbCircle
 10
76.9999999999967
 20
-62.50000000000009
 30
0.0
 40
2.5
100
AcDbArc
 50
270.0
 51
0.0
  0
LINE
  5
CFB
102
{ACAD_REACTORS
102
}
330
1F
100
AcDbEntity
  8
slots
100
AcDbLine
 10
103.9999999999967
 20
57.99999999999991
 30
0.0
 11
84.9999999999967
 21
57.99999999999991
 31
0.0
  0
LINE
  5
CFC
330
1F
100
AcDbEntity
  8
slots
100
AcDbLine
 10
82.4999999999967
 20
45.49999999999991
 30
0.0
 11
82.4999999999967
 21
55.49999999999991
 31
0.0
  0
ARC
  5
CFD
330
1F
100
AcDbEntity
  8
slots
100
AcDbCircle
 10
84.9999999999967
 20
-62.50000000000009
 30
0.0
 40
2.499999999999999
100
AcDbArc
 50
180.0
 51
270.0
  0
LINE
  5
CFE
330
1F
100
AcDbEntity
  8
slots
100
AcDbLine
 10
106.4999999999967
 20
45.49999999999991
 30
0.0
 11
106.4999999999967
 21
55.49999999999991
 31
0.0
  0
LINE
  5
CFF
330
1F
100
AcDbEntity
  8
slots
100
AcDbLine
 10
103.9999999999967
 20
42.99999999999991
 30
0.0
 11
84.9999999999967
 21
42.99999999999991
 31
0.0
  0
ARC
  5
D00
330
1F
100
AcDbEntity
  8
slots
100
AcDbCircle
 10
84.9999999999967
 20
55.49999999999991
 30
0.0
 40
2.5
100
AcDbArc
 50
90.0
 51
180.0
  0
ARC
  5
D01
330
1F
100
AcDbEntity
  8
slots
100
AcDbCircle
 10
103.9999999999967
 20
55.49999999999991
 30
0.0
 40
2.5
100
AcDbArc
 50
0.0
 51
90.0
  0
ARC
  5
D02
330
1F
100
AcDbEntity
  8
slots
100
AcDbCircle
 10
103.9999999999967
 20
45.49999999999991
 30
0.0
 40
2.5
100
AcDbArc
 50
270.0
 51
0.0
  0
ARC
  5
D03
330
1F
100
AcDbEntity
  8
slots
100
AcDbCircle
 10
84.9999999999967
 20
45.49999999999991
 30
0.0
 40
2.5
100
AcDbArc
 50
180.0
 51
270.0
  0
LINE
  5
D04
102
{ACAD_REACTORS
102
}
330
1F
100
AcDbEntity
  8
slots
100
AcDbLine
 10
103.9999999999967
 20
39.99999999999991
 30
0.0
 11
84.9999999999967
 21
39.99999999999991
 31
0.0
  0
LINE
  5
D05
330
1F
100
AcDbEntity
  8
slots
100
AcDbLine
 10
82.4999999999967
 20
27.49999999999991
 30
0.0
 11
82.4999999999967
 21
37.49999999999991
 31
0.0
  0
LINE
  5
D06
330
1F
100
AcDbEntity
  8
slots
100
AcDbLine
 10
106.4999999999967
 20
27.49999999999991
 30
0.0
 11
106.4999999999967
 21
37.49999999999991
 31
0.0
  0
LINE
  5
D07
330
1F
100
AcDbEntity
  8
slots
100
AcDbLine
 10
103.9999999999967
 20
24.99999999999991
 30
0.0
 11
84.9999999999967
 21
24.99999999999991
 31
0.0
  0
ARC
  5
D08
330
1F
100
AcDbEntity
  8
slots
100
AcDbCircle
 10
84.9999999999967
 20
37.49999999999991
 30
0.0
 40
2.5
100
AcDbArc
 50
90.0
 51
180.0
  0
ARC
  5
D09
330
1F
100
AcDbEntity
  8
slots
100
AcDbCircle
 10
103.9999999999967
 20
37.49999999999991
 30
0.0
 40
2.5
100
AcDbArc
 50
0.0
 51
90.0
  0
ARC
  5
D0A
330
1F
100
AcDbEntity
  8
slots
100
AcDbCircle
 10
103.9999999999967
 20
27.49999999999991
 30
0.0
 40
2.5
100
AcDbArc
 50
270.0
 51
0.0
  0
ARC
  5
D0B
330
1F
100
AcDbEntity
  8
slots
100
AcDbCircle
 10
84.9999999999967
 20
27.49999999999991
 30
0.0
 40
2.5
100
AcDbArc
 50
180.0
 51
270.0
  0
LINE
  5
D0C
102
{ACAD_REACTORS
102
}
330
1F
100
AcDbEntity
  8
slots
100
AcDbLine
 10
103.9999999999967
 20
21.99999999999991
 30
0.0
 11
84.9999999999967
 21
21.99999999999991
 31
0.0
  0
LINE
  5
D0D
330
1F
100
AcDbEntity
  8
slots
100
AcDbLine
 10
82.4999999999967
 20
9.499999999999908
 30
0.0
 11
82.4999999999967
 21
19.49999999999991
 31
0.0
  0
LINE
  5
D0E
330
1F
100
AcDbEntity
  8
slots
100
AcDbLine
 10
106.4999999999967
 20
9.499999999999908
 30
0.0
 11
106.4999999999967
 21
19.49999999999991
 31
0.0
  0
LINE
  5
D0F
330
1F
100
AcDbEntity
  8
slots
100
AcDbLine
 10
103.9999999999967
 20
6.999999999999908
 30
0.0
 11
84.9999999999967
 21
6.999999999999908
 31
0.0
  0
ARC
  5
D10
330
1F
100
AcDbEntity
  8
slots
100
AcDbCircle
 10
84.9999999999967
 20
19.49999999999991
 30
0.0
 40
2.5
100
AcDbArc
 50
90.0
 51
180.0
  0
ARC
  5
D11
330
1F
100
AcDbEntity
  8
slots
100
AcDbCircle
 10
103.9999999999967
 20
19.49999999999991
 30
0.0
 40
2.5
100
AcDbArc
 50
0.0
 51
90.0
  0
ARC
  5
D12
330
1F
100
AcDbEntity
  8
slots
100
AcDbCircle
 10
103.9999999999967
 20
9.499999999999908
 30
0.0
 40
2.5
100
AcDbArc
 50
270.0
 51
0.0
  0
ARC
  5
D13
330
1F
100
AcDbEntity
  8
slots
100
AcDbCircle
 10
84.9999999999967
 20
9.499999999999908
 30
0.0
 40
2.5
100
AcDbArc
 50
180.0
 51
270.0
  0
LINE
  5
D14
102
{ACAD_REACTORS
102
}
330
1F
100
AcDbEntity
  8
slots
100
AcDbLine
 10
103.9999999999967
 20
3.999999999999908
 30
0.0
 11
84.9999999999967
 21
3.999999999999908
 31
0.0
  0
LINE
  5
D15
330
1F
100
AcDbEntity
  8
slots
100
AcDbLine
 10
82.4999999999967
 20
-8.500000000000092
 30
0.0
 11
82.4999999999967
 21
1.499999999999908
 31
0.0
  0
LINE
  5
D16
330
1F
100
AcDbEntity
  8
slots
100
AcDbLine
 10
106.4999999999967
 20
-8.500000000000092
 30
0.0
 11
106.4999999999967
 21
1.499999999999908
 31
0.0
  0
LINE
  5
D17
330
1F
100
AcDbEntity
  8
slots
100
AcDbLine
 10
103.9999999999967
 20
-11.00000000000009
 30
0.0
 11
84.9999999999967
 21
-11.00000000000009
 31
0.0
  0
ARC
  5
D18
330
1F
100
AcDbEntity
  8
slots
100
AcDbCircle
 10
84.9999999999967
 20
1.499999999999908
 30
0.0
 40
2.5
100
AcDbArc
 50
90.0
 51
180.0
  0
ARC
  5
D19
330
1F
100
AcDbEntity
  8
slots
100
AcDbCircle
 10
103.9999999999967
 20
1.499999999999908
 30
0.0
 40
2.5
100
AcDbArc
 50
0.0
 51
90.0
  0
ARC
  5
D1A
330
1F
100
AcDbEntity
  8
slots
100
AcDbCircle
 10
103.9999999999967
 20
-8.500000000000092
 30
0.0
 40
2.5
100
AcDbArc
 50
270.0
 51
0.0
  0
ARC
  5
D1B
330
1F
100
AcDbEntity
  8
slots
100
AcDbCircle
 10
84.9999999999967
 20
-8.500000000000092
 30
0.0
 40
2.5
100
AcDbArc
 50
180.0
 51
270.0
  0
LINE
  5
D1C
102
{ACAD_REACTORS
102
}
330
1F
100
AcDbEntity
  8
slots
100
AcDbLine
 10
103.9999999999967
 20
-14.00000000000009
 30
0.0
 11
84.9999999999967
 21
-14.00000000000009
 31
0.0
  0
LINE
  5
D1D
330
1F
100
AcDbEntity
  8
slots
100
AcDbLine
 10
82.4999999999967
 20
-26.50000000000009
 30
0.0
 11
82.4999999999967
 21
-16.50000000000009
 31
0.0
  0
LINE
  5
D1E
330
1F
100
AcDbEntity
  8
slots
100
AcDbLine
 10
106.4999999999967
 20
-26.50000000000009
 30
0.0
 11
106.4999999999967
 21
-16.50000000000009
 31
0.0
  0
LINE
  5
D1F
330
1F
100
AcDbEntity
  8
slots
100
AcDbLine
 10
103.9999999999967
 20
-29.00000000000009
 30
0.0
 11
84.9999999999967
 21
-29.00000000000009
 31
0.0
  0
ARC
  5
D20
330
1F
100
AcDbEntity
  8
slots
100
AcDbCircle
 10
84.9999999999967
 20
-16.50000000000009
 30
0.0
 40
2.5
100
AcDbArc
 50
90.0
 51
180.0
  0
ARC
  5
D21
330
1F
100
AcDbEntity
  8
slots
100
AcDbCircle
 10
103.9999999999967
 20
-16.50000000000009
 30
0.0
 40
2.5
100
AcDbArc
 50
0.0
 51
90.0
  0
ARC
  5
D22
330
1F
100
AcDbEntity
  8
slots
100
AcDbCircle
 10
103.9999999999967
 20
-26.50000000000009
 30
0.0
 40
2.5
100
AcDbArc
 50
270.0
 51
0.0
  0
ARC
  5
D23
330
1F
100
AcDbEntity
  8
slots
100
AcDbCircle
 10
84.9999999999967
 20
-26.50000000000009
 30
0.0
 40
2.5
100
AcDbArc
 50
180.0
 51
270.0
  0
LINE
  5
D24
102
{ACAD_REACTORS
102
}
330
1F
100
AcDbEntity
  8
slots
100
AcDbLine
 10
103.9999999999967
 20
-32.00000000000009
 30
0.0
 11
84.9999999999967
 21
-32.00000000000009
 31
0.0
  0
LINE
  5
D25
330
1F
100
AcDbEntity
  8
slots
100
AcDbLine
 10
82.4999999999967
 20
-44.50000000000009
 30
0.0
 11
82.4999999999967
 21
-34.50000000000009
 31
0.0
  0
LINE
  5
D26
330
1F
100
AcDbEntity
  8
slots
100
AcDbLine
 10
106.4999999999967
 20
-44.50000000000009
 30
0.0
 11
106.4999999999967
 21
-34.50000000000009
 31
0.0
  0
LINE
  5
D27
330
1F
100
AcDbEntity
  8
slots
100
AcDbLine
 10
103.9999999999967
 20
-47.00000000000009
 30
0.0
 11
84.9999999999967
 21
-47.00000000000009
 31
0.0
  0
ARC
  5
D28
330
1F
100
AcDbEntity
  8
slots
100
AcDbCircle
 10
84.9999999999967
 20
-34.50000000000009
 30
0.0
 40
2.5
100
AcDbArc
 50
90.0
 51
180.0
  0
ARC
  5
D29
330
1F
100
AcDbEntity
  8
slots
100
AcDbCircle
 10
103.9999999999967
 20
-34.50000000000009
 30
0.0
 40
2.5
100
AcDbArc
 50
0.0
 51
90.0
  0
ARC
  5
D2A
330
1F
100
AcDbEntity
  8
slots
100
AcDbCircle
 10
103.9999999999967
 20
-44.50000000000009
 30
0.0
 40
2.5
100
AcDbArc
 50
270.0
 51
0.0
  0
ARC
  5
D2B
330
1F
100
AcDbEntity
  8
slots
100
AcDbCircle
 10
84.9999999999967
 20
-44.50000000000009
 30
0.0
 40
2.5
100
AcDbArc
 50
180.0
 51
270.0
  0
LINE
  5
D2C
102
{ACAD_REACTORS
102
}
330
1F
100
AcDbEntity
  8
slots
100
AcDbLine
 10
103.9999999999967
 20
-50.00000000000009
 30
0.0
 11
84.9999999999967
 21
-50.00000000000009
 31
0.0
  0
LINE
  5
D2D
330
1F
100
AcDbEntity
  8
slots
100
AcDbLine
 10
82.4999999999967
 20
-62.50000000000009
 30
0.0
 11
82.4999999999967
 21
-52.50000000000009
 31
0.0
  0
LINE
  5
D2E
330
1F
100
AcDbEntity
  8
slots
100
AcDbLine
 10
106.4999999999967
 20
-62.50000000000009
 30
0.0
 11
106.4999999999967
 21
-52.50000000000009
 31
0.0
  0
LINE
  5
D2F
330
1F
100
AcDbEntity
  8
slots
100
AcDbLine
 10
103.9999999999967
 20
-65.00000000000009
 30
0.0
 11
84.9999999999967
 21
-65.00000000000009
 31
0.0
  0
ARC
  5
D30
330
1F
100
AcDbEntity
  8
slots
100
AcDbCircle
 10
84.9999999999967
 20
-52.50000000000009
 30
0.0
 40
2.5
100
AcDbArc
 50
90.0
 51
180.0
  0
ARC
  5
D31
330
1F
100
AcDbEntity
  8
slots
100
AcDbCircle
 10
103.9999999999967
 20
-52.50000000000009
 30
0.0
 40
2.5
100
AcDbArc
 50
0.0
 51
90.0
  0
ARC
  5
D32
330
1F
100
AcDbEntity
  8
slots
100
AcDbCircle
 10
103.9999999999967
 20
-62.50000000000009
 30
0.0
 40
2.5
100
AcDbArc
 50
270.0
 51
0.0
  0
ENDSEC
  0
SECTION
  2
OBJECTS
  0
DICTIONARY
  5
C
330
0
100
AcDbDictionary
281
     1
  3
ACAD_DETAILVIEWSTYLE
350
129
  3
ACAD_GROUP
350
D
  3
ACAD_IMAGE_VARS
350
F4
  3
ACAD_LAYOUT
350
1A
  3
ACAD_MATERIAL
350
9C3
  3
ACAD_MLEADERSTYLE
350
9C9
  3
ACAD_MLINESTYLE
350
17
  3
ACAD_PLOTSETTINGS
350
19
  3
ACAD_PLOTSTYLENAME
350
E
  3
ACAD_SCALELIST
350
47
  3
ACAD_SECTIONVIEWSTYLE
350
12A
  3
ACAD_TABLESTYLE
350
9C7
  3
ACAD_VISUALSTYLE
350
9AA
  3
ACDB_RECOMPOSE_DATA
350
D38
  3
AcDbVariableDictionary
350
124
  3
APPDATA
350
F2
  0
SUN
  5
9CB
330
29
100
AcDbSun
 90
        1
290
     0
 63
     7
421
 16777215
 40
1.0
291
     1
 91
  2455826
 92
 54000000
292
     0
 70
     2
 71
   256
280
     1
  0
DICTIONARY
  5
F5
330
2
100
AcDbDictionary
280
     1
281
     1
  3
ACAD_LAYERSTATES
360
F6
  3
ACLYDICTIONARY
360
9A4
  0
DICTIONARY
  5
129
102
{ACAD_REACTORS
330
C
102
}
330
C
100
AcDbDictionary
281
     1
  0
DICTIONARY
  5
D
102
{ACAD_REACTORS
330
C
102
}
330
C
100
AcDbDictionary
281
     1
  0
RASTERVARIABLES
  5
F4
102
{ACAD_REACTORS
330
C
102
}
330
C
100
AcDbRasterVariables
 90
        0
 70
     1
 71
     1
 72
     1
  0
DICTIONARY
  5
1A
102
{ACAD_REACTORS
330
C
102
}
330
C
100
AcDbDictionary
281
     1
  3
Layout1
350
1E
  3
Layout2
350
26
  3
Model
350
22
  0
DICTIONARY
  5
9C3
102
{ACAD_REACTORS
330
C
102
}
330
C
100
AcDbDictionary
281
     1
  3
ByBlock
350
9C5
  3
ByLayer
350
9C4
  3
Global
350
9C6
  0
DICTIONARY
  5
9C9
102
{ACAD_REACTORS
330
C
102
}
330
C
100
AcDbDictionary
281
     1
  3
Standard
350
9CA
  0
DICTIONARY
  5
17
102
{ACAD_REACTORS
330
C
102
}
330
C
100
AcDbDictionary
281
     1
  3
Standard
350
18
  0
DICTIONARY
  5
19
102
{ACAD_REACTORS
330
C
102
}
330
C
100
AcDbDictionary
281
     1
  0
ACDBDICTIONARYWDFLT
  5
E
102
{ACAD_REACTORS
330
C
102
}
330
C
100
AcDbDictionary
281
     1
  3
Normal
350
F
100
AcDbDictionaryWithDefault
340
F
  0
DICTIONARY
  5
47
102
{ACAD_REACTORS
330
C
102
}
330
C
100
AcDbDictionary
281
     1
  3
A0
350
48
  3
A1
350
49
  3
A2
350
4A
  3
A3
350
4B
  3
A4
350
4C
  3
A5
350
4D
  3
A6
350
4E
  3
A7
350
4F
  3
A8
350
50
  3
A9
350
51
  3
B0
350
52
  3
B1
350
53
  3
B2
350
54
  3
B3
350
55
  3
B4
350
56
  3
B5
350
57
  3
B6
350
58
  3
B7
350
59
  3
B8
350
5A
  3
B9
350
5B
  3
C0
350
5C
  3
C1
350
5D
  3
C2
350
5E
  3
C3
350
5F
  3
C4
350
60
  3
C5
350
61
  3
C6
350
62
  3
C7
350
63
  3
C8
350
64
  3
C9
350
65
  3
D0
350
66
  3
D1
350
67
  3
D2
350
68
  0
DICTIONARY
  5
12A
102
{ACAD_REACTORS
330
C
102
}
330
C
100
AcDbDictionary
281
     1
  0
DICTIONARY
  5
9C7
102
{ACAD_REACTORS
330
C
102
}
330
C
100
AcDbDictionary
281
     1
  3
Standard
350
9C8
  0
DICTIONARY
  5
9AA
102
{ACAD_REACTORS
330
C
102
}
330
C
100
AcDbDictionary
281
     1
  3
2dWireframe
350
9AF
  3
Basic
350
9B2
  3
Brighten
350
9B6
  3
ColorChange
350
9BA
  3
Conceptual
350
9B4
  3
Dim
350
9B5
  3
EdgeColorOff
350
9BD
  3
Facepattern
350
9B9
  3
Flat
350
9AB
  3
FlatWithEdges
350
9AC
  3
Gouraud
350
9AD
  3
GouraudWithEdges
350
9AE
  3
Hidden
350
9B1
  3
JitterOff
350
9BB
  3
Linepattern
350
9B8
  3
OverhangOff
350
9BC
  3
Realistic
350
9B3
  3
Shaded
350
9C2
  3
Shaded with edges
350
9C1
  3
Shades of Gray
350
9BE
  3
Sketchy
350
9BF
  3
Thicken
350
9B7
  3
Wireframe
350
9B0
  3
X-Ray
350
9C0
  0
XRECORD
  5
D38
102
{ACAD_REACTORS
330
C
102
}
330
C
100
AcDbXrecord
280
     1
 90
        1
330
9C8
  0
DICTIONARY
  5
124
102
{ACAD_REACTORS
330
C
102
}
330
C
100
AcDbDictionary
281
     1
  3
CANNOSCALE
350
9CC
  3
CMLEADERSTYLE
350
9D1
  3
CTABLESTYLE
350
9D0
  3
MSLTSCALE
350
9D2
  0
DICTIONARY
  5
F2
102
{ACAD_REACTORS
330
C
102
}
330
C
100
AcDbDictionary
281
     1
  0
DICTIONARY
  5
F6
102
{ACAD_REACTORS
330
F5
102
}
330
F5
100
AcDbDictionary
281
     1
  0
DICTIONARY
  5
9A4
102
{ACAD_REACTORS
330
F5
102
}
330
F5
100
AcDbDictionary
281
     1
1001
ACAD
1000
<All
  0
LAYOUT
  5
1E
102
{ACAD_REACTORS
330
1A
102
}
330
1A
100
AcDbPlotSettings
  1

  2
none_device
  4

  6

 40
0.0
 41
0.0
 42
0.0
 43
0.0
 44
0.0
 45
0.0
 46
0.0
 47
0.0
 48
0.0
 49
0.0
140
0.0
141
0.0
142
1.0
143
1.0
 70
   688
 72
     1
 73
     0
 74
     5
  7

 75
    16
 76
     0
 77
     2
 78
   300
147
1.0
148
0.0
149
0.0
100
AcDbLayout
  1
Layout1
 70
     1
 71
     1
 10
0.0
 20
0.0
 11
420.0
 21
297.0
 12
0.0
 22
0.0
 32
0.0
 14
1.000000000000000E+20
 24
1.000000000000000E+20
 34
1.000000000000000E+20
 15
-1.000000000000000E+20
 25
-1.000000000000000E+20
 35
-1.000000000000000E+20
146
0.0
 13
0.0
 23
0.0
 33
0.0
 16
1.0
 26
0.0
 36
0.0
 17
0.0
 27
1.0
 37
0.0
 76
     0
330
1B
  0
LAYOUT
  5
26
102
{ACAD_REACTORS
330
1A
102
}
330
1A
100
AcDbPlotSettings
  1

  2
none_device
  4

  6

 40
0.0
 41
0.0
 42
0.0
 43
0.0
 44
0.0
 45
0.0
 46
0.0
 47
0.0
 48
0.0
 49
0.0
140
0.0
141
0.0
142
1.0
143
1.0
 70
   688
 72
     1
 73
     0
 74
     5
  7

 75
    16
 76
     0
 77
     2
 78
   300
147
1.0
148
0.0
149
0.0
100
AcDbLayout
  1
Layout2
 70
     1
 71
     2
 10
0.0
 20
0.0
 11
0.0
 21
0.0
 12
0.0
 22
0.0
 32
0.0
 14
0.0
 24
0.0
 34
0.0
 15
0.0
 25
0.0
 35
0.0
146
0.0
 13
0.0
 23
0.0
 33
0.0
 16
1.0
 26
0.0
 36
0.0
 17
0.0
 27
1.0
 37
0.0
 76
     0
330
23
  0
LAYOUT
  5
22
102
{ACAD_REACTORS
330
1A
102
}
330
1A
100
AcDbPlotSettings
  1

  2
none_device
  4
ANSI_A_(11.00_x_8.50_Inches)
  6

 40
6.35
 41
19.05
 42
6.35000508
 43
19.05000254
 44
279.4
 45
215.9
 46
133.34999746
 47
92.5842999595
 48
0.0
 49
0.0
140
0.0
141
0.0
142
0.0446311475
143
1.0
 70
  1696
 72
     0
 73
     0
 74
     0
  7

 75
     0
 76
     0
 77
     2
 78
   300
147
0.0179189148
148
-1300.4909072572
149
0.0
100
AcDbLayout
  1
Model
 70
     1
 71
     0
 10
0.0
 20
0.0
 11
420.0
 21
297.0
 12
0.0
 22
0.0
 32
0.0
 14
-121.9999999999848
 24
-79.50000000004829
 34
0.0
 15
156.9579798062189
 25
130.2353130177738
 35
0.0
146
0.0
 13
0.0
 23
0.0
 33
0.0
 16
1.0
 26
0.0
 36
0.0
 17
0.0
 27
1.0
 37
0.0
 76
     0
330
1F
331
29
  0
MATERIAL
  5
9C5
102
{ACAD_REACTORS
330
9C3
102
}
330
9C3
100
AcDbMaterial
  1
ByBlock
 72
     1
 94
      127
  0
MATERIAL
  5
9C4
102
{ACAD_REACTORS
330
9C3
102
}
330
9C3
100
AcDbMaterial
  1
ByLayer
 72
     1
 94
      127
  0
MATERIAL
  5
9C6
102
{ACAD_REACTORS
330
9C3
102
}
330
9C3
100
AcDbMaterial
  1
Global
 72
     1
 94
      127
  0
MLEADERSTYLE
  5
9CA
102
{ACAD_REACTORS
330
9C9
102
}
330
9C9
100
AcDbMLeaderStyle
179
     2
170
     2
171
     1
172
     0
 90
        2
 40
0.0
 41
0.0
173
     1
 91
-1056964608
340
14
 92
       -2
290
     1
 42
2.0
291
     1
 43
8.0
  3
Standard
341
0
 44
4.0
300

342
11
174
     1
178
     1
175
     1
176
     0
 93
-1056964608
 45
4.0
292
     0
297
     0
 46
4.0
343
0
 94
-1056964608
 47
1.0
 49
1.0
140
1.0
293
     1
141
0.0
294
     1
177
     0
142
1.0
295
     0
296
     0
143
3.75
271
     0
272
     9
273
     9
  0
MLINESTYLE
  5
18
102
{ACAD_REACTORS
330
17
102
}
330
17
100
AcDbMlineStyle
  2
Standard
 70
     0
  3

 62
   256
 51
90.0
 52
90.0
 71
     2
 49
0.5
 62
   256
  6
BYLAYER
 49
-0.5
 62
   256
  6
BYLAYER
  0
ACDBPLACEHOLDER
  5
F
102
{ACAD_REACTORS
330
E
102
}
330
E
  0
SCALE
  5
48
102
{ACAD_REACTORS
330
47
102
}
330
47
100
AcDbScale
 70
     0
300
1:1
140
1.0
141
1.0
290
     1
  0
SCALE
  5
49
102
{ACAD_REACTORS
330
47
102
}
330
47
100
AcDbScale
 70
     0
300
1:2
140
1.0
141
2.0
290
     0
  0
SCALE
  5
4A
102
{ACAD_REACTORS
330
47
102
}
330
47
100
AcDbScale
 70
     0
300
1:4
140
1.0
141
4.0
290
     0
  0
SCALE
  5
4B
102
{ACAD_REACTORS
330
47
102
}
330
47
100
AcDbScale
 70
     0
300
1:5
140
1.0
141
5.0
290
     0
  0
SCALE
  5
4C
102
{ACAD_REACTORS
330
47
102
}
330
47
100
AcDbScale
 70
     0
300
1:8
140
1.0
141
8.0
290
     0
  0
SCALE
  5
4D
102
{ACAD_REACTORS
330
47
102
}
330
47
100
AcDbScale
 70
     0
300
1:10
140
1.0
141
10.0
290
     0
  0
SCALE
  5
4E
102
{ACAD_REACTORS
330
47
102
}
330
47
100
AcDbScale
 70
     0
300
1:16
140
1.0
141
16.0
290
     0
  0
SCALE
  5
4F
102
{ACAD_REACTORS
330
47
102
}
330
47
100
AcDbScale
 70
     0
300
1:20
140
1.0
141
20.0
290
     0
  0
SCALE
  5
50
102
{ACAD_REACTORS
330
47
102
}
330
47
100
AcDbScale
 70
     0
300
1:30
140
1.0
141
30.0
290
     0
  0
SCALE
  5
51
102
{ACAD_REACTORS
330
47
102
}
330
47
100
AcDbScale
 70
     0
300
1:40
140
1.0
141
40.0
290
     0
  0
SCALE
  5
52
102
{ACAD_REACTORS
330
47
102
}
330
47
100
AcDbScale
 70
     0
300
1:50
140
1.0
141
50.0
290
     0
  0
SCALE
  5
53
102
{ACAD_REACTORS
330
47
102
}
330
47
100
AcDbScale
 70
     0
300
1:100
140
1.0
141
100.0
290
     0
  0
SCALE
  5
54
102
{ACAD_REACTORS
330
47
102
}
330
47
100
AcDbScale
 70
     0
300
2:1
140
2.0
141
1.0
290
     0
  0
SCALE
  5
55
102
{ACAD_REACTORS
330
47
102
}
330
47
100
AcDbScale
 70
     0
300
4:1
140
4.0
141
1.0
290
     0
  0
SCALE
  5
56
102
{ACAD_REACTORS
330
47
102
}
330
47
100
AcDbScale
 70
     0
300
8:1
140
8.0
141
1.0
290
     0
  0
SCALE
  5
57
102
{ACAD_REACTORS
330
47
102
}
330
47
100
AcDbScale
 70
     0
300
10:1
140
10.0
141
1.0
290
     0
  0
SCALE
  5
58
102
{ACAD_REACTORS
330
47
102
}
330
47
100
AcDbScale
 70
     0
300
100:1
140
100.0
141
1.0
290
     0
  0
SCALE
  5
59
102
{ACAD_REACTORS
330
47
102
}
330
47
100
AcDbScale
 70
     0
300
1/128" = 1'-0"
140
0.0078125
141
12.0
290
     0
  0
SCALE
  5
5A
102
{ACAD_REACTORS
330
47
102
}
330
47
100
AcDbScale
 70
     0
300
1/64" = 1'-0"
140
0.015625
141
12.0
290
     0
  0
SCALE
  5
5B
102
{ACAD_REACTORS
330
47
102
}
330
47
100
AcDbScale
 70
     0
300
1/32" = 1'-0"
140
0.03125
141
12.0
290
     0
  0
SCALE
  5
5C
102
{ACAD_REACTORS
330
47
102
}
330
47
100
AcDbScale
 70
     0
300
1/16" = 1'-0"
140
0.0625
141
12.0
290
     0
  0
SCALE
  5
5D
102
{ACAD_REACTORS
330
47
102
}
330
47
100
AcDbScale
 70
     0
300
3/32" = 1'-0"
140
0.09375
141
12.0
290
     0
  0
SCALE
  5
5E
102
{ACAD_REACTORS
330
47
102
}
330
47
100
AcDbScale
 70
     0
300
1/8" = 1'-0"
140
0.125
141
12.0
290
     0
  0
SCALE
  5
5F
102
{ACAD_REACTORS
330
47
102
}
330
47
100
AcDbScale
 70
     0
300
3/16" = 1'-0"
140
0.1875
141
12.0
290
     0
  0
SCALE
  5
60
102
{ACAD_REACTORS
330
47
102
}
330
47
100
AcDbScale
 70
     0
300
1/4" = 1'-0"
140
0.25
141
12.0
290
     0
  0
SCALE
  5
61
102
{ACAD_REACTORS
330
47
102
}
330
47
100
AcDbScale
 70
     0
300
3/8" = 1'-0"
140
0.375
141
12.0
290
     0
  0
SCALE
  5
62
102
{ACAD_REACTORS
330
47
102
}
330
47
100
AcDbScale
 70
     0
300
1/2" = 1'-0"
140
0.5
141
12.0
290
     0
  0
SCALE
  5
63
102
{ACAD_REACTORS
330
47
102
}
330
47
100
AcDbScale
 70
     0
300
3/4" = 1'-0"
140
0.75
141
12.0
290
     0
  0
SCALE
  5
64
102
{ACAD_REACTORS
330
47
102
}
330
47
100
AcDbScale
 70
     0
300
1" = 1'-0"
140
1.0
141
12.0
290
     0
  0
SCALE
  5
65
102
{ACAD_REACTORS
330
47
102
}
330
47
100
AcDbScale
 70
     0
300
1-1/2" = 1'-0"
140
1.5
141
12.0
290
     0
  0
SCALE
  5
66
102
{ACAD_REACTORS
330
47
102
}
330
47
100
AcDbScale
 70
     0
300
3" = 1'-0"
140
3.0
141
12.0
290
     0
  0
SCALE
  5
67
102
{ACAD_REACTORS
330
47
102
}
330
47
100
AcDbScale
 70
     0
300
6" = 1'-0"
140
6.0
141
12.0
290
     0
  0
SCALE
  5
68
102
{ACAD_REACTORS
330
47
102
}
330
47
100
AcDbScale
 70
     0
300
1'-0" = 1'-0"
140
12.0
141
12.0
290
     0
  0
TABLESTYLE
  5
9C8
102
{ACAD_REACTORS
330
9C7
102
}
102
{ACAD_XDICTIONARY
360
D36
102
}
330
9C7
100
AcDbTableStyle
  3
Standard
 70
     0
 71
     0
 40
0.06
 41
0.06
280
     0
281
     0
  7
Standard
140
4.5
170
     2
 62
     0
 63
   257
283
     0
 90
        4
 91
        0
  1

274
    -2
284
     1
 64
     0
275
    -2
285
     1
 65
     0
276
    -2
286
     1
 66
     0
277
    -2
287
     1
 67
     0
278
    -2
288
     1
 68
     0
279
    -2
289
     1
 69
     0
  7
Standard
140
6.0
170
     5
 62
     0
 63
   257
283
     0
 90
        4
 91
        0
  1

274
    -2
284
     1
 64
     0
275
    -2
285
     1
 65
     0
276
    -2
286
     1
 66
     0
277
    -2
287
     1
 67
     0
278
    -2
288
     1
 68
     0
279
    -2
289
     1
 69
     0
  7
Standard
140
4.5
170
     5
 62
     0
 63
   257
283
     0
 90
        4
 91
        0
  1

274
    -2
284
     1
 64
     0
275
    -2
285
     1
 65
     0
276
    -2
286
     1
 66
     0
277
    -2
287
     1
 67
     0
278
    -2
288
     1
 68
     0
279
    -2
289
     1
 69
     0
  0
VISUALSTYLE
  5
9AF
102
{ACAD_REACTORS
330
9AA
102
}
330
9AA
100
AcDbVisualStyle
  2
2dWireframe
 70
     4
177
     2
291
     0
 71
     0
176
     1
 72
     2
176
     1
 73
     0
176
     1
 90
        0
176
     1
 40
0.6
176
     1
 41
30.0
176
     1
 62
     5
 63
     7
421
 16777215
176
     1
 74
     1
176
     1
 91
        4
176
     1
 64
     7
176
     1
 65
   257
176
     1
 75
     1
176
     1
175
     1
176
     1
 42
1.0
176
     1
 92
        0
176
     1
 66
   257
176
     1
 43
1.0
176
     1
 76
     1
176
     1
 77
     6
176
     1
 78
     2
176
     1
 67
     7
176
     1
 79
     5
176
     1
170
     0
176
     1
171
     0
176
     1
290
     0
176
     1
 93
        1
176
     1
 44
0.0
176
     1
173
     0
176
     1
  0
VISUALSTYLE
  5
9B2
102
{ACAD_REACTORS
330
9AA
102
}
330
9AA
100
AcDbVisualStyle
  2
Basic
 70
     7
177
     2
291
     1
 71
     1
176
     1
 72
     0
176
     1
 73
     1
176
     1
 90
        0
176
     1
 40
0.6
176
     1
 41
30.0
176
     1
 62
     5
 63
     7
421
 16777215
176
     1
 74
     0
176
     1
 91
        4
176
     1
 64
     7
176
     1
 65
   257
176
     1
 75
     1
176
     1
175
     1
176
     1
 42
1.0
176
     1
 92
        8
176
     1
 66
     7
176
     1
 43
1.0
176
     1
 76
     1
176
     1
 77
     6
176
     1
 78
     2
176
     1
 67
     7
176
     1
 79
     5
176
     1
170
     0
176
     1
171
     0
176
     1
290
     0
176
     1
 93
        1
176
     1
 44
0.0
176
     1
173
     0
176
     1
  0
VISUALSTYLE
  5
9B6
102
{ACAD_REACTORS
330
9AA
102
}
330
9AA
100
AcDbVisualStyle
  2
Brighten
 70
    12
177
     2
291
     1
 71
     2
176
     1
 72
     2
176
     1
 73
     0
176
     1
 90
        0
176
     1
 40
0.6
176
     1
 41
30.0
176
     1
 62
     5
 63
     7
421
 16777215
176
     1
 74
     1
176
     1
 91
        4
176
     1
 64
     7
176
     1
 65
   257
176
     1
 75
     1
176
     1
175
     1
176
     1
 42
1.0
176
     1
 92
        8
176
     1
 66
     7
176
     1
 43
1.0
176
     1
 76
     1
176
     1
 77
     6
176
     1
 78
     2
176
     1
 67
     7
176
     1
 79
     5
176
     1
170
     0
176
     1
171
     0
176
     1
290
     0
176
     1
 93
        1
176
     1
 44
50.0
176
     1
173
     0
176
     1
  0
VISUALSTYLE
  5
9BA
102
{ACAD_REACTORS
330
9AA
102
}
330
9AA
100
AcDbVisualStyle
  2
ColorChange
 70
    16
177
     2
291
     1
 71
     2
176
     1
 72
     2
176
     1
 73
     3
176
     1
 90
        0
176
     1
 40
0.6
176
     1
 41
30.0
176
     1
 62
     5
 63
     8
421
  8421504
176
     1
 74
     1
176
     1
 91
        4
176
     1
 64
     7
176
     1
 65
   257
176
     1
 75
     1
176
     1
175
     1
176
     1
 42
1.0
176
     1
 92
        8
176
     1
 66
     8
424
  8421504
176
     1
 43
1.0
176
     1
 76
     1
176
     1
 77
     6
176
     1
 78
     2
176
     1
 67
     7
176
     1
 79
     5
176
     1
170
     0
176
     1
171
     0
176
     1
290
     0
176
     1
 93
        1
176
     1
 44
0.0
176
     1
173
     0
176
     1
  0
VISUALSTYLE
  5
9B4
102
{ACAD_REACTORS
330
9AA
102
}
330
9AA
100
AcDbVisualStyle
  2
Conceptual
 70
     9
177
     2
291
     0
 71
     3
176
     1
 72
     2
176
     1
 73
     0
176
     1
 90
        0
176
     1
 40
0.6
176
     1
 41
30.0
176
     1
 62
     5
 63
     7
421
 16777215
176
     1
 74
     2
176
     1
 91
        2
176
     1
 64
     7
176
     1
 65
   257
176
     1
 75
     1
176
     1
175
     1
176
     1
 42
179.0
176
     1
 92
        8
176
     1
 66
     7
176
     1
 43
1.0
176
     1
 76
     1
176
     1
 77
     6
176
     1
 78
     2
176
     1
 67
     7
176
     1
 79
     3
176
     1
170
     0
176
     1
171
     0
176
     1
290
     0
176
     1
 93
        1
176
     1
 44
0.0
176
     1
173
     0
176
     1
  0
VISUALSTYLE
  5
9B5
102
{ACAD_REACTORS
330
9AA
102
}
330
9AA
100
AcDbVisualStyle
  2
Dim
 70
    11
177
     2
291
     1
 71
     2
176
     1
 72
     2
176
     1
 73
     0
176
     1
 90
        0
176
     1
 40
0.6
176
     1
 41
30.0
176
     1
 62
     5
 63
     7
421
 16777215
176
     1
 74
     1
176
     1
 91
        4
176
     1
 64
     7
176
     1
 65
   257
176
     1
 75
     1
176
     1
175
     1
176
     1
 42
1.0
176
     1
 92
        8
176
     1
 66
     7
176
     1
 43
1.0
176
     1
 76
     1
176
     1
 77
     6
176
     1
 78
     2
176
     1
 67
     7
176
     1
 79
     5
176
     1
170
     0
176
     1
171
     0
176
     1
290
     0
176
     1
 93
        1
176
     1
 44
-50.0
176
     1
173
     0
176
     1
  0
VISUALSTYLE
  5
9BD
102
{ACAD_REACTORS
330
9AA
102
}
330
9AA
100
AcDbVisualStyle
  2
EdgeColorOff
 70
    22
177
     2
291
     1
 71
     2
176
     0
 72
     2
176
     0
 73
     0
176
     0
 90
        0
176
     0
 40
0.6
176
     0
 41
30.0
176
     0
 62
     5
 63
     7
421
 16777215
176
     0
 74
     1
176
     0
 91
        4
176
     0
 64
     7
176
     0
 65
   257
176
     0
 75
     1
176
     0
175
     1
176
     0
 42
1.0
176
     0
 92
        8
176
     2
 66
     7
176
     0
 43
1.0
176
     0
 76
     1
176
     0
 77
     6
176
     0
 78
     2
176
     0
 67
     7
176
     0
 79
     5
176
     0
170
     0
176
     0
171
     0
176
     0
290
     0
176
     0
 93
        1
176
     0
 44
0.0
176
     0
173
     0
176
     0
  0
VISUALSTYLE
  5
9B9
102
{ACAD_REACTORS
330
9AA
102
}
330
9AA
100
AcDbVisualStyle
  2
Facepattern
 70
    15
177
     2
291
     1
 71
     2
176
     1
 72
     2
176
     1
 73
     0
176
     1
 90
        0
176
     1
 40
0.6
176
     1
 41
30.0
176
     1
 62
     5
 63
     7
421
 16777215
176
     1
 74
     1
176
     1
 91
        4
176
     1
 64
     7
176
     1
 65
   257
176
     1
 75
     1
176
     1
175
     1
176
     1
 42
1.0
176
     1
 92
        8
176
     1
 66
     7
176
     1
 43
1.0
176
     1
 76
     1
176
     1
 77
     6
176
     1
 78
     2
176
     1
 67
     7
176
     1
 79
     5
176
     1
170
     0
176
     1
171
     0
176
     1
290
     0
176
     1
 93
        1
176
     1
 44
0.0
176
     1
173
     0
176
     1
  0
VISUALSTYLE
  5
9AB
102
{ACAD_REACTORS
330
9AA
102
}
330
9AA
100
AcDbVisualStyle
  2
Flat
 70
     0
177
     2
291
     1
 71
     2
176
     1
 72
     1
176
     1
 73
     1
176
     1
 90
        2
176
     1
 40
0.6
176
     1
 41
30.0
176
     1
 62
     5
 63
     7
421
 16777215
176
     1
 74
     0
176
     1
 91
        0
176
     1
 64
     7
176
     1
 65
   257
176
     1
 75
     1
176
     1
175
     1
176
     1
 42
1.0
176
     1
 92
        8
176
     1
 66
     7
176
     1
 43
1.0
176
     1
 76
     1
176
     1
 77
     6
176
     1
 78
     2
176
     1
 67
     7
176
     1
 79
     5
176
     1
170
     0
176
     1
171
     0
176
     1
290
     0
176
     1
 93
       13
176
     1
 44
0.0
176
     1
173
     0
176
     1
  0
VISUALSTYLE
  5
9AC
102
{ACAD_REACTORS
330
9AA
102
}
330
9AA
100
AcDbVisualStyle
  2
FlatWithEdges
 70
     1
177
     2
291
     1
 71
     2
176
     1
 72
     1
176
     1
 73
     1
176
     1
 90
        2
176
     1
 40
0.6
176
     1
 41
30.0
176
     1
 62
     5
 63
     7
421
 16777215
176
     1
 74
     1
176
     1
 91
        0
176
     1
 64
     7
176
     1
 65
   257
176
     1
 75
     1
176
     1
175
     1
176
     1
 42
1.0
176
     1
 92
        0
176
     1
 66
   257
176
     1
 43
1.0
176
     1
 76
     1
176
     1
 77
     6
176
     1
 78
     2
176
     1
 67
     7
176
     1
 79
     5
176
     1
170
     0
176
     1
171
     0
176
     1
290
     0
176
     1
 93
       13
176
     1
 44
0.0
176
     1
173
     0
176
     1
  0
VISUALSTYLE
  5
9AD
102
{ACAD_REACTORS
330
9AA
102
}
330
9AA
100
AcDbVisualStyle
  2
Gouraud
 70
     2
177
     2
291
     1
 71
     2
176
     1
 72
     2
176
     1
 73
     1
176
     1
 90
        2
176
     1
 40
0.6
176
     1
 41
30.0
176
     1
 62
     5
 63
     7
421
 16777215
176
     1
 74
     0
176
     1
 91
        0
176
     1
 64
     7
176
     1
 65
   257
176
     1
 75
     1
176
     1
175
     1
176
     1
 42
1.0
176
     1
 92
        0
176
     1
 66
     7
176
     1
 43
1.0
176
     1
 76
     1
176
     1
 77
     6
176
     1
 78
     2
176
     1
 67
     7
176
     1
 79
     5
176
     1
170
     0
176
     1
171
     0
176
     1
290
     0
176
     1
 93
       13
176
     1
 44
0.0
176
     1
173
     0
176
     1
  0
VISUALSTYLE
  5
9AE
102
{ACAD_REACTORS
330
9AA
102
}
330
9AA
100
AcDbVisualStyle
  2
GouraudWithEdges
 70
     3
177
     2
291
     1
 71
     2
176
     1
 72
     2
176
     1
 73
     1
176
     1
 90
        2
176
     1
 40
0.6
176
     1
 41
30.0
176
     1
 62
     5
 63
     7
421
 16777215
176
     1
 74
     1
176
     1
 91
        0
176
     1
 64
     7
176
     1
 65
   257
176
     1
 75
     1
176
     1
175
     1
176
     1
 42
1.0
176
     1
 92
        0
176
     1
 66
   257
176
     1
 43
1.0
176
     1
 76
     1
176
     1
 77
     6
176
     1
 78
     2
176
     1
 67
     7
176
     1
 79
     5
176
     1
170
     0
176
     1
171
     0
176
     1
290
     0
176
     1
 93
       13
176
     1
 44
0.0
176
     1
173
     0
176
     1
  0
VISUALSTYLE
  5
9B1
102
{ACAD_REACTORS
330
9AA
102
}
330
9AA
100
AcDbVisualStyle
  2
Hidden
 70
     6
177
     2
291
     0
 71
     1
176
     1
 72
     2
176
     1
 73
     2
176
     1
 90
        0
176
     1
 40
0.6
176
     1
 41
30.0
176
     1
 62
     5
 63
     7
421
 16777215
176
     1
 74
     2
176
     1
 91
        2
176
     1
 64
     7
176
     1
 65
   257
176
     1
 75
     2
176
     1
175
     1
176
     1
 42
40.0
176
     1
 92
        0
176
     1
 66
   257
176
     1
 43
1.0
176
     1
 76
     1
176
     1
 77
     6
176
     1
 78
     2
176
     1
 67
     7
176
     1
 79
     3
176
     1
170
     0
176
     1
171
     0
176
     1
290
     0
176
     1
 93
        1
176
     1
 44
0.0
176
     1
173
     0
176
     1
  0
VISUALSTYLE
  5
9BB
102
{ACAD_REACTORS
330
9AA
102
}
330
9AA
100
AcDbVisualStyle
  2
JitterOff
 70
    20
177
     2
291
     1
 71
     2
176
     0
 72
     2
176
     0
 73
     0
176
     0
 90
        0
176
     0
 40
0.6
176
     0
 41
30.0
176
     0
 62
     5
 63
     7
421
 16777215
176
     0
 74
     1
176
     0
 91
        4
176
     0
 64
     7
176
     0
 65
   257
176
     0
 75
     1
176
     0
175
     1
176
     0
 42
1.0
176
     0
 92
       10
176
     2
 66
     7
176
     0
 43
1.0
176
     0
 76
     1
176
     0
 77
     6
176
     0
 78
     2
176
     0
 67
     7
176
     0
 79
     5
176
     0
170
     0
176
     0
171
     0
176
     0
290
     0
176
     0
 93
        1
176
     0
 44
0.0
176
     0
173
     0
176
     0
  0
VISUALSTYLE
  5
9B8
102
{ACAD_REACTORS
330
9AA
102
}
330
9AA
100
AcDbVisualStyle
  2
Linepattern
 70
    14
177
     2
291
     1
 71
     2
176
     1
 72
     2
176
     1
 73
     0
176
     1
 90
        0
176
     1
 40
0.6
176
     1
 41
30.0
176
     1
 62
     5
 63
     7
421
 16777215
176
     1
 74
     1
176
     1
 91
        4
176
     1
 64
     7
176
     1
 65
   257
176
     1
 75
     7
176
     1
175
     7
176
     1
 42
1.0
176
     1
 92
        8
176
     1
 66
     7
176
     1
 43
1.0
176
     1
 76
     1
176
     1
 77
     6
176
     1
 78
     2
176
     1
 67
     7
176
     1
 79
     5
176
     1
170
     0
176
     1
171
     0
176
     1
290
     0
176
     1
 93
        1
176
     1
 44
0.0
176
     1
173
     0
176
     1
  0
VISUALSTYLE
  5
9BC
102
{ACAD_REACTORS
330
9AA
102
}
330
9AA
100
AcDbVisualStyle
  2
OverhangOff
 70
    21
177
     2
291
     1
 71
     2
176
     0
 72
     2
176
     0
 73
     0
176
     0
 90
        0
176
     0
 40
0.6
176
     0
 41
30.0
176
     0
 62
     5
 63
     7
421
 16777215
176
     0
 74
     1
176
     0
 91
        4
176
     0
 64
     7
176
     0
 65
   257
176
     0
 75
     1
176
     0
175
     1
176
     0
 42
1.0
176
     0
 92
        9
176
     2
 66
     7
176
     0
 43
1.0
176
     0
 76
     1
176
     0
 77
     6
176
     0
 78
     2
176
     0
 67
     7
176
     0
 79
     5
176
     0
170
     0
176
     0
171
     0
176
     0
290
     0
176
     0
 93
        1
176
     0
 44
0.0
176
     0
173
     0
176
     0
  0
VISUALSTYLE
  5
9B3
102
{ACAD_REACTORS
330
9AA
102
}
330
9AA
100
AcDbVisualStyle
  2
Realistic
 70
     8
177
     2
291
     0
 71
     2
176
     1
 72
     3
176
     1
 73
     0
176
     1
 90
        2
176
     1
 40
0.6
176
     1
 41
30.0
176
     1
 62
     5
 63
     7
421
 16777215
176
     1
 74
     0
176
     1
 91
        0
176
     1
 64
     7
176
     1
 65
   257
176
     1
 75
     1
176
     1
175
     1
176
     1
 42
1.0
176
     1
 92
        8
176
     1
 66
   257
176
     1
 43
1.0
176
     1
 76
     1
176
     1
 77
     6
176
     1
 78
     2
176
     1
 67
     7
176
     1
 79
     3
176
     1
170
     0
176
     1
171
     0
176
     1
290
     0
176
     1
 93
       13
176
     1
 44
0.0
176
     1
173
     0
176
     1
  0
VISUALSTYLE
  5
9C2
102
{ACAD_REACTORS
330
9AA
102
}
330
9AA
100
AcDbVisualStyle
  2
Shaded
 70
    27
177
     2
291
     0
 71
     2
176
     1
 72
     2
176
     1
 73
     1
176
     1
 90
        2
176
     1
 40
0.6
176
     1
 41
30.0
176
     1
 62
     5
 63
     7
421
 16777215
176
     1
 74
     0
176
     1
 91
        4
176
     1
 64
     7
176
     1
 65
   257
176
     1
 75
     1
176
     1
175
     1
176
     1
 42
1.0
176
     1
 92
        8
176
     1
 66
   257
176
     1
 43
1.0
176
     1
 76
     1
176
     1
 77
     6
176
     1
 78
     2
176
     1
 67
     8
425
  7895160
176
     1
 79
     3
176
     1
170
     0
176
     1
171
     0
176
     1
290
     0
176
     1
 93
        5
176
     1
 44
0.0
176
     1
173
     0
176
     1
  0
VISUALSTYLE
  5
9C1
102
{ACAD_REACTORS
330
9AA
102
}
330
9AA
100
AcDbVisualStyle
  2
Shaded with edges
 70
    26
177
     2
291
     0
 71
     2
176
     1
 72
     2
176
     1
 73
     1
176
     1
 90
        2
176
     1
 40
0.6
176
     1
 41
30.0
176
     1
 62
     5
 63
     7
421
 16777215
176
     1
 74
     1
176
     1
 91
       10
176
     1
 64
     7
176
     1
 65
   257
176
     1
 75
     2
176
     1
175
     1
176
     1
 42
1.0
176
     1
 92
        8
176
     1
 66
   257
176
     1
 43
1.0
176
     1
 76
     1
176
     1
 77
     6
176
     1
 78
     2
176
     1
 67
     7
176
     1
 79
     3
176
     1
170
     0
176
     1
171
     0
176
     1
290
     0
176
     1
 93
        5
176
     1
 44
0.0
176
     1
173
     0
176
     1
  0
VISUALSTYLE
  5
9BE
102
{ACAD_REACTORS
330
9AA
102
}
330
9AA
100
AcDbVisualStyle
  2
Shades of Gray
 70
    23
177
     2
291
     0
 71
     2
176
     1
 72
     2
176
     1
 73
     3
176
     1
 90
        0
176
     1
 40
0.6
176
     1
 41
30.0
176
     1
 62
     5
 63
     7
421
 16777215
176
     1
 74
     2
176
     1
 91
        2
176
     1
 64
     7
176
     1
 65
     7
176
     1
 75
     1
176
     1
175
     1
176
     1
 42
40.0
176
     1
 92
        8
176
     1
 66
     7
176
     1
 43
1.0
176
     1
 76
     1
176
     1
 77
     6
176
     1
 78
     2
176
     1
 67
     7
176
     1
 79
     3
176
     1
170
     0
176
     1
171
     0
176
     1
290
     0
176
     1
 93
        1
176
     1
 44
0.0
176
     1
173
     0
176
     1
  0
VISUALSTYLE
  5
9BF
102
{ACAD_REACTORS
330
9AA
102
}
330
9AA
100
AcDbVisualStyle
  2
Sketchy
 70
    24
177
     2
291
     0
 71
     1
176
     1
 72
     2
176
     1
 73
     2
176
     1
 90
        0
176
     1
 40
0.6
176
     1
 41
30.0
176
     1
 62
     5
 63
     7
421
 16777215
176
     1
 74
     2
176
     1
 91
        2
176
     1
 64
     7
176
     1
 65
     7
176
     1
 75
     1
176
     1
175
     1
176
     1
 42
40.0
176
     1
 92
       11
176
     1
 66
     7
176
     1
 43
1.0
176
     1
 76
     1
176
     1
 77
     6
176
     1
 78
     2
176
     1
 67
     7
176
     1
 79
     6
176
     1
170
     0
176
     1
171
     0
176
     1
290
     0
176
     1
 93
        1
176
     1
 44
0.0
176
     1
173
     0
176
     1
  0
VISUALSTYLE
  5
9B7
102
{ACAD_REACTORS
330
9AA
102
}
330
9AA
100
AcDbVisualStyle
  2
Thicken
 70
    13
177
     2
291
     1
 71
     2
176
     1
 72
     2
176
     1
 73
     0
176
     1
 90
        0
176
     1
 40
0.6
176
     1
 41
30.0
176
     1
 62
     5
 63
     7
421
 16777215
176
     1
 74
     1
176
     1
 91
        4
176
     1
 64
     7
176
     1
 65
   257
176
     1
 75
     1
176
     1
175
     1
176
     1
 42
1.0
176
     1
 92
       12
176
     1
 66
     7
176
     1
 43
1.0
176
     1
 76
     1
176
     1
 77
     6
176
     1
 78
     2
176
     1
 67
     7
176
     1
 79
     5
176
     1
170
     0
176
     1
171
     0
176
     1
290
     0
176
     1
 93
        1
176
     1
 44
0.0
176
     1
173
     0
176
     1
  0
VISUALSTYLE
  5
9B0
102
{ACAD_REACTORS
330
9AA
102
}
330
9AA
100
AcDbVisualStyle
  2
Wireframe
 70
     5
177
     2
291
     0
 71
     0
176
     1
 72
     2
176
     1
 73
     0
176
     1
 90
        0
176
     1
 40
0.6
176
     1
 41
30.0
176
     1
 62
     5
 63
     7
421
 16777215
176
     1
 74
     1
176
     1
 91
        4
176
     1
 64
     7
176
     1
 65
   257
176
     1
 75
     1
176
     1
175
     1
176
     1
 42
1.0
176
     1
 92
        0
176
     1
 66
   257
176
     1
 43
1.0
176
     1
 76
     1
176
     1
 77
     6
176
     1
 78
     2
176
     1
 67
     7
176
     1
 79
     3
176
     1
170
     0
176
     1
171
     0
176
     1
290
     0
176
     1
 93
        1
176
     1
 44
0.0
176
     1
173
     0
176
     1
  0
VISUALSTYLE
  5
9C0
102
{ACAD_REACTORS
330
9AA
102
}
330
9AA
100
AcDbVisualStyle
  2
X-Ray
 70
    25
177
     2
291
     0
 71
     2
176
     1
 72
     2
176
     1
 73
     1
176
     1
 90
        1
176
     1
 40
0.5
176
     1
 41
30.0
176
     1
 62
     5
 63
     7
421
 16777215
176
     1
 74
     1
176
     1
 91
        0
176
     1
 64
     7
176
     1
 65
   257
176
     1
 75
     1
176
     1
175
     1
176
     1
 42
1.0
176
     1
 92
        8
176
     1
 66
     7
176
     1
 43
1.0
176
     1
 76
     1
176
     1
 77
     6
176
     1
 78
     2
176
     1
 67
     7
176
     1
 79
     3
176
     1
170
     0
176
     1
171
     0
176
     1
290
     0
176
     1
 93
       13
176
     1
 44
0.0
176
     1
173
     0
176
     1
  0
DICTIONARYVAR
  5
9CC
102
{ACAD_REACTORS
330
124
102
}
330
124
100
DictionaryVariables
280
     0
  1
1:1
  0
DICTIONARYVAR
  5
9D1
102
{ACAD_REACTORS
330
124
102
}
330
124
100
DictionaryVariables
280
     0
  1
Standard
  0
DICTIONARYVAR
  5
9D0
102
{ACAD_REACTORS
330
124
102
}
330
124
100
DictionaryVariables
280
     0
  1
Standard
  0
DICTIONARYVAR
  5
9D2
102
{ACAD_REACTORS
330
124
102
}
330
124
100
DictionaryVariables
280
     0
  1
0
  0
DICTIONARY
  5
D36
330
9C8
100
AcDbDictionary
280
     1
281
     1
  3
ACAD_ROUNDTRIP_2008_TABLESTYLE_CELLSTYLEMAP
360
D37
  0
CELLSTYLEMAP
  5
D37
102
{ACAD_REACTORS
330
D36
102
}
330
D36
100
AcDbCellStyleMap
 90
        3
300
CELLSTYLE
  1
TABLEFORMAT_BEGIN
 90
        5
170
     1
 91
        0
 92
    32768
 62
   257
 93
        1
300
CONTENTFORMAT
  1
CONTENTFORMAT_BEGIN
 90
        0
 91
        0
 92
        4
 93
        0
300

 40
0.0
140
1.0
 94
        5
 62
     0
340
11
144
6.0
309
CONTENTFORMAT_END
171
     1
301
MARGIN
  1
CELLMARGIN_BEGIN
 40
1.5
 40
1.5
 40
1.5
 40
1.5
 40
1.5
 40
1.5
309
CELLMARGIN_END
 94
        6
 95
        1
302
GRIDFORMAT
  1
GRIDFORMAT_BEGIN
 90
        0
 91
        1
 62
     0
 92
       -2
340
14
 93
        0
 40
0.045
309
GRIDFORMAT_END
 95
        2
302
GRIDFORMAT
  1
GRIDFORMAT_BEGIN
 90
        0
 91
        1
 62
     0
 92
       -2
340
14
 93
        0
 40
0.045
309
GRIDFORMAT_END
 95
        4
302
GRIDFORMAT
  1
GRIDFORMAT_BEGIN
 90
        0
 91
        1
 62
     0
 92
       -2
340
14
 93
        0
 40
0.045
309
GRIDFORMAT_END
 95
        8
302
GRIDFORMAT
  1
GRIDFORMAT_BEGIN
 90
        0
 91
        1
 62
     0
 92
       -2
340
14
 93
        0
 40
0.045
309
GRIDFORMAT_END
 95
       16
302
GRIDFORMAT
  1
GRIDFORMAT_BEGIN
 90
        0
 91
        1
 62
     0
 92
       -2
340
14
 93
        0
 40
0.045
309
GRIDFORMAT_END
 95
       32
302
GRIDFORMAT
  1
GRIDFORMAT_BEGIN
 90
        0
 91
        1
 62
     0
 92
       -2
340
14
 93
        0
 40
0.045
309
GRIDFORMAT_END
309
TABLEFORMAT_END
  1
CELLSTYLE_BEGIN
 90
        1
 91
        1
300
_TITLE
309
CELLSTYLE_END
300
CELLSTYLE
  1
TABLEFORMAT_BEGIN
 90
        5
170
     1
 91
        0
 92
        0
 62
   257
 93
        1
300
CONTENTFORMAT
  1
CONTENTFORMAT_BEGIN
 90
        0
 91
        0
 92
        4
 93
        0
300

 40
0.0
140
1.0
 94
        5
 62
     0
340
11
144
4.5
309
CONTENTFORMAT_END
171
     1
301
MARGIN
  1
CELLMARGIN_BEGIN
 40
1.5
 40
1.5
 40
1.5
 40
1.5
 40
1.5
 40
1.5
309
CELLMARGIN_END
 94
        6
 95
        1
302
GRIDFORMAT
  1
GRIDFORMAT_BEGIN
 90
        0
 91
        1
 62
     0
 92
       -2
340
14
 93
        0
 40
0.045
309
GRIDFORMAT_END
 95
        2
302
GRIDFORMAT
  1
GRIDFORMAT_BEGIN
 90
        0
 91
        1
 62
     0
 92
       -2
340
14
 93
        0
 40
0.045
309
GRIDFORMAT_END
 95
        4
302
GRIDFORMAT
  1
GRIDFORMAT_BEGIN
 90
        0
 91
        1
 62
     0
 92
       -2
340
14
 93
        0
 40
0.045
309
GRIDFORMAT_END
 95
        8
302
GRIDFORMAT
  1
GRIDFORMAT_BEGIN
 90
        0
 91
        1
 62
     0
 92
       -2
340
14
 93
        0
 40
0.045
309
GRIDFORMAT_END
 95
       16
302
GRIDFORMAT
  1
GRIDFORMAT_BEGIN
 90
        0
 91
        1
 62
     0
 92
       -2
340
14
 93
        0
 40
0.045
309
GRIDFORMAT_END
 95
       32
302
GRIDFORMAT
  1
GRIDFORMAT_BEGIN
 90
        0
 91
        1
 62
     0
 92
       -2
340
14
 93
        0
 40
0.045
309
GRIDFORMAT_END
309
TABLEFORMAT_END
  1
CELLSTYLE_BEGIN
 90
        2
 91
        1
300
_HEADER
309
CELLSTYLE_END
300
CELLSTYLE
  1
TABLEFORMAT_BEGIN
 90
        5
170
     1
 91
        0
 92
        0
 62
   257
 93
        1
300
CONTENTFORMAT
  1
CONTENTFORMAT_BEGIN
 90
        0
 91
        0
 92
        4
 93
        0
300

 40
0.0
140
1.0
 94
        2
 62
     0
340
11
144
4.5
309
CONTENTFORMAT_END
171
     1
301
MARGIN
  1
CELLMARGIN_BEGIN
 40
1.5
 40
1.5
 40
1.5
 40
1.5
 40
1.5
 40
1.5
309
CELLMARGIN_END
 94
        6
 95
        1
302
GRIDFORMAT
  1
GRIDFORMAT_BEGIN
 90
        0
 91
        1
 62
     0
 92
       -2
340
14
 93
        0
 40
0.045
309
GRIDFORMAT_END
 95
        2
302
GRIDFORMAT
  1
GRIDFORMAT_BEGIN
 90
        0
 91
        1
 62
     0
 92
       -2
340
14
 93
        0
 40
0.045
309
GRIDFORMAT_END
 95
        4
302
GRIDFORMAT
  1
GRIDFORMAT_BEGIN
 90
        0
 91
        1
 62
     0
 92
       -2
340
14
 93
        0
 40
0.045
309
GRIDFORMAT_END
 95
        8
302
GRIDFORMAT
  1
GRIDFORMAT_BEGIN
 90
        0
 91
        1
 62
     0
 92
       -2
340
14
 93
        0
 40
0.045
309
GRIDFORMAT_END
 95
       16
302
GRIDFORMAT
  1
GRIDFORMAT_BEGIN
 90
        0
 91
        1
 62
     0
 92
       -2
340
14
 93
        0
 40
0.045
309
GRIDFORMAT_END
 95
       32
302
GRIDFORMAT
  1
GRIDFORMAT_BEGIN
 90
        0
 91
        1
 62
     0
 92
       -2
340
14
 93
        0
 40
0.045
309
GRIDFORMAT_END
309
TABLEFORMAT_END
  1
CELLSTYLE_BEGIN
 90
        3
 91
        2
300
_DATA
309
CELLSTYLE_END
  0
ENDSEC
  0
EOF
