  0
SECTION
  2
HEADER
  9
$ACADVER
  1
AC1024
  9
$ACADMAINTVER
 70
     6
  9
$DWGCODEPAGE
  3
ANSI_1252
  9
$LASTSAVEDBY
  1
bparkinson
  9
$INSBASE
 10
0.0
 20
0.0
 30
0.0
  9
$EXTMIN
 10
-121.9999999999847
 20
-79.50000000004829
 30
0.0
  9
$EXTMAX
 10
156.9579798062189
 20
130.2353130177738
 30
0.0
  9
$LIMMIN
 10
0.0
 20
0.0
  9
$LIMMAX
 10
420.0
 20
297.0
  9
$ORTHOMODE
 70
     1
  9
$REGENMODE
 70
     1
  9
$FILLMODE
 70
     1
  9
$QTEXTMODE
 70
     0
  9
$MIRRTEXT
 70
     1
  9
$LTSCALE
 40
1.0
  9
$ATTMODE
 70
     1
  9
$TEXTSIZE
 40
10.0
  9
$TRACEWID
 40
1.0
  9
$TEXTSTYLE
  7
Standard
  9
$CLAYER
  8
slots
  9
$CELTYPE
  6
ByLayer
  9
$CECOLOR
 62
   256
  9
$CELTSCALE
 40
1.0
  9
$DISPSILH
 70
     0
  9
$DIMSCALE
 40
1.0
  9
$DIMASZ
 40
3.302
  9
$DIMEXO
 40
1.0
  9
$DIMDLI
 40
3.75
  9
$DIMRND
 40
0.0
  9
$DIMDLE
 40
0.0
  9
$DIMEXE
 40
1.0
  9
$DIMTP
 40
0.0
  9
$DIMTM
 40
0.0
  9
$DIMTXT
 40
3.5
  9
$DIMCEN
 40
2.5
  9
$DIMTSZ
 40
0.0
  9
$DIMTOL
 70
     0
  9
$DIMLIM
 70
     0
  9
$DIMTIH
 70
     1
  9
$DIMTOH
 70
     1
  9
$DIMSE1
 70
     0
  9
$DIMSE2
 70
     0
  9
$DIMTAD
 70
     1
  9
$DIMZIN
 70
     0
  9
$DIMBLK
  1

  9
$DIMASO
 70
     1
  9
$DIMSHO
 70
     1
  9
$DIMPOST
  1

  9
$DIMAPOST
  1

  9
$DIMALT
 70
     0
  9
$DIMALTD
 70
     3
  9
$DIMALTF
 40
0.0393700787
  9
$DIMLFAC
 40
1.0
  9
$DIMTOFL
 70
     1
  9
$DIMTVP
 40
0.0
  9
$DIMTIX
 70
     0
  9
$DIMSOXD
 70
     0
  9
$DIMSAH
 70
     0
  9
$DIMBLK1
  1

  9
$DIMBLK2
  1

  9
$DIMSTYLE
  2
ISO-25
  9
$DIMCLRD
 70
     0
  9
$DIMCLRE
 70
     0
  9
$DIMCLRT
 70
     0
  9
$DIMTFAC
 40
1.0
  9
$DIMGAP
 40
1.524
  9
$DIMJUST
 70
     0
  9
$DIMSD1
 70
     0
  9
$DIMSD2
 70
     0
  9
$DIMTOLJ
 70
     0
  9
$DIMTZIN
 70
     0
  9
$DIMALTZ
 70
     0
  9
$DIMALTTZ
 70
     0
  9
$DIMUPT
 70
     0
  9
$DIMDEC
 70
     2
  9
$DIMTDEC
 70
     2
  9
$DIMALTU
 70
     2
  9
$DIMALTTD
 70
     3
  9
$DIMTXSTY
  7
Standard
  9
$DIMAUNIT
 70
     0
  9
$DIMADEC
 70
     2
  9
$DIMALTRND
 40
0.0
  9
$DIMAZIN
 70
     0
  9
$DIMDSEP
 70
    44
  9
$DIMATFIT
 70
     3
  9
$DIMFRAC
 70
     0
  9
$DIMLDRBLK
  1

  9
$DIMLUNIT
 70
     2
  9
$DIMLWD
 70
    -2
  9
$DIMLWE
 70
    -2
  9
$DIMTMOVE
 70
     0
  9
$DIMFXL
 40
1.0
  9
$DIMFXLON
 70
     0
  9
$DIMJOGANG
 40
0.7853981633974483
  9
$DIMTFILL
 70
     0
  9
$DIMTFILLCLR
 70
     0
  9
$DIMARCSYM
 70
     0
  9
$DIMLTYPE
  6

  9
$DIMLTEX1
  6

  9
$DIMLTEX2
  6

  9
$DIMTXTDIRECTION
 70
     0
  9
$LUNITS
 70
     2
  9
$LUPREC
 70
     2
  9
$SKETCHINC
 40
1.0
  9
$FILLETRAD
 40
2.5
  9
$AUNITS
 70
     0
  9
$AUPREC
 70
     2
  9
$MENU
  1
.
  9
$ELEVATION
 40
0.0
  9
$PELEVATION
 40
0.0
  9
$THICKNESS
 40
0.0
  9
$LIMCHECK
 70
     0
  9
$CHAMFERA
 40
0.0
  9
$CHAMFERB
 40
0.0
  9
$CHAMFERC
 40
0.0
  9
$CHAMFERD
 40
0.0
  9
$SKPOLY
 70
     0
  9
$TDCREATE
 40
2457764.509155799
  9
$TDUCREATE
 40
2457764.467489132
  9
$TDUPDATE
 40
2457884.507014826
  9
$TDUUPDATE
 40
2457884.46534816
  9
$TDINDWG
 40
0.028123912
  9
$TDUSRTIMER
 40
2457884.458456296
  9
$USRTIMER
 70
     1
  9
$ANGBASE
 50
0.0
  9
$ANGDIR
 70
     0
  9
$PDMODE
 70
     0
  9
$PDSIZE
 40
-1.0
  9
$PLINEWID
 40
0.0
  9
$SPLFRAME
 70
     0
  9
$SPLINETYPE
 70
     6
  9
$SPLINESEGS
 70
     8
  9
$HANDSEED
  5
B29
  9
$SURFTAB1
 70
     6
  9
$SURFTAB2
 70
     6
  9
$SURFTYPE
 70
     6
  9
$SURFU
 70
     6
  9
$SURFV
 70
     6
  9
$UCSBASE
  2

  9
$UCSNAME
  2

  9
$UCSORG
 10
0.0
 20
0.0
 30
0.0
  9
$UCSXDIR
 10
1.0
 20
0.0
 30
0.0
  9
$UCSYDIR
 10
0.0
 20
1.0
 30
0.0
  9
$UCSORTHOREF
  2

  9
$UCSORTHOVIEW
 70
     0
  9
$UCSORGTOP
 10
0.0
 20
0.0
 30
0.0
  9
$UCSORGBOTTOM
 10
0.0
 20
0.0
 30
0.0
  9
$UCSORGLEFT
 10
0.0
 20
0.0
 30
0.0
  9
$UCSORGRIGHT
 10
0.0
 20
0.0
 30
0.0
  9
$UCSORGFRONT
 10
0.0
 20
0.0
 30
0.0
  9
$UCSORGBACK
 10
0.0
 20
0.0
 30
0.0
  9
$PUCSBASE
  2

  9
$PUCSNAME
  2

  9
$PUCSORG
 10
0.0
 20
0.0
 30
0.0
  9
$PUCSXDIR
 10
1.0
 20
0.0
 30
0.0
  9
$PUCSYDIR
 10
0.0
 20
1.0
 30
0.0
  9
$PUCSORTHOREF
  2

  9
$PUCSORTHOVIEW
 70
     0
  9
$PUCSORGTOP
 10
0.0
 20
0.0
 30
0.0
  9
$PUCSORGBOTTOM
 10
0.0
 20
0.0
 30
0.0
  9
$PUCSORGLEFT
 10
0.0
 20
0.0
 30
0.0
  9
$PUCSORGRIGHT
 10
0.0
 20
0.0
 30
0.0
  9
$PUCSORGFRONT
 10
0.0
 20
0.0
 30
0.0
  9
$PUCSORGBACK
 10
0.0
 20
0.0
 30
0.0
  9
$USERI1
 70
     0
  9
$USERI2
 70
     0
  9
$USERI3
 70
     0
  9
$USERI4
 70
     0
  9
$USERI5
 70
     0
  9
$USERR1
 40
0.0
  9
$USERR2
 40
0.0
  9
$USERR3
 40
0.0
  9
$USERR4
 40
0.0
  9
$USERR5
 40
0.0
  9
$WORLDVIEW
 70
     1
  9
$SHADEDGE
 70
     3
  9
$SHADEDIF
 70
    70
  9
$TILEMODE
 70
     1
  9
$MAXACTVP
 70
    64
  9
$PINSBASE
 10
0.0
 20
0.0
 30
0.0
  9
$PLIMCHECK
 70
     0
  9
$PEXTMIN
 10
1.000000000000000E+20
 20
1.000000000000000E+20
 30
1.000000000000000E+20
  9
$PEXTMAX
 10
-1.000000000000000E+20
 20
-1.000000000000000E+20
 30
-1.000000000000000E+20
  9
$PLIMMIN
 10
-557.7621668550661
 20
9.552982531271548
  9
$PLIMMAX
 10
-137.7621668550661
 20
306.5529825312715
  9
$UNITMODE
 70
     0
  9
$VISRETAIN
 70
     1
  9
$PLINEGEN
 70
     0
  9
$PSLTSCALE
 70
     1
  9
$TREEDEPTH
 70
  3020
  9
$CMLSTYLE
  2
Standard
  9
$CMLJUST
 70
     0
  9
$CMLSCALE
 40
20.0
  9
$PROXYGRAPHICS
 70
     1
  9
$MEASUREMENT
 70
     1
  9
$CELWEIGHT
370
    -1
  9
$ENDCAPS
280
     0
  9
$JOINSTYLE
280
     0
  9
$LWDISPLAY
290
     1
  9
$INSUNITS
 70
     4
  9
$HYPERLINKBASE
  1

  9
$STYLESHEET
  1

  9
$XEDIT
290
     1
  9
$CEPSNTYPE
380
     0
  9
$PSTYLEMODE
290
     1
  9
$FINGERPRINTGUID
  2
{A7165E57-DD50-4FAE-8F8C-05437C6A4A26}
  9
$VERSIONGUID
  2
{FAEB1C32-E019-11D5-929B-00C0DF256EC4}
  9
$EXTNAMES
290
     1
  9
$PSVPSCALE
 40
0.0
  9
$OLESTARTUP
290
     0
  9
$SORTENTS
280
   127
  9
$INDEXCTL
280
     0
  9
$HIDETEXT
280
     1
  9
$XCLIPFRAME
280
     2
  9
$HALOGAP
280
     0
  9
$OBSCOLOR
 70
   257
  9
$OBSLTYPE
280
     0
  9
$INTERSECTIONDISPLAY
280
     0
  9
$INTERSECTIONCOLOR
 70
   257
  9
$DIMASSOC
280
     2
  9
$PROJECTNAME
  1

  9
$CAMERADISPLAY
290
     0
  9
$LENSLENGTH
 40
50.0
  9
$CAMERAHEIGHT
 40
0.0
  9
$STEPSPERSEC
 40
2.0
  9
$STEPSIZE
 40
6.0
  9
$3DDWFPREC
 40
2.0
  9
$PSOLWIDTH
 40
0.25
  9
$PSOLHEIGHT
 40
4.0
  9
$LOFTANG1
 40
1.570796326794897
  9
$LOFTANG2
 40
1.570796326794897
  9
$LOFTMAG1
 40
0.0
  9
$LOFTMAG2
 40
0.0
  9
$LOFTPARAM
 70
     7
  9
$LOFTNORMALS
280
     1
  9
$LATITUDE
 40
37.795
  9
$LONGITUDE
 40
-122.394
  9
$NORTHDIRECTION
 40
0.0
  9
$TIMEZONE
 70
 -8000
  9
$LIGHTGLYPHDISPLAY
280
     1
  9
$TILEMODELIGHTSYNCH
280
     1
  9
$SOLIDHIST
280
     0
  9
$SHOWHIST
280
     1
  9
$DWFFRAME
280
     2
  9
$DGNFRAME
280
     2
  9
$REALWORLDSCALE
290
     1
  9
$INTERFERECOLOR
 62
   256
  9
$CSHADOW
280
     0
  9
$SHADOWPLANELOCATION
 40
0.0
  0
ENDSEC
  0
SECTION
  2
CLASSES
  0
CLASS
  1
ACDBDICTIONARYWDFLT
  2
AcDbDictionaryWithDefault
  3
ObjectDBX Classes
 90
        0
 91
        6
280
     0
281
     0
  0
CLASS
  1
VISUALSTYLE
  2
AcDbVisualStyle
  3
ObjectDBX Classes
 90
     4095
 91
        6
280
     0
281
     0
  0
CLASS
  1
MATERIAL
  2
AcDbMaterial
  3
ObjectDBX Classes
 90
     1153
 91
        6
280
     0
281
     0
  0
CLASS
  1
SCALE
  2
AcDbScale
  3
ObjectDBX Classes
 90
     1153
 91
        6
280
     0
281
     0
  0
CLASS
  1
SUN
  2
AcDbSun
  3
SCENEOE
 90
     1153
 91
        6
280
     0
281
     0
  0
CLASS
  1
ACDBPLACEHOLDER
  2
AcDbPlaceHolder
  3
ObjectDBX Classes
 90
        0
 91
        1
280
     0
281
     0
  0
CLASS
  1
LAYOUT
  2
AcDbLayout
  3
ObjectDBX Classes
 90
        0
 91
        1
280
     0
281
     0
  0
CLASS
  1
TABLESTYLE
  2
AcDbTableStyle
  3
ObjectDBX Classes
 90
     4095
 91
        6
280
     0
281
     0
  0
CLASS
  1
RASTERVARIABLES
  2
AcDbRasterVariables
  3
ISM
 90
        0
 91
        6
280
     0
281
     0
  0
CLASS
  1
MLEADERSTYLE
  2
AcDbMLeaderStyle
  3
ACDB_MLEADERSTYLE_CLASS
 90
     4095
 91
        6
280
     0
281
     0
  0
CLASS
  1
DICTIONARYVAR
  2
AcDbDictionaryVar
  3
ObjectDBX Classes
 90
        0
 91
        6
280
     0
281
     0
  0
CLASS
  1
DIMASSOC
  2
AcDbDimAssoc
  3
"AcDbDimAssoc|Product Desc:     AcDim ARX App For Dimension|Company:          Autodesk, Inc.|WEB Address:      www.autodesk.com"
 90
        0
 91
        4
280
     0
281
     0
  0
CLASS
  1
CELLSTYLEMAP
  2
AcDbCellStyleMap
  3
ObjectDBX Classes
 90
     1152
 91
        6
280
     0
281
     0
  0
ENDSEC
  0
SECTION
  2
TABLES
  0
TABLE
  2
VPORT
  5
8
330
0
100
AcDbSymbolTable
 70
     1
  0
VPORT
  5
29
330
8
100
AcDbSymbolTableRecord
100
AcDbViewportTableRecord
  2
*Active
 70
     0
 10
0.0
 20
0.0
 11
1.0
 21
1.0
 12
28.13526532283279
 22
21.21975132567438
 13
0.0
 23
0.0
 14
10.0
 24
10.0
 15
10.0
 25
10.0
 16
0.0
 26
0.0
 36
1.0
 17
0.0
 27
0.0
 37
0.0
 40
270.6645858949779
 41
2.051820728291316
 42
50.0
 43
0.0
 44
0.0
 50
0.0
 51
0.0
 71
    16
 72
   100
 73
     1
 74
     3
 75
     0
 76
     0
 77
     0
 78
     0
281
     0
 65
     1
110
0.0
120
0.0
130
0.0
111
1.0
121
0.0
131
0.0
112
0.0
122
1.0
132
0.0
 79
     0
146
0.0
348
9AF
 60
     3
 61
     5
292
     1
282
     1
141
0.0
142
0.0
 63
   256
361
9CB
  0
ENDTAB
  0
TABLE
  2
LTYPE
  5
5
330
0
100
AcDbSymbolTable
 70
     1
  0
LTYPE
  5
14
330
5
100
AcDbSymbolTableRecord
100
AcDbLinetypeTableRecord
  2
ByBlock
 70
     0
  3

 72
    65
 73
     0
 40
0.0
  0
LTYPE
  5
15
330
5
100
AcDbSymbolTableRecord
100
AcDbLinetypeTableRecord
  2
ByLayer
 70
     0
  3
Solid line
 72
    65
 73
     0
 40
0.0
  0
LTYPE
  5
16
330
5
100
AcDbSymbolTableRecord
100
AcDbLinetypeTableRecord
  2
Continuous
 70
     0
  3
Solid line
 72
    65
 73
     0
 40
0.0
  0
ENDTAB
  0
TABLE
  2
LAYER
  5
2
102
{ACAD_XDICTIONARY
360
F5
102
}
330
0
100
AcDbSymbolTable
 70
     4
  0
LAYER
  5
10
330
2
100
AcDbSymbolTableRecord
100
AcDbLayerTableRecord
  2
0
 70
     0
 62
     7
  6
Continuous
370
    -3
390
F
347
9C6
  0
LAYER
  5
3E8
330
2
100
AcDbSymbolTableRecord
100
AcDbLayerTableRecord
  2
slots
 70
     0
 62
     4
  6
Continuous
370
    -3
390
F
347
9C6
1001
AcAecLayerStandard
1000

1000

  0
LAYER
  5
952
330
2
100
AcDbSymbolTableRecord
100
AcDbLayerTableRecord
  2
Defpoints
 70
     0
 62
     6
  6
Continuous
290
     0
370
    -3
390
F
347
9C6
  0
LAYER
  5
9A3
330
2
100
AcDbSymbolTableRecord
100
AcDbLayerTableRecord
  2
1mm deep
 70
     0
 62
     6
  6
Continuous
370
    -3
390
F
347
9C6
1001
AcAecLayerStandard
1000

1000

  0
ENDTAB
  0
TABLE
  2
STYLE
  5
3
330
0
100
AcDbSymbolTable
 70
     1
  0
STYLE
  5
11
330
3
100
AcDbSymbolTableRecord
100
AcDbTextStyleTableRecord
  2
Standard
 70
     0
 40
0.0
 41
1.0
 50
0.0
 71
     0
 42
10.0
  3
txt
  4

  0
ENDTAB
  0
TABLE
  2
VIEW
  5
6
330
0
100
AcDbSymbolTable
 70
     0
  0
ENDTAB
  0
TABLE
  2
UCS
  5
7
330
0
100
AcDbSymbolTable
 70
     0
  0
ENDTAB
  0
TABLE
  2
APPID
  5
9
330
0
100
AcDbSymbolTable
 70
     3
  0
APPID
  5
12
330
9
100
AcDbSymbolTableRecord
100
AcDbRegAppTableRecord
  2
ACAD
 70
     0
  0
APPID
  5
F9
330
9
100
AcDbSymbolTableRecord
100
AcDbRegAppTableRecord
  2
AcAecLayerStandard
 70
     0
  0
APPID
  5
3D9
330
9
100
AcDbSymbolTableRecord
100
AcDbRegAppTableRecord
  2
ACAD_DSTYLE_DIMRADIAL_EXTENSION
 70
     0
  0
ENDTAB
  0
TABLE
  2
DIMSTYLE
  5
A
330
0
100
AcDbSymbolTable
 70
     1
100
AcDbDimStyleTable
  0
DIMSTYLE
105
27
330
A
100
AcDbSymbolTableRecord
100
AcDbDimStyleTableRecord
  2
ISO-25
 70
     0
 41
2.5
 42
0.625
 43
3.75
 44
1.25
 73
     0
 74
     0
 77
     1
 78
     8
140
2.5
141
2.5
143
0.0393700787
147
0.625
171
     3
172
     1
178
     0
271
     2
272
     2
274
     3
278
    44
283
     0
284
     8
340
11
  0
ENDTAB
  0
TABLE
  2
BLOCK_RECORD
  5
1
330
0
100
AcDbSymbolTable
 70
     3
  0
BLOCK_RECORD
  5
1F
330
1
100
AcDbSymbolTableRecord
100
AcDbBlockTableRecord
  2
*Model_Space
340
22
 70
     0
280
     1
281
     0
  0
BLOCK_RECORD
  5
1B
330
1
100
AcDbSymbolTableRecord
100
AcDbBlockTableRecord
  2
*Paper_Space
340
1E
 70
     0
280
     1
281
     0
  0
BLOCK_RECORD
  5
23
330
1
100
AcDbSymbolTableRecord
100
AcDbBlockTableRecord
  2
*Paper_Space0
340
26
 70
     0
280
     1
281
     0
  0
BLOCK_RECORD
  5
956
330
1
100
AcDbSymbolTableRecord
100
AcDbBlockTableRecord
  2
*D1
340
0
 70
     0
280
     1
281
     0
  0
BLOCK_RECORD
  5
966
330
1
100
AcDbSymbolTableRecord
100
AcDbBlockTableRecord
  2
*D2
340
0
 70
     0
280
     1
281
     0
  0
ENDTAB
  0
ENDSEC
  0
SECTION
  2
BLOCKS
  0
BLOCK
  5
20
330
1F
100
AcDbEntity
  8
0
100
AcDbBlockBegin
  2
*Model_Space
 70
     0
 10
0.0
 20
0.0
 30
0.0
  3
*Model_Space
  1
*Model_Space
  0
ENDBLK
  5
21
330
1F
100
AcDbEntity
  8
0
100
AcDbBlockEnd
  0
BLOCK
  5
1C
330
1B
100
AcDbEntity
 67
     1
  8
0
100
AcDbBlockBegin
  2
*Paper_Space
 70
     0
 10
0.0
 20
0.0
 30
0.0
  3
*Paper_Space
  1
*Paper_Space
  0
ENDBLK
  5
1D
330
1B
100
AcDbEntity
 67
     1
  8
0
100
AcDbBlockEnd
  0
BLOCK
  5
24
330
23
100
AcDbEntity
  8
0
100
AcDbBlockBegin
  2
*Paper_Space0
 70
     0
 10
0.0
 20
0.0
 30
0.0
  3
*Paper_Space0
  1
*Paper_Space0
  0
ENDBLK
  5
25
330
23
100
AcDbEntity
  8
0
100
AcDbBlockEnd
  0
BLOCK
  5
957
330
956
100
AcDbEntity
  8
0
100
AcDbBlockBegin
  2
*D1
 70
     1
 10
0.0
 20
0.0
 30
0.0
  3
*D1
  1

  0
LINE
  5
959
330
956
100
AcDbEntity
  8
0
 62
     0
370
    -2
100
AcDbLine
 10
-114.9109185131073
 20
77.50000000004827
 30
0.0
 11
-143.3704391077096
 21
77.50000000004826
 31
0.0
  0
LINE
  5
95A
330
956
100
AcDbEntity
  8
0
 62
     0
370
    -2
100
AcDbLine
 10
-114.9109185131073
 20
-75.50000000004866
 30
0.0
 11
-143.3704391077096
 21
-75.50000000004866
 31
0.0
  0
LINE
  5
95B
330
956
100
AcDbEntity
  8
0
 62
     0
370
    -2
100
AcDbLine
 10
-142.3704391077096
 20
74.19800000004825
 30
0.0
 11
-142.3704391077096
 21
4.565666666666473
 31
0.0
  0
LINE
  5
95C
330
956
100
AcDbEntity
  8
0
 62
     0
370
    -2
100
AcDbLine
 10
-142.3704391077096
 20
-72.19800000004865
 30
0.0
 11
-142.3704391077096
 21
-2.565666666666871
 31
0.0
  0
SOLID
  5
95D
330
956
100
AcDbEntity
  8
0
 62
     0
100
AcDbTrace
 10
-141.8201057743763
 20
74.19800000004825
 30
0.0
 11
-142.9207724410429
 21
74.19800000004825
 31
0.0
 12
-142.3704391077096
 22
77.50000000004826
 32
0.0
 13
-142.3704391077096
 23
77.50000000004826
 33
0.0
  0
SOLID
  5
95E
330
956
100
AcDbEntity
  8
0
 62
     0
100
AcDbTrace
 10
-142.9207724410429
 20
-72.19800000004865
 30
0.0
 11
-141.8201057743763
 21
-72.19800000004865
 31
0.0
 12
-142.3704391077096
 22
-75.50000000004866
 32
0.0
 13
-142.3704391077096
 23
-75.50000000004866
 33
0.0
  0
MTEXT
  5
95F
330
956
100
AcDbEntity
  8
0
 62
     0
100
AcDbMText
 10
-142.3704391077096
 20
0.999999999999801
 30
0.0
 40
3.5
 41
0.0
 46
0.0
 71
     5
 72
     1
  1
153,00
 73
     1
 44
1.0
  0
POINT
  5
960
330
956
100
AcDbEntity
  8
Defpoints
 62
     0
100
AcDbPoint
 10
-113.9109185131073
 20
77.50000000004827
 30
0.0
  0
POINT
  5
961
330
956
100
AcDbEntity
  8
Defpoints
 62
     0
100
AcDbPoint
 10
-113.9109185131073
 20
-75.50000000004866
 30
0.0
  0
POINT
  5
962
330
956
100
AcDbEntity
  8
Defpoints
 62
     0
100
AcDbPoint
 10
-142.3704391077096
 20
-75.50000000004866
 30
0.0
  0
ENDBLK
  5
958
330
956
100
AcDbEntity
  8
0
100
AcDbBlockEnd
  0
BLOCK
  5
967
330
966
100
AcDbEntity
  8
0
100
AcDbBlockBegin
  2
*D2
 70
     1
 10
0.0
 20
0.0
 30
0.0
  3
*D2
  1

  0
LINE
  5
969
330
966
100
AcDbEntity
  8
0
 62
     0
370
    -2
100
AcDbLine
 10
-150.8562991646809
 20
86.08119806408301
 30
0.0
 11
-135.9156324980142
 21
86.08119806408301
 31
0.0
  0
LINE
  5
96A
330
966
100
AcDbEntity
  8
0
 62
     0
370
    -2
100
AcDbLine
 10
-135.9156324980142
 20
86.08119806408301
 30
0.0
 11
-120.9756711660279
 21
76.86032956936421
 31
0.0
  0
MTEXT
  5
96B
330
966
100
AcDbEntity
  8
0
 62
     0
100
AcDbMText
 10
-144.1479658313476
 20
89.64686473074968
 30
0.0
 40
3.5
 41
0.0
 46
0.0
 71
     5
 72
     1
  1
R5,00
 73
     1
 44
1.0
  0
LINE
  5
96C
330
966
100
AcDbEntity
  8
0
 62
     0
370
    -2
100
AcDbLine
 10
-113.9109185131073
 20
72.50000000004827
 30
0.0
 11
-118.1657683402096
 21
75.12607177149849
 31
0.0
  0
SOLID
  5
96D
330
966
100
AcDbEntity
  8
0
 62
     0
100
AcDbTrace
 10
-121.2647141323389
 20
76.39201243172782
 30
0.0
 11
-120.6866281997169
 21
77.3286467070006
 31
0.0
 12
-118.1657683402096
 22
75.12607177149849
 32
0.0
 13
-118.1657683402096
 23
75.12607177149849
 33
0.0
  0
POINT
  5
96E
330
966
100
AcDbEntity
  8
Defpoints
 62
     0
100
AcDbPoint
 10
-118.1657683402096
 20
75.12607177149849
 30
0.0
  0
POINT
  5
96F
330
966
100
AcDbEntity
  8
Defpoints
 62
     0
100
AcDbPoint
 10
-113.9109185131073
 20
72.50000000004827
 30
0.0
  0
ENDBLK
  5
968
330
966
100
AcDbEntity
  8
0
100
AcDbBlockEnd
  0
ENDSEC
  0
SECTION
  2
ENTITIES
  0
ARC
  5
B8
330
1F
100
AcDbEntity
  8
0
  6
Continuous
 62
     7
370
    15
100
AcDbCircle
 10
-689.0312499999
 20
0.0
 30
0.0
 40
811.0312499998788
100
AcDbArc
 50
354.839448578443
 51
5.160551421557028
  0
ARC
  5
BA
330
1F
100
AcDbEntity
  8
0
  6
Continuous
 62
     7
370
    15
100
AcDbCircle
 10
689.03125
 20
0.0
 30
0.0
 40
811.0312499999848
100
AcDbArc
 50
174.8394485784436
 51
185.1605514215564
  0
LINE
  5
942
330
1F
100
AcDbEntity
  8
0
100
AcDbLine
 10
-113.7328037396594
 20
77.50000000004829
 30
0.0
 11
-12.0000000000027
 21
77.50000000004827
 31
0.0
  0
ARC
  5
947
330
1F
100
AcDbEntity
  8
0
100
AcDbCircle
 10
-0.0000000000031122
 20
77.50000000004826
 30
0.0
 40
7.999999999999602
100
AcDbArc
 50
202.6198649480411
 51
337.3801350519587
  0
LINE
  5
948
330
1F
100
AcDbEntity
  8
0
100
AcDbLine
 10
11.99999999999645
 20
77.50000000004826
 30
0.0
 11
113.7328037396532
 21
77.50000000004826
 31
0.0
  0
ARC
  5
949
330
1F
100
AcDbEntity
  8
0
100
AcDbCircle
 10
-12.0000000000027
 20
72.50000000004827
 30
0.0
 40
5.0
100
AcDbArc
 50
22.61986494804109
 51
90.0
  0
ARC
  5
94A
330
1F
100
AcDbEntity
  8
0
100
AcDbCircle
 10
11.99999999999645
 20
72.50000000004826
 30
0.0
 40
5.0
100
AcDbArc
 50
90.0
 51
157.3801350519589
  0
TEXT
  5
94C
330
1F
100
AcDbEntity
  8
0
100
AcDbText
 10
-69.7086868604478
 20
120.2353130177738
 30
0.0
 40
10.0
  1
5mm material
100
AcDbText
  0
TEXT
  5
950
330
1F
100
AcDbEntity
  8
0
100
AcDbText
 10
-69.7086868604478
 20
105.7894443091175
 30
0.0
 40
10.0
  1
1mm chamfer outside keys
100
AcDbText
  0
ARC
  5
970
330
1F
100
AcDbEntity
  8
0
100
AcDbCircle
 10
-113.7328037396594
 20
72.50000000004827
 30
0.0
 40
5.0
100
AcDbArc
 50
90.0
 51
174.8394485784436
  0
ARC
  5
971
330
1F
100
AcDbEntity
  8
0
100
AcDbCircle
 10
113.7328037396532
 20
72.50000000004827
 30
0.0
 40
5.0
100
AcDbArc
 50
5.160551421557047
 51
90.0
  0
LINE
  5
972
330
1F
100
AcDbEntity
  8
0
100
AcDbLine
 10
11.99999999999645
 20
-77.50000000004826
 30
0.0
 11
113.7328037396532
 21
-77.50000000004826
 31
0.0
  0
LINE
  5
973
330
1F
100
AcDbEntity
  8
0
100
AcDbLine
 10
-113.7328037396595
 20
-77.50000000004829
 30
0.0
 11
-12.0000000000027
 21
-77.50000000004826
 31
0.0
  0
ARC
  5
974
330
1F
100
AcDbEntity
  8
0
100
AcDbCircle
 10
-0.0000000000031122
 20
-77.50000000004826
 30
0.0
 40
7.999999999999602
100
AcDbArc
 50
22.61986494804131
 51
157.3801350519589
  0
ARC
  5
975
330
1F
100
AcDbEntity
  8
0
100
AcDbCircle
 10
-12.0000000000027
 20
-72.50000000004827
 30
0.0
 40
5.0
100
AcDbArc
 50
270.0
 51
337.380135051959
  0
ARC
  5
976
330
1F
100
AcDbEntity
  8
0
100
AcDbCircle
 10
11.99999999999645
 20
-72.50000000004826
 30
0.0
 40
5.0
100
AcDbArc
 50
202.6198649480411
 51
270.0
  0
ARC
  5
979
330
1F
100
AcDbEntity
  8
0
100
AcDbCircle
 10
-113.7328037396595
 20
-72.50000000004827
 30
0.0
 40
5.0
100
AcDbArc
 50
185.1605514215562
 51
270.0
  0
ARC
  5
97A
330
1F
100
AcDbEntity
  8
0
100
AcDbCircle
 10
113.7328037396532
 20
-72.50000000004823
 30
0.0
 40
5.0
100
AcDbArc
 50
269.9999999999995
 51
354.8394485784429
  0
LINE
  5
97B
330
1F
100
AcDbEntity
  8
0
100
AcDbLine
 10
11.99999999999645
 20
-77.50000000004826
 30
0.0
 11
113.7328037396531
 21
-77.50000000004823
 31
0.0
  0
LINE
  5
97F
330
1F
100
AcDbEntity
  8
1mm deep
100
AcDbLine
 10
-82.00000000000313
 20
74.00000000004829
 30
0.0
 11
-82.00000000000313
 21
79.50000000004829
 31
0.0
  0
LINE
  5
980
330
1F
100
AcDbEntity
  8
1mm deep
100
AcDbLine
 10
-95.00000000000313
 20
74.00000000004829
 30
0.0
 11
-95.00000000000313
 21
79.50000000004829
 31
0.0
  0
LINE
  5
983
330
1F
100
AcDbEntity
  8
1mm deep
100
AcDbLine
 10
-92.50000000000313
 20
71.50000000004829
 30
0.0
 11
-84.50000000000313
 21
71.50000000004829
 31
0.0
  0
ARC
  5
984
330
1F
100
AcDbEntity
  8
1mm deep
100
AcDbCircle
 10
-92.50000000000313
 20
74.00000000004829
 30
0.0
 40
2.499999999999999
100
AcDbArc
 50
180.0
 51
270.0
  0
ARC
  5
985
330
1F
100
AcDbEntity
  8
1mm deep
100
AcDbCircle
 10
-84.50000000000313
 20
74.00000000004829
 30
0.0
 40
2.5
100
AcDbArc
 50
269.9999999999999
 51
0.0
  0
LINE
  5
986
330
1F
100
AcDbEntity
  8
1mm deep
100
AcDbLine
 10
-92.50000000000313
 20
-67.50000000004809
 30
0.0
 11
-84.50000000000313
 21
-67.50000000004809
 31
0.0
  0
ARC
  5
987
330
1F
100
AcDbEntity
  8
1mm deep
100
AcDbCircle
 10
-92.50000000000313
 20
-70.00000000004809
 30
0.0
 40
2.499999999999999
100
AcDbArc
 50
90.0
 51
180.0
  0
ARC
  5
988
330
1F
100
AcDbEntity
  8
1mm deep
100
AcDbCircle
 10
-84.50000000000313
 20
-70.00000000004809
 30
0.0
 40
2.5
100
AcDbArc
 50
0.0
 51
90.0
  0
LINE
  5
989
330
1F
100
AcDbEntity
  8
1mm deep
100
AcDbLine
 10
-82.00000000000313
 20
-70.00000000004809
 30
0.0
 11
-82.00000000000313
 21
-79.50000000004827
 31
0.0
  0
LINE
  5
98A
330
1F
100
AcDbEntity
  8
1mm deep
100
AcDbLine
 10
-95.00000000000313
 20
-70.00000000004809
 30
0.0
 11
-95.00000000000313
 21
-79.50000000004829
 31
0.0
  0
LINE
  5
997
330
1F
100
AcDbEntity
  8
1mm deep
100
AcDbLine
 10
92.49999999999687
 20
71.50000000004829
 30
0.0
 11
84.49999999999687
 21
71.50000000004829
 31
0.0
  0
ARC
  5
998
330
1F
100
AcDbEntity
  8
1mm deep
100
AcDbCircle
 10
92.49999999999687
 20
74.00000000004829
 30
0.0
 40
2.499999999999999
100
AcDbArc
 50
270.0
 51
0.0
  0
ARC
  5
999
330
1F
100
AcDbEntity
  8
1mm deep
100
AcDbCircle
 10
84.49999999999687
 20
74.00000000004829
 30
0.0
 40
2.5
100
AcDbArc
 50
180.0
 51
270.0
  0
LINE
  5
99A
330
1F
100
AcDbEntity
  8
1mm deep
100
AcDbLine
 10
81.99999999999687
 20
74.00000000004829
 30
0.0
 11
81.99999999999687
 21
79.50000000004829
 31
0.0
  0
LINE
  5
99B
330
1F
100
AcDbEntity
  8
1mm deep
100
AcDbLine
 10
94.99999999999687
 20
74.00000000004829
 30
0.0
 11
94.99999999999687
 21
79.50000000004829
 31
0.0
  0
LINE
  5
99C
330
1F
100
AcDbEntity
  8
1mm deep
100
AcDbLine
 10
92.49999999999687
 20
-67.50000000004809
 30
0.0
 11
84.49999999999687
 21
-67.50000000004809
 31
0.0
  0
ARC
  5
99D
330
1F
100
AcDbEntity
  8
1mm deep
100
AcDbCircle
 10
92.49999999999687
 20
-70.00000000004809
 30
0.0
 40
2.499999999999999
100
AcDbArc
 50
0.0
 51
90.0
  0
ARC
  5
99E
330
1F
100
AcDbEntity
  8
1mm deep
100
AcDbCircle
 10
84.49999999999687
 20
-70.00000000004809
 30
0.0
 40
2.5
100
AcDbArc
 50
90.0
 51
180.0
  0
LINE
  5
99F
330
1F
100
AcDbEntity
  8
1mm deep
100
AcDbLine
 10
81.99999999999687
 20
-70.00000000004809
 30
0.0
 11
81.99999999999687
 21
-79.50000000004827
 31
0.0
  0
LINE
  5
9A0
330
1F
100
AcDbEntity
  8
1mm deep
100
AcDbLine
 10
94.99999999999687
 20
-70.00000000004809
 30
0.0
 11
94.99999999999687
 21
-79.50000000004829
 31
0.0
  0
LINE
  5
9D4
330
1F
100
AcDbEntity
  8
slots
100
AcDbLine
 10
3.999999999997058
 20
-2.000000000000055
 30
0.0
 11
31.99999999999704
 21
-2.000000000000087
 31
0.0
  0
LINE
  5
9D5
330
1F
100
AcDbEntity
  8
slots
100
AcDbLine
 10
3.999999999997047
 20
15.99999999999994
 30
0.0
 11
31.99999999999705
 21
15.99999999999991
 31
0.0
  0
LINE
  5
9D9
330
1F
100
AcDbEntity
  8
slots
100
AcDbLine
 10
-0.0000000000029559
 20
-2.00000000000005
 30
0.0
 11
-0.0000000000029559
 21
46.79208361552598
 31
0.0
  0
LINE
  5
9DA
330
1F
100
AcDbEntity
  8
slots
100
AcDbLine
 10
1.499999999997058
 20
0.4999999999999456
 30
0.0
 11
1.499999999997044
 21
13.49999999999994
 31
0.0
  0
LINE
  5
9DB
330
1F
100
AcDbEntity
  8
slots
100
AcDbLine
 10
34.49999999999704
 20
0.4999999999999125
 30
0.0
 11
34.49999999999704
 21
13.49999999999991
 31
0.0
  0
ARC
  5
9DE
330
1F
100
AcDbEntity
  8
slots
100
AcDbCircle
 10
3.999999999997043
 20
13.49999999999994
 30
0.0
 40
2.499999999999999
100
AcDbArc
 50
89.9999999999999
 51
180.0
  0
ARC
  5
9DF
330
1F
100
AcDbEntity
  8
slots
100
AcDbCircle
 10
31.99999999999705
 20
13.49999999999991
 30
0.0
 40
2.5
100
AcDbArc
 50
0.0
 51
89.99999999999991
  0
ARC
  5
9E0
330
1F
100
AcDbEntity
  8
slots
100
AcDbCircle
 10
31.99999999999704
 20
0.4999999999999116
 30
0.0
 40
2.499999999999999
100
AcDbArc
 50
269.9999999999999
 51
0.0
  0
ARC
  5
9E1
330
1F
100
AcDbEntity
  8
slots
100
AcDbCircle
 10
3.999999999997058
 20
0.4999999999999456
 30
0.0
 40
2.5
100
AcDbArc
 50
180.0
 51
269.9999999999999
  0
LINE
  5
9E2
330
1F
100
AcDbEntity
  8
slots
100
AcDbLine
 10
39.99999999999706
 20
-2.000000000000055
 30
0.0
 11
67.99999999999704
 21
-2.000000000000087
 31
0.0
  0
LINE
  5
9E3
330
1F
100
AcDbEntity
  8
slots
100
AcDbLine
 10
39.99999999999704
 20
15.99999999999994
 30
0.0
 11
67.99999999999704
 21
15.99999999999991
 31
0.0
  0
LINE
  5
9E4
330
1F
100
AcDbEntity
  8
slots
100
AcDbLine
 10
37.49999999999706
 20
0.4999999999999456
 30
0.0
 11
37.49999999999704
 21
13.49999999999994
 31
0.0
  0
LINE
  5
9E5
330
1F
100
AcDbEntity
  8
slots
100
AcDbLine
 10
70.49999999999704
 20
0.4999999999999125
 30
0.0
 11
70.49999999999704
 21
13.49999999999991
 31
0.0
  0
ARC
  5
9E6
330
1F
100
AcDbEntity
  8
slots
100
AcDbCircle
 10
39.99999999999704
 20
13.49999999999994
 30
0.0
 40
2.499999999999999
100
AcDbArc
 50
90.0
 51
180.0
  0
ARC
  5
9E7
330
1F
100
AcDbEntity
  8
slots
100
AcDbCircle
 10
67.99999999999704
 20
13.49999999999991
 30
0.0
 40
2.5
100
AcDbArc
 50
0.0
 51
90.0
  0
ARC
  5
9E8
330
1F
100
AcDbEntity
  8
slots
100
AcDbCircle
 10
67.99999999999704
 20
0.4999999999999116
 30
0.0
 40
2.499999999999999
100
AcDbArc
 50
270.0
 51
0.0
  0
ARC
  5
9E9
330
1F
100
AcDbEntity
  8
slots
100
AcDbCircle
 10
39.99999999999706
 20
0.4999999999999456
 30
0.0
 40
2.5
100
AcDbArc
 50
180.0
 51
269.9999999999998
  0
LINE
  5
9EA
330
1F
100
AcDbEntity
  8
slots
100
AcDbLine
 10
75.99999999999706
 20
-2.000000000000055
 30
0.0
 11
103.999999999997
 21
-2.000000000000087
 31
0.0
  0
LINE
  5
9EB
330
1F
100
AcDbEntity
  8
slots
100
AcDbLine
 10
75.99999999999704
 20
15.99999999999994
 30
0.0
 11
103.999999999997
 21
15.99999999999991
 31
0.0
  0
LINE
  5
9EC
330
1F
100
AcDbEntity
  8
slots
100
AcDbLine
 10
73.49999999999706
 20
0.4999999999999456
 30
0.0
 11
73.49999999999704
 21
13.49999999999994
 31
0.0
  0
LINE
  5
9ED
330
1F
100
AcDbEntity
  8
slots
100
AcDbLine
 10
106.499999999997
 20
0.4999999999999125
 30
0.0
 11
106.499999999997
 21
13.49999999999991
 31
0.0
  0
ARC
  5
9EE
330
1F
100
AcDbEntity
  8
slots
100
AcDbCircle
 10
75.99999999999704
 20
13.49999999999994
 30
0.0
 40
2.499999999999999
100
AcDbArc
 50
90.0
 51
180.0
  0
ARC
  5
9EF
330
1F
100
AcDbEntity
  8
slots
100
AcDbCircle
 10
103.999999999997
 20
13.49999999999991
 30
0.0
 40
2.5
100
AcDbArc
 50
0.0
 51
90.0
  0
ARC
  5
9F0
330
1F
100
AcDbEntity
  8
slots
100
AcDbCircle
 10
103.999999999997
 20
0.4999999999999116
 30
0.0
 40
2.499999999999999
100
AcDbArc
 50
270.0
 51
0.0
  0
ARC
  5
9F1
330
1F
100
AcDbEntity
  8
slots
100
AcDbCircle
 10
75.99999999999706
 20
0.4999999999999456
 30
0.0
 40
2.5
100
AcDbArc
 50
180.0
 51
270.0
  0
LINE
  5
A0D
330
1F
100
AcDbEntity
  8
slots
100
AcDbLine
 10
3.999999999997058
 20
18.99999999999995
 30
0.0
 11
31.99999999999704
 21
18.99999999999991
 31
0.0
  0
LINE
  5
A0E
330
1F
100
AcDbEntity
  8
slots
100
AcDbLine
 10
3.999999999997047
 20
36.99999999999994
 30
0.0
 11
31.99999999999705
 21
36.99999999999991
 31
0.0
  0
LINE
  5
A0F
330
1F
100
AcDbEntity
  8
slots
100
AcDbLine
 10
1.499999999997058
 20
21.49999999999995
 30
0.0
 11
1.499999999997044
 21
34.49999999999994
 31
0.0
  0
LINE
  5
A10
330
1F
100
AcDbEntity
  8
slots
100
AcDbLine
 10
34.49999999999704
 20
21.49999999999991
 30
0.0
 11
34.49999999999704
 21
34.49999999999991
 31
0.0
  0
ARC
  5
A11
330
1F
100
AcDbEntity
  8
slots
100
AcDbCircle
 10
3.999999999997043
 20
34.49999999999994
 30
0.0
 40
2.499999999999999
100
AcDbArc
 50
89.9999999999999
 51
180.0
  0
ARC
  5
A12
330
1F
100
AcDbEntity
  8
slots
100
AcDbCircle
 10
31.99999999999705
 20
34.49999999999991
 30
0.0
 40
2.5
100
AcDbArc
 50
0.0
 51
89.99999999999991
  0
ARC
  5
A13
330
1F
100
AcDbEntity
  8
slots
100
AcDbCircle
 10
31.99999999999704
 20
21.49999999999991
 30
0.0
 40
2.499999999999999
100
AcDbArc
 50
269.9999999999999
 51
0.0
  0
ARC
  5
A14
330
1F
100
AcDbEntity
  8
slots
100
AcDbCircle
 10
3.999999999997058
 20
21.49999999999995
 30
0.0
 40
2.5
100
AcDbArc
 50
180.0
 51
269.9999999999999
  0
LINE
  5
A15
330
1F
100
AcDbEntity
  8
slots
100
AcDbLine
 10
39.99999999999706
 20
18.99999999999995
 30
0.0
 11
67.99999999999704
 21
18.99999999999991
 31
0.0
  0
LINE
  5
A16
330
1F
100
AcDbEntity
  8
slots
100
AcDbLine
 10
39.99999999999704
 20
36.99999999999994
 30
0.0
 11
67.99999999999704
 21
36.99999999999991
 31
0.0
  0
LINE
  5
A17
330
1F
100
AcDbEntity
  8
slots
100
AcDbLine
 10
37.49999999999706
 20
21.49999999999995
 30
0.0
 11
37.49999999999704
 21
34.49999999999994
 31
0.0
  0
LINE
  5
A18
330
1F
100
AcDbEntity
  8
slots
100
AcDbLine
 10
70.49999999999704
 20
21.49999999999991
 30
0.0
 11
70.49999999999704
 21
34.49999999999991
 31
0.0
  0
ARC
  5
A19
330
1F
100
AcDbEntity
  8
slots
100
AcDbCircle
 10
39.99999999999704
 20
34.49999999999994
 30
0.0
 40
2.499999999999999
100
AcDbArc
 50
90.0
 51
180.0
  0
ARC
  5
A1A
330
1F
100
AcDbEntity
  8
slots
100
AcDbCircle
 10
67.99999999999704
 20
34.49999999999991
 30
0.0
 40
2.5
100
AcDbArc
 50
0.0
 51
90.0
  0
ARC
  5
A1B
330
1F
100
AcDbEntity
  8
slots
100
AcDbCircle
 10
67.99999999999704
 20
21.49999999999991
 30
0.0
 40
2.499999999999999
100
AcDbArc
 50
270.0
 51
0.0
  0
ARC
  5
A1C
330
1F
100
AcDbEntity
  8
slots
100
AcDbCircle
 10
39.99999999999706
 20
21.49999999999995
 30
0.0
 40
2.5
100
AcDbArc
 50
180.0
 51
269.9999999999998
  0
LINE
  5
A1D
330
1F
100
AcDbEntity
  8
slots
100
AcDbLine
 10
75.99999999999706
 20
18.99999999999995
 30
0.0
 11
103.999999999997
 21
18.99999999999991
 31
0.0
  0
LINE
  5
A1E
330
1F
100
AcDbEntity
  8
slots
100
AcDbLine
 10
75.99999999999704
 20
36.99999999999994
 30
0.0
 11
103.999999999997
 21
36.99999999999991
 31
0.0
  0
LINE
  5
A1F
330
1F
100
AcDbEntity
  8
slots
100
AcDbLine
 10
73.49999999999706
 20
21.49999999999995
 30
0.0
 11
73.49999999999704
 21
34.49999999999994
 31
0.0
  0
LINE
  5
A20
330
1F
100
AcDbEntity
  8
slots
100
AcDbLine
 10
106.499999999997
 20
21.49999999999991
 30
0.0
 11
106.499999999997
 21
34.49999999999991
 31
0.0
  0
ARC
  5
A21
330
1F
100
AcDbEntity
  8
slots
100
AcDbCircle
 10
75.99999999999704
 20
34.49999999999994
 30
0.0
 40
2.499999999999999
100
AcDbArc
 50
90.0
 51
180.0
  0
ARC
  5
A22
330
1F
100
AcDbEntity
  8
slots
100
AcDbCircle
 10
103.999999999997
 20
34.49999999999991
 30
0.0
 40
2.5
100
AcDbArc
 50
0.0
 51
90.0
  0
ARC
  5
A23
330
1F
100
AcDbEntity
  8
slots
100
AcDbCircle
 10
103.999999999997
 20
21.49999999999991
 30
0.0
 40
2.499999999999999
100
AcDbArc
 50
270.0
 51
0.0
  0
ARC
  5
A24
330
1F
100
AcDbEntity
  8
slots
100
AcDbCircle
 10
75.99999999999706
 20
21.49999999999995
 30
0.0
 40
2.5
100
AcDbArc
 50
180.0
 51
270.0
  0
LINE
  5
A30
330
1F
100
AcDbEntity
  8
slots
100
AcDbLine
 10
70.49999999999704
 20
42.49999999999991
 30
0.0
 11
70.49999999999704
 21
55.49999999999991
 31
0.0
  0
ARC
  5
A32
330
1F
100
AcDbEntity
  8
slots
100
AcDbCircle
 10
67.99999999999704
 20
55.49999999999991
 30
0.0
 40
2.5
100
AcDbArc
 50
0.0
 51
90.0
  0
ARC
  5
A33
330
1F
100
AcDbEntity
  8
slots
100
AcDbCircle
 10
67.99999999999704
 20
42.49999999999991
 30
0.0
 40
2.499999999999999
100
AcDbArc
 50
270.0
 51
0.0
  0
LINE
  5
A35
330
1F
100
AcDbEntity
  8
slots
100
AcDbLine
 10
75.99999999999706
 20
39.99999999999994
 30
0.0
 11
103.999999999997
 21
39.99999999999991
 31
0.0
  0
LINE
  5
A36
330
1F
100
AcDbEntity
  8
slots
100
AcDbLine
 10
75.99999999999704
 20
57.99999999999994
 30
0.0
 11
103.999999999997
 21
57.99999999999991
 31
0.0
  0
LINE
  5
A37
330
1F
100
AcDbEntity
  8
slots
100
AcDbLine
 10
73.49999999999706
 20
42.49999999999994
 30
0.0
 11
73.49999999999704
 21
55.49999999999994
 31
0.0
  0
LINE
  5
A38
330
1F
100
AcDbEntity
  8
slots
100
AcDbLine
 10
106.499999999997
 20
42.49999999999991
 30
0.0
 11
106.499999999997
 21
55.49999999999991
 31
0.0
  0
ARC
  5
A39
330
1F
100
AcDbEntity
  8
slots
100
AcDbCircle
 10
75.99999999999704
 20
55.49999999999994
 30
0.0
 40
2.499999999999999
100
AcDbArc
 50
90.0
 51
180.0
  0
ARC
  5
A3A
330
1F
100
AcDbEntity
  8
slots
100
AcDbCircle
 10
103.999999999997
 20
55.49999999999991
 30
0.0
 40
2.5
100
AcDbArc
 50
0.0
 51
90.0
  0
ARC
  5
A3B
330
1F
100
AcDbEntity
  8
slots
100
AcDbCircle
 10
103.999999999997
 20
42.49999999999991
 30
0.0
 40
2.499999999999999
100
AcDbArc
 50
270.0
 51
0.0
  0
ARC
  5
A3C
330
1F
100
AcDbEntity
  8
slots
100
AcDbCircle
 10
75.99999999999706
 20
42.49999999999994
 30
0.0
 40
2.5
100
AcDbArc
 50
180.0
 51
270.0
  0
LINE
  5
A3D
330
1F
100
AcDbEntity
  8
slots
100
AcDbLine
 10
3.999999999997058
 20
-44.00000000000006
 30
0.0
 11
31.99999999999704
 21
-44.00000000000009
 31
0.0
  0
LINE
  5
A3E
330
1F
100
AcDbEntity
  8
slots
100
AcDbLine
 10
3.999999999997047
 20
-26.00000000000007
 30
0.0
 11
31.99999999999705
 21
-26.0000000000001
 31
0.0
  0
LINE
  5
A3F
330
1F
100
AcDbEntity
  8
slots
100
AcDbLine
 10
1.499999999997058
 20
-41.50000000000006
 30
0.0
 11
1.499999999997044
 21
-28.50000000000007
 31
0.0
  0
LINE
  5
A40
330
1F
100
AcDbEntity
  8
slots
100
AcDbLine
 10
34.49999999999704
 20
-41.50000000000009
 30
0.0
 11
34.49999999999704
 21
-28.5000000000001
 31
0.0
  0
ARC
  5
A41
330
1F
100
AcDbEntity
  8
slots
100
AcDbCircle
 10
3.999999999997043
 20
-28.50000000000007
 30
0.0
 40
2.499999999999999
100
AcDbArc
 50
89.9999999999999
 51
180.0
  0
ARC
  5
A42
330
1F
100
AcDbEntity
  8
slots
100
AcDbCircle
 10
31.99999999999705
 20
-28.5000000000001
 30
0.0
 40
2.5
100
AcDbArc
 50
0.0
 51
89.99999999999991
  0
ARC
  5
A43
330
1F
100
AcDbEntity
  8
slots
100
AcDbCircle
 10
31.99999999999704
 20
-41.50000000000009
 30
0.0
 40
2.499999999999999
100
AcDbArc
 50
269.9999999999999
 51
0.0
  0
ARC
  5
A44
330
1F
100
AcDbEntity
  8
slots
100
AcDbCircle
 10
3.999999999997058
 20
-41.50000000000006
 30
0.0
 40
2.5
100
AcDbArc
 50
180.0
 51
269.9999999999999
  0
LINE
  5
A45
330
1F
100
AcDbEntity
  8
slots
100
AcDbLine
 10
39.99999999999706
 20
-44.00000000000006
 30
0.0
 11
67.99999999999704
 21
-44.00000000000009
 31
0.0
  0
LINE
  5
A46
330
1F
100
AcDbEntity
  8
slots
100
AcDbLine
 10
39.99999999999704
 20
-26.00000000000007
 30
0.0
 11
67.99999999999704
 21
-26.0000000000001
 31
0.0
  0
LINE
  5
A47
330
1F
100
AcDbEntity
  8
slots
100
AcDbLine
 10
37.49999999999706
 20
-41.50000000000006
 30
0.0
 11
37.49999999999704
 21
-28.50000000000007
 31
0.0
  0
LINE
  5
A48
330
1F
100
AcDbEntity
  8
slots
100
AcDbLine
 10
70.49999999999704
 20
-41.50000000000009
 30
0.0
 11
70.49999999999704
 21
-28.5000000000001
 31
0.0
  0
ARC
  5
A49
330
1F
100
AcDbEntity
  8
slots
100
AcDbCircle
 10
39.99999999999704
 20
-28.50000000000007
 30
0.0
 40
2.499999999999999
100
AcDbArc
 50
90.0
 51
180.0
  0
ARC
  5
A4A
330
1F
100
AcDbEntity
  8
slots
100
AcDbCircle
 10
67.99999999999704
 20
-28.5000000000001
 30
0.0
 40
2.5
100
AcDbArc
 50
0.0
 51
90.0
  0
ARC
  5
A4B
330
1F
100
AcDbEntity
  8
slots
100
AcDbCircle
 10
67.99999999999704
 20
-41.50000000000009
 30
0.0
 40
2.499999999999999
100
AcDbArc
 50
270.0
 51
0.0
  0
ARC
  5
A4C
330
1F
100
AcDbEntity
  8
slots
100
AcDbCircle
 10
39.99999999999706
 20
-41.50000000000006
 30
0.0
 40
2.5
100
AcDbArc
 50
180.0
 51
269.9999999999998
  0
LINE
  5
A4D
330
1F
100
AcDbEntity
  8
slots
100
AcDbLine
 10
75.99999999999706
 20
-44.00000000000006
 30
0.0
 11
103.999999999997
 21
-44.00000000000009
 31
0.0
  0
LINE
  5
A4E
330
1F
100
AcDbEntity
  8
slots
100
AcDbLine
 10
75.99999999999704
 20
-26.00000000000007
 30
0.0
 11
103.999999999997
 21
-26.0000000000001
 31
0.0
  0
LINE
  5
A4F
330
1F
100
AcDbEntity
  8
slots
100
AcDbLine
 10
73.49999999999706
 20
-41.50000000000006
 30
0.0
 11
73.49999999999704
 21
-28.50000000000007
 31
0.0
  0
ARC
  5
A51
330
1F
100
AcDbEntity
  8
slots
100
AcDbCircle
 10
75.99999999999704
 20
-28.50000000000007
 30
0.0
 40
2.499999999999999
100
AcDbArc
 50
90.0
 51
180.0
  0
ARC
  5
A54
330
1F
100
AcDbEntity
  8
slots
100
AcDbCircle
 10
75.99999999999706
 20
-41.50000000000006
 30
0.0
 40
2.5
100
AcDbArc
 50
180.0
 51
270.0
  0
LINE
  5
A55
330
1F
100
AcDbEntity
  8
slots
100
AcDbLine
 10
3.999999999997058
 20
-23.00000000000006
 30
0.0
 11
31.99999999999704
 21
-23.0000000000001
 31
0.0
  0
LINE
  5
A56
330
1F
100
AcDbEntity
  8
slots
100
AcDbLine
 10
3.999999999997047
 20
-5.000000000000064
 30
0.0
 11
31.99999999999705
 21
-5.000000000000099
 31
0.0
  0
LINE
  5
A57
330
1F
100
AcDbEntity
  8
slots
100
AcDbLine
 10
1.499999999997058
 20
-20.50000000000006
 30
0.0
 11
1.499999999997044
 21
-7.500000000000064
 31
0.0
  0
LINE
  5
A58
330
1F
100
AcDbEntity
  8
slots
100
AcDbLine
 10
34.49999999999704
 20
-20.5000000000001
 30
0.0
 11
34.49999999999704
 21
-7.500000000000099
 31
0.0
  0
ARC
  5
A59
330
1F
100
AcDbEntity
  8
slots
100
AcDbCircle
 10
3.999999999997043
 20
-7.500000000000064
 30
0.0
 40
2.499999999999999
100
AcDbArc
 50
89.9999999999999
 51
180.0
  0
ARC
  5
A5A
330
1F
100
AcDbEntity
  8
slots
100
AcDbCircle
 10
31.99999999999705
 20
-7.500000000000099
 30
0.0
 40
2.5
100
AcDbArc
 50
0.0
 51
89.99999999999991
  0
ARC
  5
A5B
330
1F
100
AcDbEntity
  8
slots
100
AcDbCircle
 10
31.99999999999704
 20
-20.5000000000001
 30
0.0
 40
2.499999999999999
100
AcDbArc
 50
269.9999999999999
 51
0.0
  0
ARC
  5
A5C
330
1F
100
AcDbEntity
  8
slots
100
AcDbCircle
 10
3.999999999997058
 20
-20.50000000000006
 30
0.0
 40
2.5
100
AcDbArc
 50
180.0
 51
269.9999999999999
  0
LINE
  5
A5D
330
1F
100
AcDbEntity
  8
slots
100
AcDbLine
 10
39.99999999999706
 20
-23.00000000000006
 30
0.0
 11
67.99999999999704
 21
-23.0000000000001
 31
0.0
  0
LINE
  5
A5E
330
1F
100
AcDbEntity
  8
slots
100
AcDbLine
 10
39.99999999999704
 20
-5.000000000000064
 30
0.0
 11
67.99999999999704
 21
-5.000000000000099
 31
0.0
  0
LINE
  5
A5F
330
1F
100
AcDbEntity
  8
slots
100
AcDbLine
 10
37.49999999999706
 20
-20.50000000000006
 30
0.0
 11
37.49999999999704
 21
-7.500000000000064
 31
0.0
  0
LINE
  5
A60
330
1F
100
AcDbEntity
  8
slots
100
AcDbLine
 10
70.49999999999704
 20
-20.5000000000001
 30
0.0
 11
70.49999999999704
 21
-7.500000000000099
 31
0.0
  0
ARC
  5
A61
330
1F
100
AcDbEntity
  8
slots
100
AcDbCircle
 10
39.99999999999704
 20
-7.500000000000064
 30
0.0
 40
2.499999999999999
100
AcDbArc
 50
90.0
 51
180.0
  0
ARC
  5
A62
330
1F
100
AcDbEntity
  8
slots
100
AcDbCircle
 10
67.99999999999704
 20
-7.500000000000099
 30
0.0
 40
2.5
100
AcDbArc
 50
0.0
 51
90.0
  0
ARC
  5
A63
330
1F
100
AcDbEntity
  8
slots
100
AcDbCircle
 10
67.99999999999704
 20
-20.5000000000001
 30
0.0
 40
2.499999999999999
100
AcDbArc
 50
270.0
 51
0.0
  0
ARC
  5
A64
330
1F
100
AcDbEntity
  8
slots
100
AcDbCircle
 10
39.99999999999706
 20
-20.50000000000006
 30
0.0
 40
2.5
100
AcDbArc
 50
180.0
 51
269.9999999999998
  0
LINE
  5
A65
330
1F
100
AcDbEntity
  8
slots
100
AcDbLine
 10
75.99999999999706
 20
-23.00000000000006
 30
0.0
 11
103.999999999997
 21
-23.0000000000001
 31
0.0
  0
LINE
  5
A66
330
1F
100
AcDbEntity
  8
slots
100
AcDbLine
 10
75.99999999999704
 20
-5.000000000000064
 30
0.0
 11
103.999999999997
 21
-5.000000000000099
 31
0.0
  0
LINE
  5
A67
330
1F
100
AcDbEntity
  8
slots
100
AcDbLine
 10
73.49999999999706
 20
-20.50000000000006
 30
0.0
 11
73.49999999999704
 21
-7.500000000000064
 31
0.0
  0
ARC
  5
A69
330
1F
100
AcDbEntity
  8
slots
100
AcDbCircle
 10
75.99999999999704
 20
-7.500000000000064
 30
0.0
 40
2.499999999999999
100
AcDbArc
 50
90.0
 51
180.0
  0
ARC
  5
A6C
330
1F
100
AcDbEntity
  8
slots
100
AcDbCircle
 10
75.99999999999706
 20
-20.50000000000006
 30
0.0
 40
2.5
100
AcDbArc
 50
180.0
 51
270.0
  0
LINE
  5
A71
330
1F
100
AcDbEntity
  8
slots
100
AcDbLine
 10
3.999999999997058
 20
-65.00000000000007
 30
0.0
 11
31.99999999999704
 21
-65.0000000000001
 31
0.0
  0
LINE
  5
A72
330
1F
100
AcDbEntity
  8
slots
100
AcDbLine
 10
3.999999999997047
 20
-47.00000000000007
 30
0.0
 11
31.99999999999705
 21
-47.0000000000001
 31
0.0
  0
LINE
  5
A73
330
1F
100
AcDbEntity
  8
slots
100
AcDbLine
 10
1.499999999997058
 20
-62.50000000000007
 30
0.0
 11
1.499999999997044
 21
-49.50000000000007
 31
0.0
  0
LINE
  5
A74
330
1F
100
AcDbEntity
  8
slots
100
AcDbLine
 10
34.49999999999704
 20
-62.5000000000001
 30
0.0
 11
34.49999999999704
 21
-49.5000000000001
 31
0.0
  0
ARC
  5
A75
330
1F
100
AcDbEntity
  8
slots
100
AcDbCircle
 10
3.999999999997043
 20
-49.50000000000007
 30
0.0
 40
2.499999999999999
100
AcDbArc
 50
89.9999999999999
 51
180.0
  0
ARC
  5
A76
330
1F
100
AcDbEntity
  8
slots
100
AcDbCircle
 10
31.99999999999705
 20
-49.5000000000001
 30
0.0
 40
2.5
100
AcDbArc
 50
0.0
 51
89.99999999999991
  0
ARC
  5
A77
330
1F
100
AcDbEntity
  8
slots
100
AcDbCircle
 10
31.99999999999704
 20
-62.5000000000001
 30
0.0
 40
2.499999999999999
100
AcDbArc
 50
269.9999999999999
 51
0.0
  0
ARC
  5
A78
330
1F
100
AcDbEntity
  8
slots
100
AcDbCircle
 10
3.999999999997058
 20
-62.50000000000007
 30
0.0
 40
2.5
100
AcDbArc
 50
180.0
 51
269.9999999999999
  0
LINE
  5
A79
330
1F
100
AcDbEntity
  8
slots
100
AcDbLine
 10
39.99999999999706
 20
-65.00000000000007
 30
0.0
 11
67.99999999999704
 21
-65.0000000000001
 31
0.0
  0
LINE
  5
A7A
330
1F
100
AcDbEntity
  8
slots
100
AcDbLine
 10
39.99999999999704
 20
-47.00000000000007
 30
0.0
 11
67.99999999999704
 21
-47.0000000000001
 31
0.0
  0
LINE
  5
A7B
330
1F
100
AcDbEntity
  8
slots
100
AcDbLine
 10
37.49999999999706
 20
-62.50000000000007
 30
0.0
 11
37.49999999999704
 21
-49.50000000000007
 31
0.0
  0
LINE
  5
A7C
330
1F
100
AcDbEntity
  8
slots
100
AcDbLine
 10
70.49999999999704
 20
-62.5000000000001
 30
0.0
 11
70.49999999999704
 21
-49.5000000000001
 31
0.0
  0
ARC
  5
A7D
330
1F
100
AcDbEntity
  8
slots
100
AcDbCircle
 10
39.99999999999704
 20
-49.50000000000007
 30
0.0
 40
2.499999999999999
100
AcDbArc
 50
90.0
 51
180.0
  0
ARC
  5
A7E
330
1F
100
AcDbEntity
  8
slots
100
AcDbCircle
 10
67.99999999999704
 20
-49.5000000000001
 30
0.0
 40
2.5
100
AcDbArc
 50
0.0
 51
90.0
  0
ARC
  5
A7F
330
1F
100
AcDbEntity
  8
slots
100
AcDbCircle
 10
67.99999999999704
 20
-62.5000000000001
 30
0.0
 40
2.499999999999999
100
AcDbArc
 50
270.0
 51
0.0
  0
ARC
  5
A80
330
1F
100
AcDbEntity
  8
slots
100
AcDbCircle
 10
39.99999999999706
 20
-62.50000000000007
 30
0.0
 40
2.5
100
AcDbArc
 50
180.0
 51
269.9999999999998
  0
LINE
  5
A81
330
1F
100
AcDbEntity
  8
slots
100
AcDbLine
 10
75.99999999999706
 20
-65.00000000000007
 30
0.0
 11
103.999999999997
 21
-65.0000000000001
 31
0.0
  0
LINE
  5
A82
330
1F
100
AcDbEntity
  8
slots
100
AcDbLine
 10
75.99999999999704
 20
-47.00000000000007
 30
0.0
 11
103.999999999997
 21
-47.0000000000001
 31
0.0
  0
LINE
  5
A83
330
1F
100
AcDbEntity
  8
slots
100
AcDbLine
 10
73.49999999999706
 20
-62.50000000000007
 30
0.0
 11
73.49999999999704
 21
-49.50000000000007
 31
0.0
  0
ARC
  5
A85
330
1F
100
AcDbEntity
  8
slots
100
AcDbCircle
 10
75.99999999999704
 20
-49.50000000000007
 30
0.0
 40
2.499999999999999
100
AcDbArc
 50
90.0
 51
180.0
  0
ARC
  5
A88
330
1F
100
AcDbEntity
  8
slots
100
AcDbCircle
 10
75.99999999999706
 20
-62.50000000000007
 30
0.0
 40
2.5
100
AcDbArc
 50
180.0
 51
270.0
  0
LINE
  5
A89
330
1F
100
AcDbEntity
  8
slots
100
AcDbLine
 10
106.499999999997
 20
-62.50000000000009
 30
0.0
 11
106.499999999997
 21
-49.5000000000001
 31
0.0
  0
ARC
  5
A8A
330
1F
100
AcDbEntity
  8
slots
100
AcDbCircle
 10
103.999999999997
 20
-49.5000000000001
 30
0.0
 40
2.5
100
AcDbArc
 50
0.0
 51
90.0
  0
ARC
  5
A8B
330
1F
100
AcDbEntity
  8
slots
100
AcDbCircle
 10
103.999999999997
 20
-62.50000000000009
 30
0.0
 40
2.499999999999999
100
AcDbArc
 50
270.0
 51
0.0
  0
LINE
  5
A8C
330
1F
100
AcDbEntity
  8
slots
100
AcDbLine
 10
106.499999999997
 20
-41.5000000000001
 30
0.0
 11
106.499999999997
 21
-28.5000000000001
 31
0.0
  0
ARC
  5
A8D
330
1F
100
AcDbEntity
  8
slots
100
AcDbCircle
 10
103.999999999997
 20
-28.5000000000001
 30
0.0
 40
2.5
100
AcDbArc
 50
0.0
 51
90.0
  0
ARC
  5
A8E
330
1F
100
AcDbEntity
  8
slots
100
AcDbCircle
 10
103.999999999997
 20
-41.5000000000001
 30
0.0
 40
2.499999999999999
100
AcDbArc
 50
270.0
 51
0.0
  0
LINE
  5
A8F
330
1F
100
AcDbEntity
  8
slots
100
AcDbLine
 10
106.499999999997
 20
-20.50000000000009
 30
0.0
 11
106.499999999997
 21
-7.500000000000099
 31
0.0
  0
ARC
  5
A90
330
1F
100
AcDbEntity
  8
slots
100
AcDbCircle
 10
103.999999999997
 20
-7.500000000000099
 30
0.0
 40
2.5
100
AcDbArc
 50
0.0
 51
90.0
  0
ARC
  5
A91
330
1F
100
AcDbEntity
  8
slots
100
AcDbCircle
 10
103.999999999997
 20
-20.50000000000009
 30
0.0
 40
2.499999999999999
100
AcDbArc
 50
270.0
 51
0.0
  0
LINE
  5
A92
330
1F
100
AcDbEntity
  8
slots
100
AcDbLine
 10
-4.000000000003314
 20
-2.000000000000055
 30
0.0
 11
-32.0000000000033
 21
-2.000000000000087
 31
0.0
  0
LINE
  5
A93
330
1F
100
AcDbEntity
  8
slots
100
AcDbLine
 10
-4.000000000003303
 20
15.99999999999994
 30
0.0
 11
-32.0000000000033
 21
15.99999999999991
 31
0.0
  0
LINE
  5
A94
330
1F
100
AcDbEntity
  8
slots
100
AcDbLine
 10
-0.0000000000032999
 20
-2.00000000000005
 30
0.0
 11
-0.0000000000032999
 21
46.79208361552598
 31
0.0
  0
LINE
  5
A95
330
1F
100
AcDbEntity
  8
slots
100
AcDbLine
 10
-1.500000000003314
 20
0.4999999999999456
 30
0.0
 11
-1.5000000000033
 21
13.49999999999994
 31
0.0
  0
LINE
  5
A96
330
1F
100
AcDbEntity
  8
slots
100
AcDbLine
 10
-34.5000000000033
 20
0.4999999999999125
 30
0.0
 11
-34.5000000000033
 21
13.49999999999991
 31
0.0
  0
ARC
  5
A97
330
1F
100
AcDbEntity
  8
slots
100
AcDbCircle
 10
-4.000000000003299
 20
13.49999999999994
 30
0.0
 40
2.499999999999999
100
AcDbArc
 50
0.0
 51
90.0000000000001
  0
ARC
  5
A98
330
1F
100
AcDbEntity
  8
slots
100
AcDbCircle
 10
-32.0000000000033
 20
13.49999999999991
 30
0.0
 40
2.5
100
AcDbArc
 50
90.0
 51
180.0
  0
ARC
  5
A99
330
1F
100
AcDbEntity
  8
slots
100
AcDbCircle
 10
-32.0000000000033
 20
0.4999999999999116
 30
0.0
 40
2.499999999999999
100
AcDbArc
 50
180.0
 51
270.0
  0
ARC
  5
A9A
330
1F
100
AcDbEntity
  8
slots
100
AcDbCircle
 10
-4.000000000003314
 20
0.4999999999999456
 30
0.0
 40
2.5
100
AcDbArc
 50
270.0000000000001
 51
0.0000000000000076
  0
LINE
  5
A9B
330
1F
100
AcDbEntity
  8
slots
100
AcDbLine
 10
-40.00000000000331
 20
-2.000000000000055
 30
0.0
 11
-68.0000000000033
 21
-2.000000000000087
 31
0.0
  0
LINE
  5
A9C
330
1F
100
AcDbEntity
  8
slots
100
AcDbLine
 10
-40.0000000000033
 20
15.99999999999994
 30
0.0
 11
-68.0000000000033
 21
15.99999999999991
 31
0.0
  0
LINE
  5
A9D
330
1F
100
AcDbEntity
  8
slots
100
AcDbLine
 10
-37.50000000000331
 20
0.4999999999999456
 30
0.0
 11
-37.5000000000033
 21
13.49999999999994
 31
0.0
  0
LINE
  5
A9E
330
1F
100
AcDbEntity
  8
slots
100
AcDbLine
 10
-70.5000000000033
 20
0.4999999999999125
 30
0.0
 11
-70.5000000000033
 21
13.49999999999991
 31
0.0
  0
ARC
  5
A9F
330
1F
100
AcDbEntity
  8
slots
100
AcDbCircle
 10
-40.0000000000033
 20
13.49999999999994
 30
0.0
 40
2.499999999999999
100
AcDbArc
 50
0.0
 51
90.0
  0
ARC
  5
AA0
330
1F
100
AcDbEntity
  8
slots
100
AcDbCircle
 10
-68.0000000000033
 20
13.49999999999991
 30
0.0
 40
2.5
100
AcDbArc
 50
90.0
 51
180.0
  0
ARC
  5
AA1
330
1F
100
AcDbEntity
  8
slots
100
AcDbCircle
 10
-68.0000000000033
 20
0.4999999999999116
 30
0.0
 40
2.499999999999999
100
AcDbArc
 50
180.0
 51
270.0
  0
ARC
  5
AA2
330
1F
100
AcDbEntity
  8
slots
100
AcDbCircle
 10
-40.00000000000331
 20
0.4999999999999456
 30
0.0
 40
2.5
100
AcDbArc
 50
270.0000000000002
 51
0.0000000000000076
  0
LINE
  5
AA3
330
1F
100
AcDbEntity
  8
slots
100
AcDbLine
 10
-76.00000000000331
 20
-2.000000000000055
 30
0.0
 11
-104.0000000000033
 21
-2.000000000000087
 31
0.0
  0
LINE
  5
AA4
330
1F
100
AcDbEntity
  8
slots
100
AcDbLine
 10
-76.0000000000033
 20
15.99999999999994
 30
0.0
 11
-104.0000000000033
 21
15.99999999999991
 31
0.0
  0
LINE
  5
AA5
330
1F
100
AcDbEntity
  8
slots
100
AcDbLine
 10
-73.50000000000331
 20
0.4999999999999456
 30
0.0
 11
-73.5000000000033
 21
13.49999999999994
 31
0.0
  0
LINE
  5
AA6
330
1F
100
AcDbEntity
  8
slots
100
AcDbLine
 10
-106.5000000000033
 20
0.4999999999999125
 30
0.0
 11
-106.5000000000033
 21
13.49999999999991
 31
0.0
  0
ARC
  5
AA7
330
1F
100
AcDbEntity
  8
slots
100
AcDbCircle
 10
-76.0000000000033
 20
13.49999999999994
 30
0.0
 40
2.499999999999999
100
AcDbArc
 50
0.0
 51
90.0
  0
ARC
  5
AA8
330
1F
100
AcDbEntity
  8
slots
100
AcDbCircle
 10
-104.0000000000033
 20
13.49999999999991
 30
0.0
 40
2.5
100
AcDbArc
 50
90.0
 51
180.0
  0
ARC
  5
AA9
330
1F
100
AcDbEntity
  8
slots
100
AcDbCircle
 10
-104.0000000000033
 20
0.4999999999999116
 30
0.0
 40
2.499999999999999
100
AcDbArc
 50
180.0
 51
270.0
  0
ARC
  5
AAA
330
1F
100
AcDbEntity
  8
slots
100
AcDbCircle
 10
-76.00000000000331
 20
0.4999999999999456
 30
0.0
 40
2.5
100
AcDbArc
 50
270.0
 51
0.0000000000000076
  0
LINE
  5
AAB
330
1F
100
AcDbEntity
  8
slots
100
AcDbLine
 10
-4.000000000003314
 20
18.99999999999995
 30
0.0
 11
-32.0000000000033
 21
18.99999999999991
 31
0.0
  0
LINE
  5
AAC
330
1F
100
AcDbEntity
  8
slots
100
AcDbLine
 10
-4.000000000003303
 20
36.99999999999994
 30
0.0
 11
-32.0000000000033
 21
36.99999999999991
 31
0.0
  0
LINE
  5
AAD
330
1F
100
AcDbEntity
  8
slots
100
AcDbLine
 10
-1.500000000003314
 20
21.49999999999995
 30
0.0
 11
-1.5000000000033
 21
34.49999999999994
 31
0.0
  0
LINE
  5
AAE
330
1F
100
AcDbEntity
  8
slots
100
AcDbLine
 10
-34.5000000000033
 20
21.49999999999991
 30
0.0
 11
-34.5000000000033
 21
34.49999999999991
 31
0.0
  0
ARC
  5
AAF
330
1F
100
AcDbEntity
  8
slots
100
AcDbCircle
 10
-4.000000000003299
 20
34.49999999999994
 30
0.0
 40
2.499999999999999
100
AcDbArc
 50
0.0
 51
90.0000000000001
  0
ARC
  5
AB0
330
1F
100
AcDbEntity
  8
slots
100
AcDbCircle
 10
-32.0000000000033
 20
34.49999999999991
 30
0.0
 40
2.5
100
AcDbArc
 50
90.0
 51
180.0
  0
ARC
  5
AB1
330
1F
100
AcDbEntity
  8
slots
100
AcDbCircle
 10
-32.0000000000033
 20
21.49999999999991
 30
0.0
 40
2.499999999999999
100
AcDbArc
 50
180.0
 51
270.0
  0
ARC
  5
AB2
330
1F
100
AcDbEntity
  8
slots
100
AcDbCircle
 10
-4.000000000003314
 20
21.49999999999995
 30
0.0
 40
2.5
100
AcDbArc
 50
270.0000000000001
 51
0.0
  0
LINE
  5
AB3
330
1F
100
AcDbEntity
  8
slots
100
AcDbLine
 10
-40.00000000000331
 20
18.99999999999995
 30
0.0
 11
-68.0000000000033
 21
18.99999999999991
 31
0.0
  0
LINE
  5
AB4
330
1F
100
AcDbEntity
  8
slots
100
AcDbLine
 10
-40.0000000000033
 20
36.99999999999994
 30
0.0
 11
-68.0000000000033
 21
36.99999999999991
 31
0.0
  0
LINE
  5
AB5
330
1F
100
AcDbEntity
  8
slots
100
AcDbLine
 10
-37.50000000000331
 20
21.49999999999995
 30
0.0
 11
-37.5000000000033
 21
34.49999999999994
 31
0.0
  0
LINE
  5
AB6
330
1F
100
AcDbEntity
  8
slots
100
AcDbLine
 10
-70.5000000000033
 20
21.49999999999991
 30
0.0
 11
-70.5000000000033
 21
34.49999999999991
 31
0.0
  0
ARC
  5
AB7
330
1F
100
AcDbEntity
  8
slots
100
AcDbCircle
 10
-40.0000000000033
 20
34.49999999999994
 30
0.0
 40
2.499999999999999
100
AcDbArc
 50
0.0
 51
90.0
  0
ARC
  5
AB8
330
1F
100
AcDbEntity
  8
slots
100
AcDbCircle
 10
-68.0000000000033
 20
34.49999999999991
 30
0.0
 40
2.5
100
AcDbArc
 50
90.0
 51
180.0
  0
ARC
  5
AB9
330
1F
100
AcDbEntity
  8
slots
100
AcDbCircle
 10
-68.0000000000033
 20
21.49999999999991
 30
0.0
 40
2.499999999999999
100
AcDbArc
 50
180.0
 51
270.0
  0
ARC
  5
ABA
330
1F
100
AcDbEntity
  8
slots
100
AcDbCircle
 10
-40.00000000000331
 20
21.49999999999995
 30
0.0
 40
2.5
100
AcDbArc
 50
270.0000000000002
 51
0.0
  0
LINE
  5
ABB
330
1F
100
AcDbEntity
  8
slots
100
AcDbLine
 10
-76.00000000000331
 20
18.99999999999995
 30
0.0
 11
-104.0000000000033
 21
18.99999999999991
 31
0.0
  0
LINE
  5
ABC
330
1F
100
AcDbEntity
  8
slots
100
AcDbLine
 10
-76.0000000000033
 20
36.99999999999994
 30
0.0
 11
-104.0000000000033
 21
36.99999999999991
 31
0.0
  0
LINE
  5
ABD
330
1F
100
AcDbEntity
  8
slots
100
AcDbLine
 10
-73.50000000000331
 20
21.49999999999995
 30
0.0
 11
-73.5000000000033
 21
34.49999999999994
 31
0.0
  0
LINE
  5
ABE
330
1F
100
AcDbEntity
  8
slots
100
AcDbLine
 10
-106.5000000000033
 20
21.49999999999991
 30
0.0
 11
-106.5000000000033
 21
34.49999999999991
 31
0.0
  0
ARC
  5
ABF
330
1F
100
AcDbEntity
  8
slots
100
AcDbCircle
 10
-76.0000000000033
 20
34.49999999999994
 30
0.0
 40
2.499999999999999
100
AcDbArc
 50
0.0
 51
90.0
  0
ARC
  5
AC0
330
1F
100
AcDbEntity
  8
slots
100
AcDbCircle
 10
-104.0000000000033
 20
34.49999999999991
 30
0.0
 40
2.5
100
AcDbArc
 50
90.0
 51
180.0
  0
ARC
  5
AC1
330
1F
100
AcDbEntity
  8
slots
100
AcDbCircle
 10
-104.0000000000033
 20
21.49999999999991
 30
0.0
 40
2.499999999999999
100
AcDbArc
 50
180.0
 51
270.0
  0
ARC
  5
AC2
330
1F
100
AcDbEntity
  8
slots
100
AcDbCircle
 10
-76.00000000000331
 20
21.49999999999995
 30
0.0
 40
2.5
100
AcDbArc
 50
270.0
 51
0.0
  0
LINE
  5
AD3
330
1F
100
AcDbEntity
  8
slots
100
AcDbLine
 10
67.99999999999704
 20
39.99999999999991
 30
0.0
 11
-104.0000000000033
 21
39.99999999999991
 31
0.0
  0
LINE
  5
AD4
330
1F
100
AcDbEntity
  8
slots
100
AcDbLine
 10
67.99999999999704
 20
57.99999999999991
 30
0.0
 11
-104.0000000000033
 21
57.99999999999991
 31
0.0
  0
LINE
  5
AD6
330
1F
100
AcDbEntity
  8
slots
100
AcDbLine
 10
-106.5000000000033
 20
42.49999999999991
 30
0.0
 11
-106.5000000000033
 21
55.49999999999991
 31
0.0
  0
ARC
  5
AD8
330
1F
100
AcDbEntity
  8
slots
100
AcDbCircle
 10
-104.0000000000033
 20
55.49999999999991
 30
0.0
 40
2.5
100
AcDbArc
 50
90.0
 51
180.0
  0
ARC
  5
AD9
330
1F
100
AcDbEntity
  8
slots
100
AcDbCircle
 10
-104.0000000000033
 20
42.49999999999991
 30
0.0
 40
2.499999999999999
100
AcDbArc
 50
180.0
 51
270.0
  0
LINE
  5
ADB
330
1F
100
AcDbEntity
  8
slots
100
AcDbLine
 10
-4.000000000003314
 20
-44.00000000000006
 30
0.0
 11
-32.0000000000033
 21
-44.00000000000009
 31
0.0
  0
LINE
  5
ADC
330
1F
100
AcDbEntity
  8
slots
100
AcDbLine
 10
-4.000000000003303
 20
-26.00000000000007
 30
0.0
 11
-32.0000000000033
 21
-26.0000000000001
 31
0.0
  0
LINE
  5
ADD
330
1F
100
AcDbEntity
  8
slots
100
AcDbLine
 10
-1.500000000003314
 20
-41.50000000000006
 30
0.0
 11
-1.5000000000033
 21
-28.50000000000007
 31
0.0
  0
LINE
  5
ADE
330
1F
100
AcDbEntity
  8
slots
100
AcDbLine
 10
-34.5000000000033
 20
-41.50000000000009
 30
0.0
 11
-34.5000000000033
 21
-28.5000000000001
 31
0.0
  0
ARC
  5
ADF
330
1F
100
AcDbEntity
  8
slots
100
AcDbCircle
 10
-4.000000000003299
 20
-28.50000000000007
 30
0.0
 40
2.499999999999999
100
AcDbArc
 50
0.0
 51
90.0000000000001
  0
ARC
  5
AE0
330
1F
100
AcDbEntity
  8
slots
100
AcDbCircle
 10
-32.0000000000033
 20
-28.5000000000001
 30
0.0
 40
2.5
100
AcDbArc
 50
90.0
 51
180.0
  0
ARC
  5
AE1
330
1F
100
AcDbEntity
  8
slots
100
AcDbCircle
 10
-32.0000000000033
 20
-41.50000000000009
 30
0.0
 40
2.499999999999999
100
AcDbArc
 50
180.0
 51
270.0
  0
ARC
  5
AE2
330
1F
100
AcDbEntity
  8
slots
100
AcDbCircle
 10
-4.000000000003314
 20
-41.50000000000006
 30
0.0
 40
2.5
100
AcDbArc
 50
270.0000000000001
 51
0.0
  0
LINE
  5
AE3
330
1F
100
AcDbEntity
  8
slots
100
AcDbLine
 10
-40.00000000000331
 20
-44.00000000000006
 30
0.0
 11
-68.0000000000033
 21
-44.00000000000009
 31
0.0
  0
LINE
  5
AE4
330
1F
100
AcDbEntity
  8
slots
100
AcDbLine
 10
-40.0000000000033
 20
-26.00000000000007
 30
0.0
 11
-68.0000000000033
 21
-26.0000000000001
 31
0.0
  0
LINE
  5
AE5
330
1F
100
AcDbEntity
  8
slots
100
AcDbLine
 10
-37.50000000000331
 20
-41.50000000000006
 30
0.0
 11
-37.5000000000033
 21
-28.50000000000007
 31
0.0
  0
LINE
  5
AE6
330
1F
100
AcDbEntity
  8
slots
100
AcDbLine
 10
-70.5000000000033
 20
-41.50000000000009
 30
0.0
 11
-70.5000000000033
 21
-28.5000000000001
 31
0.0
  0
ARC
  5
AE7
330
1F
100
AcDbEntity
  8
slots
100
AcDbCircle
 10
-40.0000000000033
 20
-28.50000000000007
 30
0.0
 40
2.499999999999999
100
AcDbArc
 50
0.0
 51
90.0
  0
ARC
  5
AE8
330
1F
100
AcDbEntity
  8
slots
100
AcDbCircle
 10
-68.0000000000033
 20
-28.5000000000001
 30
0.0
 40
2.5
100
AcDbArc
 50
90.0
 51
180.0
  0
ARC
  5
AE9
330
1F
100
AcDbEntity
  8
slots
100
AcDbCircle
 10
-68.0000000000033
 20
-41.50000000000009
 30
0.0
 40
2.499999999999999
100
AcDbArc
 50
180.0
 51
270.0
  0
ARC
  5
AEA
330
1F
100
AcDbEntity
  8
slots
100
AcDbCircle
 10
-40.00000000000331
 20
-41.50000000000006
 30
0.0
 40
2.5
100
AcDbArc
 50
270.0000000000002
 51
0.0
  0
LINE
  5
AEB
330
1F
100
AcDbEntity
  8
slots
100
AcDbLine
 10
-76.00000000000331
 20
-44.00000000000006
 30
0.0
 11
-104.0000000000033
 21
-44.00000000000009
 31
0.0
  0
LINE
  5
AEC
330
1F
100
AcDbEntity
  8
slots
100
AcDbLine
 10
-76.0000000000033
 20
-26.00000000000007
 30
0.0
 11
-104.0000000000033
 21
-26.0000000000001
 31
0.0
  0
LINE
  5
AED
330
1F
100
AcDbEntity
  8
slots
100
AcDbLine
 10
-73.50000000000331
 20
-41.50000000000006
 30
0.0
 11
-73.5000000000033
 21
-28.50000000000007
 31
0.0
  0
ARC
  5
AEE
330
1F
100
AcDbEntity
  8
slots
100
AcDbCircle
 10
-76.0000000000033
 20
-28.50000000000007
 30
0.0
 40
2.499999999999999
100
AcDbArc
 50
0.0
 51
90.0
  0
ARC
  5
AEF
330
1F
100
AcDbEntity
  8
slots
100
AcDbCircle
 10
-76.00000000000331
 20
-41.50000000000006
 30
0.0
 40
2.5
100
AcDbArc
 50
270.0
 51
0.0
  0
LINE
  5
AF0
330
1F
100
AcDbEntity
  8
slots
100
AcDbLine
 10
-4.000000000003314
 20
-23.00000000000006
 30
0.0
 11
-32.0000000000033
 21
-23.0000000000001
 31
0.0
  0
LINE
  5
AF1
330
1F
100
AcDbEntity
  8
slots
100
AcDbLine
 10
-4.000000000003303
 20
-5.000000000000064
 30
0.0
 11
-32.0000000000033
 21
-5.000000000000099
 31
0.0
  0
LINE
  5
AF2
330
1F
100
AcDbEntity
  8
slots
100
AcDbLine
 10
-1.500000000003314
 20
-20.50000000000006
 30
0.0
 11
-1.5000000000033
 21
-7.500000000000064
 31
0.0
  0
LINE
  5
AF3
330
1F
100
AcDbEntity
  8
slots
100
AcDbLine
 10
-34.5000000000033
 20
-20.5000000000001
 30
0.0
 11
-34.5000000000033
 21
-7.500000000000099
 31
0.0
  0
ARC
  5
AF4
330
1F
100
AcDbEntity
  8
slots
100
AcDbCircle
 10
-4.000000000003299
 20
-7.500000000000064
 30
0.0
 40
2.499999999999999
100
AcDbArc
 50
0.0
 51
90.0000000000001
  0
ARC
  5
AF5
330
1F
100
AcDbEntity
  8
slots
100
AcDbCircle
 10
-32.0000000000033
 20
-7.500000000000099
 30
0.0
 40
2.5
100
AcDbArc
 50
90.0
 51
180.0
  0
ARC
  5
AF6
330
1F
100
AcDbEntity
  8
slots
100
AcDbCircle
 10
-32.0000000000033
 20
-20.5000000000001
 30
0.0
 40
2.499999999999999
100
AcDbArc
 50
180.0
 51
270.0
  0
ARC
  5
AF7
330
1F
100
AcDbEntity
  8
slots
100
AcDbCircle
 10
-4.000000000003314
 20
-20.50000000000006
 30
0.0
 40
2.5
100
AcDbArc
 50
270.0000000000001
 51
0.0
  0
LINE
  5
AF8
330
1F
100
AcDbEntity
  8
slots
100
AcDbLine
 10
-40.00000000000331
 20
-23.00000000000006
 30
0.0
 11
-68.0000000000033
 21
-23.0000000000001
 31
0.0
  0
LINE
  5
AF9
330
1F
100
AcDbEntity
  8
slots
100
AcDbLine
 10
-40.0000000000033
 20
-5.000000000000064
 30
0.0
 11
-68.0000000000033
 21
-5.000000000000099
 31
0.0
  0
LINE
  5
AFA
330
1F
100
AcDbEntity
  8
slots
100
AcDbLine
 10
-37.50000000000331
 20
-20.50000000000006
 30
0.0
 11
-37.5000000000033
 21
-7.500000000000064
 31
0.0
  0
LINE
  5
AFB
330
1F
100
AcDbEntity
  8
slots
100
AcDbLine
 10
-70.5000000000033
 20
-20.5000000000001
 30
0.0
 11
-70.5000000000033
 21
-7.500000000000099
 31
0.0
  0
ARC
  5
AFC
330
1F
100
AcDbEntity
  8
slots
100
AcDbCircle
 10
-40.0000000000033
 20
-7.500000000000064
 30
0.0
 40
2.499999999999999
100
AcDbArc
 50
0.0
 51
90.0
  0
ARC
  5
AFD
330
1F
100
AcDbEntity
  8
slots
100
AcDbCircle
 10
-68.0000000000033
 20
-7.500000000000099
 30
0.0
 40
2.5
100
AcDbArc
 50
90.0
 51
180.0
  0
ARC
  5
AFE
330
1F
100
AcDbEntity
  8
slots
100
AcDbCircle
 10
-68.0000000000033
 20
-20.5000000000001
 30
0.0
 40
2.499999999999999
100
AcDbArc
 50
180.0
 51
270.0
  0
ARC
  5
AFF
330
1F
100
AcDbEntity
  8
slots
100
AcDbCircle
 10
-40.00000000000331
 20
-20.50000000000006
 30
0.0
 40
2.5
100
AcDbArc
 50
270.0000000000002
 51
0.0
  0
LINE
  5
B00
330
1F
100
AcDbEntity
  8
slots
100
AcDbLine
 10
-76.00000000000331
 20
-23.00000000000006
 30
0.0
 11
-104.0000000000033
 21
-23.0000000000001
 31
0.0
  0
LINE
  5
B01
330
1F
100
AcDbEntity
  8
slots
100
AcDbLine
 10
-76.0000000000033
 20
-5.000000000000064
 30
0.0
 11
-104.0000000000033
 21
-5.000000000000099
 31
0.0
  0
LINE
  5
B02
330
1F
100
AcDbEntity
  8
slots
100
AcDbLine
 10
-73.50000000000331
 20
-20.50000000000006
 30
0.0
 11
-73.5000000000033
 21
-7.500000000000064
 31
0.0
  0
ARC
  5
B03
330
1F
100
AcDbEntity
  8
slots
100
AcDbCircle
 10
-76.0000000000033
 20
-7.500000000000064
 30
0.0
 40
2.499999999999999
100
AcDbArc
 50
0.0
 51
90.0
  0
ARC
  5
B04
330
1F
100
AcDbEntity
  8
slots
100
AcDbCircle
 10
-76.00000000000331
 20
-20.50000000000006
 30
0.0
 40
2.5
100
AcDbArc
 50
270.0
 51
0.0
  0
LINE
  5
B05
330
1F
100
AcDbEntity
  8
slots
100
AcDbLine
 10
-4.000000000003314
 20
-65.00000000000007
 30
0.0
 11
-32.0000000000033
 21
-65.0000000000001
 31
0.0
  0
LINE
  5
B06
330
1F
100
AcDbEntity
  8
slots
100
AcDbLine
 10
-4.000000000003303
 20
-47.00000000000007
 30
0.0
 11
-32.0000000000033
 21
-47.0000000000001
 31
0.0
  0
LINE
  5
B07
330
1F
100
AcDbEntity
  8
slots
100
AcDbLine
 10
-1.500000000003314
 20
-62.50000000000007
 30
0.0
 11
-1.5000000000033
 21
-49.50000000000007
 31
0.0
  0
LINE
  5
B08
330
1F
100
AcDbEntity
  8
slots
100
AcDbLine
 10
-34.5000000000033
 20
-62.5000000000001
 30
0.0
 11
-34.5000000000033
 21
-49.5000000000001
 31
0.0
  0
ARC
  5
B09
330
1F
100
AcDbEntity
  8
slots
100
AcDbCircle
 10
-4.000000000003299
 20
-49.50000000000007
 30
0.0
 40
2.499999999999999
100
AcDbArc
 50
0.0
 51
90.0000000000001
  0
ARC
  5
B0A
330
1F
100
AcDbEntity
  8
slots
100
AcDbCircle
 10
-32.0000000000033
 20
-49.5000000000001
 30
0.0
 40
2.5
100
AcDbArc
 50
90.0
 51
180.0
  0
ARC
  5
B0B
330
1F
100
AcDbEntity
  8
slots
100
AcDbCircle
 10
-32.0000000000033
 20
-62.5000000000001
 30
0.0
 40
2.499999999999999
100
AcDbArc
 50
180.0
 51
270.0
  0
ARC
  5
B0C
330
1F
100
AcDbEntity
  8
slots
100
AcDbCircle
 10
-4.000000000003314
 20
-62.50000000000007
 30
0.0
 40
2.5
100
AcDbArc
 50
270.0000000000001
 51
0.0
  0
LINE
  5
B0D
330
1F
100
AcDbEntity
  8
slots
100
AcDbLine
 10
-40.00000000000331
 20
-65.00000000000007
 30
0.0
 11
-68.0000000000033
 21
-65.0000000000001
 31
0.0
  0
LINE
  5
B0E
330
1F
100
AcDbEntity
  8
slots
100
AcDbLine
 10
-40.0000000000033
 20
-47.00000000000007
 30
0.0
 11
-68.0000000000033
 21
-47.0000000000001
 31
0.0
  0
LINE
  5
B0F
330
1F
100
AcDbEntity
  8
slots
100
AcDbLine
 10
-37.50000000000331
 20
-62.50000000000007
 30
0.0
 11
-37.5000000000033
 21
-49.50000000000007
 31
0.0
  0
LINE
  5
B10
330
1F
100
AcDbEntity
  8
slots
100
AcDbLine
 10
-70.5000000000033
 20
-62.5000000000001
 30
0.0
 11
-70.5000000000033
 21
-49.5000000000001
 31
0.0
  0
ARC
  5
B11
330
1F
100
AcDbEntity
  8
slots
100
AcDbCircle
 10
-40.0000000000033
 20
-49.50000000000007
 30
0.0
 40
2.499999999999999
100
AcDbArc
 50
0.0
 51
90.0
  0
ARC
  5
B12
330
1F
100
AcDbEntity
  8
slots
100
AcDbCircle
 10
-68.0000000000033
 20
-49.5000000000001
 30
0.0
 40
2.5
100
AcDbArc
 50
90.0
 51
180.0
  0
ARC
  5
B13
330
1F
100
AcDbEntity
  8
slots
100
AcDbCircle
 10
-68.0000000000033
 20
-62.5000000000001
 30
0.0
 40
2.499999999999999
100
AcDbArc
 50
180.0
 51
270.0
  0
ARC
  5
B14
330
1F
100
AcDbEntity
  8
slots
100
AcDbCircle
 10
-40.00000000000331
 20
-62.50000000000007
 30
0.0
 40
2.5
100
AcDbArc
 50
270.0000000000002
 51
0.0
  0
LINE
  5
B15
330
1F
100
AcDbEntity
  8
slots
100
AcDbLine
 10
-76.00000000000331
 20
-65.00000000000007
 30
0.0
 11
-104.0000000000033
 21
-65.0000000000001
 31
0.0
  0
LINE
  5
B16
330
1F
100
AcDbEntity
  8
slots
100
AcDbLine
 10
-76.0000000000033
 20
-47.00000000000007
 30
0.0
 11
-104.0000000000033
 21
-47.0000000000001
 31
0.0
  0
LINE
  5
B17
330
1F
100
AcDbEntity
  8
slots
100
AcDbLine
 10
-73.50000000000331
 20
-62.50000000000007
 30
0.0
 11
-73.5000000000033
 21
-49.50000000000007
 31
0.0
  0
ARC
  5
B18
330
1F
100
AcDbEntity
  8
slots
100
AcDbCircle
 10
-76.0000000000033
 20
-49.50000000000007
 30
0.0
 40
2.499999999999999
100
AcDbArc
 50
0.0
 51
90.0
  0
ARC
  5
B19
330
1F
100
AcDbEntity
  8
slots
100
AcDbCircle
 10
-76.00000000000331
 20
-62.50000000000007
 30
0.0
 40
2.5
100
AcDbArc
 50
270.0
 51
0.0
  0
LINE
  5
B1A
330
1F
100
AcDbEntity
  8
slots
100
AcDbLine
 10
-106.5000000000033
 20
-62.50000000000009
 30
0.0
 11
-106.5000000000033
 21
-49.5000000000001
 31
0.0
  0
ARC
  5
B1B
330
1F
100
AcDbEntity
  8
slots
100
AcDbCircle
 10
-104.0000000000033
 20
-49.5000000000001
 30
0.0
 40
2.5
100
AcDbArc
 50
90.0
 51
180.0
  0
ARC
  5
B1C
330
1F
100
AcDbEntity
  8
slots
100
AcDbCircle
 10
-104.0000000000033
 20
-62.50000000000009
 30
0.0
 40
2.499999999999999
100
AcDbArc
 50
180.0
 51
270.0
  0
LINE
  5
B1D
330
1F
100
AcDbEntity
  8
slots
100
AcDbLine
 10
-106.5000000000033
 20
-41.5000000000001
 30
0.0
 11
-106.5000000000033
 21
-28.5000000000001
 31
0.0
  0
ARC
  5
B1E
330
1F
100
AcDbEntity
  8
slots
100
AcDbCircle
 10
-104.0000000000033
 20
-28.5000000000001
 30
0.0
 40
2.5
100
AcDbArc
 50
90.0
 51
180.0
  0
ARC
  5
B1F
330
1F
100
AcDbEntity
  8
slots
100
AcDbCircle
 10
-104.0000000000033
 20
-41.5000000000001
 30
0.0
 40
2.499999999999999
100
AcDbArc
 50
180.0
 51
270.0
  0
LINE
  5
B20
330
1F
100
AcDbEntity
  8
slots
100
AcDbLine
 10
-106.5000000000033
 20
-20.50000000000009
 30
0.0
 11
-106.5000000000033
 21
-7.500000000000099
 31
0.0
  0
ARC
  5
B21
330
1F
100
AcDbEntity
  8
slots
100
AcDbCircle
 10
-104.0000000000033
 20
-7.500000000000099
 30
0.0
 40
2.5
100
AcDbArc
 50
90.0
 51
180.0
  0
ARC
  5
B22
330
1F
100
AcDbEntity
  8
slots
100
AcDbCircle
 10
-104.0000000000033
 20
-20.50000000000009
 30
0.0
 40
2.499999999999999
100
AcDbArc
 50
180.0
 51
270.0
  0
ENDSEC
  0
SECTION
  2
OBJECTS
  0
DICTIONARY
  5
C
330
0
100
AcDbDictionary
281
     1
  3
ACAD_DETAILVIEWSTYLE
350
129
  3
ACAD_GROUP
350
D
  3
ACAD_IMAGE_VARS
350
F4
  3
ACAD_LAYOUT
350
1A
  3
ACAD_MATERIAL
350
9C3
  3
ACAD_MLEADERSTYLE
350
9C9
  3
ACAD_MLINESTYLE
350
17
  3
ACAD_PLOTSETTINGS
350
19
  3
ACAD_PLOTSTYLENAME
350
E
  3
ACAD_SCALELIST
350
47
  3
ACAD_SECTIONVIEWSTYLE
350
12A
  3
ACAD_TABLESTYLE
350
9C7
  3
ACAD_VISUALSTYLE
350
9AA
  3
ACDB_RECOMPOSE_DATA
350
B28
  3
AcDbVariableDictionary
350
124
  3
APPDATA
350
F2
  0
SUN
  5
9CB
330
29
100
AcDbSun
 90
        1
290
     0
 63
     7
421
 16777215
 40
1.0
291
     1
 91
  2455826
 92
 54000000
292
     0
 70
     2
 71
   256
280
     1
  0
DICTIONARY
  5
F5
330
2
100
AcDbDictionary
280
     1
281
     1
  3
ACAD_LAYERSTATES
360
F6
  3
ACLYDICTIONARY
360
9A4
  0
DICTIONARY
  5
129
102
{ACAD_REACTORS
330
C
102
}
330
C
100
AcDbDictionary
281
     1
  0
DICTIONARY
  5
D
102
{ACAD_REACTORS
330
C
102
}
330
C
100
AcDbDictionary
281
     1
  0
RASTERVARIABLES
  5
F4
102
{ACAD_REACTORS
330
C
102
}
330
C
100
AcDbRasterVariables
 90
        0
 70
     1
 71
     1
 72
     1
  0
DICTIONARY
  5
1A
102
{ACAD_REACTORS
330
C
102
}
330
C
100
AcDbDictionary
281
     1
  3
Layout1
350
1E
  3
Layout2
350
26
  3
Model
350
22
  0
DICTIONARY
  5
9C3
102
{ACAD_REACTORS
330
C
102
}
330
C
100
AcDbDictionary
281
     1
  3
ByBlock
350
9C5
  3
ByLayer
350
9C4
  3
Global
350
9C6
  0
DICTIONARY
  5
9C9
102
{ACAD_REACTORS
330
C
102
}
330
C
100
AcDbDictionary
281
     1
  3
Standard
350
9CA
  0
DICTIONARY
  5
17
102
{ACAD_REACTORS
330
C
102
}
330
C
100
AcDbDictionary
281
     1
  3
Standard
350
18
  0
DICTIONARY
  5
19
102
{ACAD_REACTORS
330
C
102
}
330
C
100
AcDbDictionary
281
     1
  0
ACDBDICTIONARYWDFLT
  5
E
102
{ACAD_REACTORS
330
C
102
}
330
C
100
AcDbDictionary
281
     1
  3
Normal
350
F
100
AcDbDictionaryWithDefault
340
F
  0
DICTIONARY
  5
47
102
{ACAD_REACTORS
330
C
102
}
330
C
100
AcDbDictionary
281
     1
  3
A0
350
48
  3
A1
350
49
  3
A2
350
4A
  3
A3
350
4B
  3
A4
350
4C
  3
A5
350
4D
  3
A6
350
4E
  3
A7
350
4F
  3
A8
350
50
  3
A9
350
51
  3
B0
350
52
  3
B1
350
53
  3
B2
350
54
  3
B3
350
55
  3
B4
350
56
  3
B5
350
57
  3
B6
350
58
  3
B7
350
59
  3
B8
350
5A
  3
B9
350
5B
  3
C0
350
5C
  3
C1
350
5D
  3
C2
350
5E
  3
C3
350
5F
  3
C4
350
60
  3
C5
350
61
  3
C6
350
62
  3
C7
350
63
  3
C8
350
64
  3
C9
350
65
  3
D0
350
66
  3
D1
350
67
  3
D2
350
68
  0
DICTIONARY
  5
12A
102
{ACAD_REACTORS
330
C
102
}
330
C
100
AcDbDictionary
281
     1
  0
DICTIONARY
  5
9C7
102
{ACAD_REACTORS
330
C
102
}
330
C
100
AcDbDictionary
281
     1
  3
Standard
350
9C8
  0
DICTIONARY
  5
9AA
102
{ACAD_REACTORS
330
C
102
}
330
C
100
AcDbDictionary
281
     1
  3
2dWireframe
350
9AF
  3
Basic
350
9B2
  3
Brighten
350
9B6
  3
ColorChange
350
9BA
  3
Conceptual
350
9B4
  3
Dim
350
9B5
  3
EdgeColorOff
350
9BD
  3
Facepattern
350
9B9
  3
Flat
350
9AB
  3
FlatWithEdges
350
9AC
  3
Gouraud
350
9AD
  3
GouraudWithEdges
350
9AE
  3
Hidden
350
9B1
  3
JitterOff
350
9BB
  3
Linepattern
350
9B8
  3
OverhangOff
350
9BC
  3
Realistic
350
9B3
  3
Shaded
350
9C2
  3
Shaded with edges
350
9C1
  3
Shades of Gray
350
9BE
  3
Sketchy
350
9BF
  3
Thicken
350
9B7
  3
Wireframe
350
9B0
  3
X-Ray
350
9C0
  0
XRECORD
  5
B28
102
{ACAD_REACTORS
330
C
102
}
330
C
100
AcDbXrecord
280
     1
 90
        1
330
9C8
  0
DICTIONARY
  5
124
102
{ACAD_REACTORS
330
C
102
}
330
C
100
AcDbDictionary
281
     1
  3
CANNOSCALE
350
9CC
  3
CMLEADERSTYLE
350
9D1
  3
CTABLESTYLE
350
9D0
  3
MSLTSCALE
350
9D2
  0
DICTIONARY
  5
F2
102
{ACAD_REACTORS
330
C
102
}
330
C
100
AcDbDictionary
281
     1
  0
DICTIONARY
  5
F6
102
{ACAD_REACTORS
330
F5
102
}
330
F5
100
AcDbDictionary
281
     1
  0
DICTIONARY
  5
9A4
102
{ACAD_REACTORS
330
F5
102
}
330
F5
100
AcDbDictionary
281
     1
1001
ACAD
1000
<All
  0
LAYOUT
  5
1E
102
{ACAD_REACTORS
330
1A
102
}
330
1A
100
AcDbPlotSettings
  1

  2
none_device
  4

  6

 40
0.0
 41
0.0
 42
0.0
 43
0.0
 44
0.0
 45
0.0
 46
0.0
 47
0.0
 48
0.0
 49
0.0
140
0.0
141
0.0
142
1.0
143
1.0
 70
   688
 72
     1
 73
     0
 74
     5
  7

 75
    16
 76
     0
 77
     2
 78
   300
147
1.0
148
0.0
149
0.0
100
AcDbLayout
  1
Layout1
 70
     1
 71
     1
 10
0.0
 20
0.0
 11
420.0
 21
297.0
 12
0.0
 22
0.0
 32
0.0
 14
1.000000000000000E+20
 24
1.000000000000000E+20
 34
1.000000000000000E+20
 15
-1.000000000000000E+20
 25
-1.000000000000000E+20
 35
-1.000000000000000E+20
146
0.0
 13
0.0
 23
0.0
 33
0.0
 16
1.0
 26
0.0
 36
0.0
 17
0.0
 27
1.0
 37
0.0
 76
     0
330
1B
  0
LAYOUT
  5
26
102
{ACAD_REACTORS
330
1A
102
}
330
1A
100
AcDbPlotSettings
  1

  2
none_device
  4

  6

 40
0.0
 41
0.0
 42
0.0
 43
0.0
 44
0.0
 45
0.0
 46
0.0
 47
0.0
 48
0.0
 49
0.0
140
0.0
141
0.0
142
1.0
143
1.0
 70
   688
 72
     1
 73
     0
 74
     5
  7

 75
    16
 76
     0
 77
     2
 78
   300
147
1.0
148
0.0
149
0.0
100
AcDbLayout
  1
Layout2
 70
     1
 71
     2
 10
0.0
 20
0.0
 11
0.0
 21
0.0
 12
0.0
 22
0.0
 32
0.0
 14
0.0
 24
0.0
 34
0.0
 15
0.0
 25
0.0
 35
0.0
146
0.0
 13
0.0
 23
0.0
 33
0.0
 16
1.0
 26
0.0
 36
0.0
 17
0.0
 27
1.0
 37
0.0
 76
     0
330
23
  0
LAYOUT
  5
22
102
{ACAD_REACTORS
330
1A
102
}
330
1A
100
AcDbPlotSettings
  1

  2
none_device
  4
ANSI_A_(11.00_x_8.50_Inches)
  6

 40
6.35
 41
19.05
 42
6.35000508
 43
19.05000254
 44
279.4
 45
215.9
 46
133.34999746
 47
92.5842999595
 48
0.0
 49
0.0
140
0.0
141
0.0
142
0.0446311475
143
1.0
 70
  1696
 72
     0
 73
     0
 74
     0
  7

 75
     0
 76
     0
 77
     2
 78
   300
147
0.0179189148
148
-1300.4909072572
149
0.0
100
AcDbLayout
  1
Model
 70
     1
 71
     0
 10
0.0
 20
0.0
 11
420.0
 21
297.0
 12
0.0
 22
0.0
 32
0.0
 14
-121.9999999999847
 24
-79.50000000004829
 34
0.0
 15
156.9579798062189
 25
130.2353130177738
 35
0.0
146
0.0
 13
0.0
 23
0.0
 33
0.0
 16
1.0
 26
0.0
 36
0.0
 17
0.0
 27
1.0
 37
0.0
 76
     0
330
1F
331
29
  0
MATERIAL
  5
9C5
102
{ACAD_REACTORS
330
9C3
102
}
330
9C3
100
AcDbMaterial
  1
ByBlock
 72
     1
 94
      127
  0
MATERIAL
  5
9C4
102
{ACAD_REACTORS
330
9C3
102
}
330
9C3
100
AcDbMaterial
  1
ByLayer
 72
     1
 94
      127
  0
MATERIAL
  5
9C6
102
{ACAD_REACTORS
330
9C3
102
}
330
9C3
100
AcDbMaterial
  1
Global
 72
     1
 94
      127
  0
MLEADERSTYLE
  5
9CA
102
{ACAD_REACTORS
330
9C9
102
}
330
9C9
100
AcDbMLeaderStyle
179
     2
170
     2
171
     1
172
     0
 90
        2
 40
0.0
 41
0.0
173
     1
 91
-1056964608
340
14
 92
       -2
290
     1
 42
2.0
291
     1
 43
8.0
  3
Standard
341
0
 44
4.0
300

342
11
174
     1
178
     1
175
     1
176
     0
 93
-1056964608
 45
4.0
292
     0
297
     0
 46
4.0
343
0
 94
-1056964608
 47
1.0
 49
1.0
140
1.0
293
     1
141
0.0
294
     1
177
     0
142
1.0
295
     0
296
     0
143
3.75
271
     0
272
     9
273
     9
  0
MLINESTYLE
  5
18
102
{ACAD_REACTORS
330
17
102
}
330
17
100
AcDbMlineStyle
  2
Standard
 70
     0
  3

 62
   256
 51
90.0
 52
90.0
 71
     2
 49
0.5
 62
   256
  6
BYLAYER
 49
-0.5
 62
   256
  6
BYLAYER
  0
ACDBPLACEHOLDER
  5
F
102
{ACAD_REACTORS
330
E
102
}
330
E
  0
SCALE
  5
48
102
{ACAD_REACTORS
330
47
102
}
330
47
100
AcDbScale
 70
     0
300
1:1
140
1.0
141
1.0
290
     1
  0
SCALE
  5
49
102
{ACAD_REACTORS
330
47
102
}
330
47
100
AcDbScale
 70
     0
300
1:2
140
1.0
141
2.0
290
     0
  0
SCALE
  5
4A
102
{ACAD_REACTORS
330
47
102
}
330
47
100
AcDbScale
 70
     0
300
1:4
140
1.0
141
4.0
290
     0
  0
SCALE
  5
4B
102
{ACAD_REACTORS
330
47
102
}
330
47
100
AcDbScale
 70
     0
300
1:5
140
1.0
141
5.0
290
     0
  0
SCALE
  5
4C
102
{ACAD_REACTORS
330
47
102
}
330
47
100
AcDbScale
 70
     0
300
1:8
140
1.0
141
8.0
290
     0
  0
SCALE
  5
4D
102
{ACAD_REACTORS
330
47
102
}
330
47
100
AcDbScale
 70
     0
300
1:10
140
1.0
141
10.0
290
     0
  0
SCALE
  5
4E
102
{ACAD_REACTORS
330
47
102
}
330
47
100
AcDbScale
 70
     0
300
1:16
140
1.0
141
16.0
290
     0
  0
SCALE
  5
4F
102
{ACAD_REACTORS
330
47
102
}
330
47
100
AcDbScale
 70
     0
300
1:20
140
1.0
141
20.0
290
     0
  0
SCALE
  5
50
102
{ACAD_REACTORS
330
47
102
}
330
47
100
AcDbScale
 70
     0
300
1:30
140
1.0
141
30.0
290
     0
  0
SCALE
  5
51
102
{ACAD_REACTORS
330
47
102
}
330
47
100
AcDbScale
 70
     0
300
1:40
140
1.0
141
40.0
290
     0
  0
SCALE
  5
52
102
{ACAD_REACTORS
330
47
102
}
330
47
100
AcDbScale
 70
     0
300
1:50
140
1.0
141
50.0
290
     0
  0
SCALE
  5
53
102
{ACAD_REACTORS
330
47
102
}
330
47
100
AcDbScale
 70
     0
300
1:100
140
1.0
141
100.0
290
     0
  0
SCALE
  5
54
102
{ACAD_REACTORS
330
47
102
}
330
47
100
AcDbScale
 70
     0
300
2:1
140
2.0
141
1.0
290
     0
  0
SCALE
  5
55
102
{ACAD_REACTORS
330
47
102
}
330
47
100
AcDbScale
 70
     0
300
4:1
140
4.0
141
1.0
290
     0
  0
SCALE
  5
56
102
{ACAD_REACTORS
330
47
102
}
330
47
100
AcDbScale
 70
     0
300
8:1
140
8.0
141
1.0
290
     0
  0
SCALE
  5
57
102
{ACAD_REACTORS
330
47
102
}
330
47
100
AcDbScale
 70
     0
300
10:1
140
10.0
141
1.0
290
     0
  0
SCALE
  5
58
102
{ACAD_REACTORS
330
47
102
}
330
47
100
AcDbScale
 70
     0
300
100:1
140
100.0
141
1.0
290
     0
  0
SCALE
  5
59
102
{ACAD_REACTORS
330
47
102
}
330
47
100
AcDbScale
 70
     0
300
1/128" = 1'-0"
140
0.0078125
141
12.0
290
     0
  0
SCALE
  5
5A
102
{ACAD_REACTORS
330
47
102
}
330
47
100
AcDbScale
 70
     0
300
1/64" = 1'-0"
140
0.015625
141
12.0
290
     0
  0
SCALE
  5
5B
102
{ACAD_REACTORS
330
47
102
}
330
47
100
AcDbScale
 70
     0
300
1/32" = 1'-0"
140
0.03125
141
12.0
290
     0
  0
SCALE
  5
5C
102
{ACAD_REACTORS
330
47
102
}
330
47
100
AcDbScale
 70
     0
300
1/16" = 1'-0"
140
0.0625
141
12.0
290
     0
  0
SCALE
  5
5D
102
{ACAD_REACTORS
330
47
102
}
330
47
100
AcDbScale
 70
     0
300
3/32" = 1'-0"
140
0.09375
141
12.0
290
     0
  0
SCALE
  5
5E
102
{ACAD_REACTORS
330
47
102
}
330
47
100
AcDbScale
 70
     0
300
1/8" = 1'-0"
140
0.125
141
12.0
290
     0
  0
SCALE
  5
5F
102
{ACAD_REACTORS
330
47
102
}
330
47
100
AcDbScale
 70
     0
300
3/16" = 1'-0"
140
0.1875
141
12.0
290
     0
  0
SCALE
  5
60
102
{ACAD_REACTORS
330
47
102
}
330
47
100
AcDbScale
 70
     0
300
1/4" = 1'-0"
140
0.25
141
12.0
290
     0
  0
SCALE
  5
61
102
{ACAD_REACTORS
330
47
102
}
330
47
100
AcDbScale
 70
     0
300
3/8" = 1'-0"
140
0.375
141
12.0
290
     0
  0
SCALE
  5
62
102
{ACAD_REACTORS
330
47
102
}
330
47
100
AcDbScale
 70
     0
300
1/2" = 1'-0"
140
0.5
141
12.0
290
     0
  0
SCALE
  5
63
102
{ACAD_REACTORS
330
47
102
}
330
47
100
AcDbScale
 70
     0
300
3/4" = 1'-0"
140
0.75
141
12.0
290
     0
  0
SCALE
  5
64
102
{ACAD_REACTORS
330
47
102
}
330
47
100
AcDbScale
 70
     0
300
1" = 1'-0"
140
1.0
141
12.0
290
     0
  0
SCALE
  5
65
102
{ACAD_REACTORS
330
47
102
}
330
47
100
AcDbScale
 70
     0
300
1-1/2" = 1'-0"
140
1.5
141
12.0
290
     0
  0
SCALE
  5
66
102
{ACAD_REACTORS
330
47
102
}
330
47
100
AcDbScale
 70
     0
300
3" = 1'-0"
140
3.0
141
12.0
290
     0
  0
SCALE
  5
67
102
{ACAD_REACTORS
330
47
102
}
330
47
100
AcDbScale
 70
     0
300
6" = 1'-0"
140
6.0
141
12.0
290
     0
  0
SCALE
  5
68
102
{ACAD_REACTORS
330
47
102
}
330
47
100
AcDbScale
 70
     0
300
1'-0" = 1'-0"
140
12.0
141
12.0
290
     0
  0
TABLESTYLE
  5
9C8
102
{ACAD_REACTORS
330
9C7
102
}
102
{ACAD_XDICTIONARY
360
B26
102
}
330
9C7
100
AcDbTableStyle
  3
Standard
 70
     0
 71
     0
 40
0.06
 41
0.06
280
     0
281
     0
  7
Standard
140
4.5
170
     2
 62
     0
 63
   257
283
     0
 90
        4
 91
        0
  1

274
    -2
284
     1
 64
     0
275
    -2
285
     1
 65
     0
276
    -2
286
     1
 66
     0
277
    -2
287
     1
 67
     0
278
    -2
288
     1
 68
     0
279
    -2
289
     1
 69
     0
  7
Standard
140
6.0
170
     5
 62
     0
 63
   257
283
     0
 90
        4
 91
        0
  1

274
    -2
284
     1
 64
     0
275
    -2
285
     1
 65
     0
276
    -2
286
     1
 66
     0
277
    -2
287
     1
 67
     0
278
    -2
288
     1
 68
     0
279
    -2
289
     1
 69
     0
  7
Standard
140
4.5
170
     5
 62
     0
 63
   257
283
     0
 90
        4
 91
        0
  1

274
    -2
284
     1
 64
     0
275
    -2
285
     1
 65
     0
276
    -2
286
     1
 66
     0
277
    -2
287
     1
 67
     0
278
    -2
288
     1
 68
     0
279
    -2
289
     1
 69
     0
  0
VISUALSTYLE
  5
9AF
102
{ACAD_REACTORS
330
9AA
102
}
330
9AA
100
AcDbVisualStyle
  2
2dWireframe
 70
     4
177
     2
291
     0
 71
     0
176
     1
 72
     2
176
     1
 73
     0
176
     1
 90
        0
176
     1
 40
0.6
176
     1
 41
30.0
176
     1
 62
     5
 63
     7
421
 16777215
176
     1
 74
     1
176
     1
 91
        4
176
     1
 64
     7
176
     1
 65
   257
176
     1
 75
     1
176
     1
175
     1
176
     1
 42
1.0
176
     1
 92
        0
176
     1
 66
   257
176
     1
 43
1.0
176
     1
 76
     1
176
     1
 77
     6
176
     1
 78
     2
176
     1
 67
     7
176
     1
 79
     5
176
     1
170
     0
176
     1
171
     0
176
     1
290
     0
176
     1
 93
        1
176
     1
 44
0.0
176
     1
173
     0
176
     1
  0
VISUALSTYLE
  5
9B2
102
{ACAD_REACTORS
330
9AA
102
}
330
9AA
100
AcDbVisualStyle
  2
Basic
 70
     7
177
     2
291
     1
 71
     1
176
     1
 72
     0
176
     1
 73
     1
176
     1
 90
        0
176
     1
 40
0.6
176
     1
 41
30.0
176
     1
 62
     5
 63
     7
421
 16777215
176
     1
 74
     0
176
     1
 91
        4
176
     1
 64
     7
176
     1
 65
   257
176
     1
 75
     1
176
     1
175
     1
176
     1
 42
1.0
176
     1
 92
        8
176
     1
 66
     7
176
     1
 43
1.0
176
     1
 76
     1
176
     1
 77
     6
176
     1
 78
     2
176
     1
 67
     7
176
     1
 79
     5
176
     1
170
     0
176
     1
171
     0
176
     1
290
     0
176
     1
 93
        1
176
     1
 44
0.0
176
     1
173
     0
176
     1
  0
VISUALSTYLE
  5
9B6
102
{ACAD_REACTORS
330
9AA
102
}
330
9AA
100
AcDbVisualStyle
  2
Brighten
 70
    12
177
     2
291
     1
 71
     2
176
     1
 72
     2
176
     1
 73
     0
176
     1
 90
        0
176
     1
 40
0.6
176
     1
 41
30.0
176
     1
 62
     5
 63
     7
421
 16777215
176
     1
 74
     1
176
     1
 91
        4
176
     1
 64
     7
176
     1
 65
   257
176
     1
 75
     1
176
     1
175
     1
176
     1
 42
1.0
176
     1
 92
        8
176
     1
 66
     7
176
     1
 43
1.0
176
     1
 76
     1
176
     1
 77
     6
176
     1
 78
     2
176
     1
 67
     7
176
     1
 79
     5
176
     1
170
     0
176
     1
171
     0
176
     1
290
     0
176
     1
 93
        1
176
     1
 44
50.0
176
     1
173
     0
176
     1
  0
VISUALSTYLE
  5
9BA
102
{ACAD_REACTORS
330
9AA
102
}
330
9AA
100
AcDbVisualStyle
  2
ColorChange
 70
    16
177
     2
291
     1
 71
     2
176
     1
 72
     2
176
     1
 73
     3
176
     1
 90
        0
176
     1
 40
0.6
176
     1
 41
30.0
176
     1
 62
     5
 63
     8
421
  8421504
176
     1
 74
     1
176
     1
 91
        4
176
     1
 64
     7
176
     1
 65
   257
176
     1
 75
     1
176
     1
175
     1
176
     1
 42
1.0
176
     1
 92
        8
176
     1
 66
     8
424
  8421504
176
     1
 43
1.0
176
     1
 76
     1
176
     1
 77
     6
176
     1
 78
     2
176
     1
 67
     7
176
     1
 79
     5
176
     1
170
     0
176
     1
171
     0
176
     1
290
     0
176
     1
 93
        1
176
     1
 44
0.0
176
     1
173
     0
176
     1
  0
VISUALSTYLE
  5
9B4
102
{ACAD_REACTORS
330
9AA
102
}
330
9AA
100
AcDbVisualStyle
  2
Conceptual
 70
     9
177
     2
291
     0
 71
     3
176
     1
 72
     2
176
     1
 73
     0
176
     1
 90
        0
176
     1
 40
0.6
176
     1
 41
30.0
176
     1
 62
     5
 63
     7
421
 16777215
176
     1
 74
     2
176
     1
 91
        2
176
     1
 64
     7
176
     1
 65
   257
176
     1
 75
     1
176
     1
175
     1
176
     1
 42
179.0
176
     1
 92
        8
176
     1
 66
     7
176
     1
 43
1.0
176
     1
 76
     1
176
     1
 77
     6
176
     1
 78
     2
176
     1
 67
     7
176
     1
 79
     3
176
     1
170
     0
176
     1
171
     0
176
     1
290
     0
176
     1
 93
        1
176
     1
 44
0.0
176
     1
173
     0
176
     1
  0
VISUALSTYLE
  5
9B5
102
{ACAD_REACTORS
330
9AA
102
}
330
9AA
100
AcDbVisualStyle
  2
Dim
 70
    11
177
     2
291
     1
 71
     2
176
     1
 72
     2
176
     1
 73
     0
176
     1
 90
        0
176
     1
 40
0.6
176
     1
 41
30.0
176
     1
 62
     5
 63
     7
421
 16777215
176
     1
 74
     1
176
     1
 91
        4
176
     1
 64
     7
176
     1
 65
   257
176
     1
 75
     1
176
     1
175
     1
176
     1
 42
1.0
176
     1
 92
        8
176
     1
 66
     7
176
     1
 43
1.0
176
     1
 76
     1
176
     1
 77
     6
176
     1
 78
     2
176
     1
 67
     7
176
     1
 79
     5
176
     1
170
     0
176
     1
171
     0
176
     1
290
     0
176
     1
 93
        1
176
     1
 44
-50.0
176
     1
173
     0
176
     1
  0
VISUALSTYLE
  5
9BD
102
{ACAD_REACTORS
330
9AA
102
}
330
9AA
100
AcDbVisualStyle
  2
EdgeColorOff
 70
    22
177
     2
291
     1
 71
     2
176
     0
 72
     2
176
     0
 73
     0
176
     0
 90
        0
176
     0
 40
0.6
176
     0
 41
30.0
176
     0
 62
     5
 63
     7
421
 16777215
176
     0
 74
     1
176
     0
 91
        4
176
     0
 64
     7
176
     0
 65
   257
176
     0
 75
     1
176
     0
175
     1
176
     0
 42
1.0
176
     0
 92
        8
176
     2
 66
     7
176
     0
 43
1.0
176
     0
 76
     1
176
     0
 77
     6
176
     0
 78
     2
176
     0
 67
     7
176
     0
 79
     5
176
     0
170
     0
176
     0
171
     0
176
     0
290
     0
176
     0
 93
        1
176
     0
 44
0.0
176
     0
173
     0
176
     0
  0
VISUALSTYLE
  5
9B9
102
{ACAD_REACTORS
330
9AA
102
}
330
9AA
100
AcDbVisualStyle
  2
Facepattern
 70
    15
177
     2
291
     1
 71
     2
176
     1
 72
     2
176
     1
 73
     0
176
     1
 90
        0
176
     1
 40
0.6
176
     1
 41
30.0
176
     1
 62
     5
 63
     7
421
 16777215
176
     1
 74
     1
176
     1
 91
        4
176
     1
 64
     7
176
     1
 65
   257
176
     1
 75
     1
176
     1
175
     1
176
     1
 42
1.0
176
     1
 92
        8
176
     1
 66
     7
176
     1
 43
1.0
176
     1
 76
     1
176
     1
 77
     6
176
     1
 78
     2
176
     1
 67
     7
176
     1
 79
     5
176
     1
170
     0
176
     1
171
     0
176
     1
290
     0
176
     1
 93
        1
176
     1
 44
0.0
176
     1
173
     0
176
     1
  0
VISUALSTYLE
  5
9AB
102
{ACAD_REACTORS
330
9AA
102
}
330
9AA
100
AcDbVisualStyle
  2
Flat
 70
     0
177
     2
291
     1
 71
     2
176
     1
 72
     1
176
     1
 73
     1
176
     1
 90
        2
176
     1
 40
0.6
176
     1
 41
30.0
176
     1
 62
     5
 63
     7
421
 16777215
176
     1
 74
     0
176
     1
 91
        0
176
     1
 64
     7
176
     1
 65
   257
176
     1
 75
     1
176
     1
175
     1
176
     1
 42
1.0
176
     1
 92
        8
176
     1
 66
     7
176
     1
 43
1.0
176
     1
 76
     1
176
     1
 77
     6
176
     1
 78
     2
176
     1
 67
     7
176
     1
 79
     5
176
     1
170
     0
176
     1
171
     0
176
     1
290
     0
176
     1
 93
       13
176
     1
 44
0.0
176
     1
173
     0
176
     1
  0
VISUALSTYLE
  5
9AC
102
{ACAD_REACTORS
330
9AA
102
}
330
9AA
100
AcDbVisualStyle
  2
FlatWithEdges
 70
     1
177
     2
291
     1
 71
     2
176
     1
 72
     1
176
     1
 73
     1
176
     1
 90
        2
176
     1
 40
0.6
176
     1
 41
30.0
176
     1
 62
     5
 63
     7
421
 16777215
176
     1
 74
     1
176
     1
 91
        0
176
     1
 64
     7
176
     1
 65
   257
176
     1
 75
     1
176
     1
175
     1
176
     1
 42
1.0
176
     1
 92
        0
176
     1
 66
   257
176
     1
 43
1.0
176
     1
 76
     1
176
     1
 77
     6
176
     1
 78
     2
176
     1
 67
     7
176
     1
 79
     5
176
     1
170
     0
176
     1
171
     0
176
     1
290
     0
176
     1
 93
       13
176
     1
 44
0.0
176
     1
173
     0
176
     1
  0
VISUALSTYLE
  5
9AD
102
{ACAD_REACTORS
330
9AA
102
}
330
9AA
100
AcDbVisualStyle
  2
Gouraud
 70
     2
177
     2
291
     1
 71
     2
176
     1
 72
     2
176
     1
 73
     1
176
     1
 90
        2
176
     1
 40
0.6
176
     1
 41
30.0
176
     1
 62
     5
 63
     7
421
 16777215
176
     1
 74
     0
176
     1
 91
        0
176
     1
 64
     7
176
     1
 65
   257
176
     1
 75
     1
176
     1
175
     1
176
     1
 42
1.0
176
     1
 92
        0
176
     1
 66
     7
176
     1
 43
1.0
176
     1
 76
     1
176
     1
 77
     6
176
     1
 78
     2
176
     1
 67
     7
176
     1
 79
     5
176
     1
170
     0
176
     1
171
     0
176
     1
290
     0
176
     1
 93
       13
176
     1
 44
0.0
176
     1
173
     0
176
     1
  0
VISUALSTYLE
  5
9AE
102
{ACAD_REACTORS
330
9AA
102
}
330
9AA
100
AcDbVisualStyle
  2
GouraudWithEdges
 70
     3
177
     2
291
     1
 71
     2
176
     1
 72
     2
176
     1
 73
     1
176
     1
 90
        2
176
     1
 40
0.6
176
     1
 41
30.0
176
     1
 62
     5
 63
     7
421
 16777215
176
     1
 74
     1
176
     1
 91
        0
176
     1
 64
     7
176
     1
 65
   257
176
     1
 75
     1
176
     1
175
     1
176
     1
 42
1.0
176
     1
 92
        0
176
     1
 66
   257
176
     1
 43
1.0
176
     1
 76
     1
176
     1
 77
     6
176
     1
 78
     2
176
     1
 67
     7
176
     1
 79
     5
176
     1
170
     0
176
     1
171
     0
176
     1
290
     0
176
     1
 93
       13
176
     1
 44
0.0
176
     1
173
     0
176
     1
  0
VISUALSTYLE
  5
9B1
102
{ACAD_REACTORS
330
9AA
102
}
330
9AA
100
AcDbVisualStyle
  2
Hidden
 70
     6
177
     2
291
     0
 71
     1
176
     1
 72
     2
176
     1
 73
     2
176
     1
 90
        0
176
     1
 40
0.6
176
     1
 41
30.0
176
     1
 62
     5
 63
     7
421
 16777215
176
     1
 74
     2
176
     1
 91
        2
176
     1
 64
     7
176
     1
 65
   257
176
     1
 75
     2
176
     1
175
     1
176
     1
 42
40.0
176
     1
 92
        0
176
     1
 66
   257
176
     1
 43
1.0
176
     1
 76
     1
176
     1
 77
     6
176
     1
 78
     2
176
     1
 67
     7
176
     1
 79
     3
176
     1
170
     0
176
     1
171
     0
176
     1
290
     0
176
     1
 93
        1
176
     1
 44
0.0
176
     1
173
     0
176
     1
  0
VISUALSTYLE
  5
9BB
102
{ACAD_REACTORS
330
9AA
102
}
330
9AA
100
AcDbVisualStyle
  2
JitterOff
 70
    20
177
     2
291
     1
 71
     2
176
     0
 72
     2
176
     0
 73
     0
176
     0
 90
        0
176
     0
 40
0.6
176
     0
 41
30.0
176
     0
 62
     5
 63
     7
421
 16777215
176
     0
 74
     1
176
     0
 91
        4
176
     0
 64
     7
176
     0
 65
   257
176
     0
 75
     1
176
     0
175
     1
176
     0
 42
1.0
176
     0
 92
       10
176
     2
 66
     7
176
     0
 43
1.0
176
     0
 76
     1
176
     0
 77
     6
176
     0
 78
     2
176
     0
 67
     7
176
     0
 79
     5
176
     0
170
     0
176
     0
171
     0
176
     0
290
     0
176
     0
 93
        1
176
     0
 44
0.0
176
     0
173
     0
176
     0
  0
VISUALSTYLE
  5
9B8
102
{ACAD_REACTORS
330
9AA
102
}
330
9AA
100
AcDbVisualStyle
  2
Linepattern
 70
    14
177
     2
291
     1
 71
     2
176
     1
 72
     2
176
     1
 73
     0
176
     1
 90
        0
176
     1
 40
0.6
176
     1
 41
30.0
176
     1
 62
     5
 63
     7
421
 16777215
176
     1
 74
     1
176
     1
 91
        4
176
     1
 64
     7
176
     1
 65
   257
176
     1
 75
     7
176
     1
175
     7
176
     1
 42
1.0
176
     1
 92
        8
176
     1
 66
     7
176
     1
 43
1.0
176
     1
 76
     1
176
     1
 77
     6
176
     1
 78
     2
176
     1
 67
     7
176
     1
 79
     5
176
     1
170
     0
176
     1
171
     0
176
     1
290
     0
176
     1
 93
        1
176
     1
 44
0.0
176
     1
173
     0
176
     1
  0
VISUALSTYLE
  5
9BC
102
{ACAD_REACTORS
330
9AA
102
}
330
9AA
100
AcDbVisualStyle
  2
OverhangOff
 70
    21
177
     2
291
     1
 71
     2
176
     0
 72
     2
176
     0
 73
     0
176
     0
 90
        0
176
     0
 40
0.6
176
     0
 41
30.0
176
     0
 62
     5
 63
     7
421
 16777215
176
     0
 74
     1
176
     0
 91
        4
176
     0
 64
     7
176
     0
 65
   257
176
     0
 75
     1
176
     0
175
     1
176
     0
 42
1.0
176
     0
 92
        9
176
     2
 66
     7
176
     0
 43
1.0
176
     0
 76
     1
176
     0
 77
     6
176
     0
 78
     2
176
     0
 67
     7
176
     0
 79
     5
176
     0
170
     0
176
     0
171
     0
176
     0
290
     0
176
     0
 93
        1
176
     0
 44
0.0
176
     0
173
     0
176
     0
  0
VISUALSTYLE
  5
9B3
102
{ACAD_REACTORS
330
9AA
102
}
330
9AA
100
AcDbVisualStyle
  2
Realistic
 70
     8
177
     2
291
     0
 71
     2
176
     1
 72
     3
176
     1
 73
     0
176
     1
 90
        2
176
     1
 40
0.6
176
     1
 41
30.0
176
     1
 62
     5
 63
     7
421
 16777215
176
     1
 74
     0
176
     1
 91
        0
176
     1
 64
     7
176
     1
 65
   257
176
     1
 75
     1
176
     1
175
     1
176
     1
 42
1.0
176
     1
 92
        8
176
     1
 66
   257
176
     1
 43
1.0
176
     1
 76
     1
176
     1
 77
     6
176
     1
 78
     2
176
     1
 67
     7
176
     1
 79
     3
176
     1
170
     0
176
     1
171
     0
176
     1
290
     0
176
     1
 93
       13
176
     1
 44
0.0
176
     1
173
     0
176
     1
  0
VISUALSTYLE
  5
9C2
102
{ACAD_REACTORS
330
9AA
102
}
330
9AA
100
AcDbVisualStyle
  2
Shaded
 70
    27
177
     2
291
     0
 71
     2
176
     1
 72
     2
176
     1
 73
     1
176
     1
 90
        2
176
     1
 40
0.6
176
     1
 41
30.0
176
     1
 62
     5
 63
     7
421
 16777215
176
     1
 74
     0
176
     1
 91
        4
176
     1
 64
     7
176
     1
 65
   257
176
     1
 75
     1
176
     1
175
     1
176
     1
 42
1.0
176
     1
 92
        8
176
     1
 66
   257
176
     1
 43
1.0
176
     1
 76
     1
176
     1
 77
     6
176
     1
 78
     2
176
     1
 67
     8
425
  7895160
176
     1
 79
     3
176
     1
170
     0
176
     1
171
     0
176
     1
290
     0
176
     1
 93
        5
176
     1
 44
0.0
176
     1
173
     0
176
     1
  0
VISUALSTYLE
  5
9C1
102
{ACAD_REACTORS
330
9AA
102
}
330
9AA
100
AcDbVisualStyle
  2
Shaded with edges
 70
    26
177
     2
291
     0
 71
     2
176
     1
 72
     2
176
     1
 73
     1
176
     1
 90
        2
176
     1
 40
0.6
176
     1
 41
30.0
176
     1
 62
     5
 63
     7
421
 16777215
176
     1
 74
     1
176
     1
 91
       10
176
     1
 64
     7
176
     1
 65
   257
176
     1
 75
     2
176
     1
175
     1
176
     1
 42
1.0
176
     1
 92
        8
176
     1
 66
   257
176
     1
 43
1.0
176
     1
 76
     1
176
     1
 77
     6
176
     1
 78
     2
176
     1
 67
     7
176
     1
 79
     3
176
     1
170
     0
176
     1
171
     0
176
     1
290
     0
176
     1
 93
        5
176
     1
 44
0.0
176
     1
173
     0
176
     1
  0
VISUALSTYLE
  5
9BE
102
{ACAD_REACTORS
330
9AA
102
}
330
9AA
100
AcDbVisualStyle
  2
Shades of Gray
 70
    23
177
     2
291
     0
 71
     2
176
     1
 72
     2
176
     1
 73
     3
176
     1
 90
        0
176
     1
 40
0.6
176
     1
 41
30.0
176
     1
 62
     5
 63
     7
421
 16777215
176
     1
 74
     2
176
     1
 91
        2
176
     1
 64
     7
176
     1
 65
     7
176
     1
 75
     1
176
     1
175
     1
176
     1
 42
40.0
176
     1
 92
        8
176
     1
 66
     7
176
     1
 43
1.0
176
     1
 76
     1
176
     1
 77
     6
176
     1
 78
     2
176
     1
 67
     7
176
     1
 79
     3
176
     1
170
     0
176
     1
171
     0
176
     1
290
     0
176
     1
 93
        1
176
     1
 44
0.0
176
     1
173
     0
176
     1
  0
VISUALSTYLE
  5
9BF
102
{ACAD_REACTORS
330
9AA
102
}
330
9AA
100
AcDbVisualStyle
  2
Sketchy
 70
    24
177
     2
291
     0
 71
     1
176
     1
 72
     2
176
     1
 73
     2
176
     1
 90
        0
176
     1
 40
0.6
176
     1
 41
30.0
176
     1
 62
     5
 63
     7
421
 16777215
176
     1
 74
     2
176
     1
 91
        2
176
     1
 64
     7
176
     1
 65
     7
176
     1
 75
     1
176
     1
175
     1
176
     1
 42
40.0
176
     1
 92
       11
176
     1
 66
     7
176
     1
 43
1.0
176
     1
 76
     1
176
     1
 77
     6
176
     1
 78
     2
176
     1
 67
     7
176
     1
 79
     6
176
     1
170
     0
176
     1
171
     0
176
     1
290
     0
176
     1
 93
        1
176
     1
 44
0.0
176
     1
173
     0
176
     1
  0
VISUALSTYLE
  5
9B7
102
{ACAD_REACTORS
330
9AA
102
}
330
9AA
100
AcDbVisualStyle
  2
Thicken
 70
    13
177
     2
291
     1
 71
     2
176
     1
 72
     2
176
     1
 73
     0
176
     1
 90
        0
176
     1
 40
0.6
176
     1
 41
30.0
176
     1
 62
     5
 63
     7
421
 16777215
176
     1
 74
     1
176
     1
 91
        4
176
     1
 64
     7
176
     1
 65
   257
176
     1
 75
     1
176
     1
175
     1
176
     1
 42
1.0
176
     1
 92
       12
176
     1
 66
     7
176
     1
 43
1.0
176
     1
 76
     1
176
     1
 77
     6
176
     1
 78
     2
176
     1
 67
     7
176
     1
 79
     5
176
     1
170
     0
176
     1
171
     0
176
     1
290
     0
176
     1
 93
        1
176
     1
 44
0.0
176
     1
173
     0
176
     1
  0
VISUALSTYLE
  5
9B0
102
{ACAD_REACTORS
330
9AA
102
}
330
9AA
100
AcDbVisualStyle
  2
Wireframe
 70
     5
177
     2
291
     0
 71
     0
176
     1
 72
     2
176
     1
 73
     0
176
     1
 90
        0
176
     1
 40
0.6
176
     1
 41
30.0
176
     1
 62
     5
 63
     7
421
 16777215
176
     1
 74
     1
176
     1
 91
        4
176
     1
 64
     7
176
     1
 65
   257
176
     1
 75
     1
176
     1
175
     1
176
     1
 42
1.0
176
     1
 92
        0
176
     1
 66
   257
176
     1
 43
1.0
176
     1
 76
     1
176
     1
 77
     6
176
     1
 78
     2
176
     1
 67
     7
176
     1
 79
     3
176
     1
170
     0
176
     1
171
     0
176
     1
290
     0
176
     1
 93
        1
176
     1
 44
0.0
176
     1
173
     0
176
     1
  0
VISUALSTYLE
  5
9C0
102
{ACAD_REACTORS
330
9AA
102
}
330
9AA
100
AcDbVisualStyle
  2
X-Ray
 70
    25
177
     2
291
     0
 71
     2
176
     1
 72
     2
176
     1
 73
     1
176
     1
 90
        1
176
     1
 40
0.5
176
     1
 41
30.0
176
     1
 62
     5
 63
     7
421
 16777215
176
     1
 74
     1
176
     1
 91
        0
176
     1
 64
     7
176
     1
 65
   257
176
     1
 75
     1
176
     1
175
     1
176
     1
 42
1.0
176
     1
 92
        8
176
     1
 66
     7
176
     1
 43
1.0
176
     1
 76
     1
176
     1
 77
     6
176
     1
 78
     2
176
     1
 67
     7
176
     1
 79
     3
176
     1
170
     0
176
     1
171
     0
176
     1
290
     0
176
     1
 93
       13
176
     1
 44
0.0
176
     1
173
     0
176
     1
  0
DICTIONARYVAR
  5
9CC
102
{ACAD_REACTORS
330
124
102
}
330
124
100
DictionaryVariables
280
     0
  1
1:1
  0
DICTIONARYVAR
  5
9D1
102
{ACAD_REACTORS
330
124
102
}
330
124
100
DictionaryVariables
280
     0
  1
Standard
  0
DICTIONARYVAR
  5
9D0
102
{ACAD_REACTORS
330
124
102
}
330
124
100
DictionaryVariables
280
     0
  1
Standard
  0
DICTIONARYVAR
  5
9D2
102
{ACAD_REACTORS
330
124
102
}
330
124
100
DictionaryVariables
280
     0
  1
0
  0
DICTIONARY
  5
B26
330
9C8
100
AcDbDictionary
280
     1
281
     1
  3
ACAD_ROUNDTRIP_2008_TABLESTYLE_CELLSTYLEMAP
360
B27
  0
CELLSTYLEMAP
  5
B27
102
{ACAD_REACTORS
330
B26
102
}
330
B26
100
AcDbCellStyleMap
 90
        3
300
CELLSTYLE
  1
TABLEFORMAT_BEGIN
 90
        5
170
     1
 91
        0
 92
    32768
 62
   257
 93
        1
300
CONTENTFORMAT
  1
CONTENTFORMAT_BEGIN
 90
        0
 91
        0
 92
        4
 93
        0
300

 40
0.0
140
1.0
 94
        5
 62
     0
340
11
144
6.0
309
CONTENTFORMAT_END
171
     1
301
MARGIN
  1
CELLMARGIN_BEGIN
 40
1.5
 40
1.5
 40
1.5
 40
1.5
 40
1.5
 40
1.5
309
CELLMARGIN_END
 94
        6
 95
        1
302
GRIDFORMAT
  1
GRIDFORMAT_BEGIN
 90
        0
 91
        1
 62
     0
 92
       -2
340
14
 93
        0
 40
0.045
309
GRIDFORMAT_END
 95
        2
302
GRIDFORMAT
  1
GRIDFORMAT_BEGIN
 90
        0
 91
        1
 62
     0
 92
       -2
340
14
 93
        0
 40
0.045
309
GRIDFORMAT_END
 95
        4
302
GRIDFORMAT
  1
GRIDFORMAT_BEGIN
 90
        0
 91
        1
 62
     0
 92
       -2
340
14
 93
        0
 40
0.045
309
GRIDFORMAT_END
 95
        8
302
GRIDFORMAT
  1
GRIDFORMAT_BEGIN
 90
        0
 91
        1
 62
     0
 92
       -2
340
14
 93
        0
 40
0.045
309
GRIDFORMAT_END
 95
       16
302
GRIDFORMAT
  1
GRIDFORMAT_BEGIN
 90
        0
 91
        1
 62
     0
 92
       -2
340
14
 93
        0
 40
0.045
309
GRIDFORMAT_END
 95
       32
302
GRIDFORMAT
  1
GRIDFORMAT_BEGIN
 90
        0
 91
        1
 62
     0
 92
       -2
340
14
 93
        0
 40
0.045
309
GRIDFORMAT_END
309
TABLEFORMAT_END
  1
CELLSTYLE_BEGIN
 90
        1
 91
        1
300
_TITLE
309
CELLSTYLE_END
300
CELLSTYLE
  1
TABLEFORMAT_BEGIN
 90
        5
170
     1
 91
        0
 92
        0
 62
   257
 93
        1
300
CONTENTFORMAT
  1
CONTENTFORMAT_BEGIN
 90
        0
 91
        0
 92
        4
 93
        0
300

 40
0.0
140
1.0
 94
        5
 62
     0
340
11
144
4.5
309
CONTENTFORMAT_END
171
     1
301
MARGIN
  1
CELLMARGIN_BEGIN
 40
1.5
 40
1.5
 40
1.5
 40
1.5
 40
1.5
 40
1.5
309
CELLMARGIN_END
 94
        6
 95
        1
302
GRIDFORMAT
  1
GRIDFORMAT_BEGIN
 90
        0
 91
        1
 62
     0
 92
       -2
340
14
 93
        0
 40
0.045
309
GRIDFORMAT_END
 95
        2
302
GRIDFORMAT
  1
GRIDFORMAT_BEGIN
 90
        0
 91
        1
 62
     0
 92
       -2
340
14
 93
        0
 40
0.045
309
GRIDFORMAT_END
 95
        4
302
GRIDFORMAT
  1
GRIDFORMAT_BEGIN
 90
        0
 91
        1
 62
     0
 92
       -2
340
14
 93
        0
 40
0.045
309
GRIDFORMAT_END
 95
        8
302
GRIDFORMAT
  1
GRIDFORMAT_BEGIN
 90
        0
 91
        1
 62
     0
 92
       -2
340
14
 93
        0
 40
0.045
309
GRIDFORMAT_END
 95
       16
302
GRIDFORMAT
  1
GRIDFORMAT_BEGIN
 90
        0
 91
        1
 62
     0
 92
       -2
340
14
 93
        0
 40
0.045
309
GRIDFORMAT_END
 95
       32
302
GRIDFORMAT
  1
GRIDFORMAT_BEGIN
 90
        0
 91
        1
 62
     0
 92
       -2
340
14
 93
        0
 40
0.045
309
GRIDFORMAT_END
309
TABLEFORMAT_END
  1
CELLSTYLE_BEGIN
 90
        2
 91
        1
300
_HEADER
309
CELLSTYLE_END
300
CELLSTYLE
  1
TABLEFORMAT_BEGIN
 90
        5
170
     1
 91
        0
 92
        0
 62
   257
 93
        1
300
CONTENTFORMAT
  1
CONTENTFORMAT_BEGIN
 90
        0
 91
        0
 92
        4
 93
        0
300

 40
0.0
140
1.0
 94
        2
 62
     0
340
11
144
4.5
309
CONTENTFORMAT_END
171
     1
301
MARGIN
  1
CELLMARGIN_BEGIN
 40
1.5
 40
1.5
 40
1.5
 40
1.5
 40
1.5
 40
1.5
309
CELLMARGIN_END
 94
        6
 95
        1
302
GRIDFORMAT
  1
GRIDFORMAT_BEGIN
 90
        0
 91
        1
 62
     0
 92
       -2
340
14
 93
        0
 40
0.045
309
GRIDFORMAT_END
 95
        2
302
GRIDFORMAT
  1
GRIDFORMAT_BEGIN
 90
        0
 91
        1
 62
     0
 92
       -2
340
14
 93
        0
 40
0.045
309
GRIDFORMAT_END
 95
        4
302
GRIDFORMAT
  1
GRIDFORMAT_BEGIN
 90
        0
 91
        1
 62
     0
 92
       -2
340
14
 93
        0
 40
0.045
309
GRIDFORMAT_END
 95
        8
302
GRIDFORMAT
  1
GRIDFORMAT_BEGIN
 90
        0
 91
        1
 62
     0
 92
       -2
340
14
 93
        0
 40
0.045
309
GRIDFORMAT_END
 95
       16
302
GRIDFORMAT
  1
GRIDFORMAT_BEGIN
 90
        0
 91
        1
 62
     0
 92
       -2
340
14
 93
        0
 40
0.045
309
GRIDFORMAT_END
 95
       32
302
GRIDFORMAT
  1
GRIDFORMAT_BEGIN
 90
        0
 91
        1
 62
     0
 92
       -2
340
14
 93
        0
 40
0.045
309
GRIDFORMAT_END
309
TABLEFORMAT_END
  1
CELLSTYLE_BEGIN
 90
        3
 91
        2
300
_DATA
309
CELLSTYLE_END
  0
ENDSEC
  0
EOF
