  0
SECTION
  2
HEADER
  9
$ACADVER
  1
AC1015
  9
$ACADMAINTVER
 70
     6
  9
$DWGCODEPAGE
  3
ANSI_1252
  9
$INSBASE
 10
0.0
 20
0.0
 30
0.0
  9
$EXTMIN
 10
-121.0
 20
-90.50000000000004
 30
0.0
  9
$EXTMAX
 10
133.3639610307
 20
102.8639610307
 30
0.0
  9
$LIMMIN
 10
0.0
 20
0.0
  9
$LIMMAX
 10
420.0
 20
297.0
  9
$ORTHOMODE
 70
     1
  9
$REGENMODE
 70
     1
  9
$FILLMODE
 70
     1
  9
$QTEXTMODE
 70
     0
  9
$MIRRTEXT
 70
     1
  9
$LTSCALE
 40
1.0
  9
$ATTMODE
 70
     1
  9
$TEXTSIZE
 40
3.5
  9
$TRACEWID
 40
1.0
  9
$TEXTSTYLE
  7
Standard
  9
$CLAYER
  8
Defpoints
  9
$CELTYPE
  6
ByLayer
  9
$CECOLOR
 62
   256
  9
$CELTSCALE
 40
1.0
  9
$DISPSILH
 70
     0
  9
$DIMSCALE
 40
1.0
  9
$DIMASZ
 40
3.302
  9
$DIMEXO
 40
1.0
  9
$DIMDLI
 40
3.75
  9
$DIMRND
 40
0.0
  9
$DIMDLE
 40
0.0
  9
$DIMEXE
 40
1.0
  9
$DIMTP
 40
0.0
  9
$DIMTM
 40
0.0
  9
$DIMTXT
 40
3.5
  9
$DIMCEN
 40
2.5
  9
$DIMTSZ
 40
0.0
  9
$DIMTOL
 70
     0
  9
$DIMLIM
 70
     0
  9
$DIMTIH
 70
     1
  9
$DIMTOH
 70
     1
  9
$DIMSE1
 70
     0
  9
$DIMSE2
 70
     0
  9
$DIMTAD
 70
     1
  9
$DIMZIN
 70
     0
  9
$DIMBLK
  1

  9
$DIMASO
 70
     1
  9
$DIMSHO
 70
     1
  9
$DIMPOST
  1

  9
$DIMAPOST
  1

  9
$DIMALT
 70
     0
  9
$DIMALTD
 70
     3
  9
$DIMALTF
 40
0.0393700787
  9
$DIMLFAC
 40
1.0
  9
$DIMTOFL
 70
     1
  9
$DIMTVP
 40
0.0
  9
$DIMTIX
 70
     0
  9
$DIMSOXD
 70
     0
  9
$DIMSAH
 70
     0
  9
$DIMBLK1
  1

  9
$DIMBLK2
  1

  9
$DIMSTYLE
  2
ISO-25
  9
$DIMCLRD
 70
     0
  9
$DIMCLRE
 70
     0
  9
$DIMCLRT
 70
     0
  9
$DIMTFAC
 40
1.0
  9
$DIMGAP
 40
1.524
  9
$DIMJUST
 70
     0
  9
$DIMSD1
 70
     0
  9
$DIMSD2
 70
     0
  9
$DIMTOLJ
 70
     0
  9
$DIMTZIN
 70
     0
  9
$DIMALTZ
 70
     0
  9
$DIMALTTZ
 70
     0
  9
$DIMUPT
 70
     0
  9
$DIMDEC
 70
     2
  9
$DIMTDEC
 70
     2
  9
$DIMALTU
 70
     2
  9
$DIMALTTD
 70
     3
  9
$DIMTXSTY
  7
Standard
  9
$DIMAUNIT
 70
     0
  9
$DIMADEC
 70
     2
  9
$DIMALTRND
 40
0.0
  9
$DIMAZIN
 70
     0
  9
$DIMDSEP
 70
    44
  9
$DIMATFIT
 70
     3
  9
$DIMFRAC
 70
     0
  9
$DIMLDRBLK
  1

  9
$DIMLUNIT
 70
     2
  9
$DIMLWD
 70
    -2
  9
$DIMLWE
 70
    -2
  9
$DIMTMOVE
 70
     0
  9
$LUNITS
 70
     2
  9
$LUPREC
 70
     2
  9
$SKETCHINC
 40
1.0
  9
$FILLETRAD
 40
0.0
  9
$AUNITS
 70
     0
  9
$AUPREC
 70
     2
  9
$MENU
  1
.
  9
$ELEVATION
 40
0.0
  9
$PELEVATION
 40
0.0
  9
$THICKNESS
 40
0.0
  9
$LIMCHECK
 70
     0
  9
$CHAMFERA
 40
0.0
  9
$CHAMFERB
 40
0.0
  9
$CHAMFERC
 40
0.0
  9
$CHAMFERD
 40
0.0
  9
$SKPOLY
 70
     0
  9
$TDCREATE
 40
2457493.689858819
  9
$TDUCREATE
 40
2457493.648192153
  9
$TDUPDATE
 40
2457588.507898461
  9
$TDUUPDATE
 40
2457588.466231794
  9
$TDINDWG
 40
0.0271830324
  9
$TDUSRTIMER
 40
2457588.465986562
  9
$USRTIMER
 70
     1
  9
$ANGBASE
 50
0.0
  9
$ANGDIR
 70
     0
  9
$PDMODE
 70
     0
  9
$PDSIZE
 40
-1.0
  9
$PLINEWID
 40
0.0
  9
$SPLFRAME
 70
     0
  9
$SPLINETYPE
 70
     6
  9
$SPLINESEGS
 70
     8
  9
$HANDSEED
  5
1213
  9
$SURFTAB1
 70
     6
  9
$SURFTAB2
 70
     6
  9
$SURFTYPE
 70
     6
  9
$SURFU
 70
     6
  9
$SURFV
 70
     6
  9
$UCSBASE
  2

  9
$UCSNAME
  2

  9
$UCSORG
 10
0.0
 20
0.0
 30
0.0
  9
$UCSXDIR
 10
1.0
 20
0.0
 30
0.0
  9
$UCSYDIR
 10
0.0
 20
1.0
 30
0.0
  9
$UCSORTHOREF
  2

  9
$UCSORTHOVIEW
 70
     0
  9
$UCSORGTOP
 10
0.0
 20
0.0
 30
0.0
  9
$UCSORGBOTTOM
 10
0.0
 20
0.0
 30
0.0
  9
$UCSORGLEFT
 10
0.0
 20
0.0
 30
0.0
  9
$UCSORGRIGHT
 10
0.0
 20
0.0
 30
0.0
  9
$UCSORGFRONT
 10
0.0
 20
0.0
 30
0.0
  9
$UCSORGBACK
 10
0.0
 20
0.0
 30
0.0
  9
$PUCSBASE
  2

  9
$PUCSNAME
  2

  9
$PUCSORG
 10
0.0
 20
0.0
 30
0.0
  9
$PUCSXDIR
 10
1.0
 20
0.0
 30
0.0
  9
$PUCSYDIR
 10
0.0
 20
1.0
 30
0.0
  9
$PUCSORTHOREF
  2

  9
$PUCSORTHOVIEW
 70
     0
  9
$PUCSORGTOP
 10
0.0
 20
0.0
 30
0.0
  9
$PUCSORGBOTTOM
 10
0.0
 20
0.0
 30
0.0
  9
$PUCSORGLEFT
 10
0.0
 20
0.0
 30
0.0
  9
$PUCSORGRIGHT
 10
0.0
 20
0.0
 30
0.0
  9
$PUCSORGFRONT
 10
0.0
 20
0.0
 30
0.0
  9
$PUCSORGBACK
 10
0.0
 20
0.0
 30
0.0
  9
$USERI1
 70
     0
  9
$USERI2
 70
     0
  9
$USERI3
 70
     0
  9
$USERI4
 70
     0
  9
$USERI5
 70
     0
  9
$USERR1
 40
0.0
  9
$USERR2
 40
0.0
  9
$USERR3
 40
0.0
  9
$USERR4
 40
0.0
  9
$USERR5
 40
0.0
  9
$WORLDVIEW
 70
     1
  9
$SHADEDGE
 70
     3
  9
$SHADEDIF
 70
    70
  9
$TILEMODE
 70
     1
  9
$MAXACTVP
 70
    64
  9
$PINSBASE
 10
0.0
 20
0.0
 30
0.0
  9
$PLIMCHECK
 70
     0
  9
$PEXTMIN
 10
1.000000000000000E+20
 20
1.000000000000000E+20
 30
1.000000000000000E+20
  9
$PEXTMAX
 10
-1.000000000000000E+20
 20
-1.000000000000000E+20
 30
-1.000000000000000E+20
  9
$PLIMMIN
 10
0.0
 20
0.0
  9
$PLIMMAX
 10
0.0
 20
0.0
  9
$UNITMODE
 70
     0
  9
$VISRETAIN
 70
     1
  9
$PLINEGEN
 70
     0
  9
$PSLTSCALE
 70
     1
  9
$TREEDEPTH
 70
  3020
  9
$CMLSTYLE
  2
Standard
  9
$CMLJUST
 70
     0
  9
$CMLSCALE
 40
20.0
  9
$PROXYGRAPHICS
 70
     1
  9
$MEASUREMENT
 70
     1
  9
$CELWEIGHT
370
    -1
  9
$ENDCAPS
280
     0
  9
$JOINSTYLE
280
     0
  9
$LWDISPLAY
290
     1
  9
$INSUNITS
 70
     4
  9
$HYPERLINKBASE
  1

  9
$STYLESHEET
  1

  9
$XEDIT
290
     1
  9
$CEPSNTYPE
380
     0
  9
$PSTYLEMODE
290
     1
  9
$FINGERPRINTGUID
  2
{F425D0A6-F4A8-4CFC-82A4-D16F3718570F}
  9
$VERSIONGUID
  2
{FAEB1C32-E019-11D5-929B-00C0DF256EC4}
  9
$EXTNAMES
290
     1
  9
$PSVPSCALE
 40
0.0
  9
$OLESTARTUP
290
     0
  0
ENDSEC
  0
SECTION
  2
CLASSES
  0
CLASS
  1
ACDBDICTIONARYWDFLT
  2
AcDbDictionaryWithDefault
  3
ObjectDBX Classes
 90
        0
280
     0
281
     0
  0
CLASS
  1
VISUALSTYLE
  2
AcDbVisualStyle
  3
ObjectDBX Classes
 90
     4095
280
     0
281
     0
  0
CLASS
  1
MATERIAL
  2
AcDbMaterial
  3
ObjectDBX Classes
 90
     1153
280
     0
281
     0
  0
CLASS
  1
SCALE
  2
AcDbScale
  3
ObjectDBX Classes
 90
     1153
280
     0
281
     0
  0
CLASS
  1
SUN
  2
AcDbSun
  3
SCENEOE
 90
     1153
280
     0
281
     0
  0
CLASS
  1
ACDBPLACEHOLDER
  2
AcDbPlaceHolder
  3
ObjectDBX Classes
 90
        0
280
     0
281
     0
  0
CLASS
  1
LAYOUT
  2
AcDbLayout
  3
ObjectDBX Classes
 90
        0
280
     0
281
     0
  0
CLASS
  1
TABLESTYLE
  2
AcDbTableStyle
  3
ObjectDBX Classes
 90
     4095
280
     0
281
     0
  0
CLASS
  1
RASTERVARIABLES
  2
AcDbRasterVariables
  3
ISM
 90
        0
280
     0
281
     0
  0
CLASS
  1
MLEADERSTYLE
  2
AcDbMLeaderStyle
  3
ACDB_MLEADERSTYLE_CLASS
 90
     4095
280
     0
281
     0
  0
CLASS
  1
DICTIONARYVAR
  2
AcDbDictionaryVar
  3
ObjectDBX Classes
 90
        0
280
     0
281
     0
  0
CLASS
  1
CELLSTYLEMAP
  2
AcDbCellStyleMap
  3
ObjectDBX Classes
 90
     1152
280
     0
281
     0
  0
ENDSEC
  0
SECTION
  2
TABLES
  0
TABLE
  2
VPORT
  5
8
330
0
100
AcDbSymbolTable
 70
     1
  0
VPORT
  5
29
330
8
100
AcDbSymbolTableRecord
100
AcDbViewportTableRecord
  2
*Active
 70
     0
 10
0.0
 20
0.0
 11
1.0
 21
1.0
 12
79.15941423001166
 22
-15.96435052522651
 13
0.0
 23
0.0
 14
10.0
 24
10.0
 15
10.0
 25
10.0
 16
0.0
 26
0.0
 36
1.0
 17
0.0
 27
0.0
 37
0.0
 40
308.1738128926783
 41
2.055766793409379
 42
50.0
 43
0.0
 44
0.0
 50
0.0
 51
0.0
 71
    16
 72
   100
 73
     1
 74
     3
 75
     0
 76
     0
 77
     0
 78
     0
281
     0
 65
     1
110
0.0
120
0.0
130
0.0
111
1.0
121
0.0
131
0.0
112
0.0
122
1.0
132
0.0
 79
     0
146
0.0
  0
ENDTAB
  0
TABLE
  2
LTYPE
  5
5
330
0
100
AcDbSymbolTable
 70
     6
  0
LTYPE
  5
14
330
5
100
AcDbSymbolTableRecord
100
AcDbLinetypeTableRecord
  2
ByBlock
 70
     0
  3

 72
    65
 73
     0
 40
0.0
  0
LTYPE
  5
15
330
5
100
AcDbSymbolTableRecord
100
AcDbLinetypeTableRecord
  2
ByLayer
 70
     0
  3

 72
    65
 73
     0
 40
0.0
  0
LTYPE
  5
16
330
5
100
AcDbSymbolTableRecord
100
AcDbLinetypeTableRecord
  2
Continuous
 70
     0
  3
Solid line
 72
    65
 73
     0
 40
0.0
  0
LTYPE
  5
6A
330
5
100
AcDbSymbolTableRecord
100
AcDbLinetypeTableRecord
  2
HIDDEN
 70
     0
  3
Hidden __ __ __ __ __ __ __ __ __ __ __ __ __ __
 72
    65
 73
     2
 40
1.905
 49
1.27
 74
     0
 49
-0.635
 74
     0
  0
LTYPE
  5
6B
330
5
100
AcDbSymbolTableRecord
100
AcDbLinetypeTableRecord
  2
PHANTOM
 70
     0
  3
Phantom ______  __  __  ______  __  __  ______
 72
    65
 73
     6
 40
12.7
 49
6.35
 74
     0
 49
-1.27
 74
     0
 49
1.27
 74
     0
 49
-1.27
 74
     0
 49
1.27
 74
     0
 49
-1.27
 74
     0
  0
LTYPE
  5
6C
330
5
100
AcDbSymbolTableRecord
100
AcDbLinetypeTableRecord
  2
CENTER
 70
     0
  3
Center ____ _ ____ _ ____ _ ____ _ ____ _ ____
 72
    65
 73
     4
 40
10.16
 49
6.35
 74
     0
 49
-1.27
 74
     0
 49
1.27
 74
     0
 49
-1.27
 74
     0
  0
LTYPE
  5
6D
330
5
100
AcDbSymbolTableRecord
100
AcDbLinetypeTableRecord
  2
CENTERX2
 70
     0
  3
Center (2x) ________  __  ________  __  _____
 72
    65
 73
     4
 40
20.32
 49
12.7
 74
     0
 49
-2.54
 74
     0
 49
2.54
 74
     0
 49
-2.54
 74
     0
  0
LTYPE
  5
6E
330
5
100
AcDbSymbolTableRecord
100
AcDbLinetypeTableRecord
  2
DOT2
 70
     0
  3
Dot (.5x) ........................................
 72
    65
 73
     2
 40
0.635
 49
0.0
 74
     0
 49
-0.635
 74
     0
  0
ENDTAB
  0
TABLE
  2
LAYER
  5
2
102
{ACAD_XDICTIONARY
360
BAB
102
}
330
0
100
AcDbSymbolTable
 70
     6
  0
LAYER
  5
10
330
2
100
AcDbSymbolTableRecord
100
AcDbLayerTableRecord
  2
0
 70
     0
 62
     7
  6
Continuous
370
    -3
390
F
  0
LAYER
  5
5D8
330
2
100
AcDbSymbolTableRecord
100
AcDbLayerTableRecord
  2
Defpoints
 70
     0
 62
     7
  6
Continuous
290
     0
370
    -3
390
F
  0
LAYER
  5
BAE
330
2
100
AcDbSymbolTableRecord
100
AcDbLayerTableRecord
  2
Issue C
 70
     0
 62
     1
  6
Continuous
370
    -3
390
F
1001
AcAecLayerStandard
1000

1000

  0
LAYER
  5
1104
330
2
100
AcDbSymbolTableRecord
100
AcDbLayerTableRecord
  2
Issue B
 70
     0
 62
     2
  6
Continuous
370
    -3
390
F
1001
AcAecLayerStandard
1000

1000

  0
LAYER
  5
1114
330
2
100
AcDbSymbolTableRecord
100
AcDbLayerTableRecord
  2
slots
 70
     0
 62
     4
  6
Continuous
370
    -3
390
F
1001
AcAecLayerStandard
1000

1000

  0
LAYER
  5
1117
330
2
100
AcDbSymbolTableRecord
100
AcDbLayerTableRecord
  2
pocket outside 1.0
 70
     0
 62
     2
  6
Continuous
370
    -3
390
F
1001
AcAecLayerStandard
1000

1000

  0
ENDTAB
  0
TABLE
  2
STYLE
  5
3
330
0
100
AcDbSymbolTable
 70
     1
  0
STYLE
  5
11
330
3
100
AcDbSymbolTableRecord
100
AcDbTextStyleTableRecord
  2
Standard
 70
     0
 40
0.0
 41
1.0
 50
0.0
 71
     0
 42
3.5
  3
txt
  4

  0
ENDTAB
  0
TABLE
  2
VIEW
  5
6
330
0
100
AcDbSymbolTable
 70
     0
  0
ENDTAB
  0
TABLE
  2
UCS
  5
7
330
0
100
AcDbSymbolTable
 70
     0
  0
ENDTAB
  0
TABLE
  2
APPID
  5
9
330
0
100
AcDbSymbolTable
 70
     2
  0
APPID
  5
12
330
9
100
AcDbSymbolTableRecord
100
AcDbRegAppTableRecord
  2
ACAD
 70
     0
  0
APPID
  5
BAF
330
9
100
AcDbSymbolTableRecord
100
AcDbRegAppTableRecord
  2
AcAecLayerStandard
 70
     0
  0
ENDTAB
  0
TABLE
  2
DIMSTYLE
  5
A
330
0
100
AcDbSymbolTable
 70
     1
100
AcDbDimStyleTable
  0
DIMSTYLE
105
27
330
A
100
AcDbSymbolTableRecord
100
AcDbDimStyleTableRecord
  2
ISO-25
 70
     0
 41
2.5
 42
0.625
 43
3.75
 44
1.25
 73
     0
 74
     0
 77
     1
 78
     8
140
2.5
141
2.5
143
0.0393700787
147
0.625
171
     3
172
     1
178
     0
271
     2
272
     2
274
     3
278
    44
283
     0
284
     8
340
11
  0
ENDTAB
  0
TABLE
  2
BLOCK_RECORD
  5
1
330
0
100
AcDbSymbolTable
 70
     1
  0
BLOCK_RECORD
  5
1F
330
1
100
AcDbSymbolTableRecord
100
AcDbBlockTableRecord
  2
*Model_Space
340
22
  0
BLOCK_RECORD
  5
1B
330
1
100
AcDbSymbolTableRecord
100
AcDbBlockTableRecord
  2
*Paper_Space
340
1E
  0
BLOCK_RECORD
  5
23
330
1
100
AcDbSymbolTableRecord
100
AcDbBlockTableRecord
  2
*Paper_Space0
340
26
  0
ENDTAB
  0
ENDSEC
  0
SECTION
  2
BLOCKS
  0
BLOCK
  5
20
330
1F
100
AcDbEntity
  8
0
100
AcDbBlockBegin
  2
*Model_Space
 70
     0
 10
0.0
 20
0.0
 30
0.0
  3
*Model_Space
  1
*Model_Space
  0
ENDBLK
  5
21
330
1F
100
AcDbEntity
  8
0
100
AcDbBlockEnd
  0
BLOCK
  5
1C
330
1B
100
AcDbEntity
 67
     1
  8
0
100
AcDbBlockBegin
  2
*Paper_Space
 70
     0
 10
0.0
 20
0.0
 30
0.0
  3
*Paper_Space
  1
*Paper_Space
  0
ENDBLK
  5
1D
330
1B
100
AcDbEntity
 67
     1
  8
0
100
AcDbBlockEnd
  0
BLOCK
  5
24
330
23
100
AcDbEntity
  8
0
100
AcDbBlockBegin
  2
*Paper_Space0
 70
     0
 10
0.0
 20
0.0
 30
0.0
  3
*Paper_Space0
  1
*Paper_Space0
  0
ENDBLK
  5
25
330
23
100
AcDbEntity
  8
0
100
AcDbBlockEnd
  0
ENDSEC
  0
SECTION
  2
ENTITIES
  0
LINE
  5
305
330
1F
100
AcDbEntity
  8
slots
  6
Continuous
370
    15
100
AcDbLine
 10
97.25
 20
22.5
 30
0.0
 11
97.25
 21
15.5
 31
0.0
  0
LINE
  5
306
330
1F
100
AcDbEntity
  8
slots
  6
Continuous
370
    15
100
AcDbLine
 10
94.25
 20
12.5
 30
0.0
 11
83.5
 21
12.5
 31
0.0
  0
LINE
  5
307
330
1F
100
AcDbEntity
  8
slots
  6
Continuous
370
    15
100
AcDbLine
 10
80.5
 20
15.5
 30
0.0
 11
80.5
 21
22.5
 31
0.0
  0
LINE
  5
308
330
1F
100
AcDbEntity
  8
slots
  6
Continuous
370
    15
100
AcDbLine
 10
83.5
 20
25.5
 30
0.0
 11
94.25
 21
25.5
 31
0.0
  0
LINE
  5
309
330
1F
100
AcDbEntity
  8
slots
  6
Continuous
370
    15
100
AcDbLine
 10
97.25
 20
-9.5
 30
0.0
 11
97.25
 21
-16.5
 31
0.0
  0
LINE
  5
30A
330
1F
100
AcDbEntity
  8
slots
  6
Continuous
370
    15
100
AcDbLine
 10
94.25
 20
-19.5
 30
0.0
 11
83.5
 21
-19.5
 31
0.0
  0
LINE
  5
30B
330
1F
100
AcDbEntity
  8
slots
  6
Continuous
370
    15
100
AcDbLine
 10
80.5
 20
-16.5
 30
0.0
 11
80.5
 21
-9.5
 31
0.0
  0
LINE
  5
30C
330
1F
100
AcDbEntity
  8
slots
  6
Continuous
370
    15
100
AcDbLine
 10
83.5
 20
-6.5
 30
0.0
 11
94.25
 21
-6.5
 31
0.0
  0
LINE
  5
30D
330
1F
100
AcDbEntity
  8
slots
  6
Continuous
370
    15
100
AcDbLine
 10
97.25
 20
-41.5
 30
0.0
 11
97.25
 21
-48.5
 31
0.0
  0
LINE
  5
30E
330
1F
100
AcDbEntity
  8
slots
  6
Continuous
370
    15
100
AcDbLine
 10
94.25
 20
-51.5
 30
0.0
 11
83.5
 21
-51.5
 31
0.0
  0
LINE
  5
30F
330
1F
100
AcDbEntity
  8
slots
  6
Continuous
370
    15
100
AcDbLine
 10
80.5
 20
-48.5
 30
0.0
 11
80.5
 21
-41.5
 31
0.0
  0
LINE
  5
310
330
1F
100
AcDbEntity
  8
slots
  6
Continuous
370
    15
100
AcDbLine
 10
83.5
 20
-38.5
 30
0.0
 11
94.25
 21
-38.5
 31
0.0
  0
LINE
  5
315
330
1F
100
AcDbEntity
  8
slots
  6
Continuous
370
    15
100
AcDbLine
 10
77.5
 20
22.5
 30
0.0
 11
77.5
 21
15.5
 31
0.0
  0
LINE
  5
316
330
1F
100
AcDbEntity
  8
slots
  6
Continuous
370
    15
100
AcDbLine
 10
74.5
 20
12.5
 30
0.0
 11
63.75
 21
12.5
 31
0.0
  0
LINE
  5
317
330
1F
100
AcDbEntity
  8
slots
  6
Continuous
370
    15
100
AcDbLine
 10
60.75
 20
15.5
 30
0.0
 11
60.75
 21
22.5
 31
0.0
  0
LINE
  5
318
330
1F
100
AcDbEntity
  8
slots
  6
Continuous
370
    15
100
AcDbLine
 10
63.75
 20
25.5
 30
0.0
 11
74.5
 21
25.5
 31
0.0
  0
LINE
  5
319
330
1F
100
AcDbEntity
  8
slots
  6
Continuous
370
    15
100
AcDbLine
 10
77.5
 20
-9.5
 30
0.0
 11
77.5
 21
-16.5
 31
0.0
  0
LINE
  5
31A
330
1F
100
AcDbEntity
  8
slots
  6
Continuous
370
    15
100
AcDbLine
 10
74.5
 20
-19.5
 30
0.0
 11
63.75
 21
-19.5
 31
0.0
  0
LINE
  5
31B
330
1F
100
AcDbEntity
  8
slots
  6
Continuous
370
    15
100
AcDbLine
 10
60.75
 20
-16.5
 30
0.0
 11
60.75
 21
-9.5
 31
0.0
  0
LINE
  5
31C
330
1F
100
AcDbEntity
  8
slots
  6
Continuous
370
    15
100
AcDbLine
 10
63.75
 20
-6.5
 30
0.0
 11
74.5
 21
-6.5
 31
0.0
  0
LINE
  5
31D
330
1F
100
AcDbEntity
  8
slots
  6
Continuous
370
    15
100
AcDbLine
 10
77.5
 20
-41.5
 30
0.0
 11
77.5
 21
-48.5
 31
0.0
  0
LINE
  5
31E
330
1F
100
AcDbEntity
  8
slots
  6
Continuous
370
    15
100
AcDbLine
 10
74.5
 20
-51.5
 30
0.0
 11
63.75
 21
-51.5
 31
0.0
  0
LINE
  5
31F
330
1F
100
AcDbEntity
  8
slots
  6
Continuous
370
    15
100
AcDbLine
 10
60.75
 20
-48.5
 30
0.0
 11
60.75
 21
-41.5
 31
0.0
  0
LINE
  5
320
330
1F
100
AcDbEntity
  8
slots
  6
Continuous
370
    15
100
AcDbLine
 10
63.75
 20
-38.5
 30
0.0
 11
74.5
 21
-38.5
 31
0.0
  0
LINE
  5
325
330
1F
100
AcDbEntity
  8
slots
  6
Continuous
370
    15
100
AcDbLine
 10
57.75
 20
22.5
 30
0.0
 11
57.75
 21
15.5
 31
0.0
  0
LINE
  5
326
330
1F
100
AcDbEntity
  8
slots
  6
Continuous
370
    15
100
AcDbLine
 10
54.75
 20
12.5
 30
0.0
 11
44.0
 21
12.5
 31
0.0
  0
LINE
  5
327
330
1F
100
AcDbEntity
  8
slots
  6
Continuous
370
    15
100
AcDbLine
 10
41.0
 20
15.5
 30
0.0
 11
41.0
 21
22.5
 31
0.0
  0
LINE
  5
328
330
1F
100
AcDbEntity
  8
slots
  6
Continuous
370
    15
100
AcDbLine
 10
44.0
 20
25.5
 30
0.0
 11
54.75
 21
25.5
 31
0.0
  0
LINE
  5
329
330
1F
100
AcDbEntity
  8
slots
  6
Continuous
370
    15
100
AcDbLine
 10
57.75
 20
-9.5
 30
0.0
 11
57.75
 21
-16.5
 31
0.0
  0
LINE
  5
32A
330
1F
100
AcDbEntity
  8
slots
  6
Continuous
370
    15
100
AcDbLine
 10
54.75
 20
-19.5
 30
0.0
 11
44.0
 21
-19.5
 31
0.0
  0
LINE
  5
32B
330
1F
100
AcDbEntity
  8
slots
  6
Continuous
370
    15
100
AcDbLine
 10
41.0
 20
-16.5
 30
0.0
 11
41.0
 21
-9.5
 31
0.0
  0
LINE
  5
32C
330
1F
100
AcDbEntity
  8
slots
  6
Continuous
370
    15
100
AcDbLine
 10
44.0
 20
-6.5
 30
0.0
 11
54.75
 21
-6.5
 31
0.0
  0
LINE
  5
32D
330
1F
100
AcDbEntity
  8
slots
  6
Continuous
370
    15
100
AcDbLine
 10
57.75
 20
-41.5
 30
0.0
 11
57.75
 21
-48.5
 31
0.0
  0
LINE
  5
32E
330
1F
100
AcDbEntity
  8
slots
  6
Continuous
370
    15
100
AcDbLine
 10
54.75
 20
-51.5
 30
0.0
 11
44.0
 21
-51.5
 31
0.0
  0
LINE
  5
32F
330
1F
100
AcDbEntity
  8
slots
  6
Continuous
370
    15
100
AcDbLine
 10
41.0
 20
-48.5
 30
0.0
 11
41.0
 21
-41.5
 31
0.0
  0
LINE
  5
330
330
1F
100
AcDbEntity
  8
slots
  6
Continuous
370
    15
100
AcDbLine
 10
44.0
 20
-38.5
 30
0.0
 11
54.75
 21
-38.5
 31
0.0
  0
LINE
  5
335
330
1F
100
AcDbEntity
  8
slots
  6
Continuous
370
    15
100
AcDbLine
 10
38.0
 20
22.5
 30
0.0
 11
38.0
 21
15.5
 31
0.0
  0
LINE
  5
336
330
1F
100
AcDbEntity
  8
slots
  6
Continuous
370
    15
100
AcDbLine
 10
35.0
 20
12.5
 30
0.0
 11
24.25
 21
12.5
 31
0.0
  0
LINE
  5
337
330
1F
100
AcDbEntity
  8
slots
  6
Continuous
370
    15
100
AcDbLine
 10
21.25
 20
15.5
 30
0.0
 11
21.25
 21
22.5
 31
0.0
  0
LINE
  5
338
330
1F
100
AcDbEntity
  8
slots
  6
Continuous
370
    15
100
AcDbLine
 10
24.25
 20
25.5
 30
0.0
 11
35.0
 21
25.5
 31
0.0
  0
LINE
  5
339
330
1F
100
AcDbEntity
  8
slots
  6
Continuous
370
    15
100
AcDbLine
 10
38.0
 20
-9.5
 30
0.0
 11
38.0
 21
-16.5
 31
0.0
  0
LINE
  5
33A
330
1F
100
AcDbEntity
  8
slots
  6
Continuous
370
    15
100
AcDbLine
 10
35.0
 20
-19.5
 30
0.0
 11
24.25
 21
-19.5
 31
0.0
  0
LINE
  5
33B
330
1F
100
AcDbEntity
  8
slots
  6
Continuous
370
    15
100
AcDbLine
 10
21.25
 20
-16.5
 30
0.0
 11
21.25
 21
-9.5
 31
0.0
  0
LINE
  5
33C
330
1F
100
AcDbEntity
  8
slots
  6
Continuous
370
    15
100
AcDbLine
 10
24.25
 20
-6.5
 30
0.0
 11
35.0
 21
-6.5
 31
0.0
  0
LINE
  5
33D
330
1F
100
AcDbEntity
  8
slots
  6
Continuous
370
    15
100
AcDbLine
 10
38.0
 20
-41.5
 30
0.0
 11
38.0
 21
-48.5
 31
0.0
  0
LINE
  5
33E
330
1F
100
AcDbEntity
  8
slots
  6
Continuous
370
    15
100
AcDbLine
 10
35.0
 20
-51.5
 30
0.0
 11
24.25
 21
-51.5
 31
0.0
  0
LINE
  5
33F
330
1F
100
AcDbEntity
  8
slots
  6
Continuous
370
    15
100
AcDbLine
 10
21.25
 20
-48.5
 30
0.0
 11
21.25
 21
-41.5
 31
0.0
  0
LINE
  5
340
330
1F
100
AcDbEntity
  8
slots
  6
Continuous
370
    15
100
AcDbLine
 10
24.25
 20
-38.5
 30
0.0
 11
35.0
 21
-38.5
 31
0.0
  0
LINE
  5
345
330
1F
100
AcDbEntity
  8
slots
  6
Continuous
370
    15
100
AcDbLine
 10
18.25
 20
22.5
 30
0.0
 11
18.25
 21
15.5
 31
0.0
  0
LINE
  5
346
330
1F
100
AcDbEntity
  8
slots
  6
Continuous
370
    15
100
AcDbLine
 10
15.25
 20
12.5
 30
0.0
 11
4.5
 21
12.5
 31
0.0
  0
LINE
  5
347
330
1F
100
AcDbEntity
  8
slots
  6
Continuous
370
    15
100
AcDbLine
 10
1.5
 20
15.5
 30
0.0
 11
1.5
 21
22.5
 31
0.0
  0
LINE
  5
348
330
1F
100
AcDbEntity
  8
slots
  6
Continuous
370
    15
100
AcDbLine
 10
4.5
 20
25.5
 30
0.0
 11
15.25
 21
25.5
 31
0.0
  0
LINE
  5
349
330
1F
100
AcDbEntity
  8
slots
  6
Continuous
370
    15
100
AcDbLine
 10
18.25
 20
-9.5
 30
0.0
 11
18.25
 21
-16.5
 31
0.0
  0
LINE
  5
34A
330
1F
100
AcDbEntity
  8
slots
  6
Continuous
370
    15
100
AcDbLine
 10
15.25
 20
-19.5
 30
0.0
 11
4.5
 21
-19.5
 31
0.0
  0
LINE
  5
34B
330
1F
100
AcDbEntity
  8
slots
  6
Continuous
370
    15
100
AcDbLine
 10
1.5
 20
-16.5
 30
0.0
 11
1.5
 21
-9.5
 31
0.0
  0
LINE
  5
34C
330
1F
100
AcDbEntity
  8
slots
  6
Continuous
370
    15
100
AcDbLine
 10
4.5
 20
-6.5
 30
0.0
 11
15.25
 21
-6.5
 31
0.0
  0
LINE
  5
34D
330
1F
100
AcDbEntity
  8
slots
  6
Continuous
370
    15
100
AcDbLine
 10
18.25
 20
-41.5
 30
0.0
 11
18.25
 21
-48.5
 31
0.0
  0
LINE
  5
34E
330
1F
100
AcDbEntity
  8
slots
  6
Continuous
370
    15
100
AcDbLine
 10
15.25
 20
-51.5
 30
0.0
 11
4.5
 21
-51.5
 31
0.0
  0
LINE
  5
34F
330
1F
100
AcDbEntity
  8
slots
  6
Continuous
370
    15
100
AcDbLine
 10
1.5
 20
-48.5
 30
0.0
 11
1.5
 21
-41.5
 31
0.0
  0
LINE
  5
350
330
1F
100
AcDbEntity
  8
slots
  6
Continuous
370
    15
100
AcDbLine
 10
4.5
 20
-38.5
 30
0.0
 11
15.25
 21
-38.5
 31
0.0
  0
LINE
  5
351
330
1F
100
AcDbEntity
  8
slots
  6
Continuous
370
    15
100
AcDbLine
 10
-94.25
 20
44.5
 30
0.0
 11
-83.5
 21
44.5
 31
0.0
  0
LINE
  5
352
330
1F
100
AcDbEntity
  8
slots
  6
Continuous
370
    15
100
AcDbLine
 10
-97.25
 20
54.5
 30
0.0
 11
-97.25
 21
47.5
 31
0.0
  0
LINE
  5
353
330
1F
100
AcDbEntity
  8
slots
  6
Continuous
370
    15
100
AcDbLine
 10
-83.5
 20
57.5
 30
0.0
 11
-94.25
 21
57.5
 31
0.0
  0
LINE
  5
354
330
1F
100
AcDbEntity
  8
slots
  6
Continuous
370
    15
100
AcDbLine
 10
-80.5
 20
47.5
 30
0.0
 11
-80.5
 21
54.5
 31
0.0
  0
LINE
  5
355
330
1F
100
AcDbEntity
  8
slots
  6
Continuous
370
    15
100
AcDbLine
 10
-74.5
 20
44.5
 30
0.0
 11
-63.75
 21
44.5
 31
0.0
  0
LINE
  5
356
330
1F
100
AcDbEntity
  8
slots
  6
Continuous
370
    15
100
AcDbLine
 10
-77.5
 20
54.5
 30
0.0
 11
-77.5
 21
47.5
 31
0.0
  0
LINE
  5
357
330
1F
100
AcDbEntity
  8
slots
  6
Continuous
370
    15
100
AcDbLine
 10
-63.75
 20
57.5
 30
0.0
 11
-74.5
 21
57.5
 31
0.0
  0
LINE
  5
358
330
1F
100
AcDbEntity
  8
slots
  6
Continuous
370
    15
100
AcDbLine
 10
-60.75
 20
47.5
 30
0.0
 11
-60.75
 21
54.5
 31
0.0
  0
LINE
  5
359
330
1F
100
AcDbEntity
  8
slots
  6
Continuous
370
    15
100
AcDbLine
 10
-54.75
 20
44.5
 30
0.0
 11
-44.0
 21
44.5
 31
0.0
  0
LINE
  5
35A
330
1F
100
AcDbEntity
  8
slots
  6
Continuous
370
    15
100
AcDbLine
 10
-57.75
 20
54.5
 30
0.0
 11
-57.75
 21
47.5
 31
0.0
  0
LINE
  5
35B
330
1F
100
AcDbEntity
  8
slots
  6
Continuous
370
    15
100
AcDbLine
 10
-44.0
 20
57.5
 30
0.0
 11
-54.75
 21
57.5
 31
0.0
  0
LINE
  5
35D
330
1F
100
AcDbEntity
  8
slots
  6
Continuous
370
    15
100
AcDbLine
 10
-35.0
 20
44.5
 30
0.0
 11
-24.25
 21
44.5
 31
0.0
  0
LINE
  5
35F
330
1F
100
AcDbEntity
  8
slots
  6
Continuous
370
    15
100
AcDbLine
 10
-24.25
 20
57.5
 30
0.0
 11
-35.0
 21
57.5
 31
0.0
  0
LINE
  5
360
330
1F
100
AcDbEntity
  8
slots
  6
Continuous
370
    15
100
AcDbLine
 10
-21.25
 20
47.5
 30
0.0
 11
-21.25
 21
54.5
 31
0.0
  0
LINE
  5
365
330
1F
100
AcDbEntity
  8
slots
  6
Continuous
370
    15
100
AcDbLine
 10
-94.25
 20
28.5
 30
0.0
 11
-83.5
 21
28.5
 31
0.0
  0
LINE
  5
366
330
1F
100
AcDbEntity
  8
slots
  6
Continuous
370
    15
100
AcDbLine
 10
-97.25
 20
38.5
 30
0.0
 11
-97.25
 21
31.5
 31
0.0
  0
LINE
  5
367
330
1F
100
AcDbEntity
  8
slots
  6
Continuous
370
    15
100
AcDbLine
 10
-83.5
 20
41.5
 30
0.0
 11
-94.25
 21
41.5
 31
0.0
  0
LINE
  5
368
330
1F
100
AcDbEntity
  8
slots
  6
Continuous
370
    15
100
AcDbLine
 10
-80.5
 20
31.5
 30
0.0
 11
-80.5
 21
38.5
 31
0.0
  0
LINE
  5
369
330
1F
100
AcDbEntity
  8
slots
  6
Continuous
370
    15
100
AcDbLine
 10
-74.5
 20
28.5
 30
0.0
 11
-63.75
 21
28.5
 31
0.0
  0
LINE
  5
36A
330
1F
100
AcDbEntity
  8
slots
  6
Continuous
370
    15
100
AcDbLine
 10
-77.5
 20
38.5
 30
0.0
 11
-77.5
 21
31.5
 31
0.0
  0
LINE
  5
36B
330
1F
100
AcDbEntity
  8
slots
  6
Continuous
370
    15
100
AcDbLine
 10
-63.75
 20
41.5
 30
0.0
 11
-74.5
 21
41.5
 31
0.0
  0
LINE
  5
36C
330
1F
100
AcDbEntity
  8
slots
  6
Continuous
370
    15
100
AcDbLine
 10
-60.75
 20
31.5
 30
0.0
 11
-60.75
 21
38.5
 31
0.0
  0
LINE
  5
36D
330
1F
100
AcDbEntity
  8
slots
  6
Continuous
370
    15
100
AcDbLine
 10
-54.75
 20
28.5
 30
0.0
 11
-44.0
 21
28.5
 31
0.0
  0
LINE
  5
36E
330
1F
100
AcDbEntity
  8
slots
  6
Continuous
370
    15
100
AcDbLine
 10
-57.75
 20
38.5
 30
0.0
 11
-57.75
 21
31.5
 31
0.0
  0
LINE
  5
36F
330
1F
100
AcDbEntity
  8
slots
  6
Continuous
370
    15
100
AcDbLine
 10
-44.0
 20
41.5
 30
0.0
 11
-54.75
 21
41.5
 31
0.0
  0
LINE
  5
370
330
1F
100
AcDbEntity
  8
slots
  6
Continuous
370
    15
100
AcDbLine
 10
-41.0
 20
31.5
 30
0.0
 11
-41.0
 21
38.5
 31
0.0
  0
LINE
  5
371
330
1F
100
AcDbEntity
  8
slots
  6
Continuous
370
    15
100
AcDbLine
 10
-35.0
 20
28.5
 30
0.0
 11
-24.25
 21
28.5
 31
0.0
  0
LINE
  5
372
330
1F
100
AcDbEntity
  8
slots
  6
Continuous
370
    15
100
AcDbLine
 10
-38.0
 20
38.5
 30
0.0
 11
-38.0
 21
31.5
 31
0.0
  0
LINE
  5
373
330
1F
100
AcDbEntity
  8
slots
  6
Continuous
370
    15
100
AcDbLine
 10
-24.25
 20
41.5
 30
0.0
 11
-35.0
 21
41.5
 31
0.0
  0
LINE
  5
374
330
1F
100
AcDbEntity
  8
slots
  6
Continuous
370
    15
100
AcDbLine
 10
-21.25
 20
31.5
 30
0.0
 11
-21.25
 21
38.5
 31
0.0
  0
LINE
  5
375
330
1F
100
AcDbEntity
  8
slots
  6
Continuous
370
    15
100
AcDbLine
 10
-15.25
 20
28.5
 30
0.0
 11
-4.5
 21
28.5
 31
0.0
  0
LINE
  5
376
330
1F
100
AcDbEntity
  8
slots
  6
Continuous
370
    15
100
AcDbLine
 10
-18.25
 20
38.5
 30
0.0
 11
-18.25
 21
31.5
 31
0.0
  0
LINE
  5
377
330
1F
100
AcDbEntity
  8
slots
  6
Continuous
370
    15
100
AcDbLine
 10
-4.5
 20
41.5
 30
0.0
 11
-15.25
 21
41.5
 31
0.0
  0
LINE
  5
378
330
1F
100
AcDbEntity
  8
slots
  6
Continuous
370
    15
100
AcDbLine
 10
-1.5
 20
31.5
 30
0.0
 11
-1.5
 21
38.5
 31
0.0
  0
LINE
  5
379
330
1F
100
AcDbEntity
  8
slots
  6
Continuous
370
    15
100
AcDbLine
 10
-94.25
 20
12.5
 30
0.0
 11
-83.5
 21
12.5
 31
0.0
  0
LINE
  5
37A
330
1F
100
AcDbEntity
  8
slots
  6
Continuous
370
    15
100
AcDbLine
 10
-97.25
 20
22.5
 30
0.0
 11
-97.25
 21
15.5
 31
0.0
  0
LINE
  5
37B
330
1F
100
AcDbEntity
  8
slots
  6
Continuous
370
    15
100
AcDbLine
 10
-83.5
 20
25.5
 30
0.0
 11
-94.25
 21
25.5
 31
0.0
  0
LINE
  5
37C
330
1F
100
AcDbEntity
  8
slots
  6
Continuous
370
    15
100
AcDbLine
 10
-80.5
 20
15.5
 30
0.0
 11
-80.5
 21
22.5
 31
0.0
  0
LINE
  5
37D
330
1F
100
AcDbEntity
  8
slots
  6
Continuous
370
    15
100
AcDbLine
 10
-74.5
 20
12.5
 30
0.0
 11
-63.75
 21
12.5
 31
0.0
  0
LINE
  5
37E
330
1F
100
AcDbEntity
  8
slots
  6
Continuous
370
    15
100
AcDbLine
 10
-77.5
 20
22.5
 30
0.0
 11
-77.5
 21
15.5
 31
0.0
  0
LINE
  5
37F
330
1F
100
AcDbEntity
  8
slots
  6
Continuous
370
    15
100
AcDbLine
 10
-63.75
 20
25.5
 30
0.0
 11
-74.5
 21
25.5
 31
0.0
  0
LINE
  5
380
330
1F
100
AcDbEntity
  8
slots
  6
Continuous
370
    15
100
AcDbLine
 10
-60.75
 20
15.5
 30
0.0
 11
-60.75
 21
22.5
 31
0.0
  0
LINE
  5
381
330
1F
100
AcDbEntity
  8
slots
  6
Continuous
370
    15
100
AcDbLine
 10
-54.75
 20
12.5
 30
0.0
 11
-44.0
 21
12.5
 31
0.0
  0
LINE
  5
382
330
1F
100
AcDbEntity
  8
slots
  6
Continuous
370
    15
100
AcDbLine
 10
-57.75
 20
22.5
 30
0.0
 11
-57.75
 21
15.5
 31
0.0
  0
LINE
  5
383
330
1F
100
AcDbEntity
  8
slots
  6
Continuous
370
    15
100
AcDbLine
 10
-44.0
 20
25.5
 30
0.0
 11
-54.75
 21
25.5
 31
0.0
  0
LINE
  5
384
330
1F
100
AcDbEntity
  8
slots
  6
Continuous
370
    15
100
AcDbLine
 10
-41.0
 20
15.5
 30
0.0
 11
-41.0
 21
22.5
 31
0.0
  0
LINE
  5
385
330
1F
100
AcDbEntity
  8
slots
  6
Continuous
370
    15
100
AcDbLine
 10
-35.0
 20
12.5
 30
0.0
 11
-24.25
 21
12.5
 31
0.0
  0
LINE
  5
386
330
1F
100
AcDbEntity
  8
slots
  6
Continuous
370
    15
100
AcDbLine
 10
-38.0
 20
22.5
 30
0.0
 11
-38.0
 21
15.5
 31
0.0
  0
LINE
  5
387
330
1F
100
AcDbEntity
  8
slots
  6
Continuous
370
    15
100
AcDbLine
 10
-24.25
 20
25.5
 30
0.0
 11
-35.0
 21
25.5
 31
0.0
  0
LINE
  5
388
330
1F
100
AcDbEntity
  8
slots
  6
Continuous
370
    15
100
AcDbLine
 10
-21.25
 20
15.5
 30
0.0
 11
-21.25
 21
22.5
 31
0.0
  0
LINE
  5
389
330
1F
100
AcDbEntity
  8
slots
  6
Continuous
370
    15
100
AcDbLine
 10
-15.25
 20
12.5
 30
0.0
 11
-4.5
 21
12.5
 31
0.0
  0
LINE
  5
38A
330
1F
100
AcDbEntity
  8
slots
  6
Continuous
370
    15
100
AcDbLine
 10
-18.25
 20
22.5
 30
0.0
 11
-18.25
 21
15.5
 31
0.0
  0
LINE
  5
38B
330
1F
100
AcDbEntity
  8
slots
  6
Continuous
370
    15
100
AcDbLine
 10
-4.5
 20
25.5
 30
0.0
 11
-15.25
 21
25.5
 31
0.0
  0
LINE
  5
38C
330
1F
100
AcDbEntity
  8
slots
  6
Continuous
370
    15
100
AcDbLine
 10
-1.5
 20
15.5
 30
0.0
 11
-1.5
 21
22.5
 31
0.0
  0
LINE
  5
38D
330
1F
100
AcDbEntity
  8
slots
  6
Continuous
370
    15
100
AcDbLine
 10
-94.25
 20
-3.5
 30
0.0
 11
-83.5
 21
-3.5
 31
0.0
  0
LINE
  5
38E
330
1F
100
AcDbEntity
  8
slots
  6
Continuous
370
    15
100
AcDbLine
 10
-97.25
 20
6.5
 30
0.0
 11
-97.25
 21
-0.5
 31
0.0
  0
LINE
  5
38F
330
1F
100
AcDbEntity
  8
slots
  6
Continuous
370
    15
100
AcDbLine
 10
-83.5
 20
9.5
 30
0.0
 11
-94.25
 21
9.5
 31
0.0
  0
LINE
  5
390
330
1F
100
AcDbEntity
  8
slots
  6
Continuous
370
    15
100
AcDbLine
 10
-80.5
 20
-0.5
 30
0.0
 11
-80.5
 21
6.5
 31
0.0
  0
LINE
  5
391
330
1F
100
AcDbEntity
  8
slots
  6
Continuous
370
    15
100
AcDbLine
 10
-74.5
 20
-3.5
 30
0.0
 11
-63.75
 21
-3.5
 31
0.0
  0
LINE
  5
392
330
1F
100
AcDbEntity
  8
slots
  6
Continuous
370
    15
100
AcDbLine
 10
-77.5
 20
6.5
 30
0.0
 11
-77.5
 21
-0.5
 31
0.0
  0
LINE
  5
393
330
1F
100
AcDbEntity
  8
slots
  6
Continuous
370
    15
100
AcDbLine
 10
-63.75
 20
9.5
 30
0.0
 11
-74.5
 21
9.5
 31
0.0
  0
LINE
  5
394
330
1F
100
AcDbEntity
  8
slots
  6
Continuous
370
    15
100
AcDbLine
 10
-60.75
 20
-0.5
 30
0.0
 11
-60.75
 21
6.5
 31
0.0
  0
LINE
  5
395
330
1F
100
AcDbEntity
  8
slots
  6
Continuous
370
    15
100
AcDbLine
 10
-54.75
 20
-3.5
 30
0.0
 11
-44.0
 21
-3.5
 31
0.0
  0
LINE
  5
396
330
1F
100
AcDbEntity
  8
slots
  6
Continuous
370
    15
100
AcDbLine
 10
-57.75
 20
6.5
 30
0.0
 11
-57.75
 21
-0.5
 31
0.0
  0
LINE
  5
397
330
1F
100
AcDbEntity
  8
slots
  6
Continuous
370
    15
100
AcDbLine
 10
-44.0
 20
9.5
 30
0.0
 11
-54.75
 21
9.5
 31
0.0
  0
LINE
  5
398
330
1F
100
AcDbEntity
  8
slots
  6
Continuous
370
    15
100
AcDbLine
 10
-41.0
 20
-0.5
 30
0.0
 11
-41.0
 21
6.5
 31
0.0
  0
LINE
  5
399
330
1F
100
AcDbEntity
  8
slots
  6
Continuous
370
    15
100
AcDbLine
 10
-35.0
 20
-3.5
 30
0.0
 11
-24.25
 21
-3.5
 31
0.0
  0
LINE
  5
39A
330
1F
100
AcDbEntity
  8
slots
  6
Continuous
370
    15
100
AcDbLine
 10
-38.0
 20
6.5
 30
0.0
 11
-38.0
 21
-0.5
 31
0.0
  0
LINE
  5
39B
330
1F
100
AcDbEntity
  8
slots
  6
Continuous
370
    15
100
AcDbLine
 10
-24.25
 20
9.5
 30
0.0
 11
-35.0
 21
9.5
 31
0.0
  0
LINE
  5
39C
330
1F
100
AcDbEntity
  8
slots
  6
Continuous
370
    15
100
AcDbLine
 10
-21.25
 20
-0.5
 30
0.0
 11
-21.25
 21
6.5
 31
0.0
  0
LINE
  5
39D
330
1F
100
AcDbEntity
  8
slots
  6
Continuous
370
    15
100
AcDbLine
 10
-15.25
 20
-3.5
 30
0.0
 11
-4.5
 21
-3.5
 31
0.0
  0
LINE
  5
39E
330
1F
100
AcDbEntity
  8
slots
  6
Continuous
370
    15
100
AcDbLine
 10
-18.25
 20
6.5
 30
0.0
 11
-18.25
 21
-0.5
 31
0.0
  0
LINE
  5
39F
330
1F
100
AcDbEntity
  8
slots
  6
Continuous
370
    15
100
AcDbLine
 10
-4.5
 20
9.5
 30
0.0
 11
-15.25
 21
9.5
 31
0.0
  0
LINE
  5
3A0
330
1F
100
AcDbEntity
  8
slots
  6
Continuous
370
    15
100
AcDbLine
 10
-1.5
 20
-0.5
 30
0.0
 11
-1.5
 21
6.5
 31
0.0
  0
LINE
  5
3A1
330
1F
100
AcDbEntity
  8
slots
  6
Continuous
370
    15
100
AcDbLine
 10
-94.25
 20
-19.5
 30
0.0
 11
-83.5
 21
-19.5
 31
0.0
  0
LINE
  5
3A2
330
1F
100
AcDbEntity
  8
slots
  6
Continuous
370
    15
100
AcDbLine
 10
-97.25
 20
-9.5
 30
0.0
 11
-97.25
 21
-16.5
 31
0.0
  0
LINE
  5
3A3
330
1F
100
AcDbEntity
  8
slots
  6
Continuous
370
    15
100
AcDbLine
 10
-83.5
 20
-6.5
 30
0.0
 11
-94.25
 21
-6.5
 31
0.0
  0
LINE
  5
3A4
330
1F
100
AcDbEntity
  8
slots
  6
Continuous
370
    15
100
AcDbLine
 10
-80.5
 20
-16.5
 30
0.0
 11
-80.5
 21
-9.5
 31
0.0
  0
LINE
  5
3A5
330
1F
100
AcDbEntity
  8
slots
  6
Continuous
370
    15
100
AcDbLine
 10
-74.5
 20
-19.5
 30
0.0
 11
-63.75
 21
-19.5
 31
0.0
  0
LINE
  5
3A6
330
1F
100
AcDbEntity
  8
slots
  6
Continuous
370
    15
100
AcDbLine
 10
-77.5
 20
-9.5
 30
0.0
 11
-77.5
 21
-16.5
 31
0.0
  0
LINE
  5
3A7
330
1F
100
AcDbEntity
  8
slots
  6
Continuous
370
    15
100
AcDbLine
 10
-63.75
 20
-6.5
 30
0.0
 11
-74.5
 21
-6.5
 31
0.0
  0
LINE
  5
3A8
330
1F
100
AcDbEntity
  8
slots
  6
Continuous
370
    15
100
AcDbLine
 10
-60.75
 20
-16.5
 30
0.0
 11
-60.75
 21
-9.5
 31
0.0
  0
LINE
  5
3A9
330
1F
100
AcDbEntity
  8
slots
  6
Continuous
370
    15
100
AcDbLine
 10
-54.75
 20
-19.5
 30
0.0
 11
-44.0
 21
-19.5
 31
0.0
  0
LINE
  5
3AA
330
1F
100
AcDbEntity
  8
slots
  6
Continuous
370
    15
100
AcDbLine
 10
-57.75
 20
-9.5
 30
0.0
 11
-57.75
 21
-16.5
 31
0.0
  0
LINE
  5
3AB
330
1F
100
AcDbEntity
  8
slots
  6
Continuous
370
    15
100
AcDbLine
 10
-44.0
 20
-6.5
 30
0.0
 11
-54.75
 21
-6.5
 31
0.0
  0
LINE
  5
3AC
330
1F
100
AcDbEntity
  8
slots
  6
Continuous
370
    15
100
AcDbLine
 10
-41.0
 20
-16.5
 30
0.0
 11
-41.0
 21
-9.5
 31
0.0
  0
LINE
  5
3AD
330
1F
100
AcDbEntity
  8
slots
  6
Continuous
370
    15
100
AcDbLine
 10
-35.0
 20
-19.5
 30
0.0
 11
-24.25
 21
-19.5
 31
0.0
  0
LINE
  5
3AE
330
1F
100
AcDbEntity
  8
slots
  6
Continuous
370
    15
100
AcDbLine
 10
-38.0
 20
-9.5
 30
0.0
 11
-38.0
 21
-16.5
 31
0.0
  0
LINE
  5
3AF
330
1F
100
AcDbEntity
  8
slots
  6
Continuous
370
    15
100
AcDbLine
 10
-24.25
 20
-6.5
 30
0.0
 11
-35.0
 21
-6.5
 31
0.0
  0
LINE
  5
3B0
330
1F
100
AcDbEntity
  8
slots
  6
Continuous
370
    15
100
AcDbLine
 10
-21.25
 20
-16.5
 30
0.0
 11
-21.25
 21
-9.5
 31
0.0
  0
LINE
  5
3B1
330
1F
100
AcDbEntity
  8
slots
  6
Continuous
370
    15
100
AcDbLine
 10
-15.25
 20
-19.5
 30
0.0
 11
-4.5
 21
-19.5
 31
0.0
  0
LINE
  5
3B2
330
1F
100
AcDbEntity
  8
slots
  6
Continuous
370
    15
100
AcDbLine
 10
-18.25
 20
-9.5
 30
0.0
 11
-18.25
 21
-16.5
 31
0.0
  0
LINE
  5
3B3
330
1F
100
AcDbEntity
  8
slots
  6
Continuous
370
    15
100
AcDbLine
 10
-4.5
 20
-6.5
 30
0.0
 11
-15.25
 21
-6.5
 31
0.0
  0
LINE
  5
3B4
330
1F
100
AcDbEntity
  8
slots
  6
Continuous
370
    15
100
AcDbLine
 10
-1.5
 20
-16.5
 30
0.0
 11
-1.5
 21
-9.5
 31
0.0
  0
LINE
  5
3B5
330
1F
100
AcDbEntity
  8
slots
  6
Continuous
370
    15
100
AcDbLine
 10
-94.25
 20
-35.5
 30
0.0
 11
-83.5
 21
-35.5
 31
0.0
  0
LINE
  5
3B6
330
1F
100
AcDbEntity
  8
slots
  6
Continuous
370
    15
100
AcDbLine
 10
-97.25
 20
-25.5
 30
0.0
 11
-97.25
 21
-32.5
 31
0.0
  0
LINE
  5
3B7
330
1F
100
AcDbEntity
  8
slots
  6
Continuous
370
    15
100
AcDbLine
 10
-83.5
 20
-22.5
 30
0.0
 11
-94.25
 21
-22.5
 31
0.0
  0
LINE
  5
3B8
330
1F
100
AcDbEntity
  8
slots
  6
Continuous
370
    15
100
AcDbLine
 10
-80.5
 20
-32.5
 30
0.0
 11
-80.5
 21
-25.5
 31
0.0
  0
LINE
  5
3B9
330
1F
100
AcDbEntity
  8
slots
  6
Continuous
370
    15
100
AcDbLine
 10
-74.5
 20
-35.5
 30
0.0
 11
-63.75
 21
-35.5
 31
0.0
  0
LINE
  5
3BA
330
1F
100
AcDbEntity
  8
slots
  6
Continuous
370
    15
100
AcDbLine
 10
-77.5
 20
-25.5
 30
0.0
 11
-77.5
 21
-32.5
 31
0.0
  0
LINE
  5
3BB
330
1F
100
AcDbEntity
  8
slots
  6
Continuous
370
    15
100
AcDbLine
 10
-63.75
 20
-22.5
 30
0.0
 11
-74.5
 21
-22.5
 31
0.0
  0
LINE
  5
3BC
330
1F
100
AcDbEntity
  8
slots
  6
Continuous
370
    15
100
AcDbLine
 10
-60.75
 20
-32.5
 30
0.0
 11
-60.75
 21
-25.5
 31
0.0
  0
LINE
  5
3BD
330
1F
100
AcDbEntity
  8
slots
  6
Continuous
370
    15
100
AcDbLine
 10
-54.75
 20
-35.5
 30
0.0
 11
-44.0
 21
-35.5
 31
0.0
  0
LINE
  5
3BE
330
1F
100
AcDbEntity
  8
slots
  6
Continuous
370
    15
100
AcDbLine
 10
-57.75
 20
-25.5
 30
0.0
 11
-57.75
 21
-32.5
 31
0.0
  0
LINE
  5
3BF
330
1F
100
AcDbEntity
  8
slots
  6
Continuous
370
    15
100
AcDbLine
 10
-44.0
 20
-22.5
 30
0.0
 11
-54.75
 21
-22.5
 31
0.0
  0
LINE
  5
3C0
330
1F
100
AcDbEntity
  8
slots
  6
Continuous
370
    15
100
AcDbLine
 10
-41.0
 20
-32.5
 30
0.0
 11
-41.0
 21
-25.5
 31
0.0
  0
LINE
  5
3C1
330
1F
100
AcDbEntity
  8
slots
  6
Continuous
370
    15
100
AcDbLine
 10
-35.0
 20
-35.5
 30
0.0
 11
-24.25
 21
-35.5
 31
0.0
  0
LINE
  5
3C2
330
1F
100
AcDbEntity
  8
slots
  6
Continuous
370
    15
100
AcDbLine
 10
-38.0
 20
-25.5
 30
0.0
 11
-38.0
 21
-32.5
 31
0.0
  0
LINE
  5
3C3
330
1F
100
AcDbEntity
  8
slots
  6
Continuous
370
    15
100
AcDbLine
 10
-24.25
 20
-22.5
 30
0.0
 11
-35.0
 21
-22.5
 31
0.0
  0
LINE
  5
3C4
330
1F
100
AcDbEntity
  8
slots
  6
Continuous
370
    15
100
AcDbLine
 10
-21.25
 20
-32.5
 30
0.0
 11
-21.25
 21
-25.5
 31
0.0
  0
LINE
  5
3C5
330
1F
100
AcDbEntity
  8
slots
  6
Continuous
370
    15
100
AcDbLine
 10
-15.25
 20
-35.5
 30
0.0
 11
-4.5
 21
-35.5
 31
0.0
  0
LINE
  5
3C6
330
1F
100
AcDbEntity
  8
slots
  6
Continuous
370
    15
100
AcDbLine
 10
-18.25
 20
-25.5
 30
0.0
 11
-18.25
 21
-32.5
 31
0.0
  0
LINE
  5
3C7
330
1F
100
AcDbEntity
  8
slots
  6
Continuous
370
    15
100
AcDbLine
 10
-4.5
 20
-22.5
 30
0.0
 11
-15.25
 21
-22.5
 31
0.0
  0
LINE
  5
3C8
330
1F
100
AcDbEntity
  8
slots
  6
Continuous
370
    15
100
AcDbLine
 10
-1.5
 20
-32.5
 30
0.0
 11
-1.5
 21
-25.5
 31
0.0
  0
LINE
  5
3C9
330
1F
100
AcDbEntity
  8
slots
  6
Continuous
370
    15
100
AcDbLine
 10
-94.25
 20
-51.5
 30
0.0
 11
-83.5
 21
-51.5
 31
0.0
  0
LINE
  5
3CA
330
1F
100
AcDbEntity
  8
slots
  6
Continuous
370
    15
100
AcDbLine
 10
-97.25
 20
-41.5
 30
0.0
 11
-97.25
 21
-48.5
 31
0.0
  0
LINE
  5
3CB
330
1F
100
AcDbEntity
  8
slots
  6
Continuous
370
    15
100
AcDbLine
 10
-83.5
 20
-38.5
 30
0.0
 11
-94.25
 21
-38.5
 31
0.0
  0
LINE
  5
3CC
330
1F
100
AcDbEntity
  8
slots
  6
Continuous
370
    15
100
AcDbLine
 10
-80.5
 20
-48.5
 30
0.0
 11
-80.5
 21
-41.5
 31
0.0
  0
LINE
  5
3CD
330
1F
100
AcDbEntity
  8
slots
  6
Continuous
370
    15
100
AcDbLine
 10
-74.5
 20
-51.5
 30
0.0
 11
-63.75
 21
-51.5
 31
0.0
  0
LINE
  5
3CE
330
1F
100
AcDbEntity
  8
slots
  6
Continuous
370
    15
100
AcDbLine
 10
-77.5
 20
-41.5
 30
0.0
 11
-77.5
 21
-48.5
 31
0.0
  0
LINE
  5
3CF
330
1F
100
AcDbEntity
  8
slots
  6
Continuous
370
    15
100
AcDbLine
 10
-63.75
 20
-38.5
 30
0.0
 11
-74.5
 21
-38.5
 31
0.0
  0
LINE
  5
3D0
330
1F
100
AcDbEntity
  8
slots
  6
Continuous
370
    15
100
AcDbLine
 10
-60.75
 20
-48.5
 30
0.0
 11
-60.75
 21
-41.5
 31
0.0
  0
LINE
  5
3D1
330
1F
100
AcDbEntity
  8
slots
  6
Continuous
370
    15
100
AcDbLine
 10
-54.75
 20
-51.5
 30
0.0
 11
-44.0
 21
-51.5
 31
0.0
  0
LINE
  5
3D2
330
1F
100
AcDbEntity
  8
slots
  6
Continuous
370
    15
100
AcDbLine
 10
-57.75
 20
-41.5
 30
0.0
 11
-57.75
 21
-48.5
 31
0.0
  0
LINE
  5
3D3
330
1F
100
AcDbEntity
  8
slots
  6
Continuous
370
    15
100
AcDbLine
 10
-44.0
 20
-38.5
 30
0.0
 11
-54.75
 21
-38.5
 31
0.0
  0
LINE
  5
3D4
330
1F
100
AcDbEntity
  8
slots
  6
Continuous
370
    15
100
AcDbLine
 10
-41.0
 20
-48.5
 30
0.0
 11
-41.0
 21
-41.5
 31
0.0
  0
LINE
  5
3D5
330
1F
100
AcDbEntity
  8
slots
  6
Continuous
370
    15
100
AcDbLine
 10
-35.0
 20
-51.5
 30
0.0
 11
-24.25
 21
-51.5
 31
0.0
  0
LINE
  5
3D6
330
1F
100
AcDbEntity
  8
slots
  6
Continuous
370
    15
100
AcDbLine
 10
-38.0
 20
-41.5
 30
0.0
 11
-38.0
 21
-48.5
 31
0.0
  0
LINE
  5
3D7
330
1F
100
AcDbEntity
  8
slots
  6
Continuous
370
    15
100
AcDbLine
 10
-24.25
 20
-38.5
 30
0.0
 11
-35.0
 21
-38.5
 31
0.0
  0
LINE
  5
3D8
330
1F
100
AcDbEntity
  8
slots
  6
Continuous
370
    15
100
AcDbLine
 10
-21.25
 20
-48.5
 30
0.0
 11
-21.25
 21
-41.5
 31
0.0
  0
LINE
  5
3D9
330
1F
100
AcDbEntity
  8
slots
  6
Continuous
370
    15
100
AcDbLine
 10
-15.25
 20
-51.5
 30
0.0
 11
-4.5
 21
-51.5
 31
0.0
  0
LINE
  5
3DA
330
1F
100
AcDbEntity
  8
slots
  6
Continuous
370
    15
100
AcDbLine
 10
-18.25
 20
-41.5
 30
0.0
 11
-18.25
 21
-48.5
 31
0.0
  0
LINE
  5
3DB
330
1F
100
AcDbEntity
  8
slots
  6
Continuous
370
    15
100
AcDbLine
 10
-4.5
 20
-38.5
 30
0.0
 11
-15.25
 21
-38.5
 31
0.0
  0
LINE
  5
3DC
330
1F
100
AcDbEntity
  8
slots
  6
Continuous
370
    15
100
AcDbLine
 10
-1.5
 20
-48.5
 30
0.0
 11
-1.5
 21
-41.5
 31
0.0
  0
LINE
  5
3DD
330
1F
100
AcDbEntity
  8
slots
  6
Continuous
370
    15
100
AcDbLine
 10
-94.25
 20
-67.5
 30
0.0
 11
-83.5
 21
-67.5
 31
0.0
  0
LINE
  5
3DE
330
1F
100
AcDbEntity
  8
slots
  6
Continuous
370
    15
100
AcDbLine
 10
-97.25
 20
-57.5
 30
0.0
 11
-97.25
 21
-64.5
 31
0.0
  0
LINE
  5
3DF
330
1F
100
AcDbEntity
  8
slots
  6
Continuous
370
    15
100
AcDbLine
 10
-83.5
 20
-54.5
 30
0.0
 11
-94.25
 21
-54.5
 31
0.0
  0
LINE
  5
3E0
330
1F
100
AcDbEntity
  8
slots
  6
Continuous
370
    15
100
AcDbLine
 10
-80.5
 20
-64.5
 30
0.0
 11
-80.5
 21
-57.5
 31
0.0
  0
LINE
  5
3E1
330
1F
100
AcDbEntity
  8
slots
  6
Continuous
370
    15
100
AcDbLine
 10
-74.5
 20
-67.5
 30
0.0
 11
-63.75
 21
-67.5
 31
0.0
  0
LINE
  5
3E2
330
1F
100
AcDbEntity
  8
slots
  6
Continuous
370
    15
100
AcDbLine
 10
-77.5
 20
-57.5
 30
0.0
 11
-77.5
 21
-64.5
 31
0.0
  0
LINE
  5
3E3
330
1F
100
AcDbEntity
  8
slots
  6
Continuous
370
    15
100
AcDbLine
 10
-63.75
 20
-54.5
 30
0.0
 11
-74.5
 21
-54.5
 31
0.0
  0
LINE
  5
3E4
330
1F
100
AcDbEntity
  8
slots
  6
Continuous
370
    15
100
AcDbLine
 10
-60.75
 20
-64.5
 30
0.0
 11
-60.75
 21
-57.5
 31
0.0
  0
LINE
  5
3E5
330
1F
100
AcDbEntity
  8
slots
  6
Continuous
370
    15
100
AcDbLine
 10
-54.75
 20
-67.5
 30
0.0
 11
-44.0
 21
-67.5
 31
0.0
  0
LINE
  5
3E6
330
1F
100
AcDbEntity
  8
slots
  6
Continuous
370
    15
100
AcDbLine
 10
-57.75
 20
-57.5
 30
0.0
 11
-57.75
 21
-64.5
 31
0.0
  0
LINE
  5
3E7
330
1F
100
AcDbEntity
  8
slots
  6
Continuous
370
    15
100
AcDbLine
 10
-44.0
 20
-54.5
 30
0.0
 11
-54.75
 21
-54.5
 31
0.0
  0
LINE
  5
3E8
330
1F
100
AcDbEntity
  8
slots
  6
Continuous
370
    15
100
AcDbLine
 10
-41.0
 20
-64.5
 30
0.0
 11
-41.0
 21
-57.5
 31
0.0
  0
LINE
  5
3E9
330
1F
100
AcDbEntity
  8
slots
  6
Continuous
370
    15
100
AcDbLine
 10
-24.25
 20
-54.5
 30
0.0
 11
-35.0
 21
-54.5
 31
0.0
  0
LINE
  5
3EA
330
1F
100
AcDbEntity
  8
slots
  6
Continuous
370
    15
100
AcDbLine
 10
-21.25
 20
-64.5
 30
0.0
 11
-21.25
 21
-57.5
 31
0.0
  0
LINE
  5
3EB
330
1F
100
AcDbEntity
  8
slots
  6
Continuous
370
    15
100
AcDbLine
 10
-35.0
 20
-67.5
 30
0.0
 11
-24.25
 21
-67.5
 31
0.0
  0
LINE
  5
3EC
330
1F
100
AcDbEntity
  8
slots
  6
Continuous
370
    15
100
AcDbLine
 10
-38.0
 20
-57.5
 30
0.0
 11
-38.0
 21
-64.5
 31
0.0
  0
LINE
  5
3ED
330
1F
100
AcDbEntity
  8
slots
  6
Continuous
370
    15
100
AcDbLine
 10
-18.25
 20
-57.5
 30
0.0
 11
-18.25
 21
-64.5
 31
0.0
  0
LINE
  5
3EE
330
1F
100
AcDbEntity
  8
slots
  6
Continuous
370
    15
100
AcDbLine
 10
-4.5
 20
-54.5
 30
0.0
 11
-15.25
 21
-54.5
 31
0.0
  0
LINE
  5
3EF
330
1F
100
AcDbEntity
  8
slots
  6
Continuous
370
    15
100
AcDbLine
 10
-1.5
 20
-64.5
 30
0.0
 11
-1.5
 21
-57.5
 31
0.0
  0
LINE
  5
3F0
330
1F
100
AcDbEntity
  8
slots
  6
Continuous
370
    15
100
AcDbLine
 10
-15.25
 20
-67.5
 30
0.0
 11
-4.5
 21
-67.5
 31
0.0
  0
LINE
  5
3F1
330
1F
100
AcDbEntity
  8
slots
  6
Continuous
370
    15
100
AcDbLine
 10
18.25
 20
-57.5
 30
0.0
 11
18.25
 21
-64.5
 31
0.0
  0
LINE
  5
3F2
330
1F
100
AcDbEntity
  8
slots
  6
Continuous
370
    15
100
AcDbLine
 10
15.25
 20
-67.5
 30
0.0
 11
4.5
 21
-67.5
 31
0.0
  0
LINE
  5
3F3
330
1F
100
AcDbEntity
  8
slots
  6
Continuous
370
    15
100
AcDbLine
 10
1.5
 20
-64.5
 30
0.0
 11
1.5
 21
-57.5
 31
0.0
  0
LINE
  5
3F4
330
1F
100
AcDbEntity
  8
slots
  6
Continuous
370
    15
100
AcDbLine
 10
4.5
 20
-54.5
 30
0.0
 11
15.25
 21
-54.5
 31
0.0
  0
LINE
  5
3F5
330
1F
100
AcDbEntity
  8
slots
  6
Continuous
370
    15
100
AcDbLine
 10
18.25
 20
-25.5
 30
0.0
 11
18.25
 21
-32.5
 31
0.0
  0
LINE
  5
3F6
330
1F
100
AcDbEntity
  8
slots
  6
Continuous
370
    15
100
AcDbLine
 10
15.25
 20
-35.5
 30
0.0
 11
4.5
 21
-35.5
 31
0.0
  0
LINE
  5
3F7
330
1F
100
AcDbEntity
  8
slots
  6
Continuous
370
    15
100
AcDbLine
 10
1.5
 20
-32.5
 30
0.0
 11
1.5
 21
-25.5
 31
0.0
  0
LINE
  5
3F8
330
1F
100
AcDbEntity
  8
slots
  6
Continuous
370
    15
100
AcDbLine
 10
4.5
 20
-22.5
 30
0.0
 11
15.25
 21
-22.5
 31
0.0
  0
LINE
  5
3F9
330
1F
100
AcDbEntity
  8
slots
  6
Continuous
370
    15
100
AcDbLine
 10
18.25
 20
6.5
 30
0.0
 11
18.25
 21
-0.5
 31
0.0
  0
LINE
  5
3FA
330
1F
100
AcDbEntity
  8
slots
  6
Continuous
370
    15
100
AcDbLine
 10
15.25
 20
-3.5
 30
0.0
 11
4.5
 21
-3.5
 31
0.0
  0
LINE
  5
3FB
330
1F
100
AcDbEntity
  8
slots
  6
Continuous
370
    15
100
AcDbLine
 10
1.5
 20
-0.5
 30
0.0
 11
1.5
 21
6.5
 31
0.0
  0
LINE
  5
3FC
330
1F
100
AcDbEntity
  8
slots
  6
Continuous
370
    15
100
AcDbLine
 10
4.5
 20
9.5
 30
0.0
 11
15.25
 21
9.5
 31
0.0
  0
LINE
  5
3FD
330
1F
100
AcDbEntity
  8
slots
  6
Continuous
370
    15
100
AcDbLine
 10
18.25
 20
38.5
 30
0.0
 11
18.25
 21
31.5
 31
0.0
  0
LINE
  5
3FE
330
1F
100
AcDbEntity
  8
slots
  6
Continuous
370
    15
100
AcDbLine
 10
15.25
 20
28.5
 30
0.0
 11
4.5
 21
28.5
 31
0.0
  0
LINE
  5
3FF
330
1F
100
AcDbEntity
  8
slots
  6
Continuous
370
    15
100
AcDbLine
 10
1.5
 20
31.5
 30
0.0
 11
1.5
 21
38.5
 31
0.0
  0
LINE
  5
400
330
1F
100
AcDbEntity
  8
slots
  6
Continuous
370
    15
100
AcDbLine
 10
4.5
 20
41.5
 30
0.0
 11
15.25
 21
41.5
 31
0.0
  0
LINE
  5
401
330
1F
100
AcDbEntity
  8
slots
  6
Continuous
370
    15
100
AcDbLine
 10
38.0
 20
-57.5
 30
0.0
 11
38.0
 21
-64.5
 31
0.0
  0
LINE
  5
402
330
1F
100
AcDbEntity
  8
slots
  6
Continuous
370
    15
100
AcDbLine
 10
35.0
 20
-67.5
 30
0.0
 11
24.25
 21
-67.5
 31
0.0
  0
LINE
  5
403
330
1F
100
AcDbEntity
  8
slots
  6
Continuous
370
    15
100
AcDbLine
 10
21.25
 20
-64.5
 30
0.0
 11
21.25
 21
-57.5
 31
0.0
  0
LINE
  5
404
330
1F
100
AcDbEntity
  8
slots
  6
Continuous
370
    15
100
AcDbLine
 10
24.25
 20
-54.5
 30
0.0
 11
35.0
 21
-54.5
 31
0.0
  0
LINE
  5
405
330
1F
100
AcDbEntity
  8
slots
  6
Continuous
370
    15
100
AcDbLine
 10
38.0
 20
-25.5
 30
0.0
 11
38.0
 21
-32.5
 31
0.0
  0
LINE
  5
406
330
1F
100
AcDbEntity
  8
slots
  6
Continuous
370
    15
100
AcDbLine
 10
35.0
 20
-35.5
 30
0.0
 11
24.25
 21
-35.5
 31
0.0
  0
LINE
  5
407
330
1F
100
AcDbEntity
  8
slots
  6
Continuous
370
    15
100
AcDbLine
 10
21.25
 20
-32.5
 30
0.0
 11
21.25
 21
-25.5
 31
0.0
  0
LINE
  5
408
330
1F
100
AcDbEntity
  8
slots
  6
Continuous
370
    15
100
AcDbLine
 10
24.25
 20
-22.5
 30
0.0
 11
35.0
 21
-22.5
 31
0.0
  0
LINE
  5
409
330
1F
100
AcDbEntity
  8
slots
  6
Continuous
370
    15
100
AcDbLine
 10
38.0
 20
6.5
 30
0.0
 11
38.0
 21
-0.5
 31
0.0
  0
LINE
  5
40A
330
1F
100
AcDbEntity
  8
slots
  6
Continuous
370
    15
100
AcDbLine
 10
35.0
 20
-3.5
 30
0.0
 11
24.25
 21
-3.5
 31
0.0
  0
LINE
  5
40B
330
1F
100
AcDbEntity
  8
slots
  6
Continuous
370
    15
100
AcDbLine
 10
21.25
 20
-0.5
 30
0.0
 11
21.25
 21
6.5
 31
0.0
  0
LINE
  5
40C
330
1F
100
AcDbEntity
  8
slots
  6
Continuous
370
    15
100
AcDbLine
 10
24.25
 20
9.5
 30
0.0
 11
35.0
 21
9.5
 31
0.0
  0
LINE
  5
40D
330
1F
100
AcDbEntity
  8
slots
  6
Continuous
370
    15
100
AcDbLine
 10
38.0
 20
38.5
 30
0.0
 11
38.0
 21
31.5
 31
0.0
  0
LINE
  5
40E
330
1F
100
AcDbEntity
  8
slots
  6
Continuous
370
    15
100
AcDbLine
 10
35.0
 20
28.5
 30
0.0
 11
24.25
 21
28.5
 31
0.0
  0
LINE
  5
40F
330
1F
100
AcDbEntity
  8
slots
  6
Continuous
370
    15
100
AcDbLine
 10
21.25
 20
31.5
 30
0.0
 11
21.25
 21
38.5
 31
0.0
  0
LINE
  5
410
330
1F
100
AcDbEntity
  8
slots
  6
Continuous
370
    15
100
AcDbLine
 10
24.25
 20
41.5
 30
0.0
 11
35.0
 21
41.5
 31
0.0
  0
LINE
  5
411
330
1F
100
AcDbEntity
  8
slots
  6
Continuous
370
    15
100
AcDbLine
 10
57.75
 20
-57.5
 30
0.0
 11
57.75
 21
-64.5
 31
0.0
  0
LINE
  5
412
330
1F
100
AcDbEntity
  8
slots
  6
Continuous
370
    15
100
AcDbLine
 10
54.75
 20
-67.5
 30
0.0
 11
44.0
 21
-67.5
 31
0.0
  0
LINE
  5
413
330
1F
100
AcDbEntity
  8
slots
  6
Continuous
370
    15
100
AcDbLine
 10
41.0
 20
-64.5
 30
0.0
 11
41.0
 21
-57.5
 31
0.0
  0
LINE
  5
414
330
1F
100
AcDbEntity
  8
slots
  6
Continuous
370
    15
100
AcDbLine
 10
44.0
 20
-54.5
 30
0.0
 11
54.75
 21
-54.5
 31
0.0
  0
LINE
  5
415
330
1F
100
AcDbEntity
  8
slots
  6
Continuous
370
    15
100
AcDbLine
 10
57.75
 20
-25.5
 30
0.0
 11
57.75
 21
-32.5
 31
0.0
  0
LINE
  5
416
330
1F
100
AcDbEntity
  8
slots
  6
Continuous
370
    15
100
AcDbLine
 10
54.75
 20
-35.5
 30
0.0
 11
44.0
 21
-35.5
 31
0.0
  0
LINE
  5
417
330
1F
100
AcDbEntity
  8
slots
  6
Continuous
370
    15
100
AcDbLine
 10
41.0
 20
-32.5
 30
0.0
 11
41.0
 21
-25.5
 31
0.0
  0
LINE
  5
418
330
1F
100
AcDbEntity
  8
slots
  6
Continuous
370
    15
100
AcDbLine
 10
44.0
 20
-22.5
 30
0.0
 11
54.75
 21
-22.5
 31
0.0
  0
LINE
  5
419
330
1F
100
AcDbEntity
  8
slots
  6
Continuous
370
    15
100
AcDbLine
 10
57.75
 20
6.5
 30
0.0
 11
57.75
 21
-0.5
 31
0.0
  0
LINE
  5
41A
330
1F
100
AcDbEntity
  8
slots
  6
Continuous
370
    15
100
AcDbLine
 10
54.75
 20
-3.5
 30
0.0
 11
44.0
 21
-3.5
 31
0.0
  0
LINE
  5
41B
330
1F
100
AcDbEntity
  8
slots
  6
Continuous
370
    15
100
AcDbLine
 10
41.0
 20
-0.5
 30
0.0
 11
41.0
 21
6.5
 31
0.0
  0
LINE
  5
41C
330
1F
100
AcDbEntity
  8
slots
  6
Continuous
370
    15
100
AcDbLine
 10
44.0
 20
9.5
 30
0.0
 11
54.75
 21
9.5
 31
0.0
  0
LINE
  5
41D
330
1F
100
AcDbEntity
  8
slots
  6
Continuous
370
    15
100
AcDbLine
 10
57.75
 20
38.5
 30
0.0
 11
57.75
 21
31.5
 31
0.0
  0
LINE
  5
41E
330
1F
100
AcDbEntity
  8
slots
  6
Continuous
370
    15
100
AcDbLine
 10
54.75
 20
28.5
 30
0.0
 11
44.0
 21
28.5
 31
0.0
  0
LINE
  5
41F
330
1F
100
AcDbEntity
  8
slots
  6
Continuous
370
    15
100
AcDbLine
 10
41.0
 20
31.5
 30
0.0
 11
41.0
 21
38.5
 31
0.0
  0
LINE
  5
420
330
1F
100
AcDbEntity
  8
slots
  6
Continuous
370
    15
100
AcDbLine
 10
44.0
 20
41.5
 30
0.0
 11
54.75
 21
41.5
 31
0.0
  0
LINE
  5
421
330
1F
100
AcDbEntity
  8
slots
  6
Continuous
370
    15
100
AcDbLine
 10
77.5
 20
-57.5
 30
0.0
 11
77.5
 21
-64.5
 31
0.0
  0
LINE
  5
422
330
1F
100
AcDbEntity
  8
slots
  6
Continuous
370
    15
100
AcDbLine
 10
74.5
 20
-67.5
 30
0.0
 11
63.75
 21
-67.5
 31
0.0
  0
LINE
  5
423
330
1F
100
AcDbEntity
  8
slots
  6
Continuous
370
    15
100
AcDbLine
 10
60.75
 20
-64.5
 30
0.0
 11
60.75
 21
-57.5
 31
0.0
  0
LINE
  5
424
330
1F
100
AcDbEntity
  8
slots
  6
Continuous
370
    15
100
AcDbLine
 10
63.75
 20
-54.5
 30
0.0
 11
74.5
 21
-54.5
 31
0.0
  0
LINE
  5
425
330
1F
100
AcDbEntity
  8
slots
  6
Continuous
370
    15
100
AcDbLine
 10
77.5
 20
-25.5
 30
0.0
 11
77.5
 21
-32.5
 31
0.0
  0
LINE
  5
426
330
1F
100
AcDbEntity
  8
slots
  6
Continuous
370
    15
100
AcDbLine
 10
74.5
 20
-35.5
 30
0.0
 11
63.75
 21
-35.5
 31
0.0
  0
LINE
  5
427
330
1F
100
AcDbEntity
  8
slots
  6
Continuous
370
    15
100
AcDbLine
 10
60.75
 20
-32.5
 30
0.0
 11
60.75
 21
-25.5
 31
0.0
  0
LINE
  5
428
330
1F
100
AcDbEntity
  8
slots
  6
Continuous
370
    15
100
AcDbLine
 10
63.75
 20
-22.5
 30
0.0
 11
74.5
 21
-22.5
 31
0.0
  0
LINE
  5
429
330
1F
100
AcDbEntity
  8
slots
  6
Continuous
370
    15
100
AcDbLine
 10
77.5
 20
6.5
 30
0.0
 11
77.5
 21
-0.5
 31
0.0
  0
LINE
  5
42A
330
1F
100
AcDbEntity
  8
slots
  6
Continuous
370
    15
100
AcDbLine
 10
74.5
 20
-3.5
 30
0.0
 11
63.75
 21
-3.5
 31
0.0
  0
LINE
  5
42B
330
1F
100
AcDbEntity
  8
slots
  6
Continuous
370
    15
100
AcDbLine
 10
60.75
 20
-0.5
 30
0.0
 11
60.75
 21
6.5
 31
0.0
  0
LINE
  5
42C
330
1F
100
AcDbEntity
  8
slots
  6
Continuous
370
    15
100
AcDbLine
 10
63.75
 20
9.5
 30
0.0
 11
74.5
 21
9.5
 31
0.0
  0
LINE
  5
42D
330
1F
100
AcDbEntity
  8
slots
  6
Continuous
370
    15
100
AcDbLine
 10
77.5
 20
38.5
 30
0.0
 11
77.5
 21
31.5
 31
0.0
  0
LINE
  5
42E
330
1F
100
AcDbEntity
  8
slots
  6
Continuous
370
    15
100
AcDbLine
 10
74.5
 20
28.5
 30
0.0
 11
63.75
 21
28.5
 31
0.0
  0
LINE
  5
42F
330
1F
100
AcDbEntity
  8
slots
  6
Continuous
370
    15
100
AcDbLine
 10
60.75
 20
31.5
 30
0.0
 11
60.75
 21
38.5
 31
0.0
  0
LINE
  5
430
330
1F
100
AcDbEntity
  8
slots
  6
Continuous
370
    15
100
AcDbLine
 10
63.75
 20
41.5
 30
0.0
 11
74.5
 21
41.5
 31
0.0
  0
LINE
  5
431
330
1F
100
AcDbEntity
  8
slots
  6
Continuous
370
    15
100
AcDbLine
 10
97.25
 20
-57.5
 30
0.0
 11
97.25
 21
-64.5
 31
0.0
  0
LINE
  5
432
330
1F
100
AcDbEntity
  8
slots
  6
Continuous
370
    15
100
AcDbLine
 10
94.25
 20
-67.5
 30
0.0
 11
83.5
 21
-67.5
 31
0.0
  0
LINE
  5
433
330
1F
100
AcDbEntity
  8
slots
  6
Continuous
370
    15
100
AcDbLine
 10
80.5
 20
-64.5
 30
0.0
 11
80.5
 21
-57.5
 31
0.0
  0
LINE
  5
434
330
1F
100
AcDbEntity
  8
slots
  6
Continuous
370
    15
100
AcDbLine
 10
83.5
 20
-54.5
 30
0.0
 11
94.25
 21
-54.5
 31
0.0
  0
LINE
  5
435
330
1F
100
AcDbEntity
  8
slots
  6
Continuous
370
    15
100
AcDbLine
 10
97.25
 20
-25.5
 30
0.0
 11
97.25
 21
-32.5
 31
0.0
  0
LINE
  5
436
330
1F
100
AcDbEntity
  8
slots
  6
Continuous
370
    15
100
AcDbLine
 10
94.25
 20
-35.5
 30
0.0
 11
83.5
 21
-35.5
 31
0.0
  0
LINE
  5
437
330
1F
100
AcDbEntity
  8
slots
  6
Continuous
370
    15
100
AcDbLine
 10
80.5
 20
-32.5
 30
0.0
 11
80.5
 21
-25.5
 31
0.0
  0
LINE
  5
438
330
1F
100
AcDbEntity
  8
slots
  6
Continuous
370
    15
100
AcDbLine
 10
83.5
 20
-22.5
 30
0.0
 11
94.25
 21
-22.5
 31
0.0
  0
LINE
  5
439
330
1F
100
AcDbEntity
  8
slots
  6
Continuous
370
    15
100
AcDbLine
 10
97.25
 20
6.5
 30
0.0
 11
97.25
 21
-0.5
 31
0.0
  0
LINE
  5
43A
330
1F
100
AcDbEntity
  8
slots
  6
Continuous
370
    15
100
AcDbLine
 10
94.25
 20
-3.5
 30
0.0
 11
83.5
 21
-3.5
 31
0.0
  0
LINE
  5
43B
330
1F
100
AcDbEntity
  8
slots
  6
Continuous
370
    15
100
AcDbLine
 10
80.5
 20
-0.5
 30
0.0
 11
80.5
 21
6.5
 31
0.0
  0
LINE
  5
43C
330
1F
100
AcDbEntity
  8
slots
  6
Continuous
370
    15
100
AcDbLine
 10
83.5
 20
9.5
 30
0.0
 11
94.25
 21
9.5
 31
0.0
  0
LINE
  5
43D
330
1F
100
AcDbEntity
  8
slots
  6
Continuous
370
    15
100
AcDbLine
 10
97.25
 20
38.5
 30
0.0
 11
97.25
 21
31.5
 31
0.0
  0
LINE
  5
43E
330
1F
100
AcDbEntity
  8
slots
  6
Continuous
370
    15
100
AcDbLine
 10
94.25
 20
28.5
 30
0.0
 11
83.5
 21
28.5
 31
0.0
  0
LINE
  5
43F
330
1F
100
AcDbEntity
  8
slots
  6
Continuous
370
    15
100
AcDbLine
 10
80.5
 20
31.5
 30
0.0
 11
80.5
 21
38.5
 31
0.0
  0
LINE
  5
440
330
1F
100
AcDbEntity
  8
slots
  6
Continuous
370
    15
100
AcDbLine
 10
83.5
 20
41.5
 30
0.0
 11
94.25
 21
41.5
 31
0.0
  0
LINE
  5
441
330
1F
100
AcDbEntity
  8
slots
  6
Continuous
370
    15
100
AcDbLine
 10
97.25
 20
68.5
 30
0.0
 11
97.25
 21
76.5
 31
0.0
  0
LINE
  5
442
330
1F
100
AcDbEntity
  8
slots
  6
Continuous
370
    15
100
AcDbLine
 10
-94.25
 20
65.5
 30
0.0
 11
94.25
 21
65.5
 31
0.0
  0
LINE
  5
443
330
1F
100
AcDbEntity
  8
slots
  6
Continuous
370
    15
100
AcDbLine
 10
-97.25
 20
76.5
 30
0.0
 11
-97.25
 21
68.5
 31
0.0
  0
LINE
  5
444
330
1F
100
AcDbEntity
  8
slots
  6
Continuous
370
    15
100
AcDbLine
 10
94.25
 20
79.5
 30
0.0
 11
-94.25
 21
79.5
 31
0.0
  0
LINE
  5
445
330
1F
100
AcDbEntity
  8
0
  6
Continuous
 62
     7
370
    15
100
AcDbLine
 10
107.5
 20
-90.5
 30
0.0
 11
-112.0
 21
-90.5
 31
0.0
  0
LINE
  5
446
330
1F
100
AcDbEntity
  8
0
  6
Continuous
 62
     7
370
    15
100
AcDbLine
 10
-121.0
 20
77.0
 30
0.0
 11
-121.0
 21
-81.5
 31
0.0
  0
LINE
  5
447
330
1F
100
AcDbEntity
  8
0
  6
Continuous
 62
     7
370
    15
100
AcDbLine
 10
-107.5
 20
90.5
 30
0.0
 11
94.09525423629998
 21
90.5
 31
0.0
  0
LINE
  5
448
330
1F
100
AcDbEntity
  8
0
  6
Continuous
 62
     7
370
    15
100
AcDbLine
 10
121.0
 20
63.59525423629999
 30
0.0
 11
121.0
 21
-76.99999999999999
 31
0.0
  0
ARC
  5
44D
330
1F
100
AcDbEntity
  8
slots
  6
Continuous
370
    15
100
AcDbCircle
 10
94.25
 20
22.5
 30
0.0
 40
2.999999999999986
100
AcDbArc
 50
0.0
 51
90.0
  0
ARC
  5
44E
330
1F
100
AcDbEntity
  8
slots
  6
Continuous
370
    15
100
AcDbCircle
 10
94.25
 20
15.5
 30
0.0
 40
3.0
100
AcDbArc
 50
270.0
 51
0.0
  0
ARC
  5
44F
330
1F
100
AcDbEntity
  8
slots
  6
Continuous
370
    15
100
AcDbCircle
 10
83.5
 20
15.5
 30
0.0
 40
3.000000000000005
100
AcDbArc
 50
180.0
 51
270.0
  0
ARC
  5
450
330
1F
100
AcDbEntity
  8
slots
  6
Continuous
370
    15
100
AcDbCircle
 10
83.5
 20
22.5
 30
0.0
 40
3.000000000000014
100
AcDbArc
 50
90.0
 51
180.0
  0
ARC
  5
451
330
1F
100
AcDbEntity
  8
slots
  6
Continuous
370
    15
100
AcDbCircle
 10
94.25
 20
-9.5
 30
0.0
 40
2.999999999999986
100
AcDbArc
 50
0.0
 51
90.0
  0
ARC
  5
452
330
1F
100
AcDbEntity
  8
slots
  6
Continuous
370
    15
100
AcDbCircle
 10
94.25
 20
-16.5
 30
0.0
 40
3.0
100
AcDbArc
 50
270.0
 51
0.0
  0
ARC
  5
453
330
1F
100
AcDbEntity
  8
slots
  6
Continuous
370
    15
100
AcDbCircle
 10
83.5
 20
-16.5
 30
0.0
 40
3.0
100
AcDbArc
 50
180.0
 51
270.0
  0
ARC
  5
454
330
1F
100
AcDbEntity
  8
slots
  6
Continuous
370
    15
100
AcDbCircle
 10
83.5
 20
-9.5
 30
0.0
 40
3.00000000000002
100
AcDbArc
 50
90.0
 51
180.0
  0
ARC
  5
455
330
1F
100
AcDbEntity
  8
slots
  6
Continuous
370
    15
100
AcDbCircle
 10
94.25
 20
-41.5
 30
0.0
 40
3.000000000000021
100
AcDbArc
 50
0.0
 51
90.0
  0
ARC
  5
456
330
1F
100
AcDbEntity
  8
slots
  6
Continuous
370
    15
100
AcDbCircle
 10
94.25
 20
-48.5
 30
0.0
 40
2.999999999999986
100
AcDbArc
 50
270.0
 51
0.0
  0
ARC
  5
457
330
1F
100
AcDbEntity
  8
slots
  6
Continuous
370
    15
100
AcDbCircle
 10
83.5
 20
-48.5
 30
0.0
 40
3.000000000000014
100
AcDbArc
 50
180.0
 51
270.0
  0
ARC
  5
458
330
1F
100
AcDbEntity
  8
slots
  6
Continuous
370
    15
100
AcDbCircle
 10
83.5
 20
-41.5
 30
0.0
 40
3.000000000000021
100
AcDbArc
 50
90.0
 51
180.0
  0
ARC
  5
45D
330
1F
100
AcDbEntity
  8
slots
  6
Continuous
370
    15
100
AcDbCircle
 10
74.5
 20
22.5
 30
0.0
 40
2.999999999999986
100
AcDbArc
 50
0.0
 51
90.0
  0
ARC
  5
45E
330
1F
100
AcDbEntity
  8
slots
  6
Continuous
370
    15
100
AcDbCircle
 10
74.5
 20
15.5
 30
0.0
 40
2.999999999999993
100
AcDbArc
 50
270.0
 51
0.0
  0
ARC
  5
45F
330
1F
100
AcDbEntity
  8
slots
  6
Continuous
370
    15
100
AcDbCircle
 10
63.75
 20
15.5
 30
0.0
 40
3.0
100
AcDbArc
 50
180.0
 51
270.0
  0
ARC
  5
460
330
1F
100
AcDbEntity
  8
slots
  6
Continuous
370
    15
100
AcDbCircle
 10
63.75
 20
22.5
 30
0.0
 40
3.000000000000004
100
AcDbArc
 50
90.0
 51
180.0
  0
ARC
  5
461
330
1F
100
AcDbEntity
  8
slots
  6
Continuous
370
    15
100
AcDbCircle
 10
74.5
 20
-9.5
 30
0.0
 40
2.999999999999989
100
AcDbArc
 50
0.0
 51
90.0
  0
ARC
  5
462
330
1F
100
AcDbEntity
  8
slots
  6
Continuous
370
    15
100
AcDbCircle
 10
74.5
 20
-16.5
 30
0.0
 40
2.999999999999989
100
AcDbArc
 50
270.0
 51
0.0
  0
ARC
  5
463
330
1F
100
AcDbEntity
  8
slots
  6
Continuous
370
    15
100
AcDbCircle
 10
63.75
 20
-16.5
 30
0.0
 40
2.999999999999993
100
AcDbArc
 50
180.0
 51
270.0
  0
ARC
  5
464
330
1F
100
AcDbEntity
  8
slots
  6
Continuous
370
    15
100
AcDbCircle
 10
63.75
 20
-9.5
 30
0.0
 40
3.000000000000007
100
AcDbArc
 50
90.0
 51
180.0
  0
ARC
  5
465
330
1F
100
AcDbEntity
  8
slots
  6
Continuous
370
    15
100
AcDbCircle
 10
74.5
 20
-41.5
 30
0.0
 40
3.000000000000021
100
AcDbArc
 50
0.0
 51
90.0
  0
ARC
  5
466
330
1F
100
AcDbEntity
  8
slots
  6
Continuous
370
    15
100
AcDbCircle
 10
74.5
 20
-48.5
 30
0.0
 40
3.000000000000014
100
AcDbArc
 50
270.0
 51
0.0
  0
ARC
  5
467
330
1F
100
AcDbEntity
  8
slots
  6
Continuous
370
    15
100
AcDbCircle
 10
63.75
 20
-48.5
 30
0.0
 40
3.000000000000007
100
AcDbArc
 50
180.0
 51
270.0
  0
ARC
  5
468
330
1F
100
AcDbEntity
  8
slots
  6
Continuous
370
    15
100
AcDbCircle
 10
63.75
 20
-41.5
 30
0.0
 40
3.000000000000014
100
AcDbArc
 50
90.0
 51
180.0
  0
ARC
  5
46D
330
1F
100
AcDbEntity
  8
slots
  6
Continuous
370
    15
100
AcDbCircle
 10
54.75
 20
22.5
 30
0.0
 40
2.999999999999993
100
AcDbArc
 50
0.0
 51
90.0
  0
ARC
  5
46E
330
1F
100
AcDbEntity
  8
slots
  6
Continuous
370
    15
100
AcDbCircle
 10
54.75
 20
15.5
 30
0.0
 40
3.0
100
AcDbArc
 50
270.0
 51
0.0
  0
ARC
  5
46F
330
1F
100
AcDbEntity
  8
slots
  6
Continuous
370
    15
100
AcDbCircle
 10
44.0
 20
15.5
 30
0.0
 40
3.0
100
AcDbArc
 50
180.0
 51
270.0
  0
ARC
  5
470
330
1F
100
AcDbEntity
  8
slots
  6
Continuous
370
    15
100
AcDbCircle
 10
44.0
 20
22.5
 30
0.0
 40
3.000000000000011
100
AcDbArc
 50
90.0
 51
180.0
  0
ARC
  5
471
330
1F
100
AcDbEntity
  8
slots
  6
Continuous
370
    15
100
AcDbCircle
 10
54.75
 20
-9.5
 30
0.0
 40
2.999999999999993
100
AcDbArc
 50
0.0
 51
90.0
  0
ARC
  5
472
330
1F
100
AcDbEntity
  8
slots
  6
Continuous
370
    15
100
AcDbCircle
 10
54.75
 20
-16.5
 30
0.0
 40
2.999999999999996
100
AcDbArc
 50
270.0
 51
0.0
  0
ARC
  5
473
330
1F
100
AcDbEntity
  8
slots
  6
Continuous
370
    15
100
AcDbCircle
 10
44.0
 20
-16.5
 30
0.0
 40
2.999999999999996
100
AcDbArc
 50
180.0
 51
270.0
  0
ARC
  5
474
330
1F
100
AcDbEntity
  8
slots
  6
Continuous
370
    15
100
AcDbCircle
 10
44.0
 20
-9.5
 30
0.0
 40
3.000000000000007
100
AcDbArc
 50
90.0
 51
180.0
  0
ARC
  5
475
330
1F
100
AcDbEntity
  8
slots
  6
Continuous
370
    15
100
AcDbCircle
 10
54.75
 20
-41.5
 30
0.0
 40
3.000000000000007
100
AcDbArc
 50
0.0
 51
90.0
  0
ARC
  5
476
330
1F
100
AcDbEntity
  8
slots
  6
Continuous
370
    15
100
AcDbCircle
 10
54.75
 20
-48.5
 30
0.0
 40
3.000000000000007
100
AcDbArc
 50
270.0
 51
0.0
  0
ARC
  5
477
330
1F
100
AcDbEntity
  8
slots
  6
Continuous
370
    15
100
AcDbCircle
 10
44.0
 20
-48.5
 30
0.0
 40
3.000000000000007
100
AcDbArc
 50
180.0
 51
270.0
  0
ARC
  5
478
330
1F
100
AcDbEntity
  8
slots
  6
Continuous
370
    15
100
AcDbCircle
 10
44.0
 20
-41.5
 30
0.0
 40
3.000000000000014
100
AcDbArc
 50
90.0
 51
180.0
  0
ARC
  5
47D
330
1F
100
AcDbEntity
  8
slots
  6
Continuous
370
    15
100
AcDbCircle
 10
35.0
 20
22.5
 30
0.0
 40
3.0
100
AcDbArc
 50
0.0
 51
90.0
  0
ARC
  5
47E
330
1F
100
AcDbEntity
  8
slots
  6
Continuous
370
    15
100
AcDbCircle
 10
35.0
 20
15.5
 30
0.0
 40
3.000000000000007
100
AcDbArc
 50
270.0
 51
0.0
  0
ARC
  5
47F
330
1F
100
AcDbEntity
  8
slots
  6
Continuous
370
    15
100
AcDbCircle
 10
24.25
 20
15.5
 30
0.0
 40
2.999999999999996
100
AcDbArc
 50
180.0
 51
270.0
  0
ARC
  5
480
330
1F
100
AcDbEntity
  8
slots
  6
Continuous
370
    15
100
AcDbCircle
 10
24.25
 20
22.5
 30
0.0
 40
2.999999999999996
100
AcDbArc
 50
90.0
 51
180.0
  0
ARC
  5
481
330
1F
100
AcDbEntity
  8
slots
  6
Continuous
370
    15
100
AcDbCircle
 10
35.0
 20
-9.5
 30
0.0
 40
3.000000000000002
100
AcDbArc
 50
0.0
 51
90.0
  0
ARC
  5
482
330
1F
100
AcDbEntity
  8
slots
  6
Continuous
370
    15
100
AcDbCircle
 10
35.0
 20
-16.5
 30
0.0
 40
3.0
100
AcDbArc
 50
270.0
 51
0.0
  0
ARC
  5
483
330
1F
100
AcDbEntity
  8
slots
  6
Continuous
370
    15
100
AcDbCircle
 10
24.25
 20
-16.5
 30
0.0
 40
2.999999999999993
100
AcDbArc
 50
180.0
 51
270.0
  0
ARC
  5
484
330
1F
100
AcDbEntity
  8
slots
  6
Continuous
370
    15
100
AcDbCircle
 10
24.25
 20
-9.5
 30
0.0
 40
3.0
100
AcDbArc
 50
90.0
 51
180.0
  0
ARC
  5
485
330
1F
100
AcDbEntity
  8
slots
  6
Continuous
370
    15
100
AcDbCircle
 10
35.0
 20
-41.5
 30
0.0
 40
3.000000000000014
100
AcDbArc
 50
0.0
 51
90.0
  0
ARC
  5
486
330
1F
100
AcDbEntity
  8
slots
  6
Continuous
370
    15
100
AcDbCircle
 10
35.0
 20
-48.5
 30
0.0
 40
3.000000000000007
100
AcDbArc
 50
270.0
 51
0.0
  0
ARC
  5
487
330
1F
100
AcDbEntity
  8
slots
  6
Continuous
370
    15
100
AcDbCircle
 10
24.25
 20
-48.5
 30
0.0
 40
3.000000000000007
100
AcDbArc
 50
180.0
 51
270.0
  0
ARC
  5
488
330
1F
100
AcDbEntity
  8
slots
  6
Continuous
370
    15
100
AcDbCircle
 10
24.25
 20
-41.5
 30
0.0
 40
3.000000000000007
100
AcDbArc
 50
90.0
 51
180.0
  0
ARC
  5
48D
330
1F
100
AcDbEntity
  8
slots
  6
Continuous
370
    15
100
AcDbCircle
 10
15.25
 20
22.5
 30
0.0
 40
3.000000000000002
100
AcDbArc
 50
0.0
 51
90.0
  0
ARC
  5
48E
330
1F
100
AcDbEntity
  8
slots
  6
Continuous
370
    15
100
AcDbCircle
 10
15.25
 20
15.5
 30
0.0
 40
3.000000000000004
100
AcDbArc
 50
270.0
 51
0.0
  0
ARC
  5
48F
330
1F
100
AcDbEntity
  8
slots
  6
Continuous
370
    15
100
AcDbCircle
 10
4.5
 20
15.5
 30
0.0
 40
3.000000000000002
100
AcDbArc
 50
180.0
 51
270.0
  0
ARC
  5
490
330
1F
100
AcDbEntity
  8
slots
  6
Continuous
370
    15
100
AcDbCircle
 10
4.5
 20
22.5
 30
0.0
 40
3.000000000000004
100
AcDbArc
 50
90.00000000000001
 51
180.0
  0
ARC
  5
491
330
1F
100
AcDbEntity
  8
slots
  6
Continuous
370
    15
100
AcDbCircle
 10
15.25
 20
-9.5
 30
0.0
 40
3.000000000000004
100
AcDbArc
 50
0.0
 51
90.0
  0
ARC
  5
492
330
1F
100
AcDbEntity
  8
slots
  6
Continuous
370
    15
100
AcDbCircle
 10
15.25
 20
-16.5
 30
0.0
 40
3.000000000000002
100
AcDbArc
 50
270.0
 51
0.0
  0
ARC
  5
493
330
1F
100
AcDbEntity
  8
slots
  6
Continuous
370
    15
100
AcDbCircle
 10
4.5
 20
-16.5
 30
0.0
 40
2.999999999999997
100
AcDbArc
 50
180.0
 51
270.0
  0
ARC
  5
494
330
1F
100
AcDbEntity
  8
slots
  6
Continuous
370
    15
100
AcDbCircle
 10
4.5
 20
-9.5
 30
0.0
 40
3.000000000000005
100
AcDbArc
 50
90.00000000000001
 51
180.0
  0
ARC
  5
495
330
1F
100
AcDbEntity
  8
slots
  6
Continuous
370
    15
100
AcDbCircle
 10
15.25
 20
-41.5
 30
0.0
 40
3.000000000000016
100
AcDbArc
 50
0.0
 51
90.0
  0
ARC
  5
496
330
1F
100
AcDbEntity
  8
slots
  6
Continuous
370
    15
100
AcDbCircle
 10
15.25
 20
-48.5
 30
0.0
 40
3.000000000000007
100
AcDbArc
 50
270.0
 51
0.0
  0
ARC
  5
497
330
1F
100
AcDbEntity
  8
slots
  6
Continuous
370
    15
100
AcDbCircle
 10
4.5
 20
-48.5
 30
0.0
 40
3.000000000000007
100
AcDbArc
 50
180.0
 51
270.0
  0
ARC
  5
498
330
1F
100
AcDbEntity
  8
slots
  6
Continuous
370
    15
100
AcDbCircle
 10
4.5
 20
-41.5
 30
0.0
 40
3.000000000000007
100
AcDbArc
 50
90.00000000000001
 51
180.0
  0
ARC
  5
499
330
1F
100
AcDbEntity
  8
slots
  6
Continuous
370
    15
100
AcDbCircle
 10
-83.5
 20
47.5
 30
0.0
 40
2.999999999999986
100
AcDbArc
 50
270.0
 51
0.0
  0
ARC
  5
49A
330
1F
100
AcDbEntity
  8
slots
  6
Continuous
370
    15
100
AcDbCircle
 10
-94.25
 20
47.5
 30
0.0
 40
3.000000000000014
100
AcDbArc
 50
180.0
 51
270.0
  0
ARC
  5
49B
330
1F
100
AcDbEntity
  8
slots
  6
Continuous
370
    15
100
AcDbCircle
 10
-94.25
 20
54.5
 30
0.0
 40
2.999999999999993
100
AcDbArc
 50
90.0
 51
180.0
  0
ARC
  5
49C
330
1F
100
AcDbEntity
  8
slots
  6
Continuous
370
    15
100
AcDbCircle
 10
-83.5
 20
54.5
 30
0.0
 40
3.000000000000036
100
AcDbArc
 50
0.0
 51
90.0
  0
ARC
  5
49D
330
1F
100
AcDbEntity
  8
slots
  6
Continuous
370
    15
100
AcDbCircle
 10
-63.75
 20
47.5
 30
0.0
 40
3.000000000000014
100
AcDbArc
 50
270.0
 51
0.0
  0
ARC
  5
49E
330
1F
100
AcDbEntity
  8
slots
  6
Continuous
370
    15
100
AcDbCircle
 10
-74.5
 20
47.5
 30
0.0
 40
3.000000000000014
100
AcDbArc
 50
180.0
 51
270.0
  0
ARC
  5
49F
330
1F
100
AcDbEntity
  8
slots
  6
Continuous
370
    15
100
AcDbCircle
 10
-74.5
 20
54.5
 30
0.0
 40
3.0
100
AcDbArc
 50
90.0
 51
180.0
  0
ARC
  5
4A0
330
1F
100
AcDbEntity
  8
slots
  6
Continuous
370
    15
100
AcDbCircle
 10
-63.75
 20
54.5
 30
0.0
 40
3.000000000000021
100
AcDbArc
 50
0.0
 51
90.0
  0
ARC
  5
4A1
330
1F
100
AcDbEntity
  8
slots
  6
Continuous
370
    15
100
AcDbCircle
 10
-44.0
 20
47.5
 30
0.0
 40
3.0
100
AcDbArc
 50
270.0
 51
334.1580672368324
  0
ARC
  5
4A2
330
1F
100
AcDbEntity
  8
slots
  6
Continuous
370
    15
100
AcDbCircle
 10
-54.75
 20
47.5
 30
0.0
 40
3.0
100
AcDbArc
 50
180.0
 51
270.0
  0
ARC
  5
4A3
330
1F
100
AcDbEntity
  8
slots
  6
Continuous
370
    15
100
AcDbCircle
 10
-54.75
 20
54.5
 30
0.0
 40
3.0
100
AcDbArc
 50
90.0
 51
180.0
  0
ARC
  5
4A4
330
1F
100
AcDbEntity
  8
slots
  6
Continuous
370
    15
100
AcDbCircle
 10
-44.0
 20
54.5
 30
0.0
 40
3.000000000000021
100
AcDbArc
 50
25.84193276316752
 51
90.0
  0
ARC
  5
4A5
330
1F
100
AcDbEntity
  8
slots
  6
Continuous
370
    15
100
AcDbCircle
 10
-24.25
 20
47.5
 30
0.0
 40
3.000000000000007
100
AcDbArc
 50
270.0
 51
0.0
  0
ARC
  5
4A6
330
1F
100
AcDbEntity
  8
slots
  6
Continuous
370
    15
100
AcDbCircle
 10
-35.0
 20
47.5
 30
0.0
 40
3.000000000000014
100
AcDbArc
 50
205.8419327631676
 51
270.0
  0
ARC
  5
4A7
330
1F
100
AcDbEntity
  8
slots
  6
Continuous
370
    15
100
AcDbCircle
 10
-35.0
 20
54.5
 30
0.0
 40
3.000000000000014
100
AcDbArc
 50
90.0
 51
154.1580672368324
  0
ARC
  5
4A8
330
1F
100
AcDbEntity
  8
slots
  6
Continuous
370
    15
100
AcDbCircle
 10
-24.25
 20
54.5
 30
0.0
 40
3.000000000000007
100
AcDbArc
 50
0.0
 51
90.0
  0
ARC
  5
4AD
330
1F
100
AcDbEntity
  8
slots
  6
Continuous
370
    15
100
AcDbCircle
 10
-83.5
 20
31.5
 30
0.0
 40
2.999999999999986
100
AcDbArc
 50
270.0
 51
0.0
  0
ARC
  5
4AE
330
1F
100
AcDbEntity
  8
slots
  6
Continuous
370
    15
100
AcDbCircle
 10
-94.25
 20
31.5
 30
0.0
 40
2.999999999999989
100
AcDbArc
 50
180.0
 51
270.0
  0
ARC
  5
4AF
330
1F
100
AcDbEntity
  8
slots
  6
Continuous
370
    15
100
AcDbCircle
 10
-94.25
 20
38.5
 30
0.0
 40
2.999999999999993
100
AcDbArc
 50
90.0
 51
180.0
  0
ARC
  5
4B0
330
1F
100
AcDbEntity
  8
slots
  6
Continuous
370
    15
100
AcDbCircle
 10
-83.5
 20
38.5
 30
0.0
 40
3.000000000000036
100
AcDbArc
 50
0.0
 51
90.0
  0
ARC
  5
4B1
330
1F
100
AcDbEntity
  8
slots
  6
Continuous
370
    15
100
AcDbCircle
 10
-63.75
 20
31.5
 30
0.0
 40
3.000000000000007
100
AcDbArc
 50
270.0
 51
0.0
  0
ARC
  5
4B2
330
1F
100
AcDbEntity
  8
slots
  6
Continuous
370
    15
100
AcDbCircle
 10
-74.5
 20
31.5
 30
0.0
 40
2.999999999999996
100
AcDbArc
 50
180.0
 51
270.0
  0
ARC
  5
4B3
330
1F
100
AcDbEntity
  8
slots
  6
Continuous
370
    15
100
AcDbCircle
 10
-74.5
 20
38.5
 30
0.0
 40
3.0
100
AcDbArc
 50
90.0
 51
180.0
  0
ARC
  5
4B4
330
1F
100
AcDbEntity
  8
slots
  6
Continuous
370
    15
100
AcDbCircle
 10
-63.75
 20
38.5
 30
0.0
 40
3.000000000000021
100
AcDbArc
 50
0.0
 51
90.0
  0
ARC
  5
4B5
330
1F
100
AcDbEntity
  8
slots
  6
Continuous
370
    15
100
AcDbCircle
 10
-44.0
 20
31.5
 30
0.0
 40
2.999999999999996
100
AcDbArc
 50
270.0
 51
0.0
  0
ARC
  5
4B6
330
1F
100
AcDbEntity
  8
slots
  6
Continuous
370
    15
100
AcDbCircle
 10
-54.75
 20
31.5
 30
0.0
 40
2.999999999999989
100
AcDbArc
 50
180.0
 51
270.0
  0
ARC
  5
4B7
330
1F
100
AcDbEntity
  8
slots
  6
Continuous
370
    15
100
AcDbCircle
 10
-54.75
 20
38.5
 30
0.0
 40
3.0
100
AcDbArc
 50
90.0
 51
180.0
  0
ARC
  5
4B8
330
1F
100
AcDbEntity
  8
slots
  6
Continuous
370
    15
100
AcDbCircle
 10
-44.0
 20
38.5
 30
0.0
 40
3.000000000000021
100
AcDbArc
 50
0.0
 51
90.0
  0
ARC
  5
4B9
330
1F
100
AcDbEntity
  8
slots
  6
Continuous
370
    15
100
AcDbCircle
 10
-24.25
 20
31.5
 30
0.0
 40
2.999999999999993
100
AcDbArc
 50
270.0
 51
0.0
  0
ARC
  5
4BA
330
1F
100
AcDbEntity
  8
slots
  6
Continuous
370
    15
100
AcDbCircle
 10
-35.0
 20
31.5
 30
0.0
 40
3.000000000000011
100
AcDbArc
 50
180.0
 51
270.0
  0
ARC
  5
4BB
330
1F
100
AcDbEntity
  8
slots
  6
Continuous
370
    15
100
AcDbCircle
 10
-35.0
 20
38.5
 30
0.0
 40
3.000000000000007
100
AcDbArc
 50
90.0
 51
180.0
  0
ARC
  5
4BC
330
1F
100
AcDbEntity
  8
slots
  6
Continuous
370
    15
100
AcDbCircle
 10
-24.25
 20
38.5
 30
0.0
 40
3.000000000000007
100
AcDbArc
 50
0.0
 51
90.0
  0
ARC
  5
4BD
330
1F
100
AcDbEntity
  8
slots
  6
Continuous
370
    15
100
AcDbCircle
 10
-4.5
 20
31.5
 30
0.0
 40
2.999999999999996
100
AcDbArc
 50
270.0
 51
0.0
  0
ARC
  5
4BE
330
1F
100
AcDbEntity
  8
slots
  6
Continuous
370
    15
100
AcDbCircle
 10
-15.25
 20
31.5
 30
0.0
 40
3.000000000000007
100
AcDbArc
 50
180.0
 51
270.0
  0
ARC
  5
4BF
330
1F
100
AcDbEntity
  8
slots
  6
Continuous
370
    15
100
AcDbCircle
 10
-15.25
 20
38.5
 30
0.0
 40
3.000000000000009
100
AcDbArc
 50
90.0
 51
180.0
  0
ARC
  5
4C0
330
1F
100
AcDbEntity
  8
slots
  6
Continuous
370
    15
100
AcDbCircle
 10
-4.5
 20
38.5
 30
0.0
 40
3.000000000000007
100
AcDbArc
 50
0.0
 51
90.00000000000001
  0
ARC
  5
4C1
330
1F
100
AcDbEntity
  8
slots
  6
Continuous
370
    15
100
AcDbCircle
 10
-83.5
 20
15.5
 30
0.0
 40
2.999999999999986
100
AcDbArc
 50
270.0
 51
0.0
  0
ARC
  5
4C2
330
1F
100
AcDbEntity
  8
slots
  6
Continuous
370
    15
100
AcDbCircle
 10
-94.25
 20
15.5
 30
0.0
 40
3.000000000000014
100
AcDbArc
 50
180.0
 51
270.0
  0
ARC
  5
4C3
330
1F
100
AcDbEntity
  8
slots
  6
Continuous
370
    15
100
AcDbCircle
 10
-94.25
 20
22.5
 30
0.0
 40
2.999999999999986
100
AcDbArc
 50
90.0
 51
180.0
  0
ARC
  5
4C4
330
1F
100
AcDbEntity
  8
slots
  6
Continuous
370
    15
100
AcDbCircle
 10
-83.5
 20
22.5
 30
0.0
 40
3.000000000000043
100
AcDbArc
 50
0.0
 51
90.0
  0
ARC
  5
4C5
330
1F
100
AcDbEntity
  8
slots
  6
Continuous
370
    15
100
AcDbCircle
 10
-63.75
 20
15.5
 30
0.0
 40
3.000000000000011
100
AcDbArc
 50
270.0
 51
0.0
  0
ARC
  5
4C6
330
1F
100
AcDbEntity
  8
slots
  6
Continuous
370
    15
100
AcDbCircle
 10
-74.5
 20
15.5
 30
0.0
 40
3.0
100
AcDbArc
 50
180.0
 51
270.0
  0
ARC
  5
4C7
330
1F
100
AcDbEntity
  8
slots
  6
Continuous
370
    15
100
AcDbCircle
 10
-74.5
 20
22.5
 30
0.0
 40
3.0
100
AcDbArc
 50
90.0
 51
180.0
  0
ARC
  5
4C8
330
1F
100
AcDbEntity
  8
slots
  6
Continuous
370
    15
100
AcDbCircle
 10
-63.75
 20
22.5
 30
0.0
 40
3.000000000000011
100
AcDbArc
 50
0.0
 51
90.0
  0
ARC
  5
4C9
330
1F
100
AcDbEntity
  8
slots
  6
Continuous
370
    15
100
AcDbCircle
 10
-44.0
 20
15.5
 30
0.0
 40
2.999999999999996
100
AcDbArc
 50
270.0
 51
0.0
  0
ARC
  5
4CA
330
1F
100
AcDbEntity
  8
slots
  6
Continuous
370
    15
100
AcDbCircle
 10
-54.75
 20
15.5
 30
0.0
 40
3.0
100
AcDbArc
 50
180.0
 51
270.0
  0
ARC
  5
4CB
330
1F
100
AcDbEntity
  8
slots
  6
Continuous
370
    15
100
AcDbCircle
 10
-54.75
 20
22.5
 30
0.0
 40
2.999999999999993
100
AcDbArc
 50
90.0
 51
180.0
  0
ARC
  5
4CC
330
1F
100
AcDbEntity
  8
slots
  6
Continuous
370
    15
100
AcDbCircle
 10
-44.0
 20
22.5
 30
0.0
 40
3.000000000000011
100
AcDbArc
 50
0.0
 51
90.0
  0
ARC
  5
4CD
330
1F
100
AcDbEntity
  8
slots
  6
Continuous
370
    15
100
AcDbCircle
 10
-24.25
 20
15.5
 30
0.0
 40
2.999999999999996
100
AcDbArc
 50
270.0
 51
0.0
  0
ARC
  5
4CE
330
1F
100
AcDbEntity
  8
slots
  6
Continuous
370
    15
100
AcDbCircle
 10
-35.0
 20
15.5
 30
0.0
 40
3.000000000000014
100
AcDbArc
 50
180.0
 51
270.0
  0
ARC
  5
4CF
330
1F
100
AcDbEntity
  8
slots
  6
Continuous
370
    15
100
AcDbCircle
 10
-35.0
 20
22.5
 30
0.0
 40
3.000000000000007
100
AcDbArc
 50
90.0
 51
180.0
  0
ARC
  5
4D0
330
1F
100
AcDbEntity
  8
slots
  6
Continuous
370
    15
100
AcDbCircle
 10
-24.25
 20
22.5
 30
0.0
 40
3.0
100
AcDbArc
 50
0.0
 51
90.0
  0
ARC
  5
4D1
330
1F
100
AcDbEntity
  8
slots
  6
Continuous
370
    15
100
AcDbCircle
 10
-4.5
 20
15.5
 30
0.0
 40
3.0
100
AcDbArc
 50
270.0
 51
0.0
  0
ARC
  5
4D2
330
1F
100
AcDbEntity
  8
slots
  6
Continuous
370
    15
100
AcDbCircle
 10
-15.25
 20
15.5
 30
0.0
 40
3.000000000000007
100
AcDbArc
 50
180.0
 51
270.0
  0
ARC
  5
4D3
330
1F
100
AcDbEntity
  8
slots
  6
Continuous
370
    15
100
AcDbCircle
 10
-15.25
 20
22.5
 30
0.0
 40
3.000000000000004
100
AcDbArc
 50
90.0
 51
180.0
  0
ARC
  5
4D4
330
1F
100
AcDbEntity
  8
slots
  6
Continuous
370
    15
100
AcDbCircle
 10
-4.5
 20
22.5
 30
0.0
 40
3.000000000000002
100
AcDbArc
 50
0.0
 51
90.00000000000001
  0
ARC
  5
4D5
330
1F
100
AcDbEntity
  8
slots
  6
Continuous
370
    15
100
AcDbCircle
 10
-83.5
 20
-0.5
 30
0.0
 40
2.999999999999986
100
AcDbArc
 50
270.0
 51
0.0
  0
ARC
  5
4D6
330
1F
100
AcDbEntity
  8
slots
  6
Continuous
370
    15
100
AcDbCircle
 10
-94.25
 20
-0.5
 30
0.0
 40
2.999999999999991
100
AcDbArc
 50
180.0
 51
270.0
  0
ARC
  5
4D7
330
1F
100
AcDbEntity
  8
slots
  6
Continuous
370
    15
100
AcDbCircle
 10
-94.25
 20
6.5
 30
0.0
 40
2.999999999999989
100
AcDbArc
 50
90.0
 51
180.0
  0
ARC
  5
4D8
330
1F
100
AcDbEntity
  8
slots
  6
Continuous
370
    15
100
AcDbCircle
 10
-83.5
 20
6.5
 30
0.0
 40
3.000000000000043
100
AcDbArc
 50
0.0
 51
90.0
  0
ARC
  5
4D9
330
1F
100
AcDbEntity
  8
slots
  6
Continuous
370
    15
100
AcDbCircle
 10
-63.75
 20
-0.5
 30
0.0
 40
3.000000000000009
100
AcDbArc
 50
270.0
 51
0.0
  0
ARC
  5
4DA
330
1F
100
AcDbEntity
  8
slots
  6
Continuous
370
    15
100
AcDbCircle
 10
-74.5
 20
-0.5
 30
0.0
 40
3.0
100
AcDbArc
 50
180.0
 51
270.0
  0
ARC
  5
4DB
330
1F
100
AcDbEntity
  8
slots
  6
Continuous
370
    15
100
AcDbCircle
 10
-74.5
 20
6.5
 30
0.0
 40
3.0
100
AcDbArc
 50
90.0
 51
180.0
  0
ARC
  5
4DC
330
1F
100
AcDbEntity
  8
slots
  6
Continuous
370
    15
100
AcDbCircle
 10
-63.75
 20
6.5
 30
0.0
 40
3.000000000000009
100
AcDbArc
 50
0.0
 51
90.0
  0
ARC
  5
4DD
330
1F
100
AcDbEntity
  8
slots
  6
Continuous
370
    15
100
AcDbCircle
 10
-44.0
 20
-0.5
 30
0.0
 40
2.999999999999994
100
AcDbArc
 50
270.0
 51
0.0
  0
ARC
  5
4DE
330
1F
100
AcDbEntity
  8
slots
  6
Continuous
370
    15
100
AcDbCircle
 10
-54.75
 20
-0.5
 30
0.0
 40
3.0
100
AcDbArc
 50
180.0
 51
270.0
  0
ARC
  5
4DF
330
1F
100
AcDbEntity
  8
slots
  6
Continuous
370
    15
100
AcDbCircle
 10
-54.75
 20
6.5
 30
0.0
 40
2.999999999999993
100
AcDbArc
 50
90.0
 51
180.0
  0
ARC
  5
4E0
330
1F
100
AcDbEntity
  8
slots
  6
Continuous
370
    15
100
AcDbCircle
 10
-44.0
 20
6.5
 30
0.0
 40
3.000000000000021
100
AcDbArc
 50
0.0
 51
90.0
  0
ARC
  5
4E1
330
1F
100
AcDbEntity
  8
slots
  6
Continuous
370
    15
100
AcDbCircle
 10
-24.25
 20
-0.5
 30
0.0
 40
2.999999999999994
100
AcDbArc
 50
270.0
 51
0.0
  0
ARC
  5
4E2
330
1F
100
AcDbEntity
  8
slots
  6
Continuous
370
    15
100
AcDbCircle
 10
-35.0
 20
-0.5
 30
0.0
 40
3.000000000000008
100
AcDbArc
 50
180.0
 51
270.0
  0
ARC
  5
4E3
330
1F
100
AcDbEntity
  8
slots
  6
Continuous
370
    15
100
AcDbCircle
 10
-35.0
 20
6.5
 30
0.0
 40
3.000000000000008
100
AcDbArc
 50
90.0
 51
180.0
  0
ARC
  5
4E4
330
1F
100
AcDbEntity
  8
slots
  6
Continuous
370
    15
100
AcDbCircle
 10
-24.25
 20
6.5
 30
0.0
 40
3.000000000000004
100
AcDbArc
 50
0.0
 51
90.0
  0
ARC
  5
4E5
330
1F
100
AcDbEntity
  8
slots
  6
Continuous
370
    15
100
AcDbCircle
 10
-4.5
 20
-0.5
 30
0.0
 40
2.999999999999999
100
AcDbArc
 50
270.0
 51
0.0
  0
ARC
  5
4E6
330
1F
100
AcDbEntity
  8
slots
  6
Continuous
370
    15
100
AcDbCircle
 10
-15.25
 20
-0.5
 30
0.0
 40
3.000000000000007
100
AcDbArc
 50
180.0
 51
270.0
  0
ARC
  5
4E7
330
1F
100
AcDbEntity
  8
slots
  6
Continuous
370
    15
100
AcDbCircle
 10
-15.25
 20
6.5
 30
0.0
 40
3.000000000000007
100
AcDbArc
 50
90.0
 51
180.0
  0
ARC
  5
4E8
330
1F
100
AcDbEntity
  8
slots
  6
Continuous
370
    15
100
AcDbCircle
 10
-4.5
 20
6.5
 30
0.0
 40
3.000000000000004
100
AcDbArc
 50
0.0
 51
90.00000000000001
  0
ARC
  5
4E9
330
1F
100
AcDbEntity
  8
slots
  6
Continuous
370
    15
100
AcDbCircle
 10
-83.5
 20
-16.5
 30
0.0
 40
2.999999999999986
100
AcDbArc
 50
270.0
 51
0.0
  0
ARC
  5
4EA
330
1F
100
AcDbEntity
  8
slots
  6
Continuous
370
    15
100
AcDbCircle
 10
-94.25
 20
-16.5
 30
0.0
 40
2.999999999999986
100
AcDbArc
 50
180.0
 51
270.0
  0
ARC
  5
4EB
330
1F
100
AcDbEntity
  8
slots
  6
Continuous
370
    15
100
AcDbCircle
 10
-94.25
 20
-9.5
 30
0.0
 40
2.999999999999991
100
AcDbArc
 50
90.0
 51
180.0
  0
ARC
  5
4EC
330
1F
100
AcDbEntity
  8
slots
  6
Continuous
370
    15
100
AcDbCircle
 10
-83.5
 20
-9.5
 30
0.0
 40
3.000000000000043
100
AcDbArc
 50
0.0
 51
90.0
  0
ARC
  5
4ED
330
1F
100
AcDbEntity
  8
slots
  6
Continuous
370
    15
100
AcDbCircle
 10
-63.75
 20
-16.5
 30
0.0
 40
3.000000000000007
100
AcDbArc
 50
270.0
 51
0.0
  0
ARC
  5
4EE
330
1F
100
AcDbEntity
  8
slots
  6
Continuous
370
    15
100
AcDbCircle
 10
-74.5
 20
-16.5
 30
0.0
 40
2.999999999999993
100
AcDbArc
 50
180.0
 51
270.0
  0
ARC
  5
4EF
330
1F
100
AcDbEntity
  8
slots
  6
Continuous
370
    15
100
AcDbCircle
 10
-74.5
 20
-9.5
 30
0.0
 40
3.0
100
AcDbArc
 50
90.0
 51
180.0
  0
ARC
  5
4F0
330
1F
100
AcDbEntity
  8
slots
  6
Continuous
370
    15
100
AcDbCircle
 10
-63.75
 20
-9.5
 30
0.0
 40
3.000000000000009
100
AcDbArc
 50
0.0
 51
90.0
  0
ARC
  5
4F1
330
1F
100
AcDbEntity
  8
slots
  6
Continuous
370
    15
100
AcDbCircle
 10
-44.0
 20
-16.5
 30
0.0
 40
2.999999999999993
100
AcDbArc
 50
270.0
 51
0.0
  0
ARC
  5
4F2
330
1F
100
AcDbEntity
  8
slots
  6
Continuous
370
    15
100
AcDbCircle
 10
-54.75
 20
-16.5
 30
0.0
 40
2.999999999999993
100
AcDbArc
 50
180.0
 51
270.0
  0
ARC
  5
4F3
330
1F
100
AcDbEntity
  8
slots
  6
Continuous
370
    15
100
AcDbCircle
 10
-54.75
 20
-9.5
 30
0.0
 40
2.999999999999993
100
AcDbArc
 50
90.0
 51
180.0
  0
ARC
  5
4F4
330
1F
100
AcDbEntity
  8
slots
  6
Continuous
370
    15
100
AcDbCircle
 10
-44.0
 20
-9.5
 30
0.0
 40
3.000000000000021
100
AcDbArc
 50
0.0
 51
90.0
  0
ARC
  5
4F5
330
1F
100
AcDbEntity
  8
slots
  6
Continuous
370
    15
100
AcDbCircle
 10
-24.25
 20
-16.5
 30
0.0
 40
2.999999999999989
100
AcDbArc
 50
270.0
 51
0.0
  0
ARC
  5
4F6
330
1F
100
AcDbEntity
  8
slots
  6
Continuous
370
    15
100
AcDbCircle
 10
-35.0
 20
-16.5
 30
0.0
 40
3.000000000000007
100
AcDbArc
 50
180.0
 51
270.0
  0
ARC
  5
4F7
330
1F
100
AcDbEntity
  8
slots
  6
Continuous
370
    15
100
AcDbCircle
 10
-35.0
 20
-9.5
 30
0.0
 40
3.000000000000007
100
AcDbArc
 50
90.0
 51
180.0
  0
ARC
  5
4F8
330
1F
100
AcDbEntity
  8
slots
  6
Continuous
370
    15
100
AcDbCircle
 10
-24.25
 20
-9.5
 30
0.0
 40
3.000000000000007
100
AcDbArc
 50
0.0
 51
90.0
  0
ARC
  5
4F9
330
1F
100
AcDbEntity
  8
slots
  6
Continuous
370
    15
100
AcDbCircle
 10
-4.5
 20
-16.5
 30
0.0
 40
2.999999999999994
100
AcDbArc
 50
270.0
 51
0.0
  0
ARC
  5
4FA
330
1F
100
AcDbEntity
  8
slots
  6
Continuous
370
    15
100
AcDbCircle
 10
-15.25
 20
-16.5
 30
0.0
 40
3.000000000000004
100
AcDbArc
 50
180.0
 51
270.0
  0
ARC
  5
4FB
330
1F
100
AcDbEntity
  8
slots
  6
Continuous
370
    15
100
AcDbCircle
 10
-15.25
 20
-9.5
 30
0.0
 40
3.000000000000007
100
AcDbArc
 50
90.0
 51
180.0
  0
ARC
  5
4FC
330
1F
100
AcDbEntity
  8
slots
  6
Continuous
370
    15
100
AcDbCircle
 10
-4.5
 20
-9.5
 30
0.0
 40
3.000000000000005
100
AcDbArc
 50
0.0
 51
90.00000000000001
  0
ARC
  5
4FD
330
1F
100
AcDbEntity
  8
slots
  6
Continuous
370
    15
100
AcDbCircle
 10
-83.5
 20
-32.5
 30
0.0
 40
2.999999999999986
100
AcDbArc
 50
270.0
 51
0.0
  0
ARC
  5
4FE
330
1F
100
AcDbEntity
  8
slots
  6
Continuous
370
    15
100
AcDbCircle
 10
-94.25
 20
-32.5
 30
0.0
 40
3.000000000000014
100
AcDbArc
 50
180.0
 51
270.0
  0
ARC
  5
4FF
330
1F
100
AcDbEntity
  8
slots
  6
Continuous
370
    15
100
AcDbCircle
 10
-94.25
 20
-25.5
 30
0.0
 40
2.999999999999993
100
AcDbArc
 50
90.0
 51
180.0
  0
ARC
  5
500
330
1F
100
AcDbEntity
  8
slots
  6
Continuous
370
    15
100
AcDbCircle
 10
-83.5
 20
-25.5
 30
0.0
 40
3.000000000000043
100
AcDbArc
 50
0.0
 51
90.0
  0
ARC
  5
501
330
1F
100
AcDbEntity
  8
slots
  6
Continuous
370
    15
100
AcDbCircle
 10
-63.75
 20
-32.5
 30
0.0
 40
3.000000000000014
100
AcDbArc
 50
270.0
 51
0.0
  0
ARC
  5
502
330
1F
100
AcDbEntity
  8
slots
  6
Continuous
370
    15
100
AcDbCircle
 10
-74.5
 20
-32.5
 30
0.0
 40
3.000000000000014
100
AcDbArc
 50
180.0
 51
270.0
  0
ARC
  5
503
330
1F
100
AcDbEntity
  8
slots
  6
Continuous
370
    15
100
AcDbCircle
 10
-74.5
 20
-25.5
 30
0.0
 40
3.0
100
AcDbArc
 50
90.0
 51
180.0
  0
ARC
  5
504
330
1F
100
AcDbEntity
  8
slots
  6
Continuous
370
    15
100
AcDbCircle
 10
-63.75
 20
-25.5
 30
0.0
 40
3.000000000000011
100
AcDbArc
 50
0.0
 51
90.0
  0
ARC
  5
505
330
1F
100
AcDbEntity
  8
slots
  6
Continuous
370
    15
100
AcDbCircle
 10
-44.0
 20
-32.5
 30
0.0
 40
3.0
100
AcDbArc
 50
270.0
 51
0.0
  0
ARC
  5
506
330
1F
100
AcDbEntity
  8
slots
  6
Continuous
370
    15
100
AcDbCircle
 10
-54.75
 20
-32.5
 30
0.0
 40
3.0
100
AcDbArc
 50
180.0
 51
270.0
  0
ARC
  5
507
330
1F
100
AcDbEntity
  8
slots
  6
Continuous
370
    15
100
AcDbCircle
 10
-54.75
 20
-25.5
 30
0.0
 40
2.999999999999993
100
AcDbArc
 50
90.0
 51
180.0
  0
ARC
  5
508
330
1F
100
AcDbEntity
  8
slots
  6
Continuous
370
    15
100
AcDbCircle
 10
-44.0
 20
-25.5
 30
0.0
 40
3.000000000000021
100
AcDbArc
 50
0.0
 51
90.0
  0
ARC
  5
509
330
1F
100
AcDbEntity
  8
slots
  6
Continuous
370
    15
100
AcDbCircle
 10
-24.25
 20
-32.5
 30
0.0
 40
3.0
100
AcDbArc
 50
270.0
 51
0.0
  0
ARC
  5
50A
330
1F
100
AcDbEntity
  8
slots
  6
Continuous
370
    15
100
AcDbCircle
 10
-35.0
 20
-32.5
 30
0.0
 40
3.000000000000014
100
AcDbArc
 50
180.0
 51
270.0
  0
ARC
  5
50B
330
1F
100
AcDbEntity
  8
slots
  6
Continuous
370
    15
100
AcDbCircle
 10
-35.0
 20
-25.5
 30
0.0
 40
3.000000000000007
100
AcDbArc
 50
90.0
 51
180.0
  0
ARC
  5
50C
330
1F
100
AcDbEntity
  8
slots
  6
Continuous
370
    15
100
AcDbCircle
 10
-24.25
 20
-25.5
 30
0.0
 40
3.000000000000004
100
AcDbArc
 50
0.0
 51
90.0
  0
ARC
  5
50D
330
1F
100
AcDbEntity
  8
slots
  6
Continuous
370
    15
100
AcDbCircle
 10
-4.5
 20
-32.5
 30
0.0
 40
3.000000000000007
100
AcDbArc
 50
270.0
 51
0.0
  0
ARC
  5
50E
330
1F
100
AcDbEntity
  8
slots
  6
Continuous
370
    15
100
AcDbCircle
 10
-15.25
 20
-32.5
 30
0.0
 40
3.000000000000014
100
AcDbArc
 50
180.0
 51
270.0
  0
ARC
  5
50F
330
1F
100
AcDbEntity
  8
slots
  6
Continuous
370
    15
100
AcDbCircle
 10
-15.25
 20
-25.5
 30
0.0
 40
3.000000000000007
100
AcDbArc
 50
90.0
 51
180.0
  0
ARC
  5
510
330
1F
100
AcDbEntity
  8
slots
  6
Continuous
370
    15
100
AcDbCircle
 10
-4.5
 20
-25.5
 30
0.0
 40
3.000000000000005
100
AcDbArc
 50
0.0
 51
90.00000000000001
  0
ARC
  5
511
330
1F
100
AcDbEntity
  8
slots
  6
Continuous
370
    15
100
AcDbCircle
 10
-83.5
 20
-48.5
 30
0.0
 40
2.999999999999986
100
AcDbArc
 50
270.0
 51
0.0
  0
ARC
  5
512
330
1F
100
AcDbEntity
  8
slots
  6
Continuous
370
    15
100
AcDbCircle
 10
-94.25
 20
-48.5
 30
0.0
 40
3.000000000000014
100
AcDbArc
 50
180.0
 51
270.0
  0
ARC
  5
513
330
1F
100
AcDbEntity
  8
slots
  6
Continuous
370
    15
100
AcDbCircle
 10
-94.25
 20
-41.5
 30
0.0
 40
3.0
100
AcDbArc
 50
90.0
 51
180.0
  0
ARC
  5
514
330
1F
100
AcDbEntity
  8
slots
  6
Continuous
370
    15
100
AcDbCircle
 10
-83.5
 20
-41.5
 30
0.0
 40
3.000000000000036
100
AcDbArc
 50
0.0
 51
90.0
  0
ARC
  5
515
330
1F
100
AcDbEntity
  8
slots
  6
Continuous
370
    15
100
AcDbCircle
 10
-63.75
 20
-48.5
 30
0.0
 40
3.000000000000014
100
AcDbArc
 50
270.0
 51
0.0
  0
ARC
  5
516
330
1F
100
AcDbEntity
  8
slots
  6
Continuous
370
    15
100
AcDbCircle
 10
-74.5
 20
-48.5
 30
0.0
 40
3.000000000000014
100
AcDbArc
 50
180.0
 51
270.0
  0
ARC
  5
517
330
1F
100
AcDbEntity
  8
slots
  6
Continuous
370
    15
100
AcDbCircle
 10
-74.5
 20
-41.5
 30
0.0
 40
3.000000000000007
100
AcDbArc
 50
90.0
 51
180.0
  0
ARC
  5
518
330
1F
100
AcDbEntity
  8
slots
  6
Continuous
370
    15
100
AcDbCircle
 10
-63.75
 20
-41.5
 30
0.0
 40
3.000000000000021
100
AcDbArc
 50
0.0
 51
90.0
  0
ARC
  5
519
330
1F
100
AcDbEntity
  8
slots
  6
Continuous
370
    15
100
AcDbCircle
 10
-44.0
 20
-48.5
 30
0.0
 40
3.0
100
AcDbArc
 50
270.0
 51
0.0
  0
ARC
  5
51A
330
1F
100
AcDbEntity
  8
slots
  6
Continuous
370
    15
100
AcDbCircle
 10
-54.75
 20
-48.5
 30
0.0
 40
3.0
100
AcDbArc
 50
180.0
 51
270.0
  0
ARC
  5
51B
330
1F
100
AcDbEntity
  8
slots
  6
Continuous
370
    15
100
AcDbCircle
 10
-54.75
 20
-41.5
 30
0.0
 40
3.000000000000007
100
AcDbArc
 50
90.0
 51
180.0
  0
ARC
  5
51C
330
1F
100
AcDbEntity
  8
slots
  6
Continuous
370
    15
100
AcDbCircle
 10
-44.0
 20
-41.5
 30
0.0
 40
3.000000000000021
100
AcDbArc
 50
0.0
 51
90.0
  0
ARC
  5
51D
330
1F
100
AcDbEntity
  8
slots
  6
Continuous
370
    15
100
AcDbCircle
 10
-24.25
 20
-48.5
 30
0.0
 40
3.000000000000007
100
AcDbArc
 50
270.0
 51
0.0
  0
ARC
  5
51E
330
1F
100
AcDbEntity
  8
slots
  6
Continuous
370
    15
100
AcDbCircle
 10
-35.0
 20
-48.5
 30
0.0
 40
3.000000000000014
100
AcDbArc
 50
180.0
 51
270.0
  0
ARC
  5
51F
330
1F
100
AcDbEntity
  8
slots
  6
Continuous
370
    15
100
AcDbCircle
 10
-35.0
 20
-41.5
 30
0.0
 40
3.000000000000014
100
AcDbArc
 50
90.0
 51
180.0
  0
ARC
  5
520
330
1F
100
AcDbEntity
  8
slots
  6
Continuous
370
    15
100
AcDbCircle
 10
-24.25
 20
-41.5
 30
0.0
 40
3.000000000000014
100
AcDbArc
 50
0.0
 51
90.0
  0
ARC
  5
521
330
1F
100
AcDbEntity
  8
slots
  6
Continuous
370
    15
100
AcDbCircle
 10
-4.5
 20
-48.5
 30
0.0
 40
3.000000000000007
100
AcDbArc
 50
270.0
 51
0.0
  0
ARC
  5
522
330
1F
100
AcDbEntity
  8
slots
  6
Continuous
370
    15
100
AcDbCircle
 10
-15.25
 20
-48.5
 30
0.0
 40
3.000000000000014
100
AcDbArc
 50
180.0
 51
270.0
  0
ARC
  5
523
330
1F
100
AcDbEntity
  8
slots
  6
Continuous
370
    15
100
AcDbCircle
 10
-15.25
 20
-41.5
 30
0.0
 40
3.000000000000014
100
AcDbArc
 50
90.0
 51
180.0
  0
ARC
  5
524
330
1F
100
AcDbEntity
  8
slots
  6
Continuous
370
    15
100
AcDbCircle
 10
-4.5
 20
-41.5
 30
0.0
 40
3.000000000000014
100
AcDbArc
 50
0.0
 51
90.00000000000001
  0
ARC
  5
525
330
1F
100
AcDbEntity
  8
slots
  6
Continuous
370
    15
100
AcDbCircle
 10
-83.5
 20
-64.5
 30
0.0
 40
2.999999999999972
100
AcDbArc
 50
270.0
 51
0.0
  0
ARC
  5
526
330
1F
100
AcDbEntity
  8
slots
  6
Continuous
370
    15
100
AcDbCircle
 10
-94.25
 20
-64.5
 30
0.0
 40
2.999999999999972
100
AcDbArc
 50
180.0
 51
270.0
  0
ARC
  5
527
330
1F
100
AcDbEntity
  8
slots
  6
Continuous
370
    15
100
AcDbCircle
 10
-94.25
 20
-57.5
 30
0.0
 40
3.0
100
AcDbArc
 50
90.0
 51
180.0
  0
ARC
  5
528
330
1F
100
AcDbEntity
  8
slots
  6
Continuous
370
    15
100
AcDbCircle
 10
-83.5
 20
-57.5
 30
0.0
 40
3.000000000000036
100
AcDbArc
 50
0.0
 51
90.0
  0
ARC
  5
529
330
1F
100
AcDbEntity
  8
slots
  6
Continuous
370
    15
100
AcDbCircle
 10
-63.75
 20
-64.5
 30
0.0
 40
3.0
100
AcDbArc
 50
270.0
 51
0.0
  0
ARC
  5
52A
330
1F
100
AcDbEntity
  8
slots
  6
Continuous
370
    15
100
AcDbCircle
 10
-74.5
 20
-64.5
 30
0.0
 40
2.999999999999986
100
AcDbArc
 50
180.0
 51
270.0
  0
ARC
  5
52B
330
1F
100
AcDbEntity
  8
slots
  6
Continuous
370
    15
100
AcDbCircle
 10
-74.5
 20
-57.5
 30
0.0
 40
3.000000000000007
100
AcDbArc
 50
90.0
 51
180.0
  0
ARC
  5
52C
330
1F
100
AcDbEntity
  8
slots
  6
Continuous
370
    15
100
AcDbCircle
 10
-63.75
 20
-57.5
 30
0.0
 40
3.000000000000028
100
AcDbArc
 50
0.0
 51
90.0
  0
ARC
  5
52D
330
1F
100
AcDbEntity
  8
slots
  6
Continuous
370
    15
100
AcDbCircle
 10
-44.0
 20
-64.5
 30
0.0
 40
2.999999999999979
100
AcDbArc
 50
270.0
 51
0.0
  0
ARC
  5
52E
330
1F
100
AcDbEntity
  8
slots
  6
Continuous
370
    15
100
AcDbCircle
 10
-54.75
 20
-64.5
 30
0.0
 40
2.999999999999986
100
AcDbArc
 50
180.0
 51
270.0
  0
ARC
  5
52F
330
1F
100
AcDbEntity
  8
slots
  6
Continuous
370
    15
100
AcDbCircle
 10
-54.75
 20
-57.5
 30
0.0
 40
3.000000000000007
100
AcDbArc
 50
90.0
 51
180.0
  0
ARC
  5
530
330
1F
100
AcDbEntity
  8
slots
  6
Continuous
370
    15
100
AcDbCircle
 10
-44.0
 20
-57.5
 30
0.0
 40
3.000000000000028
100
AcDbArc
 50
0.0
 51
90.0
  0
ARC
  5
531
330
1F
100
AcDbEntity
  8
slots
  6
Continuous
370
    15
100
AcDbCircle
 10
-35.0
 20
-57.5
 30
0.0
 40
3.000000000000021
100
AcDbArc
 50
90.0
 51
180.0
  0
ARC
  5
532
330
1F
100
AcDbEntity
  8
slots
  6
Continuous
370
    15
100
AcDbCircle
 10
-24.25
 20
-57.5
 30
0.0
 40
3.000000000000014
100
AcDbArc
 50
0.0
 51
90.0
  0
ARC
  5
533
330
1F
100
AcDbEntity
  8
slots
  6
Continuous
370
    15
100
AcDbCircle
 10
-24.25
 20
-64.5
 30
0.0
 40
2.999999999999979
100
AcDbArc
 50
270.0
 51
0.0
  0
ARC
  5
534
330
1F
100
AcDbEntity
  8
slots
  6
Continuous
370
    15
100
AcDbCircle
 10
-35.0
 20
-64.5
 30
0.0
 40
3.0
100
AcDbArc
 50
180.0
 51
270.0
  0
ARC
  5
535
330
1F
100
AcDbEntity
  8
slots
  6
Continuous
370
    15
100
AcDbCircle
 10
-15.25
 20
-64.5
 30
0.0
 40
3.0
100
AcDbArc
 50
180.0
 51
270.0
  0
ARC
  5
536
330
1F
100
AcDbEntity
  8
slots
  6
Continuous
370
    15
100
AcDbCircle
 10
-15.25
 20
-57.5
 30
0.0
 40
3.000000000000007
100
AcDbArc
 50
90.0
 51
180.0
  0
ARC
  5
537
330
1F
100
AcDbEntity
  8
slots
  6
Continuous
370
    15
100
AcDbCircle
 10
-4.5
 20
-57.5
 30
0.0
 40
3.000000000000014
100
AcDbArc
 50
0.0
 51
90.00000000000001
  0
ARC
  5
538
330
1F
100
AcDbEntity
  8
slots
  6
Continuous
370
    15
100
AcDbCircle
 10
-4.5
 20
-64.5
 30
0.0
 40
2.999999999999986
100
AcDbArc
 50
270.0
 51
0.0
  0
ARC
  5
539
330
1F
100
AcDbEntity
  8
slots
  6
Continuous
370
    15
100
AcDbCircle
 10
15.25
 20
-57.5
 30
0.0
 40
3.000000000000021
100
AcDbArc
 50
0.0
 51
90.0
  0
ARC
  5
53A
330
1F
100
AcDbEntity
  8
slots
  6
Continuous
370
    15
100
AcDbCircle
 10
15.25
 20
-64.5
 30
0.0
 40
2.999999999999988
100
AcDbArc
 50
270.0
 51
0.0
  0
ARC
  5
53B
330
1F
100
AcDbEntity
  8
slots
  6
Continuous
370
    15
100
AcDbCircle
 10
4.5
 20
-64.5
 30
0.0
 40
3.0
100
AcDbArc
 50
180.0
 51
270.0
  0
ARC
  5
53C
330
1F
100
AcDbEntity
  8
slots
  6
Continuous
370
    15
100
AcDbCircle
 10
4.5
 20
-57.5
 30
0.0
 40
3.000000000000007
100
AcDbArc
 50
90.00000000000001
 51
180.0
  0
ARC
  5
53D
330
1F
100
AcDbEntity
  8
slots
  6
Continuous
370
    15
100
AcDbCircle
 10
15.25
 20
-25.5
 30
0.0
 40
3.000000000000004
100
AcDbArc
 50
0.0
 51
90.0
  0
ARC
  5
53E
330
1F
100
AcDbEntity
  8
slots
  6
Continuous
370
    15
100
AcDbCircle
 10
15.25
 20
-32.5
 30
0.0
 40
3.000000000000007
100
AcDbArc
 50
270.0
 51
0.0
  0
ARC
  5
53F
330
1F
100
AcDbEntity
  8
slots
  6
Continuous
370
    15
100
AcDbCircle
 10
4.5
 20
-32.5
 30
0.0
 40
3.000000000000007
100
AcDbArc
 50
180.0
 51
270.0
  0
ARC
  5
540
330
1F
100
AcDbEntity
  8
slots
  6
Continuous
370
    15
100
AcDbCircle
 10
4.5
 20
-25.5
 30
0.0
 40
3.000000000000004
100
AcDbArc
 50
90.00000000000001
 51
180.0
  0
ARC
  5
541
330
1F
100
AcDbEntity
  8
slots
  6
Continuous
370
    15
100
AcDbCircle
 10
15.25
 20
6.5
 30
0.0
 40
3.000000000000002
100
AcDbArc
 50
0.0
 51
90.0
  0
ARC
  5
542
330
1F
100
AcDbEntity
  8
slots
  6
Continuous
370
    15
100
AcDbCircle
 10
15.25
 20
-0.5
 30
0.0
 40
3.000000000000004
100
AcDbArc
 50
270.0
 51
0.0
  0
ARC
  5
543
330
1F
100
AcDbEntity
  8
slots
  6
Continuous
370
    15
100
AcDbCircle
 10
4.5
 20
-0.5
 30
0.0
 40
3.000000000000004
100
AcDbArc
 50
180.0
 51
270.0
  0
ARC
  5
544
330
1F
100
AcDbEntity
  8
slots
  6
Continuous
370
    15
100
AcDbCircle
 10
4.5
 20
6.5
 30
0.0
 40
3.000000000000003
100
AcDbArc
 50
90.00000000000001
 51
180.0
  0
ARC
  5
545
330
1F
100
AcDbEntity
  8
slots
  6
Continuous
370
    15
100
AcDbCircle
 10
15.25
 20
38.5
 30
0.0
 40
3.000000000000016
100
AcDbArc
 50
0.0
 51
90.0
  0
ARC
  5
546
330
1F
100
AcDbEntity
  8
slots
  6
Continuous
370
    15
100
AcDbCircle
 10
15.25
 20
31.5
 30
0.0
 40
3.0
100
AcDbArc
 50
270.0
 51
0.0
  0
ARC
  5
547
330
1F
100
AcDbEntity
  8
slots
  6
Continuous
370
    15
100
AcDbCircle
 10
4.5
 20
31.5
 30
0.0
 40
3.0
100
AcDbArc
 50
180.0
 51
270.0
  0
ARC
  5
548
330
1F
100
AcDbEntity
  8
slots
  6
Continuous
370
    15
100
AcDbCircle
 10
4.5
 20
38.5
 30
0.0
 40
3.000000000000002
100
AcDbArc
 50
90.00000000000001
 51
180.0
  0
ARC
  5
549
330
1F
100
AcDbEntity
  8
slots
  6
Continuous
370
    15
100
AcDbCircle
 10
35.0
 20
-57.5
 30
0.0
 40
3.000000000000021
100
AcDbArc
 50
0.0
 51
90.0
  0
ARC
  5
54A
330
1F
100
AcDbEntity
  8
slots
  6
Continuous
370
    15
100
AcDbCircle
 10
35.0
 20
-64.5
 30
0.0
 40
3.0
100
AcDbArc
 50
270.0
 51
0.0
  0
ARC
  5
54B
330
1F
100
AcDbEntity
  8
slots
  6
Continuous
370
    15
100
AcDbCircle
 10
24.25
 20
-64.5
 30
0.0
 40
3.0
100
AcDbArc
 50
180.0
 51
270.0
  0
ARC
  5
54C
330
1F
100
AcDbEntity
  8
slots
  6
Continuous
370
    15
100
AcDbCircle
 10
24.25
 20
-57.5
 30
0.0
 40
3.000000000000007
100
AcDbArc
 50
90.0
 51
180.0
  0
ARC
  5
54D
330
1F
100
AcDbEntity
  8
slots
  6
Continuous
370
    15
100
AcDbCircle
 10
35.0
 20
-25.5
 30
0.0
 40
3.000000000000007
100
AcDbArc
 50
0.0
 51
90.0
  0
ARC
  5
54E
330
1F
100
AcDbEntity
  8
slots
  6
Continuous
370
    15
100
AcDbCircle
 10
35.0
 20
-32.5
 30
0.0
 40
3.000000000000007
100
AcDbArc
 50
270.0
 51
0.0
  0
ARC
  5
54F
330
1F
100
AcDbEntity
  8
slots
  6
Continuous
370
    15
100
AcDbCircle
 10
24.25
 20
-32.5
 30
0.0
 40
3.000000000000007
100
AcDbArc
 50
180.0
 51
270.0
  0
ARC
  5
550
330
1F
100
AcDbEntity
  8
slots
  6
Continuous
370
    15
100
AcDbCircle
 10
24.25
 20
-25.5
 30
0.0
 40
2.999999999999996
100
AcDbArc
 50
90.0
 51
180.0
  0
ARC
  5
551
330
1F
100
AcDbEntity
  8
slots
  6
Continuous
370
    15
100
AcDbCircle
 10
35.0
 20
6.5
 30
0.0
 40
3.000000000000001
100
AcDbArc
 50
0.0
 51
90.0
  0
ARC
  5
552
330
1F
100
AcDbEntity
  8
slots
  6
Continuous
370
    15
100
AcDbCircle
 10
35.0
 20
-0.5
 30
0.0
 40
3.000000000000007
100
AcDbArc
 50
270.0
 51
0.0
  0
ARC
  5
553
330
1F
100
AcDbEntity
  8
slots
  6
Continuous
370
    15
100
AcDbCircle
 10
24.25
 20
-0.5
 30
0.0
 40
3.0
100
AcDbArc
 50
180.0
 51
270.0
  0
ARC
  5
554
330
1F
100
AcDbEntity
  8
slots
  6
Continuous
370
    15
100
AcDbCircle
 10
24.25
 20
6.5
 30
0.0
 40
2.999999999999994
100
AcDbArc
 50
90.0
 51
180.0
  0
ARC
  5
555
330
1F
100
AcDbEntity
  8
slots
  6
Continuous
370
    15
100
AcDbCircle
 10
35.0
 20
38.5
 30
0.0
 40
3.000000000000014
100
AcDbArc
 50
0.0
 51
90.0
  0
ARC
  5
556
330
1F
100
AcDbEntity
  8
slots
  6
Continuous
370
    15
100
AcDbCircle
 10
35.0
 20
31.5
 30
0.0
 40
3.000000000000004
100
AcDbArc
 50
270.0
 51
0.0
  0
ARC
  5
557
330
1F
100
AcDbEntity
  8
slots
  6
Continuous
370
    15
100
AcDbCircle
 10
24.25
 20
31.5
 30
0.0
 40
2.999999999999996
100
AcDbArc
 50
180.0
 51
270.0
  0
ARC
  5
558
330
1F
100
AcDbEntity
  8
slots
  6
Continuous
370
    15
100
AcDbCircle
 10
24.25
 20
38.5
 30
0.0
 40
2.999999999999993
100
AcDbArc
 50
90.0
 51
180.0
  0
ARC
  5
559
330
1F
100
AcDbEntity
  8
slots
  6
Continuous
370
    15
100
AcDbCircle
 10
54.75
 20
-57.5
 30
0.0
 40
3.000000000000007
100
AcDbArc
 50
0.0
 51
90.0
  0
ARC
  5
55A
330
1F
100
AcDbEntity
  8
slots
  6
Continuous
370
    15
100
AcDbCircle
 10
54.75
 20
-64.5
 30
0.0
 40
2.999999999999986
100
AcDbArc
 50
270.0
 51
0.0
  0
ARC
  5
55B
330
1F
100
AcDbEntity
  8
slots
  6
Continuous
370
    15
100
AcDbCircle
 10
44.0
 20
-64.5
 30
0.0
 40
3.0
100
AcDbArc
 50
180.0
 51
270.0
  0
ARC
  5
55C
330
1F
100
AcDbEntity
  8
slots
  6
Continuous
370
    15
100
AcDbCircle
 10
44.0
 20
-57.5
 30
0.0
 40
3.000000000000014
100
AcDbArc
 50
90.0
 51
180.0
  0
ARC
  5
55D
330
1F
100
AcDbEntity
  8
slots
  6
Continuous
370
    15
100
AcDbCircle
 10
54.75
 20
-25.5
 30
0.0
 40
2.999999999999993
100
AcDbArc
 50
0.0
 51
90.0
  0
ARC
  5
55E
330
1F
100
AcDbEntity
  8
slots
  6
Continuous
370
    15
100
AcDbCircle
 10
54.75
 20
-32.5
 30
0.0
 40
3.0
100
AcDbArc
 50
270.0
 51
0.0
  0
ARC
  5
55F
330
1F
100
AcDbEntity
  8
slots
  6
Continuous
370
    15
100
AcDbCircle
 10
44.0
 20
-32.5
 30
0.0
 40
3.000000000000014
100
AcDbArc
 50
180.0
 51
270.0
  0
ARC
  5
560
330
1F
100
AcDbEntity
  8
slots
  6
Continuous
370
    15
100
AcDbCircle
 10
44.0
 20
-25.5
 30
0.0
 40
3.000000000000011
100
AcDbArc
 50
90.0
 51
180.0
  0
ARC
  5
561
330
1F
100
AcDbEntity
  8
slots
  6
Continuous
370
    15
100
AcDbCircle
 10
54.75
 20
6.5
 30
0.0
 40
2.999999999999993
100
AcDbArc
 50
0.0
 51
90.0
  0
ARC
  5
562
330
1F
100
AcDbEntity
  8
slots
  6
Continuous
370
    15
100
AcDbCircle
 10
54.75
 20
-0.5
 30
0.0
 40
2.999999999999996
100
AcDbArc
 50
270.0
 51
0.0
  0
ARC
  5
563
330
1F
100
AcDbEntity
  8
slots
  6
Continuous
370
    15
100
AcDbCircle
 10
44.0
 20
-0.5
 30
0.0
 40
3.000000000000008
100
AcDbArc
 50
180.0
 51
270.0
  0
ARC
  5
564
330
1F
100
AcDbEntity
  8
slots
  6
Continuous
370
    15
100
AcDbCircle
 10
44.0
 20
6.5
 30
0.0
 40
3.000000000000007
100
AcDbArc
 50
90.0
 51
180.0
  0
ARC
  5
565
330
1F
100
AcDbEntity
  8
slots
  6
Continuous
370
    15
100
AcDbCircle
 10
54.75
 20
38.5
 30
0.0
 40
3.0
100
AcDbArc
 50
0.0
 51
90.0
  0
ARC
  5
566
330
1F
100
AcDbEntity
  8
slots
  6
Continuous
370
    15
100
AcDbCircle
 10
54.75
 20
31.5
 30
0.0
 40
3.000000000000004
100
AcDbArc
 50
270.0
 51
0.0
  0
ARC
  5
567
330
1F
100
AcDbEntity
  8
slots
  6
Continuous
370
    15
100
AcDbCircle
 10
44.0
 20
31.5
 30
0.0
 40
3.000000000000007
100
AcDbArc
 50
180.0
 51
270.0
  0
ARC
  5
568
330
1F
100
AcDbEntity
  8
slots
  6
Continuous
370
    15
100
AcDbCircle
 10
44.0
 20
38.5
 30
0.0
 40
3.000000000000007
100
AcDbArc
 50
90.0
 51
180.0
  0
ARC
  5
569
330
1F
100
AcDbEntity
  8
slots
  6
Continuous
370
    15
100
AcDbCircle
 10
74.5
 20
-57.5
 30
0.0
 40
3.000000000000021
100
AcDbArc
 50
0.0
 51
90.0
  0
ARC
  5
56A
330
1F
100
AcDbEntity
  8
slots
  6
Continuous
370
    15
100
AcDbCircle
 10
74.5
 20
-64.5
 30
0.0
 40
2.999999999999986
100
AcDbArc
 50
270.0
 51
0.0
  0
ARC
  5
56B
330
1F
100
AcDbEntity
  8
slots
  6
Continuous
370
    15
100
AcDbCircle
 10
63.75
 20
-64.5
 30
0.0
 40
2.999999999999986
100
AcDbArc
 50
180.0
 51
270.0
  0
ARC
  5
56C
330
1F
100
AcDbEntity
  8
slots
  6
Continuous
370
    15
100
AcDbCircle
 10
63.75
 20
-57.5
 30
0.0
 40
3.000000000000014
100
AcDbArc
 50
90.0
 51
180.0
  0
ARC
  5
56D
330
1F
100
AcDbEntity
  8
slots
  6
Continuous
370
    15
100
AcDbCircle
 10
74.5
 20
-25.5
 30
0.0
 40
2.999999999999989
100
AcDbArc
 50
0.0
 51
90.0
  0
ARC
  5
56E
330
1F
100
AcDbEntity
  8
slots
  6
Continuous
370
    15
100
AcDbCircle
 10
74.5
 20
-32.5
 30
0.0
 40
3.0
100
AcDbArc
 50
270.0
 51
0.0
  0
ARC
  5
56F
330
1F
100
AcDbEntity
  8
slots
  6
Continuous
370
    15
100
AcDbCircle
 10
63.75
 20
-32.5
 30
0.0
 40
3.000000000000007
100
AcDbArc
 50
180.0
 51
270.0
  0
ARC
  5
570
330
1F
100
AcDbEntity
  8
slots
  6
Continuous
370
    15
100
AcDbCircle
 10
63.75
 20
-25.5
 30
0.0
 40
3.0
100
AcDbArc
 50
90.0
 51
180.0
  0
ARC
  5
571
330
1F
100
AcDbEntity
  8
slots
  6
Continuous
370
    15
100
AcDbCircle
 10
74.5
 20
6.5
 30
0.0
 40
2.999999999999989
100
AcDbArc
 50
0.0
 51
90.0
  0
ARC
  5
572
330
1F
100
AcDbEntity
  8
slots
  6
Continuous
370
    15
100
AcDbCircle
 10
74.5
 20
-0.5
 30
0.0
 40
3.0
100
AcDbArc
 50
270.0
 51
0.0
  0
ARC
  5
573
330
1F
100
AcDbEntity
  8
slots
  6
Continuous
370
    15
100
AcDbCircle
 10
63.75
 20
-0.5
 30
0.0
 40
3.000000000000001
100
AcDbArc
 50
180.0
 51
270.0
  0
ARC
  5
574
330
1F
100
AcDbEntity
  8
slots
  6
Continuous
370
    15
100
AcDbCircle
 10
63.75
 20
6.5
 30
0.0
 40
3.000000000000008
100
AcDbArc
 50
90.0
 51
180.0
  0
ARC
  5
575
330
1F
100
AcDbEntity
  8
slots
  6
Continuous
370
    15
100
AcDbCircle
 10
74.5
 20
38.5
 30
0.0
 40
3.000000000000014
100
AcDbArc
 50
0.0
 51
90.0
  0
ARC
  5
576
330
1F
100
AcDbEntity
  8
slots
  6
Continuous
370
    15
100
AcDbCircle
 10
74.5
 20
31.5
 30
0.0
 40
2.999999999999993
100
AcDbArc
 50
270.0
 51
0.0
  0
ARC
  5
577
330
1F
100
AcDbEntity
  8
slots
  6
Continuous
370
    15
100
AcDbCircle
 10
63.75
 20
31.5
 30
0.0
 40
3.000000000000004
100
AcDbArc
 50
180.0
 51
270.0
  0
ARC
  5
578
330
1F
100
AcDbEntity
  8
slots
  6
Continuous
370
    15
100
AcDbCircle
 10
63.75
 20
38.5
 30
0.0
 40
3.000000000000007
100
AcDbArc
 50
90.0
 51
180.0
  0
ARC
  5
579
330
1F
100
AcDbEntity
  8
slots
  6
Continuous
370
    15
100
AcDbCircle
 10
94.25
 20
-57.5
 30
0.0
 40
3.000000000000021
100
AcDbArc
 50
0.0
 51
90.0
  0
ARC
  5
57A
330
1F
100
AcDbEntity
  8
slots
  6
Continuous
370
    15
100
AcDbCircle
 10
94.25
 20
-64.5
 30
0.0
 40
2.999999999999972
100
AcDbArc
 50
270.0
 51
0.0
  0
ARC
  5
57B
330
1F
100
AcDbEntity
  8
slots
  6
Continuous
370
    15
100
AcDbCircle
 10
83.5
 20
-64.5
 30
0.0
 40
3.0
100
AcDbArc
 50
180.0
 51
270.0
  0
ARC
  5
57C
330
1F
100
AcDbEntity
  8
slots
  6
Continuous
370
    15
100
AcDbCircle
 10
83.5
 20
-57.5
 30
0.0
 40
3.000000000000028
100
AcDbArc
 50
90.0
 51
180.0
  0
ARC
  5
57D
330
1F
100
AcDbEntity
  8
slots
  6
Continuous
370
    15
100
AcDbCircle
 10
94.25
 20
-25.5
 30
0.0
 40
2.999999999999986
100
AcDbArc
 50
0.0
 51
90.0
  0
ARC
  5
57E
330
1F
100
AcDbEntity
  8
slots
  6
Continuous
370
    15
100
AcDbCircle
 10
94.25
 20
-32.5
 30
0.0
 40
2.999999999999993
100
AcDbArc
 50
270.0
 51
0.0
  0
ARC
  5
57F
330
1F
100
AcDbEntity
  8
slots
  6
Continuous
370
    15
100
AcDbCircle
 10
83.5
 20
-32.5
 30
0.0
 40
3.000000000000014
100
AcDbArc
 50
180.0
 51
270.0
  0
ARC
  5
580
330
1F
100
AcDbEntity
  8
slots
  6
Continuous
370
    15
100
AcDbCircle
 10
83.5
 20
-25.5
 30
0.0
 40
3.000000000000014
100
AcDbArc
 50
90.0
 51
180.0
  0
ARC
  5
581
330
1F
100
AcDbEntity
  8
slots
  6
Continuous
370
    15
100
AcDbCircle
 10
94.25
 20
6.5
 30
0.0
 40
2.999999999999986
100
AcDbArc
 50
0.0
 51
90.0
  0
ARC
  5
582
330
1F
100
AcDbEntity
  8
slots
  6
Continuous
370
    15
100
AcDbCircle
 10
94.25
 20
-0.5
 30
0.0
 40
3.0
100
AcDbArc
 50
270.0
 51
0.0
  0
ARC
  5
583
330
1F
100
AcDbEntity
  8
slots
  6
Continuous
370
    15
100
AcDbCircle
 10
83.5
 20
-0.5
 30
0.0
 40
3.000000000000007
100
AcDbArc
 50
180.0
 51
270.0
  0
ARC
  5
584
330
1F
100
AcDbEntity
  8
slots
  6
Continuous
370
    15
100
AcDbCircle
 10
83.5
 20
6.5
 30
0.0
 40
3.000000000000015
100
AcDbArc
 50
90.0
 51
180.0
  0
ARC
  5
585
330
1F
100
AcDbEntity
  8
slots
  6
Continuous
370
    15
100
AcDbCircle
 10
94.25
 20
38.5
 30
0.0
 40
3.000000000000014
100
AcDbArc
 50
0.0
 51
90.0
  0
ARC
  5
586
330
1F
100
AcDbEntity
  8
slots
  6
Continuous
370
    15
100
AcDbCircle
 10
94.25
 20
31.5
 30
0.0
 40
2.999999999999996
100
AcDbArc
 50
270.0
 51
0.0
  0
ARC
  5
587
330
1F
100
AcDbEntity
  8
slots
  6
Continuous
370
    15
100
AcDbCircle
 10
83.5
 20
31.5
 30
0.0
 40
3.000000000000007
100
AcDbArc
 50
180.0
 51
270.0
  0
ARC
  5
588
330
1F
100
AcDbEntity
  8
slots
  6
Continuous
370
    15
100
AcDbCircle
 10
83.5
 20
38.5
 30
0.0
 40
3.000000000000014
100
AcDbArc
 50
90.0
 51
180.0
  0
ARC
  5
589
330
1F
100
AcDbEntity
  8
slots
  6
Continuous
370
    15
100
AcDbCircle
 10
94.25
 20
76.5
 30
0.0
 40
3.000000000000014
100
AcDbArc
 50
0.0
 51
90.0
  0
ARC
  5
58A
330
1F
100
AcDbEntity
  8
slots
  6
Continuous
370
    15
100
AcDbCircle
 10
94.25
 20
68.5
 30
0.0
 40
2.999999999999986
100
AcDbArc
 50
270.0
 51
0.0
  0
ARC
  5
58B
330
1F
100
AcDbEntity
  8
slots
  6
Continuous
370
    15
100
AcDbCircle
 10
-94.25
 20
68.5
 30
0.0
 40
2.999999999999986
100
AcDbArc
 50
180.0
 51
270.0
  0
ARC
  5
58C
330
1F
100
AcDbEntity
  8
slots
  6
Continuous
370
    15
100
AcDbCircle
 10
-94.25
 20
76.5
 30
0.0
 40
3.0
100
AcDbArc
 50
90.0
 51
180.0
  0
ARC
  5
58D
330
1F
100
AcDbEntity
  8
0
  6
Continuous
 62
     7
370
    15
100
AcDbCircle
 10
107.5
 20
-77.0
 30
0.0
 40
13.50000000000004
100
AcDbArc
 50
270.0
 51
0.0
  0
ARC
  5
58E
330
1F
100
AcDbEntity
  8
0
  6
Continuous
 62
     7
370
    15
100
AcDbCircle
 10
-107.5
 20
77.0
 30
0.0
 40
13.50000000000003
100
AcDbArc
 50
90.0
 51
180.0
  0
ARC
  5
58F
330
1F
100
AcDbEntity
  8
0
  6
Continuous
 62
     7
370
    15
100
AcDbCircle
 10
-112.0
 20
-81.5
 30
0.0
 40
9.0
100
AcDbArc
 50
180.0
 51
270.0
  0
ARC
  5
590
330
1F
100
AcDbEntity
  8
0
  6
Continuous
 62
     7
370
    15
100
AcDbCircle
 10
94.0952542363
 20
105.5
 30
0.0
 40
15.00000000000006
100
AcDbArc
 50
270.0
 51
323.9941419006
  0
ARC
  5
591
330
1F
100
AcDbEntity
  8
0
  6
Continuous
 62
     7
370
    15
100
AcDbCircle
 10
118.3639610307
 20
87.8639610307
 30
0.0
 40
15.00000000000001
100
AcDbArc
 50
306.0058580993999
 51
143.9941419006
  0
ARC
  5
592
330
1F
100
AcDbEntity
  8
0
  6
Continuous
 62
     7
370
    15
100
AcDbCircle
 10
136.0
 20
63.59525423629999
 30
0.0
 40
15.00000000000006
100
AcDbArc
 50
126.0058580994
 51
180.0
  0
ARC
  5
5D9
330
1F
100
AcDbEntity
  8
slots
  6
Continuous
370
    15
100
AcDbCircle
 10
-39.5
 20
56.67944947177038
 30
0.0
 40
2.0
100
AcDbArc
 50
205.8419327631674
 51
334.1580672368326
  0
ARC
  5
5DA
330
1F
100
AcDbEntity
  8
slots
  6
Continuous
370
    15
100
AcDbCircle
 10
-39.5
 20
45.32055052822962
 30
0.0
 40
2.0
100
AcDbArc
 50
25.84193276316746
 51
154.1580672368326
  0
LINE
  5
5DB
330
1F
100
AcDbEntity
  8
slots
  6
Continuous
370
    15
100
AcDbLine
 10
-15.25
 20
44.5
 30
0.0
 11
-4.5
 21
44.5
 31
0.0
  0
LINE
  5
5DC
330
1F
100
AcDbEntity
  8
slots
  6
Continuous
370
    15
100
AcDbLine
 10
-18.25
 20
54.5
 30
0.0
 11
-18.25
 21
47.5
 31
0.0
  0
LINE
  5
5DD
330
1F
100
AcDbEntity
  8
slots
  6
Continuous
370
    15
100
AcDbLine
 10
-4.5
 20
57.5
 30
0.0
 11
-15.25
 21
57.5
 31
0.0
  0
LINE
  5
5DE
330
1F
100
AcDbEntity
  8
slots
  6
Continuous
370
    15
100
AcDbLine
 10
4.5
 20
44.5
 30
0.0
 11
15.25
 21
44.5
 31
0.0
  0
LINE
  5
5DF
330
1F
100
AcDbEntity
  8
slots
  6
Continuous
370
    15
100
AcDbLine
 10
15.25
 20
57.5
 30
0.0
 11
4.5
 21
57.5
 31
0.0
  0
LINE
  5
5E0
330
1F
100
AcDbEntity
  8
slots
  6
Continuous
370
    15
100
AcDbLine
 10
18.25
 20
47.5
 30
0.0
 11
18.25
 21
54.5
 31
0.0
  0
ARC
  5
5E1
330
1F
100
AcDbEntity
  8
slots
  6
Continuous
370
    15
100
AcDbCircle
 10
-15.25
 20
47.5
 30
0.0
 40
3.0
100
AcDbArc
 50
180.0
 51
270.0
  0
ARC
  5
5E2
330
1F
100
AcDbEntity
  8
slots
  6
Continuous
370
    15
100
AcDbCircle
 10
-15.25
 20
54.5
 30
0.0
 40
3.0
100
AcDbArc
 50
90.0
 51
180.0
  0
ARC
  5
5E3
330
1F
100
AcDbEntity
  8
slots
  6
Continuous
370
    15
100
AcDbCircle
 10
15.25
 20
47.5
 30
0.0
 40
3.000000000000007
100
AcDbArc
 50
270.0
 51
0.0
  0
ARC
  5
5E4
330
1F
100
AcDbEntity
  8
slots
  6
Continuous
370
    15
100
AcDbCircle
 10
15.25
 20
54.5
 30
0.0
 40
3.000000000000007
100
AcDbArc
 50
0.0
 51
90.0
  0
ARC
  5
5E5
330
1F
100
AcDbEntity
  8
slots
  6
Continuous
370
    15
100
AcDbCircle
 10
0.0
 20
45.32055052822962
 30
0.0
 40
2.0
100
AcDbArc
 50
25.84193276316748
 51
154.1580672368326
  0
ARC
  5
5E6
330
1F
100
AcDbEntity
  8
slots
  6
Continuous
370
    15
100
AcDbCircle
 10
0.0
 20
56.67944947177038
 30
0.0
 40
2.0
100
AcDbArc
 50
205.8419327631674
 51
334.1580672368326
  0
ARC
  5
5E7
330
1F
100
AcDbEntity
  8
slots
  6
Continuous
370
    15
100
AcDbCircle
 10
4.5
 20
47.5
 30
0.0
 40
3.000000000000014
100
AcDbArc
 50
205.8419327631676
 51
270.0
  0
ARC
  5
5E8
330
1F
100
AcDbEntity
  8
slots
  6
Continuous
370
    15
100
AcDbCircle
 10
-4.5
 20
54.5
 30
0.0
 40
3.000000000000021
100
AcDbArc
 50
25.84193276316752
 51
90.0
  0
ARC
  5
5E9
330
1F
100
AcDbEntity
  8
slots
  6
Continuous
370
    15
100
AcDbCircle
 10
-4.5
 20
47.5
 30
0.0
 40
3.0
100
AcDbArc
 50
270.0
 51
334.1580672368324
  0
ARC
  5
5EA
330
1F
100
AcDbEntity
  8
slots
  6
Continuous
370
    15
100
AcDbCircle
 10
4.5
 20
54.5
 30
0.0
 40
3.000000000000014
100
AcDbArc
 50
90.0
 51
154.1580672368324
  0
LINE
  5
5EB
330
1F
100
AcDbEntity
  8
slots
  6
Continuous
370
    15
100
AcDbLine
 10
24.25
 20
44.5
 30
0.0
 11
35.0
 21
44.5
 31
0.0
  0
LINE
  5
5EC
330
1F
100
AcDbEntity
  8
slots
  6
Continuous
370
    15
100
AcDbLine
 10
21.25
 20
54.5
 30
0.0
 11
21.25
 21
47.5
 31
0.0
  0
LINE
  5
5ED
330
1F
100
AcDbEntity
  8
slots
  6
Continuous
370
    15
100
AcDbLine
 10
35.0
 20
57.5
 30
0.0
 11
24.25
 21
57.5
 31
0.0
  0
LINE
  5
5EE
330
1F
100
AcDbEntity
  8
slots
  6
Continuous
370
    15
100
AcDbLine
 10
44.0
 20
44.5
 30
0.0
 11
54.75
 21
44.5
 31
0.0
  0
LINE
  5
5EF
330
1F
100
AcDbEntity
  8
slots
  6
Continuous
370
    15
100
AcDbLine
 10
54.75
 20
57.5
 30
0.0
 11
44.0
 21
57.5
 31
0.0
  0
LINE
  5
5F0
330
1F
100
AcDbEntity
  8
slots
  6
Continuous
370
    15
100
AcDbLine
 10
57.75
 20
47.5
 30
0.0
 11
57.75
 21
54.5
 31
0.0
  0
ARC
  5
5F1
330
1F
100
AcDbEntity
  8
slots
  6
Continuous
370
    15
100
AcDbCircle
 10
24.25
 20
47.5
 30
0.0
 40
3.0
100
AcDbArc
 50
180.0
 51
270.0
  0
ARC
  5
5F2
330
1F
100
AcDbEntity
  8
slots
  6
Continuous
370
    15
100
AcDbCircle
 10
24.25
 20
54.5
 30
0.0
 40
3.0
100
AcDbArc
 50
90.0
 51
180.0
  0
ARC
  5
5F3
330
1F
100
AcDbEntity
  8
slots
  6
Continuous
370
    15
100
AcDbCircle
 10
54.75
 20
47.5
 30
0.0
 40
3.000000000000007
100
AcDbArc
 50
270.0
 51
0.0
  0
ARC
  5
5F4
330
1F
100
AcDbEntity
  8
slots
  6
Continuous
370
    15
100
AcDbCircle
 10
54.75
 20
54.5
 30
0.0
 40
3.000000000000007
100
AcDbArc
 50
0.0
 51
90.0
  0
ARC
  5
5F5
330
1F
100
AcDbEntity
  8
slots
  6
Continuous
370
    15
100
AcDbCircle
 10
39.5
 20
45.32055052822962
 30
0.0
 40
2.0
100
AcDbArc
 50
25.84193276316746
 51
154.1580672368326
  0
ARC
  5
5F6
330
1F
100
AcDbEntity
  8
slots
  6
Continuous
370
    15
100
AcDbCircle
 10
39.5
 20
56.67944947177038
 30
0.0
 40
2.0
100
AcDbArc
 50
205.8419327631674
 51
334.1580672368326
  0
ARC
  5
5F7
330
1F
100
AcDbEntity
  8
slots
  6
Continuous
370
    15
100
AcDbCircle
 10
44.0
 20
47.5
 30
0.0
 40
3.000000000000014
100
AcDbArc
 50
205.8419327631676
 51
270.0
  0
ARC
  5
5F8
330
1F
100
AcDbEntity
  8
slots
  6
Continuous
370
    15
100
AcDbCircle
 10
35.0
 20
54.5
 30
0.0
 40
3.000000000000021
100
AcDbArc
 50
25.84193276316752
 51
90.0
  0
ARC
  5
5F9
330
1F
100
AcDbEntity
  8
slots
  6
Continuous
370
    15
100
AcDbCircle
 10
35.0
 20
47.5
 30
0.0
 40
3.0
100
AcDbArc
 50
270.0
 51
334.1580672368324
  0
ARC
  5
5FA
330
1F
100
AcDbEntity
  8
slots
  6
Continuous
370
    15
100
AcDbCircle
 10
44.0
 20
54.5
 30
0.0
 40
3.000000000000014
100
AcDbArc
 50
90.0
 51
154.1580672368324
  0
LINE
  5
5FB
330
1F
100
AcDbEntity
  8
slots
  6
Continuous
370
    15
100
AcDbLine
 10
63.75
 20
44.5
 30
0.0
 11
74.5
 21
44.5
 31
0.0
  0
LINE
  5
5FC
330
1F
100
AcDbEntity
  8
slots
  6
Continuous
370
    15
100
AcDbLine
 10
60.75
 20
54.5
 30
0.0
 11
60.75
 21
47.5
 31
0.0
  0
LINE
  5
5FD
330
1F
100
AcDbEntity
  8
slots
  6
Continuous
370
    15
100
AcDbLine
 10
74.5
 20
57.5
 30
0.0
 11
63.75
 21
57.5
 31
0.0
  0
LINE
  5
5FE
330
1F
100
AcDbEntity
  8
slots
  6
Continuous
370
    15
100
AcDbLine
 10
83.5
 20
44.5
 30
0.0
 11
94.25
 21
44.5
 31
0.0
  0
LINE
  5
5FF
330
1F
100
AcDbEntity
  8
slots
  6
Continuous
370
    15
100
AcDbLine
 10
94.25
 20
57.5
 30
0.0
 11
83.5
 21
57.5
 31
0.0
  0
LINE
  5
600
330
1F
100
AcDbEntity
  8
slots
  6
Continuous
370
    15
100
AcDbLine
 10
97.25
 20
47.5
 30
0.0
 11
97.25
 21
54.5
 31
0.0
  0
ARC
  5
601
330
1F
100
AcDbEntity
  8
slots
  6
Continuous
370
    15
100
AcDbCircle
 10
63.75
 20
47.5
 30
0.0
 40
3.0
100
AcDbArc
 50
180.0
 51
270.0
  0
ARC
  5
602
330
1F
100
AcDbEntity
  8
slots
  6
Continuous
370
    15
100
AcDbCircle
 10
63.75
 20
54.5
 30
0.0
 40
3.0
100
AcDbArc
 50
90.0
 51
180.0
  0
ARC
  5
603
330
1F
100
AcDbEntity
  8
slots
  6
Continuous
370
    15
100
AcDbCircle
 10
94.25
 20
47.5
 30
0.0
 40
3.000000000000007
100
AcDbArc
 50
270.0
 51
0.0
  0
ARC
  5
604
330
1F
100
AcDbEntity
  8
slots
  6
Continuous
370
    15
100
AcDbCircle
 10
94.25
 20
54.5
 30
0.0
 40
3.000000000000007
100
AcDbArc
 50
0.0
 51
90.0
  0
ARC
  5
605
330
1F
100
AcDbEntity
  8
slots
  6
Continuous
370
    15
100
AcDbCircle
 10
79.0
 20
45.32055052822962
 30
0.0
 40
2.0
100
AcDbArc
 50
25.84193276316746
 51
154.1580672368326
  0
ARC
  5
606
330
1F
100
AcDbEntity
  8
slots
  6
Continuous
370
    15
100
AcDbCircle
 10
79.0
 20
56.67944947177038
 30
0.0
 40
2.0
100
AcDbArc
 50
205.8419327631674
 51
334.1580672368326
  0
ARC
  5
607
330
1F
100
AcDbEntity
  8
slots
  6
Continuous
370
    15
100
AcDbCircle
 10
83.5
 20
47.5
 30
0.0
 40
3.000000000000014
100
AcDbArc
 50
205.8419327631676
 51
270.0
  0
ARC
  5
608
330
1F
100
AcDbEntity
  8
slots
  6
Continuous
370
    15
100
AcDbCircle
 10
74.5
 20
54.5
 30
0.0
 40
3.000000000000021
100
AcDbArc
 50
25.84193276316746
 51
90.0
  0
ARC
  5
609
330
1F
100
AcDbEntity
  8
slots
  6
Continuous
370
    15
100
AcDbCircle
 10
74.5
 20
47.5
 30
0.0
 40
3.0
100
AcDbArc
 50
270.0
 51
334.1580672368324
  0
ARC
  5
60A
330
1F
100
AcDbEntity
  8
slots
  6
Continuous
370
    15
100
AcDbCircle
 10
83.5
 20
54.5
 30
0.0
 40
3.000000000000014
100
AcDbArc
 50
90.0
 51
154.1580672368324
  0
ARC
  5
60F
330
1F
100
AcDbEntity
  8
slots
  6
Continuous
370
    15
100
AcDbCircle
 10
110.9999999999999
 20
2.0
 30
0.0
 40
6.0
100
AcDbArc
 50
0.0
 51
180.0
  0
ARC
  5
610
330
1F
100
AcDbEntity
  8
slots
  6
Continuous
370
    15
100
AcDbCircle
 10
-110.9999999999999
 20
2.0
 30
0.0
 40
6.0
100
AcDbArc
 50
0.0
 51
180.0
  0
LINE
  5
615
330
1F
100
AcDbEntity
  8
slots
  6
Continuous
370
    15
100
AcDbLine
 10
-47.49999999999997
 20
-83.5
 30
0.0
 11
47.49999999999999
 21
-83.5
 31
0.0
  0
LINE
  5
616
330
1F
100
AcDbEntity
  8
slots
  6
Continuous
370
    15
100
AcDbLine
 10
-47.49999999999997
 20
-78.5
 30
0.0
 11
47.49999999999999
 21
-78.5
 31
0.0
  0
ARC
  5
617
330
1F
100
AcDbEntity
  8
slots
  6
Continuous
370
    15
100
AcDbCircle
 10
-47.49999999999997
 20
-81.00000000000003
 30
0.0
 40
2.500000000000028
100
AcDbArc
 50
90.0
 51
270.0
  0
ARC
  5
618
330
1F
100
AcDbEntity
  8
slots
  6
Continuous
370
    15
100
AcDbCircle
 10
47.49999999999999
 20
-81.00000000000001
 30
0.0
 40
2.500000000000014
100
AcDbArc
 50
270.0
 51
90.0
  0
CIRCLE
  5
641
330
1F
100
AcDbEntity
  8
slots
  6
Continuous
370
    15
100
AcDbCircle
 10
7.999999999999993
 20
85.0
 30
0.0
 40
3.1
  0
CIRCLE
  5
642
330
1F
100
AcDbEntity
  8
slots
  6
Continuous
370
    15
100
AcDbCircle
 10
17.99999999999999
 20
85.0
 30
0.0
 40
3.1
  0
CIRCLE
  5
643
330
1F
100
AcDbEntity
  8
slots
  6
Continuous
370
    15
100
AcDbCircle
 10
17.99999999999999
 20
85.0
 30
0.0
 40
3.1
  0
CIRCLE
  5
644
330
1F
100
AcDbEntity
  8
slots
  6
Continuous
370
    15
100
AcDbCircle
 10
27.99999999999999
 20
85.0
 30
0.0
 40
3.1
  0
CIRCLE
  5
645
330
1F
100
AcDbEntity
  8
slots
  6
Continuous
370
    15
100
AcDbCircle
 10
37.99999999999999
 20
85.0
 30
0.0
 40
3.1
  0
CIRCLE
  5
647
330
1F
100
AcDbEntity
  8
slots
  6
Continuous
370
    15
100
AcDbCircle
 10
113.5
 20
78.0
 30
0.0
 40
3.1
  0
CIRCLE
  5
649
330
1F
100
AcDbEntity
  8
slots
  6
Continuous
370
    15
100
AcDbCircle
 10
113.5
 20
67.99999999999999
 30
0.0
 40
3.1
  0
CIRCLE
  5
64A
330
1F
100
AcDbEntity
  8
slots
  6
Continuous
370
    15
100
AcDbCircle
 10
113.5
 20
57.99999999999997
 30
0.0
 40
3.1
  0
ARC
  5
110A
330
1F
100
AcDbEntity
  8
slots
  6
Continuous
370
    15
100
AcDbCircle
 10
-110.9999999999999
 20
-6.500000000000057
 30
0.0
 40
6.0
100
AcDbArc
 50
180.0
 51
0.0
  0
ARC
  5
110B
330
1F
100
AcDbEntity
  8
slots
  6
Continuous
370
    15
100
AcDbCircle
 10
110.9999999999999
 20
-6.500000000000057
 30
0.0
 40
6.0
100
AcDbArc
 50
180.0
 51
0.0
  0
LINE
  5
110D
330
1F
100
AcDbEntity
  8
slots
  6
Continuous
370
    15
100
AcDbLine
 10
-116.9999999999999
 20
2.000000000000001
 30
0.0
 11
-116.9999999999999
 21
-6.500000000000056
 31
0.0
  0
LINE
  5
110E
330
1F
100
AcDbEntity
  8
slots
  6
Continuous
370
    15
100
AcDbLine
 10
-104.9999999999999
 20
2.0
 30
0.0
 11
-104.9999999999999
 21
-6.500000000000057
 31
0.0
  0
LINE
  5
110F
330
1F
100
AcDbEntity
  8
slots
  6
Continuous
370
    15
100
AcDbLine
 10
104.9999999999999
 20
2.000000000000001
 30
0.0
 11
104.9999999999999
 21
-6.500000000000056
 31
0.0
  0
LINE
  5
1110
330
1F
100
AcDbEntity
  8
slots
  6
Continuous
370
    15
100
AcDbLine
 10
116.9999999999999
 20
2.0
 30
0.0
 11
116.9999999999999
 21
-6.500000000000057
 31
0.0
  0
ENDSEC
  0
SECTION
  2
OBJECTS
  0
DICTIONARY
  5
C
330
0
100
AcDbDictionary
281
     1
  3
ACAD_DETAILVIEWSTYLE
350
653
  3
ACAD_GROUP
350
D
  3
ACAD_IMAGE_VARS
350
5B4
  3
ACAD_LAYOUT
350
1A
  3
ACAD_MLINESTYLE
350
17
  3
ACAD_PLOTSETTINGS
350
19
  3
ACAD_PLOTSTYLENAME
350
E
  3
ACAD_SCALELIST
350
47
  3
ACAD_SECTIONVIEWSTYLE
350
654
  3
AcDbVariableDictionary
350
64B
  3
APPDATA
350
5B2
  3
DWGPROPS
350
1212
  0
DICTIONARY
  5
BAB
330
2
100
AcDbDictionary
280
     1
281
     1
  3
ACAD_LAYERSTATES
360
BAC
  3
ACLYDICTIONARY
360
1105
  0
DICTIONARY
  5
653
102
{ACAD_REACTORS
330
C
102
}
330
C
100
AcDbDictionary
281
     1
  0
DICTIONARY
  5
D
102
{ACAD_REACTORS
330
C
102
}
330
C
100
AcDbDictionary
281
     1
  0
RASTERVARIABLES
  5
5B4
102
{ACAD_REACTORS
330
C
102
}
330
C
100
AcDbRasterVariables
 90
        0
 70
     1
 71
     1
 72
     1
  0
DICTIONARY
  5
1A
102
{ACAD_REACTORS
330
C
102
}
330
C
100
AcDbDictionary
281
     1
  3
Layout1
350
1E
  3
Layout2
350
26
  3
Model
350
22
  0
DICTIONARY
  5
17
102
{ACAD_REACTORS
330
C
102
}
330
C
100
AcDbDictionary
281
     1
  3
Standard
350
18
  0
DICTIONARY
  5
19
102
{ACAD_REACTORS
330
C
102
}
330
C
100
AcDbDictionary
281
     1
  0
ACDBDICTIONARYWDFLT
  5
E
102
{ACAD_REACTORS
330
C
102
}
330
C
100
AcDbDictionary
281
     1
  3
Normal
350
F
100
AcDbDictionaryWithDefault
340
F
  0
DICTIONARY
  5
47
102
{ACAD_REACTORS
330
C
102
}
330
C
100
AcDbDictionary
281
     1
  3
A0
350
48
  3
A1
350
49
  3
A2
350
4A
  3
A3
350
4B
  3
A4
350
4C
  3
A5
350
4D
  3
A6
350
4E
  3
A7
350
4F
  3
A8
350
50
  3
A9
350
51
  3
B0
350
52
  3
B1
350
53
  3
B2
350
54
  3
B3
350
55
  3
B4
350
56
  3
B5
350
57
  3
B6
350
58
  3
B7
350
59
  3
B8
350
5A
  3
B9
350
5B
  3
C0
350
5C
  3
C1
350
5D
  3
C2
350
5E
  3
C3
350
5F
  3
C4
350
60
  3
C5
350
61
  3
C6
350
62
  3
C7
350
63
  3
C8
350
64
  3
C9
350
65
  3
D0
350
66
  3
D1
350
67
  3
D2
350
68
  0
DICTIONARY
  5
654
102
{ACAD_REACTORS
330
C
102
}
330
C
100
AcDbDictionary
281
     1
  0
DICTIONARY
  5
64B
102
{ACAD_REACTORS
330
C
102
}
330
C
100
AcDbDictionary
281
     1
  0
DICTIONARY
  5
5B2
102
{ACAD_REACTORS
330
C
102
}
330
C
100
AcDbDictionary
281
     1
  0
XRECORD
  5
1212
102
{ACAD_REACTORS
330
C
102
}
330
C
100
AcDbXrecord
280
     1
  1
DWGPROPS COOKIE
  2

  3

  4

  6

  7

  8
Paul
  9

300
=
301
=
302
=
303
=
304
=
305
=
306
=
307
=
308
=
309
=
 40
0.0
 41
2457493.648192153
 42
2457588.466231794
  1

 90
        0
  0
DICTIONARY
  5
BAC
102
{ACAD_REACTORS
330
BAB
102
}
330
BAB
100
AcDbDictionary
281
     1
  3
ARGON_LAYERP_1
350
BAD
  3
ARGON_LAYERP_2
350
BB1
  3
ARGON_LAYERP_3
350
1103
  3
ARGON_LAYERP_4
350
1106
  3
ARGON_LAYERP_5
350
110C
  0
DICTIONARY
  5
1105
102
{ACAD_REACTORS
330
BAB
102
}
330
BAB
100
AcDbDictionary
281
     1
1001
ACAD
1000
<All
  0
LAYOUT
  5
1E
102
{ACAD_REACTORS
330
1A
102
}
330
1A
100
AcDbPlotSettings
  1

  2
none_device
  4

  6

 40
0.0
 41
0.0
 42
0.0
 43
0.0
 44
0.0
 45
0.0
 46
0.0
 47
0.0
 48
0.0
 49
0.0
140
0.0
141
0.0
142
1.0
143
1.0
 70
   688
 72
     1
 73
     0
 74
     5
  7

 75
    16
147
1.0
148
0.0
149
0.0
100
AcDbLayout
  1
Layout1
 70
     1
 71
     1
 10
0.0
 20
0.0
 11
420.0
 21
297.0
 12
0.0
 22
0.0
 32
0.0
 14
1.000000000000000E+20
 24
1.000000000000000E+20
 34
1.000000000000000E+20
 15
-1.000000000000000E+20
 25
-1.000000000000000E+20
 35
-1.000000000000000E+20
146
0.0
 13
0.0
 23
0.0
 33
0.0
 16
1.0
 26
0.0
 36
0.0
 17
0.0
 27
1.0
 37
0.0
 76
     0
330
1B
  0
LAYOUT
  5
26
102
{ACAD_REACTORS
330
1A
102
}
330
1A
100
AcDbPlotSettings
  1

  2
none_device
  4

  6

 40
0.0
 41
0.0
 42
0.0
 43
0.0
 44
0.0
 45
0.0
 46
0.0
 47
0.0
 48
0.0
 49
0.0
140
0.0
141
0.0
142
1.0
143
1.0
 70
   688
 72
     1
 73
     0
 74
     5
  7

 75
    16
147
1.0
148
0.0
149
0.0
100
AcDbLayout
  1
Layout2
 70
     1
 71
     2
 10
0.0
 20
0.0
 11
0.0
 21
0.0
 12
0.0
 22
0.0
 32
0.0
 14
0.0
 24
0.0
 34
0.0
 15
0.0
 25
0.0
 35
0.0
146
0.0
 13
0.0
 23
0.0
 33
0.0
 16
1.0
 26
0.0
 36
0.0
 17
0.0
 27
1.0
 37
0.0
 76
     0
330
23
  0
LAYOUT
  5
22
102
{ACAD_REACTORS
330
1A
102
}
330
1A
100
AcDbPlotSettings
  1

  2
none_device
  4
ANSI_A_(11.00_x_8.50_Inches)
  6

 40
6.35
 41
19.05
 42
6.35000508
 43
19.05000254
 44
279.4
 45
215.9
 46
126.6550431713
 47
82.2050444413
 48
0.0
 49
0.0
140
0.0
141
0.0
142
0.0426369635
143
1.0
 70
  1696
 72
     0
 73
     0
 74
     0
  7

 75
     0
147
0.0179189148
148
-1300.4909072572
149
0.0
100
AcDbLayout
  1
Model
 70
     1
 71
     0
 10
0.0
 20
0.0
 11
420.0
 21
297.0
 12
0.0
 22
0.0
 32
0.0
 14
-121.0
 24
-90.50000000000004
 34
0.0
 15
133.3639610307
 25
102.8639610307
 35
0.0
146
0.0
 13
0.0
 23
0.0
 33
0.0
 16
1.0
 26
0.0
 36
0.0
 17
0.0
 27
1.0
 37
0.0
 76
     0
330
1F
331
29
  0
MLINESTYLE
  5
18
102
{ACAD_REACTORS
330
17
102
}
330
17
100
AcDbMlineStyle
  2
Standard
 70
     0
  3

 62
   256
 51
90.0
 52
90.0
 71
     2
 49
0.5
 62
   256
  6
BYLAYER
 49
-0.5
 62
   256
  6
BYLAYER
  0
ACDBPLACEHOLDER
  5
F
102
{ACAD_REACTORS
330
E
102
}
330
E
  0
SCALE
  5
48
102
{ACAD_REACTORS
330
47
102
}
330
47
100
AcDbScale
 70
     0
300
1:1
140
1.0
141
1.0
290
     1
  0
SCALE
  5
49
102
{ACAD_REACTORS
330
47
102
}
330
47
100
AcDbScale
 70
     0
300
1:2
140
1.0
141
2.0
290
     0
  0
SCALE
  5
4A
102
{ACAD_REACTORS
330
47
102
}
330
47
100
AcDbScale
 70
     0
300
1:4
140
1.0
141
4.0
290
     0
  0
SCALE
  5
4B
102
{ACAD_REACTORS
330
47
102
}
330
47
100
AcDbScale
 70
     0
300
1:5
140
1.0
141
5.0
290
     0
  0
SCALE
  5
4C
102
{ACAD_REACTORS
330
47
102
}
330
47
100
AcDbScale
 70
     0
300
1:8
140
1.0
141
8.0
290
     0
  0
SCALE
  5
4D
102
{ACAD_REACTORS
330
47
102
}
330
47
100
AcDbScale
 70
     0
300
1:10
140
1.0
141
10.0
290
     0
  0
SCALE
  5
4E
102
{ACAD_REACTORS
330
47
102
}
330
47
100
AcDbScale
 70
     0
300
1:16
140
1.0
141
16.0
290
     0
  0
SCALE
  5
4F
102
{ACAD_REACTORS
330
47
102
}
330
47
100
AcDbScale
 70
     0
300
1:20
140
1.0
141
20.0
290
     0
  0
SCALE
  5
50
102
{ACAD_REACTORS
330
47
102
}
330
47
100
AcDbScale
 70
     0
300
1:30
140
1.0
141
30.0
290
     0
  0
SCALE
  5
51
102
{ACAD_REACTORS
330
47
102
}
330
47
100
AcDbScale
 70
     0
300
1:40
140
1.0
141
40.0
290
     0
  0
SCALE
  5
52
102
{ACAD_REACTORS
330
47
102
}
330
47
100
AcDbScale
 70
     0
300
1:50
140
1.0
141
50.0
290
     0
  0
SCALE
  5
53
102
{ACAD_REACTORS
330
47
102
}
330
47
100
AcDbScale
 70
     0
300
1:100
140
1.0
141
100.0
290
     0
  0
SCALE
  5
54
102
{ACAD_REACTORS
330
47
102
}
330
47
100
AcDbScale
 70
     0
300
2:1
140
2.0
141
1.0
290
     0
  0
SCALE
  5
55
102
{ACAD_REACTORS
330
47
102
}
330
47
100
AcDbScale
 70
     0
300
4:1
140
4.0
141
1.0
290
     0
  0
SCALE
  5
56
102
{ACAD_REACTORS
330
47
102
}
330
47
100
AcDbScale
 70
     0
300
8:1
140
8.0
141
1.0
290
     0
  0
SCALE
  5
57
102
{ACAD_REACTORS
330
47
102
}
330
47
100
AcDbScale
 70
     0
300
10:1
140
10.0
141
1.0
290
     0
  0
SCALE
  5
58
102
{ACAD_REACTORS
330
47
102
}
330
47
100
AcDbScale
 70
     0
300
100:1
140
100.0
141
1.0
290
     0
  0
SCALE
  5
59
102
{ACAD_REACTORS
330
47
102
}
330
47
100
AcDbScale
 70
     0
300
1/128" = 1'-0"
140
0.0078125
141
12.0
290
     0
  0
SCALE
  5
5A
102
{ACAD_REACTORS
330
47
102
}
330
47
100
AcDbScale
 70
     0
300
1/64" = 1'-0"
140
0.015625
141
12.0
290
     0
  0
SCALE
  5
5B
102
{ACAD_REACTORS
330
47
102
}
330
47
100
AcDbScale
 70
     0
300
1/32" = 1'-0"
140
0.03125
141
12.0
290
     0
  0
SCALE
  5
5C
102
{ACAD_REACTORS
330
47
102
}
330
47
100
AcDbScale
 70
     0
300
1/16" = 1'-0"
140
0.0625
141
12.0
290
     0
  0
SCALE
  5
5D
102
{ACAD_REACTORS
330
47
102
}
330
47
100
AcDbScale
 70
     0
300
3/32" = 1'-0"
140
0.09375
141
12.0
290
     0
  0
SCALE
  5
5E
102
{ACAD_REACTORS
330
47
102
}
330
47
100
AcDbScale
 70
     0
300
1/8" = 1'-0"
140
0.125
141
12.0
290
     0
  0
SCALE
  5
5F
102
{ACAD_REACTORS
330
47
102
}
330
47
100
AcDbScale
 70
     0
300
3/16" = 1'-0"
140
0.1875
141
12.0
290
     0
  0
SCALE
  5
60
102
{ACAD_REACTORS
330
47
102
}
330
47
100
AcDbScale
 70
     0
300
1/4" = 1'-0"
140
0.25
141
12.0
290
     0
  0
SCALE
  5
61
102
{ACAD_REACTORS
330
47
102
}
330
47
100
AcDbScale
 70
     0
300
3/8" = 1'-0"
140
0.375
141
12.0
290
     0
  0
SCALE
  5
62
102
{ACAD_REACTORS
330
47
102
}
330
47
100
AcDbScale
 70
     0
300
1/2" = 1'-0"
140
0.5
141
12.0
290
     0
  0
SCALE
  5
63
102
{ACAD_REACTORS
330
47
102
}
330
47
100
AcDbScale
 70
     0
300
3/4" = 1'-0"
140
0.75
141
12.0
290
     0
  0
SCALE
  5
64
102
{ACAD_REACTORS
330
47
102
}
330
47
100
AcDbScale
 70
     0
300
1" = 1'-0"
140
1.0
141
12.0
290
     0
  0
SCALE
  5
65
102
{ACAD_REACTORS
330
47
102
}
330
47
100
AcDbScale
 70
     0
300
1-1/2" = 1'-0"
140
1.5
141
12.0
290
     0
  0
SCALE
  5
66
102
{ACAD_REACTORS
330
47
102
}
330
47
100
AcDbScale
 70
     0
300
3" = 1'-0"
140
3.0
141
12.0
290
     0
  0
SCALE
  5
67
102
{ACAD_REACTORS
330
47
102
}
330
47
100
AcDbScale
 70
     0
300
6" = 1'-0"
140
6.0
141
12.0
290
     0
  0
SCALE
  5
68
102
{ACAD_REACTORS
330
47
102
}
330
47
100
AcDbScale
 70
     0
300
1'-0" = 1'-0"
140
12.0
141
12.0
290
     0
  0
XRECORD
  5
BAD
102
{ACAD_REACTORS
330
BAC
102
}
330
BAC
100
AcDbXrecord
280
     1
 91
     1023
301

290
     0
302
0
330
10
 90
        8
 62
     7
370
    -3
331
16
  1
Color_7
330
5D8
 90
        0
 62
     7
370
    -3
331
16
  1
Color_7
  0
XRECORD
  5
BB1
102
{ACAD_REACTORS
330
BAC
102
}
330
BAC
100
AcDbXrecord
280
     1
 91
     1023
301

290
     0
302
0
330
10
 90
        8
 62
     7
370
    -3
331
16
  1
Color_7
330
5D8
 90
        0
 62
     7
370
    -3
331
16
  1
Color_7
330
BAE
 90
        8
 62
     1
370
    -3
331
16
  1
Color_1
  0
XRECORD
  5
1103
102
{ACAD_REACTORS
330
BAC
102
}
330
BAC
100
AcDbXrecord
280
     1
 91
     1023
301

290
     0
302
Issue C
330
10
 90
        8
 62
     7
370
    -3
331
16
  1
Color_7
330
5D8
 90
        0
 62
     7
370
    -3
331
16
  1
Color_7
330
BAE
 90
        8
 62
     1
370
    -3
331
16
  1
Color_1
  0
XRECORD
  5
1106
102
{ACAD_REACTORS
330
BAC
102
}
330
BAC
100
AcDbXrecord
280
     1
 91
     1023
301

290
     0
302
Issue C
330
10
 90
        8
 62
     7
370
    -3
331
16
  1
Color_7
330
5D8
 90
        0
 62
     7
370
    -3
331
16
  1
Color_7
330
BAE
 90
        8
 62
     1
370
    -3
331
16
  1
Color_1
330
1104
 90
        8
 62
     2
370
    -3
331
16
  1
Color_2
  0
XRECORD
  5
110C
102
{ACAD_REACTORS
330
BAC
102
}
330
BAC
100
AcDbXrecord
280
     1
 91
     1023
301

290
     0
302
Issue B
330
10
 90
        8
 62
     7
370
    -3
331
16
  1
Color_7
330
5D8
 90
        0
 62
     7
370
    -3
331
16
  1
Color_7
330
BAE
 90
        8
 62
     1
370
    -3
331
16
  1
Color_1
330
1104
 90
        8
 62
     2
370
    -3
331
16
  1
Color_2
  0
ENDSEC
  0
EOF
