  0
SECTION
  2
HEADER
  9
$ACADVER
  1
AC1015
  9
$ACADMAINTVER
 70
     6
  9
$DWGCODEPAGE
  3
ANSI_1252
  9
$INSBASE
 10
0.0
 20
0.0
 30
0.0
  9
$EXTMIN
 10
-104.0
 20
-74.90268335862422
 30
0.0
  9
$EXTMAX
 10
104.0
 20
62.00000000000003
 30
0.0
  9
$LIMMIN
 10
0.0
 20
0.0
  9
$LIMMAX
 10
420.0
 20
297.0
  9
$ORTHOMODE
 70
     1
  9
$REGENMODE
 70
     1
  9
$FILLMODE
 70
     1
  9
$QTEXTMODE
 70
     0
  9
$MIRRTEXT
 70
     1
  9
$LTSCALE
 40
1.0
  9
$ATTMODE
 70
     1
  9
$TEXTSIZE
 40
3.5
  9
$TRACEWID
 40
1.0
  9
$TEXTSTYLE
  7
Standard
  9
$CLAYER
  8
0
  9
$CELTYPE
  6
ByLayer
  9
$CECOLOR
 62
   256
  9
$CELTSCALE
 40
1.0
  9
$DISPSILH
 70
     0
  9
$DIMSCALE
 40
1.0
  9
$DIMASZ
 40
3.302
  9
$DIMEXO
 40
1.0
  9
$DIMDLI
 40
3.75
  9
$DIMRND
 40
0.0
  9
$DIMDLE
 40
0.0
  9
$DIMEXE
 40
1.0
  9
$DIMTP
 40
0.0
  9
$DIMTM
 40
0.0
  9
$DIMTXT
 40
3.5
  9
$DIMCEN
 40
2.5
  9
$DIMTSZ
 40
0.0
  9
$DIMTOL
 70
     0
  9
$DIMLIM
 70
     0
  9
$DIMTIH
 70
     1
  9
$DIMTOH
 70
     1
  9
$DIMSE1
 70
     0
  9
$DIMSE2
 70
     0
  9
$DIMTAD
 70
     1
  9
$DIMZIN
 70
     0
  9
$DIMBLK
  1

  9
$DIMASO
 70
     1
  9
$DIMSHO
 70
     1
  9
$DIMPOST
  1

  9
$DIMAPOST
  1

  9
$DIMALT
 70
     0
  9
$DIMALTD
 70
     3
  9
$DIMALTF
 40
0.0393700787
  9
$DIMLFAC
 40
1.0
  9
$DIMTOFL
 70
     1
  9
$DIMTVP
 40
0.0
  9
$DIMTIX
 70
     0
  9
$DIMSOXD
 70
     0
  9
$DIMSAH
 70
     0
  9
$DIMBLK1
  1

  9
$DIMBLK2
  1

  9
$DIMSTYLE
  2
ISO-25
  9
$DIMCLRD
 70
     0
  9
$DIMCLRE
 70
     0
  9
$DIMCLRT
 70
     0
  9
$DIMTFAC
 40
1.0
  9
$DIMGAP
 40
1.524
  9
$DIMJUST
 70
     0
  9
$DIMSD1
 70
     0
  9
$DIMSD2
 70
     0
  9
$DIMTOLJ
 70
     0
  9
$DIMTZIN
 70
     0
  9
$DIMALTZ
 70
     0
  9
$DIMALTTZ
 70
     0
  9
$DIMUPT
 70
     0
  9
$DIMDEC
 70
     2
  9
$DIMTDEC
 70
     2
  9
$DIMALTU
 70
     2
  9
$DIMALTTD
 70
     3
  9
$DIMTXSTY
  7
Standard
  9
$DIMAUNIT
 70
     0
  9
$DIMADEC
 70
     2
  9
$DIMALTRND
 40
0.0
  9
$DIMAZIN
 70
     0
  9
$DIMDSEP
 70
    44
  9
$DIMATFIT
 70
     3
  9
$DIMFRAC
 70
     0
  9
$DIMLDRBLK
  1

  9
$DIMLUNIT
 70
     2
  9
$DIMLWD
 70
    -2
  9
$DIMLWE
 70
    -2
  9
$DIMTMOVE
 70
     0
  9
$LUNITS
 70
     2
  9
$LUPREC
 70
     2
  9
$SKETCHINC
 40
1.0
  9
$FILLETRAD
 40
5.0
  9
$AUNITS
 70
     0
  9
$AUPREC
 70
     2
  9
$MENU
  1
.
  9
$ELEVATION
 40
0.0
  9
$PELEVATION
 40
0.0
  9
$THICKNESS
 40
0.0
  9
$LIMCHECK
 70
     0
  9
$CHAMFERA
 40
0.0
  9
$CHAMFERB
 40
0.0
  9
$CHAMFERC
 40
0.0
  9
$CHAMFERD
 40
0.0
  9
$SKPOLY
 70
     0
  9
$TDCREATE
 40
2457344.514410255
  9
$TDUCREATE
 40
2457344.514410255
  9
$TDUPDATE
 40
2457345.420834363
  9
$TDUUPDATE
 40
2457345.420834363
  9
$TDINDWG
 40
0.0170694676
  9
$TDUSRTIMER
 40
2457345.410743542
  9
$USRTIMER
 70
     1
  9
$ANGBASE
 50
0.0
  9
$ANGDIR
 70
     0
  9
$PDMODE
 70
     0
  9
$PDSIZE
 40
-1.0
  9
$PLINEWID
 40
0.0
  9
$SPLFRAME
 70
     0
  9
$SPLINETYPE
 70
     6
  9
$SPLINESEGS
 70
     8
  9
$HANDSEED
  5
BE4
  9
$SURFTAB1
 70
     6
  9
$SURFTAB2
 70
     6
  9
$SURFTYPE
 70
     6
  9
$SURFU
 70
     6
  9
$SURFV
 70
     6
  9
$UCSBASE
  2

  9
$UCSNAME
  2

  9
$UCSORG
 10
0.0
 20
0.0
 30
0.0
  9
$UCSXDIR
 10
1.0
 20
0.0
 30
0.0
  9
$UCSYDIR
 10
0.0
 20
1.0
 30
0.0
  9
$UCSORTHOREF
  2

  9
$UCSORTHOVIEW
 70
     0
  9
$UCSORGTOP
 10
0.0
 20
0.0
 30
0.0
  9
$UCSORGBOTTOM
 10
0.0
 20
0.0
 30
0.0
  9
$UCSORGLEFT
 10
0.0
 20
0.0
 30
0.0
  9
$UCSORGRIGHT
 10
0.0
 20
0.0
 30
0.0
  9
$UCSORGFRONT
 10
0.0
 20
0.0
 30
0.0
  9
$UCSORGBACK
 10
0.0
 20
0.0
 30
0.0
  9
$PUCSBASE
  2

  9
$PUCSNAME
  2

  9
$PUCSORG
 10
0.0
 20
0.0
 30
0.0
  9
$PUCSXDIR
 10
1.0
 20
0.0
 30
0.0
  9
$PUCSYDIR
 10
0.0
 20
1.0
 30
0.0
  9
$PUCSORTHOREF
  2

  9
$PUCSORTHOVIEW
 70
     0
  9
$PUCSORGTOP
 10
0.0
 20
0.0
 30
0.0
  9
$PUCSORGBOTTOM
 10
0.0
 20
0.0
 30
0.0
  9
$PUCSORGLEFT
 10
0.0
 20
0.0
 30
0.0
  9
$PUCSORGRIGHT
 10
0.0
 20
0.0
 30
0.0
  9
$PUCSORGFRONT
 10
0.0
 20
0.0
 30
0.0
  9
$PUCSORGBACK
 10
0.0
 20
0.0
 30
0.0
  9
$USERI1
 70
     0
  9
$USERI2
 70
     0
  9
$USERI3
 70
     0
  9
$USERI4
 70
     0
  9
$USERI5
 70
     0
  9
$USERR1
 40
0.0
  9
$USERR2
 40
0.0
  9
$USERR3
 40
0.0
  9
$USERR4
 40
0.0
  9
$USERR5
 40
0.0
  9
$WORLDVIEW
 70
     1
  9
$SHADEDGE
 70
     3
  9
$SHADEDIF
 70
    70
  9
$TILEMODE
 70
     1
  9
$MAXACTVP
 70
    64
  9
$PINSBASE
 10
0.0
 20
0.0
 30
0.0
  9
$PLIMCHECK
 70
     0
  9
$PEXTMIN
 10
1.000000000000000E+20
 20
1.000000000000000E+20
 30
1.000000000000000E+20
  9
$PEXTMAX
 10
-1.000000000000000E+20
 20
-1.000000000000000E+20
 30
-1.000000000000000E+20
  9
$PLIMMIN
 10
0.0
 20
0.0
  9
$PLIMMAX
 10
0.0
 20
0.0
  9
$UNITMODE
 70
     0
  9
$VISRETAIN
 70
     1
  9
$PLINEGEN
 70
     0
  9
$PSLTSCALE
 70
     1
  9
$TREEDEPTH
 70
  3020
  9
$CMLSTYLE
  2
Standard
  9
$CMLJUST
 70
     0
  9
$CMLSCALE
 40
20.0
  9
$PROXYGRAPHICS
 70
     1
  9
$MEASUREMENT
 70
     1
  9
$CELWEIGHT
370
    -1
  9
$ENDCAPS
280
     0
  9
$JOINSTYLE
280
     0
  9
$LWDISPLAY
290
     1
  9
$INSUNITS
 70
     4
  9
$HYPERLINKBASE
  1

  9
$STYLESHEET
  1

  9
$XEDIT
290
     1
  9
$CEPSNTYPE
380
     0
  9
$PSTYLEMODE
290
     1
  9
$FINGERPRINTGUID
  2
{CE8EA31A-E430-45CD-A49F-D7B4243E8FE2}
  9
$VERSIONGUID
  2
{FAEB1C32-E019-11D5-929B-00C0DF256EC4}
  9
$EXTNAMES
290
     1
  9
$PSVPSCALE
 40
0.0
  9
$OLESTARTUP
290
     0
  0
ENDSEC
  0
SECTION
  2
CLASSES
  0
CLASS
  1
ACDBDICTIONARYWDFLT
  2
AcDbDictionaryWithDefault
  3
ObjectDBX Classes
 90
        0
280
     0
281
     0
  0
CLASS
  1
VISUALSTYLE
  2
AcDbVisualStyle
  3
ObjectDBX Classes
 90
     4095
280
     0
281
     0
  0
CLASS
  1
MATERIAL
  2
AcDbMaterial
  3
ObjectDBX Classes
 90
     1153
280
     0
281
     0
  0
CLASS
  1
SCALE
  2
AcDbScale
  3
ObjectDBX Classes
 90
     1153
280
     0
281
     0
  0
CLASS
  1
SUN
  2
AcDbSun
  3
SCENEOE
 90
     1153
280
     0
281
     0
  0
CLASS
  1
ACDBPLACEHOLDER
  2
AcDbPlaceHolder
  3
ObjectDBX Classes
 90
        0
280
     0
281
     0
  0
CLASS
  1
LAYOUT
  2
AcDbLayout
  3
ObjectDBX Classes
 90
        0
280
     0
281
     0
  0
CLASS
  1
TABLESTYLE
  2
AcDbTableStyle
  3
ObjectDBX Classes
 90
     4095
280
     0
281
     0
  0
CLASS
  1
RASTERVARIABLES
  2
AcDbRasterVariables
  3
ISM
 90
        0
280
     0
281
     0
  0
CLASS
  1
DIMASSOC
  2
AcDbDimAssoc
  3
"AcDbDimAssoc|Product Desc:     AcDim ARX App For Dimension|Company:          Autodesk, Inc.|WEB Address:      www.autodesk.com"
 90
        0
280
     0
281
     0
  0
ENDSEC
  0
SECTION
  2
TABLES
  0
TABLE
  2
VPORT
  5
8
330
0
100
AcDbSymbolTable
 70
     1
  0
VPORT
  5
29
330
8
100
AcDbSymbolTableRecord
100
AcDbViewportTableRecord
  2
*Active
 70
     0
 10
0.0
 20
0.0
 11
1.0
 21
1.0
 12
50.7445706326782
 22
6.239504099632001
 13
0.0
 23
0.0
 14
10.0
 24
10.0
 15
10.0
 25
10.0
 16
0.0
 26
0.0
 36
1.0
 17
0.0
 27
0.0
 37
0.0
 40
227.8822842829527
 41
2.134502923976608
 42
50.0
 43
0.0
 44
0.0
 50
0.0
 51
0.0
 71
    16
 72
   100
 73
     1
 74
     3
 75
     0
 76
     0
 77
     0
 78
     0
281
     0
 65
     1
110
0.0
120
0.0
130
0.0
111
1.0
121
0.0
131
0.0
112
0.0
122
1.0
132
0.0
 79
     0
146
0.0
  0
ENDTAB
  0
TABLE
  2
LTYPE
  5
5
330
0
100
AcDbSymbolTable
 70
     6
  0
LTYPE
  5
14
330
5
100
AcDbSymbolTableRecord
100
AcDbLinetypeTableRecord
  2
ByBlock
 70
     0
  3

 72
    65
 73
     0
 40
0.0
  0
LTYPE
  5
15
330
5
100
AcDbSymbolTableRecord
100
AcDbLinetypeTableRecord
  2
ByLayer
 70
     0
  3

 72
    65
 73
     0
 40
0.0
  0
LTYPE
  5
16
330
5
100
AcDbSymbolTableRecord
100
AcDbLinetypeTableRecord
  2
Continuous
 70
     0
  3
Solid line
 72
    65
 73
     0
 40
0.0
  0
LTYPE
  5
6A
330
5
100
AcDbSymbolTableRecord
100
AcDbLinetypeTableRecord
  2
HIDDEN
 70
     0
  3
Hidden __ __ __ __ __ __ __ __ __ __ __ __ __ __
 72
    65
 73
     2
 40
1.905
 49
1.27
 74
     0
 49
-0.635
 74
     0
  0
LTYPE
  5
6B
330
5
100
AcDbSymbolTableRecord
100
AcDbLinetypeTableRecord
  2
PHANTOM
 70
     0
  3
Phantom ______  __  __  ______  __  __  ______
 72
    65
 73
     6
 40
12.7
 49
6.35
 74
     0
 49
-1.27
 74
     0
 49
1.27
 74
     0
 49
-1.27
 74
     0
 49
1.27
 74
     0
 49
-1.27
 74
     0
  0
LTYPE
  5
6C
330
5
100
AcDbSymbolTableRecord
100
AcDbLinetypeTableRecord
  2
CENTER
 70
     0
  3
Center ____ _ ____ _ ____ _ ____ _ ____ _ ____
 72
    65
 73
     4
 40
10.16
 49
6.35
 74
     0
 49
-1.27
 74
     0
 49
1.27
 74
     0
 49
-1.27
 74
     0
  0
LTYPE
  5
6D
330
5
100
AcDbSymbolTableRecord
100
AcDbLinetypeTableRecord
  2
CENTERX2
 70
     0
  3
Center (2x) ________  __  ________  __  _____
 72
    65
 73
     4
 40
20.32
 49
12.7
 74
     0
 49
-2.54
 74
     0
 49
2.54
 74
     0
 49
-2.54
 74
     0
  0
LTYPE
  5
6E
330
5
100
AcDbSymbolTableRecord
100
AcDbLinetypeTableRecord
  2
DOT2
 70
     0
  3
Dot (.5x) ........................................
 72
    65
 73
     2
 40
0.635
 49
0.0
 74
     0
 49
-0.635
 74
     0
  0
ENDTAB
  0
TABLE
  2
LAYER
  5
2
330
0
100
AcDbSymbolTable
 70
     5
  0
LAYER
  5
10
330
2
100
AcDbSymbolTableRecord
100
AcDbLayerTableRecord
  2
0
 70
     0
 62
     7
  6
Continuous
370
    -3
390
F
  0
LAYER
  5
3E2
330
2
100
AcDbSymbolTableRecord
100
AcDbLayerTableRecord
  2
edge-profile
 70
     0
 62
     1
  6
Continuous
370
    -3
390
F
1001
AcAecLayerStandard
1000

1000

  0
LAYER
  5
3E5
330
2
100
AcDbSymbolTableRecord
100
AcDbLayerTableRecord
  2
outside
 70
     0
 62
     2
  6
Continuous
370
    -3
390
F
1001
AcAecLayerStandard
1000

1000

  0
LAYER
  5
3E6
330
2
100
AcDbSymbolTableRecord
100
AcDbLayerTableRecord
  2
keys
 70
     0
 62
     3
  6
Continuous
370
    -3
390
F
1001
AcAecLayerStandard
1000

1000

  0
LAYER
  5
66A
330
2
100
AcDbSymbolTableRecord
100
AcDbLayerTableRecord
  2
Defpoints
 70
     0
 62
     7
  6
Continuous
290
     0
370
    -3
390
F
  0
ENDTAB
  0
TABLE
  2
STYLE
  5
3
330
0
100
AcDbSymbolTable
 70
     1
  0
STYLE
  5
11
330
3
100
AcDbSymbolTableRecord
100
AcDbTextStyleTableRecord
  2
Standard
 70
     0
 40
0.0
 41
1.0
 50
0.0
 71
     0
 42
3.5
  3
txt
  4

  0
ENDTAB
  0
TABLE
  2
VIEW
  5
6
330
0
100
AcDbSymbolTable
 70
     0
  0
ENDTAB
  0
TABLE
  2
UCS
  5
7
330
0
100
AcDbSymbolTable
 70
     0
  0
ENDTAB
  0
TABLE
  2
APPID
  5
9
330
0
100
AcDbSymbolTable
 70
     2
  0
APPID
  5
12
330
9
100
AcDbSymbolTableRecord
100
AcDbRegAppTableRecord
  2
ACAD
 70
     0
  0
APPID
  5
3E4
330
9
100
AcDbSymbolTableRecord
100
AcDbRegAppTableRecord
  2
AcAecLayerStandard
 70
     0
  0
ENDTAB
  0
TABLE
  2
DIMSTYLE
  5
A
330
0
100
AcDbSymbolTable
 70
     1
100
AcDbDimStyleTable
  0
DIMSTYLE
105
27
330
A
100
AcDbSymbolTableRecord
100
AcDbDimStyleTableRecord
  2
ISO-25
 70
     0
 41
2.5
 42
0.625
 43
3.75
 44
1.25
 73
     0
 74
     0
 77
     1
 78
     8
140
2.5
141
2.5
143
0.0393700787
147
0.625
171
     3
172
     1
178
     0
271
     2
272
     2
274
     3
278
    44
283
     0
284
     8
340
11
  0
ENDTAB
  0
TABLE
  2
BLOCK_RECORD
  5
1
330
0
100
AcDbSymbolTable
 70
    22
  0
BLOCK_RECORD
  5
1F
330
1
100
AcDbSymbolTableRecord
100
AcDbBlockTableRecord
  2
*Model_Space
340
22
  0
BLOCK_RECORD
  5
1B
330
1
100
AcDbSymbolTableRecord
100
AcDbBlockTableRecord
  2
*Paper_Space
340
1E
  0
BLOCK_RECORD
  5
23
330
1
100
AcDbSymbolTableRecord
100
AcDbBlockTableRecord
  2
*Paper_Space0
340
26
  0
BLOCK_RECORD
  5
66E
330
1
100
AcDbSymbolTableRecord
100
AcDbBlockTableRecord
  2
*D1
340
0
  0
BLOCK_RECORD
  5
67F
330
1
100
AcDbSymbolTableRecord
100
AcDbBlockTableRecord
  2
*D2
340
0
  0
BLOCK_RECORD
  5
690
330
1
100
AcDbSymbolTableRecord
100
AcDbBlockTableRecord
  2
*D3
340
0
  0
BLOCK_RECORD
  5
6A1
330
1
100
AcDbSymbolTableRecord
100
AcDbBlockTableRecord
  2
*D4
340
0
  0
BLOCK_RECORD
  5
6B2
330
1
100
AcDbSymbolTableRecord
100
AcDbBlockTableRecord
  2
*D5
340
0
  0
BLOCK_RECORD
  5
6C4
330
1
100
AcDbSymbolTableRecord
100
AcDbBlockTableRecord
  2
*D6
340
0
  0
BLOCK_RECORD
  5
6D6
330
1
100
AcDbSymbolTableRecord
100
AcDbBlockTableRecord
  2
*D7
340
0
  0
BLOCK_RECORD
  5
6E8
330
1
100
AcDbSymbolTableRecord
100
AcDbBlockTableRecord
  2
*D8
340
0
  0
BLOCK_RECORD
  5
6FA
330
1
100
AcDbSymbolTableRecord
100
AcDbBlockTableRecord
  2
*D9
340
0
  0
BLOCK_RECORD
  5
AEE
330
1
100
AcDbSymbolTableRecord
100
AcDbBlockTableRecord
  2
*D10
340
0
  0
BLOCK_RECORD
  5
AFD
330
1
100
AcDbSymbolTableRecord
100
AcDbBlockTableRecord
  2
*D11
340
0
  0
BLOCK_RECORD
  5
B0C
330
1
100
AcDbSymbolTableRecord
100
AcDbBlockTableRecord
  2
*D12
340
0
  0
BLOCK_RECORD
  5
B1B
330
1
100
AcDbSymbolTableRecord
100
AcDbBlockTableRecord
  2
*D13
340
0
  0
BLOCK_RECORD
  5
B2C
330
1
100
AcDbSymbolTableRecord
100
AcDbBlockTableRecord
  2
*D14
340
0
  0
BLOCK_RECORD
  5
B3D
330
1
100
AcDbSymbolTableRecord
100
AcDbBlockTableRecord
  2
*D15
340
0
  0
BLOCK_RECORD
  5
B4E
330
1
100
AcDbSymbolTableRecord
100
AcDbBlockTableRecord
  2
*D16
340
0
  0
BLOCK_RECORD
  5
B8B
330
1
100
AcDbSymbolTableRecord
100
AcDbBlockTableRecord
  2
*D17
340
0
  0
BLOCK_RECORD
  5
B9D
330
1
100
AcDbSymbolTableRecord
100
AcDbBlockTableRecord
  2
*D18
340
0
  0
BLOCK_RECORD
  5
BAF
330
1
100
AcDbSymbolTableRecord
100
AcDbBlockTableRecord
  2
*D19
340
0
  0
BLOCK_RECORD
  5
BC1
330
1
100
AcDbSymbolTableRecord
100
AcDbBlockTableRecord
  2
*D20
340
0
  0
BLOCK_RECORD
  5
BD3
330
1
100
AcDbSymbolTableRecord
100
AcDbBlockTableRecord
  2
*D21
340
0
  0
ENDTAB
  0
ENDSEC
  0
SECTION
  2
BLOCKS
  0
BLOCK
  5
20
330
1F
100
AcDbEntity
  8
0
100
AcDbBlockBegin
  2
*Model_Space
 70
     0
 10
0.0
 20
0.0
 30
0.0
  3
*Model_Space
  1
*Model_Space
  0
ENDBLK
  5
21
330
1F
100
AcDbEntity
  8
0
100
AcDbBlockEnd
  0
BLOCK
  5
1C
330
1B
100
AcDbEntity
 67
     1
  8
0
100
AcDbBlockBegin
  2
*Paper_Space
 70
     0
 10
0.0
 20
0.0
 30
0.0
  3
*Paper_Space
  1
*Paper_Space
  0
ENDBLK
  5
1D
330
1B
100
AcDbEntity
 67
     1
  8
0
100
AcDbBlockEnd
  0
BLOCK
  5
24
330
23
100
AcDbEntity
  8
0
100
AcDbBlockBegin
  2
*Paper_Space0
 70
     0
 10
0.0
 20
0.0
 30
0.0
  3
*Paper_Space0
  1
*Paper_Space0
  0
ENDBLK
  5
25
330
23
100
AcDbEntity
  8
0
100
AcDbBlockEnd
  0
BLOCK
  5
66F
330
66E
100
AcDbEntity
  8
0
100
AcDbBlockBegin
  2
*D1
 70
     1
 10
0.0
 20
0.0
 30
0.0
  3
*D1
  1
*D2
  0
LINE
  5
671
330
66E
100
AcDbEntity
  8
0
 62
     0
370
    -2
100
AcDbLine
 10
132.3079526405048
 20
40.99999999999995
 30
0.0
 11
122.1694595239439
 21
40.99999999999995
 31
0.0
  0
LINE
  5
672
330
66E
100
AcDbEntity
  8
0
 62
     0
370
    -2
100
AcDbLine
 10
132.3079526405048
 20
26.99999999999995
 30
0.0
 11
122.1694595239439
 21
26.99999999999995
 31
0.0
  0
LINE
  5
673
330
66E
100
AcDbEntity
  8
0
 62
     0
370
    -2
100
AcDbLine
 10
123.1694595239439
 20
23.69799999999995
 30
0.0
 11
109.3954595239439
 21
23.69799999999995
 31
0.0
  0
LINE
  5
674
330
66E
100
AcDbEntity
  8
0
 62
     0
370
    -2
100
AcDbLine
 10
123.1694595239439
 20
37.69799999999995
 30
0.0
 11
123.1694595239439
 21
30.30199999999995
 31
0.0
  0
LINE
  5
675
330
66E
100
AcDbEntity
  8
0
 62
     0
370
    -2
100
AcDbLine
 10
123.1694595239439
 20
26.99999999999995
 30
0.0
 11
123.1694595239439
 21
23.69799999999995
 31
0.0
  0
SOLID
  5
676
330
66E
100
AcDbEntity
  8
0
 62
     0
100
AcDbTrace
 10
123.7197928572773
 20
37.69799999999995
 30
0.0
 11
122.6191261906106
 21
37.69799999999995
 31
0.0
 12
123.1694595239439
 22
40.99999999999995
 32
0.0
 13
123.1694595239439
 23
40.99999999999995
 33
0.0
  0
SOLID
  5
677
330
66E
100
AcDbEntity
  8
0
 62
     0
100
AcDbTrace
 10
122.6191261906106
 20
30.30199999999995
 30
0.0
 11
123.7197928572773
 21
30.30199999999995
 31
0.0
 12
123.1694595239439
 22
26.99999999999995
 32
0.0
 13
123.1694595239439
 23
26.99999999999995
 33
0.0
  0
MTEXT
  5
678
330
66E
100
AcDbEntity
  8
0
 62
     0
100
AcDbMText
 10
115.5204595239439
 20
27.26366666666662
 30
0.0
 40
3.5
 41
0.0
 71
     5
 72
     1
  1
14,00
 73
     1
 44
1.0
  0
POINT
  5
679
330
66E
100
AcDbEntity
  8
Defpoints
 62
     0
100
AcDbPoint
 10
133.3079526405048
 20
40.99999999999995
 30
0.0
  0
POINT
  5
67A
330
66E
100
AcDbEntity
  8
Defpoints
 62
     0
100
AcDbPoint
 10
133.3079526405048
 20
26.99999999999995
 30
0.0
  0
POINT
  5
67B
330
66E
100
AcDbEntity
  8
Defpoints
 62
     0
100
AcDbPoint
 10
123.1694595239439
 20
26.99999999999995
 30
0.0
  0
ENDBLK
  5
670
330
66E
100
AcDbEntity
  8
0
100
AcDbBlockEnd
  0
BLOCK
  5
680
330
67F
100
AcDbEntity
  8
0
100
AcDbBlockBegin
  2
*D2
 70
     1
 10
0.0
 20
0.0
 30
0.0
  3
*D2
  1
*D3
  0
LINE
  5
682
330
67F
100
AcDbEntity
  8
0
 62
     0
370
    -2
100
AcDbLine
 10
84.0
 20
41.0
 30
0.0
 11
93.7050178849566
 21
41.0
 31
0.0
  0
LINE
  5
683
330
67F
100
AcDbEntity
  8
0
 62
     0
370
    -2
100
AcDbLine
 10
84.0
 20
27.0
 30
0.0
 11
93.7050178849566
 21
27.0
 31
0.0
  0
LINE
  5
684
330
67F
100
AcDbEntity
  8
0
 62
     0
370
    -2
100
AcDbLine
 10
92.7050178849566
 20
23.698
 30
0.0
 11
78.9310178849566
 21
23.698
 31
0.0
  0
LINE
  5
685
330
67F
100
AcDbEntity
  8
0
 62
     0
370
    -2
100
AcDbLine
 10
92.7050178849566
 20
37.698
 30
0.0
 11
92.7050178849566
 21
30.302
 31
0.0
  0
LINE
  5
686
330
67F
100
AcDbEntity
  8
0
 62
     0
370
    -2
100
AcDbLine
 10
92.7050178849566
 20
27.0
 30
0.0
 11
92.7050178849566
 21
23.698
 31
0.0
  0
SOLID
  5
687
330
67F
100
AcDbEntity
  8
0
 62
     0
100
AcDbTrace
 10
93.25535121828993
 20
37.698
 30
0.0
 11
92.15468455162328
 21
37.698
 31
0.0
 12
92.7050178849566
 22
41.0
 32
0.0
 13
92.7050178849566
 23
41.0
 33
0.0
  0
SOLID
  5
688
330
67F
100
AcDbEntity
  8
0
 62
     0
100
AcDbTrace
 10
92.15468455162328
 20
30.302
 30
0.0
 11
93.25535121828993
 21
30.302
 31
0.0
 12
92.7050178849566
 22
27.0
 32
0.0
 13
92.7050178849566
 23
27.0
 33
0.0
  0
MTEXT
  5
689
330
67F
100
AcDbEntity
  8
0
 62
     0
100
AcDbMText
 10
85.0560178849566
 20
27.26366666666667
 30
0.0
 40
3.5
 41
0.0
 71
     5
 72
     1
  1
14,00
 73
     1
 44
1.0
  0
POINT
  5
68A
330
67F
100
AcDbEntity
  8
Defpoints
 62
     0
100
AcDbPoint
 10
83.0
 20
41.0
 30
0.0
  0
POINT
  5
68B
330
67F
100
AcDbEntity
  8
Defpoints
 62
     0
100
AcDbPoint
 10
83.0
 20
27.0
 30
0.0
  0
POINT
  5
68C
330
67F
100
AcDbEntity
  8
Defpoints
 62
     0
100
AcDbPoint
 10
92.7050178849566
 20
27.0
 30
0.0
  0
ENDBLK
  5
681
330
67F
100
AcDbEntity
  8
0
100
AcDbBlockEnd
  0
BLOCK
  5
691
330
690
100
AcDbEntity
  8
0
100
AcDbBlockBegin
  2
*D3
 70
     1
 10
0.0
 20
0.0
 30
0.0
  3
*D3
  1
*D4
  0
LINE
  5
693
330
690
100
AcDbEntity
  8
0
 62
     0
370
    -2
100
AcDbLine
 10
84.0
 20
22.99999999999999
 30
0.0
 11
92.16960058601882
 21
22.99999999999999
 31
0.0
  0
LINE
  5
694
330
690
100
AcDbEntity
  8
0
 62
     0
370
    -2
100
AcDbLine
 10
84.0
 20
8.000000000000023
 30
0.0
 11
92.16960058601882
 21
8.000000000000023
 31
0.0
  0
LINE
  5
695
330
690
100
AcDbEntity
  8
0
 62
     0
370
    -2
100
AcDbLine
 10
91.16960058601882
 20
4.698000000000023
 30
0.0
 11
77.39560058601882
 21
4.698000000000023
 31
0.0
  0
LINE
  5
696
330
690
100
AcDbEntity
  8
0
 62
     0
370
    -2
100
AcDbLine
 10
91.16960058601882
 20
19.69799999999999
 30
0.0
 11
91.16960058601882
 21
11.30200000000002
 31
0.0
  0
LINE
  5
697
330
690
100
AcDbEntity
  8
0
 62
     0
370
    -2
100
AcDbLine
 10
91.16960058601882
 20
8.000000000000023
 30
0.0
 11
91.16960058601882
 21
4.698000000000023
 31
0.0
  0
SOLID
  5
698
330
690
100
AcDbEntity
  8
0
 62
     0
100
AcDbTrace
 10
91.71993391935214
 20
19.69799999999999
 30
0.0
 11
90.61926725268549
 21
19.69799999999999
 31
0.0
 12
91.16960058601882
 22
22.99999999999999
 32
0.0
 13
91.16960058601882
 23
22.99999999999999
 33
0.0
  0
SOLID
  5
699
330
690
100
AcDbEntity
  8
0
 62
     0
100
AcDbTrace
 10
90.61926725268549
 20
11.30200000000002
 30
0.0
 11
91.71993391935214
 21
11.30200000000002
 31
0.0
 12
91.16960058601882
 22
8.000000000000023
 32
0.0
 13
91.16960058601882
 23
8.000000000000023
 33
0.0
  0
MTEXT
  5
69A
330
690
100
AcDbEntity
  8
0
 62
     0
100
AcDbMText
 10
83.52060058601882
 20
8.26366666666669
 30
0.0
 40
3.5
 41
0.0
 71
     5
 72
     1
  1
15,00
 73
     1
 44
1.0
  0
POINT
  5
69B
330
690
100
AcDbEntity
  8
Defpoints
 62
     0
100
AcDbPoint
 10
83.0
 20
22.99999999999999
 30
0.0
  0
POINT
  5
69C
330
690
100
AcDbEntity
  8
Defpoints
 62
     0
100
AcDbPoint
 10
83.0
 20
8.000000000000023
 30
0.0
  0
POINT
  5
69D
330
690
100
AcDbEntity
  8
Defpoints
 62
     0
100
AcDbPoint
 10
91.16960058601882
 20
8.000000000000023
 30
0.0
  0
ENDBLK
  5
692
330
690
100
AcDbEntity
  8
0
100
AcDbBlockEnd
  0
BLOCK
  5
6A2
330
6A1
100
AcDbEntity
  8
0
100
AcDbBlockBegin
  2
*D4
 70
     1
 10
0.0
 20
0.0
 30
0.0
  3
*D4
  1
*D5
  0
LINE
  5
6A4
330
6A1
100
AcDbEntity
  8
0
 62
     0
370
    -2
100
AcDbLine
 10
132.3079526405048
 20
22.99999999999995
 30
0.0
 11
121.7856051992095
 21
22.99999999999995
 31
0.0
  0
LINE
  5
6A5
330
6A1
100
AcDbEntity
  8
0
 62
     0
370
    -2
100
AcDbLine
 10
132.3079526405048
 20
7.99999999999995
 30
0.0
 11
121.7856051992095
 21
7.999999999999951
 31
0.0
  0
LINE
  5
6A6
330
6A1
100
AcDbEntity
  8
0
 62
     0
370
    -2
100
AcDbLine
 10
122.7856051992095
 20
4.697999999999951
 30
0.0
 11
109.0116051992095
 21
4.697999999999951
 31
0.0
  0
LINE
  5
6A7
330
6A1
100
AcDbEntity
  8
0
 62
     0
370
    -2
100
AcDbLine
 10
122.7856051992095
 20
19.69799999999995
 30
0.0
 11
122.7856051992095
 21
11.30199999999995
 31
0.0
  0
LINE
  5
6A8
330
6A1
100
AcDbEntity
  8
0
 62
     0
370
    -2
100
AcDbLine
 10
122.7856051992095
 20
7.999999999999951
 30
0.0
 11
122.7856051992095
 21
4.697999999999951
 31
0.0
  0
SOLID
  5
6A9
330
6A1
100
AcDbEntity
  8
0
 62
     0
100
AcDbTrace
 10
123.3359385325428
 20
19.69799999999995
 30
0.0
 11
122.2352718658762
 21
19.69799999999995
 31
0.0
 12
122.7856051992095
 22
22.99999999999995
 32
0.0
 13
122.7856051992095
 23
22.99999999999995
 33
0.0
  0
SOLID
  5
6AA
330
6A1
100
AcDbEntity
  8
0
 62
     0
100
AcDbTrace
 10
122.2352718658762
 20
11.30199999999995
 30
0.0
 11
123.3359385325428
 21
11.30199999999995
 31
0.0
 12
122.7856051992095
 22
7.999999999999951
 32
0.0
 13
122.7856051992095
 23
7.999999999999951
 33
0.0
  0
MTEXT
  5
6AB
330
6A1
100
AcDbEntity
  8
0
 62
     0
100
AcDbMText
 10
115.1366051992095
 20
8.26366666666662
 30
0.0
 40
3.5
 41
0.0
 71
     5
 72
     1
  1
15,00
 73
     1
 44
1.0
  0
POINT
  5
6AC
330
6A1
100
AcDbEntity
  8
Defpoints
 62
     0
100
AcDbPoint
 10
133.3079526405048
 20
22.99999999999995
 30
0.0
  0
POINT
  5
6AD
330
6A1
100
AcDbEntity
  8
Defpoints
 62
     0
100
AcDbPoint
 10
133.3079526405048
 20
7.99999999999995
 30
0.0
  0
POINT
  5
6AE
330
6A1
100
AcDbEntity
  8
Defpoints
 62
     0
100
AcDbPoint
 10
122.7856051992095
 20
7.999999999999951
 30
0.0
  0
ENDBLK
  5
6A3
330
6A1
100
AcDbEntity
  8
0
100
AcDbBlockEnd
  0
BLOCK
  5
6B3
330
6B2
100
AcDbEntity
  8
0
100
AcDbBlockBegin
  2
*D5
 70
     1
 10
0.0
 20
0.0
 30
0.0
  3
*D5
  1
*D6
  0
LINE
  5
6B5
330
6B2
100
AcDbEntity
  8
0
 62
     0
370
    -2
100
AcDbLine
 10
134.3079526405048
 20
26.99999999999992
 30
0.0
 11
140.4832683251579
 21
26.99999999999992
 31
0.0
  0
LINE
  5
6B6
330
6B2
100
AcDbEntity
  8
0
 62
     0
370
    -2
100
AcDbLine
 10
134.3079526405048
 20
22.99999999999998
 30
0.0
 11
140.4832683251579
 21
22.99999999999998
 31
0.0
  0
LINE
  5
6B7
330
6B2
100
AcDbEntity
  8
0
 62
     0
370
    -2
100
AcDbLine
 10
139.4832683251579
 20
16.39599999999998
 30
0.0
 11
128.0426016584912
 21
16.39599999999998
 31
0.0
  0
LINE
  5
6B8
330
6B2
100
AcDbEntity
  8
0
 62
     0
370
    -2
100
AcDbLine
 10
139.4832683251579
 20
26.99999999999992
 30
0.0
 11
139.4832683251579
 21
22.99999999999998
 31
0.0
  0
LINE
  5
6B9
330
6B2
100
AcDbEntity
  8
0
 62
     0
370
    -2
100
AcDbLine
 10
139.4832683251579
 20
30.30199999999992
 30
0.0
 11
139.4832683251579
 21
33.60399999999992
 31
0.0
  0
LINE
  5
6BA
330
6B2
100
AcDbEntity
  8
0
 62
     0
370
    -2
100
AcDbLine
 10
139.4832683251579
 20
19.69799999999998
 30
0.0
 11
139.4832683251579
 21
16.39599999999998
 31
0.0
  0
SOLID
  5
6BB
330
6B2
100
AcDbEntity
  8
0
 62
     0
100
AcDbTrace
 10
138.9329349918246
 20
30.30199999999992
 30
0.0
 11
140.0336016584912
 21
30.30199999999992
 31
0.0
 12
139.4832683251579
 22
26.99999999999992
 32
0.0
 13
139.4832683251579
 23
26.99999999999992
 33
0.0
  0
SOLID
  5
6BC
330
6B2
100
AcDbEntity
  8
0
 62
     0
100
AcDbTrace
 10
140.0336016584912
 20
19.69799999999998
 30
0.0
 11
138.9329349918246
 21
19.69799999999998
 31
0.0
 12
139.4832683251579
 22
22.99999999999998
 32
0.0
 13
139.4832683251579
 23
22.99999999999998
 33
0.0
  0
MTEXT
  5
6BD
330
6B2
100
AcDbEntity
  8
0
 62
     0
100
AcDbMText
 10
133.0009349918246
 20
19.96166666666665
 30
0.0
 40
3.5
 41
0.0
 71
     5
 72
     1
  1
4,00
 73
     1
 44
1.0
  0
POINT
  5
6BE
330
6B2
100
AcDbEntity
  8
Defpoints
 62
     0
100
AcDbPoint
 10
133.3079526405048
 20
26.99999999999992
 30
0.0
  0
POINT
  5
6BF
330
6B2
100
AcDbEntity
  8
Defpoints
 62
     0
100
AcDbPoint
 10
133.3079526405048
 20
22.99999999999998
 30
0.0
  0
POINT
  5
6C0
330
6B2
100
AcDbEntity
  8
Defpoints
 62
     0
100
AcDbPoint
 10
139.4832683251579
 20
22.99999999999998
 30
0.0
  0
ENDBLK
  5
6B4
330
6B2
100
AcDbEntity
  8
0
100
AcDbBlockEnd
  0
BLOCK
  5
6C5
330
6C4
100
AcDbEntity
  8
0
100
AcDbBlockBegin
  2
*D6
 70
     1
 10
0.0
 20
0.0
 30
0.0
  3
*D6
  1
*D7
  0
LINE
  5
6C7
330
6C4
100
AcDbEntity
  8
0
 62
     0
370
    -2
100
AcDbLine
 10
57.6
 20
27.00000000000001
 30
0.0
 11
54.47114838571534
 21
27.00000000000001
 31
0.0
  0
LINE
  5
6C8
330
6C4
100
AcDbEntity
  8
0
 62
     0
370
    -2
100
AcDbLine
 10
57.6
 20
23.00000000000002
 30
0.0
 11
54.47114838571534
 21
23.00000000000002
 31
0.0
  0
LINE
  5
6C9
330
6C4
100
AcDbEntity
  8
0
 62
     0
370
    -2
100
AcDbLine
 10
55.47114838571534
 20
16.39600000000002
 30
0.0
 11
44.03048171904867
 21
16.39600000000002
 31
0.0
  0
LINE
  5
6CA
330
6C4
100
AcDbEntity
  8
0
 62
     0
370
    -2
100
AcDbLine
 10
55.47114838571534
 20
27.00000000000001
 30
0.0
 11
55.47114838571534
 21
23.00000000000002
 31
0.0
  0
LINE
  5
6CB
330
6C4
100
AcDbEntity
  8
0
 62
     0
370
    -2
100
AcDbLine
 10
55.47114838571534
 20
30.30200000000001
 30
0.0
 11
55.47114838571534
 21
33.60400000000001
 31
0.0
  0
LINE
  5
6CC
330
6C4
100
AcDbEntity
  8
0
 62
     0
370
    -2
100
AcDbLine
 10
55.47114838571534
 20
19.69800000000002
 30
0.0
 11
55.47114838571534
 21
16.39600000000002
 31
0.0
  0
SOLID
  5
6CD
330
6C4
100
AcDbEntity
  8
0
 62
     0
100
AcDbTrace
 10
54.920815052382
 20
30.30200000000001
 30
0.0
 11
56.02148171904867
 21
30.30200000000001
 31
0.0
 12
55.47114838571534
 22
27.00000000000001
 32
0.0
 13
55.47114838571534
 23
27.00000000000001
 33
0.0
  0
SOLID
  5
6CE
330
6C4
100
AcDbEntity
  8
0
 62
     0
100
AcDbTrace
 10
56.02148171904867
 20
19.69800000000002
 30
0.0
 11
54.920815052382
 21
19.69800000000002
 31
0.0
 12
55.47114838571534
 22
23.00000000000002
 32
0.0
 13
55.47114838571534
 23
23.00000000000002
 33
0.0
  0
MTEXT
  5
6CF
330
6C4
100
AcDbEntity
  8
0
 62
     0
100
AcDbMText
 10
48.988815052382
 20
19.96166666666669
 30
0.0
 40
3.5
 41
0.0
 71
     5
 72
     1
  1
4,00
 73
     1
 44
1.0
  0
POINT
  5
6D0
330
6C4
100
AcDbEntity
  8
Defpoints
 62
     0
100
AcDbPoint
 10
58.6
 20
27.00000000000001
 30
0.0
  0
POINT
  5
6D1
330
6C4
100
AcDbEntity
  8
Defpoints
 62
     0
100
AcDbPoint
 10
58.6
 20
23.00000000000002
 30
0.0
  0
POINT
  5
6D2
330
6C4
100
AcDbEntity
  8
Defpoints
 62
     0
100
AcDbPoint
 10
55.47114838571534
 20
23.00000000000002
 30
0.0
  0
ENDBLK
  5
6C6
330
6C4
100
AcDbEntity
  8
0
100
AcDbBlockEnd
  0
BLOCK
  5
6D7
330
6D6
100
AcDbEntity
  8
0
100
AcDbBlockBegin
  2
*D7
 70
     1
 10
0.0
 20
0.0
 30
0.0
  3
*D7
  1
*D8
  0
LINE
  5
6D9
330
6D6
100
AcDbEntity
  8
0
 62
     0
370
    -2
100
AcDbLine
 10
134.3079526405048
 20
7.99999999999995
 30
0.0
 11
138.9732007808199
 21
7.99999999999995
 31
0.0
  0
LINE
  5
6DA
330
6D6
100
AcDbEntity
  8
0
 62
     0
370
    -2
100
AcDbLine
 10
134.3079526405048
 20
4.99999999999995
 30
0.0
 11
138.9732007808199
 21
4.99999999999995
 31
0.0
  0
LINE
  5
6DB
330
6D6
100
AcDbEntity
  8
0
 62
     0
370
    -2
100
AcDbLine
 10
137.9732007808199
 20
-1.60400000000005
 30
0.0
 11
126.5325341141532
 21
-1.60400000000005
 31
0.0
  0
LINE
  5
6DC
330
6D6
100
AcDbEntity
  8
0
 62
     0
370
    -2
100
AcDbLine
 10
137.9732007808199
 20
7.99999999999995
 30
0.0
 11
137.9732007808199
 21
4.99999999999995
 31
0.0
  0
LINE
  5
6DD
330
6D6
100
AcDbEntity
  8
0
 62
     0
370
    -2
100
AcDbLine
 10
137.9732007808199
 20
11.30199999999995
 30
0.0
 11
137.9732007808199
 21
14.60399999999995
 31
0.0
  0
LINE
  5
6DE
330
6D6
100
AcDbEntity
  8
0
 62
     0
370
    -2
100
AcDbLine
 10
137.9732007808199
 20
1.69799999999995
 30
0.0
 11
137.9732007808199
 21
-1.60400000000005
 31
0.0
  0
SOLID
  5
6DF
330
6D6
100
AcDbEntity
  8
0
 62
     0
100
AcDbTrace
 10
137.4228674474866
 20
11.30199999999995
 30
0.0
 11
138.5235341141533
 21
11.30199999999995
 31
0.0
 12
137.9732007808199
 22
7.99999999999995
 32
0.0
 13
137.9732007808199
 23
7.99999999999995
 33
0.0
  0
SOLID
  5
6E0
330
6D6
100
AcDbEntity
  8
0
 62
     0
100
AcDbTrace
 10
138.5235341141533
 20
1.69799999999995
 30
0.0
 11
137.4228674474866
 21
1.69799999999995
 31
0.0
 12
137.9732007808199
 22
4.99999999999995
 32
0.0
 13
137.9732007808199
 23
4.99999999999995
 33
0.0
  0
MTEXT
  5
6E1
330
6D6
100
AcDbEntity
  8
0
 62
     0
100
AcDbMText
 10
131.4908674474866
 20
1.961666666666618
 30
0.0
 40
3.5
 41
0.0
 71
     5
 72
     1
  1
3,00
 73
     1
 44
1.0
  0
POINT
  5
6E2
330
6D6
100
AcDbEntity
  8
Defpoints
 62
     0
100
AcDbPoint
 10
133.3079526405048
 20
7.99999999999995
 30
0.0
  0
POINT
  5
6E3
330
6D6
100
AcDbEntity
  8
Defpoints
 62
     0
100
AcDbPoint
 10
133.3079526405048
 20
4.99999999999995
 30
0.0
  0
POINT
  5
6E4
330
6D6
100
AcDbEntity
  8
Defpoints
 62
     0
100
AcDbPoint
 10
137.9732007808199
 20
4.99999999999995
 30
0.0
  0
ENDBLK
  5
6D8
330
6D6
100
AcDbEntity
  8
0
100
AcDbBlockEnd
  0
BLOCK
  5
6E9
330
6E8
100
AcDbEntity
  8
0
100
AcDbBlockBegin
  2
*D8
 70
     1
 10
0.0
 20
0.0
 30
0.0
  3
*D8
  1
*D9
  0
LINE
  5
6EB
330
6E8
100
AcDbEntity
  8
0
 62
     0
370
    -2
100
AcDbLine
 10
66.3
 20
8.0
 30
0.0
 11
71.65874396732572
 21
8.0
 31
0.0
  0
LINE
  5
6EC
330
6E8
100
AcDbEntity
  8
0
 62
     0
370
    -2
100
AcDbLine
 10
66.3
 20
4.999999999999986
 30
0.0
 11
71.65874396732572
 21
4.999999999999986
 31
0.0
  0
LINE
  5
6ED
330
6E8
100
AcDbEntity
  8
0
 62
     0
370
    -2
100
AcDbLine
 10
70.65874396732572
 20
-1.604000000000014
 30
0.0
 11
59.21807730065906
 21
-1.604000000000014
 31
0.0
  0
LINE
  5
6EE
330
6E8
100
AcDbEntity
  8
0
 62
     0
370
    -2
100
AcDbLine
 10
70.65874396732572
 20
8.0
 30
0.0
 11
70.65874396732572
 21
4.999999999999986
 31
0.0
  0
LINE
  5
6EF
330
6E8
100
AcDbEntity
  8
0
 62
     0
370
    -2
100
AcDbLine
 10
70.65874396732572
 20
11.302
 30
0.0
 11
70.65874396732572
 21
14.604
 31
0.0
  0
LINE
  5
6F0
330
6E8
100
AcDbEntity
  8
0
 62
     0
370
    -2
100
AcDbLine
 10
70.65874396732572
 20
1.697999999999986
 30
0.0
 11
70.65874396732572
 21
-1.604000000000014
 31
0.0
  0
SOLID
  5
6F1
330
6E8
100
AcDbEntity
  8
0
 62
     0
100
AcDbTrace
 10
70.10841063399239
 20
11.302
 30
0.0
 11
71.20907730065905
 21
11.302
 31
0.0
 12
70.65874396732572
 22
8.0
 32
0.0
 13
70.65874396732572
 23
8.0
 33
0.0
  0
SOLID
  5
6F2
330
6E8
100
AcDbEntity
  8
0
 62
     0
100
AcDbTrace
 10
71.20907730065905
 20
1.697999999999986
 30
0.0
 11
70.10841063399239
 21
1.697999999999986
 31
0.0
 12
70.65874396732572
 22
4.999999999999986
 32
0.0
 13
70.65874396732572
 23
4.999999999999986
 33
0.0
  0
MTEXT
  5
6F3
330
6E8
100
AcDbEntity
  8
0
 62
     0
100
AcDbMText
 10
64.17641063399239
 20
1.961666666666652
 30
0.0
 40
3.5
 41
0.0
 71
     5
 72
     1
  1
3,00
 73
     1
 44
1.0
  0
POINT
  5
6F4
330
6E8
100
AcDbEntity
  8
Defpoints
 62
     0
100
AcDbPoint
 10
65.3
 20
8.0
 30
0.0
  0
POINT
  5
6F5
330
6E8
100
AcDbEntity
  8
Defpoints
 62
     0
100
AcDbPoint
 10
65.3
 20
4.999999999999986
 30
0.0
  0
POINT
  5
6F6
330
6E8
100
AcDbEntity
  8
Defpoints
 62
     0
100
AcDbPoint
 10
70.65874396732572
 20
4.999999999999986
 30
0.0
  0
ENDBLK
  5
6EA
330
6E8
100
AcDbEntity
  8
0
100
AcDbBlockEnd
  0
BLOCK
  5
6FB
330
6FA
100
AcDbEntity
  8
0
100
AcDbBlockBegin
  2
*D9
 70
     1
 10
0.0
 20
0.0
 30
0.0
  3
*D9
  1
*D10
  0
LINE
  5
6FD
330
6FA
100
AcDbEntity
  8
0
 62
     0
370
    -2
100
AcDbLine
 10
132.3079526405048
 20
-10.00000000000005
 30
0.0
 11
125.7374023409489
 21
-10.00000000000005
 31
0.0
  0
LINE
  5
6FE
330
6FA
100
AcDbEntity
  8
0
 62
     0
370
    -2
100
AcDbLine
 10
132.3079526405048
 20
-15.00000000000002
 30
0.0
 11
125.7374023409489
 21
-15.00000000000002
 31
0.0
  0
LINE
  5
6FF
330
6FA
100
AcDbEntity
  8
0
 62
     0
370
    -2
100
AcDbLine
 10
126.7374023409489
 20
-21.60400000000002
 30
0.0
 11
115.2967356742822
 21
-21.60400000000002
 31
0.0
  0
LINE
  5
700
330
6FA
100
AcDbEntity
  8
0
 62
     0
370
    -2
100
AcDbLine
 10
126.7374023409489
 20
-10.00000000000005
 30
0.0
 11
126.7374023409489
 21
-15.00000000000002
 31
0.0
  0
LINE
  5
701
330
6FA
100
AcDbEntity
  8
0
 62
     0
370
    -2
100
AcDbLine
 10
126.7374023409489
 20
-6.69800000000005
 30
0.0
 11
126.7374023409489
 21
-3.39600000000005
 31
0.0
  0
LINE
  5
702
330
6FA
100
AcDbEntity
  8
0
 62
     0
370
    -2
100
AcDbLine
 10
126.7374023409489
 20
-18.30200000000002
 30
0.0
 11
126.7374023409489
 21
-21.60400000000002
 31
0.0
  0
SOLID
  5
703
330
6FA
100
AcDbEntity
  8
0
 62
     0
100
AcDbTrace
 10
126.1870690076156
 20
-6.69800000000005
 30
0.0
 11
127.2877356742822
 21
-6.69800000000005
 31
0.0
 12
126.7374023409489
 22
-10.00000000000005
 32
0.0
 13
126.7374023409489
 23
-10.00000000000005
 33
0.0
  0
SOLID
  5
704
330
6FA
100
AcDbEntity
  8
0
 62
     0
100
AcDbTrace
 10
127.2877356742822
 20
-18.30200000000002
 30
0.0
 11
126.1870690076156
 21
-18.30200000000002
 31
0.0
 12
126.7374023409489
 22
-15.00000000000002
 32
0.0
 13
126.7374023409489
 23
-15.00000000000002
 33
0.0
  0
MTEXT
  5
705
330
6FA
100
AcDbEntity
  8
0
 62
     0
100
AcDbMText
 10
120.2550690076156
 20
-18.03833333333336
 30
0.0
 40
3.5
 41
0.0
 71
     5
 72
     1
  1
5,00
 73
     1
 44
1.0
  0
POINT
  5
706
330
6FA
100
AcDbEntity
  8
Defpoints
 62
     0
100
AcDbPoint
 10
133.3079526405048
 20
-10.00000000000005
 30
0.0
  0
POINT
  5
707
330
6FA
100
AcDbEntity
  8
Defpoints
 62
     0
100
AcDbPoint
 10
133.3079526405048
 20
-15.00000000000002
 30
0.0
  0
POINT
  5
708
330
6FA
100
AcDbEntity
  8
Defpoints
 62
     0
100
AcDbPoint
 10
126.7374023409489
 20
-15.00000000000002
 30
0.0
  0
ENDBLK
  5
6FC
330
6FA
100
AcDbEntity
  8
0
100
AcDbBlockEnd
  0
BLOCK
  5
AEF
330
AEE
100
AcDbEntity
  8
0
100
AcDbBlockBegin
  2
*D10
 70
     1
 10
0.0
 20
0.0
 30
0.0
  3
*D10
  1
*D13
  0
LINE
  5
AF1
330
AEE
100
AcDbEntity
  8
0
 62
     0
370
    -2
100
AcDbLine
 10
-86.00000000000003
 20
48.0
 30
0.0
 11
-86.00000000000003
 21
78.1809593133536
 31
0.0
  0
LINE
  5
AF2
330
AEE
100
AcDbEntity
  8
0
 62
     0
370
    -2
100
AcDbLine
 10
86.0
 20
48.0
 30
0.0
 11
86.0
 21
78.1809593133536
 31
0.0
  0
LINE
  5
AF3
330
AEE
100
AcDbEntity
  8
0
 62
     0
370
    -2
100
AcDbLine
 10
-82.69800000000002
 20
77.1809593133536
 30
0.0
 11
82.698
 21
77.1809593133536
 31
0.0
  0
SOLID
  5
AF4
330
AEE
100
AcDbEntity
  8
0
 62
     0
100
AcDbTrace
 10
-82.69800000000002
 20
77.73129264668692
 30
0.0
 11
-82.69800000000002
 21
76.63062598002027
 31
0.0
 12
-86.00000000000003
 22
77.1809593133536
 32
0.0
 13
-86.00000000000003
 23
77.1809593133536
 33
0.0
  0
SOLID
  5
AF5
330
AEE
100
AcDbEntity
  8
0
 62
     0
100
AcDbTrace
 10
82.698
 20
76.63062598002027
 30
0.0
 11
82.698
 21
77.73129264668692
 31
0.0
 12
86.0
 22
77.1809593133536
 32
0.0
 13
86.0
 23
77.1809593133536
 33
0.0
  0
MTEXT
  5
AF6
330
AEE
100
AcDbEntity
  8
0
 62
     0
100
AcDbMText
 10
-0.0000000000000142
 20
80.74662598002027
 30
0.0
 40
3.5
 41
0.0
 71
     5
 72
     1
  1
172,00
 73
     1
 44
1.0
  0
POINT
  5
AF7
330
AEE
100
AcDbEntity
  8
Defpoints
 62
     0
100
AcDbPoint
 10
-86.00000000000003
 20
47.0
 30
0.0
  0
POINT
  5
AF8
330
AEE
100
AcDbEntity
  8
Defpoints
 62
     0
100
AcDbPoint
 10
86.0
 20
47.0
 30
0.0
  0
POINT
  5
AF9
330
AEE
100
AcDbEntity
  8
Defpoints
 62
     0
100
AcDbPoint
 10
86.0
 20
77.1809593133536
 30
0.0
  0
ENDBLK
  5
AF0
330
AEE
100
AcDbEntity
  8
0
100
AcDbBlockEnd
  0
BLOCK
  5
AFE
330
AFD
100
AcDbEntity
  8
0
100
AcDbBlockBegin
  2
*D11
 70
     1
 10
0.0
 20
0.0
 30
0.0
  3
*D11
  1
*D14
  0
LINE
  5
B00
330
AFD
100
AcDbEntity
  8
0
 62
     0
370
    -2
100
AcDbLine
 10
142.4363960546282
 20
42.86621870257966
 30
0.0
 11
142.4363960546282
 21
66.46665496965102
 31
0.0
  0
LINE
  5
B01
330
AFD
100
AcDbEntity
  8
0
 62
     0
370
    -2
100
AcDbLine
 10
314.4363960546283
 20
42.86621870257966
 30
0.0
 11
314.4363960546283
 21
66.46665496965102
 31
0.0
  0
LINE
  5
B02
330
AFD
100
AcDbEntity
  8
0
 62
     0
370
    -2
100
AcDbLine
 10
145.7383960546282
 20
65.46665496965102
 30
0.0
 11
311.1343960546283
 21
65.46665496965102
 31
0.0
  0
SOLID
  5
B03
330
AFD
100
AcDbEntity
  8
0
 62
     0
100
AcDbTrace
 10
145.7383960546282
 20
66.01698830298434
 30
0.0
 11
145.7383960546282
 21
64.91632163631769
 31
0.0
 12
142.4363960546282
 22
65.46665496965102
 32
0.0
 13
142.4363960546282
 23
65.46665496965102
 33
0.0
  0
SOLID
  5
B04
330
AFD
100
AcDbEntity
  8
0
 62
     0
100
AcDbTrace
 10
311.1343960546283
 20
64.91632163631769
 30
0.0
 11
311.1343960546283
 21
66.01698830298434
 31
0.0
 12
314.4363960546283
 22
65.46665496965102
 32
0.0
 13
314.4363960546283
 23
65.46665496965102
 33
0.0
  0
MTEXT
  5
B05
330
AFD
100
AcDbEntity
  8
0
 62
     0
100
AcDbMText
 10
228.4363960546283
 20
69.03232163631769
 30
0.0
 40
3.5
 41
0.0
 71
     5
 72
     1
  1
172,00
 73
     1
 44
1.0
  0
POINT
  5
B06
330
AFD
100
AcDbEntity
  8
Defpoints
 62
     0
100
AcDbPoint
 10
142.4363960546282
 20
41.86621870257966
 30
0.0
  0
POINT
  5
B07
330
AFD
100
AcDbEntity
  8
Defpoints
 62
     0
100
AcDbPoint
 10
314.4363960546283
 20
41.86621870257966
 30
0.0
  0
POINT
  5
B08
330
AFD
100
AcDbEntity
  8
Defpoints
 62
     0
100
AcDbPoint
 10
314.4363960546283
 20
65.46665496965102
 30
0.0
  0
ENDBLK
  5
AFF
330
AFD
100
AcDbEntity
  8
0
100
AcDbBlockEnd
  0
BLOCK
  5
B0D
330
B0C
100
AcDbEntity
  8
0
100
AcDbBlockBegin
  2
*D12
 70
     1
 10
0.0
 20
0.0
 30
0.0
  3
*D12
  1
*D15
  0
LINE
  5
B0F
330
B0C
100
AcDbEntity
  8
0
 62
     0
370
    -2
100
AcDbLine
 10
144.6238960546283
 20
-47.63378129742034
 30
0.0
 11
144.6238960546283
 21
-77.51071367602431
 31
0.0
  0
LINE
  5
B10
330
B0C
100
AcDbEntity
  8
0
 62
     0
370
    -2
100
AcDbLine
 10
312.2488960546283
 20
-47.63378129742034
 30
0.0
 11
312.2488960546283
 21
-77.51071367602431
 31
0.0
  0
LINE
  5
B11
330
B0C
100
AcDbEntity
  8
0
 62
     0
370
    -2
100
AcDbLine
 10
147.9258960546283
 20
-76.51071367602431
 30
0.0
 11
308.9468960546283
 21
-76.51071367602431
 31
0.0
  0
SOLID
  5
B12
330
B0C
100
AcDbEntity
  8
0
 62
     0
100
AcDbTrace
 10
147.9258960546283
 20
-75.96038034269098
 30
0.0
 11
147.9258960546283
 21
-77.06104700935764
 31
0.0
 12
144.6238960546283
 22
-76.51071367602431
 32
0.0
 13
144.6238960546283
 23
-76.51071367602431
 33
0.0
  0
SOLID
  5
B13
330
B0C
100
AcDbEntity
  8
0
 62
     0
100
AcDbTrace
 10
308.9468960546283
 20
-77.06104700935764
 30
0.0
 11
308.9468960546283
 21
-75.96038034269098
 31
0.0
 12
312.2488960546283
 22
-76.51071367602431
 32
0.0
 13
312.2488960546283
 23
-76.51071367602431
 33
0.0
  0
MTEXT
  5
B14
330
B0C
100
AcDbEntity
  8
0
 62
     0
100
AcDbMText
 10
228.4363960546283
 20
-72.94504700935764
 30
0.0
 40
3.5
 41
0.0
 71
     5
 72
     1
  1
167,63
 73
     1
 44
1.0
  0
POINT
  5
B15
330
B0C
100
AcDbEntity
  8
Defpoints
 62
     0
100
AcDbPoint
 10
144.6238960546283
 20
-46.63378129742034
 30
0.0
  0
POINT
  5
B16
330
B0C
100
AcDbEntity
  8
Defpoints
 62
     0
100
AcDbPoint
 10
312.2488960546283
 20
-46.63378129742034
 30
0.0
  0
POINT
  5
B17
330
B0C
100
AcDbEntity
  8
Defpoints
 62
     0
100
AcDbPoint
 10
312.2488960546283
 20
-76.51071367602431
 30
0.0
  0
ENDBLK
  5
B0E
330
B0C
100
AcDbEntity
  8
0
100
AcDbBlockEnd
  0
BLOCK
  5
B1C
330
B1B
100
AcDbEntity
  8
0
100
AcDbBlockBegin
  2
*D13
 70
     1
 10
0.0
 20
0.0
 30
0.0
  3
*D13
  1
*D16
  0
LINE
  5
B1E
330
B1B
100
AcDbEntity
  8
0
 62
     0
370
    -2
100
AcDbLine
 10
-53.6
 20
35.0
 30
0.0
 11
-53.6
 21
49.43030787651744
 31
0.0
  0
LINE
  5
B1F
330
B1B
100
AcDbEntity
  8
0
 62
     0
370
    -2
100
AcDbLine
 10
-49.6
 20
35.0
 30
0.0
 11
-49.6
 21
49.43030787651744
 31
0.0
  0
LINE
  5
B20
330
B1B
100
AcDbEntity
  8
0
 62
     0
370
    -2
100
AcDbLine
 10
-46.298
 20
48.43030787651744
 30
0.0
 11
-30.03133333333333
 21
48.43030787651744
 31
0.0
  0
LINE
  5
B21
330
B1B
100
AcDbEntity
  8
0
 62
     0
370
    -2
100
AcDbLine
 10
-53.6
 20
48.43030787651744
 30
0.0
 11
-49.6
 21
48.43030787651744
 31
0.0
  0
LINE
  5
B22
330
B1B
100
AcDbEntity
  8
0
 62
     0
370
    -2
100
AcDbLine
 10
-56.902
 20
48.43030787651744
 30
0.0
 11
-60.204
 21
48.43030787651744
 31
0.0
  0
SOLID
  5
B23
330
B1B
100
AcDbEntity
  8
0
 62
     0
100
AcDbTrace
 10
-56.902
 20
47.8799745431841
 30
0.0
 11
-56.902
 21
48.98064120985077
 31
0.0
 12
-53.6
 22
48.43030787651744
 32
0.0
 13
-53.6
 23
48.43030787651744
 33
0.0
  0
SOLID
  5
B24
330
B1B
100
AcDbEntity
  8
0
 62
     0
100
AcDbTrace
 10
-46.298
 20
48.98064120985077
 30
0.0
 11
-46.298
 21
47.8799745431841
 31
0.0
 12
-49.6
 22
48.43030787651744
 32
0.0
 13
-49.6
 23
48.43030787651744
 33
0.0
  0
MTEXT
  5
B25
330
B1B
100
AcDbEntity
  8
0
 62
     0
100
AcDbMText
 10
-36.51366666666667
 20
51.9959745431841
 30
0.0
 40
3.5
 41
0.0
 71
     5
 72
     1
  1
4,00
 73
     1
 44
1.0
  0
POINT
  5
B26
330
B1B
100
AcDbEntity
  8
Defpoints
 62
     0
100
AcDbPoint
 10
-53.6
 20
34.0
 30
0.0
  0
POINT
  5
B27
330
B1B
100
AcDbEntity
  8
Defpoints
 62
     0
100
AcDbPoint
 10
-49.6
 20
34.0
 30
0.0
  0
POINT
  5
B28
330
B1B
100
AcDbEntity
  8
Defpoints
 62
     0
100
AcDbPoint
 10
-49.6
 20
48.43030787651744
 30
0.0
  0
ENDBLK
  5
B1D
330
B1B
100
AcDbEntity
  8
0
100
AcDbBlockEnd
  0
BLOCK
  5
B2D
330
B2C
100
AcDbEntity
  8
0
100
AcDbBlockBegin
  2
*D14
 70
     1
 10
0.0
 20
0.0
 30
0.0
  3
*D14
  1
*D17
  0
LINE
  5
B2F
330
B2C
100
AcDbEntity
  8
0
 62
     0
370
    -2
100
AcDbLine
 10
-19.2
 20
35.0
 30
0.0
 11
-19.2
 21
49.67021682947647
 31
0.0
  0
LINE
  5
B30
330
B2C
100
AcDbEntity
  8
0
 62
     0
370
    -2
100
AcDbLine
 10
-15.2
 20
35.0
 30
0.0
 11
-15.2
 21
49.67021682947647
 31
0.0
  0
LINE
  5
B31
330
B2C
100
AcDbEntity
  8
0
 62
     0
370
    -2
100
AcDbLine
 10
-11.898
 20
48.67021682947647
 30
0.0
 11
4.368666666666666
 21
48.67021682947647
 31
0.0
  0
LINE
  5
B32
330
B2C
100
AcDbEntity
  8
0
 62
     0
370
    -2
100
AcDbLine
 10
-19.2
 20
48.67021682947647
 30
0.0
 11
-15.2
 21
48.67021682947647
 31
0.0
  0
LINE
  5
B33
330
B2C
100
AcDbEntity
  8
0
 62
     0
370
    -2
100
AcDbLine
 10
-22.502
 20
48.67021682947647
 30
0.0
 11
-25.804
 21
48.67021682947647
 31
0.0
  0
SOLID
  5
B34
330
B2C
100
AcDbEntity
  8
0
 62
     0
100
AcDbTrace
 10
-22.502
 20
48.11988349614313
 30
0.0
 11
-22.502
 21
49.2205501628098
 31
0.0
 12
-19.2
 22
48.67021682947647
 32
0.0
 13
-19.2
 23
48.67021682947647
 33
0.0
  0
SOLID
  5
B35
330
B2C
100
AcDbEntity
  8
0
 62
     0
100
AcDbTrace
 10
-11.898
 20
49.2205501628098
 30
0.0
 11
-11.898
 21
48.11988349614313
 31
0.0
 12
-15.2
 22
48.67021682947647
 32
0.0
 13
-15.2
 23
48.67021682947647
 33
0.0
  0
MTEXT
  5
B36
330
B2C
100
AcDbEntity
  8
0
 62
     0
100
AcDbMText
 10
-2.113666666666667
 20
52.23588349614313
 30
0.0
 40
3.5
 41
0.0
 71
     5
 72
     1
  1
4,00
 73
     1
 44
1.0
  0
POINT
  5
B37
330
B2C
100
AcDbEntity
  8
Defpoints
 62
     0
100
AcDbPoint
 10
-19.2
 20
34.0
 30
0.0
  0
POINT
  5
B38
330
B2C
100
AcDbEntity
  8
Defpoints
 62
     0
100
AcDbPoint
 10
-15.2
 20
34.0
 30
0.0
  0
POINT
  5
B39
330
B2C
100
AcDbEntity
  8
Defpoints
 62
     0
100
AcDbPoint
 10
-15.2
 20
48.67021682947647
 30
0.0
  0
ENDBLK
  5
B2E
330
B2C
100
AcDbEntity
  8
0
100
AcDbBlockEnd
  0
BLOCK
  5
B3E
330
B3D
100
AcDbEntity
  8
0
100
AcDbBlockBegin
  2
*D15
 70
     1
 10
0.0
 20
0.0
 30
0.0
  3
*D15
  1
*D18
  0
LINE
  5
B40
330
B3D
100
AcDbEntity
  8
0
 62
     0
370
    -2
100
AcDbLine
 10
15.2
 20
35.0
 30
0.0
 11
15.2
 21
50.38994368835355
 31
0.0
  0
LINE
  5
B41
330
B3D
100
AcDbEntity
  8
0
 62
     0
370
    -2
100
AcDbLine
 10
19.2
 20
35.0
 30
0.0
 11
19.2
 21
50.38994368835355
 31
0.0
  0
LINE
  5
B42
330
B3D
100
AcDbEntity
  8
0
 62
     0
370
    -2
100
AcDbLine
 10
22.502
 20
49.38994368835355
 30
0.0
 11
38.76866666666666
 21
49.38994368835355
 31
0.0
  0
LINE
  5
B43
330
B3D
100
AcDbEntity
  8
0
 62
     0
370
    -2
100
AcDbLine
 10
15.2
 20
49.38994368835355
 30
0.0
 11
19.2
 21
49.38994368835355
 31
0.0
  0
LINE
  5
B44
330
B3D
100
AcDbEntity
  8
0
 62
     0
370
    -2
100
AcDbLine
 10
11.898
 20
49.38994368835355
 30
0.0
 11
8.596
 21
49.38994368835355
 31
0.0
  0
SOLID
  5
B45
330
B3D
100
AcDbEntity
  8
0
 62
     0
100
AcDbTrace
 10
11.898
 20
48.83961035502022
 30
0.0
 11
11.898
 21
49.94027702168689
 31
0.0
 12
15.2
 22
49.38994368835355
 32
0.0
 13
15.2
 23
49.38994368835355
 33
0.0
  0
SOLID
  5
B46
330
B3D
100
AcDbEntity
  8
0
 62
     0
100
AcDbTrace
 10
22.502
 20
49.94027702168689
 30
0.0
 11
22.502
 21
48.83961035502022
 31
0.0
 12
19.2
 22
49.38994368835355
 32
0.0
 13
19.2
 23
49.38994368835355
 33
0.0
  0
MTEXT
  5
B47
330
B3D
100
AcDbEntity
  8
0
 62
     0
100
AcDbMText
 10
32.28633333333333
 20
52.95561035502022
 30
0.0
 40
3.5
 41
0.0
 71
     5
 72
     1
  1
4,00
 73
     1
 44
1.0
  0
POINT
  5
B48
330
B3D
100
AcDbEntity
  8
Defpoints
 62
     0
100
AcDbPoint
 10
15.2
 20
34.0
 30
0.0
  0
POINT
  5
B49
330
B3D
100
AcDbEntity
  8
Defpoints
 62
     0
100
AcDbPoint
 10
19.2
 20
34.0
 30
0.0
  0
POINT
  5
B4A
330
B3D
100
AcDbEntity
  8
Defpoints
 62
     0
100
AcDbPoint
 10
19.2
 20
49.38994368835355
 30
0.0
  0
ENDBLK
  5
B3F
330
B3D
100
AcDbEntity
  8
0
100
AcDbBlockEnd
  0
BLOCK
  5
B4F
330
B4E
100
AcDbEntity
  8
0
100
AcDbBlockBegin
  2
*D16
 70
     1
 10
0.0
 20
0.0
 30
0.0
  3
*D16
  1
*D19
  0
LINE
  5
B51
330
B4E
100
AcDbEntity
  8
0
 62
     0
370
    -2
100
AcDbLine
 10
49.6
 20
35.0
 30
0.0
 11
49.6
 21
52.54912426498482
 31
0.0
  0
LINE
  5
B52
330
B4E
100
AcDbEntity
  8
0
 62
     0
370
    -2
100
AcDbLine
 10
53.6
 20
35.0
 30
0.0
 11
53.6
 21
52.54912426498482
 31
0.0
  0
LINE
  5
B53
330
B4E
100
AcDbEntity
  8
0
 62
     0
370
    -2
100
AcDbLine
 10
56.902
 20
51.54912426498482
 30
0.0
 11
73.16866666666667
 21
51.54912426498482
 31
0.0
  0
LINE
  5
B54
330
B4E
100
AcDbEntity
  8
0
 62
     0
370
    -2
100
AcDbLine
 10
49.6
 20
51.54912426498482
 30
0.0
 11
53.6
 21
51.54912426498482
 31
0.0
  0
LINE
  5
B55
330
B4E
100
AcDbEntity
  8
0
 62
     0
370
    -2
100
AcDbLine
 10
46.298
 20
51.54912426498482
 30
0.0
 11
42.996
 21
51.54912426498482
 31
0.0
  0
SOLID
  5
B56
330
B4E
100
AcDbEntity
  8
0
 62
     0
100
AcDbTrace
 10
46.298
 20
50.99879093165148
 30
0.0
 11
46.298
 21
52.09945759831815
 31
0.0
 12
49.6
 22
51.54912426498482
 32
0.0
 13
49.6
 23
51.54912426498482
 33
0.0
  0
SOLID
  5
B57
330
B4E
100
AcDbEntity
  8
0
 62
     0
100
AcDbTrace
 10
56.902
 20
52.09945759831815
 30
0.0
 11
56.902
 21
50.99879093165148
 31
0.0
 12
53.6
 22
51.54912426498482
 32
0.0
 13
53.6
 23
51.54912426498482
 33
0.0
  0
MTEXT
  5
B58
330
B4E
100
AcDbEntity
  8
0
 62
     0
100
AcDbMText
 10
66.68633333333334
 20
55.11479093165148
 30
0.0
 40
3.5
 41
0.0
 71
     5
 72
     1
  1
4,00
 73
     1
 44
1.0
  0
POINT
  5
B59
330
B4E
100
AcDbEntity
  8
Defpoints
 62
     0
100
AcDbPoint
 10
49.6
 20
34.0
 30
0.0
  0
POINT
  5
B5A
330
B4E
100
AcDbEntity
  8
Defpoints
 62
     0
100
AcDbPoint
 10
53.6
 20
34.0
 30
0.0
  0
POINT
  5
B5B
330
B4E
100
AcDbEntity
  8
Defpoints
 62
     0
100
AcDbPoint
 10
53.6
 20
51.54912426498482
 30
0.0
  0
ENDBLK
  5
B50
330
B4E
100
AcDbEntity
  8
0
100
AcDbBlockEnd
  0
BLOCK
  5
B8C
330
B8B
100
AcDbEntity
  8
0
100
AcDbBlockBegin
  2
*D17
 70
     1
 10
0.0
 20
0.0
 30
0.0
  3
*D17
  1
*D17
  0
LINE
  5
B8E
330
B8B
100
AcDbEntity
  8
0
 62
     0
370
    -2
100
AcDbLine
 10
-82.0
 20
-32.0
 30
0.0
 11
-120.4712008858119
 21
-32.0
 31
0.0
  0
LINE
  5
B8F
330
B8B
100
AcDbEntity
  8
0
 62
     0
370
    -2
100
AcDbLine
 10
-82.0
 20
-35.99999999999997
 30
0.0
 11
-120.4712008858119
 21
-35.99999999999997
 31
0.0
  0
LINE
  5
B90
330
B8B
100
AcDbEntity
  8
0
 62
     0
370
    -2
100
AcDbLine
 10
-119.4712008858119
 20
-42.60399999999997
 30
0.0
 11
-130.9118675524786
 21
-42.60399999999997
 31
0.0
  0
LINE
  5
B91
330
B8B
100
AcDbEntity
  8
0
 62
     0
370
    -2
100
AcDbLine
 10
-119.4712008858119
 20
-32.0
 30
0.0
 11
-119.4712008858119
 21
-35.99999999999997
 31
0.0
  0
LINE
  5
B92
330
B8B
100
AcDbEntity
  8
0
 62
     0
370
    -2
100
AcDbLine
 10
-119.4712008858119
 20
-28.698
 30
0.0
 11
-119.4712008858119
 21
-25.396
 31
0.0
  0
LINE
  5
B93
330
B8B
100
AcDbEntity
  8
0
 62
     0
370
    -2
100
AcDbLine
 10
-119.4712008858119
 20
-39.30199999999997
 30
0.0
 11
-119.4712008858119
 21
-42.60399999999997
 31
0.0
  0
SOLID
  5
B94
330
B8B
100
AcDbEntity
  8
0
 62
     0
100
AcDbTrace
 10
-120.0215342191452
 20
-28.698
 30
0.0
 11
-118.9208675524786
 21
-28.698
 31
0.0
 12
-119.4712008858119
 22
-32.0
 32
0.0
 13
-119.4712008858119
 23
-32.0
 33
0.0
  0
SOLID
  5
B95
330
B8B
100
AcDbEntity
  8
0
 62
     0
100
AcDbTrace
 10
-118.9208675524786
 20
-39.30199999999997
 30
0.0
 11
-120.0215342191452
 21
-39.30199999999997
 31
0.0
 12
-119.4712008858119
 22
-35.99999999999997
 32
0.0
 13
-119.4712008858119
 23
-35.99999999999997
 33
0.0
  0
MTEXT
  5
B96
330
B8B
100
AcDbEntity
  8
0
 62
     0
100
AcDbMText
 10
-125.9535342191452
 20
-39.03833333333331
 30
0.0
 40
3.5
 41
0.0
 71
     5
 72
     1
  1
4,00
 73
     1
 44
1.0
  0
POINT
  5
B97
330
B8B
100
AcDbEntity
  8
Defpoints
 62
     0
100
AcDbPoint
 10
-81.0
 20
-32.0
 30
0.0
  0
POINT
  5
B98
330
B8B
100
AcDbEntity
  8
Defpoints
 62
     0
100
AcDbPoint
 10
-81.0
 20
-35.99999999999997
 30
0.0
  0
POINT
  5
B99
330
B8B
100
AcDbEntity
  8
Defpoints
 62
     0
100
AcDbPoint
 10
-119.4712008858119
 20
-35.99999999999997
 30
0.0
  0
ENDBLK
  5
B8D
330
B8B
100
AcDbEntity
  8
0
100
AcDbBlockEnd
  0
BLOCK
  5
B9E
330
B9D
100
AcDbEntity
  8
0
100
AcDbBlockBegin
  2
*D18
 70
     1
 10
0.0
 20
0.0
 30
0.0
  3
*D18
  1
*D18
  0
LINE
  5
BA0
330
B9D
100
AcDbEntity
  8
0
 62
     0
370
    -2
100
AcDbLine
 10
-82.0
 20
-13.00000000000003
 30
0.0
 11
-116.3927486855084
 21
-13.00000000000003
 31
0.0
  0
LINE
  5
BA1
330
B9D
100
AcDbEntity
  8
0
 62
     0
370
    -2
100
AcDbLine
 10
-82.0
 20
-17.0
 30
0.0
 11
-116.3927486855084
 21
-17.0
 31
0.0
  0
LINE
  5
BA2
330
B9D
100
AcDbEntity
  8
0
 62
     0
370
    -2
100
AcDbLine
 10
-115.3927486855084
 20
-23.604
 30
0.0
 11
-126.8334153521751
 21
-23.604
 31
0.0
  0
LINE
  5
BA3
330
B9D
100
AcDbEntity
  8
0
 62
     0
370
    -2
100
AcDbLine
 10
-115.3927486855084
 20
-13.00000000000003
 30
0.0
 11
-115.3927486855084
 21
-17.0
 31
0.0
  0
LINE
  5
BA4
330
B9D
100
AcDbEntity
  8
0
 62
     0
370
    -2
100
AcDbLine
 10
-115.3927486855084
 20
-9.698000000000027
 30
0.0
 11
-115.3927486855084
 21
-6.396000000000027
 31
0.0
  0
LINE
  5
BA5
330
B9D
100
AcDbEntity
  8
0
 62
     0
370
    -2
100
AcDbLine
 10
-115.3927486855084
 20
-20.302
 30
0.0
 11
-115.3927486855084
 21
-23.604
 31
0.0
  0
SOLID
  5
BA6
330
B9D
100
AcDbEntity
  8
0
 62
     0
100
AcDbTrace
 10
-115.9430820188418
 20
-9.698000000000027
 30
0.0
 11
-114.8424153521751
 21
-9.698000000000027
 31
0.0
 12
-115.3927486855084
 22
-13.00000000000003
 32
0.0
 13
-115.3927486855084
 23
-13.00000000000003
 33
0.0
  0
SOLID
  5
BA7
330
B9D
100
AcDbEntity
  8
0
 62
     0
100
AcDbTrace
 10
-114.8424153521751
 20
-20.302
 30
0.0
 11
-115.9430820188418
 21
-20.302
 31
0.0
 12
-115.3927486855084
 22
-17.0
 32
0.0
 13
-115.3927486855084
 23
-17.0
 33
0.0
  0
MTEXT
  5
BA8
330
B9D
100
AcDbEntity
  8
0
 62
     0
100
AcDbMText
 10
-121.8750820188418
 20
-20.03833333333333
 30
0.0
 40
3.5
 41
0.0
 71
     5
 72
     1
  1
4,00
 73
     1
 44
1.0
  0
POINT
  5
BA9
330
B9D
100
AcDbEntity
  8
Defpoints
 62
     0
100
AcDbPoint
 10
-81.0
 20
-13.00000000000003
 30
0.0
  0
POINT
  5
BAA
330
B9D
100
AcDbEntity
  8
Defpoints
 62
     0
100
AcDbPoint
 10
-81.0
 20
-17.0
 30
0.0
  0
POINT
  5
BAB
330
B9D
100
AcDbEntity
  8
Defpoints
 62
     0
100
AcDbPoint
 10
-115.3927486855084
 20
-17.0
 30
0.0
  0
ENDBLK
  5
B9F
330
B9D
100
AcDbEntity
  8
0
100
AcDbBlockEnd
  0
BLOCK
  5
BB0
330
BAF
100
AcDbEntity
  8
0
100
AcDbBlockBegin
  2
*D19
 70
     1
 10
0.0
 20
0.0
 30
0.0
  3
*D19
  1
*D19
  0
LINE
  5
BB2
330
BAF
100
AcDbEntity
  8
0
 62
     0
370
    -2
100
AcDbLine
 10
-82.0
 20
5.999999999999972
 30
0.0
 11
-115.1932039207133
 21
5.999999999999973
 31
0.0
  0
LINE
  5
BB3
330
BAF
100
AcDbEntity
  8
0
 62
     0
370
    -2
100
AcDbLine
 10
-82.0
 20
2.000000000000028
 30
0.0
 11
-115.1932039207133
 21
2.00000000000003
 31
0.0
  0
LINE
  5
BB4
330
BAF
100
AcDbEntity
  8
0
 62
     0
370
    -2
100
AcDbLine
 10
-114.1932039207133
 20
-4.60399999999997
 30
0.0
 11
-125.6338705873799
 21
-4.60399999999997
 31
0.0
  0
LINE
  5
BB5
330
BAF
100
AcDbEntity
  8
0
 62
     0
370
    -2
100
AcDbLine
 10
-114.1932039207133
 20
5.999999999999973
 30
0.0
 11
-114.1932039207133
 21
2.00000000000003
 31
0.0
  0
LINE
  5
BB6
330
BAF
100
AcDbEntity
  8
0
 62
     0
370
    -2
100
AcDbLine
 10
-114.1932039207133
 20
9.301999999999973
 30
0.0
 11
-114.1932039207133
 21
12.60399999999997
 31
0.0
  0
LINE
  5
BB7
330
BAF
100
AcDbEntity
  8
0
 62
     0
370
    -2
100
AcDbLine
 10
-114.1932039207133
 20
-1.30199999999997
 30
0.0
 11
-114.1932039207133
 21
-4.60399999999997
 31
0.0
  0
SOLID
  5
BB8
330
BAF
100
AcDbEntity
  8
0
 62
     0
100
AcDbTrace
 10
-114.7435372540466
 20
9.301999999999973
 30
0.0
 11
-113.64287058738
 21
9.301999999999973
 31
0.0
 12
-114.1932039207133
 22
5.999999999999973
 32
0.0
 13
-114.1932039207133
 23
5.999999999999973
 33
0.0
  0
SOLID
  5
BB9
330
BAF
100
AcDbEntity
  8
0
 62
     0
100
AcDbTrace
 10
-113.64287058738
 20
-1.30199999999997
 30
0.0
 11
-114.7435372540466
 21
-1.30199999999997
 31
0.0
 12
-114.1932039207133
 22
2.00000000000003
 32
0.0
 13
-114.1932039207133
 23
2.00000000000003
 33
0.0
  0
MTEXT
  5
BBA
330
BAF
100
AcDbEntity
  8
0
 62
     0
100
AcDbMText
 10
-120.6755372540466
 20
-1.038333333333304
 30
0.0
 40
3.5
 41
0.0
 71
     5
 72
     1
  1
4,00
 73
     1
 44
1.0
  0
POINT
  5
BBB
330
BAF
100
AcDbEntity
  8
Defpoints
 62
     0
100
AcDbPoint
 10
-81.0
 20
5.999999999999972
 30
0.0
  0
POINT
  5
BBC
330
BAF
100
AcDbEntity
  8
Defpoints
 62
     0
100
AcDbPoint
 10
-81.0
 20
2.000000000000028
 30
0.0
  0
POINT
  5
BBD
330
BAF
100
AcDbEntity
  8
Defpoints
 62
     0
100
AcDbPoint
 10
-114.1932039207133
 20
2.00000000000003
 30
0.0
  0
ENDBLK
  5
BB1
330
BAF
100
AcDbEntity
  8
0
100
AcDbBlockEnd
  0
BLOCK
  5
BC2
330
BC1
100
AcDbEntity
  8
0
100
AcDbBlockBegin
  2
*D20
 70
     1
 10
0.0
 20
0.0
 30
0.0
  3
*D20
  1
*D20
  0
LINE
  5
BC4
330
BC1
100
AcDbEntity
  8
0
 62
     0
370
    -2
100
AcDbLine
 10
-82.0
 20
24.99999999999999
 30
0.0
 11
-124.5496530861154
 21
24.99999999999999
 31
0.0
  0
LINE
  5
BC5
330
BC1
100
AcDbEntity
  8
0
 62
     0
370
    -2
100
AcDbLine
 10
-82.0
 20
21.0
 30
0.0
 11
-124.5496530861154
 21
21.0
 31
0.0
  0
LINE
  5
BC6
330
BC1
100
AcDbEntity
  8
0
 62
     0
370
    -2
100
AcDbLine
 10
-123.5496530861154
 20
14.396
 30
0.0
 11
-134.9903197527821
 21
14.396
 31
0.0
  0
LINE
  5
BC7
330
BC1
100
AcDbEntity
  8
0
 62
     0
370
    -2
100
AcDbLine
 10
-123.5496530861154
 20
24.99999999999999
 30
0.0
 11
-123.5496530861154
 21
21.0
 31
0.0
  0
LINE
  5
BC8
330
BC1
100
AcDbEntity
  8
0
 62
     0
370
    -2
100
AcDbLine
 10
-123.5496530861154
 20
28.30199999999999
 30
0.0
 11
-123.5496530861154
 21
31.60399999999999
 31
0.0
  0
LINE
  5
BC9
330
BC1
100
AcDbEntity
  8
0
 62
     0
370
    -2
100
AcDbLine
 10
-123.5496530861154
 20
17.698
 30
0.0
 11
-123.5496530861154
 21
14.396
 31
0.0
  0
SOLID
  5
BCA
330
BC1
100
AcDbEntity
  8
0
 62
     0
100
AcDbTrace
 10
-124.0999864194487
 20
28.30199999999999
 30
0.0
 11
-122.9993197527821
 21
28.30199999999999
 31
0.0
 12
-123.5496530861154
 22
24.99999999999999
 32
0.0
 13
-123.5496530861154
 23
24.99999999999999
 33
0.0
  0
SOLID
  5
BCB
330
BC1
100
AcDbEntity
  8
0
 62
     0
100
AcDbTrace
 10
-122.9993197527821
 20
17.698
 30
0.0
 11
-124.0999864194487
 21
17.698
 31
0.0
 12
-123.5496530861154
 22
21.0
 32
0.0
 13
-123.5496530861154
 23
21.0
 33
0.0
  0
MTEXT
  5
BCC
330
BC1
100
AcDbEntity
  8
0
 62
     0
100
AcDbMText
 10
-130.0319864194487
 20
17.96166666666667
 30
0.0
 40
3.5
 41
0.0
 71
     5
 72
     1
  1
4,00
 73
     1
 44
1.0
  0
POINT
  5
BCD
330
BC1
100
AcDbEntity
  8
Defpoints
 62
     0
100
AcDbPoint
 10
-81.0
 20
24.99999999999999
 30
0.0
  0
POINT
  5
BCE
330
BC1
100
AcDbEntity
  8
Defpoints
 62
     0
100
AcDbPoint
 10
-81.0
 20
21.0
 30
0.0
  0
POINT
  5
BCF
330
BC1
100
AcDbEntity
  8
Defpoints
 62
     0
100
AcDbPoint
 10
-123.5496530861154
 20
21.0
 30
0.0
  0
ENDBLK
  5
BC3
330
BC1
100
AcDbEntity
  8
0
100
AcDbBlockEnd
  0
BLOCK
  5
BD4
330
BD3
100
AcDbEntity
  8
0
100
AcDbBlockBegin
  2
*D21
 70
     1
 10
0.0
 20
0.0
 30
0.0
  3
*D21
  1
*D21
  0
LINE
  5
BD6
330
BD3
100
AcDbEntity
  8
0
 62
     0
370
    -2
100
AcDbLine
 10
-82.0
 20
39.0
 30
0.0
 11
-115.4916743204472
 21
39.0
 31
0.0
  0
LINE
  5
BD7
330
BD3
100
AcDbEntity
  8
0
 62
     0
370
    -2
100
AcDbLine
 10
-84.0
 20
41.99999999999997
 30
0.0
 11
-115.4916743204472
 21
41.99999999999997
 31
0.0
  0
LINE
  5
BD8
330
BD3
100
AcDbEntity
  8
0
 62
     0
370
    -2
100
AcDbLine
 10
-114.4916743204472
 20
48.60399999999997
 30
0.0
 11
-103.0510076537805
 21
48.60399999999997
 31
0.0
  0
LINE
  5
BD9
330
BD3
100
AcDbEntity
  8
0
 62
     0
370
    -2
100
AcDbLine
 10
-114.4916743204472
 20
39.0
 30
0.0
 11
-114.4916743204472
 21
41.99999999999997
 31
0.0
  0
LINE
  5
BDA
330
BD3
100
AcDbEntity
  8
0
 62
     0
370
    -2
100
AcDbLine
 10
-114.4916743204472
 20
35.698
 30
0.0
 11
-114.4916743204472
 21
32.396
 31
0.0
  0
LINE
  5
BDB
330
BD3
100
AcDbEntity
  8
0
 62
     0
370
    -2
100
AcDbLine
 10
-114.4916743204472
 20
45.30199999999997
 30
0.0
 11
-114.4916743204472
 21
48.60399999999997
 31
0.0
  0
SOLID
  5
BDC
330
BD3
100
AcDbEntity
  8
0
 62
     0
100
AcDbTrace
 10
-113.9413409871139
 20
35.698
 30
0.0
 11
-115.0420076537805
 21
35.698
 31
0.0
 12
-114.4916743204472
 22
39.0
 32
0.0
 13
-114.4916743204472
 23
39.0
 33
0.0
  0
SOLID
  5
BDD
330
BD3
100
AcDbEntity
  8
0
 62
     0
100
AcDbTrace
 10
-115.0420076537805
 20
45.30199999999997
 30
0.0
 11
-113.9413409871139
 21
45.30199999999997
 31
0.0
 12
-114.4916743204472
 22
41.99999999999997
 32
0.0
 13
-114.4916743204472
 23
41.99999999999997
 33
0.0
  0
MTEXT
  5
BDE
330
BD3
100
AcDbEntity
  8
0
 62
     0
100
AcDbMText
 10
-108.0093409871139
 20
52.16966666666664
 30
0.0
 40
3.5
 41
0.0
 71
     5
 72
     1
  1
3,00
 73
     1
 44
1.0
  0
POINT
  5
BDF
330
BD3
100
AcDbEntity
  8
Defpoints
 62
     0
100
AcDbPoint
 10
-81.0
 20
39.0
 30
0.0
  0
POINT
  5
BE0
330
BD3
100
AcDbEntity
  8
Defpoints
 62
     0
100
AcDbPoint
 10
-83.0
 20
41.99999999999997
 30
0.0
  0
POINT
  5
BE1
330
BD3
100
AcDbEntity
  8
Defpoints
 62
     0
100
AcDbPoint
 10
-114.4916743204472
 20
41.99999999999997
 30
0.0
  0
ENDBLK
  5
BD5
330
BD3
100
AcDbEntity
  8
0
100
AcDbBlockEnd
  0
ENDSEC
  0
SECTION
  2
ENTITIES
  0
LINE
  5
217
330
1F
100
AcDbEntity
  8
keys
  6
Continuous
370
    15
100
AcDbLine
 10
56.6
 20
39.0
 30
0.0
 11
63.3
 21
39.0
 31
0.0
  0
LINE
  5
218
102
{ACAD_REACTORS
102
}
330
1F
100
AcDbEntity
  8
keys
  6
Continuous
370
    15
100
AcDbLine
 10
53.6
 20
28.0
 30
0.0
 11
53.6
 21
36.0
 31
0.0
  0
LINE
  5
219
330
1F
100
AcDbEntity
  8
keys
  6
Continuous
370
    15
100
AcDbLine
 10
63.3
 20
25.0
 30
0.0
 11
56.6
 21
25.0
 31
0.0
  0
LINE
  5
21A
330
1F
100
AcDbEntity
  8
keys
  6
Continuous
370
    15
100
AcDbLine
 10
81.0
 20
25.0
 30
0.0
 11
74.3
 21
25.0
 31
0.0
  0
LINE
  5
21B
330
1F
100
AcDbEntity
  8
keys
  6
Continuous
370
    15
100
AcDbLine
 10
84.0
 20
36.0
 30
0.0
 11
84.0
 21
28.0
 31
0.0
  0
LINE
  5
21C
330
1F
100
AcDbEntity
  8
keys
  6
Continuous
370
    15
100
AcDbLine
 10
74.3
 20
39.0
 30
0.0
 11
81.0
 21
39.0
 31
0.0
  0
LINE
  5
21D
330
1F
100
AcDbEntity
  8
keys
  6
Continuous
370
    15
100
AcDbLine
 10
81.0
 20
-13.0
 30
0.0
 11
74.3
 21
-13.0
 31
0.0
  0
LINE
  5
21E
330
1F
100
AcDbEntity
  8
keys
  6
Continuous
370
    15
100
AcDbLine
 10
84.0
 20
-1.0
 30
0.0
 11
84.0
 21
-10.0
 31
0.0
  0
LINE
  5
21F
330
1F
100
AcDbEntity
  8
keys
  6
Continuous
370
    15
100
AcDbLine
 10
74.3
 20
2.0
 30
0.0
 11
81.0
 21
2.0
 31
0.0
  0
LINE
  5
220
330
1F
100
AcDbEntity
  8
keys
  6
Continuous
370
    15
100
AcDbLine
 10
71.3
 20
-10.0
 30
0.0
 11
71.3
 21
-1.0
 31
0.0
  0
LINE
  5
221
330
1F
100
AcDbEntity
  8
keys
  6
Continuous
370
    15
100
AcDbLine
 10
56.6
 20
-36.0
 30
0.0
 11
63.3
 21
-36.0
 31
0.0
  0
LINE
  5
222
330
1F
100
AcDbEntity
  8
keys
  6
Continuous
370
    15
100
AcDbLine
 10
53.6
 20
-48.0
 30
0.0
 11
53.6
 21
-39.0
 31
0.0
  0
LINE
  5
223
330
1F
100
AcDbEntity
  8
keys
  6
Continuous
370
    15
100
AcDbLine
 10
63.3
 20
-51.0
 30
0.0
 11
56.6
 21
-51.0
 31
0.0
  0
LINE
  5
224
330
1F
100
AcDbEntity
  8
keys
  6
Continuous
370
    15
100
AcDbLine
 10
81.0
 20
-51.0
 30
0.0
 11
74.3
 21
-51.0
 31
0.0
  0
LINE
  5
225
330
1F
100
AcDbEntity
  8
keys
  6
Continuous
370
    15
100
AcDbLine
 10
84.0
 20
-39.0
 30
0.0
 11
84.0
 21
-48.0
 31
0.0
  0
LINE
  5
226
330
1F
100
AcDbEntity
  8
keys
  6
Continuous
370
    15
100
AcDbLine
 10
74.3
 20
-36.0
 30
0.0
 11
81.0
 21
-36.0
 31
0.0
  0
LINE
  5
227
330
1F
100
AcDbEntity
  8
keys
  6
Continuous
370
    15
100
AcDbLine
 10
63.3
 20
6.0
 30
0.0
 11
56.6
 21
6.0
 31
0.0
  0
LINE
  5
228
330
1F
100
AcDbEntity
  8
keys
  6
Continuous
370
    15
100
AcDbLine
 10
66.3
 20
18.0
 30
0.0
 11
66.3
 21
9.0
 31
0.0
  0
LINE
  5
229
330
1F
100
AcDbEntity
  8
keys
  6
Continuous
370
    15
100
AcDbLine
 10
56.6
 20
21.0
 30
0.0
 11
63.3
 21
21.0
 31
0.0
  0
LINE
  5
22A
330
1F
100
AcDbEntity
  8
keys
  6
Continuous
370
    15
100
AcDbLine
 10
53.6
 20
9.0
 30
0.0
 11
53.6
 21
18.0
 31
0.0
  0
LINE
  5
22B
330
1F
100
AcDbEntity
  8
keys
  6
Continuous
370
    15
100
AcDbLine
 10
63.3
 20
-32.0
 30
0.0
 11
56.6
 21
-32.0
 31
0.0
  0
LINE
  5
22C
330
1F
100
AcDbEntity
  8
keys
  6
Continuous
370
    15
100
AcDbLine
 10
66.3
 20
-20.0
 30
0.0
 11
66.3
 21
-29.0
 31
0.0
  0
LINE
  5
22D
330
1F
100
AcDbEntity
  8
keys
  6
Continuous
370
    15
100
AcDbLine
 10
56.6
 20
-17.0
 30
0.0
 11
63.3
 21
-17.0
 31
0.0
  0
LINE
  5
22E
330
1F
100
AcDbEntity
  8
keys
  6
Continuous
370
    15
100
AcDbLine
 10
53.6
 20
-29.0
 30
0.0
 11
53.6
 21
-20.0
 31
0.0
  0
LINE
  5
22F
330
1F
100
AcDbEntity
  8
keys
  6
Continuous
370
    15
100
AcDbLine
 10
22.2
 20
39.0
 30
0.0
 11
28.9
 21
39.0
 31
0.0
  0
LINE
  5
230
102
{ACAD_REACTORS
102
}
330
1F
100
AcDbEntity
  8
keys
  6
Continuous
370
    15
100
AcDbLine
 10
19.2
 20
28.0
 30
0.0
 11
19.2
 21
36.0
 31
0.0
  0
LINE
  5
231
330
1F
100
AcDbEntity
  8
keys
  6
Continuous
370
    15
100
AcDbLine
 10
28.9
 20
25.0
 30
0.0
 11
22.2
 21
25.0
 31
0.0
  0
LINE
  5
232
330
1F
100
AcDbEntity
  8
keys
  6
Continuous
370
    15
100
AcDbLine
 10
46.6
 20
25.0
 30
0.0
 11
39.9
 21
25.0
 31
0.0
  0
LINE
  5
233
102
{ACAD_REACTORS
102
}
330
1F
100
AcDbEntity
  8
keys
  6
Continuous
370
    15
100
AcDbLine
 10
49.6
 20
36.0
 30
0.0
 11
49.6
 21
28.0
 31
0.0
  0
LINE
  5
234
330
1F
100
AcDbEntity
  8
keys
  6
Continuous
370
    15
100
AcDbLine
 10
39.9
 20
39.0
 30
0.0
 11
46.6
 21
39.0
 31
0.0
  0
LINE
  5
235
330
1F
100
AcDbEntity
  8
keys
  6
Continuous
370
    15
100
AcDbLine
 10
46.6
 20
-13.0
 30
0.0
 11
39.9
 21
-13.0
 31
0.0
  0
LINE
  5
236
330
1F
100
AcDbEntity
  8
keys
  6
Continuous
370
    15
100
AcDbLine
 10
49.6
 20
-1.0
 30
0.0
 11
49.6
 21
-10.0
 31
0.0
  0
LINE
  5
237
330
1F
100
AcDbEntity
  8
keys
  6
Continuous
370
    15
100
AcDbLine
 10
39.9
 20
2.0
 30
0.0
 11
46.6
 21
2.0
 31
0.0
  0
LINE
  5
238
330
1F
100
AcDbEntity
  8
keys
  6
Continuous
370
    15
100
AcDbLine
 10
36.9
 20
-10.0
 30
0.0
 11
36.9
 21
-1.0
 31
0.0
  0
LINE
  5
239
330
1F
100
AcDbEntity
  8
keys
  6
Continuous
370
    15
100
AcDbLine
 10
22.2
 20
-36.0
 30
0.0
 11
28.9
 21
-36.0
 31
0.0
  0
LINE
  5
23A
330
1F
100
AcDbEntity
  8
keys
  6
Continuous
370
    15
100
AcDbLine
 10
19.2
 20
-48.0
 30
0.0
 11
19.2
 21
-39.0
 31
0.0
  0
LINE
  5
23B
330
1F
100
AcDbEntity
  8
keys
  6
Continuous
370
    15
100
AcDbLine
 10
28.9
 20
-51.0
 30
0.0
 11
22.2
 21
-51.0
 31
0.0
  0
LINE
  5
23C
330
1F
100
AcDbEntity
  8
keys
  6
Continuous
370
    15
100
AcDbLine
 10
46.6
 20
-51.0
 30
0.0
 11
39.9
 21
-51.0
 31
0.0
  0
LINE
  5
23D
330
1F
100
AcDbEntity
  8
keys
  6
Continuous
370
    15
100
AcDbLine
 10
49.6
 20
-39.0
 30
0.0
 11
49.6
 21
-48.0
 31
0.0
  0
LINE
  5
23E
330
1F
100
AcDbEntity
  8
keys
  6
Continuous
370
    15
100
AcDbLine
 10
39.9
 20
-36.0
 30
0.0
 11
46.6
 21
-36.0
 31
0.0
  0
LINE
  5
23F
330
1F
100
AcDbEntity
  8
keys
  6
Continuous
370
    15
100
AcDbLine
 10
28.9
 20
6.0
 30
0.0
 11
22.2
 21
6.0
 31
0.0
  0
LINE
  5
240
330
1F
100
AcDbEntity
  8
keys
  6
Continuous
370
    15
100
AcDbLine
 10
31.9
 20
18.0
 30
0.0
 11
31.9
 21
9.0
 31
0.0
  0
LINE
  5
241
330
1F
100
AcDbEntity
  8
keys
  6
Continuous
370
    15
100
AcDbLine
 10
22.2
 20
21.0
 30
0.0
 11
28.9
 21
21.0
 31
0.0
  0
LINE
  5
242
330
1F
100
AcDbEntity
  8
keys
  6
Continuous
370
    15
100
AcDbLine
 10
19.2
 20
9.0
 30
0.0
 11
19.2
 21
18.0
 31
0.0
  0
LINE
  5
243
330
1F
100
AcDbEntity
  8
keys
  6
Continuous
370
    15
100
AcDbLine
 10
28.9
 20
-32.0
 30
0.0
 11
22.2
 21
-32.0
 31
0.0
  0
LINE
  5
244
330
1F
100
AcDbEntity
  8
keys
  6
Continuous
370
    15
100
AcDbLine
 10
31.9
 20
-20.0
 30
0.0
 11
31.9
 21
-29.0
 31
0.0
  0
LINE
  5
245
330
1F
100
AcDbEntity
  8
keys
  6
Continuous
370
    15
100
AcDbLine
 10
22.2
 20
-17.0
 30
0.0
 11
28.9
 21
-17.0
 31
0.0
  0
LINE
  5
246
330
1F
100
AcDbEntity
  8
keys
  6
Continuous
370
    15
100
AcDbLine
 10
19.2
 20
-29.0
 30
0.0
 11
19.2
 21
-20.0
 31
0.0
  0
LINE
  5
247
330
1F
100
AcDbEntity
  8
keys
  6
Continuous
370
    15
100
AcDbLine
 10
-5.5
 20
39.0
 30
0.0
 11
-12.2
 21
39.0
 31
0.0
  0
LINE
  5
248
102
{ACAD_REACTORS
102
}
330
1F
100
AcDbEntity
  8
keys
  6
Continuous
370
    15
100
AcDbLine
 10
-15.2
 20
36.0
 30
0.0
 11
-15.2
 21
28.0
 31
0.0
  0
LINE
  5
249
330
1F
100
AcDbEntity
  8
keys
  6
Continuous
370
    15
100
AcDbLine
 10
-12.2
 20
25.0
 30
0.0
 11
-5.5
 21
25.0
 31
0.0
  0
LINE
  5
24A
330
1F
100
AcDbEntity
  8
keys
  6
Continuous
370
    15
100
AcDbLine
 10
12.2
 20
25.0
 30
0.0
 11
5.5
 21
25.0
 31
0.0
  0
LINE
  5
24B
102
{ACAD_REACTORS
102
}
330
1F
100
AcDbEntity
  8
keys
  6
Continuous
370
    15
100
AcDbLine
 10
15.2
 20
36.0
 30
0.0
 11
15.2
 21
28.0
 31
0.0
  0
LINE
  5
24C
330
1F
100
AcDbEntity
  8
keys
  6
Continuous
370
    15
100
AcDbLine
 10
5.5
 20
39.0
 30
0.0
 11
12.2
 21
39.0
 31
0.0
  0
LINE
  5
24D
330
1F
100
AcDbEntity
  8
keys
  6
Continuous
370
    15
100
AcDbLine
 10
12.2
 20
-13.0
 30
0.0
 11
5.5
 21
-13.0
 31
0.0
  0
LINE
  5
24E
330
1F
100
AcDbEntity
  8
keys
  6
Continuous
370
    15
100
AcDbLine
 10
15.2
 20
-1.0
 30
0.0
 11
15.2
 21
-10.0
 31
0.0
  0
LINE
  5
24F
330
1F
100
AcDbEntity
  8
keys
  6
Continuous
370
    15
100
AcDbLine
 10
5.5
 20
2.0
 30
0.0
 11
12.2
 21
2.0
 31
0.0
  0
LINE
  5
250
330
1F
100
AcDbEntity
  8
keys
  6
Continuous
370
    15
100
AcDbLine
 10
2.5
 20
-10.0
 30
0.0
 11
2.5
 21
-1.0
 31
0.0
  0
LINE
  5
251
330
1F
100
AcDbEntity
  8
keys
  6
Continuous
370
    15
100
AcDbLine
 10
-5.5
 20
-36.0
 30
0.0
 11
-12.2
 21
-36.0
 31
0.0
  0
LINE
  5
252
330
1F
100
AcDbEntity
  8
keys
  6
Continuous
370
    15
100
AcDbLine
 10
-15.2
 20
-39.0
 30
0.0
 11
-15.2
 21
-48.0
 31
0.0
  0
LINE
  5
253
330
1F
100
AcDbEntity
  8
keys
  6
Continuous
370
    15
100
AcDbLine
 10
-12.2
 20
-51.0
 30
0.0
 11
-5.5
 21
-51.0
 31
0.0
  0
LINE
  5
254
330
1F
100
AcDbEntity
  8
keys
  6
Continuous
370
    15
100
AcDbLine
 10
12.2
 20
-51.0
 30
0.0
 11
5.5
 21
-51.0
 31
0.0
  0
LINE
  5
255
330
1F
100
AcDbEntity
  8
keys
  6
Continuous
370
    15
100
AcDbLine
 10
15.2
 20
-39.0
 30
0.0
 11
15.2
 21
-48.0
 31
0.0
  0
LINE
  5
256
330
1F
100
AcDbEntity
  8
keys
  6
Continuous
370
    15
100
AcDbLine
 10
5.5
 20
-36.0
 30
0.0
 11
12.2
 21
-36.0
 31
0.0
  0
LINE
  5
257
102
{ACAD_REACTORS
330
BC0
102
}
330
1F
100
AcDbEntity
  8
keys
  6
Continuous
370
    15
100
AcDbLine
 10
-74.3
 20
21.0
 30
0.0
 11
-81.0
 21
21.0
 31
0.0
  0
LINE
  5
258
330
1F
100
AcDbEntity
  8
keys
  6
Continuous
370
    15
100
AcDbLine
 10
-84.0
 20
18.0
 30
0.0
 11
-84.0
 21
9.0
 31
0.0
  0
LINE
  5
259
330
1F
100
AcDbEntity
  8
keys
  6
Continuous
370
    15
100
AcDbLine
 10
-81.0
 20
6.0
 30
0.0
 11
-74.3
 21
6.0
 31
0.0
  0
LINE
  5
25A
330
1F
100
AcDbEntity
  8
keys
  6
Continuous
370
    15
100
AcDbLine
 10
-71.3
 20
9.0
 30
0.0
 11
-71.3
 21
18.0
 31
0.0
  0
LINE
  5
25B
330
1F
100
AcDbEntity
  8
keys
  6
Continuous
370
    15
100
AcDbLine
 10
-74.3
 20
2.0
 30
0.0
 11
-81.0
 21
2.0
 31
0.0
  0
LINE
  5
25C
330
1F
100
AcDbEntity
  8
keys
  6
Continuous
370
    15
100
AcDbLine
 10
-84.0
 20
-1.0
 30
0.0
 11
-84.0
 21
-10.0
 31
0.0
  0
LINE
  5
25D
330
1F
100
AcDbEntity
  8
keys
  6
Continuous
370
    15
100
AcDbLine
 10
-81.0
 20
-13.0
 30
0.0
 11
-74.3
 21
-13.0
 31
0.0
  0
LINE
  5
25E
330
1F
100
AcDbEntity
  8
keys
  6
Continuous
370
    15
100
AcDbLine
 10
-71.3
 20
-10.0
 30
0.0
 11
-71.3
 21
-1.0
 31
0.0
  0
LINE
  5
25F
102
{ACAD_REACTORS
330
B9C
102
}
330
1F
100
AcDbEntity
  8
keys
  6
Continuous
370
    15
100
AcDbLine
 10
-74.3
 20
-17.0
 30
0.0
 11
-81.0
 21
-17.0
 31
0.0
  0
LINE
  5
260
330
1F
100
AcDbEntity
  8
keys
  6
Continuous
370
    15
100
AcDbLine
 10
-84.0
 20
-20.0
 30
0.0
 11
-84.0
 21
-29.0
 31
0.0
  0
LINE
  5
261
102
{ACAD_REACTORS
330
B8A
102
}
330
1F
100
AcDbEntity
  8
keys
  6
Continuous
370
    15
100
AcDbLine
 10
-81.0
 20
-32.0
 30
0.0
 11
-74.3
 21
-32.0
 31
0.0
  0
LINE
  5
262
330
1F
100
AcDbEntity
  8
keys
  6
Continuous
370
    15
100
AcDbLine
 10
-71.3
 20
-29.0
 30
0.0
 11
-71.3
 21
-20.0
 31
0.0
  0
LINE
  5
263
102
{ACAD_REACTORS
330
BD2
102
}
330
1F
100
AcDbEntity
  8
keys
  6
Continuous
370
    15
100
AcDbLine
 10
-74.3
 20
39.0
 30
0.0
 11
-81.0
 21
39.0
 31
0.0
  0
LINE
  5
264
330
1F
100
AcDbEntity
  8
keys
  6
Continuous
370
    15
100
AcDbLine
 10
-84.0
 20
36.0
 30
0.0
 11
-84.0
 21
28.0
 31
0.0
  0
LINE
  5
265
330
1F
100
AcDbEntity
  8
keys
  6
Continuous
370
    15
100
AcDbLine
 10
-81.0
 20
25.0
 30
0.0
 11
-74.3
 21
25.0
 31
0.0
  0
LINE
  5
266
330
1F
100
AcDbEntity
  8
keys
  6
Continuous
370
    15
100
AcDbLine
 10
-63.3
 20
25.0
 30
0.0
 11
-56.6
 21
25.0
 31
0.0
  0
LINE
  5
267
102
{ACAD_REACTORS
102
}
330
1F
100
AcDbEntity
  8
keys
  6
Continuous
370
    15
100
AcDbLine
 10
-53.6
 20
28.0
 30
0.0
 11
-53.6
 21
36.0
 31
0.0
  0
LINE
  5
268
330
1F
100
AcDbEntity
  8
keys
  6
Continuous
370
    15
100
AcDbLine
 10
-56.6
 20
39.0
 30
0.0
 11
-63.3
 21
39.0
 31
0.0
  0
LINE
  5
269
330
1F
100
AcDbEntity
  8
keys
  6
Continuous
370
    15
100
AcDbLine
 10
-56.6
 20
21.0
 30
0.0
 11
-63.3
 21
21.0
 31
0.0
  0
LINE
  5
26A
330
1F
100
AcDbEntity
  8
keys
  6
Continuous
370
    15
100
AcDbLine
 10
-66.3
 20
18.0
 30
0.0
 11
-66.3
 21
9.0
 31
0.0
  0
LINE
  5
26B
330
1F
100
AcDbEntity
  8
keys
  6
Continuous
370
    15
100
AcDbLine
 10
-63.3
 20
6.0
 30
0.0
 11
-56.6
 21
6.0
 31
0.0
  0
LINE
  5
26C
330
1F
100
AcDbEntity
  8
keys
  6
Continuous
370
    15
100
AcDbLine
 10
-53.6
 20
9.0
 30
0.0
 11
-53.6
 21
18.0
 31
0.0
  0
LINE
  5
26D
330
1F
100
AcDbEntity
  8
keys
  6
Continuous
370
    15
100
AcDbLine
 10
-56.6
 20
2.0
 30
0.0
 11
-63.3
 21
2.0
 31
0.0
  0
LINE
  5
26E
330
1F
100
AcDbEntity
  8
keys
  6
Continuous
370
    15
100
AcDbLine
 10
-66.3
 20
-1.0
 30
0.0
 11
-66.3
 21
-10.0
 31
0.0
  0
LINE
  5
26F
330
1F
100
AcDbEntity
  8
keys
  6
Continuous
370
    15
100
AcDbLine
 10
-63.3
 20
-13.0
 30
0.0
 11
-56.6
 21
-13.0
 31
0.0
  0
LINE
  5
270
330
1F
100
AcDbEntity
  8
keys
  6
Continuous
370
    15
100
AcDbLine
 10
-53.6
 20
-10.0
 30
0.0
 11
-53.6
 21
-1.0
 31
0.0
  0
LINE
  5
271
330
1F
100
AcDbEntity
  8
keys
  6
Continuous
370
    15
100
AcDbLine
 10
-56.6
 20
-17.0
 30
0.0
 11
-63.3
 21
-17.0
 31
0.0
  0
LINE
  5
272
330
1F
100
AcDbEntity
  8
keys
  6
Continuous
370
    15
100
AcDbLine
 10
-66.3
 20
-20.0
 30
0.0
 11
-66.3
 21
-29.0
 31
0.0
  0
LINE
  5
273
330
1F
100
AcDbEntity
  8
keys
  6
Continuous
370
    15
100
AcDbLine
 10
-63.3
 20
-32.0
 30
0.0
 11
-56.6
 21
-32.0
 31
0.0
  0
LINE
  5
274
330
1F
100
AcDbEntity
  8
keys
  6
Continuous
370
    15
100
AcDbLine
 10
-53.6
 20
-29.0
 30
0.0
 11
-53.6
 21
-20.0
 31
0.0
  0
LINE
  5
275
330
1F
100
AcDbEntity
  8
keys
  6
Continuous
370
    15
100
AcDbLine
 10
-74.3
 20
-36.0
 30
0.0
 11
-81.0
 21
-36.0
 31
0.0
  0
LINE
  5
276
330
1F
100
AcDbEntity
  8
keys
  6
Continuous
370
    15
100
AcDbLine
 10
-84.0
 20
-39.0
 30
0.0
 11
-84.0
 21
-48.0
 31
0.0
  0
LINE
  5
277
330
1F
100
AcDbEntity
  8
keys
  6
Continuous
370
    15
100
AcDbLine
 10
-81.0
 20
-51.0
 30
0.0
 11
-74.3
 21
-51.0
 31
0.0
  0
LINE
  5
278
330
1F
100
AcDbEntity
  8
keys
  6
Continuous
370
    15
100
AcDbLine
 10
-63.3
 20
-51.0
 30
0.0
 11
-56.6
 21
-51.0
 31
0.0
  0
LINE
  5
279
330
1F
100
AcDbEntity
  8
keys
  6
Continuous
370
    15
100
AcDbLine
 10
-53.6
 20
-48.0
 30
0.0
 11
-53.6
 21
-39.0
 31
0.0
  0
LINE
  5
27A
330
1F
100
AcDbEntity
  8
keys
  6
Continuous
370
    15
100
AcDbLine
 10
-56.6
 20
-36.0
 30
0.0
 11
-63.3
 21
-36.0
 31
0.0
  0
LINE
  5
27B
330
1F
100
AcDbEntity
  8
keys
  6
Continuous
370
    15
100
AcDbLine
 10
-39.9
 20
21.0
 30
0.0
 11
-46.6
 21
21.0
 31
0.0
  0
LINE
  5
27C
330
1F
100
AcDbEntity
  8
keys
  6
Continuous
370
    15
100
AcDbLine
 10
-49.6
 20
18.0
 30
0.0
 11
-49.6
 21
9.0
 31
0.0
  0
LINE
  5
27D
330
1F
100
AcDbEntity
  8
keys
  6
Continuous
370
    15
100
AcDbLine
 10
-46.6
 20
6.0
 30
0.0
 11
-39.9
 21
6.0
 31
0.0
  0
LINE
  5
27E
330
1F
100
AcDbEntity
  8
keys
  6
Continuous
370
    15
100
AcDbLine
 10
-36.9
 20
9.0
 30
0.0
 11
-36.9
 21
18.0
 31
0.0
  0
LINE
  5
27F
330
1F
100
AcDbEntity
  8
keys
  6
Continuous
370
    15
100
AcDbLine
 10
-39.9
 20
2.0
 30
0.0
 11
-46.6
 21
2.0
 31
0.0
  0
LINE
  5
280
330
1F
100
AcDbEntity
  8
keys
  6
Continuous
370
    15
100
AcDbLine
 10
-49.6
 20
-1.0
 30
0.0
 11
-49.6
 21
-10.0
 31
0.0
  0
LINE
  5
281
330
1F
100
AcDbEntity
  8
keys
  6
Continuous
370
    15
100
AcDbLine
 10
-46.6
 20
-13.0
 30
0.0
 11
-39.9
 21
-13.0
 31
0.0
  0
LINE
  5
282
330
1F
100
AcDbEntity
  8
keys
  6
Continuous
370
    15
100
AcDbLine
 10
-36.9
 20
-10.0
 30
0.0
 11
-36.9
 21
-1.0
 31
0.0
  0
LINE
  5
283
330
1F
100
AcDbEntity
  8
keys
  6
Continuous
370
    15
100
AcDbLine
 10
-39.9
 20
-17.0
 30
0.0
 11
-46.6
 21
-17.0
 31
0.0
  0
LINE
  5
284
330
1F
100
AcDbEntity
  8
keys
  6
Continuous
370
    15
100
AcDbLine
 10
-49.6
 20
-20.0
 30
0.0
 11
-49.6
 21
-29.0
 31
0.0
  0
LINE
  5
285
330
1F
100
AcDbEntity
  8
keys
  6
Continuous
370
    15
100
AcDbLine
 10
-46.6
 20
-32.0
 30
0.0
 11
-39.9
 21
-32.0
 31
0.0
  0
LINE
  5
286
330
1F
100
AcDbEntity
  8
keys
  6
Continuous
370
    15
100
AcDbLine
 10
-36.9
 20
-29.0
 30
0.0
 11
-36.9
 21
-20.0
 31
0.0
  0
LINE
  5
287
330
1F
100
AcDbEntity
  8
keys
  6
Continuous
370
    15
100
AcDbLine
 10
-39.9
 20
39.0
 30
0.0
 11
-46.6
 21
39.0
 31
0.0
  0
LINE
  5
288
102
{ACAD_REACTORS
102
}
330
1F
100
AcDbEntity
  8
keys
  6
Continuous
370
    15
100
AcDbLine
 10
-49.6
 20
36.0
 30
0.0
 11
-49.6
 21
28.0
 31
0.0
  0
LINE
  5
289
330
1F
100
AcDbEntity
  8
keys
  6
Continuous
370
    15
100
AcDbLine
 10
-46.6
 20
25.0
 30
0.0
 11
-39.9
 21
25.0
 31
0.0
  0
LINE
  5
28A
330
1F
100
AcDbEntity
  8
keys
  6
Continuous
370
    15
100
AcDbLine
 10
-28.9
 20
25.0
 30
0.0
 11
-22.2
 21
25.0
 31
0.0
  0
LINE
  5
28B
102
{ACAD_REACTORS
102
}
330
1F
100
AcDbEntity
  8
keys
  6
Continuous
370
    15
100
AcDbLine
 10
-19.2
 20
28.0
 30
0.0
 11
-19.2
 21
36.0
 31
0.0
  0
LINE
  5
28C
330
1F
100
AcDbEntity
  8
keys
  6
Continuous
370
    15
100
AcDbLine
 10
-22.2
 20
39.0
 30
0.0
 11
-28.9
 21
39.0
 31
0.0
  0
LINE
  5
28D
330
1F
100
AcDbEntity
  8
keys
  6
Continuous
370
    15
100
AcDbLine
 10
-22.2
 20
21.0
 30
0.0
 11
-28.9
 21
21.0
 31
0.0
  0
LINE
  5
28E
330
1F
100
AcDbEntity
  8
keys
  6
Continuous
370
    15
100
AcDbLine
 10
-31.9
 20
18.0
 30
0.0
 11
-31.9
 21
9.0
 31
0.0
  0
LINE
  5
28F
330
1F
100
AcDbEntity
  8
keys
  6
Continuous
370
    15
100
AcDbLine
 10
-28.9
 20
6.0
 30
0.0
 11
-22.2
 21
6.0
 31
0.0
  0
LINE
  5
290
330
1F
100
AcDbEntity
  8
keys
  6
Continuous
370
    15
100
AcDbLine
 10
-19.2
 20
9.0
 30
0.0
 11
-19.2
 21
18.0
 31
0.0
  0
LINE
  5
291
330
1F
100
AcDbEntity
  8
keys
  6
Continuous
370
    15
100
AcDbLine
 10
-22.2
 20
2.0
 30
0.0
 11
-28.9
 21
2.0
 31
0.0
  0
LINE
  5
292
330
1F
100
AcDbEntity
  8
keys
  6
Continuous
370
    15
100
AcDbLine
 10
-31.9
 20
-1.0
 30
0.0
 11
-31.9
 21
-10.0
 31
0.0
  0
LINE
  5
293
330
1F
100
AcDbEntity
  8
keys
  6
Continuous
370
    15
100
AcDbLine
 10
-28.9
 20
-13.0
 30
0.0
 11
-22.2
 21
-13.0
 31
0.0
  0
LINE
  5
294
330
1F
100
AcDbEntity
  8
keys
  6
Continuous
370
    15
100
AcDbLine
 10
-19.2
 20
-10.0
 30
0.0
 11
-19.2
 21
-1.0
 31
0.0
  0
LINE
  5
295
330
1F
100
AcDbEntity
  8
keys
  6
Continuous
370
    15
100
AcDbLine
 10
-22.2
 20
-17.0
 30
0.0
 11
-28.9
 21
-17.0
 31
0.0
  0
LINE
  5
296
330
1F
100
AcDbEntity
  8
keys
  6
Continuous
370
    15
100
AcDbLine
 10
-31.9
 20
-20.0
 30
0.0
 11
-31.9
 21
-29.0
 31
0.0
  0
LINE
  5
297
330
1F
100
AcDbEntity
  8
keys
  6
Continuous
370
    15
100
AcDbLine
 10
-28.9
 20
-32.0
 30
0.0
 11
-22.2
 21
-32.0
 31
0.0
  0
LINE
  5
298
330
1F
100
AcDbEntity
  8
keys
  6
Continuous
370
    15
100
AcDbLine
 10
-19.2
 20
-29.0
 30
0.0
 11
-19.2
 21
-20.0
 31
0.0
  0
LINE
  5
299
330
1F
100
AcDbEntity
  8
keys
  6
Continuous
370
    15
100
AcDbLine
 10
-39.9
 20
-36.0
 30
0.0
 11
-46.6
 21
-36.0
 31
0.0
  0
LINE
  5
29A
330
1F
100
AcDbEntity
  8
keys
  6
Continuous
370
    15
100
AcDbLine
 10
-49.6
 20
-39.0
 30
0.0
 11
-49.6
 21
-48.0
 31
0.0
  0
LINE
  5
29B
330
1F
100
AcDbEntity
  8
keys
  6
Continuous
370
    15
100
AcDbLine
 10
-46.6
 20
-51.0
 30
0.0
 11
-39.9
 21
-51.0
 31
0.0
  0
LINE
  5
29C
330
1F
100
AcDbEntity
  8
keys
  6
Continuous
370
    15
100
AcDbLine
 10
-28.9
 20
-51.0
 30
0.0
 11
-22.2
 21
-51.0
 31
0.0
  0
LINE
  5
29D
330
1F
100
AcDbEntity
  8
keys
  6
Continuous
370
    15
100
AcDbLine
 10
-19.2
 20
-48.0
 30
0.0
 11
-19.2
 21
-39.0
 31
0.0
  0
LINE
  5
29E
330
1F
100
AcDbEntity
  8
keys
  6
Continuous
370
    15
100
AcDbLine
 10
-22.2
 20
-36.0
 30
0.0
 11
-28.9
 21
-36.0
 31
0.0
  0
LINE
  5
29F
330
1F
100
AcDbEntity
  8
keys
  6
Continuous
370
    15
100
AcDbLine
 10
-5.5
 20
21.0
 30
0.0
 11
-12.2
 21
21.0
 31
0.0
  0
LINE
  5
2A0
330
1F
100
AcDbEntity
  8
keys
  6
Continuous
370
    15
100
AcDbLine
 10
-15.2
 20
18.0
 30
0.0
 11
-15.2
 21
9.0
 31
0.0
  0
LINE
  5
2A1
330
1F
100
AcDbEntity
  8
keys
  6
Continuous
370
    15
100
AcDbLine
 10
-12.2
 20
6.0
 30
0.0
 11
-5.5
 21
6.0
 31
0.0
  0
LINE
  5
2A2
330
1F
100
AcDbEntity
  8
keys
  6
Continuous
370
    15
100
AcDbLine
 10
-2.5
 20
9.0
 30
0.0
 11
-2.5
 21
18.0
 31
0.0
  0
LINE
  5
2A3
330
1F
100
AcDbEntity
  8
keys
  6
Continuous
370
    15
100
AcDbLine
 10
-5.5
 20
2.0
 30
0.0
 11
-12.2
 21
2.0
 31
0.0
  0
LINE
  5
2A4
330
1F
100
AcDbEntity
  8
keys
  6
Continuous
370
    15
100
AcDbLine
 10
-15.2
 20
-1.0
 30
0.0
 11
-15.2
 21
-10.0
 31
0.0
  0
LINE
  5
2A5
330
1F
100
AcDbEntity
  8
keys
  6
Continuous
370
    15
100
AcDbLine
 10
-12.2
 20
-13.0
 30
0.0
 11
-5.5
 21
-13.0
 31
0.0
  0
LINE
  5
2A6
330
1F
100
AcDbEntity
  8
keys
  6
Continuous
370
    15
100
AcDbLine
 10
-2.5
 20
-10.0
 30
0.0
 11
-2.5
 21
-1.0
 31
0.0
  0
LINE
  5
2A7
330
1F
100
AcDbEntity
  8
keys
  6
Continuous
370
    15
100
AcDbLine
 10
-5.5
 20
-17.0
 30
0.0
 11
-12.2
 21
-17.0
 31
0.0
  0
LINE
  5
2A8
330
1F
100
AcDbEntity
  8
keys
  6
Continuous
370
    15
100
AcDbLine
 10
-15.2
 20
-20.0
 30
0.0
 11
-15.2
 21
-29.0
 31
0.0
  0
LINE
  5
2A9
330
1F
100
AcDbEntity
  8
keys
  6
Continuous
370
    15
100
AcDbLine
 10
-12.2
 20
-32.0
 30
0.0
 11
-5.5
 21
-32.0
 31
0.0
  0
LINE
  5
2AA
330
1F
100
AcDbEntity
  8
keys
  6
Continuous
370
    15
100
AcDbLine
 10
-2.5
 20
-29.0
 30
0.0
 11
-2.5
 21
-20.0
 31
0.0
  0
LINE
  5
2AB
102
{ACAD_REACTORS
102
}
330
1F
100
AcDbEntity
  8
keys
  6
Continuous
370
    15
100
AcDbLine
 10
86.0
 20
45.0
 30
0.0
 11
86.0
 21
53.0
 31
0.0
  0
LINE
  5
2AC
330
1F
100
AcDbEntity
  8
keys
  6
Continuous
370
    15
100
AcDbLine
 10
83.0
 20
56.0
 30
0.0
 11
-83.0
 21
56.0
 31
0.0
  0
LINE
  5
2AD
330
1F
100
AcDbEntity
  8
keys
  6
Continuous
370
    15
100
AcDbLine
 10
-86.0
 20
53.0
 30
0.0
 11
-86.0
 21
45.0
 31
0.0
  0
LINE
  5
2AE
330
1F
100
AcDbEntity
  8
keys
  6
Continuous
370
    15
100
AcDbLine
 10
-83.0
 20
42.0
 30
0.0
 11
83.0
 21
42.0
 31
0.0
  0
LINE
  5
2AF
330
1F
100
AcDbEntity
  8
edge-profile
  6
Continuous
370
    15
100
AcDbLine
 10
-99.5
 20
48.5
 30
0.0
 11
-99.5
 21
-48.5
 31
0.0
  0
LINE
  5
2B0
330
1F
100
AcDbEntity
  8
edge-profile
  6
Continuous
370
    15
100
AcDbLine
 10
90.5
 20
57.5
 30
0.0
 11
-90.5
 21
57.5
 31
0.0
  0
LINE
  5
2B1
330
1F
100
AcDbEntity
  8
edge-profile
  6
Continuous
370
    15
100
AcDbLine
 10
99.5
 20
-48.5
 30
0.0
 11
99.5
 21
-36.0
 31
0.0
  0
LINE
  5
2B2
330
1F
100
AcDbEntity
  8
edge-profile
  6
Continuous
370
    15
100
AcDbLine
 10
-90.5
 20
-57.5
 30
0.0
 11
90.5
 21
-57.5
 31
0.0
  0
LINE
  5
2B3
330
1F
100
AcDbEntity
  8
keys
  6
Continuous
370
    15
100
AcDbLine
 10
12.2
 20
-32.0
 30
0.0
 11
5.5
 21
-32.0
 31
0.0
  0
LINE
  5
2B4
330
1F
100
AcDbEntity
  8
keys
  6
Continuous
370
    15
100
AcDbLine
 10
15.2
 20
-20.0
 30
0.0
 11
15.2
 21
-29.0
 31
0.0
  0
LINE
  5
2B5
330
1F
100
AcDbEntity
  8
keys
  6
Continuous
370
    15
100
AcDbLine
 10
5.5
 20
-17.0
 30
0.0
 11
12.2
 21
-17.0
 31
0.0
  0
LINE
  5
2B6
330
1F
100
AcDbEntity
  8
keys
  6
Continuous
370
    15
100
AcDbLine
 10
2.5
 20
-29.0
 30
0.0
 11
2.5
 21
-20.0
 31
0.0
  0
LINE
  5
2B7
330
1F
100
AcDbEntity
  8
keys
  6
Continuous
370
    15
100
AcDbLine
 10
12.2
 20
6.0
 30
0.0
 11
5.5
 21
6.0
 31
0.0
  0
LINE
  5
2B8
330
1F
100
AcDbEntity
  8
keys
  6
Continuous
370
    15
100
AcDbLine
 10
15.2
 20
18.0
 30
0.0
 11
15.2
 21
9.0
 31
0.0
  0
LINE
  5
2B9
330
1F
100
AcDbEntity
  8
keys
  6
Continuous
370
    15
100
AcDbLine
 10
5.5
 20
21.0
 30
0.0
 11
12.2
 21
21.0
 31
0.0
  0
LINE
  5
2BA
330
1F
100
AcDbEntity
  8
keys
  6
Continuous
370
    15
100
AcDbLine
 10
2.5
 20
9.0
 30
0.0
 11
2.5
 21
18.0
 31
0.0
  0
LINE
  5
2BB
330
1F
100
AcDbEntity
  8
keys
  6
Continuous
370
    15
100
AcDbLine
 10
28.9
 20
-13.0
 30
0.0
 11
22.2
 21
-13.0
 31
0.0
  0
LINE
  5
2BC
330
1F
100
AcDbEntity
  8
keys
  6
Continuous
370
    15
100
AcDbLine
 10
31.9
 20
-1.0
 30
0.0
 11
31.9
 21
-10.0
 31
0.0
  0
LINE
  5
2BD
330
1F
100
AcDbEntity
  8
keys
  6
Continuous
370
    15
100
AcDbLine
 10
22.2
 20
2.0
 30
0.0
 11
28.9
 21
2.0
 31
0.0
  0
LINE
  5
2BE
330
1F
100
AcDbEntity
  8
keys
  6
Continuous
370
    15
100
AcDbLine
 10
19.2
 20
-10.0
 30
0.0
 11
19.2
 21
-1.0
 31
0.0
  0
LINE
  5
2BF
330
1F
100
AcDbEntity
  8
keys
  6
Continuous
370
    15
100
AcDbLine
 10
46.6
 20
-32.0
 30
0.0
 11
39.9
 21
-32.0
 31
0.0
  0
LINE
  5
2C0
330
1F
100
AcDbEntity
  8
keys
  6
Continuous
370
    15
100
AcDbLine
 10
49.6
 20
-20.0
 30
0.0
 11
49.6
 21
-29.0
 31
0.0
  0
LINE
  5
2C1
330
1F
100
AcDbEntity
  8
keys
  6
Continuous
370
    15
100
AcDbLine
 10
39.9
 20
-17.0
 30
0.0
 11
46.6
 21
-17.0
 31
0.0
  0
LINE
  5
2C2
330
1F
100
AcDbEntity
  8
keys
  6
Continuous
370
    15
100
AcDbLine
 10
36.9
 20
-29.0
 30
0.0
 11
36.9
 21
-20.0
 31
0.0
  0
LINE
  5
2C3
330
1F
100
AcDbEntity
  8
keys
  6
Continuous
370
    15
100
AcDbLine
 10
46.6
 20
6.0
 30
0.0
 11
39.9
 21
6.0
 31
0.0
  0
LINE
  5
2C4
330
1F
100
AcDbEntity
  8
keys
  6
Continuous
370
    15
100
AcDbLine
 10
49.6
 20
18.0
 30
0.0
 11
49.6
 21
9.0
 31
0.0
  0
LINE
  5
2C5
330
1F
100
AcDbEntity
  8
keys
  6
Continuous
370
    15
100
AcDbLine
 10
39.9
 20
21.0
 30
0.0
 11
46.6
 21
21.0
 31
0.0
  0
LINE
  5
2C6
330
1F
100
AcDbEntity
  8
keys
  6
Continuous
370
    15
100
AcDbLine
 10
36.9
 20
9.0
 30
0.0
 11
36.9
 21
18.0
 31
0.0
  0
LINE
  5
2C7
330
1F
100
AcDbEntity
  8
keys
  6
Continuous
370
    15
100
AcDbLine
 10
63.3
 20
-13.0
 30
0.0
 11
56.6
 21
-13.0
 31
0.0
  0
LINE
  5
2C8
330
1F
100
AcDbEntity
  8
keys
  6
Continuous
370
    15
100
AcDbLine
 10
66.3
 20
-1.0
 30
0.0
 11
66.3
 21
-10.0
 31
0.0
  0
LINE
  5
2C9
330
1F
100
AcDbEntity
  8
keys
  6
Continuous
370
    15
100
AcDbLine
 10
56.6
 20
2.0
 30
0.0
 11
63.3
 21
2.0
 31
0.0
  0
LINE
  5
2CA
330
1F
100
AcDbEntity
  8
keys
  6
Continuous
370
    15
100
AcDbLine
 10
53.6
 20
-10.0
 30
0.0
 11
53.6
 21
-1.0
 31
0.0
  0
LINE
  5
2CB
330
1F
100
AcDbEntity
  8
keys
  6
Continuous
370
    15
100
AcDbLine
 10
81.0
 20
-32.0
 30
0.0
 11
74.3
 21
-32.0
 31
0.0
  0
LINE
  5
2CC
330
1F
100
AcDbEntity
  8
keys
  6
Continuous
370
    15
100
AcDbLine
 10
84.0
 20
-20.0
 30
0.0
 11
84.0
 21
-29.0
 31
0.0
  0
LINE
  5
2CD
330
1F
100
AcDbEntity
  8
keys
  6
Continuous
370
    15
100
AcDbLine
 10
74.3
 20
-17.0
 30
0.0
 11
81.0
 21
-17.0
 31
0.0
  0
LINE
  5
2CE
330
1F
100
AcDbEntity
  8
keys
  6
Continuous
370
    15
100
AcDbLine
 10
71.3
 20
-29.0
 30
0.0
 11
71.3
 21
-20.0
 31
0.0
  0
LINE
  5
2CF
330
1F
100
AcDbEntity
  8
keys
  6
Continuous
370
    15
100
AcDbLine
 10
81.0
 20
6.0
 30
0.0
 11
74.3
 21
6.0
 31
0.0
  0
LINE
  5
2D0
330
1F
100
AcDbEntity
  8
keys
  6
Continuous
370
    15
100
AcDbLine
 10
84.0
 20
18.0
 30
0.0
 11
84.0
 21
9.0
 31
0.0
  0
LINE
  5
2D1
330
1F
100
AcDbEntity
  8
keys
  6
Continuous
370
    15
100
AcDbLine
 10
74.3
 20
21.0
 30
0.0
 11
81.0
 21
21.0
 31
0.0
  0
LINE
  5
2D2
330
1F
100
AcDbEntity
  8
keys
  6
Continuous
370
    15
100
AcDbLine
 10
71.3
 20
9.0
 30
0.0
 11
71.3
 21
18.0
 31
0.0
  0
LINE
  5
2D3
330
1F
100
AcDbEntity
  8
outside
  6
Continuous
370
    15
100
AcDbLine
 10
-104.0
 20
48.5
 30
0.0
 11
-104.0
 21
-48.5
 31
0.0
  0
LINE
  5
2D4
330
1F
100
AcDbEntity
  8
outside
  6
Continuous
370
    15
100
AcDbLine
 10
90.5
 20
62.0
 30
0.0
 11
-90.5
 21
62.0
 31
0.0
  0
LINE
  5
2D5
330
1F
100
AcDbEntity
  8
outside
  6
Continuous
370
    15
100
AcDbLine
 10
104.0
 20
-48.5
 30
0.0
 11
104.0
 21
-36.0
 31
0.0
  0
LINE
  5
2D6
330
1F
100
AcDbEntity
  8
outside
  6
Continuous
370
    15
100
AcDbLine
 10
-90.5
 20
-62.0
 30
0.0
 11
90.5
 21
-62.0
 31
0.0
  0
ARC
  5
2D7
330
1F
100
AcDbEntity
  8
keys
  6
Continuous
370
    15
100
AcDbCircle
 10
56.6
 20
36.0
 30
0.0
 40
3.000000000000036
100
AcDbArc
 50
90.0
 51
180.0
  0
ARC
  5
2D8
330
1F
100
AcDbEntity
  8
keys
  6
Continuous
370
    15
100
AcDbCircle
 10
56.6
 20
28.0
 30
0.0
 40
2.999999999999993
100
AcDbArc
 50
180.0
 51
270.0
  0
ARC
  5
2D9
330
1F
100
AcDbEntity
  8
keys
  6
Continuous
370
    15
100
AcDbCircle
 10
63.3
 20
28.0
 30
0.0
 40
2.999999999999927
100
AcDbArc
 50
270.0
 51
334.9423845816999
  0
ARC
  5
2DA
330
1F
100
AcDbEntity
  8
keys
  6
Continuous
370
    15
100
AcDbCircle
 10
68.8
 20
25.4285714286
 30
0.0
 40
3.071428571428545
100
AcDbArc
 50
25.05761541830003
 51
154.9423845817
  0
ARC
  5
2DB
330
1F
100
AcDbEntity
  8
keys
  6
Continuous
370
    15
100
AcDbCircle
 10
81.0
 20
28.0
 30
0.0
 40
2.999999999999975
100
AcDbArc
 50
270.0
 51
0.0
  0
ARC
  5
2DC
330
1F
100
AcDbEntity
  8
keys
  6
Continuous
370
    15
100
AcDbCircle
 10
81.0
 20
36.0
 30
0.0
 40
3.0
100
AcDbArc
 50
0.0
 51
90.0
  0
ARC
  5
2DD
330
1F
100
AcDbEntity
  8
keys
  6
Continuous
370
    15
100
AcDbCircle
 10
74.3
 20
36.0
 30
0.0
 40
3.000000000000115
100
AcDbArc
 50
90.0
 51
154.9423845817001
  0
ARC
  5
2DE
330
1F
100
AcDbEntity
  8
keys
  6
Continuous
370
    15
100
AcDbCircle
 10
68.8
 20
38.5714285714
 30
0.0
 40
3.071428571428587
100
AcDbArc
 50
205.0576154183
 51
334.9423845817
  0
ARC
  5
2DF
330
1F
100
AcDbEntity
  8
keys
  6
Continuous
370
    15
100
AcDbCircle
 10
81.0
 20
-10.0
 30
0.0
 40
2.999999999999977
100
AcDbArc
 50
270.0
 51
0.0
  0
ARC
  5
2E0
330
1F
100
AcDbEntity
  8
keys
  6
Continuous
370
    15
100
AcDbCircle
 10
81.0
 20
-1.0
 30
0.0
 40
3.0
100
AcDbArc
 50
0.0
 51
90.0
  0
ARC
  5
2E1
330
1F
100
AcDbEntity
  8
keys
  6
Continuous
370
    15
100
AcDbCircle
 10
74.3
 20
-1.0
 30
0.0
 40
3.000000000000014
100
AcDbArc
 50
90.0
 51
180.0
  0
ARC
  5
2E2
330
1F
100
AcDbEntity
  8
keys
  6
Continuous
370
    15
100
AcDbCircle
 10
74.3
 20
-10.0
 30
0.0
 40
3.000000000000014
100
AcDbArc
 50
180.0
 51
270.0
  0
ARC
  5
2E3
330
1F
100
AcDbEntity
  8
keys
  6
Continuous
370
    15
100
AcDbCircle
 10
56.6
 20
-39.0
 30
0.0
 40
3.000000000000036
100
AcDbArc
 50
90.0
 51
180.0
  0
ARC
  5
2E4
330
1F
100
AcDbEntity
  8
keys
  6
Continuous
370
    15
100
AcDbCircle
 10
56.6
 20
-48.0
 30
0.0
 40
3.000000000000007
100
AcDbArc
 50
180.0
 51
270.0
  0
ARC
  5
2E5
330
1F
100
AcDbEntity
  8
keys
  6
Continuous
370
    15
100
AcDbCircle
 10
63.3
 20
-48.0
 30
0.0
 40
2.999999999999936
100
AcDbArc
 50
270.0
 51
334.9423845817
  0
ARC
  5
2E6
330
1F
100
AcDbEntity
  8
keys
  6
Continuous
370
    15
100
AcDbCircle
 10
68.8
 20
-50.5714285714
 30
0.0
 40
3.07142857142855
100
AcDbArc
 50
25.05761541829998
 51
154.9423845817001
  0
ARC
  5
2E7
330
1F
100
AcDbEntity
  8
keys
  6
Continuous
370
    15
100
AcDbCircle
 10
81.0
 20
-48.0
 30
0.0
 40
2.999999999999972
100
AcDbArc
 50
270.0
 51
0.0
  0
ARC
  5
2E8
330
1F
100
AcDbEntity
  8
keys
  6
Continuous
370
    15
100
AcDbCircle
 10
81.0
 20
-39.0
 30
0.0
 40
3.0
100
AcDbArc
 50
0.0
 51
90.0
  0
ARC
  5
2E9
330
1F
100
AcDbEntity
  8
keys
  6
Continuous
370
    15
100
AcDbCircle
 10
74.3
 20
-39.0
 30
0.0
 40
3.000000000000115
100
AcDbArc
 50
90.0
 51
154.9423845817001
  0
ARC
  5
2EA
330
1F
100
AcDbEntity
  8
keys
  6
Continuous
370
    15
100
AcDbCircle
 10
68.8
 20
-36.4285714286
 30
0.0
 40
3.071428571428587
100
AcDbArc
 50
205.0576154183
 51
334.9423845817
  0
ARC
  5
2EB
330
1F
100
AcDbEntity
  8
keys
  6
Continuous
370
    15
100
AcDbCircle
 10
63.3
 20
9.0
 30
0.0
 40
2.999999999999986
100
AcDbArc
 50
270.0
 51
0.0
  0
ARC
  5
2EC
330
1F
100
AcDbEntity
  8
keys
  6
Continuous
370
    15
100
AcDbCircle
 10
63.3
 20
18.0
 30
0.0
 40
2.999999999999986
100
AcDbArc
 50
0.0
 51
90.0
  0
ARC
  5
2ED
330
1F
100
AcDbEntity
  8
keys
  6
Continuous
370
    15
100
AcDbCircle
 10
56.6
 20
18.0
 30
0.0
 40
3.000000000000021
100
AcDbArc
 50
90.0
 51
180.0
  0
ARC
  5
2EE
330
1F
100
AcDbEntity
  8
keys
  6
Continuous
370
    15
100
AcDbCircle
 10
56.6
 20
9.0
 30
0.0
 40
2.999999999999993
100
AcDbArc
 50
180.0
 51
270.0
  0
ARC
  5
2EF
330
1F
100
AcDbEntity
  8
keys
  6
Continuous
370
    15
100
AcDbCircle
 10
63.3
 20
-29.0
 30
0.0
 40
2.999999999999972
100
AcDbArc
 50
270.0
 51
0.0
  0
ARC
  5
2F0
330
1F
100
AcDbEntity
  8
keys
  6
Continuous
370
    15
100
AcDbCircle
 10
63.3
 20
-20.0
 30
0.0
 40
2.999999999999986
100
AcDbArc
 50
0.0
 51
90.0
  0
ARC
  5
2F1
330
1F
100
AcDbEntity
  8
keys
  6
Continuous
370
    15
100
AcDbCircle
 10
56.6
 20
-20.0
 30
0.0
 40
3.000000000000021
100
AcDbArc
 50
90.0
 51
180.0
  0
ARC
  5
2F2
330
1F
100
AcDbEntity
  8
keys
  6
Continuous
370
    15
100
AcDbCircle
 10
56.6
 20
-29.0
 30
0.0
 40
2.999999999999986
100
AcDbArc
 50
180.0
 51
270.0
  0
ARC
  5
2F3
330
1F
100
AcDbEntity
  8
keys
  6
Continuous
370
    15
100
AcDbCircle
 10
22.2
 20
36.0
 30
0.0
 40
3.000000000000007
100
AcDbArc
 50
90.0
 51
180.0
  0
ARC
  5
2F4
330
1F
100
AcDbEntity
  8
keys
  6
Continuous
370
    15
100
AcDbCircle
 10
22.2
 20
28.0
 30
0.0
 40
2.999999999999989
100
AcDbArc
 50
180.0
 51
270.0
  0
ARC
  5
2F5
330
1F
100
AcDbEntity
  8
keys
  6
Continuous
370
    15
100
AcDbCircle
 10
28.9
 20
28.0
 30
0.0
 40
2.999999999999933
100
AcDbArc
 50
270.0
 51
334.9423845817
  0
ARC
  5
2F6
330
1F
100
AcDbEntity
  8
keys
  6
Continuous
370
    15
100
AcDbCircle
 10
34.4
 20
25.4285714286
 30
0.0
 40
3.071428571428555
100
AcDbArc
 50
25.05761541829998
 51
154.9423845817
  0
ARC
  5
2F7
330
1F
100
AcDbEntity
  8
keys
  6
Continuous
370
    15
100
AcDbCircle
 10
46.6
 20
28.0
 30
0.0
 40
3.000000000000021
100
AcDbArc
 50
270.0
 51
0.0
  0
ARC
  5
2F8
330
1F
100
AcDbEntity
  8
keys
  6
Continuous
370
    15
100
AcDbCircle
 10
46.6
 20
36.0
 30
0.0
 40
3.0
100
AcDbArc
 50
0.0
 51
90.0
  0
ARC
  5
2F9
330
1F
100
AcDbEntity
  8
keys
  6
Continuous
370
    15
100
AcDbCircle
 10
39.9
 20
36.0
 30
0.0
 40
3.000000000000058
100
AcDbArc
 50
90.0
 51
154.9423845817
  0
ARC
  5
2FA
330
1F
100
AcDbEntity
  8
keys
  6
Continuous
370
    15
100
AcDbCircle
 10
34.4
 20
38.5714285714
 30
0.0
 40
3.071428571428582
100
AcDbArc
 50
205.0576154183
 51
334.9423845816999
  0
ARC
  5
2FB
330
1F
100
AcDbEntity
  8
keys
  6
Continuous
370
    15
100
AcDbCircle
 10
46.6
 20
-10.0
 30
0.0
 40
3.000000000000021
100
AcDbArc
 50
270.0
 51
0.0
  0
ARC
  5
2FC
330
1F
100
AcDbEntity
  8
keys
  6
Continuous
370
    15
100
AcDbCircle
 10
46.6
 20
-1.0
 30
0.0
 40
3.0
100
AcDbArc
 50
0.0
 51
90.0
  0
ARC
  5
2FD
330
1F
100
AcDbEntity
  8
keys
  6
Continuous
370
    15
100
AcDbCircle
 10
39.9
 20
-1.0
 30
0.0
 40
3.0
100
AcDbArc
 50
90.0
 51
180.0
  0
ARC
  5
2FE
330
1F
100
AcDbEntity
  8
keys
  6
Continuous
370
    15
100
AcDbCircle
 10
39.9
 20
-10.0
 30
0.0
 40
2.99999999999998
100
AcDbArc
 50
180.0
 51
270.0
  0
ARC
  5
2FF
330
1F
100
AcDbEntity
  8
keys
  6
Continuous
370
    15
100
AcDbCircle
 10
22.2
 20
-39.0
 30
0.0
 40
3.000000000000007
100
AcDbArc
 50
90.0
 51
180.0
  0
ARC
  5
300
330
1F
100
AcDbEntity
  8
keys
  6
Continuous
370
    15
100
AcDbCircle
 10
22.2
 20
-48.0
 30
0.0
 40
3.0
100
AcDbArc
 50
180.0
 51
270.0
  0
ARC
  5
301
330
1F
100
AcDbEntity
  8
keys
  6
Continuous
370
    15
100
AcDbCircle
 10
28.9
 20
-48.0
 30
0.0
 40
2.999999999999944
100
AcDbArc
 50
270.0
 51
334.9423845817
  0
ARC
  5
302
330
1F
100
AcDbEntity
  8
keys
  6
Continuous
370
    15
100
AcDbCircle
 10
34.4
 20
-50.5714285714
 30
0.0
 40
3.07142857142855
100
AcDbArc
 50
25.05761541830003
 51
154.9423845817
  0
ARC
  5
303
330
1F
100
AcDbEntity
  8
keys
  6
Continuous
370
    15
100
AcDbCircle
 10
46.6
 20
-48.0
 30
0.0
 40
3.000000000000028
100
AcDbArc
 50
270.0
 51
0.0
  0
ARC
  5
304
330
1F
100
AcDbEntity
  8
keys
  6
Continuous
370
    15
100
AcDbCircle
 10
46.6
 20
-39.0
 30
0.0
 40
3.0
100
AcDbArc
 50
0.0
 51
90.0
  0
ARC
  5
305
330
1F
100
AcDbEntity
  8
keys
  6
Continuous
370
    15
100
AcDbCircle
 10
39.9
 20
-39.0
 30
0.0
 40
3.000000000000058
100
AcDbArc
 50
90.0
 51
154.9423845817
  0
ARC
  5
306
330
1F
100
AcDbEntity
  8
keys
  6
Continuous
370
    15
100
AcDbCircle
 10
34.4
 20
-36.4285714286
 30
0.0
 40
3.071428571428582
100
AcDbArc
 50
205.0576154183
 51
334.9423845816999
  0
ARC
  5
307
330
1F
100
AcDbEntity
  8
keys
  6
Continuous
370
    15
100
AcDbCircle
 10
28.9
 20
9.0
 30
0.0
 40
3.000000000000009
100
AcDbArc
 50
270.0
 51
0.0
  0
ARC
  5
308
330
1F
100
AcDbEntity
  8
keys
  6
Continuous
370
    15
100
AcDbCircle
 10
28.9
 20
18.0
 30
0.0
 40
3.0
100
AcDbArc
 50
0.0
 51
90.0
  0
ARC
  5
309
330
1F
100
AcDbEntity
  8
keys
  6
Continuous
370
    15
100
AcDbCircle
 10
22.2
 20
18.0
 30
0.0
 40
3.0
100
AcDbArc
 50
90.0
 51
180.0
  0
ARC
  5
30A
330
1F
100
AcDbEntity
  8
keys
  6
Continuous
370
    15
100
AcDbCircle
 10
22.2
 20
9.0
 30
0.0
 40
2.999999999999993
100
AcDbArc
 50
180.0
 51
270.0
  0
ARC
  5
30B
330
1F
100
AcDbEntity
  8
keys
  6
Continuous
370
    15
100
AcDbCircle
 10
28.9
 20
-29.0
 30
0.0
 40
2.999999999999993
100
AcDbArc
 50
270.0
 51
0.0
  0
ARC
  5
30C
330
1F
100
AcDbEntity
  8
keys
  6
Continuous
370
    15
100
AcDbCircle
 10
28.9
 20
-20.0
 30
0.0
 40
2.999999999999996
100
AcDbArc
 50
0.0
 51
90.0
  0
ARC
  5
30D
330
1F
100
AcDbEntity
  8
keys
  6
Continuous
370
    15
100
AcDbCircle
 10
22.2
 20
-20.0
 30
0.0
 40
3.000000000000007
100
AcDbArc
 50
90.0
 51
180.0
  0
ARC
  5
30E
330
1F
100
AcDbEntity
  8
keys
  6
Continuous
370
    15
100
AcDbCircle
 10
22.2
 20
-29.0
 30
0.0
 40
2.999999999999986
100
AcDbArc
 50
180.0
 51
270.0
  0
ARC
  5
30F
330
1F
100
AcDbEntity
  8
keys
  6
Continuous
370
    15
100
AcDbCircle
 10
-12.2
 20
36.0
 30
0.0
 40
3.000000000000007
100
AcDbArc
 50
90.0
 51
180.0
  0
ARC
  5
310
330
1F
100
AcDbEntity
  8
keys
  6
Continuous
370
    15
100
AcDbCircle
 10
-12.2
 20
28.0
 30
0.0
 40
3.000000000000004
100
AcDbArc
 50
180.0
 51
270.0
  0
ARC
  5
311
330
1F
100
AcDbEntity
  8
keys
  6
Continuous
370
    15
100
AcDbCircle
 10
0.0
 20
25.4285714286
 30
0.0
 40
3.071428571428547
100
AcDbArc
 50
25.0576154183
 51
154.9423845817
  0
ARC
  5
312
330
1F
100
AcDbEntity
  8
keys
  6
Continuous
370
    15
100
AcDbCircle
 10
12.2
 20
28.0
 30
0.0
 40
3.000000000000004
100
AcDbArc
 50
270.0
 51
0.0
  0
ARC
  5
313
330
1F
100
AcDbEntity
  8
keys
  6
Continuous
370
    15
100
AcDbCircle
 10
12.2
 20
36.0
 30
0.0
 40
3.000000000000002
100
AcDbArc
 50
0.0
 51
90.0
  0
ARC
  5
314
330
1F
100
AcDbEntity
  8
keys
  6
Continuous
370
    15
100
AcDbCircle
 10
5.5
 20
36.0
 30
0.0
 40
3.000000000000073
100
AcDbArc
 50
90.0
 51
154.9423845817
  0
ARC
  5
315
330
1F
100
AcDbEntity
  8
keys
  6
Continuous
370
    15
100
AcDbCircle
 10
0.0
 20
38.5714285714
 30
0.0
 40
3.071428571428575
100
AcDbArc
 50
205.0576154183
 51
334.9423845817
  0
ARC
  5
316
330
1F
100
AcDbEntity
  8
keys
  6
Continuous
370
    15
100
AcDbCircle
 10
-5.5
 20
36.0
 30
0.0
 40
3.000000000000028
100
AcDbArc
 50
25.05761541829999
 51
90.0
  0
ARC
  5
317
330
1F
100
AcDbEntity
  8
keys
  6
Continuous
370
    15
100
AcDbCircle
 10
12.2
 20
-10.0
 30
0.0
 40
3.000000000000005
100
AcDbArc
 50
270.0
 51
0.0
  0
ARC
  5
318
330
1F
100
AcDbEntity
  8
keys
  6
Continuous
370
    15
100
AcDbCircle
 10
12.2
 20
-1.0
 30
0.0
 40
2.999999999999996
100
AcDbArc
 50
0.0
 51
90.0
  0
ARC
  5
319
330
1F
100
AcDbEntity
  8
keys
  6
Continuous
370
    15
100
AcDbCircle
 10
5.5
 20
-1.0
 30
0.0
 40
3.000000000000004
100
AcDbArc
 50
90.0
 51
180.0
  0
ARC
  5
31A
330
1F
100
AcDbEntity
  8
keys
  6
Continuous
370
    15
100
AcDbCircle
 10
5.5
 20
-10.0
 30
0.0
 40
2.999999999999996
100
AcDbArc
 50
180.0
 51
270.0
  0
ARC
  5
31B
330
1F
100
AcDbEntity
  8
keys
  6
Continuous
370
    15
100
AcDbCircle
 10
-12.2
 20
-39.0
 30
0.0
 40
3.000000000000007
100
AcDbArc
 50
90.0
 51
180.0
  0
ARC
  5
31C
330
1F
100
AcDbEntity
  8
keys
  6
Continuous
370
    15
100
AcDbCircle
 10
-12.2
 20
-48.0
 30
0.0
 40
3.000000000000012
100
AcDbArc
 50
180.0
 51
270.0
  0
ARC
  5
31D
330
1F
100
AcDbEntity
  8
keys
  6
Continuous
370
    15
100
AcDbCircle
 10
0.0
 20
-50.5714285714
 30
0.0
 40
3.071428571428542
100
AcDbArc
 50
25.05761541829997
 51
154.9423845817
  0
ARC
  5
31E
330
1F
100
AcDbEntity
  8
keys
  6
Continuous
370
    15
100
AcDbCircle
 10
12.2
 20
-48.0
 30
0.0
 40
3.000000000000014
100
AcDbArc
 50
270.0
 51
0.0
  0
ARC
  5
31F
330
1F
100
AcDbEntity
  8
keys
  6
Continuous
370
    15
100
AcDbCircle
 10
12.2
 20
-39.0
 30
0.0
 40
3.000000000000002
100
AcDbArc
 50
0.0
 51
90.0
  0
ARC
  5
320
330
1F
100
AcDbEntity
  8
keys
  6
Continuous
370
    15
100
AcDbCircle
 10
5.5
 20
-39.0
 30
0.0
 40
3.000000000000073
100
AcDbArc
 50
90.0
 51
154.9423845817
  0
ARC
  5
321
330
1F
100
AcDbEntity
  8
keys
  6
Continuous
370
    15
100
AcDbCircle
 10
0.0
 20
-36.4285714286
 30
0.0
 40
3.071428571428575
100
AcDbArc
 50
205.0576154183
 51
334.9423845817
  0
ARC
  5
322
330
1F
100
AcDbEntity
  8
keys
  6
Continuous
370
    15
100
AcDbCircle
 10
-5.5
 20
-39.0
 30
0.0
 40
3.000000000000028
100
AcDbArc
 50
25.05761541829999
 51
90.0
  0
ARC
  5
323
330
1F
100
AcDbEntity
  8
keys
  6
Continuous
370
    15
100
AcDbCircle
 10
-74.3
 20
18.0
 30
0.0
 40
2.999999999999986
100
AcDbArc
 50
0.0
 51
90.0
  0
ARC
  5
324
330
1F
100
AcDbEntity
  8
keys
  6
Continuous
370
    15
100
AcDbCircle
 10
-81.0
 20
18.0
 30
0.0
 40
3.000000000000028
100
AcDbArc
 50
90.0
 51
180.0
  0
ARC
  5
325
102
{ACAD_REACTORS
330
BAE
102
}
330
1F
100
AcDbEntity
  8
keys
  6
Continuous
370
    15
100
AcDbCircle
 10
-81.0
 20
9.0
 30
0.0
 40
3.000000000000028
100
AcDbArc
 50
180.0
 51
270.0
  0
ARC
  5
326
330
1F
100
AcDbEntity
  8
keys
  6
Continuous
370
    15
100
AcDbCircle
 10
-74.3
 20
9.0
 30
0.0
 40
2.999999999999986
100
AcDbArc
 50
270.0
 51
0.0
  0
ARC
  5
327
330
1F
100
AcDbEntity
  8
keys
  6
Continuous
370
    15
100
AcDbCircle
 10
-74.3
 20
-1.0
 30
0.0
 40
2.999999999999986
100
AcDbArc
 50
0.0
 51
90.0
  0
ARC
  5
328
102
{ACAD_REACTORS
330
BAE
102
}
330
1F
100
AcDbEntity
  8
keys
  6
Continuous
370
    15
100
AcDbCircle
 10
-81.0
 20
-1.0
 30
0.0
 40
3.000000000000028
100
AcDbArc
 50
90.0
 51
180.0
  0
ARC
  5
329
102
{ACAD_REACTORS
330
B9C
102
}
330
1F
100
AcDbEntity
  8
keys
  6
Continuous
370
    15
100
AcDbCircle
 10
-81.0
 20
-10.0
 30
0.0
 40
3.000000000000028
100
AcDbArc
 50
180.0
 51
270.0
  0
ARC
  5
32A
330
1F
100
AcDbEntity
  8
keys
  6
Continuous
370
    15
100
AcDbCircle
 10
-74.3
 20
-10.0
 30
0.0
 40
2.999999999999984
100
AcDbArc
 50
270.0
 51
0.0
  0
ARC
  5
32B
330
1F
100
AcDbEntity
  8
keys
  6
Continuous
370
    15
100
AcDbCircle
 10
-74.3
 20
-20.0
 30
0.0
 40
2.999999999999986
100
AcDbArc
 50
0.0
 51
90.0
  0
ARC
  5
32C
330
1F
100
AcDbEntity
  8
keys
  6
Continuous
370
    15
100
AcDbCircle
 10
-81.0
 20
-20.0
 30
0.0
 40
3.000000000000028
100
AcDbArc
 50
90.0
 51
180.0
  0
ARC
  5
32D
330
1F
100
AcDbEntity
  8
keys
  6
Continuous
370
    15
100
AcDbCircle
 10
-81.0
 20
-29.0
 30
0.0
 40
3.000000000000014
100
AcDbArc
 50
180.0
 51
270.0
  0
ARC
  5
32E
330
1F
100
AcDbEntity
  8
keys
  6
Continuous
370
    15
100
AcDbCircle
 10
-74.3
 20
-29.0
 30
0.0
 40
2.999999999999972
100
AcDbArc
 50
270.0
 51
0.0
  0
ARC
  5
32F
330
1F
100
AcDbEntity
  8
keys
  6
Continuous
370
    15
100
AcDbCircle
 10
-81.0
 20
36.0
 30
0.0
 40
3.000000000000028
100
AcDbArc
 50
90.0
 51
180.0
  0
ARC
  5
330
102
{ACAD_REACTORS
330
BC0
102
}
330
1F
100
AcDbEntity
  8
keys
  6
Continuous
370
    15
100
AcDbCircle
 10
-81.0
 20
28.0
 30
0.0
 40
3.000000000000014
100
AcDbArc
 50
180.0
 51
270.0
  0
ARC
  5
331
330
1F
100
AcDbEntity
  8
keys
  6
Continuous
370
    15
100
AcDbCircle
 10
-68.8
 20
25.4285714286
 30
0.0
 40
3.071428571428606
100
AcDbArc
 50
25.05761541830001
 51
154.9423845817
  0
ARC
  5
332
330
1F
100
AcDbEntity
  8
keys
  6
Continuous
370
    15
100
AcDbCircle
 10
-63.3
 20
28.0
 30
0.0
 40
3.000000000000006
100
AcDbArc
 50
205.0576154183
 51
270.0
  0
ARC
  5
333
330
1F
100
AcDbEntity
  8
keys
  6
Continuous
370
    15
100
AcDbCircle
 10
-56.6
 20
28.0
 30
0.0
 40
2.999999999999993
100
AcDbArc
 50
270.0
 51
0.0
  0
ARC
  5
334
330
1F
100
AcDbEntity
  8
keys
  6
Continuous
370
    15
100
AcDbCircle
 10
-56.6
 20
36.0
 30
0.0
 40
3.000000000000028
100
AcDbArc
 50
0.0
 51
90.0
  0
ARC
  5
335
330
1F
100
AcDbEntity
  8
keys
  6
Continuous
370
    15
100
AcDbCircle
 10
-68.8
 20
38.5714285714
 30
0.0
 40
3.071428571428612
100
AcDbArc
 50
205.0576154183
 51
334.9423845816999
  0
ARC
  5
336
330
1F
100
AcDbEntity
  8
keys
  6
Continuous
370
    15
100
AcDbCircle
 10
-74.3
 20
36.0
 30
0.0
 40
2.999999999999964
100
AcDbArc
 50
25.0576154183
 51
90.0
  0
ARC
  5
337
330
1F
100
AcDbEntity
  8
keys
  6
Continuous
370
    15
100
AcDbCircle
 10
-56.6
 20
18.0
 30
0.0
 40
3.000000000000014
100
AcDbArc
 50
0.0
 51
90.0
  0
ARC
  5
338
330
1F
100
AcDbEntity
  8
keys
  6
Continuous
370
    15
100
AcDbCircle
 10
-63.3
 20
18.0
 30
0.0
 40
2.999999999999986
100
AcDbArc
 50
90.0
 51
180.0
  0
ARC
  5
339
330
1F
100
AcDbEntity
  8
keys
  6
Continuous
370
    15
100
AcDbCircle
 10
-63.3
 20
9.0
 30
0.0
 40
2.999999999999986
100
AcDbArc
 50
180.0
 51
270.0
  0
ARC
  5
33A
330
1F
100
AcDbEntity
  8
keys
  6
Continuous
370
    15
100
AcDbCircle
 10
-56.6
 20
9.0
 30
0.0
 40
2.999999999999993
100
AcDbArc
 50
270.0
 51
0.0
  0
ARC
  5
33B
330
1F
100
AcDbEntity
  8
keys
  6
Continuous
370
    15
100
AcDbCircle
 10
-56.6
 20
-1.0
 30
0.0
 40
3.000000000000015
100
AcDbArc
 50
0.0
 51
90.0
  0
ARC
  5
33C
330
1F
100
AcDbEntity
  8
keys
  6
Continuous
370
    15
100
AcDbCircle
 10
-63.3
 20
-1.0
 30
0.0
 40
2.999999999999986
100
AcDbArc
 50
90.0
 51
180.0
  0
ARC
  5
33D
330
1F
100
AcDbEntity
  8
keys
  6
Continuous
370
    15
100
AcDbCircle
 10
-63.3
 20
-10.0
 30
0.0
 40
2.999999999999986
100
AcDbArc
 50
180.0
 51
270.0
  0
ARC
  5
33E
330
1F
100
AcDbEntity
  8
keys
  6
Continuous
370
    15
100
AcDbCircle
 10
-56.6
 20
-10.0
 30
0.0
 40
2.999999999999993
100
AcDbArc
 50
270.0
 51
0.0
  0
ARC
  5
33F
330
1F
100
AcDbEntity
  8
keys
  6
Continuous
370
    15
100
AcDbCircle
 10
-56.6
 20
-20.0
 30
0.0
 40
3.000000000000018
100
AcDbArc
 50
0.0
 51
90.0
  0
ARC
  5
340
330
1F
100
AcDbEntity
  8
keys
  6
Continuous
370
    15
100
AcDbCircle
 10
-63.3
 20
-20.0
 30
0.0
 40
2.999999999999986
100
AcDbArc
 50
90.0
 51
180.0
  0
ARC
  5
341
330
1F
100
AcDbEntity
  8
keys
  6
Continuous
370
    15
100
AcDbCircle
 10
-63.3
 20
-29.0
 30
0.0
 40
2.999999999999972
100
AcDbArc
 50
180.0
 51
270.0
  0
ARC
  5
342
330
1F
100
AcDbEntity
  8
keys
  6
Continuous
370
    15
100
AcDbCircle
 10
-56.6
 20
-29.0
 30
0.0
 40
2.999999999999986
100
AcDbArc
 50
270.0
 51
0.0
  0
ARC
  5
343
102
{ACAD_REACTORS
330
B8A
102
}
330
1F
100
AcDbEntity
  8
keys
  6
Continuous
370
    15
100
AcDbCircle
 10
-81.0
 20
-39.0
 30
0.0
 40
3.000000000000028
100
AcDbArc
 50
90.0
 51
180.0
  0
ARC
  5
344
330
1F
100
AcDbEntity
  8
keys
  6
Continuous
370
    15
100
AcDbCircle
 10
-81.0
 20
-48.0
 30
0.0
 40
3.000000000000028
100
AcDbArc
 50
180.0
 51
270.0
  0
ARC
  5
345
330
1F
100
AcDbEntity
  8
keys
  6
Continuous
370
    15
100
AcDbCircle
 10
-68.8
 20
-50.5714285714
 30
0.0
 40
3.071428571428604
100
AcDbArc
 50
25.05761541830001
 51
154.9423845817
  0
ARC
  5
346
330
1F
100
AcDbEntity
  8
keys
  6
Continuous
370
    15
100
AcDbCircle
 10
-63.3
 20
-48.0
 30
0.0
 40
3.000000000000001
100
AcDbArc
 50
205.0576154183
 51
270.0
  0
ARC
  5
347
330
1F
100
AcDbEntity
  8
keys
  6
Continuous
370
    15
100
AcDbCircle
 10
-56.6
 20
-48.0
 30
0.0
 40
3.0
100
AcDbArc
 50
270.0
 51
0.0
  0
ARC
  5
348
330
1F
100
AcDbEntity
  8
keys
  6
Continuous
370
    15
100
AcDbCircle
 10
-56.6
 20
-39.0
 30
0.0
 40
3.000000000000028
100
AcDbArc
 50
0.0
 51
90.0
  0
ARC
  5
349
330
1F
100
AcDbEntity
  8
keys
  6
Continuous
370
    15
100
AcDbCircle
 10
-68.8
 20
-36.4285714286
 30
0.0
 40
3.071428571428612
100
AcDbArc
 50
205.0576154183
 51
334.9423845816999
  0
ARC
  5
34A
330
1F
100
AcDbEntity
  8
keys
  6
Continuous
370
    15
100
AcDbCircle
 10
-74.3
 20
-39.0
 30
0.0
 40
2.999999999999972
100
AcDbArc
 50
25.05761541830001
 51
90.0
  0
ARC
  5
34B
330
1F
100
AcDbEntity
  8
keys
  6
Continuous
370
    15
100
AcDbCircle
 10
-39.9
 20
18.0
 30
0.0
 40
3.000000000000007
100
AcDbArc
 50
0.0
 51
90.0
  0
ARC
  5
34C
330
1F
100
AcDbEntity
  8
keys
  6
Continuous
370
    15
100
AcDbCircle
 10
-46.6
 20
18.0
 30
0.0
 40
2.999999999999993
100
AcDbArc
 50
90.0
 51
180.0
  0
ARC
  5
34D
330
1F
100
AcDbEntity
  8
keys
  6
Continuous
370
    15
100
AcDbCircle
 10
-46.6
 20
9.0
 30
0.0
 40
3.000000000000021
100
AcDbArc
 50
180.0
 51
270.0
  0
ARC
  5
34E
330
1F
100
AcDbEntity
  8
keys
  6
Continuous
370
    15
100
AcDbCircle
 10
-39.9
 20
9.0
 30
0.0
 40
2.999999999999993
100
AcDbArc
 50
270.0
 51
0.0
  0
ARC
  5
34F
330
1F
100
AcDbEntity
  8
keys
  6
Continuous
370
    15
100
AcDbCircle
 10
-39.9
 20
-1.0
 30
0.0
 40
3.00000000000001
100
AcDbArc
 50
0.0
 51
90.0
  0
ARC
  5
350
330
1F
100
AcDbEntity
  8
keys
  6
Continuous
370
    15
100
AcDbCircle
 10
-46.6
 20
-1.0
 30
0.0
 40
2.999999999999994
100
AcDbArc
 50
90.0
 51
180.0
  0
ARC
  5
351
330
1F
100
AcDbEntity
  8
keys
  6
Continuous
370
    15
100
AcDbCircle
 10
-46.6
 20
-10.0
 30
0.0
 40
3.000000000000014
100
AcDbArc
 50
180.0
 51
270.0
  0
ARC
  5
352
330
1F
100
AcDbEntity
  8
keys
  6
Continuous
370
    15
100
AcDbCircle
 10
-39.9
 20
-10.0
 30
0.0
 40
2.999999999999993
100
AcDbArc
 50
270.0
 51
0.0
  0
ARC
  5
353
330
1F
100
AcDbEntity
  8
keys
  6
Continuous
370
    15
100
AcDbCircle
 10
-39.9
 20
-20.0
 30
0.0
 40
3.000000000000007
100
AcDbArc
 50
0.0
 51
90.0
  0
ARC
  5
354
330
1F
100
AcDbEntity
  8
keys
  6
Continuous
370
    15
100
AcDbCircle
 10
-46.6
 20
-20.0
 30
0.0
 40
2.999999999999993
100
AcDbArc
 50
90.0
 51
180.0
  0
ARC
  5
355
330
1F
100
AcDbEntity
  8
keys
  6
Continuous
370
    15
100
AcDbCircle
 10
-46.6
 20
-29.0
 30
0.0
 40
3.0
100
AcDbArc
 50
180.0
 51
270.0
  0
ARC
  5
356
330
1F
100
AcDbEntity
  8
keys
  6
Continuous
370
    15
100
AcDbCircle
 10
-39.9
 20
-29.0
 30
0.0
 40
2.999999999999993
100
AcDbArc
 50
270.0
 51
0.0
  0
ARC
  5
357
330
1F
100
AcDbEntity
  8
keys
  6
Continuous
370
    15
100
AcDbCircle
 10
-46.6
 20
36.0
 30
0.0
 40
2.999999999999993
100
AcDbArc
 50
90.0
 51
180.0
  0
ARC
  5
358
330
1F
100
AcDbEntity
  8
keys
  6
Continuous
370
    15
100
AcDbCircle
 10
-46.6
 20
28.0
 30
0.0
 40
3.000000000000014
100
AcDbArc
 50
180.0
 51
270.0
  0
ARC
  5
359
330
1F
100
AcDbEntity
  8
keys
  6
Continuous
370
    15
100
AcDbCircle
 10
-34.4
 20
25.4285714286
 30
0.0
 40
3.071428571428584
100
AcDbArc
 50
25.05761541830006
 51
154.9423845817
  0
ARC
  5
35A
330
1F
100
AcDbEntity
  8
keys
  6
Continuous
370
    15
100
AcDbCircle
 10
-28.9
 20
28.0
 30
0.0
 40
2.999999999999989
100
AcDbArc
 50
205.0576154183
 51
270.0
  0
ARC
  5
35B
330
1F
100
AcDbEntity
  8
keys
  6
Continuous
370
    15
100
AcDbCircle
 10
-22.2
 20
28.0
 30
0.0
 40
2.999999999999993
100
AcDbArc
 50
270.0
 51
0.0
  0
ARC
  5
35C
330
1F
100
AcDbEntity
  8
keys
  6
Continuous
370
    15
100
AcDbCircle
 10
-22.2
 20
36.0
 30
0.0
 40
3.000000000000014
100
AcDbArc
 50
0.0
 51
90.0
  0
ARC
  5
35D
330
1F
100
AcDbEntity
  8
keys
  6
Continuous
370
    15
100
AcDbCircle
 10
-34.4
 20
38.5714285714
 30
0.0
 40
3.071428571428577
100
AcDbArc
 50
205.0576154182999
 51
334.9423845816999
  0
ARC
  5
35E
330
1F
100
AcDbEntity
  8
keys
  6
Continuous
370
    15
100
AcDbCircle
 10
-39.9
 20
36.0
 30
0.0
 40
3.000000000000002
100
AcDbArc
 50
25.05761541830008
 51
90.0
  0
ARC
  5
35F
330
1F
100
AcDbEntity
  8
keys
  6
Continuous
370
    15
100
AcDbCircle
 10
-22.2
 20
18.0
 30
0.0
 40
3.000000000000004
100
AcDbArc
 50
0.0
 51
90.0
  0
ARC
  5
360
330
1F
100
AcDbEntity
  8
keys
  6
Continuous
370
    15
100
AcDbCircle
 10
-28.9
 20
18.0
 30
0.0
 40
2.999999999999993
100
AcDbArc
 50
90.0
 51
180.0
  0
ARC
  5
361
330
1F
100
AcDbEntity
  8
keys
  6
Continuous
370
    15
100
AcDbCircle
 10
-28.9
 20
9.0
 30
0.0
 40
3.000000000000009
100
AcDbArc
 50
180.0
 51
270.0
  0
ARC
  5
362
330
1F
100
AcDbEntity
  8
keys
  6
Continuous
370
    15
100
AcDbCircle
 10
-22.2
 20
9.0
 30
0.0
 40
2.999999999999996
100
AcDbArc
 50
270.0
 51
0.0
  0
ARC
  5
363
330
1F
100
AcDbEntity
  8
keys
  6
Continuous
370
    15
100
AcDbCircle
 10
-22.2
 20
-1.0
 30
0.0
 40
3.000000000000007
100
AcDbArc
 50
0.0
 51
90.0
  0
ARC
  5
364
330
1F
100
AcDbEntity
  8
keys
  6
Continuous
370
    15
100
AcDbCircle
 10
-28.9
 20
-1.0
 30
0.0
 40
2.999999999999999
100
AcDbArc
 50
90.0
 51
180.0
  0
ARC
  5
365
330
1F
100
AcDbEntity
  8
keys
  6
Continuous
370
    15
100
AcDbCircle
 10
-28.9
 20
-10.0
 30
0.0
 40
3.000000000000011
100
AcDbArc
 50
180.0
 51
270.0
  0
ARC
  5
366
330
1F
100
AcDbEntity
  8
keys
  6
Continuous
370
    15
100
AcDbCircle
 10
-22.2
 20
-10.0
 30
0.0
 40
2.999999999999993
100
AcDbArc
 50
270.0
 51
0.0
  0
ARC
  5
367
330
1F
100
AcDbEntity
  8
keys
  6
Continuous
370
    15
100
AcDbCircle
 10
-22.2
 20
-20.0
 30
0.0
 40
3.000000000000007
100
AcDbArc
 50
0.0
 51
90.0
  0
ARC
  5
368
330
1F
100
AcDbEntity
  8
keys
  6
Continuous
370
    15
100
AcDbCircle
 10
-28.9
 20
-20.0
 30
0.0
 40
2.999999999999996
100
AcDbArc
 50
90.0
 51
180.0
  0
ARC
  5
369
330
1F
100
AcDbEntity
  8
keys
  6
Continuous
370
    15
100
AcDbCircle
 10
-28.9
 20
-29.0
 30
0.0
 40
3.0
100
AcDbArc
 50
180.0
 51
270.0
  0
ARC
  5
36A
330
1F
100
AcDbEntity
  8
keys
  6
Continuous
370
    15
100
AcDbCircle
 10
-22.2
 20
-29.0
 30
0.0
 40
2.999999999999989
100
AcDbArc
 50
270.0
 51
0.0
  0
ARC
  5
36B
330
1F
100
AcDbEntity
  8
keys
  6
Continuous
370
    15
100
AcDbCircle
 10
-46.6
 20
-39.0
 30
0.0
 40
2.999999999999993
100
AcDbArc
 50
90.0
 51
180.0
  0
ARC
  5
36C
330
1F
100
AcDbEntity
  8
keys
  6
Continuous
370
    15
100
AcDbCircle
 10
-46.6
 20
-48.0
 30
0.0
 40
3.000000000000021
100
AcDbArc
 50
180.0
 51
270.0
  0
ARC
  5
36D
330
1F
100
AcDbEntity
  8
keys
  6
Continuous
370
    15
100
AcDbCircle
 10
-34.4
 20
-50.5714285714
 30
0.0
 40
3.071428571428578
100
AcDbArc
 50
25.05761541829993
 51
154.9423845817001
  0
ARC
  5
36E
330
1F
100
AcDbEntity
  8
keys
  6
Continuous
370
    15
100
AcDbCircle
 10
-28.9
 20
-48.0
 30
0.0
 40
3.000000000000007
100
AcDbArc
 50
205.0576154183
 51
270.0
  0
ARC
  5
36F
330
1F
100
AcDbEntity
  8
keys
  6
Continuous
370
    15
100
AcDbCircle
 10
-22.2
 20
-48.0
 30
0.0
 40
3.000000000000004
100
AcDbArc
 50
270.0
 51
0.0
  0
ARC
  5
370
330
1F
100
AcDbEntity
  8
keys
  6
Continuous
370
    15
100
AcDbCircle
 10
-22.2
 20
-39.0
 30
0.0
 40
3.000000000000014
100
AcDbArc
 50
0.0
 51
90.0
  0
ARC
  5
371
330
1F
100
AcDbEntity
  8
keys
  6
Continuous
370
    15
100
AcDbCircle
 10
-34.4
 20
-36.4285714286
 30
0.0
 40
3.071428571428577
100
AcDbArc
 50
205.0576154182999
 51
334.9423845816999
  0
ARC
  5
372
330
1F
100
AcDbEntity
  8
keys
  6
Continuous
370
    15
100
AcDbCircle
 10
-39.9
 20
-39.0
 30
0.0
 40
3.000000000000002
100
AcDbArc
 50
25.05761541830008
 51
90.0
  0
ARC
  5
373
330
1F
100
AcDbEntity
  8
keys
  6
Continuous
370
    15
100
AcDbCircle
 10
-5.5
 20
18.0
 30
0.0
 40
3.000000000000004
100
AcDbArc
 50
0.0
 51
90.0
  0
ARC
  5
374
330
1F
100
AcDbEntity
  8
keys
  6
Continuous
370
    15
100
AcDbCircle
 10
-12.2
 20
18.0
 30
0.0
 40
2.999999999999995
100
AcDbArc
 50
90.0
 51
180.0
  0
ARC
  5
375
330
1F
100
AcDbEntity
  8
keys
  6
Continuous
370
    15
100
AcDbCircle
 10
-12.2
 20
9.0
 30
0.0
 40
3.000000000000005
100
AcDbArc
 50
180.0
 51
270.0
  0
ARC
  5
376
330
1F
100
AcDbEntity
  8
keys
  6
Continuous
370
    15
100
AcDbCircle
 10
-5.5
 20
9.0
 30
0.0
 40
2.999999999999998
100
AcDbArc
 50
270.0
 51
0.0
  0
ARC
  5
377
330
1F
100
AcDbEntity
  8
keys
  6
Continuous
370
    15
100
AcDbCircle
 10
-5.5
 20
-1.0
 30
0.0
 40
3.000000000000004
100
AcDbArc
 50
0.0
 51
90.0
  0
ARC
  5
378
330
1F
100
AcDbEntity
  8
keys
  6
Continuous
370
    15
100
AcDbCircle
 10
-12.2
 20
-1.0
 30
0.0
 40
2.999999999999996
100
AcDbArc
 50
90.0
 51
180.0
  0
ARC
  5
379
330
1F
100
AcDbEntity
  8
keys
  6
Continuous
370
    15
100
AcDbCircle
 10
-12.2
 20
-10.0
 30
0.0
 40
3.000000000000005
100
AcDbArc
 50
180.0
 51
270.0
  0
ARC
  5
37A
330
1F
100
AcDbEntity
  8
keys
  6
Continuous
370
    15
100
AcDbCircle
 10
-5.5
 20
-10.0
 30
0.0
 40
2.999999999999997
100
AcDbArc
 50
270.0
 51
0.0
  0
ARC
  5
37B
330
1F
100
AcDbEntity
  8
keys
  6
Continuous
370
    15
100
AcDbCircle
 10
-5.5
 20
-20.0
 30
0.0
 40
3.000000000000007
100
AcDbArc
 50
0.0
 51
90.0
  0
ARC
  5
37C
330
1F
100
AcDbEntity
  8
keys
  6
Continuous
370
    15
100
AcDbCircle
 10
-12.2
 20
-20.0
 30
0.0
 40
2.999999999999996
100
AcDbArc
 50
90.0
 51
180.0
  0
ARC
  5
37D
330
1F
100
AcDbEntity
  8
keys
  6
Continuous
370
    15
100
AcDbCircle
 10
-12.2
 20
-29.0
 30
0.0
 40
2.999999999999996
100
AcDbArc
 50
180.0
 51
270.0
  0
ARC
  5
37E
330
1F
100
AcDbEntity
  8
keys
  6
Continuous
370
    15
100
AcDbCircle
 10
-5.5
 20
-29.0
 30
0.0
 40
2.999999999999992
100
AcDbArc
 50
270.0
 51
0.0
  0
ARC
  5
37F
330
1F
100
AcDbEntity
  8
keys
  6
Continuous
370
    15
100
AcDbCircle
 10
83.0
 20
45.0
 30
0.0
 40
2.999999999999993
100
AcDbArc
 50
270.0
 51
0.0
  0
ARC
  5
380
330
1F
100
AcDbEntity
  8
keys
  6
Continuous
370
    15
100
AcDbCircle
 10
83.0
 20
53.0
 30
0.0
 40
2.999999999999986
100
AcDbArc
 50
0.0
 51
90.0
  0
ARC
  5
381
330
1F
100
AcDbEntity
  8
keys
  6
Continuous
370
    15
100
AcDbCircle
 10
-83.0
 20
53.0
 30
0.0
 40
3.000000000000028
100
AcDbArc
 50
90.0
 51
180.0
  0
ARC
  5
382
102
{ACAD_REACTORS
330
BD2
102
}
330
1F
100
AcDbEntity
  8
keys
  6
Continuous
370
    15
100
AcDbCircle
 10
-83.0
 20
45.0
 30
0.0
 40
3.000000000000028
100
AcDbArc
 50
180.0
 51
270.0
  0
ARC
  5
383
330
1F
100
AcDbEntity
  8
edge-profile
  6
Continuous
370
    15
100
AcDbCircle
 10
-90.5
 20
-48.5
 30
0.0
 40
9.0
100
AcDbArc
 50
180.0
 51
270.0
  0
ARC
  5
384
330
1F
100
AcDbEntity
  8
edge-profile
  6
Continuous
370
    15
100
AcDbCircle
 10
-90.5
 20
48.5
 30
0.0
 40
9.0
100
AcDbArc
 50
90.0
 51
180.0
  0
ARC
  5
385
330
1F
100
AcDbEntity
  8
edge-profile
  6
Continuous
370
    15
100
AcDbCircle
 10
90.5
 20
48.5
 30
0.0
 40
8.99999999999995
100
AcDbArc
 50
0.0
 51
90.0
  0
ARC
  5
386
330
1F
100
AcDbEntity
  8
edge-profile
  6
Continuous
370
    15
100
AcDbCircle
 10
90.5
 20
-48.5
 30
0.0
 40
8.999999999999972
100
AcDbArc
 50
270.0
 51
0.0
  0
ARC
  5
387
330
1F
100
AcDbEntity
  8
keys
  6
Continuous
370
    15
100
AcDbCircle
 10
12.2
 20
-29.0
 30
0.0
 40
2.999999999999989
100
AcDbArc
 50
270.0
 51
0.0
  0
ARC
  5
388
330
1F
100
AcDbEntity
  8
keys
  6
Continuous
370
    15
100
AcDbCircle
 10
5.5
 20
-20.0
 30
0.0
 40
3.000000000000007
100
AcDbArc
 50
90.0
 51
180.0
  0
ARC
  5
389
330
1F
100
AcDbEntity
  8
keys
  6
Continuous
370
    15
100
AcDbCircle
 10
5.5
 20
-29.0
 30
0.0
 40
2.999999999999993
100
AcDbArc
 50
180.0
 51
270.0
  0
ARC
  5
38A
330
1F
100
AcDbEntity
  8
keys
  6
Continuous
370
    15
100
AcDbCircle
 10
12.2
 20
9.0
 30
0.0
 40
3.000000000000004
100
AcDbArc
 50
270.0
 51
0.0
  0
ARC
  5
38B
330
1F
100
AcDbEntity
  8
keys
  6
Continuous
370
    15
100
AcDbCircle
 10
12.2
 20
18.0
 30
0.0
 40
2.999999999999991
100
AcDbArc
 50
0.0
 51
90.0
  0
ARC
  5
38C
330
1F
100
AcDbEntity
  8
keys
  6
Continuous
370
    15
100
AcDbCircle
 10
5.5
 20
18.0
 30
0.0
 40
3.000000000000004
100
AcDbArc
 50
90.0
 51
180.0
  0
ARC
  5
38D
330
1F
100
AcDbEntity
  8
keys
  6
Continuous
370
    15
100
AcDbCircle
 10
5.5
 20
9.0
 30
0.0
 40
2.999999999999999
100
AcDbArc
 50
180.0
 51
270.0
  0
ARC
  5
38E
330
1F
100
AcDbEntity
  8
keys
  6
Continuous
370
    15
100
AcDbCircle
 10
28.9
 20
-10.0
 30
0.0
 40
3.000000000000007
100
AcDbArc
 50
270.0
 51
0.0
  0
ARC
  5
38F
330
1F
100
AcDbEntity
  8
keys
  6
Continuous
370
    15
100
AcDbCircle
 10
28.9
 20
-1.0
 30
0.0
 40
2.999999999999999
100
AcDbArc
 50
0.0
 51
90.0
  0
ARC
  5
390
330
1F
100
AcDbEntity
  8
keys
  6
Continuous
370
    15
100
AcDbCircle
 10
22.2
 20
-1.0
 30
0.0
 40
3.000000000000007
100
AcDbArc
 50
90.0
 51
180.0
  0
ARC
  5
391
330
1F
100
AcDbEntity
  8
keys
  6
Continuous
370
    15
100
AcDbCircle
 10
22.2
 20
-10.0
 30
0.0
 40
2.999999999999993
100
AcDbArc
 50
180.0
 51
270.0
  0
ARC
  5
392
330
1F
100
AcDbEntity
  8
keys
  6
Continuous
370
    15
100
AcDbCircle
 10
46.6
 20
-29.0
 30
0.0
 40
3.000000000000007
100
AcDbArc
 50
270.0
 51
0.0
  0
ARC
  5
393
330
1F
100
AcDbEntity
  8
keys
  6
Continuous
370
    15
100
AcDbCircle
 10
46.6
 20
-20.0
 30
0.0
 40
3.0
100
AcDbArc
 50
0.0
 51
90.0
  0
ARC
  5
394
330
1F
100
AcDbEntity
  8
keys
  6
Continuous
370
    15
100
AcDbCircle
 10
39.9
 20
-20.0
 30
0.0
 40
3.0
100
AcDbArc
 50
90.0
 51
180.0
  0
ARC
  5
395
330
1F
100
AcDbEntity
  8
keys
  6
Continuous
370
    15
100
AcDbCircle
 10
39.9
 20
-29.0
 30
0.0
 40
2.999999999999975
100
AcDbArc
 50
180.0
 51
270.0
  0
ARC
  5
396
330
1F
100
AcDbEntity
  8
keys
  6
Continuous
370
    15
100
AcDbCircle
 10
46.6
 20
9.0
 30
0.0
 40
3.000000000000021
100
AcDbArc
 50
270.0
 51
0.0
  0
ARC
  5
397
330
1F
100
AcDbEntity
  8
keys
  6
Continuous
370
    15
100
AcDbCircle
 10
46.6
 20
18.0
 30
0.0
 40
3.0
100
AcDbArc
 50
0.0
 51
90.0
  0
ARC
  5
398
330
1F
100
AcDbEntity
  8
keys
  6
Continuous
370
    15
100
AcDbCircle
 10
39.9
 20
18.0
 30
0.0
 40
2.999999999999989
100
AcDbArc
 50
90.0
 51
180.0
  0
ARC
  5
399
330
1F
100
AcDbEntity
  8
keys
  6
Continuous
370
    15
100
AcDbCircle
 10
39.9
 20
9.0
 30
0.0
 40
2.999999999999986
100
AcDbArc
 50
180.0
 51
270.0
  0
ARC
  5
39A
330
1F
100
AcDbEntity
  8
keys
  6
Continuous
370
    15
100
AcDbCircle
 10
63.3
 20
-10.0
 30
0.0
 40
2.999999999999986
100
AcDbArc
 50
270.0
 51
0.0
  0
ARC
  5
39B
330
1F
100
AcDbEntity
  8
keys
  6
Continuous
370
    15
100
AcDbCircle
 10
63.3
 20
-1.0
 30
0.0
 40
2.999999999999986
100
AcDbArc
 50
0.0
 51
90.0
  0
ARC
  5
39C
330
1F
100
AcDbEntity
  8
keys
  6
Continuous
370
    15
100
AcDbCircle
 10
56.6
 20
-1.0
 30
0.0
 40
3.000000000000021
100
AcDbArc
 50
90.0
 51
180.0
  0
ARC
  5
39D
330
1F
100
AcDbEntity
  8
keys
  6
Continuous
370
    15
100
AcDbCircle
 10
56.6
 20
-10.0
 30
0.0
 40
2.999999999999993
100
AcDbArc
 50
180.0
 51
270.0
  0
ARC
  5
39E
330
1F
100
AcDbEntity
  8
keys
  6
Continuous
370
    15
100
AcDbCircle
 10
81.0
 20
-29.0
 30
0.0
 40
2.999999999999972
100
AcDbArc
 50
270.0
 51
0.0
  0
ARC
  5
39F
330
1F
100
AcDbEntity
  8
keys
  6
Continuous
370
    15
100
AcDbCircle
 10
81.0
 20
-20.0
 30
0.0
 40
3.0
100
AcDbArc
 50
0.0
 51
90.0
  0
ARC
  5
3A0
330
1F
100
AcDbEntity
  8
keys
  6
Continuous
370
    15
100
AcDbCircle
 10
74.3
 20
-20.0
 30
0.0
 40
3.000000000000014
100
AcDbArc
 50
90.0
 51
180.0
  0
ARC
  5
3A1
330
1F
100
AcDbEntity
  8
keys
  6
Continuous
370
    15
100
AcDbCircle
 10
74.3
 20
-29.0
 30
0.0
 40
3.000000000000004
100
AcDbArc
 50
180.0
 51
270.0
  0
ARC
  5
3A2
330
1F
100
AcDbEntity
  8
keys
  6
Continuous
370
    15
100
AcDbCircle
 10
81.0
 20
9.0
 30
0.0
 40
2.999999999999977
100
AcDbArc
 50
270.0
 51
0.0
  0
ARC
  5
3A3
330
1F
100
AcDbEntity
  8
keys
  6
Continuous
370
    15
100
AcDbCircle
 10
81.0
 20
18.0
 30
0.0
 40
2.999999999999986
100
AcDbArc
 50
0.0
 51
90.0
  0
ARC
  5
3A4
330
1F
100
AcDbEntity
  8
keys
  6
Continuous
370
    15
100
AcDbCircle
 10
74.3
 20
18.0
 30
0.0
 40
3.000000000000007
100
AcDbArc
 50
90.0
 51
180.0
  0
ARC
  5
3A5
330
1F
100
AcDbEntity
  8
keys
  6
Continuous
370
    15
100
AcDbCircle
 10
74.3
 20
9.0
 30
0.0
 40
3.000000000000014
100
AcDbArc
 50
180.0
 51
270.0
  0
ARC
  5
3A6
330
1F
100
AcDbEntity
  8
keys
  6
Continuous
370
    15
100
AcDbCircle
 10
12.2
 20
-20.0
 30
0.0
 40
2.999999999999993
100
AcDbArc
 50
0.0
 51
90.0
  0
ARC
  5
3A7
330
1F
100
AcDbEntity
  8
keys
  6
Continuous
370
    15
100
AcDbCircle
 10
-74.3
 20
28.0
 30
0.0
 40
3.0
100
AcDbArc
 50
270.0
 51
334.9423845817
  0
ARC
  5
3A8
330
1F
100
AcDbEntity
  8
keys
  6
Continuous
370
    15
100
AcDbCircle
 10
-63.3
 20
36.0
 30
0.0
 40
3.000000000000028
100
AcDbArc
 50
90.0
 51
154.9423845817
  0
ARC
  5
3A9
330
1F
100
AcDbEntity
  8
keys
  6
Continuous
370
    15
100
AcDbCircle
 10
-74.3
 20
-48.0
 30
0.0
 40
2.999999999999986
100
AcDbArc
 50
270.0
 51
334.9423845817
  0
ARC
  5
3AA
330
1F
100
AcDbEntity
  8
keys
  6
Continuous
370
    15
100
AcDbCircle
 10
-63.3
 20
-39.0
 30
0.0
 40
3.000000000000028
100
AcDbArc
 50
90.0
 51
154.9423845817
  0
ARC
  5
3AB
330
1F
100
AcDbEntity
  8
keys
  6
Continuous
370
    15
100
AcDbCircle
 10
-39.9
 20
28.0
 30
0.0
 40
2.999999999999976
100
AcDbArc
 50
270.0
 51
334.9423845817
  0
ARC
  5
3AC
330
1F
100
AcDbEntity
  8
keys
  6
Continuous
370
    15
100
AcDbCircle
 10
-28.9
 20
36.0
 30
0.0
 40
2.999999999999993
100
AcDbArc
 50
90.0
 51
154.9423845817
  0
ARC
  5
3AD
330
1F
100
AcDbEntity
  8
keys
  6
Continuous
370
    15
100
AcDbCircle
 10
-39.9
 20
-48.0
 30
0.0
 40
2.999999999999981
100
AcDbArc
 50
270.0
 51
334.9423845816999
  0
ARC
  5
3AE
330
1F
100
AcDbEntity
  8
keys
  6
Continuous
370
    15
100
AcDbCircle
 10
-28.9
 20
-39.0
 30
0.0
 40
2.999999999999993
100
AcDbArc
 50
90.0
 51
154.9423845817
  0
ARC
  5
3AF
330
1F
100
AcDbEntity
  8
keys
  6
Continuous
370
    15
100
AcDbCircle
 10
5.5
 20
28.0
 30
0.0
 40
2.999999999999999
100
AcDbArc
 50
205.0576154183
 51
270.0
  0
ARC
  5
3B0
330
1F
100
AcDbEntity
  8
keys
  6
Continuous
370
    15
100
AcDbCircle
 10
-5.5
 20
28.0
 30
0.0
 40
2.999999999999982
100
AcDbArc
 50
270.0
 51
334.9423845817
  0
ARC
  5
3B1
330
1F
100
AcDbEntity
  8
keys
  6
Continuous
370
    15
100
AcDbCircle
 10
5.5
 20
-48.0
 30
0.0
 40
3.000000000000012
100
AcDbArc
 50
205.0576154183
 51
270.0
  0
ARC
  5
3B2
330
1F
100
AcDbEntity
  8
keys
  6
Continuous
370
    15
100
AcDbCircle
 10
-5.5
 20
-48.0
 30
0.0
 40
2.999999999999987
100
AcDbArc
 50
270.0
 51
334.9423845816999
  0
ARC
  5
3B3
330
1F
100
AcDbEntity
  8
keys
  6
Continuous
370
    15
100
AcDbCircle
 10
39.9
 20
28.0
 30
0.0
 40
3.0
100
AcDbArc
 50
205.0576154183
 51
270.0
  0
ARC
  5
3B4
330
1F
100
AcDbEntity
  8
keys
  6
Continuous
370
    15
100
AcDbCircle
 10
28.9
 20
36.0
 30
0.0
 40
3.000000000000099
100
AcDbArc
 50
25.05761541829995
 51
90.0
  0
ARC
  5
3B5
330
1F
100
AcDbEntity
  8
keys
  6
Continuous
370
    15
100
AcDbCircle
 10
39.9
 20
-48.0
 30
0.0
 40
3.000000000000014
100
AcDbArc
 50
205.0576154183
 51
270.0
  0
ARC
  5
3B6
330
1F
100
AcDbEntity
  8
keys
  6
Continuous
370
    15
100
AcDbCircle
 10
28.9
 20
-39.0
 30
0.0
 40
3.000000000000099
100
AcDbArc
 50
25.05761541829995
 51
90.0
  0
ARC
  5
3B7
330
1F
100
AcDbEntity
  8
keys
  6
Continuous
370
    15
100
AcDbCircle
 10
74.3
 20
28.0
 30
0.0
 40
3.000000000000059
100
AcDbArc
 50
205.0576154183
 51
270.0
  0
ARC
  5
3B8
330
1F
100
AcDbEntity
  8
keys
  6
Continuous
370
    15
100
AcDbCircle
 10
63.3
 20
36.0
 30
0.0
 40
3.000000000000107
100
AcDbArc
 50
25.05761541830007
 51
90.0
  0
ARC
  5
3B9
330
1F
100
AcDbEntity
  8
keys
  6
Continuous
370
    15
100
AcDbCircle
 10
74.3
 20
-48.0
 30
0.0
 40
3.00000000000005
100
AcDbArc
 50
205.0576154183
 51
270.0
  0
ARC
  5
3BA
330
1F
100
AcDbEntity
  8
keys
  6
Continuous
370
    15
100
AcDbCircle
 10
63.3
 20
-39.0
 30
0.0
 40
3.000000000000107
100
AcDbArc
 50
25.05761541830007
 51
90.0
  0
ARC
  5
3BB
330
1F
100
AcDbEntity
  8
outside
  6
Continuous
370
    15
100
AcDbCircle
 10
-90.5
 20
48.5
 30
0.0
 40
13.50000000000003
100
AcDbArc
 50
90.0
 51
180.0
  0
ARC
  5
3BC
330
1F
100
AcDbEntity
  8
outside
  6
Continuous
370
    15
100
AcDbCircle
 10
90.5
 20
48.5
 30
0.0
 40
13.5
100
AcDbArc
 50
0.0
 51
90.0
  0
ARC
  5
3BD
330
1F
100
AcDbEntity
  8
outside
  6
Continuous
370
    15
100
AcDbCircle
 10
-90.5
 20
-48.5
 30
0.0
 40
13.50000000000003
100
AcDbArc
 50
180.0
 51
270.0
  0
ARC
  5
3BE
330
1F
100
AcDbEntity
  8
outside
  6
Continuous
370
    15
100
AcDbCircle
 10
90.5
 20
-48.5
 30
0.0
 40
13.50000000000001
100
AcDbArc
 50
270.0
 51
0.0
  0
TEXT
  5
B7D
330
1F
100
AcDbEntity
  8
0
100
AcDbText
 10
-91.36932473444618
 20
-73.73601669195754
 30
0.0
 40
3.5
  1
110-110 Nova Chat 8 Essence Original 10 x 5
100
AcDbText
  0
LINE
  5
B7F
330
1F
100
AcDbEntity
  8
outside
  6
Continuous
370
    15
100
AcDbLine
 10
104.0
 20
36.0
 30
0.0
 11
97.0
 21
36.0
 31
0.0
  0
LINE
  5
B80
330
1F
100
AcDbEntity
  8
outside
  6
Continuous
370
    15
100
AcDbLine
 10
104.0
 20
-36.0
 30
0.0
 11
97.0
 21
-36.0
 31
0.0
  0
LINE
  5
B81
330
1F
100
AcDbEntity
  8
outside
  6
Continuous
370
    15
100
AcDbLine
 10
92.0
 20
-31.0
 30
0.0
 11
92.0
 21
31.0
 31
0.0
  0
ARC
  5
B82
330
1F
100
AcDbEntity
  8
outside
  6
Continuous
370
    15
100
AcDbCircle
 10
97.0
 20
31.0
 30
0.0
 40
5.0
100
AcDbArc
 50
89.99999999999999
 51
180.0
  0
ARC
  5
B83
330
1F
100
AcDbEntity
  8
outside
  6
Continuous
370
    15
100
AcDbCircle
 10
97.0
 20
-31.0
 30
0.0
 40
5.0
100
AcDbArc
 50
180.0
 51
270.0
  0
LINE
  5
B84
330
1F
100
AcDbEntity
  8
outside
  6
Continuous
370
    15
100
AcDbLine
 10
104.0
 20
36.0
 30
0.0
 11
104.0
 21
48.5
 31
0.0
  0
LINE
  5
B85
330
1F
100
AcDbEntity
  8
edge-profile
  6
Continuous
370
    15
100
AcDbLine
 10
99.5
 20
36.0
 30
0.0
 11
99.5
 21
48.5
 31
0.0
  0
ENDSEC
  0
SECTION
  2
OBJECTS
  0
DICTIONARY
  5
C
330
0
100
AcDbDictionary
281
     1
  3
ACAD_GROUP
350
D
  3
ACAD_IMAGE_VARS
350
3E0
  3
ACAD_LAYOUT
350
1A
  3
ACAD_MLINESTYLE
350
17
  3
ACAD_PLOTSETTINGS
350
19
  3
ACAD_PLOTSTYLENAME
350
E
  3
ACAD_SCALELIST
350
47
  3
APPDATA
350
3DE
  3
DWGPROPS
350
BE3
  0
DICTIONARY
  5
D
102
{ACAD_REACTORS
330
C
102
}
330
C
100
AcDbDictionary
281
     1
  0
RASTERVARIABLES
  5
3E0
102
{ACAD_REACTORS
330
C
102
}
330
C
100
AcDbRasterVariables
 90
        0
 70
     1
 71
     1
 72
     1
  0
DICTIONARY
  5
1A
102
{ACAD_REACTORS
330
C
102
}
330
C
100
AcDbDictionary
281
     1
  3
Layout1
350
1E
  3
Layout2
350
26
  3
Model
350
22
  0
DICTIONARY
  5
17
102
{ACAD_REACTORS
330
C
102
}
330
C
100
AcDbDictionary
281
     1
  3
Standard
350
18
  0
DICTIONARY
  5
19
102
{ACAD_REACTORS
330
C
102
}
330
C
100
AcDbDictionary
281
     1
  0
ACDBDICTIONARYWDFLT
  5
E
102
{ACAD_REACTORS
330
C
102
}
330
C
100
AcDbDictionary
281
     1
  3
Normal
350
F
100
AcDbDictionaryWithDefault
340
F
  0
DICTIONARY
  5
47
102
{ACAD_REACTORS
330
C
102
}
330
C
100
AcDbDictionary
281
     1
  3
A0
350
48
  3
A1
350
49
  3
A2
350
4A
  3
A3
350
4B
  3
A4
350
4C
  3
A5
350
4D
  3
A6
350
4E
  3
A7
350
4F
  3
A8
350
50
  3
A9
350
51
  3
B0
350
52
  3
B1
350
53
  3
B2
350
54
  3
B3
350
55
  3
B4
350
56
  3
B5
350
57
  3
B6
350
58
  3
B7
350
59
  3
B8
350
5A
  3
B9
350
5B
  3
C0
350
5C
  3
C1
350
5D
  3
C2
350
5E
  3
C3
350
5F
  3
C4
350
60
  3
C5
350
61
  3
C6
350
62
  3
C7
350
63
  3
C8
350
64
  3
C9
350
65
  3
D0
350
66
  3
D1
350
67
  3
D2
350
68
  0
DICTIONARY
  5
3DE
102
{ACAD_REACTORS
330
C
102
}
330
C
100
AcDbDictionary
281
     1
  0
XRECORD
  5
BE3
102
{ACAD_REACTORS
330
C
102
}
330
C
100
AcDbXrecord
280
     1
  1
DWGPROPS COOKIE
  2

  3

  4

  6

  7

  8
Paul
  9

300
=
301
=
302
=
303
=
304
=
305
=
306
=
307
=
308
=
309
=
 40
0.0
 41
2457344.514410255
 42
2457345.420834363
  1

 90
        0
  0
LAYOUT
  5
1E
102
{ACAD_REACTORS
330
1A
102
}
330
1A
100
AcDbPlotSettings
  1

  2
none_device
  4

  6

 40
0.0
 41
0.0
 42
0.0
 43
0.0
 44
0.0
 45
0.0
 46
0.0
 47
0.0
 48
0.0
 49
0.0
140
0.0
141
0.0
142
1.0
143
1.0
 70
   688
 72
     1
 73
     0
 74
     5
  7

 75
    16
147
1.0
148
0.0
149
0.0
100
AcDbLayout
  1
Layout1
 70
     1
 71
     1
 10
0.0
 20
0.0
 11
420.0
 21
297.0
 12
0.0
 22
0.0
 32
0.0
 14
1.000000000000000E+20
 24
1.000000000000000E+20
 34
1.000000000000000E+20
 15
-1.000000000000000E+20
 25
-1.000000000000000E+20
 35
-1.000000000000000E+20
146
0.0
 13
0.0
 23
0.0
 33
0.0
 16
1.0
 26
0.0
 36
0.0
 17
0.0
 27
1.0
 37
0.0
 76
     0
330
1B
  0
LAYOUT
  5
26
102
{ACAD_REACTORS
330
1A
102
}
330
1A
100
AcDbPlotSettings
  1

  2
none_device
  4

  6

 40
0.0
 41
0.0
 42
0.0
 43
0.0
 44
0.0
 45
0.0
 46
0.0
 47
0.0
 48
0.0
 49
0.0
140
0.0
141
0.0
142
1.0
143
1.0
 70
   688
 72
     1
 73
     0
 74
     5
  7

 75
    16
147
1.0
148
0.0
149
0.0
100
AcDbLayout
  1
Layout2
 70
     1
 71
     2
 10
0.0
 20
0.0
 11
0.0
 21
0.0
 12
0.0
 22
0.0
 32
0.0
 14
0.0
 24
0.0
 34
0.0
 15
0.0
 25
0.0
 35
0.0
146
0.0
 13
0.0
 23
0.0
 33
0.0
 16
1.0
 26
0.0
 36
0.0
 17
0.0
 27
1.0
 37
0.0
 76
     0
330
23
  0
LAYOUT
  5
22
102
{ACAD_REACTORS
330
1A
102
}
330
1A
100
AcDbPlotSettings
  1

  2
none_device
  4
ANSI_A_(11.00_x_8.50_Inches)
  6

 40
6.35
 41
19.05
 42
6.35000508
 43
19.05000254
 44
279.4
 45
215.9
 46
133.34999746
 47
88.89999873
 48
0.0
 49
0.0
140
0.0
141
0.0
142
0.0523557692
143
1.0
 70
  1696
 72
     0
 73
     0
 74
     0
  7

 75
     0
147
0.0179189148
148
-1300.4909072572
149
0.0
100
AcDbLayout
  1
Model
 70
     1
 71
     0
 10
0.0
 20
0.0
 11
420.0
 21
297.0
 12
0.0
 22
0.0
 32
0.0
 14
-104.0
 24
-74.90268335862422
 34
0.0
 15
104.0
 25
62.00000000000003
 35
0.0
146
0.0
 13
0.0
 23
0.0
 33
0.0
 16
1.0
 26
0.0
 36
0.0
 17
0.0
 27
1.0
 37
0.0
 76
     0
330
1F
331
29
  0
MLINESTYLE
  5
18
102
{ACAD_REACTORS
330
17
102
}
330
17
100
AcDbMlineStyle
  2
Standard
 70
     0
  3

 62
   256
 51
90.0
 52
90.0
 71
     2
 49
0.5
 62
   256
  6
BYLAYER
 49
-0.5
 62
   256
  6
BYLAYER
  0
ACDBPLACEHOLDER
  5
F
102
{ACAD_REACTORS
330
E
102
}
330
E
  0
SCALE
  5
48
102
{ACAD_REACTORS
330
47
102
}
330
47
100
AcDbScale
 70
     0
300
1:1
140
1.0
141
1.0
290
     1
  0
SCALE
  5
49
102
{ACAD_REACTORS
330
47
102
}
330
47
100
AcDbScale
 70
     0
300
1:2
140
1.0
141
2.0
290
     0
  0
SCALE
  5
4A
102
{ACAD_REACTORS
330
47
102
}
330
47
100
AcDbScale
 70
     0
300
1:4
140
1.0
141
4.0
290
     0
  0
SCALE
  5
4B
102
{ACAD_REACTORS
330
47
102
}
330
47
100
AcDbScale
 70
     0
300
1:5
140
1.0
141
5.0
290
     0
  0
SCALE
  5
4C
102
{ACAD_REACTORS
330
47
102
}
330
47
100
AcDbScale
 70
     0
300
1:8
140
1.0
141
8.0
290
     0
  0
SCALE
  5
4D
102
{ACAD_REACTORS
330
47
102
}
330
47
100
AcDbScale
 70
     0
300
1:10
140
1.0
141
10.0
290
     0
  0
SCALE
  5
4E
102
{ACAD_REACTORS
330
47
102
}
330
47
100
AcDbScale
 70
     0
300
1:16
140
1.0
141
16.0
290
     0
  0
SCALE
  5
4F
102
{ACAD_REACTORS
330
47
102
}
330
47
100
AcDbScale
 70
     0
300
1:20
140
1.0
141
20.0
290
     0
  0
SCALE
  5
50
102
{ACAD_REACTORS
330
47
102
}
330
47
100
AcDbScale
 70
     0
300
1:30
140
1.0
141
30.0
290
     0
  0
SCALE
  5
51
102
{ACAD_REACTORS
330
47
102
}
330
47
100
AcDbScale
 70
     0
300
1:40
140
1.0
141
40.0
290
     0
  0
SCALE
  5
52
102
{ACAD_REACTORS
330
47
102
}
330
47
100
AcDbScale
 70
     0
300
1:50
140
1.0
141
50.0
290
     0
  0
SCALE
  5
53
102
{ACAD_REACTORS
330
47
102
}
330
47
100
AcDbScale
 70
     0
300
1:100
140
1.0
141
100.0
290
     0
  0
SCALE
  5
54
102
{ACAD_REACTORS
330
47
102
}
330
47
100
AcDbScale
 70
     0
300
2:1
140
2.0
141
1.0
290
     0
  0
SCALE
  5
55
102
{ACAD_REACTORS
330
47
102
}
330
47
100
AcDbScale
 70
     0
300
4:1
140
4.0
141
1.0
290
     0
  0
SCALE
  5
56
102
{ACAD_REACTORS
330
47
102
}
330
47
100
AcDbScale
 70
     0
300
8:1
140
8.0
141
1.0
290
     0
  0
SCALE
  5
57
102
{ACAD_REACTORS
330
47
102
}
330
47
100
AcDbScale
 70
     0
300
10:1
140
10.0
141
1.0
290
     0
  0
SCALE
  5
58
102
{ACAD_REACTORS
330
47
102
}
330
47
100
AcDbScale
 70
     0
300
100:1
140
100.0
141
1.0
290
     0
  0
SCALE
  5
59
102
{ACAD_REACTORS
330
47
102
}
330
47
100
AcDbScale
 70
     0
300
1/128" = 1'-0"
140
0.0078125
141
12.0
290
     0
  0
SCALE
  5
5A
102
{ACAD_REACTORS
330
47
102
}
330
47
100
AcDbScale
 70
     0
300
1/64" = 1'-0"
140
0.015625
141
12.0
290
     0
  0
SCALE
  5
5B
102
{ACAD_REACTORS
330
47
102
}
330
47
100
AcDbScale
 70
     0
300
1/32" = 1'-0"
140
0.03125
141
12.0
290
     0
  0
SCALE
  5
5C
102
{ACAD_REACTORS
330
47
102
}
330
47
100
AcDbScale
 70
     0
300
1/16" = 1'-0"
140
0.0625
141
12.0
290
     0
  0
SCALE
  5
5D
102
{ACAD_REACTORS
330
47
102
}
330
47
100
AcDbScale
 70
     0
300
3/32" = 1'-0"
140
0.09375
141
12.0
290
     0
  0
SCALE
  5
5E
102
{ACAD_REACTORS
330
47
102
}
330
47
100
AcDbScale
 70
     0
300
1/8" = 1'-0"
140
0.125
141
12.0
290
     0
  0
SCALE
  5
5F
102
{ACAD_REACTORS
330
47
102
}
330
47
100
AcDbScale
 70
     0
300
3/16" = 1'-0"
140
0.1875
141
12.0
290
     0
  0
SCALE
  5
60
102
{ACAD_REACTORS
330
47
102
}
330
47
100
AcDbScale
 70
     0
300
1/4" = 1'-0"
140
0.25
141
12.0
290
     0
  0
SCALE
  5
61
102
{ACAD_REACTORS
330
47
102
}
330
47
100
AcDbScale
 70
     0
300
3/8" = 1'-0"
140
0.375
141
12.0
290
     0
  0
SCALE
  5
62
102
{ACAD_REACTORS
330
47
102
}
330
47
100
AcDbScale
 70
     0
300
1/2" = 1'-0"
140
0.5
141
12.0
290
     0
  0
SCALE
  5
63
102
{ACAD_REACTORS
330
47
102
}
330
47
100
AcDbScale
 70
     0
300
3/4" = 1'-0"
140
0.75
141
12.0
290
     0
  0
SCALE
  5
64
102
{ACAD_REACTORS
330
47
102
}
330
47
100
AcDbScale
 70
     0
300
1" = 1'-0"
140
1.0
141
12.0
290
     0
  0
SCALE
  5
65
102
{ACAD_REACTORS
330
47
102
}
330
47
100
AcDbScale
 70
     0
300
1-1/2" = 1'-0"
140
1.5
141
12.0
290
     0
  0
SCALE
  5
66
102
{ACAD_REACTORS
330
47
102
}
330
47
100
AcDbScale
 70
     0
300
3" = 1'-0"
140
3.0
141
12.0
290
     0
  0
SCALE
  5
67
102
{ACAD_REACTORS
330
47
102
}
330
47
100
AcDbScale
 70
     0
300
6" = 1'-0"
140
6.0
141
12.0
290
     0
  0
SCALE
  5
68
102
{ACAD_REACTORS
330
47
102
}
330
47
100
AcDbScale
 70
     0
300
1'-0" = 1'-0"
140
12.0
141
12.0
290
     0
  0
ENDSEC
  0
EOF
