  0
SECTION
  2
HEADER
  9
$ACADVER
  1
AC1015
  9
$ACADMAINTVER
 70
     6
  9
$DWGCODEPAGE
  3
ANSI_1252
  9
$INSBASE
 10
0.0
 20
0.0
 30
0.0
  9
$EXTMIN
 10
-130.0
 20
-82.0
 30
0.0
  9
$EXTMAX
 10
130.0
 20
80.5
 30
0.0
  9
$LIMMIN
 10
0.0
 20
0.0
  9
$LIMMAX
 10
420.0
 20
297.0
  9
$ORTHOMODE
 70
     0
  9
$REGENMODE
 70
     1
  9
$FILLMODE
 70
     1
  9
$QTEXTMODE
 70
     0
  9
$MIRRTEXT
 70
     1
  9
$LTSCALE
 40
1.0
  9
$ATTMODE
 70
     1
  9
$TEXTSIZE
 40
3.5
  9
$TRACEWID
 40
1.0
  9
$TEXTSTYLE
  7
Standard
  9
$CLAYER
  8
keys
  9
$CELTYPE
  6
ByLayer
  9
$CECOLOR
 62
   256
  9
$CELTSCALE
 40
1.0
  9
$DISPSILH
 70
     0
  9
$DIMSCALE
 40
1.0
  9
$DIMASZ
 40
3.302
  9
$DIMEXO
 40
1.0
  9
$DIMDLI
 40
3.75
  9
$DIMRND
 40
0.0
  9
$DIMDLE
 40
0.0
  9
$DIMEXE
 40
1.0
  9
$DIMTP
 40
0.0
  9
$DIMTM
 40
0.0
  9
$DIMTXT
 40
3.5
  9
$DIMCEN
 40
2.5
  9
$DIMTSZ
 40
0.0
  9
$DIMTOL
 70
     0
  9
$DIMLIM
 70
     0
  9
$DIMTIH
 70
     1
  9
$DIMTOH
 70
     1
  9
$DIMSE1
 70
     0
  9
$DIMSE2
 70
     0
  9
$DIMTAD
 70
     1
  9
$DIMZIN
 70
     0
  9
$DIMBLK
  1

  9
$DIMASO
 70
     1
  9
$DIMSHO
 70
     1
  9
$DIMPOST
  1

  9
$DIMAPOST
  1

  9
$DIMALT
 70
     0
  9
$DIMALTD
 70
     3
  9
$DIMALTF
 40
0.0393700787
  9
$DIMLFAC
 40
1.0
  9
$DIMTOFL
 70
     1
  9
$DIMTVP
 40
0.0
  9
$DIMTIX
 70
     0
  9
$DIMSOXD
 70
     0
  9
$DIMSAH
 70
     0
  9
$DIMBLK1
  1

  9
$DIMBLK2
  1

  9
$DIMSTYLE
  2
ISO-25
  9
$DIMCLRD
 70
     0
  9
$DIMCLRE
 70
     0
  9
$DIMCLRT
 70
     0
  9
$DIMTFAC
 40
1.0
  9
$DIMGAP
 40
1.524
  9
$DIMJUST
 70
     0
  9
$DIMSD1
 70
     0
  9
$DIMSD2
 70
     0
  9
$DIMTOLJ
 70
     0
  9
$DIMTZIN
 70
     0
  9
$DIMALTZ
 70
     0
  9
$DIMALTTZ
 70
     0
  9
$DIMUPT
 70
     0
  9
$DIMDEC
 70
     2
  9
$DIMTDEC
 70
     2
  9
$DIMALTU
 70
     2
  9
$DIMALTTD
 70
     3
  9
$DIMTXSTY
  7
Standard
  9
$DIMAUNIT
 70
     0
  9
$DIMADEC
 70
     2
  9
$DIMALTRND
 40
0.0
  9
$DIMAZIN
 70
     0
  9
$DIMDSEP
 70
    44
  9
$DIMATFIT
 70
     3
  9
$DIMFRAC
 70
     0
  9
$DIMLDRBLK
  1

  9
$DIMLUNIT
 70
     2
  9
$DIMLWD
 70
    -2
  9
$DIMLWE
 70
    -2
  9
$DIMTMOVE
 70
     0
  9
$LUNITS
 70
     2
  9
$LUPREC
 70
     2
  9
$SKETCHINC
 40
1.0
  9
$FILLETRAD
 40
5.0
  9
$AUNITS
 70
     0
  9
$AUPREC
 70
     2
  9
$MENU
  1
.
  9
$ELEVATION
 40
0.0
  9
$PELEVATION
 40
0.0
  9
$THICKNESS
 40
0.0
  9
$LIMCHECK
 70
     0
  9
$CHAMFERA
 40
0.0
  9
$CHAMFERB
 40
0.0
  9
$CHAMFERC
 40
0.0
  9
$CHAMFERD
 40
0.0
  9
$SKPOLY
 70
     0
  9
$TDCREATE
 40
2457198.507078924
  9
$TDUCREATE
 40
2457198.507078924
  9
$TDUPDATE
 40
2457401.591723773
  9
$TDUUPDATE
 40
2457401.591723773
  9
$TDINDWG
 40
0.0061416204
  9
$TDUSRTIMER
 40
2457401.586269988
  9
$USRTIMER
 70
     1
  9
$ANGBASE
 50
0.0
  9
$ANGDIR
 70
     0
  9
$PDMODE
 70
     0
  9
$PDSIZE
 40
-1.0
  9
$PLINEWID
 40
0.0
  9
$SPLFRAME
 70
     0
  9
$SPLINETYPE
 70
     6
  9
$SPLINESEGS
 70
     8
  9
$HANDSEED
  5
3F3
  9
$SURFTAB1
 70
     6
  9
$SURFTAB2
 70
     6
  9
$SURFTYPE
 70
     6
  9
$SURFU
 70
     6
  9
$SURFV
 70
     6
  9
$UCSBASE
  2

  9
$UCSNAME
  2

  9
$UCSORG
 10
0.0
 20
0.0
 30
0.0
  9
$UCSXDIR
 10
1.0
 20
0.0
 30
0.0
  9
$UCSYDIR
 10
0.0
 20
1.0
 30
0.0
  9
$UCSORTHOREF
  2

  9
$UCSORTHOVIEW
 70
     0
  9
$UCSORGTOP
 10
0.0
 20
0.0
 30
0.0
  9
$UCSORGBOTTOM
 10
0.0
 20
0.0
 30
0.0
  9
$UCSORGLEFT
 10
0.0
 20
0.0
 30
0.0
  9
$UCSORGRIGHT
 10
0.0
 20
0.0
 30
0.0
  9
$UCSORGFRONT
 10
0.0
 20
0.0
 30
0.0
  9
$UCSORGBACK
 10
0.0
 20
0.0
 30
0.0
  9
$PUCSBASE
  2

  9
$PUCSNAME
  2

  9
$PUCSORG
 10
0.0
 20
0.0
 30
0.0
  9
$PUCSXDIR
 10
1.0
 20
0.0
 30
0.0
  9
$PUCSYDIR
 10
0.0
 20
1.0
 30
0.0
  9
$PUCSORTHOREF
  2

  9
$PUCSORTHOVIEW
 70
     0
  9
$PUCSORGTOP
 10
0.0
 20
0.0
 30
0.0
  9
$PUCSORGBOTTOM
 10
0.0
 20
0.0
 30
0.0
  9
$PUCSORGLEFT
 10
0.0
 20
0.0
 30
0.0
  9
$PUCSORGRIGHT
 10
0.0
 20
0.0
 30
0.0
  9
$PUCSORGFRONT
 10
0.0
 20
0.0
 30
0.0
  9
$PUCSORGBACK
 10
0.0
 20
0.0
 30
0.0
  9
$USERI1
 70
     0
  9
$USERI2
 70
     0
  9
$USERI3
 70
     0
  9
$USERI4
 70
     0
  9
$USERI5
 70
     0
  9
$USERR1
 40
0.0
  9
$USERR2
 40
0.0
  9
$USERR3
 40
0.0
  9
$USERR4
 40
0.0
  9
$USERR5
 40
0.0
  9
$WORLDVIEW
 70
     1
  9
$SHADEDGE
 70
     3
  9
$SHADEDIF
 70
    70
  9
$TILEMODE
 70
     1
  9
$MAXACTVP
 70
    64
  9
$PINSBASE
 10
0.0
 20
0.0
 30
0.0
  9
$PLIMCHECK
 70
     0
  9
$PEXTMIN
 10
1.000000000000000E+20
 20
1.000000000000000E+20
 30
1.000000000000000E+20
  9
$PEXTMAX
 10
-1.000000000000000E+20
 20
-1.000000000000000E+20
 30
-1.000000000000000E+20
  9
$PLIMMIN
 10
0.0
 20
0.0
  9
$PLIMMAX
 10
0.0
 20
0.0
  9
$UNITMODE
 70
     0
  9
$VISRETAIN
 70
     1
  9
$PLINEGEN
 70
     0
  9
$PSLTSCALE
 70
     1
  9
$TREEDEPTH
 70
  3020
  9
$CMLSTYLE
  2
Standard
  9
$CMLJUST
 70
     0
  9
$CMLSCALE
 40
20.0
  9
$PROXYGRAPHICS
 70
     1
  9
$MEASUREMENT
 70
     1
  9
$CELWEIGHT
370
    -1
  9
$ENDCAPS
280
     0
  9
$JOINSTYLE
280
     0
  9
$LWDISPLAY
290
     1
  9
$INSUNITS
 70
     4
  9
$HYPERLINKBASE
  1

  9
$STYLESHEET
  1

  9
$XEDIT
290
     1
  9
$CEPSNTYPE
380
     0
  9
$PSTYLEMODE
290
     1
  9
$FINGERPRINTGUID
  2
{126D8F77-C465-444C-B031-87F9694A970D}
  9
$VERSIONGUID
  2
{FAEB1C32-E019-11D5-929B-00C0DF256EC4}
  9
$EXTNAMES
290
     1
  9
$PSVPSCALE
 40
0.0
  9
$OLESTARTUP
290
     0
  0
ENDSEC
  0
SECTION
  2
CLASSES
  0
CLASS
  1
ACDBDICTIONARYWDFLT
  2
AcDbDictionaryWithDefault
  3
ObjectDBX Classes
 90
        0
280
     0
281
     0
  0
CLASS
  1
VISUALSTYLE
  2
AcDbVisualStyle
  3
ObjectDBX Classes
 90
     4095
280
     0
281
     0
  0
CLASS
  1
MATERIAL
  2
AcDbMaterial
  3
ObjectDBX Classes
 90
     1153
280
     0
281
     0
  0
CLASS
  1
SCALE
  2
AcDbScale
  3
ObjectDBX Classes
 90
     1153
280
     0
281
     0
  0
CLASS
  1
SUN
  2
AcDbSun
  3
SCENEOE
 90
     1153
280
     0
281
     0
  0
CLASS
  1
ACDBPLACEHOLDER
  2
AcDbPlaceHolder
  3
ObjectDBX Classes
 90
        0
280
     0
281
     0
  0
CLASS
  1
LAYOUT
  2
AcDbLayout
  3
ObjectDBX Classes
 90
        0
280
     0
281
     0
  0
CLASS
  1
TABLESTYLE
  2
AcDbTableStyle
  3
ObjectDBX Classes
 90
     4095
280
     0
281
     0
  0
CLASS
  1
MLEADERSTYLE
  2
AcDbMLeaderStyle
  3
ACDB_MLEADERSTYLE_CLASS
 90
     4095
280
     0
281
     0
  0
CLASS
  1
RASTERVARIABLES
  2
AcDbRasterVariables
  3
ISM
 90
        0
280
     0
281
     0
  0
CLASS
  1
DIMASSOC
  2
AcDbDimAssoc
  3
"AcDbDimAssoc|Product Desc:     AcDim ARX App For Dimension|Company:          Autodesk, Inc.|WEB Address:      www.autodesk.com"
 90
        0
280
     0
281
     0
  0
ENDSEC
  0
SECTION
  2
TABLES
  0
TABLE
  2
VPORT
  5
8
330
0
100
AcDbSymbolTable
 70
     1
  0
VPORT
  5
29
330
8
100
AcDbSymbolTableRecord
100
AcDbViewportTableRecord
  2
*Active
 70
     0
 10
0.0
 20
0.0
 11
1.0
 21
1.0
 12
-0.000000000007077
 22
-0.75
 13
0.0
 23
0.0
 14
10.0
 24
10.0
 15
10.0
 25
10.0
 16
0.0
 26
0.0
 36
1.0
 17
0.0
 27
0.0
 37
0.0
 40
165.75
 41
2.055766793409379
 42
50.0
 43
0.0
 44
0.0
 50
0.0
 51
0.0
 71
    16
 72
   100
 73
     1
 74
     3
 75
     0
 76
     0
 77
     0
 78
     0
281
     0
 65
     1
110
0.0
120
0.0
130
0.0
111
1.0
121
0.0
131
0.0
112
0.0
122
1.0
132
0.0
 79
     0
146
0.0
  0
ENDTAB
  0
TABLE
  2
LTYPE
  5
5
330
0
100
AcDbSymbolTable
 70
     6
  0
LTYPE
  5
14
330
5
100
AcDbSymbolTableRecord
100
AcDbLinetypeTableRecord
  2
ByBlock
 70
     0
  3

 72
    65
 73
     0
 40
0.0
  0
LTYPE
  5
15
330
5
100
AcDbSymbolTableRecord
100
AcDbLinetypeTableRecord
  2
ByLayer
 70
     0
  3

 72
    65
 73
     0
 40
0.0
  0
LTYPE
  5
16
330
5
100
AcDbSymbolTableRecord
100
AcDbLinetypeTableRecord
  2
Continuous
 70
     0
  3
Solid line
 72
    65
 73
     0
 40
0.0
  0
LTYPE
  5
6A
330
5
100
AcDbSymbolTableRecord
100
AcDbLinetypeTableRecord
  2
HIDDEN
 70
     0
  3
Hidden __ __ __ __ __ __ __ __ __ __ __ __ __ __
 72
    65
 73
     2
 40
1.905
 49
1.27
 74
     0
 49
-0.635
 74
     0
  0
LTYPE
  5
6B
330
5
100
AcDbSymbolTableRecord
100
AcDbLinetypeTableRecord
  2
PHANTOM
 70
     0
  3
Phantom ______  __  __  ______  __  __  ______
 72
    65
 73
     6
 40
12.7
 49
6.35
 74
     0
 49
-1.27
 74
     0
 49
1.27
 74
     0
 49
-1.27
 74
     0
 49
1.27
 74
     0
 49
-1.27
 74
     0
  0
LTYPE
  5
6C
330
5
100
AcDbSymbolTableRecord
100
AcDbLinetypeTableRecord
  2
CENTER
 70
     0
  3
Center ____ _ ____ _ ____ _ ____ _ ____ _ ____
 72
    65
 73
     4
 40
10.16
 49
6.35
 74
     0
 49
-1.27
 74
     0
 49
1.27
 74
     0
 49
-1.27
 74
     0
  0
LTYPE
  5
6D
330
5
100
AcDbSymbolTableRecord
100
AcDbLinetypeTableRecord
  2
CENTERX2
 70
     0
  3
Center (2x) ________  __  ________  __  _____
 72
    65
 73
     4
 40
20.32
 49
12.7
 74
     0
 49
-2.54
 74
     0
 49
2.54
 74
     0
 49
-2.54
 74
     0
  0
LTYPE
  5
6E
330
5
100
AcDbSymbolTableRecord
100
AcDbLinetypeTableRecord
  2
DOT2
 70
     0
  3
Dot (.5x) ........................................
 72
    65
 73
     2
 40
0.635
 49
0.0
 74
     0
 49
-0.635
 74
     0
  0
ENDTAB
  0
TABLE
  2
LAYER
  5
2
102
{ACAD_XDICTIONARY
360
2AC
102
}
330
0
100
AcDbSymbolTable
 70
     5
  0
LAYER
  5
10
330
2
100
AcDbSymbolTableRecord
100
AcDbLayerTableRecord
  2
0
 70
     0
 62
     7
  6
Continuous
370
    -3
390
F
  0
LAYER
  5
2AF
330
2
100
AcDbSymbolTableRecord
100
AcDbLayerTableRecord
  2
clips
 70
     0
 62
     2
  6
Continuous
370
    -3
390
F
1001
AcAecLayerStandard
1000

1000

  0
LAYER
  5
2B1
330
2
100
AcDbSymbolTableRecord
100
AcDbLayerTableRecord
  2
outline
 70
     0
 62
     1
  6
Continuous
370
    -3
390
F
1001
AcAecLayerStandard
1000

1000

  0
LAYER
  5
2E1
330
2
100
AcDbSymbolTableRecord
100
AcDbLayerTableRecord
  2
Defpoints
 70
     0
 62
     7
  6
Continuous
290
     0
370
    -3
390
F
  0
LAYER
  5
301
330
2
100
AcDbSymbolTableRecord
100
AcDbLayerTableRecord
  2
keys
 70
     0
 62
     6
  6
Continuous
370
    -3
390
F
1001
AcAecLayerStandard
1000

1000

  0
ENDTAB
  0
TABLE
  2
STYLE
  5
3
330
0
100
AcDbSymbolTable
 70
     1
  0
STYLE
  5
11
330
3
100
AcDbSymbolTableRecord
100
AcDbTextStyleTableRecord
  2
Standard
 70
     0
 40
0.0
 41
1.0
 50
0.0
 71
     0
 42
3.5
  3
txt
  4

  0
ENDTAB
  0
TABLE
  2
VIEW
  5
6
330
0
100
AcDbSymbolTable
 70
     0
  0
ENDTAB
  0
TABLE
  2
UCS
  5
7
330
0
100
AcDbSymbolTable
 70
     0
  0
ENDTAB
  0
TABLE
  2
APPID
  5
9
330
0
100
AcDbSymbolTable
 70
     2
  0
APPID
  5
12
330
9
100
AcDbSymbolTableRecord
100
AcDbRegAppTableRecord
  2
ACAD
 70
     0
  0
APPID
  5
2B0
330
9
100
AcDbSymbolTableRecord
100
AcDbRegAppTableRecord
  2
AcAecLayerStandard
 70
     0
  0
ENDTAB
  0
TABLE
  2
DIMSTYLE
  5
A
330
0
100
AcDbSymbolTable
 70
     1
100
AcDbDimStyleTable
  0
DIMSTYLE
105
27
330
A
100
AcDbSymbolTableRecord
100
AcDbDimStyleTableRecord
  2
ISO-25
 70
     0
 41
2.5
 42
0.625
 43
3.75
 44
1.25
 73
     0
 74
     0
 77
     1
 78
     8
140
2.5
141
2.5
143
0.0393700787
147
0.625
171
     3
172
     1
178
     0
271
     2
272
     2
274
     3
278
    44
283
     0
284
     8
340
11
  0
ENDTAB
  0
TABLE
  2
BLOCK_RECORD
  5
1
330
0
100
AcDbSymbolTable
 70
     2
  0
BLOCK_RECORD
  5
1F
330
1
100
AcDbSymbolTableRecord
100
AcDbBlockTableRecord
  2
*Model_Space
340
22
  0
BLOCK_RECORD
  5
1B
330
1
100
AcDbSymbolTableRecord
100
AcDbBlockTableRecord
  2
*Paper_Space
340
1E
  0
BLOCK_RECORD
  5
23
330
1
100
AcDbSymbolTableRecord
100
AcDbBlockTableRecord
  2
*Paper_Space0
340
26
  0
BLOCK_RECORD
  5
2E5
330
1
100
AcDbSymbolTableRecord
100
AcDbBlockTableRecord
  2
*D1
340
0
  0
ENDTAB
  0
ENDSEC
  0
SECTION
  2
BLOCKS
  0
BLOCK
  5
20
330
1F
100
AcDbEntity
  8
0
100
AcDbBlockBegin
  2
*Model_Space
 70
     0
 10
0.0
 20
0.0
 30
0.0
  3
*Model_Space
  1
*Model_Space
  0
ENDBLK
  5
21
330
1F
100
AcDbEntity
  8
0
100
AcDbBlockEnd
  0
BLOCK
  5
1C
330
1B
100
AcDbEntity
 67
     1
  8
0
100
AcDbBlockBegin
  2
*Paper_Space
 70
     0
 10
0.0
 20
0.0
 30
0.0
  3
*Paper_Space
  1
*Paper_Space
  0
ENDBLK
  5
1D
330
1B
100
AcDbEntity
 67
     1
  8
0
100
AcDbBlockEnd
  0
BLOCK
  5
24
330
23
100
AcDbEntity
  8
0
100
AcDbBlockBegin
  2
*Paper_Space0
 70
     0
 10
0.0
 20
0.0
 30
0.0
  3
*Paper_Space0
  1
*Paper_Space0
  0
ENDBLK
  5
25
330
23
100
AcDbEntity
  8
0
100
AcDbBlockEnd
  0
BLOCK
  5
2E6
330
2E5
100
AcDbEntity
  8
0
100
AcDbBlockBegin
  2
*D1
 70
     1
 10
0.0
 20
0.0
 30
0.0
  3
*D1
  1
*D1
  0
LINE
  5
2E8
330
2E5
100
AcDbEntity
  8
0
 62
     0
370
    -2
100
AcDbLine
 10
-121.1407024641
 20
62.0
 30
0.0
 11
-161.965653220057
 21
62.0
 31
0.0
  0
LINE
  5
2E9
330
2E5
100
AcDbEntity
  8
0
 62
     0
370
    -2
100
AcDbLine
 10
-121.1407024641
 20
-62.0
 30
0.0
 11
-161.965653220057
 21
-62.0
 31
0.0
  0
LINE
  5
2EA
330
2E5
100
AcDbEntity
  8
0
 62
     0
370
    -2
100
AcDbLine
 10
-160.965653220057
 20
58.698
 30
0.0
 11
-160.965653220057
 21
3.565666666666658
 31
0.0
  0
LINE
  5
2EB
330
2E5
100
AcDbEntity
  8
0
 62
     0
370
    -2
100
AcDbLine
 10
-160.965653220057
 20
-58.698
 30
0.0
 11
-160.965653220057
 21
-3.565666666666672
 31
0.0
  0
SOLID
  5
2EC
330
2E5
100
AcDbEntity
  8
0
 62
     0
100
AcDbTrace
 10
-160.4153198867237
 20
58.698
 30
0.0
 11
-161.5159865533904
 21
58.698
 31
0.0
 12
-160.965653220057
 22
62.0
 32
0.0
 13
-160.965653220057
 23
62.0
 33
0.0
  0
SOLID
  5
2ED
330
2E5
100
AcDbEntity
  8
0
 62
     0
100
AcDbTrace
 10
-161.5159865533904
 20
-58.698
 30
0.0
 11
-160.4153198867237
 21
-58.698
 31
0.0
 12
-160.965653220057
 22
-62.0
 32
0.0
 13
-160.965653220057
 23
-62.0
 33
0.0
  0
MTEXT
  5
2EE
330
2E5
100
AcDbEntity
  8
0
 62
     0
100
AcDbMText
 10
-160.965653220057
 20
0.0
 30
0.0
 40
3.5
 41
0.0
 71
     5
 72
     1
  1
124,00
 73
     1
 44
1.0
  0
POINT
  5
2EF
330
2E5
100
AcDbEntity
  8
Defpoints
 62
     0
100
AcDbPoint
 10
-120.1407024641
 20
62.0
 30
0.0
  0
POINT
  5
2F0
330
2E5
100
AcDbEntity
  8
Defpoints
 62
     0
100
AcDbPoint
 10
-120.1407024641
 20
-62.0
 30
0.0
  0
POINT
  5
2F1
330
2E5
100
AcDbEntity
  8
Defpoints
 62
     0
100
AcDbPoint
 10
-160.965653220057
 20
-62.0
 30
0.0
  0
ENDBLK
  5
2E7
330
2E5
100
AcDbEntity
  8
0
100
AcDbBlockEnd
  0
ENDSEC
  0
SECTION
  2
ENTITIES
  0
LINE
  5
17C
330
1F
100
AcDbEntity
  8
outline
  6
Continuous
370
    15
100
AcDbLine
 10
120.1407024641
 20
77.0
 30
0.0
 11
35.0
 21
77.0
 31
0.0
  0
LINE
  5
17D
330
1F
100
AcDbEntity
  8
outline
  6
Continuous
370
    15
100
AcDbLine
 10
35.0
 20
-77.0
 30
0.0
 11
120.1407024641
 21
-77.0
 31
0.0
  0
LINE
  5
17E
330
1F
100
AcDbEntity
  8
outline
  6
Continuous
370
    15
100
AcDbLine
 10
-120.1407024641
 20
-77.0
 30
0.0
 11
-35.0
 21
-77.0
 31
0.0
  0
LINE
  5
1F3
330
1F
100
AcDbEntity
  8
outline
  6
Continuous
370
    15
100
AcDbLine
 10
-35.0
 20
77.0
 30
0.0
 11
-120.1407024641
 21
77.0
 31
0.0
  0
LINE
  5
1F4
330
1F
100
AcDbEntity
  8
clips
  6
Continuous
370
    15
100
AcDbLine
 10
-89.0
 20
-82.0
 30
0.0
 11
-102.0
 21
-82.0
 31
0.0
  0
LINE
  5
1F5
330
1F
100
AcDbEntity
  8
clips
  6
Continuous
370
    15
100
AcDbLine
 10
-102.0
 20
-82.0
 30
0.0
 11
-102.0
 21
-79.0
 31
0.0
  0
LINE
  5
1F6
330
1F
100
AcDbEntity
  8
clips
  6
Continuous
370
    15
100
AcDbLine
 10
-89.0
 20
-82.0
 30
0.0
 11
-89.0
 21
-79.0
 31
0.0
  0
LINE
  5
1F7
330
1F
100
AcDbEntity
  8
clips
  6
Continuous
370
    15
100
AcDbLine
 10
102.0
 20
80.5
 30
0.0
 11
102.0
 21
79.0
 31
0.0
  0
LINE
  5
1F8
330
1F
100
AcDbEntity
  8
clips
  6
Continuous
370
    15
100
AcDbLine
 10
89.0
 20
80.5
 30
0.0
 11
89.0
 21
79.0
 31
0.0
  0
LINE
  5
1F9
330
1F
100
AcDbEntity
  8
clips
  6
Continuous
370
    15
100
AcDbLine
 10
89.0
 20
80.5
 30
0.0
 11
102.0
 21
80.5
 31
0.0
  0
LINE
  5
1FA
330
1F
100
AcDbEntity
  8
clips
  6
Continuous
370
    15
100
AcDbLine
 10
-89.0
 20
80.5
 30
0.0
 11
-89.0
 21
79.0
 31
0.0
  0
LINE
  5
1FB
330
1F
100
AcDbEntity
  8
clips
  6
Continuous
370
    15
100
AcDbLine
 10
-102.0
 20
80.5
 30
0.0
 11
-102.0
 21
79.0
 31
0.0
  0
LINE
  5
1FC
330
1F
100
AcDbEntity
  8
clips
  6
Continuous
370
    15
100
AcDbLine
 10
-102.0
 20
80.5
 30
0.0
 11
-89.0
 21
80.5
 31
0.0
  0
LINE
  5
1FD
330
1F
100
AcDbEntity
  8
clips
  6
Continuous
370
    15
100
AcDbLine
 10
102.0
 20
-82.0
 30
0.0
 11
89.0
 21
-82.0
 31
0.0
  0
LINE
  5
1FE
330
1F
100
AcDbEntity
  8
clips
  6
Continuous
370
    15
100
AcDbLine
 10
102.0
 20
-82.0
 30
0.0
 11
102.0
 21
-79.0
 31
0.0
  0
LINE
  5
1FF
330
1F
100
AcDbEntity
  8
clips
  6
Continuous
370
    15
100
AcDbLine
 10
89.0
 20
-82.0
 30
0.0
 11
89.0
 21
-79.0
 31
0.0
  0
ARC
  5
200
330
1F
100
AcDbEntity
  8
outline
  6
Continuous
370
    15
100
AcDbCircle
 10
35.0
 20
24.4583333333
 30
0.0
 40
52.54166666666757
100
AcDbArc
 50
90.0
 51
109.4551571028
  0
ARC
  5
201
330
1F
100
AcDbEntity
  8
outline
  6
Continuous
370
    15
100
AcDbCircle
 10
120.1407024641
 20
71.0
 30
0.0
 40
6.000000000000114
100
AcDbArc
 50
6.222649865400001
 51
90.0
  0
ARC
  5
202
330
1F
100
AcDbEntity
  8
outline
  6
Continuous
370
    15
100
AcDbCircle
 10
-531.0277777778
 20
0.0
 30
0.0
 40
661.0277777777594
100
AcDbArc
 50
353.7773501346001
 51
6.222649865400001
  0
ARC
  5
203
330
1F
100
AcDbEntity
  8
outline
  6
Continuous
370
    15
100
AcDbCircle
 10
120.1407024641
 20
-71.0
 30
0.0
 40
6.000000000000131
100
AcDbArc
 50
270.0
 51
353.7773501346001
  0
ARC
  5
204
330
1F
100
AcDbEntity
  8
outline
  6
Continuous
370
    15
100
AcDbCircle
 10
35.0
 20
-24.4583333333
 30
0.0
 40
52.54166666666757
100
AcDbArc
 50
250.5448428972
 51
270.0
  0
ARC
  5
205
330
1F
100
AcDbEntity
  8
outline
  6
Continuous
370
    15
100
AcDbCircle
 10
0.0
 20
-123.5416666667
 30
0.0
 40
52.5416666666662
100
AcDbArc
 50
70.5448428972
 51
109.4551571028
  0
ARC
  5
206
330
1F
100
AcDbEntity
  8
outline
  6
Continuous
370
    15
100
AcDbCircle
 10
-35.0
 20
-24.4583333333
 30
0.0
 40
52.54166666666352
100
AcDbArc
 50
270.0
 51
289.4551571028001
  0
ARC
  5
207
330
1F
100
AcDbEntity
  8
outline
  6
Continuous
370
    15
100
AcDbCircle
 10
-120.1407024641
 20
-71.0
 30
0.0
 40
5.999999999999992
100
AcDbArc
 50
186.2226498654
 51
270.0
  0
ARC
  5
208
330
1F
100
AcDbEntity
  8
outline
  6
Continuous
370
    15
100
AcDbCircle
 10
531.0277777778
 20
0.0
 30
0.0
 40
661.0277777777735
100
AcDbArc
 50
173.7773501346
 51
186.2226498654
  0
ARC
  5
209
330
1F
100
AcDbEntity
  8
outline
  6
Continuous
370
    15
100
AcDbCircle
 10
-120.1407024641
 20
71.0
 30
0.0
 40
5.999999999999844
100
AcDbArc
 50
90.0
 51
173.7773501346
  0
ARC
  5
20A
330
1F
100
AcDbEntity
  8
outline
  6
Continuous
370
    15
100
AcDbCircle
 10
-35.0
 20
24.4583333333
 30
0.0
 40
52.54166666666352
100
AcDbArc
 50
70.5448428972
 51
90.0
  0
ARC
  5
20B
330
1F
100
AcDbEntity
  8
outline
  6
Continuous
370
    15
100
AcDbCircle
 10
0.0
 20
123.5416666667
 30
0.0
 40
52.5416666666662
100
AcDbArc
 50
250.5448428972
 51
289.4551571028001
  0
ARC
  5
280
330
1F
100
AcDbEntity
  8
clips
  6
Continuous
370
    15
100
AcDbCircle
 10
-87.0
 20
-79.0
 30
0.0
 40
2.000000000000043
100
AcDbArc
 50
90.0
 51
180.0
  0
ARC
  5
281
330
1F
100
AcDbEntity
  8
clips
  6
Continuous
370
    15
100
AcDbCircle
 10
-104.0
 20
-79.0
 30
0.0
 40
2.0
100
AcDbArc
 50
0.0
 51
90.0
  0
ARC
  5
282
330
1F
100
AcDbEntity
  8
clips
  6
Continuous
370
    15
100
AcDbCircle
 10
104.0
 20
79.0
 30
0.0
 40
2.000000000000611
100
AcDbArc
 50
180.0
 51
270.0
  0
ARC
  5
283
330
1F
100
AcDbEntity
  8
clips
  6
Continuous
370
    15
100
AcDbCircle
 10
87.0
 20
79.0
 30
0.0
 40
1.999999999998707
100
AcDbArc
 50
270.0
 51
0.0
  0
ARC
  5
284
330
1F
100
AcDbEntity
  8
clips
  6
Continuous
370
    15
100
AcDbCircle
 10
-87.0
 20
79.0
 30
0.0
 40
2.000000000000668
100
AcDbArc
 50
180.0
 51
270.0
  0
ARC
  5
285
330
1F
100
AcDbEntity
  8
clips
  6
Continuous
370
    15
100
AcDbCircle
 10
-104.0
 20
79.0
 30
0.0
 40
1.999999999998678
100
AcDbArc
 50
270.0
 51
0.0
  0
ARC
  5
286
330
1F
100
AcDbEntity
  8
clips
  6
Continuous
370
    15
100
AcDbCircle
 10
104.0
 20
-79.0
 30
0.0
 40
2.0
100
AcDbArc
 50
90.0
 51
180.0
  0
ARC
  5
287
330
1F
100
AcDbEntity
  8
clips
  6
Continuous
370
    15
100
AcDbCircle
 10
87.0
 20
-79.0
 30
0.0
 40
2.000000000000043
100
AcDbArc
 50
0.0
 51
90.0
  0
LINE
  5
2F7
330
1F
100
AcDbEntity
  8
keys
100
AcDbLine
 10
-110.0
 20
-38.50000000000001
 30
0.0
 11
-110.0
 21
-54.5
 31
0.0
  0
LINE
  5
2F8
330
1F
100
AcDbEntity
  8
keys
100
AcDbLine
 10
-77.49999999999999
 20
-38.50000000000001
 30
0.0
 11
-77.49999999999999
 21
-54.5
 31
0.0
  0
LINE
  5
2F9
330
1F
100
AcDbEntity
  8
keys
  6
Continuous
370
    15
100
AcDbLine
 10
-105.0
 20
-59.5
 30
0.0
 11
-82.5
 21
-59.5
 31
0.0
  0
LINE
  5
2FA
330
1F
100
AcDbEntity
  8
keys
  6
Continuous
370
    15
100
AcDbLine
 10
-105.0
 20
-33.50000000000001
 30
0.0
 11
-82.49999999999999
 21
-33.50000000000001
 31
0.0
  0
ARC
  5
2FB
330
1F
100
AcDbEntity
  8
keys
100
AcDbCircle
 10
-105.0
 20
-38.50000000000001
 30
0.0
 40
5.000000000000001
100
AcDbArc
 50
90.0
 51
180.0
  0
ARC
  5
2FC
330
1F
100
AcDbEntity
  8
keys
100
AcDbCircle
 10
-82.49999999999999
 20
-38.50000000000001
 30
0.0
 40
5.0
100
AcDbArc
 50
0.0
 51
90.0
  0
ARC
  5
2FD
330
1F
100
AcDbEntity
  8
keys
100
AcDbCircle
 10
-82.49999999999999
 20
-54.5
 30
0.0
 40
4.999999999999998
100
AcDbArc
 50
270.0
 51
0.0
  0
ARC
  5
2FE
330
1F
100
AcDbEntity
  8
keys
100
AcDbCircle
 10
-105.0
 20
-54.5
 30
0.0
 40
5.000000000000001
100
AcDbArc
 50
180.0
 51
270.0
  0
LINE
  5
305
330
1F
100
AcDbEntity
  8
keys
100
AcDbLine
 10
-110.0
 20
-7.500000000000014
 30
0.0
 11
-110.0
 21
-23.5
 31
0.0
  0
LINE
  5
306
330
1F
100
AcDbEntity
  8
keys
100
AcDbLine
 10
-77.49999999999996
 20
-7.500000000000014
 30
0.0
 11
-77.49999999999996
 21
-23.5
 31
0.0
  0
LINE
  5
307
330
1F
100
AcDbEntity
  8
keys
  6
Continuous
370
    15
100
AcDbLine
 10
-105.0
 20
-28.5
 30
0.0
 11
-82.49999999999997
 21
-28.5
 31
0.0
  0
LINE
  5
308
330
1F
100
AcDbEntity
  8
keys
  6
Continuous
370
    15
100
AcDbLine
 10
-105.0
 20
-2.500000000000014
 30
0.0
 11
-82.49999999999996
 21
-2.500000000000007
 31
0.0
  0
ARC
  5
309
330
1F
100
AcDbEntity
  8
keys
100
AcDbCircle
 10
-105.0
 20
-7.500000000000014
 30
0.0
 40
5.000000000000001
100
AcDbArc
 50
90.0
 51
180.0
  0
ARC
  5
30A
330
1F
100
AcDbEntity
  8
keys
100
AcDbCircle
 10
-82.49999999999996
 20
-7.500000000000007
 30
0.0
 40
5.0
100
AcDbArc
 50
0.0
 51
90.0
  0
ARC
  5
30B
330
1F
100
AcDbEntity
  8
keys
100
AcDbCircle
 10
-82.49999999999996
 20
-23.5
 30
0.0
 40
4.999999999999998
100
AcDbArc
 50
270.0
 51
0.0
  0
ARC
  5
30C
330
1F
100
AcDbEntity
  8
keys
100
AcDbCircle
 10
-105.0
 20
-23.5
 30
0.0
 40
5.000000000000001
100
AcDbArc
 50
180.0
 51
270.0
  0
LINE
  5
30D
330
1F
100
AcDbEntity
  8
keys
100
AcDbLine
 10
-109.9999999999999
 20
23.50000000000004
 30
0.0
 11
-110.0
 21
7.500000000000057
 31
0.0
  0
LINE
  5
30E
330
1F
100
AcDbEntity
  8
keys
100
AcDbLine
 10
-77.49999999999994
 20
23.50000000000004
 30
0.0
 11
-77.49999999999994
 21
7.500000000000057
 31
0.0
  0
LINE
  5
30F
330
1F
100
AcDbEntity
  8
keys
  6
Continuous
370
    15
100
AcDbLine
 10
-105.0
 20
2.500000000000057
 30
0.0
 11
-82.49999999999996
 21
2.500000000000057
 31
0.0
  0
LINE
  5
310
330
1F
100
AcDbEntity
  8
keys
  6
Continuous
370
    15
100
AcDbLine
 10
-104.9999999999999
 20
28.50000000000004
 30
0.0
 11
-82.49999999999994
 21
28.50000000000005
 31
0.0
  0
ARC
  5
311
330
1F
100
AcDbEntity
  8
keys
100
AcDbCircle
 10
-104.9999999999999
 20
23.50000000000004
 30
0.0
 40
5.000000000000001
100
AcDbArc
 50
90.0
 51
180.0
  0
ARC
  5
312
330
1F
100
AcDbEntity
  8
keys
100
AcDbCircle
 10
-82.49999999999994
 20
23.50000000000005
 30
0.0
 40
5.0
100
AcDbArc
 50
0.0
 51
90.0
  0
ARC
  5
313
330
1F
100
AcDbEntity
  8
keys
100
AcDbCircle
 10
-82.49999999999994
 20
7.500000000000057
 30
0.0
 40
4.999999999999998
100
AcDbArc
 50
270.0
 51
0.0
  0
ARC
  5
314
330
1F
100
AcDbEntity
  8
keys
100
AcDbCircle
 10
-105.0
 20
7.500000000000057
 30
0.0
 40
5.000000000000001
100
AcDbArc
 50
180.0
 51
270.0
  0
LINE
  5
315
330
1F
100
AcDbEntity
  8
keys
100
AcDbLine
 10
-109.9999999999999
 20
54.49999999999999
 30
0.0
 11
-109.9999999999999
 21
38.5
 31
0.0
  0
LINE
  5
316
330
1F
100
AcDbEntity
  8
keys
100
AcDbLine
 10
-77.49999999999993
 20
54.49999999999999
 30
0.0
 11
-77.49999999999993
 21
38.5
 31
0.0
  0
LINE
  5
317
330
1F
100
AcDbEntity
  8
keys
  6
Continuous
370
    15
100
AcDbLine
 10
-104.9999999999999
 20
33.5
 30
0.0
 11
-82.49999999999994
 21
33.5
 31
0.0
  0
LINE
  5
318
330
1F
100
AcDbEntity
  8
keys
  6
Continuous
370
    15
100
AcDbLine
 10
-104.9999999999999
 20
59.49999999999999
 30
0.0
 11
-82.49999999999993
 21
59.49999999999999
 31
0.0
  0
ARC
  5
319
330
1F
100
AcDbEntity
  8
keys
100
AcDbCircle
 10
-104.9999999999999
 20
54.49999999999999
 30
0.0
 40
5.000000000000001
100
AcDbArc
 50
90.0
 51
180.0
  0
ARC
  5
31A
330
1F
100
AcDbEntity
  8
keys
100
AcDbCircle
 10
-82.49999999999993
 20
54.49999999999999
 30
0.0
 40
5.0
100
AcDbArc
 50
0.0
 51
90.0
  0
ARC
  5
31B
330
1F
100
AcDbEntity
  8
keys
100
AcDbCircle
 10
-82.49999999999993
 20
38.5
 30
0.0
 40
4.999999999999998
100
AcDbArc
 50
270.0
 51
0.0
  0
ARC
  5
31C
330
1F
100
AcDbEntity
  8
keys
100
AcDbCircle
 10
-104.9999999999999
 20
38.5
 30
0.0
 40
5.000000000000001
100
AcDbArc
 50
180.0
 51
270.0
  0
LINE
  5
31D
330
1F
100
AcDbEntity
  8
keys
100
AcDbLine
 10
-72.49999999999999
 20
-38.50000000000004
 30
0.0
 11
-72.5
 21
-54.50000000000003
 31
0.0
  0
LINE
  5
31E
330
1F
100
AcDbEntity
  8
keys
100
AcDbLine
 10
-39.99999999999999
 20
-38.50000000000004
 30
0.0
 11
-39.99999999999999
 21
-54.50000000000003
 31
0.0
  0
LINE
  5
31F
330
1F
100
AcDbEntity
  8
keys
  6
Continuous
370
    15
100
AcDbLine
 10
-67.5
 20
-59.50000000000003
 30
0.0
 11
-45.0
 21
-59.50000000000003
 31
0.0
  0
LINE
  5
320
330
1F
100
AcDbEntity
  8
keys
  6
Continuous
370
    15
100
AcDbLine
 10
-67.49999999999999
 20
-33.50000000000004
 30
0.0
 11
-44.99999999999999
 21
-33.50000000000004
 31
0.0
  0
ARC
  5
321
330
1F
100
AcDbEntity
  8
keys
100
AcDbCircle
 10
-67.49999999999999
 20
-38.50000000000004
 30
0.0
 40
5.000000000000001
100
AcDbArc
 50
90.0
 51
180.0
  0
ARC
  5
322
330
1F
100
AcDbEntity
  8
keys
100
AcDbCircle
 10
-44.99999999999999
 20
-38.50000000000004
 30
0.0
 40
5.0
100
AcDbArc
 50
0.0
 51
90.0
  0
ARC
  5
323
330
1F
100
AcDbEntity
  8
keys
100
AcDbCircle
 10
-44.99999999999999
 20
-54.50000000000003
 30
0.0
 40
4.999999999999998
100
AcDbArc
 50
270.0
 51
0.0
  0
ARC
  5
324
330
1F
100
AcDbEntity
  8
keys
100
AcDbCircle
 10
-67.5
 20
-54.50000000000003
 30
0.0
 40
5.000000000000001
100
AcDbArc
 50
180.0
 51
270.0
  0
LINE
  5
325
330
1F
100
AcDbEntity
  8
keys
100
AcDbLine
 10
-72.49999999999996
 20
-7.500000000000043
 30
0.0
 11
-72.49999999999997
 21
-23.50000000000003
 31
0.0
  0
LINE
  5
326
330
1F
100
AcDbEntity
  8
keys
100
AcDbLine
 10
-39.99999999999996
 20
-7.500000000000043
 30
0.0
 11
-39.99999999999996
 21
-23.50000000000003
 31
0.0
  0
LINE
  5
327
330
1F
100
AcDbEntity
  8
keys
  6
Continuous
370
    15
100
AcDbLine
 10
-67.49999999999997
 20
-28.50000000000003
 30
0.0
 11
-44.99999999999997
 21
-28.50000000000003
 31
0.0
  0
LINE
  5
328
330
1F
100
AcDbEntity
  8
keys
  6
Continuous
370
    15
100
AcDbLine
 10
-67.49999999999996
 20
-2.500000000000043
 30
0.0
 11
-44.99999999999996
 21
-2.500000000000036
 31
0.0
  0
ARC
  5
329
330
1F
100
AcDbEntity
  8
keys
100
AcDbCircle
 10
-67.49999999999996
 20
-7.500000000000043
 30
0.0
 40
5.000000000000001
100
AcDbArc
 50
90.0
 51
180.0
  0
ARC
  5
32A
330
1F
100
AcDbEntity
  8
keys
100
AcDbCircle
 10
-44.99999999999996
 20
-7.500000000000036
 30
0.0
 40
5.0
100
AcDbArc
 50
0.0
 51
90.0
  0
ARC
  5
32B
330
1F
100
AcDbEntity
  8
keys
100
AcDbCircle
 10
-44.99999999999996
 20
-23.50000000000003
 30
0.0
 40
4.999999999999998
100
AcDbArc
 50
270.0
 51
0.0
  0
ARC
  5
32C
330
1F
100
AcDbEntity
  8
keys
100
AcDbCircle
 10
-67.49999999999997
 20
-23.50000000000003
 30
0.0
 40
5.000000000000001
100
AcDbArc
 50
180.0
 51
270.0
  0
LINE
  5
32D
330
1F
100
AcDbEntity
  8
keys
100
AcDbLine
 10
-72.49999999999994
 20
23.50000000000001
 30
0.0
 11
-72.49999999999996
 21
7.500000000000028
 31
0.0
  0
LINE
  5
32E
330
1F
100
AcDbEntity
  8
keys
100
AcDbLine
 10
-39.99999999999994
 20
23.50000000000001
 30
0.0
 11
-39.99999999999994
 21
7.500000000000028
 31
0.0
  0
LINE
  5
32F
330
1F
100
AcDbEntity
  8
keys
  6
Continuous
370
    15
100
AcDbLine
 10
-67.49999999999996
 20
2.500000000000028
 30
0.0
 11
-44.99999999999996
 21
2.500000000000028
 31
0.0
  0
LINE
  5
330
330
1F
100
AcDbEntity
  8
keys
  6
Continuous
370
    15
100
AcDbLine
 10
-67.49999999999994
 20
28.50000000000001
 30
0.0
 11
-44.99999999999994
 21
28.50000000000002
 31
0.0
  0
ARC
  5
331
330
1F
100
AcDbEntity
  8
keys
100
AcDbCircle
 10
-67.49999999999994
 20
23.50000000000001
 30
0.0
 40
5.000000000000001
100
AcDbArc
 50
90.0
 51
180.0
  0
ARC
  5
332
330
1F
100
AcDbEntity
  8
keys
100
AcDbCircle
 10
-44.99999999999994
 20
23.50000000000002
 30
0.0
 40
5.0
100
AcDbArc
 50
0.0
 51
90.0
  0
ARC
  5
333
330
1F
100
AcDbEntity
  8
keys
100
AcDbCircle
 10
-44.99999999999994
 20
7.500000000000028
 30
0.0
 40
4.999999999999998
100
AcDbArc
 50
270.0
 51
0.0
  0
ARC
  5
334
330
1F
100
AcDbEntity
  8
keys
100
AcDbCircle
 10
-67.49999999999996
 20
7.500000000000028
 30
0.0
 40
5.000000000000001
100
AcDbArc
 50
180.0
 51
270.0
  0
LINE
  5
335
330
1F
100
AcDbEntity
  8
keys
100
AcDbLine
 10
-34.99999999999999
 20
-38.50000000000007
 30
0.0
 11
-35.0
 21
-54.50000000000006
 31
0.0
  0
LINE
  5
336
330
1F
100
AcDbEntity
  8
keys
100
AcDbLine
 10
-2.499999999999986
 20
-38.50000000000007
 30
0.0
 11
-2.499999999999986
 21
-54.50000000000006
 31
0.0
  0
LINE
  5
337
330
1F
100
AcDbEntity
  8
keys
  6
Continuous
370
    15
100
AcDbLine
 10
-30.0
 20
-59.50000000000006
 30
0.0
 11
-7.5
 21
-59.50000000000006
 31
0.0
  0
LINE
  5
338
330
1F
100
AcDbEntity
  8
keys
  6
Continuous
370
    15
100
AcDbLine
 10
-29.99999999999999
 20
-33.50000000000007
 30
0.0
 11
-7.499999999999986
 21
-33.50000000000006
 31
0.0
  0
ARC
  5
339
330
1F
100
AcDbEntity
  8
keys
100
AcDbCircle
 10
-29.99999999999999
 20
-38.50000000000007
 30
0.0
 40
5.000000000000001
100
AcDbArc
 50
90.0
 51
180.0
  0
ARC
  5
33A
330
1F
100
AcDbEntity
  8
keys
100
AcDbCircle
 10
-7.499999999999986
 20
-38.50000000000006
 30
0.0
 40
5.0
100
AcDbArc
 50
0.0
 51
90.0
  0
ARC
  5
33B
330
1F
100
AcDbEntity
  8
keys
100
AcDbCircle
 10
-7.499999999999986
 20
-54.50000000000006
 30
0.0
 40
4.999999999999998
100
AcDbArc
 50
270.0
 51
0.0
  0
ARC
  5
33C
330
1F
100
AcDbEntity
  8
keys
100
AcDbCircle
 10
-30.0
 20
-54.50000000000006
 30
0.0
 40
5.000000000000001
100
AcDbArc
 50
180.0
 51
270.0
  0
LINE
  5
33D
330
1F
100
AcDbEntity
  8
keys
100
AcDbLine
 10
-34.99999999999996
 20
-7.500000000000071
 30
0.0
 11
-34.99999999999997
 21
-23.50000000000006
 31
0.0
  0
LINE
  5
33E
330
1F
100
AcDbEntity
  8
keys
100
AcDbLine
 10
-2.499999999999957
 20
-7.500000000000071
 30
0.0
 11
-2.499999999999957
 21
-23.50000000000006
 31
0.0
  0
LINE
  5
33F
330
1F
100
AcDbEntity
  8
keys
  6
Continuous
370
    15
100
AcDbLine
 10
-29.99999999999997
 20
-28.50000000000006
 30
0.0
 11
-7.499999999999972
 21
-28.50000000000006
 31
0.0
  0
LINE
  5
340
330
1F
100
AcDbEntity
  8
keys
  6
Continuous
370
    15
100
AcDbLine
 10
-29.99999999999996
 20
-2.500000000000071
 30
0.0
 11
-7.499999999999957
 21
-2.500000000000064
 31
0.0
  0
ARC
  5
341
330
1F
100
AcDbEntity
  8
keys
100
AcDbCircle
 10
-29.99999999999996
 20
-7.500000000000071
 30
0.0
 40
5.000000000000001
100
AcDbArc
 50
90.0
 51
180.0
  0
ARC
  5
342
330
1F
100
AcDbEntity
  8
keys
100
AcDbCircle
 10
-7.499999999999957
 20
-7.500000000000064
 30
0.0
 40
5.0
100
AcDbArc
 50
0.0
 51
90.0
  0
ARC
  5
343
330
1F
100
AcDbEntity
  8
keys
100
AcDbCircle
 10
-7.499999999999957
 20
-23.50000000000006
 30
0.0
 40
4.999999999999998
100
AcDbArc
 50
270.0
 51
0.0
  0
ARC
  5
344
330
1F
100
AcDbEntity
  8
keys
100
AcDbCircle
 10
-29.99999999999997
 20
-23.50000000000006
 30
0.0
 40
5.000000000000001
100
AcDbArc
 50
180.0
 51
270.0
  0
LINE
  5
345
330
1F
100
AcDbEntity
  8
keys
100
AcDbLine
 10
-34.99999999999994
 20
23.49999999999999
 30
0.0
 11
-34.99999999999996
 21
7.5
 31
0.0
  0
LINE
  5
346
330
1F
100
AcDbEntity
  8
keys
100
AcDbLine
 10
-2.499999999999943
 20
23.49999999999999
 30
0.0
 11
-2.499999999999943
 21
7.5
 31
0.0
  0
LINE
  5
347
330
1F
100
AcDbEntity
  8
keys
  6
Continuous
370
    15
100
AcDbLine
 10
-29.99999999999996
 20
2.5
 30
0.0
 11
-7.499999999999957
 21
2.5
 31
0.0
  0
LINE
  5
348
330
1F
100
AcDbEntity
  8
keys
  6
Continuous
370
    15
100
AcDbLine
 10
-29.99999999999994
 20
28.49999999999999
 30
0.0
 11
-7.499999999999943
 21
28.49999999999999
 31
0.0
  0
ARC
  5
349
330
1F
100
AcDbEntity
  8
keys
100
AcDbCircle
 10
-29.99999999999994
 20
23.49999999999999
 30
0.0
 40
5.000000000000001
100
AcDbArc
 50
90.0
 51
180.0
  0
ARC
  5
34A
330
1F
100
AcDbEntity
  8
keys
100
AcDbCircle
 10
-7.499999999999943
 20
23.49999999999999
 30
0.0
 40
5.0
100
AcDbArc
 50
0.0
 51
90.0
  0
ARC
  5
34B
330
1F
100
AcDbEntity
  8
keys
100
AcDbCircle
 10
-7.499999999999943
 20
7.5
 30
0.0
 40
4.999999999999998
100
AcDbArc
 50
270.0
 51
0.0
  0
ARC
  5
34C
330
1F
100
AcDbEntity
  8
keys
100
AcDbCircle
 10
-29.99999999999996
 20
7.5
 30
0.0
 40
5.000000000000001
100
AcDbArc
 50
180.0
 51
270.0
  0
LINE
  5
34D
330
1F
100
AcDbEntity
  8
keys
100
AcDbLine
 10
2.500000000000014
 20
-38.50000000000007
 30
0.0
 11
2.5
 21
-54.50000000000006
 31
0.0
  0
LINE
  5
34E
330
1F
100
AcDbEntity
  8
keys
100
AcDbLine
 10
35.00000000000001
 20
-38.50000000000007
 30
0.0
 11
35.00000000000001
 21
-54.50000000000006
 31
0.0
  0
LINE
  5
34F
330
1F
100
AcDbEntity
  8
keys
  6
Continuous
370
    15
100
AcDbLine
 10
7.5
 20
-59.50000000000006
 30
0.0
 11
30.0
 21
-59.50000000000006
 31
0.0
  0
LINE
  5
350
330
1F
100
AcDbEntity
  8
keys
  6
Continuous
370
    15
100
AcDbLine
 10
7.500000000000014
 20
-33.50000000000007
 30
0.0
 11
30.00000000000001
 21
-33.50000000000006
 31
0.0
  0
ARC
  5
351
330
1F
100
AcDbEntity
  8
keys
100
AcDbCircle
 10
7.500000000000014
 20
-38.50000000000007
 30
0.0
 40
5.000000000000001
100
AcDbArc
 50
90.0
 51
180.0
  0
ARC
  5
352
330
1F
100
AcDbEntity
  8
keys
100
AcDbCircle
 10
30.00000000000001
 20
-38.50000000000006
 30
0.0
 40
5.0
100
AcDbArc
 50
0.0
 51
90.0
  0
ARC
  5
353
330
1F
100
AcDbEntity
  8
keys
100
AcDbCircle
 10
30.00000000000001
 20
-54.50000000000006
 30
0.0
 40
4.999999999999998
100
AcDbArc
 50
270.0
 51
0.0
  0
ARC
  5
354
330
1F
100
AcDbEntity
  8
keys
100
AcDbCircle
 10
7.5
 20
-54.50000000000006
 30
0.0
 40
5.000000000000001
100
AcDbArc
 50
180.0
 51
270.0
  0
LINE
  5
355
330
1F
100
AcDbEntity
  8
keys
100
AcDbLine
 10
2.500000000000043
 20
-7.500000000000071
 30
0.0
 11
2.500000000000028
 21
-23.50000000000006
 31
0.0
  0
LINE
  5
356
330
1F
100
AcDbEntity
  8
keys
100
AcDbLine
 10
35.00000000000004
 20
-7.500000000000071
 30
0.0
 11
35.00000000000004
 21
-23.50000000000006
 31
0.0
  0
LINE
  5
357
330
1F
100
AcDbEntity
  8
keys
  6
Continuous
370
    15
100
AcDbLine
 10
7.500000000000028
 20
-28.50000000000006
 30
0.0
 11
30.00000000000003
 21
-28.50000000000006
 31
0.0
  0
LINE
  5
358
330
1F
100
AcDbEntity
  8
keys
  6
Continuous
370
    15
100
AcDbLine
 10
7.500000000000043
 20
-2.500000000000071
 30
0.0
 11
30.00000000000004
 21
-2.500000000000064
 31
0.0
  0
ARC
  5
359
330
1F
100
AcDbEntity
  8
keys
100
AcDbCircle
 10
7.500000000000043
 20
-7.500000000000071
 30
0.0
 40
5.000000000000001
100
AcDbArc
 50
90.0
 51
180.0
  0
ARC
  5
35A
330
1F
100
AcDbEntity
  8
keys
100
AcDbCircle
 10
30.00000000000004
 20
-7.500000000000064
 30
0.0
 40
5.0
100
AcDbArc
 50
0.0
 51
90.0
  0
ARC
  5
35B
330
1F
100
AcDbEntity
  8
keys
100
AcDbCircle
 10
30.00000000000004
 20
-23.50000000000006
 30
0.0
 40
4.999999999999998
100
AcDbArc
 50
270.0
 51
0.0
  0
ARC
  5
35C
330
1F
100
AcDbEntity
  8
keys
100
AcDbCircle
 10
7.500000000000028
 20
-23.50000000000006
 30
0.0
 40
5.000000000000001
100
AcDbArc
 50
180.0
 51
270.0
  0
LINE
  5
35D
330
1F
100
AcDbEntity
  8
keys
100
AcDbLine
 10
2.500000000000057
 20
23.49999999999999
 30
0.0
 11
2.500000000000043
 21
7.5
 31
0.0
  0
LINE
  5
35E
330
1F
100
AcDbEntity
  8
keys
100
AcDbLine
 10
35.00000000000006
 20
23.49999999999999
 30
0.0
 11
35.00000000000006
 21
7.5
 31
0.0
  0
LINE
  5
35F
330
1F
100
AcDbEntity
  8
keys
  6
Continuous
370
    15
100
AcDbLine
 10
7.500000000000043
 20
2.5
 30
0.0
 11
30.00000000000004
 21
2.5
 31
0.0
  0
LINE
  5
360
330
1F
100
AcDbEntity
  8
keys
  6
Continuous
370
    15
100
AcDbLine
 10
7.500000000000057
 20
28.49999999999999
 30
0.0
 11
30.00000000000006
 21
28.49999999999999
 31
0.0
  0
ARC
  5
361
330
1F
100
AcDbEntity
  8
keys
100
AcDbCircle
 10
7.500000000000057
 20
23.49999999999999
 30
0.0
 40
5.000000000000001
100
AcDbArc
 50
90.0
 51
180.0
  0
ARC
  5
362
330
1F
100
AcDbEntity
  8
keys
100
AcDbCircle
 10
30.00000000000006
 20
23.49999999999999
 30
0.0
 40
5.0
100
AcDbArc
 50
0.0
 51
90.0
  0
ARC
  5
363
330
1F
100
AcDbEntity
  8
keys
100
AcDbCircle
 10
30.00000000000006
 20
7.5
 30
0.0
 40
4.999999999999998
100
AcDbArc
 50
270.0
 51
0.0
  0
ARC
  5
364
330
1F
100
AcDbEntity
  8
keys
100
AcDbCircle
 10
7.500000000000043
 20
7.5
 30
0.0
 40
5.000000000000001
100
AcDbArc
 50
180.0
 51
270.0
  0
LINE
  5
3A5
330
1F
100
AcDbEntity
  8
keys
100
AcDbLine
 10
-72.49999999999993
 20
54.49999999999996
 30
0.0
 11
-72.49999999999994
 21
38.49999999999997
 31
0.0
  0
ARC
  5
3A6
330
1F
100
AcDbEntity
  8
keys
100
AcDbCircle
 10
-67.49999999999993
 20
54.49999999999996
 30
0.0
 40
5.000000000000001
100
AcDbArc
 50
90.0
 51
180.0
  0
ARC
  5
3A7
330
1F
100
AcDbEntity
  8
keys
100
AcDbCircle
 10
-67.49999999999994
 20
38.49999999999997
 30
0.0
 40
5.000000000000001
100
AcDbArc
 50
180.0
 51
270.0
  0
LINE
  5
3AC
330
1F
100
AcDbEntity
  8
keys
100
AcDbLine
 10
40.00000000000001
 20
-38.5000000000001
 30
0.0
 11
40.0
 21
-54.50000000000009
 31
0.0
  0
LINE
  5
3AD
330
1F
100
AcDbEntity
  8
keys
100
AcDbLine
 10
72.50000000000001
 20
-38.5000000000001
 30
0.0
 11
72.50000000000001
 21
-54.50000000000009
 31
0.0
  0
LINE
  5
3AE
330
1F
100
AcDbEntity
  8
keys
  6
Continuous
370
    15
100
AcDbLine
 10
45.0
 20
-59.50000000000009
 30
0.0
 11
67.5
 21
-59.50000000000009
 31
0.0
  0
LINE
  5
3AF
330
1F
100
AcDbEntity
  8
keys
  6
Continuous
370
    15
100
AcDbLine
 10
45.00000000000001
 20
-33.5000000000001
 30
0.0
 11
67.50000000000001
 21
-33.50000000000009
 31
0.0
  0
ARC
  5
3B0
330
1F
100
AcDbEntity
  8
keys
100
AcDbCircle
 10
45.00000000000001
 20
-38.5000000000001
 30
0.0
 40
5.000000000000001
100
AcDbArc
 50
90.0
 51
180.0
  0
ARC
  5
3B1
330
1F
100
AcDbEntity
  8
keys
100
AcDbCircle
 10
67.50000000000001
 20
-38.50000000000009
 30
0.0
 40
5.0
100
AcDbArc
 50
0.0
 51
90.0
  0
ARC
  5
3B2
330
1F
100
AcDbEntity
  8
keys
100
AcDbCircle
 10
67.50000000000001
 20
-54.50000000000009
 30
0.0
 40
4.999999999999998
100
AcDbArc
 50
270.0
 51
0.0
  0
ARC
  5
3B3
330
1F
100
AcDbEntity
  8
keys
100
AcDbCircle
 10
45.0
 20
-54.50000000000009
 30
0.0
 40
5.000000000000001
100
AcDbArc
 50
180.0
 51
270.0
  0
LINE
  5
3B4
330
1F
100
AcDbEntity
  8
keys
100
AcDbLine
 10
40.00000000000004
 20
-7.500000000000099
 30
0.0
 11
40.00000000000003
 21
-23.50000000000009
 31
0.0
  0
LINE
  5
3B5
330
1F
100
AcDbEntity
  8
keys
100
AcDbLine
 10
72.50000000000004
 20
-7.500000000000099
 30
0.0
 11
72.50000000000004
 21
-23.50000000000009
 31
0.0
  0
LINE
  5
3B6
330
1F
100
AcDbEntity
  8
keys
  6
Continuous
370
    15
100
AcDbLine
 10
45.00000000000003
 20
-28.50000000000009
 30
0.0
 11
67.50000000000003
 21
-28.50000000000009
 31
0.0
  0
LINE
  5
3B7
330
1F
100
AcDbEntity
  8
keys
  6
Continuous
370
    15
100
AcDbLine
 10
45.00000000000004
 20
-2.500000000000099
 30
0.0
 11
67.50000000000004
 21
-2.500000000000092
 31
0.0
  0
ARC
  5
3B8
330
1F
100
AcDbEntity
  8
keys
100
AcDbCircle
 10
45.00000000000004
 20
-7.500000000000099
 30
0.0
 40
5.000000000000001
100
AcDbArc
 50
90.0
 51
180.0
  0
ARC
  5
3B9
330
1F
100
AcDbEntity
  8
keys
100
AcDbCircle
 10
67.50000000000004
 20
-7.500000000000092
 30
0.0
 40
5.0
100
AcDbArc
 50
0.0
 51
90.0
  0
ARC
  5
3BA
330
1F
100
AcDbEntity
  8
keys
100
AcDbCircle
 10
67.50000000000004
 20
-23.50000000000009
 30
0.0
 40
4.999999999999998
100
AcDbArc
 50
270.0
 51
0.0
  0
ARC
  5
3BB
330
1F
100
AcDbEntity
  8
keys
100
AcDbCircle
 10
45.00000000000003
 20
-23.50000000000009
 30
0.0
 40
5.000000000000001
100
AcDbArc
 50
180.0
 51
270.0
  0
LINE
  5
3BC
330
1F
100
AcDbEntity
  8
keys
100
AcDbLine
 10
40.00000000000006
 20
23.49999999999996
 30
0.0
 11
40.00000000000004
 21
7.499999999999972
 31
0.0
  0
LINE
  5
3BD
330
1F
100
AcDbEntity
  8
keys
100
AcDbLine
 10
72.50000000000006
 20
23.49999999999996
 30
0.0
 11
72.50000000000006
 21
7.499999999999972
 31
0.0
  0
LINE
  5
3BE
330
1F
100
AcDbEntity
  8
keys
  6
Continuous
370
    15
100
AcDbLine
 10
45.00000000000004
 20
2.499999999999972
 30
0.0
 11
67.50000000000004
 21
2.499999999999972
 31
0.0
  0
LINE
  5
3BF
330
1F
100
AcDbEntity
  8
keys
  6
Continuous
370
    15
100
AcDbLine
 10
45.00000000000006
 20
28.49999999999996
 30
0.0
 11
67.50000000000006
 21
28.49999999999996
 31
0.0
  0
ARC
  5
3C0
330
1F
100
AcDbEntity
  8
keys
100
AcDbCircle
 10
45.00000000000006
 20
23.49999999999996
 30
0.0
 40
5.000000000000001
100
AcDbArc
 50
90.0
 51
180.0
  0
ARC
  5
3C1
330
1F
100
AcDbEntity
  8
keys
100
AcDbCircle
 10
67.50000000000006
 20
23.49999999999996
 30
0.0
 40
5.0
100
AcDbArc
 50
0.0
 51
90.0
  0
ARC
  5
3C2
330
1F
100
AcDbEntity
  8
keys
100
AcDbCircle
 10
67.50000000000006
 20
7.499999999999972
 30
0.0
 40
4.999999999999998
100
AcDbArc
 50
270.0
 51
0.0
  0
ARC
  5
3C3
330
1F
100
AcDbEntity
  8
keys
100
AcDbCircle
 10
45.00000000000004
 20
7.499999999999972
 30
0.0
 40
5.000000000000001
100
AcDbArc
 50
180.0
 51
270.0
  0
LINE
  5
3C4
330
1F
100
AcDbEntity
  8
keys
100
AcDbLine
 10
77.50000000000001
 20
-38.50000000000013
 30
0.0
 11
77.5
 21
-54.50000000000011
 31
0.0
  0
LINE
  5
3C5
330
1F
100
AcDbEntity
  8
keys
100
AcDbLine
 10
110.0
 20
-38.50000000000013
 30
0.0
 11
110.0
 21
-54.50000000000011
 31
0.0
  0
LINE
  5
3C6
330
1F
100
AcDbEntity
  8
keys
  6
Continuous
370
    15
100
AcDbLine
 10
82.5
 20
-59.50000000000011
 30
0.0
 11
105.0
 21
-59.50000000000011
 31
0.0
  0
LINE
  5
3C7
330
1F
100
AcDbEntity
  8
keys
  6
Continuous
370
    15
100
AcDbLine
 10
82.50000000000001
 20
-33.50000000000013
 30
0.0
 11
105.0
 21
-33.50000000000012
 31
0.0
  0
ARC
  5
3C8
330
1F
100
AcDbEntity
  8
keys
100
AcDbCircle
 10
82.50000000000001
 20
-38.50000000000013
 30
0.0
 40
5.000000000000001
100
AcDbArc
 50
90.0
 51
180.0
  0
ARC
  5
3C9
330
1F
100
AcDbEntity
  8
keys
100
AcDbCircle
 10
105.0
 20
-38.50000000000012
 30
0.0
 40
5.0
100
AcDbArc
 50
0.0
 51
90.0
  0
ARC
  5
3CA
330
1F
100
AcDbEntity
  8
keys
100
AcDbCircle
 10
105.0
 20
-54.50000000000011
 30
0.0
 40
4.999999999999998
100
AcDbArc
 50
270.0
 51
0.0
  0
ARC
  5
3CB
330
1F
100
AcDbEntity
  8
keys
100
AcDbCircle
 10
82.5
 20
-54.50000000000011
 30
0.0
 40
5.000000000000001
100
AcDbArc
 50
180.0
 51
270.0
  0
LINE
  5
3CC
330
1F
100
AcDbEntity
  8
keys
100
AcDbLine
 10
77.50000000000004
 20
-7.500000000000128
 30
0.0
 11
77.50000000000003
 21
-23.50000000000011
 31
0.0
  0
LINE
  5
3CD
330
1F
100
AcDbEntity
  8
keys
100
AcDbLine
 10
110.0
 20
-7.500000000000128
 30
0.0
 11
110.0
 21
-23.50000000000011
 31
0.0
  0
LINE
  5
3CE
330
1F
100
AcDbEntity
  8
keys
  6
Continuous
370
    15
100
AcDbLine
 10
82.50000000000003
 20
-28.50000000000011
 30
0.0
 11
105.0
 21
-28.50000000000011
 31
0.0
  0
LINE
  5
3CF
330
1F
100
AcDbEntity
  8
keys
  6
Continuous
370
    15
100
AcDbLine
 10
82.50000000000004
 20
-2.500000000000128
 30
0.0
 11
105.0
 21
-2.500000000000121
 31
0.0
  0
ARC
  5
3D0
330
1F
100
AcDbEntity
  8
keys
100
AcDbCircle
 10
82.50000000000004
 20
-7.500000000000128
 30
0.0
 40
5.000000000000001
100
AcDbArc
 50
90.0
 51
180.0
  0
ARC
  5
3D1
330
1F
100
AcDbEntity
  8
keys
100
AcDbCircle
 10
105.0
 20
-7.500000000000121
 30
0.0
 40
5.0
100
AcDbArc
 50
0.0
 51
90.0
  0
ARC
  5
3D2
330
1F
100
AcDbEntity
  8
keys
100
AcDbCircle
 10
105.0
 20
-23.50000000000011
 30
0.0
 40
4.999999999999998
100
AcDbArc
 50
270.0
 51
0.0
  0
ARC
  5
3D3
330
1F
100
AcDbEntity
  8
keys
100
AcDbCircle
 10
82.50000000000003
 20
-23.50000000000011
 30
0.0
 40
5.000000000000001
100
AcDbArc
 50
180.0
 51
270.0
  0
LINE
  5
3D4
330
1F
100
AcDbEntity
  8
keys
100
AcDbLine
 10
77.50000000000006
 20
23.49999999999993
 30
0.0
 11
77.50000000000004
 21
7.499999999999943
 31
0.0
  0
LINE
  5
3D5
330
1F
100
AcDbEntity
  8
keys
100
AcDbLine
 10
110.0000000000001
 20
23.49999999999993
 30
0.0
 11
110.0000000000001
 21
7.499999999999943
 31
0.0
  0
LINE
  5
3D6
330
1F
100
AcDbEntity
  8
keys
  6
Continuous
370
    15
100
AcDbLine
 10
82.50000000000004
 20
2.499999999999943
 30
0.0
 11
105.0
 21
2.499999999999943
 31
0.0
  0
LINE
  5
3D7
330
1F
100
AcDbEntity
  8
keys
  6
Continuous
370
    15
100
AcDbLine
 10
82.50000000000006
 20
28.49999999999993
 30
0.0
 11
105.0000000000001
 21
28.49999999999994
 31
0.0
  0
ARC
  5
3D8
330
1F
100
AcDbEntity
  8
keys
100
AcDbCircle
 10
82.50000000000006
 20
23.49999999999993
 30
0.0
 40
5.000000000000001
100
AcDbArc
 50
90.0
 51
180.0
  0
ARC
  5
3D9
330
1F
100
AcDbEntity
  8
keys
100
AcDbCircle
 10
105.0000000000001
 20
23.49999999999994
 30
0.0
 40
5.0
100
AcDbArc
 50
0.0
 51
90.0
  0
ARC
  5
3DA
330
1F
100
AcDbEntity
  8
keys
100
AcDbCircle
 10
105.0000000000001
 20
7.499999999999943
 30
0.0
 40
4.999999999999998
100
AcDbArc
 50
270.0
 51
0.0
  0
ARC
  5
3DB
330
1F
100
AcDbEntity
  8
keys
100
AcDbCircle
 10
82.50000000000004
 20
7.499999999999943
 30
0.0
 40
5.000000000000001
100
AcDbArc
 50
180.0
 51
270.0
  0
LINE
  5
3DC
330
1F
100
AcDbEntity
  8
keys
100
AcDbLine
 10
40.00000000000007
 20
54.50000000000001
 30
0.0
 11
40.00000000000006
 21
38.50000000000003
 31
0.0
  0
LINE
  5
3DD
330
1F
100
AcDbEntity
  8
keys
100
AcDbLine
 10
72.50000000000007
 20
54.50000000000001
 30
0.0
 11
72.50000000000007
 21
38.50000000000003
 31
0.0
  0
LINE
  5
3DE
330
1F
100
AcDbEntity
  8
keys
  6
Continuous
370
    15
100
AcDbLine
 10
45.00000000000006
 20
33.50000000000003
 30
0.0
 11
67.50000000000006
 21
33.50000000000003
 31
0.0
  0
LINE
  5
3DF
330
1F
100
AcDbEntity
  8
keys
  6
Continuous
370
    15
100
AcDbLine
 10
45.00000000000007
 20
59.50000000000001
 30
0.0
 11
67.50000000000007
 21
59.50000000000002
 31
0.0
  0
ARC
  5
3E0
330
1F
100
AcDbEntity
  8
keys
100
AcDbCircle
 10
45.00000000000007
 20
54.50000000000001
 30
0.0
 40
5.000000000000001
100
AcDbArc
 50
90.0
 51
180.0
  0
ARC
  5
3E1
330
1F
100
AcDbEntity
  8
keys
100
AcDbCircle
 10
67.50000000000007
 20
54.50000000000002
 30
0.0
 40
5.0
100
AcDbArc
 50
0.0
 51
90.0
  0
ARC
  5
3E2
330
1F
100
AcDbEntity
  8
keys
100
AcDbCircle
 10
67.50000000000007
 20
38.50000000000003
 30
0.0
 40
4.999999999999998
100
AcDbArc
 50
270.0
 51
0.0
  0
ARC
  5
3E3
330
1F
100
AcDbEntity
  8
keys
100
AcDbCircle
 10
45.00000000000006
 20
38.50000000000003
 30
0.0
 40
5.000000000000001
100
AcDbArc
 50
180.0
 51
270.0
  0
LINE
  5
3E4
330
1F
100
AcDbEntity
  8
keys
100
AcDbLine
 10
77.50000000000007
 20
54.49999999999999
 30
0.0
 11
77.50000000000006
 21
38.5
 31
0.0
  0
LINE
  5
3E5
330
1F
100
AcDbEntity
  8
keys
100
AcDbLine
 10
110.0000000000001
 20
54.49999999999999
 30
0.0
 11
110.0000000000001
 21
38.5
 31
0.0
  0
LINE
  5
3E6
330
1F
100
AcDbEntity
  8
keys
  6
Continuous
370
    15
100
AcDbLine
 10
82.50000000000006
 20
33.5
 30
0.0
 11
105.0000000000001
 21
33.5
 31
0.0
  0
LINE
  5
3E7
330
1F
100
AcDbEntity
  8
keys
  6
Continuous
370
    15
100
AcDbLine
 10
82.50000000000007
 20
59.49999999999999
 30
0.0
 11
105.0000000000001
 21
59.49999999999999
 31
0.0
  0
ARC
  5
3E8
330
1F
100
AcDbEntity
  8
keys
100
AcDbCircle
 10
82.50000000000007
 20
54.49999999999999
 30
0.0
 40
5.000000000000001
100
AcDbArc
 50
90.0
 51
180.0
  0
ARC
  5
3E9
330
1F
100
AcDbEntity
  8
keys
100
AcDbCircle
 10
105.0000000000001
 20
54.49999999999999
 30
0.0
 40
5.0
100
AcDbArc
 50
0.0
 51
90.0
  0
ARC
  5
3EA
330
1F
100
AcDbEntity
  8
keys
100
AcDbCircle
 10
105.0000000000001
 20
38.5
 30
0.0
 40
4.999999999999998
100
AcDbArc
 50
270.0
 51
0.0
  0
ARC
  5
3EB
330
1F
100
AcDbEntity
  8
keys
100
AcDbCircle
 10
82.50000000000006
 20
38.5
 30
0.0
 40
5.000000000000001
100
AcDbArc
 50
180.0
 51
270.0
  0
LINE
  5
3EC
330
1F
100
AcDbEntity
  8
keys
100
AcDbLine
 10
35.00000000000007
 20
54.50000000000004
 30
0.0
 11
35.00000000000007
 21
38.50000000000006
 31
0.0
  0
ARC
  5
3ED
330
1F
100
AcDbEntity
  8
keys
100
AcDbCircle
 10
30.00000000000007
 20
54.50000000000005
 30
0.0
 40
5.0
100
AcDbArc
 50
0.0
 51
90.0
  0
ARC
  5
3EE
330
1F
100
AcDbEntity
  8
keys
100
AcDbCircle
 10
30.00000000000007
 20
38.50000000000006
 30
0.0
 40
4.999999999999998
100
AcDbArc
 50
270.0
 51
0.0
  0
LINE
  5
3F0
330
1F
100
AcDbEntity
  8
keys
100
AcDbLine
 10
-67.49999999999993
 20
59.49999999999996
 30
0.0
 11
30.00000000000007
 21
59.50000000000005
 31
0.0
  0
LINE
  5
3F1
330
1F
100
AcDbEntity
  8
keys
100
AcDbLine
 10
-67.49999999999994
 20
33.49999999999997
 30
0.0
 11
30.00000000000007
 21
33.50000000000006
 31
0.0
  0
ENDSEC
  0
SECTION
  2
OBJECTS
  0
DICTIONARY
  5
C
330
0
100
AcDbDictionary
281
     1
  3
ACAD_GROUP
350
D
  3
ACAD_IMAGE_VARS
350
2AB
  3
ACAD_LAYOUT
350
1A
  3
ACAD_MLINESTYLE
350
17
  3
ACAD_PLOTSETTINGS
350
19
  3
ACAD_PLOTSTYLENAME
350
E
  3
ACAD_SCALELIST
350
47
  3
APPDATA
350
2A9
  3
DWGPROPS
350
3F2
  0
DICTIONARY
  5
2AC
330
2
100
AcDbDictionary
280
     1
281
     1
  3
ACAD_LAYERSTATES
360
2AD
  3
ACLYDICTIONARY
360
302
  0
DICTIONARY
  5
D
102
{ACAD_REACTORS
330
C
102
}
330
C
100
AcDbDictionary
281
     1
  0
RASTERVARIABLES
  5
2AB
102
{ACAD_REACTORS
330
C
102
}
330
C
100
AcDbRasterVariables
 90
        0
 70
     1
 71
     1
 72
     1
  0
DICTIONARY
  5
1A
102
{ACAD_REACTORS
330
C
102
}
330
C
100
AcDbDictionary
281
     1
  3
Layout1
350
1E
  3
Layout2
350
26
  3
Model
350
22
  0
DICTIONARY
  5
17
102
{ACAD_REACTORS
330
C
102
}
330
C
100
AcDbDictionary
281
     1
  3
Standard
350
18
  0
DICTIONARY
  5
19
102
{ACAD_REACTORS
330
C
102
}
330
C
100
AcDbDictionary
281
     1
  0
ACDBDICTIONARYWDFLT
  5
E
102
{ACAD_REACTORS
330
C
102
}
330
C
100
AcDbDictionary
281
     1
  3
Normal
350
F
100
AcDbDictionaryWithDefault
340
F
  0
DICTIONARY
  5
47
102
{ACAD_REACTORS
330
C
102
}
330
C
100
AcDbDictionary
281
     1
  3
A0
350
48
  3
A1
350
49
  3
A2
350
4A
  3
A3
350
4B
  3
A4
350
4C
  3
A5
350
4D
  3
A6
350
4E
  3
A7
350
4F
  3
A8
350
50
  3
A9
350
51
  3
B0
350
52
  3
B1
350
53
  3
B2
350
54
  3
B3
350
55
  3
B4
350
56
  3
B5
350
57
  3
B6
350
58
  3
B7
350
59
  3
B8
350
5A
  3
B9
350
5B
  3
C0
350
5C
  3
C1
350
5D
  3
C2
350
5E
  3
C3
350
5F
  3
C4
350
60
  3
C5
350
61
  3
C6
350
62
  3
C7
350
63
  3
C8
350
64
  3
C9
350
65
  3
D0
350
66
  3
D1
350
67
  3
D2
350
68
  0
DICTIONARY
  5
2A9
102
{ACAD_REACTORS
330
C
102
}
330
C
100
AcDbDictionary
281
     1
  0
XRECORD
  5
3F2
102
{ACAD_REACTORS
330
C
102
}
330
C
100
AcDbXrecord
280
     1
  1
DWGPROPS COOKIE
  2

  3

  4

  6

  7

  8
Paul
  9

300
=
301
=
302
=
303
=
304
=
305
=
306
=
307
=
308
=
309
=
 40
0.0
 41
2457198.507078924
 42
2457401.591723773
  1

 90
        0
  0
DICTIONARY
  5
2AD
102
{ACAD_REACTORS
330
2AC
102
}
330
2AC
100
AcDbDictionary
281
     1
  3
ARGON_LAYERP_1
350
2AE
  3
ARGON_LAYERP_2
350
300
  3
ARGON_LAYERP_3
350
3EF
  0
DICTIONARY
  5
302
102
{ACAD_REACTORS
330
2AC
102
}
330
2AC
100
AcDbDictionary
281
     1
1001
ACAD
1000
<All
  0
LAYOUT
  5
1E
102
{ACAD_REACTORS
330
1A
102
}
330
1A
100
AcDbPlotSettings
  1

  2
none_device
  4

  6

 40
0.0
 41
0.0
 42
0.0
 43
0.0
 44
0.0
 45
0.0
 46
0.0
 47
0.0
 48
0.0
 49
0.0
140
0.0
141
0.0
142
1.0
143
1.0
 70
   688
 72
     1
 73
     0
 74
     5
  7

 75
    16
147
1.0
148
0.0
149
0.0
100
AcDbLayout
  1
Layout1
 70
     1
 71
     1
 10
0.0
 20
0.0
 11
420.0
 21
297.0
 12
0.0
 22
0.0
 32
0.0
 14
1.000000000000000E+20
 24
1.000000000000000E+20
 34
1.000000000000000E+20
 15
-1.000000000000000E+20
 25
-1.000000000000000E+20
 35
-1.000000000000000E+20
146
0.0
 13
0.0
 23
0.0
 33
0.0
 16
1.0
 26
0.0
 36
0.0
 17
0.0
 27
1.0
 37
0.0
 76
     0
330
1B
  0
LAYOUT
  5
26
102
{ACAD_REACTORS
330
1A
102
}
330
1A
100
AcDbPlotSettings
  1

  2
none_device
  4

  6

 40
0.0
 41
0.0
 42
0.0
 43
0.0
 44
0.0
 45
0.0
 46
0.0
 47
0.0
 48
0.0
 49
0.0
140
0.0
141
0.0
142
1.0
143
1.0
 70
   688
 72
     1
 73
     0
 74
     5
  7

 75
    16
147
1.0
148
0.0
149
0.0
100
AcDbLayout
  1
Layout2
 70
     1
 71
     2
 10
0.0
 20
0.0
 11
0.0
 21
0.0
 12
0.0
 22
0.0
 32
0.0
 14
0.0
 24
0.0
 34
0.0
 15
0.0
 25
0.0
 35
0.0
146
0.0
 13
0.0
 23
0.0
 33
0.0
 16
1.0
 26
0.0
 36
0.0
 17
0.0
 27
1.0
 37
0.0
 76
     0
330
23
  0
LAYOUT
  5
22
102
{ACAD_REACTORS
330
1A
102
}
330
1A
100
AcDbPlotSettings
  1

  2
none_device
  4
ANSI_A_(11.00_x_8.50_Inches)
  6

 40
6.35
 41
19.05
 42
6.35000508
 43
19.05000254
 44
279.4
 45
215.9
 46
133.34999746
 47
89.6979006531
 48
0.0
 49
0.0
140
0.0
141
0.0
142
0.0418846154
143
1.0
 70
  1696
 72
     0
 73
     0
 74
     0
  7

 75
     0
147
0.0179189148
148
-1300.4909072572
149
0.0
100
AcDbLayout
  1
Model
 70
     1
 71
     0
 10
0.0
 20
0.0
 11
420.0
 21
297.0
 12
0.0
 22
0.0
 32
0.0
 14
-130.0
 24
-82.0
 34
0.0
 15
130.0
 25
80.5
 35
0.0
146
0.0
 13
0.0
 23
0.0
 33
0.0
 16
1.0
 26
0.0
 36
0.0
 17
0.0
 27
1.0
 37
0.0
 76
     0
330
1F
331
29
  0
MLINESTYLE
  5
18
102
{ACAD_REACTORS
330
17
102
}
330
17
100
AcDbMlineStyle
  2
Standard
 70
     0
  3

 62
   256
 51
90.0
 52
90.0
 71
     2
 49
0.5
 62
   256
  6
BYLAYER
 49
-0.5
 62
   256
  6
BYLAYER
  0
ACDBPLACEHOLDER
  5
F
102
{ACAD_REACTORS
330
E
102
}
330
E
  0
SCALE
  5
48
102
{ACAD_REACTORS
330
47
102
}
330
47
100
AcDbScale
 70
     0
300
1:1
140
1.0
141
1.0
290
     1
  0
SCALE
  5
49
102
{ACAD_REACTORS
330
47
102
}
330
47
100
AcDbScale
 70
     0
300
1:2
140
1.0
141
2.0
290
     0
  0
SCALE
  5
4A
102
{ACAD_REACTORS
330
47
102
}
330
47
100
AcDbScale
 70
     0
300
1:4
140
1.0
141
4.0
290
     0
  0
SCALE
  5
4B
102
{ACAD_REACTORS
330
47
102
}
330
47
100
AcDbScale
 70
     0
300
1:5
140
1.0
141
5.0
290
     0
  0
SCALE
  5
4C
102
{ACAD_REACTORS
330
47
102
}
330
47
100
AcDbScale
 70
     0
300
1:8
140
1.0
141
8.0
290
     0
  0
SCALE
  5
4D
102
{ACAD_REACTORS
330
47
102
}
330
47
100
AcDbScale
 70
     0
300
1:10
140
1.0
141
10.0
290
     0
  0
SCALE
  5
4E
102
{ACAD_REACTORS
330
47
102
}
330
47
100
AcDbScale
 70
     0
300
1:16
140
1.0
141
16.0
290
     0
  0
SCALE
  5
4F
102
{ACAD_REACTORS
330
47
102
}
330
47
100
AcDbScale
 70
     0
300
1:20
140
1.0
141
20.0
290
     0
  0
SCALE
  5
50
102
{ACAD_REACTORS
330
47
102
}
330
47
100
AcDbScale
 70
     0
300
1:30
140
1.0
141
30.0
290
     0
  0
SCALE
  5
51
102
{ACAD_REACTORS
330
47
102
}
330
47
100
AcDbScale
 70
     0
300
1:40
140
1.0
141
40.0
290
     0
  0
SCALE
  5
52
102
{ACAD_REACTORS
330
47
102
}
330
47
100
AcDbScale
 70
     0
300
1:50
140
1.0
141
50.0
290
     0
  0
SCALE
  5
53
102
{ACAD_REACTORS
330
47
102
}
330
47
100
AcDbScale
 70
     0
300
1:100
140
1.0
141
100.0
290
     0
  0
SCALE
  5
54
102
{ACAD_REACTORS
330
47
102
}
330
47
100
AcDbScale
 70
     0
300
2:1
140
2.0
141
1.0
290
     0
  0
SCALE
  5
55
102
{ACAD_REACTORS
330
47
102
}
330
47
100
AcDbScale
 70
     0
300
4:1
140
4.0
141
1.0
290
     0
  0
SCALE
  5
56
102
{ACAD_REACTORS
330
47
102
}
330
47
100
AcDbScale
 70
     0
300
8:1
140
8.0
141
1.0
290
     0
  0
SCALE
  5
57
102
{ACAD_REACTORS
330
47
102
}
330
47
100
AcDbScale
 70
     0
300
10:1
140
10.0
141
1.0
290
     0
  0
SCALE
  5
58
102
{ACAD_REACTORS
330
47
102
}
330
47
100
AcDbScale
 70
     0
300
100:1
140
100.0
141
1.0
290
     0
  0
SCALE
  5
59
102
{ACAD_REACTORS
330
47
102
}
330
47
100
AcDbScale
 70
     0
300
1/128" = 1'-0"
140
0.0078125
141
12.0
290
     0
  0
SCALE
  5
5A
102
{ACAD_REACTORS
330
47
102
}
330
47
100
AcDbScale
 70
     0
300
1/64" = 1'-0"
140
0.015625
141
12.0
290
     0
  0
SCALE
  5
5B
102
{ACAD_REACTORS
330
47
102
}
330
47
100
AcDbScale
 70
     0
300
1/32" = 1'-0"
140
0.03125
141
12.0
290
     0
  0
SCALE
  5
5C
102
{ACAD_REACTORS
330
47
102
}
330
47
100
AcDbScale
 70
     0
300
1/16" = 1'-0"
140
0.0625
141
12.0
290
     0
  0
SCALE
  5
5D
102
{ACAD_REACTORS
330
47
102
}
330
47
100
AcDbScale
 70
     0
300
3/32" = 1'-0"
140
0.09375
141
12.0
290
     0
  0
SCALE
  5
5E
102
{ACAD_REACTORS
330
47
102
}
330
47
100
AcDbScale
 70
     0
300
1/8" = 1'-0"
140
0.125
141
12.0
290
     0
  0
SCALE
  5
5F
102
{ACAD_REACTORS
330
47
102
}
330
47
100
AcDbScale
 70
     0
300
3/16" = 1'-0"
140
0.1875
141
12.0
290
     0
  0
SCALE
  5
60
102
{ACAD_REACTORS
330
47
102
}
330
47
100
AcDbScale
 70
     0
300
1/4" = 1'-0"
140
0.25
141
12.0
290
     0
  0
SCALE
  5
61
102
{ACAD_REACTORS
330
47
102
}
330
47
100
AcDbScale
 70
     0
300
3/8" = 1'-0"
140
0.375
141
12.0
290
     0
  0
SCALE
  5
62
102
{ACAD_REACTORS
330
47
102
}
330
47
100
AcDbScale
 70
     0
300
1/2" = 1'-0"
140
0.5
141
12.0
290
     0
  0
SCALE
  5
63
102
{ACAD_REACTORS
330
47
102
}
330
47
100
AcDbScale
 70
     0
300
3/4" = 1'-0"
140
0.75
141
12.0
290
     0
  0
SCALE
  5
64
102
{ACAD_REACTORS
330
47
102
}
330
47
100
AcDbScale
 70
     0
300
1" = 1'-0"
140
1.0
141
12.0
290
     0
  0
SCALE
  5
65
102
{ACAD_REACTORS
330
47
102
}
330
47
100
AcDbScale
 70
     0
300
1-1/2" = 1'-0"
140
1.5
141
12.0
290
     0
  0
SCALE
  5
66
102
{ACAD_REACTORS
330
47
102
}
330
47
100
AcDbScale
 70
     0
300
3" = 1'-0"
140
3.0
141
12.0
290
     0
  0
SCALE
  5
67
102
{ACAD_REACTORS
330
47
102
}
330
47
100
AcDbScale
 70
     0
300
6" = 1'-0"
140
6.0
141
12.0
290
     0
  0
SCALE
  5
68
102
{ACAD_REACTORS
330
47
102
}
330
47
100
AcDbScale
 70
     0
300
1'-0" = 1'-0"
140
12.0
141
12.0
290
     0
  0
XRECORD
  5
2AE
102
{ACAD_REACTORS
330
2AD
102
}
330
2AD
100
AcDbXrecord
280
     1
 91
     1023
301

290
     0
302
0
330
10
 90
        8
 62
     7
370
    -3
331
16
  1
Color_7
  0
XRECORD
  5
300
102
{ACAD_REACTORS
330
2AD
102
}
330
2AD
100
AcDbXrecord
280
     1
 91
     1023
301

290
     0
302
0
330
10
 90
        8
 62
     7
370
    -3
331
16
  1
Color_7
330
2AF
 90
        8
 62
     6
370
    -3
331
16
  1
Color_6
330
2B1
 90
        8
 62
     1
370
    -3
331
16
  1
Color_1
330
2E1
 90
        0
 62
     7
370
    -3
331
16
  1
Color_7
  0
XRECORD
  5
3EF
102
{ACAD_REACTORS
330
2AD
102
}
330
2AD
100
AcDbXrecord
280
     1
 91
     1023
301

290
     0
302
0
330
10
 90
        8
 62
     7
370
    -3
331
16
  1
Color_7
330
2AF
 90
        8
 62
     2
370
    -3
331
16
  1
Color_2
330
2B1
 90
        8
 62
     1
370
    -3
331
16
  1
Color_1
330
2E1
 90
        0
 62
     7
370
    -3
331
16
  1
Color_7
330
301
 90
        8
 62
     6
370
    -3
331
16
  1
Color_6
  0
ENDSEC
  0
EOF
